<svg id="Layer_1" data-name="Layer 1" xmlns="http://www.w3.org/2000/svg" xmlns:xlink="http://www.w3.org/1999/xlink" viewBox="0 0 1920 1080"><defs><style>.cls-1,.cls-3{fill:none;}.cls-1{stroke:#ccc;stroke-width:3px;}.cls-1,.cls-2,.cls-3{stroke-miterlimit:10;}.cls-2{fill:#8c6239;}.cls-2,.cls-3{stroke:#1a1a1a;}.cls-3{stroke-width:4px;}.cls-4{fill:#1a1a1a;}.cls-5{filter:url(#AI_Shadow_2);}.cls-6{fill:#006837;}.cls-7{fill:#c1272d;}.cls-8{filter:url(#AI_BevelShadow_1);}.cls-9{fill:#fff;}.cls-10{fill:#a67c52;}.cls-11{fill:#fff68a;}.cls-12{fill:#e9c500;}</style><filter id="AI_Shadow_2" x="-15" y="-15" width="140" height="130" name="AI_Shadow_2"><feGaussianBlur result="blur" stdDeviation="6" in="SourceAlpha"/><feOffset result="offsetBlurredAlpha" dx="8" dy="8" in="blur"/><feMerge><feMergeNode in="offsetBlurredAlpha"/><feMergeNode in="SourceGraphic"/></feMerge></filter><filter id="AI_BevelShadow_1" x="-20" y="-20" width="140" height="140" name="AI_BevelShadow_1"><feGaussianBlur result="blur" stdDeviation="4" in="SourceAlpha"/><feOffset result="offsetBlur" dx="4" dy="4" in="blur"/><feSpecularLighting result="specOut" surfaceScale="5" specularExponent="10" in="blur"><fePointLight x="-5000" y="-10000" z="-20000"/></feSpecularLighting><feComposite result="specOut" operator="in" in="specOut" in2="SourceAlpha"/><feComposite result="litPaint" operator="arithmetic" k2="1" k3="1" in="SourceGraphic" in2="specOut"/><feMerge><feMergeNode in="offsetBlur"/><feMergeNode in="litPaint"/></feMerge></filter></defs><title>baggrundtitel</title><line class="cls-1" x1="470" y1="92.99" x2="472" y2="100.99"/><rect class="cls-2" y="2.99" width="1920" height="1080"/><line class="cls-3" x1="960" y1="2.99" x2="960" y2="1082.99"/><line class="cls-3" x1="1837.5" y1="2.49" x2="1837.5" y2="1082.49"/><line class="cls-3" x1="1409.5" y1="3.49" x2="1409.5" y2="1083.49"/><line class="cls-3" x1="1184.5" y1="2.49" x2="1184.5" y2="1082.49"/><line class="cls-3" x1="1632.5" y1="3.49" x2="1632.5" y2="1083.49"/><line class="cls-3" x1="1075.5" y1="2.49" x2="1075.5" y2="1082.49"/><line class="cls-3" x1="1300.5" y1="3.49" x2="1300.5" y2="1083.49"/><line class="cls-3" x1="1524.5" y1="3.49" x2="1524.5" y2="1083.49"/><line class="cls-3" x1="1735.5" y1="3.49" x2="1735.5" y2="1083.49"/><line class="cls-3" x1="74.5" y1="4.49" x2="74.5" y2="1084.49"/><line class="cls-3" x1="499.5" y1="4.49" x2="499.5" y2="1084.49"/><line class="cls-3" x1="738.5" y1="4.49" x2="738.5" y2="1084.49"/><line class="cls-3" x1="279.5" y1="3.49" x2="279.5" y2="1083.49"/><line class="cls-3" x1="849.5" y1="3.49" x2="849.5" y2="1083.49"/><line class="cls-3" x1="619.5" y1="4.49" x2="619.5" y2="1084.49"/><line class="cls-3" x1="389.5" y1="3.49" x2="389.5" y2="1083.49"/><line class="cls-3" x1="177.5" y1="2.49" x2="177.5" y2="1082.49"/><polygon class="cls-4" points="74.5 559.49 -0.5 544.49 -0.5 540.49 74.5 549.49 74.5 559.49"/><polygon class="cls-4" points="177.5 250.49 74.5 250.49 74.5 242.49 177.5 246.49 177.5 250.49"/><polygon class="cls-4" points="177.5 843.49 74.5 843.49 74.5 839.49 177.5 833.49 177.5 843.49"/><polygon class="cls-4" points="279.5 544.49 177.5 544.49 177.5 541.49 279.5 534.49 279.5 544.49"/><polygon class="cls-4" points="499.5 545.49 389.5 545.49 389.5 531.49 499.5 540.49 499.5 545.49"/><line class="cls-3" x1="619.5" y1="543.49" x2="738.5" y2="544.49"/><polygon class="cls-4" points="849.52 545.49 849.48 541.49 959.5 531.49 959.52 544.49 849.52 545.49"/><polygon class="cls-4" points="1184.5 544.49 1075.5 544.49 1075.76 540.48 1184.76 536.48 1184.5 544.49"/><polygon class="cls-4" points="1409.5 546.49 1300.5 546.49 1300.5 536.49 1409.5 542.49 1409.5 546.49"/><polygon class="cls-4" points="1632.5 551.49 1524.5 544.49 1524.5 540.49 1632.5 543.49 1632.5 551.49"/><polygon class="cls-4" points="1837.5 542.49 1735.5 548.49 1735.5 538.49 1837.5 538.49 1837.5 542.49"/><polygon class="cls-4" points="389.5 252.49 279.5 240.49 279.5 237.49 389.5 245.49 389.5 252.49"/><polygon class="cls-4" points="619.5 249.49 499.5 249.49 499.5 245.49 619.5 234.49 619.5 249.49"/><polygon class="cls-4" points="849.5 249.49 738.5 254.49 738.5 245.49 849.5 245.49 849.5 249.49"/><polygon class="cls-4" points="1075.5 249.49 959.5 249.49 959.5 245.49 1075.5 236.49 1075.5 249.49"/><polygon class="cls-4" points="1300.5 249.49 1184.5 249.49 1184.5 236.49 1300.5 245.49 1300.5 249.49"/><polygon class="cls-4" points="1524.5 252.49 1409.5 249.49 1409.5 245.49 1524.5 242.49 1524.5 252.49"/><polygon class="cls-4" points="1735.5 253.49 1632.5 249.49 1632.5 245.49 1735.5 245.49 1735.5 253.49"/><polygon class="cls-4" points="1919.5 249.49 1837.5 240.49 1837.5 245.49 1919.5 245.49 1919.5 249.49"/><polygon class="cls-4" points="389.5 841.49 279.5 841.49 279.5 830.49 389.5 837.49 389.5 841.49"/><polygon class="cls-4" points="619.5 841.49 499.5 834.49 499.5 830.49 619.5 830.49 619.5 841.49"/><polygon class="cls-4" points="849.5 832.49 739.5 838.49 738.5 828.49 849.5 828.49 849.5 832.49"/><line class="cls-3" x1="959.5" y1="834.49" x2="1075.5" y2="834.49"/><polygon class="cls-4" points="1300.5 839.49 1184.5 839.49 1184.5 830.49 1300.5 835.49 1300.5 839.49"/><polygon class="cls-4" points="1524.5 839.49 1409.5 839.49 1409.5 847.49 1524.5 833.49 1524.5 839.49"/><line class="cls-3" x1="1632.5" y1="837.49" x2="1735.5" y2="837.49"/><polygon class="cls-4" points="1919.5 840.49 1837.5 840.49 1837.5 836.49 1919.5 829.49 1919.5 840.49"/><path d="M42.91,521.42a1.5,1.5,0,0,0,0-3,1.5,1.5,0,0,0,0,3Z"/><path d="M42.91,571.86a1.5,1.5,0,0,0,0-3,1.5,1.5,0,0,0,0,3Z"/><path d="M102.7,868.92a1.5,1.5,0,0,0,0-3,1.5,1.5,0,0,0,0,3Z"/><path d="M151.27,868.92a1.5,1.5,0,0,0,0-3,1.5,1.5,0,0,0,0,3Z"/><path d="M99,816.61a1.5,1.5,0,0,0,0-3,1.5,1.5,0,0,0,0,3Z"/><path d="M147.54,814.74a1.5,1.5,0,0,0,0-3,1.5,1.5,0,0,0,0,3Z"/><path d="M99,272.93a1.5,1.5,0,0,0,0-3,1.5,1.5,0,0,0,0,3Z"/><path d="M147.54,272.93a1.5,1.5,0,0,0,0-3,1.5,1.5,0,0,0,0,3Z"/><path d="M95.23,216.89a1.5,1.5,0,0,0,0-3,1.5,1.5,0,0,0,0,3Z"/><path d="M151.27,215a1.5,1.5,0,0,0,0-3,1.5,1.5,0,0,0,0,3Z"/><path d="M205.46,506.47a1.5,1.5,0,0,0,0-3,1.5,1.5,0,0,0,0,3Z"/><path d="M248.43,499a1.5,1.5,0,0,0,0-3,1.5,1.5,0,0,0,0,3Z"/><path d="M211.06,581.2a1.5,1.5,0,0,0,0-3,1.5,1.5,0,0,0,0,3Z"/><path d="M255.9,581.2a1.5,1.5,0,0,0,0-3,1.5,1.5,0,0,0,0,3Z"/><path d="M310.08,272.93a1.5,1.5,0,0,0,0-3,1.5,1.5,0,0,0,0,3Z"/><path d="M360.52,272.93a1.5,1.5,0,0,0,0-3,1.5,1.5,0,0,0,0,3Z"/><path d="M308.21,216.89a1.5,1.5,0,0,0,0-3,1.5,1.5,0,0,0,0,3Z"/><path d="M358.66,216.89a1.5,1.5,0,0,0,0-3,1.5,1.5,0,0,0,0,3Z"/><path d="M310.08,814.74a1.5,1.5,0,0,0,0-3,1.5,1.5,0,0,0,0,3Z"/><path d="M362.39,814.74a1.5,1.5,0,0,0,0-3,1.5,1.5,0,0,0,0,3Z"/><path d="M306.34,861.45a1.5,1.5,0,0,0,0-3,1.5,1.5,0,0,0,0,3Z"/><path d="M362.39,865.19a1.5,1.5,0,0,0,0-3,1.5,1.5,0,0,0,0,3Z"/><path d="M418.44,570a1.5,1.5,0,0,0,0-3,1.5,1.5,0,0,0,0,3Z"/><path d="M461.41,571.86a1.5,1.5,0,0,0,0-3,1.5,1.5,0,0,0,0,3Z"/><path d="M416.57,515.81a1.5,1.5,0,0,0,0-3,1.5,1.5,0,0,0,0,3Z"/><path d="M465.15,515.81a1.5,1.5,0,0,0,0-3,1.5,1.5,0,0,0,0,3Z"/><path d="M538,272.93a1.5,1.5,0,0,0,0-3,1.5,1.5,0,0,0,0,3Z"/><path d="M586.59,267.33a1.5,1.5,0,0,0,0-3,1.5,1.5,0,0,0,0,3Z"/><path d="M545.49,209.41a1.5,1.5,0,0,0,0-3,1.5,1.5,0,0,0,0,3Z"/><path d="M592.19,209.41a1.5,1.5,0,0,0,0-3,1.5,1.5,0,0,0,0,3Z"/><path d="M638.9,519.55a1.5,1.5,0,0,0,0-3,1.5,1.5,0,0,0,0,3Z"/><path d="M695,521.42a1.5,1.5,0,0,0,0-3,1.5,1.5,0,0,0,0,3Z"/><path d="M653.85,571.86a1.5,1.5,0,0,0,0-3,1.5,1.5,0,0,0,0,3Z"/><path d="M702.42,570a1.5,1.5,0,0,0,0-3,1.5,1.5,0,0,0,0,3Z"/><path d="M526.8,809.14a1.5,1.5,0,0,0,0-3,1.5,1.5,0,0,0,0,3Z"/><path d="M584.72,809.14a1.5,1.5,0,0,0,0-3,1.5,1.5,0,0,0,0,3Z"/><path d="M526.8,867.05a1.5,1.5,0,0,0,0-3,1.5,1.5,0,0,0,0,3Z"/><path d="M584.72,865.19a1.5,1.5,0,0,0,0-3,1.5,1.5,0,0,0,0,3Z"/><path d="M764.08,857.71a1.5,1.5,0,0,0,0-3,1.5,1.5,0,0,0,0,3Z"/><path d="M818.26,857.71a1.5,1.5,0,0,0,0-3,1.5,1.5,0,0,0,0,3Z"/><path d="M764.08,803.53a1.5,1.5,0,0,0,0-3,1.5,1.5,0,0,0,0,3Z"/><path d="M820.13,803.53a1.5,1.5,0,0,0,0-3,1.5,1.5,0,0,0,0,3Z"/><path d="M767.81,222.49a1.5,1.5,0,0,0,0-3,1.5,1.5,0,0,0,0,3Z"/><path d="M814.52,222.49a1.5,1.5,0,0,0,0-3,1.5,1.5,0,0,0,0,3Z"/><path d="M767.81,282.28a1.5,1.5,0,0,0,0-3,1.5,1.5,0,0,0,0,3Z"/><path d="M810.79,282.28a1.5,1.5,0,0,0,0-3,1.5,1.5,0,0,0,0,3Z"/><path d="M874.31,512.08a1.5,1.5,0,0,0,0-3,1.5,1.5,0,0,0,0,3Z"/><path d="M924.75,512.08a1.5,1.5,0,0,0,0-3,1.5,1.5,0,0,0,0,3Z"/><path d="M878,584.94a1.5,1.5,0,0,0,0-3,1.5,1.5,0,0,0,0,3Z"/><path d="M928.49,583.07a1.5,1.5,0,0,0,0-3,1.5,1.5,0,0,0,0,3Z"/><path d="M990.14,868.92a1.5,1.5,0,0,0,0-3,1.5,1.5,0,0,0,0,3Z"/><path d="M1036.85,868.92a1.5,1.5,0,0,0,0-3,1.5,1.5,0,0,0,0,3Z"/><path d="M988.27,801.66a1.5,1.5,0,0,0,0-3,1.5,1.5,0,0,0,0,3Z"/><path d="M1044.32,796.06a1.5,1.5,0,0,0,0-3,1.5,1.5,0,0,0,0,3Z"/><path d="M986.41,269.2a1.5,1.5,0,0,0,0-3,1.5,1.5,0,0,0,0,3Z"/><path d="M1036.85,269.2a1.5,1.5,0,0,0,0-3,1.5,1.5,0,0,0,0,3Z"/><path d="M986.41,218.75a1.5,1.5,0,0,0,0-3,1.5,1.5,0,0,0,0,3Z"/><path d="M1044.32,222.49a1.5,1.5,0,0,0,0-3,1.5,1.5,0,0,0,0,3Z"/><path d="M1106,510.21a1.5,1.5,0,0,0,0-3,1.5,1.5,0,0,0,0,3Z"/><path d="M1150.82,512.08a1.5,1.5,0,0,0,0-3,1.5,1.5,0,0,0,0,3Z"/><path d="M1107.85,571.86a1.5,1.5,0,0,0,0-3,1.5,1.5,0,0,0,0,3Z"/><path d="M1152.68,571.86a1.5,1.5,0,0,0,0-3,1.5,1.5,0,0,0,0,3Z"/><path d="M1210.6,809.14a1.5,1.5,0,0,0,0-3,1.5,1.5,0,0,0,0,3Z"/><path d="M1268.52,807.27a1.5,1.5,0,0,0,0-3,1.5,1.5,0,0,0,0,3Z"/><path d="M1219.94,868.92a1.5,1.5,0,0,0,0-3,1.5,1.5,0,0,0,0,3Z"/><path d="M1270.39,868.92a1.5,1.5,0,0,0,0-3,1.5,1.5,0,0,0,0,3Z"/><path d="M1218.08,220.62a1.5,1.5,0,0,0,0-3,1.5,1.5,0,0,0,0,3Z"/><path d="M1266.65,220.62a1.5,1.5,0,0,0,0-3,1.5,1.5,0,0,0,0,3Z"/><path d="M1221.81,286a1.5,1.5,0,0,0,0-3,1.5,1.5,0,0,0,0,3Z"/><path d="M1272.26,286a1.5,1.5,0,0,0,0-3,1.5,1.5,0,0,0,0,3Z"/><path d="M1328.31,504.6a1.5,1.5,0,0,0,0-3,1.5,1.5,0,0,0,0,3Z"/><path d="M1380.62,502.74a1.5,1.5,0,0,0,0-3,1.5,1.5,0,0,0,0,3Z"/><path d="M1330.17,581.2a1.5,1.5,0,0,0,0-3,1.5,1.5,0,0,0,0,3Z"/><path d="M1375,581.2a1.5,1.5,0,0,0,0-3,1.5,1.5,0,0,0,0,3Z"/><path d="M1446,216.89a1.5,1.5,0,0,0,0-3,1.5,1.5,0,0,0,0,3Z"/><path d="M1496.45,216.89a1.5,1.5,0,0,0,0-3,1.5,1.5,0,0,0,0,3Z"/><path d="M1447.88,287.88a1.5,1.5,0,0,0,0-3,1.5,1.5,0,0,0,0,3Z"/><path d="M1487.11,287.88a1.5,1.5,0,0,0,0-3,1.5,1.5,0,0,0,0,3Z"/><path d="M1440.4,792.32a1.5,1.5,0,0,0,0-3,1.5,1.5,0,0,0,0,3Z"/><path d="M1481.51,792.32a1.5,1.5,0,0,0,0-3,1.5,1.5,0,0,0,0,3Z"/><path d="M1432.93,883.87a1.5,1.5,0,0,0,0-3,1.5,1.5,0,0,0,0,3Z"/><path d="M1492.72,882a1.5,1.5,0,0,0,0-3,1.5,1.5,0,0,0,0,3Z"/><path d="M1558.11,573.73a1.5,1.5,0,0,0,0-3,1.5,1.5,0,0,0,0,3Z"/><path d="M1593.6,573.73a1.5,1.5,0,0,0,0-3,1.5,1.5,0,0,0,0,3Z"/><path d="M1552.5,517.68a1.5,1.5,0,0,0,0-3,1.5,1.5,0,0,0,0,3Z"/><path d="M1604.81,515.81a1.5,1.5,0,0,0,0-3,1.5,1.5,0,0,0,0,3Z"/><path d="M1657.13,213.15a1.5,1.5,0,0,0,0-3,1.5,1.5,0,0,0,0,3Z"/><path d="M1709.44,213.15a1.5,1.5,0,0,0,0-3,1.5,1.5,0,0,0,0,3Z"/><path d="M1662.73,282.28a1.5,1.5,0,0,0,0-3,1.5,1.5,0,0,0,0,3Z"/><path d="M1709.44,282.28a1.5,1.5,0,0,0,0-3,1.5,1.5,0,0,0,0,3Z"/><path d="M1655.26,801.66a1.5,1.5,0,0,0,0-3,1.5,1.5,0,0,0,0,3Z"/><path d="M1702,803.53a1.5,1.5,0,0,0,0-3,1.5,1.5,0,0,0,0,3Z"/><path d="M1653.39,878.26a1.5,1.5,0,0,0,0-3,1.5,1.5,0,0,0,0,3Z"/><path d="M1711.31,870.79a1.5,1.5,0,0,0,0-3,1.5,1.5,0,0,0,0,3Z"/><path d="M1761.75,573.73a1.5,1.5,0,0,0,0-3,1.5,1.5,0,0,0,0,3Z"/><path d="M1802.85,571.86a1.5,1.5,0,0,0,0-3,1.5,1.5,0,0,0,0,3Z"/><path d="M1761.75,517.68a1.5,1.5,0,0,0,0-3,1.5,1.5,0,0,0,0,3Z"/><path d="M1808.46,515.81a1.5,1.5,0,0,0,0-3,1.5,1.5,0,0,0,0,3Z"/><path d="M1864.51,220.62a1.5,1.5,0,0,0,0-3,1.5,1.5,0,0,0,0,3Z"/><path d="M1898.14,220.62a1.5,1.5,0,0,0,0-3,1.5,1.5,0,0,0,0,3Z"/><path d="M1868.24,272.93a1.5,1.5,0,0,0,0-3,1.5,1.5,0,0,0,0,3Z"/><path d="M1905.61,272.93a1.5,1.5,0,0,0,0-3,1.5,1.5,0,0,0,0,3Z"/><path d="M1864.51,805.4a1.5,1.5,0,0,0,0-3,1.5,1.5,0,0,0,0,3Z"/><path d="M1900,805.4a1.5,1.5,0,0,0,0-3,1.5,1.5,0,0,0,0,3Z"/><path d="M1862.64,870.79a1.5,1.5,0,0,0,0-3,1.5,1.5,0,0,0,0,3Z"/><path d="M1909.35,867.05a1.5,1.5,0,0,0,0-3,1.5,1.5,0,0,0,0,3Z"/><g class="cls-5"><path class="cls-6" d="M597.43,294.38c1.23-79.4-2-146.44-10.18-211l-1-7.86,7.93,0h7.92c21.25,0,42.94.15,64.49.45,17.2.23,32.93,5.27,48.08,15.41,15.52,10.44,26.6,24.77,32.07,41.43,4.87,14.91,3.65,27.85-3.62,38.48-4.08,6-10,11.09-17.83,15.51,13.17,6.3,22.4,17.24,27.1,32.32a409.64,409.64,0,0,1,13.68,60.33l1.12,7.71-7.77.3c-18.31.72-37.29,1.85-56.41,3.36l-6.84.54-.68-6.83c-1.74-17.58-4.37-35.33-7.81-52.77-2-9.51-5-14.21-7.15-16.46s-5.7-3.61-10.37-3.73a758.49,758.49,0,0,1,.42,76.11l-.26,6.05-6,.62c-19.14,2-39,4.36-58.92,7.08l-8.07,1.1Zm62.72-163.51c1.93,10,3.61,20.1,5,30.22L671,161c6.33-.08,10.65-1.47,12.83-4.12,1.36-1.67,3-4.58,1.65-10.6-1.16-5.11-3.42-9-6.7-11.53s-7.79-3.84-13.62-3.87Z"/><path class="cls-7" d="M602.05,82.52q32.88,0,64.45.45c15.92.21,30.52,5,44.28,14.23s24.12,22,29.31,37.79c4.24,13,3.21,23.63-2.75,32.35s-16.85,15.5-32.8,20.77c21,2.67,35.23,14,41.17,33.1a398.49,398.49,0,0,1,13.43,59.26q-27.18,1.06-56.68,3.37c-1.75-17.67-4.36-35.43-7.91-53.43-1.9-9.14-5-15.81-9-20-3.76-3.89-9.13-5.88-16.19-5.88l-1.44,0-5.23.2a739.72,739.72,0,0,1,.87,82.6q-28.46,2.94-59.15,7.1c1.08-70.12-1.12-140-10.24-212h7.86m57,85.67,12-.18c8.5-.11,14.57-2.33,18.15-6.68s4.6-9.86,3.07-16.59-4.73-12-9.25-15.51-10.45-5.3-17.87-5.34q-6.73,0-13.58,0c3.12,15,5.58,29.71,7.48,44.34m-57-99.67h-7.88l-15.86,0,2,15.73c8.13,64.2,11.35,130.93,10.13,210l-.25,16.28,16.14-2.2c19.92-2.71,39.67-5.08,58.7-7l12.05-1.25.5-12.09c.94-22.61,1-43.84.19-64.36a40.26,40.26,0,0,1,3.07,9.57c3.39,17.19,6,34.69,7.7,52l1.35,13.66,13.68-1.08c19-1.5,37.92-2.63,56.13-3.34l15.56-.62L773,278.44A416,416,0,0,0,759.1,217.1v0l0,0c-4-12.83-11.12-23.12-20.86-30.47a52.12,52.12,0,0,0,10.68-11.32c8.57-12.53,10.08-27.53,4.51-44.6-6-18.18-18-33.75-34.8-45.06C702.48,74.8,685,69.21,666.68,69c-21.6-.3-43.35-.45-64.63-.45ZM671.23,154q-1.2-8-2.61-15.88a12.47,12.47,0,0,1,5.89,2.18c1.94,1.51,3.35,4.05,4.14,7.54s.05,4.24-.26,4.61-2.27,1.44-7.16,1.55Z"/><path class="cls-6" d="M841.08,289.66l-2.1,0c-24.25-.58-42.47-10.38-55.7-29.95-12-17.5-20-40.27-25.13-71.62-3.41-20.29-5-38.83-4.6-55.09.41-19,3.43-32.15,9.51-41.4C770,81,779.71,75.65,792,75.65l1.64,0c23.58.75,49.09,12.88,73.75,35.06,26.12,23.64,43.49,52.77,48.94,82,5.29,29.14-1,53.57-18.74,72.64C882.19,281.52,863.21,289.66,841.08,289.66ZM821.24,135.82c-2.26,0-5.08,0-5.77,9.09-.85,10.59,1.7,26.08,4.58,41.26,3.25,17.39,6.37,30.86,11,40.15,4.95,10,9.78,11.46,13.43,11.62l.54,0h0c1.85,0,7.42,0,12.24-10,4.42-9.34,5.22-21.57,2.37-36.3-3.92-20-12.29-33.43-18.62-41.21-10.8-13.17-17.31-14.51-19-14.61Z"/><path class="cls-7" d="M792,82.65l1.39,0c21.61.7,45.92,12.22,69.32,33.28,23.17,21,41.15,48.08,46.74,78.11s-2.69,51.21-17,66.6c-14.14,14.81-31.42,22-51.36,22l-1.94,0c-21.75-.52-38-9-50.06-26.87-12.27-17.89-19.4-40.62-24-68.84-3.29-19.56-4.87-37.54-4.52-53.8s2.63-29,8.37-37.7c5.47-8.36,12.72-12.77,23.07-12.77M845.06,245c7.63,0,14-4.59,18.55-14,4.61-9.74,6.36-23,2.94-40.67C863,172,855.39,157,846.49,146s-17.37-16.81-24.1-17.17c-.39,0-.78,0-1.15,0-8.11,0-12,5.34-12.75,15.56-.85,10.69,1.29,25.24,4.68,43.09,3.39,18.12,6.6,31.93,11.66,42s11.19,15.1,19.37,15.48l.86,0M792,68.65h0c-14.78,0-26.48,6.42-34.78,19.1-6.82,10.37-10.21,24.7-10.65,45.07-.37,16.69,1.21,35.66,4.7,56.39,5.3,32.37,13.65,56,26.25,74.42,7.28,10.76,16.16,19,26.4,24.44s21.63,8.24,34.9,8.56l2.28,0c24.12,0,44.8-8.86,61.49-26.34l.06-.07.07-.07c19.3-20.77,26.2-47.22,20.5-78.62v-.06a138.37,138.37,0,0,0-18.61-47.22,178.37,178.37,0,0,0-32.5-38.71c-25.92-23.32-53-36.07-78.24-36.89-.62,0-1.25,0-1.86,0ZM845.06,231h-.24c-1.09,0-3.71-.17-7.45-7.71v0l0,0c-4.3-8.56-7.27-21.49-10.41-38.28-2.79-14.73-5.26-29.67-4.48-39.4v-.06c.07-.89.16-1.61.26-2.19,1.95.89,6.36,3.62,12.95,11.66,5.8,7.12,13.51,19.54,17.16,38.12C855.37,206.2,854.75,217,851,225c-1.93,4-3.92,6-5.92,6Z"/><path class="cls-6" d="M975.78,299.28c-11.77-1.86-23.63-3.53-35.27-5l-8-1,2.16-7.82c13.24-48.07,9.7-91.58-11.54-140.54-10.16-.89-20.21-1.72-29.94-2.49l-4.1-.33-1.72-3.74a384.41,384.41,0,0,0-24.66-45L855.46,82l13.46.66c37.38,1.83,73.53,3.86,107,5.77l3.76.22,1.9,3.26a401.49,401.49,0,0,1,25.12,50.77l4.34,10.76-11.54-1.17c-7.54-.77-14.68-1.49-21.58-2.16,19.42,50.36,21.09,95.35,5.6,144.39l-1.82,5.75Z"/><path class="cls-7" d="M868.57,89.62c36.69,1.8,72.25,3.78,107,5.77a392.08,392.08,0,0,1,24.69,49.88Q983.89,143.6,967.1,142c25.7,59.92,23.63,106.53,9.77,150.38q-17.22-2.72-35.5-5c12.2-44.3,12.66-90.69-13.56-149q-16.78-1.47-34.12-2.85a388.13,388.13,0,0,0-25.12-45.88m-26.23-15.3,14.4,22.78A375.67,375.67,0,0,1,881,141.32l3.42,7.49,8.21.65c8.37.66,17,1.37,25.7,2.12,9.79,23.51,15.28,45.66,16.74,67.48,1.4,20.89-.94,42-7.16,64.6l-4.31,15.63,16.09,2c11.56,1.42,23.35,3.08,35,4.92l11.9,1.88,3.63-11.49c8.07-25.54,11.53-49.73,10.59-73.93-.83-21.07-4.93-42.34-12.49-64.51l10.5,1.06,23.07,2.35L1013.22,140a408.93,408.93,0,0,0-25.56-51.67l-3.78-6.52-7.53-.44c-33.52-1.91-69.69-3.94-107.09-5.77l-26.92-1.32Z"/><path class="cls-6" d="M1071.78,318.3c-11-2.54-21-4.75-30.41-6.76l-8-1.71,3-7.66c18.79-48.51,19.18-93.71,1.16-146L1011,153.41l-4.25-.44-1.55-4a387.66,387.66,0,0,0-24-49.48L974.9,88.34l25.69,1.48c30.63,1.76,59.55,3.43,88.62,5l4.28.23,1.75,3.91a407.41,407.41,0,0,1,20.45,55.78l2.76,9.88-10.21-1-20.09-2.07c15.41,54.48,12.74,102-8.34,152.69l-2.27,5.46Z"/><path class="cls-7" d="M987.34,96.07c34.54,2,68.28,4,101.51,5.7a396.54,396.54,0,0,1,20.09,54.81q-15.12-1.53-30.52-3.15c20.85,65.45,13.17,114.18-5.07,158.05q-15-3.45-30.52-6.78c16.91-43.66,22.67-91.49-.25-155q-15.24-1.59-30.85-3.21a391.81,391.81,0,0,0-24.39-50.38M962.45,80.61,975.17,103a380.83,380.83,0,0,1,23.53,48.57l3.11,7.94,8.49.87,22,2.29c8.28,25.29,12,48.79,11.4,71.6-.59,21.69-5,42.47-13.88,65.38L1023.84,315l16.07,3.43c9.41,2,19.32,4.21,30.3,6.73l11.53,2.66,4.54-10.93c10.73-25.82,16.7-50.5,18.23-75.44,1.44-23.23-.86-46.92-7-71.92l10,1,20.43,2.07-5.53-19.77a414.43,414.43,0,0,0-20.8-56.75l-3.49-7.82-8.56-.45c-29.17-1.54-58.21-3.21-89-5l-12.47-.72-25.7-1.48Z"/><path class="cls-6" d="M1181.33,343.49c-24-4.93-48.63-10.78-70.31-15.95l-8.2-2,3.42-7.7c13.86-31.19,20.47-60,20.8-90.58.39-37.22-8.63-77.11-27.6-121.93l-4.36-10.28,11.16.56c32.89,1.67,61.82,2.91,88.43,3.8l5,.17,1.44,4.82a432,432,0,0,1,13.54,59.43l1.29,8.62-8.7-.6c-12.53-.87-25.53-1.88-39.49-3.08a304.3,304.3,0,0,1,4.2,31.59c13.29,1.67,25.48,3.1,37.1,4.33l6.23.66,0,6.25a283,283,0,0,1-3.31,45.27l-1.06,6.83-6.84-1c-10.55-1.5-21.73-3.22-34-5.23a242.74,242.74,0,0,1-6,28.56c12.78,2.57,24,4.69,34.66,6.59l8,1.4-2.53,7.68a344.68,344.68,0,0,1-15.12,37.82l-2.34,5Z"/><path class="cls-7" d="M1105.88,102.65c29.83,1.51,59.28,2.83,88.56,3.8a424,424,0,0,1,13.31,58.47q-24.16-1.68-48.66-3.89a297.17,297.17,0,0,1,6.29,45.59c14.45,1.86,28.74,3.57,43,5.08a273.17,273.17,0,0,1-3.23,44.14c-13.59-1.93-27.21-4.09-41-6.39a239.28,239.28,0,0,1-8.89,42c14.17,2.9,28.21,5.64,42.29,8.13a338.92,338.92,0,0,1-14.82,37.05c-23.38-4.79-46.47-10.27-70.09-15.9,24.77-55.73,34.54-120.49-6.76-218.08m-21.59-15.11,8.7,20.57c18.59,43.92,27.43,82.88,27,119.13-.32,29.62-6.74,57.52-20.19,87.81l-6.85,15.4,16.4,3.9c21.73,5.18,46.35,11,70.52,16l10.83,2.22,4.67-10A348.67,348.67,0,0,0,1210.84,304l5.07-15.36L1200,285.79c-8.58-1.51-17.46-3.18-27.25-5.11q1.83-7.55,3.18-15.11c9.65,1.54,18.65,2.91,27.24,4.13l13.68,1.95L1219,258a290.15,290.15,0,0,0,3.39-46.39l-.08-12.52-12.45-1.31c-9.93-1.06-20.27-2.25-31.37-3.62q-.84-8.7-2.24-17.61c10.63.88,20.74,1.65,30.58,2.33l17.4,1.21-2.59-17.25a440.13,440.13,0,0,0-13.75-60.4L1205,92.8l-10-.34c-26.56-.88-55.45-2.12-88.32-3.79l-22.3-1.13Z"/><path class="cls-6" d="M1279.37,357.88c-11.14-.88-22.58-2.06-34-3.53l-8.57-1.1,2.85-8.15a424.27,424.27,0,0,0,15.06-53,71.62,71.62,0,0,0,1.7-14.79c-5.44,22.92-13.4,45.48-24.67,70l-2.21,4.82-5.23-.83c-9.55-1.5-19.15-3.18-29.36-5.14l-8.82-1.69,3.79-8.13c15.63-33.57,24.49-64.32,27.9-96.77,4.24-40.38-.09-83.15-13.24-130.76l-2.53-9.13,9.48.27c18.92.55,37.43.93,55,1.12,14.84.13,28.27,8.05,38.83,22.9,10.26,14.41,15.71,33.88,15.75,56.3,0,17.77-3.47,33.23-10.39,45.95a66.29,66.29,0,0,1-18.53,21.56c6,6.53,11.19,18.5,8.13,40.33a524.13,524.13,0,0,1-13.67,64.58l-1.51,5.61ZM1265,215.16h.36c.89,0,2.74,0,4.82-3.78,2.42-4.4,3.66-10.31,3.67-17.54s-1.13-13.39-3.19-17.09c-1.8-3.22-3.77-3.71-5.46-3.77l-1,0A364.84,364.84,0,0,1,1265,215.16Z"/><path class="cls-7" d="M1211.33,107q27.62.8,55.14,1.12c12.45.11,24,7,33.21,20s14.41,30.86,14.45,52.25c0,17.54-3.52,31.52-9.54,42.6a59,59,0,0,1-25.13,24.64c11.49,4,17,17.92,14,39.62a518.66,518.66,0,0,1-13.5,63.73c-11.46-.9-22.65-2.08-33.64-3.49a430.5,430.5,0,0,0,15.3-53.86c2-9.73,2.3-17.22,1.33-22.06s-3.63-7.51-7.8-7.9l-2.81-.27c-5.9,30.08-15.65,56.6-26.9,81.1-9.82-1.54-19.51-3.26-29.12-5.1,27.17-58.38,43.84-128.14,15.06-232.34m54,115.19c4.52,0,8.21-2.42,11-7.39,2.9-5.28,4.53-12.19,4.54-20.92s-1.45-15.81-4.08-20.51-6.48-7.19-11.33-7.35q-4.43-.15-8.83-.33a356.84,356.84,0,0,1,1,56c2.29.17,4.58.32,6.88.47.27,0,.55,0,.82,0M1192.78,92.44l5,18.27c12.91,46.74,17.17,88.67,13,128.16-3.33,31.66-12,61.7-27.28,94.54L1176,349.69l17.63,3.38c10.3,2,20,3.67,29.59,5.18l4.2.66-.07.18,17.14,2.2c11.52,1.48,23.07,2.68,34.33,3.56l11.58.91,3-11.21a532.5,532.5,0,0,0,13.84-65.42c1.82-13,1.07-24.13-2.23-33.2a40.23,40.23,0,0,0-3.27-6.94,74.05,74.05,0,0,0,15.11-19.37c7.49-13.79,11.27-30.37,11.25-49.32,0-23.89-5.94-44.76-17.05-60.36-11.73-16.51-27.54-25.69-44.49-25.84-17.47-.19-35.94-.57-54.86-1.11l-19-.55Z"/><path class="cls-6" d="M1338.09,350.29c22.66-60.91,44.76-137.41,36.94-243l-.54-7.24,7.26-.27c18.67-.7,37.36-1.65,55.55-2.83,1-.07,2.12-.11,3.16-.11,15.75,0,28.6,7.81,37.16,22.58s11.83,35,9.49,59.74a162.74,162.74,0,0,1-8.55,38.35c-4.58,13.06-12.41,25-23.27,35.59-11.06,10.74-23.78,17.09-37.81,18.86-2.34.29-4.69.58-7,.85-5.69,24.93-12.85,50-23,80.45l-1.48,4.43-4.65.34c-12.27.9-24.56,1.48-36.55,1.74l-10.3.21Zm87.22-182.08c-.79,14.23-2.09,28.52-3.86,42.63,3.25-.75,6.1-2.81,8.68-6.29,3.39-4.57,5.5-10.93,6.28-18.87.95-9.77-.52-14.15-1.48-15.9a3.6,3.6,0,0,0-3.69-2.11,8.44,8.44,0,0,0-1,.06C1428.61,167.89,1427,168.06,1425.31,168.21Z"/><path class="cls-7" d="M1440.46,103.8c13.28,0,23.9,6.66,31.11,19.09,7.68,13.27,10.8,32,8.57,55.57a154.37,154.37,0,0,1-8.19,36.69c-4.28,12.2-11.53,23.16-21.54,32.89S1429,263.42,1416.6,265q-6,.75-11.89,1.39c-6.74,30.55-15.18,58.45-23.87,84.64-12.45.91-24.49,1.47-36.19,1.72,24-64.63,45.14-140.92,37.36-246q27.67-1,55.74-2.85c.92-.06,1.82-.09,2.71-.09m-27.15,115.09q3.82-.42,7.68-.88c5.7-.68,10.67-3.77,14.76-9.28s6.7-12.91,7.63-22.37c.87-9,0-15.68-2.31-20a10.51,10.51,0,0,0-9.83-5.74,16.34,16.34,0,0,0-1.68.09q-5.49.56-10.93,1.05c-.92,20-2.77,39-5.32,57.08M1440.46,89.8v0h0c-1.19,0-2.41,0-3.63.12-18.11,1.18-36.74,2.13-55.35,2.83l-14.51.54,1.07,14.48c3.49,47.05,1.35,91.09-6.55,134.63-6.1,33.62-15.34,66.14-30,105.45l-7.18,19.31,20.6-.43c12.09-.26,24.51-.85,36.91-1.75l9.32-.69,2.94-8.86c9.55-28.74,16.48-52.71,22-76.29l2.18-.27c15.59-2,29.65-9,41.83-20.79,11.64-11.32,20-24.2,25-38.29a169.11,169.11,0,0,0,8.91-40c2.49-26.22-1-47.72-10.39-63.92-9.75-16.81-25.09-26.07-43.22-26.07Z"/><path class="cls-6" d="M1431.05,341.76a895.83,895.83,0,0,0,76.34-245.49l.53-3.37a65.51,65.51,0,0,1-1.28-12.8c-.05-10.9,2.08-20.4,6.32-28.23,6.23-11.54,14.29-14.06,20-14.15h.32c5.5,0,13.46,2.22,20.17,12.77,4.75,7.46,7.1,16.3,7,26.26a54.75,54.75,0,0,1-1.64,12.79l.34,2.42c3.24,22.48,6.05,43.58,8.76,64,7.51,56.53,14,105.35,25.81,154l1.58,6.53-6.46,1.85c-18.62,5.34-37,10.2-54.52,14.47l-8.28,2-.36-8.52c-.42-9.92-.77-20.58-1.06-32.37-7.9,2-15.74,3.87-23.42,5.62-4.25,13-8.78,26.19-13.82,40.19L1486,343.5l-3.91.76c-14.84,2.87-29.54,5.38-43.71,7.44l-13,1.89Zm92.32-118.9q-2.49,9.88-5.16,19.72l5.44-1.39Q1523.52,232.11,1523.37,222.86Zm10.25-148.6a12.93,12.93,0,0,0-.67,4.44,13.78,13.78,0,0,0,.28,2.94,11.39,11.39,0,0,0,.78-4.26A10.82,10.82,0,0,0,1533.62,74.26Z"/><path class="cls-7" d="M1533.23,44.72c5.5,0,10.3,3.29,14.27,9.52s6,13.74,5.91,22.44a47.41,47.41,0,0,1-3.12,16.52l1.9-.24c12.22,84.83,18.51,152,34.69,218.67q-28.26,8.1-54.25,14.4c-.57-13.48-1-27.13-1.25-41q-18.33,4.77-35.65,8.64-7.24,22.42-15,43.77-22.52,4.35-43.39,7.38A902.06,902.06,0,0,0,1514.3,97.36l2-.21a55.13,55.13,0,0,1-2.64-17.08c0-9.53,1.72-17.93,5.47-24.87s8.37-10.4,13.9-10.48h.22m-.43,45.91.56,0c2-.22,3.81-1.64,5.33-4.24a17.6,17.6,0,0,0,2.32-8.94,15.23,15.23,0,0,0-2.23-8.53c-1.44-2.22-3.13-3.34-5-3.34h-.29q-3.09.18-5.29,3.94a17.84,17.84,0,0,0-2.2,9.19,16.65,16.65,0,0,0,2.12,8.74c1.29,2.15,2.86,3.2,4.73,3.2m-24.52,161.59q11-2.64,22.45-5.64c-.37-25.45-.74-52-1.85-80.3-5.87,29.8-12.83,58.47-20.6,85.94m25-221.5h-.44c-7.52.1-18.14,3.28-26,17.82-4.79,8.86-7.2,19.49-7.15,31.58A72.1,72.1,0,0,0,1500.82,93l-.34,2.15a889,889,0,0,1-75.74,243.57l-11.31,23.67,26-3.78c14.29-2.08,29.1-4.61,44-7.5l7.82-1.51,2.69-7.49c4.57-12.72,8.74-24.77,12.64-36.62q5.58-1.31,11.24-2.68c.24,8.46.52,16.33.83,23.79l.73,17,16.57-4c17.66-4.29,36.09-9.18,54.79-14.54l12.92-3.7-3.17-13.06c-11.72-48.32-18.18-97-25.67-153.3-2.72-20.43-5.52-41.55-8.77-64.06l-.16-1.1a61.23,61.23,0,0,0,1.53-13.06c.11-11.33-2.62-21.45-8.09-30.07-8.87-13.94-20.15-16-26.09-16Z"/><path class="cls-6" d="M557.5,732.43c0-78.18.74-156.5,1.44-232.25q.38-41.32.72-82.5l.05-5.35,5.18-1.36c27.47-7.21,54.29-13.57,79.73-18.89l9.44-2-1,9.59c-2,18-4.08,35.91-6.31,54.83-7.14,60.7-14.52,123.38-17.65,192.8,22.24-4,44.59-7.42,66.55-10.25l8.22-1.05-.33,8.27c-1.1,28-.79,56.72.94,85.37l.44,7.33-7.34.09c-45.41.57-90.11,1.36-132.87,2.34l-7.16.17Z"/><path class="cls-7" d="M646.05,398.93c-8.64,78.95-20.61,162-24.36,256.85,25.58-4.74,50.46-8.62,74.81-11.76-1.07,27.05-.89,55.65.94,86.07q-66.24.84-132.94,2.35c0-106.2,1.33-210.72,2.16-314.7q42-11,79.39-18.81m16-17.65-18.89,4c-25.53,5.34-52.47,11.72-80.07,19l-10.36,2.72-.09,10.71c-.22,27.42-.47,55.37-.72,82.4-.7,75.79-1.42,154.16-1.44,232.4v14.33l14.32-.33c42.7-1,87.38-1.77,132.8-2.34l14.68-.18-.88-14.66c-1.72-28.42-2-56.91-.93-84.67l.65-16.56-16.43,2.12c-19.24,2.47-38.76,5.42-58.25,8.78,3.33-65.72,10.37-125.55,17.19-183.56,2.23-18.94,4.34-36.83,6.32-54.9l2.1-19.18Z"/><path class="cls-6" d="M1034,736.17q-27.72-.13-55.41-.21h-4.83l-1.7-4.51c-29.27-77.52-39.28-145-30.6-206.3,7.88-55.57,30.4-99.74,50.89-136.79l2.5-4.5,5,1c29.07,6,57.44,13.24,84.87,20.24l12.82,3.27,8.89,2.27-4.53,8c-10.25,18-17.39,32.27-23.16,46.16l-2.27,5.49-7.29-1.71c-17.26-4-33.67-7.89-50.24-11.51a276.69,276.69,0,0,0-14,41.9c17.13,3,34,6.18,48.53,9l6.69,1.28-1.11,6.73a215.57,215.57,0,0,0-1.71,56.73l.86,8.83-8.79-1.22c-19.59-2.72-36.09-4.88-51.18-6.69,2.51,45.82,16.33,95.86,42.16,152.65l4.52,10Z"/><path class="cls-7" d="M998.47,391.74c33.32,6.87,65,15.21,97.37,23.45-8.64,15.22-16.78,30.67-23.53,46.94-19.43-4.55-38.44-9-57.49-13.11a284.25,284.25,0,0,0-18.35,55.61c18.35,3.1,36.81,6.57,55.68,10.2a224.28,224.28,0,0,0-1.77,58.55c-20.15-2.8-39.9-5.41-59.46-7.67,1.15,44.95,13.34,98,43.1,163.46Q1006.3,729,978.6,729c-63.92-169.27-23.28-259.23,19.87-337.22M991.21,376l-5,9c-20.8,37.59-43.66,82.45-51.7,139.2-8.85,62.49,1.28,131.1,31,209.75l3.41,9,9.65,0c17.77,0,36.41.12,55.4.21l21.86.1-9-19.89c-23.89-52.54-37.36-99.12-41-141.78,12.76,1.58,26.67,3.43,42.65,5.64l17.57,2.44L1064.32,572a208.71,208.71,0,0,1,1.65-54.92l2.21-13.45-13.38-2.58c-12.46-2.4-26.61-5.08-41.16-7.68a270.68,270.68,0,0,1,9.57-28.22c14.62,3.25,29.22,6.67,44.5,10.25l1.4.33,11.57,2.71,4.56-11c5.65-13.63,12.68-27.63,22.77-45.4l9.07-16-17.79-4.52-12.82-3.27c-27.51-7-56-14.29-85.17-20.32L991.21,376Z"/><path class="cls-6" d="M1229,737.46l-55.82-.43-3.78,0-2.05-3.18c-36.7-56.89-58.11-106.58-65.47-151.89-5.8-35.74-3-68.82,8.71-103.41-10.34-2.32-20.07-4.58-28.5-6.54l-8-1.86,3.08-7.59c5.9-14.56,13.21-29.35,23.7-48l2.62-4.65,5.18,1.3c35.49,8.92,74.27,18,117.47,24.35l9.2,1.34-3.83,8.47c-8,17.67-13.59,32.49-17.59,46.63l-1.68,6-6.12-1c-11.94-1.85-23.85-3.88-36.23-6.19-15.41,50.89-17.68,119.14,64.85,235.58l7.9,11.15Z"/><path class="cls-7" d="M1107,418c36.94,9.29,75.18,18.21,118.16,24.48-7.14,15.79-13.38,31.49-17.94,47.61-14.53-2.25-28.53-4.7-42.1-7.3-20.78,63.12-16.15,134.67,63.94,247.66l-55.83-.43c-76.87-119.18-77.16-193.17-53.38-256.61-12.3-2.72-24.32-5.49-36.17-8.25,6.62-16.32,14.69-31.84,23.32-47.16m-7-16.18-5.24,9.31c-10.64,18.88-18.07,33.92-24.09,48.77l-6.15,15.18,15.94,3.72c6.4,1.49,13.53,3.14,21.08,4.86-10.11,33.06-12.19,65-6.61,99.39,7.52,46.29,29.27,96.84,66.49,154.56l4.1,6.36,7.57,0,55.82.43,27.34.21-15.81-22.31C1203.78,670.58,1181.7,625.64,1173,585c-6.35-29.56-5.75-57.23,2-86.12,10.21,1.85,20.17,3.52,30.15,5.07l12.23,1.89,3.38-11.91c3.9-13.8,9.38-28.31,17.22-45.66l7.66-16.94-18.39-2.68c-42.88-6.26-81.46-15.33-116.77-24.21l-10.37-2.6Z"/><path class="cls-6" d="M1442.14,739c-49-.28-97.38-.64-138.27-1l-3.43,0-2.08-2.72c-47.32-61.83-73.36-116.07-79.61-165.8-6.29-50,7.85-92.11,22.51-126.74l2-4.85,5.22.62a845.58,845.58,0,0,0,100.62,5.82c11.43,0,23.19-.22,34.95-.64l9.23-.33-2.18,9a438.87,438.87,0,0,0-9.55,51.11l-.74,6.19-6.23,0c-28.26-.08-56.26-1.15-83.33-3.18a216.23,216.23,0,0,0-3.27,32.11c25.69,2.26,52,3.86,78.2,4.75l6.49.22L1373,550a252.42,252.42,0,0,0,7.37,51.26l2.27,9.14-9.41-.46c-25.43-1.25-50.32-2.92-75.78-5.09a287.21,287.21,0,0,0,20.75,49.59c29.54,1.87,57.46,3.36,85.22,4.53l4.19.18,1.82,3.78a480.66,480.66,0,0,0,38.52,65l7.69,11.07Z"/><path class="cls-7" d="M1247.71,445.47a856.41,856.41,0,0,0,101.45,5.87q17.05,0,35.19-.64a443.87,443.87,0,0,0-9.7,51.93c-32-.09-61.5-1.42-89.07-3.65a225.43,225.43,0,0,0-4.61,46c26.61,2.46,54.83,4.33,85,5.36a260.81,260.81,0,0,0,7.56,52.66c-30.08-1.48-58.53-3.52-85.62-6,5.21,20.06,13.59,41.28,25.9,64.19,28.72,1.84,58.41,3.48,89.27,4.79a484.29,484.29,0,0,0,39.08,66q-69.57-.39-138.26-1c-100.33-131.11-89.54-206.82-56.21-285.57m-8.8-15.14-4.1,9.69c-15,35.49-29.5,78.73-23,130.35,3.17,25.2,10.91,50.64,23.65,77.77,13.49,28.71,32.25,58.61,57.35,91.41L1297,745l6.85,0c40.71.31,89,.67,138.29,1l27,.15L1453.67,724a475.1,475.1,0,0,1-38-64.09l-3.64-7.55-8.38-.36c-26.47-1.12-53.08-2.53-81.12-4.28a290.81,290.81,0,0,1-15.19-35c21.9,1.76,43.49,3.15,65.49,4.23l18.81.92-4.54-18.28a245.06,245.06,0,0,1-7.16-49.85l-.53-13-13-.45c-23.85-.81-47.73-2.21-71.17-4.15.35-6,1-12.08,1.89-18.27,25.24,1.74,51.22,2.66,77.42,2.74l12.46,0,1.48-12.36A431.27,431.27,0,0,1,1398,454l4.36-18-18.46.66c-11.68.43-23.35.64-34.69.64a840.4,840.4,0,0,1-99.81-5.77l-10.44-1.24Z"/><path class="cls-6" d="M1567.58,739.49q-28.83-.06-57.47-.17l-4.21,0-2-3.72c-40-75.94-56.31-146.47-52.51-227.59-18,1-35.78,1.59-53,1.86l-7.86.12.79-7.83a490.25,490.25,0,0,1,8.79-54l1.11-5.22,5.33-.3c63.25-3.64,131.13-13,207.52-28.63l8.45-1.73,0,8.63c-.13,22.77-.2,43.42-.23,63.12v6l-6,.88c-24.14,3.55-48,6.64-70.93,9.19-1.63,84.8,7.6,158.15,29,230.35l2.66,9Z"/><path class="cls-7" d="M1615.5,420.88q-.18,31.59-.23,63.15-40.23,5.93-76.78,9.83c-2,77.56,4.34,154.84,29.11,238.63q-28.83-.06-57.46-.17c-45.36-86.14-55.82-159-51.29-231.76-21.11,1.25-41.25,2-60.54,2.29a486.3,486.3,0,0,1,8.67-53.22c59.43-3.41,127.78-12.24,208.52-28.75m14.09-17.17-16.9,3.45c-76,15.56-143.6,24.88-206.51,28.5l-10.65.61-2.24,10.43a496.84,496.84,0,0,0-8.9,54.74l-1.59,15.65,15.73-.24c14.87-.23,30.15-.73,45.61-1.48a425.13,425.13,0,0,0,7.92,98.83c8.4,41.45,23.35,82.22,45.69,124.64l3.92,7.44,8.41,0c19.4.07,38.74.13,57.49.17l18.77,0-5.32-18a684.61,684.61,0,0,1-24.08-119.24,818.75,818.75,0,0,1-4.69-102.86c21.14-2.42,43-5.29,65-8.54l12-1.76,0-12.07c0-19.7.1-40.34.23-63.09l.09-17.25Z"/></g><g class="cls-8"><circle class="cls-9" cx="804" cy="550.99" r="109"/><path class="cls-10" d="M804,452.49A98.5,98.5,0,1,1,705.5,551a98.61,98.61,0,0,1,98.5-98.5m0-21A119.5,119.5,0,1,0,923.5,551,119.5,119.5,0,0,0,804,431.49Z"/><path class="cls-11" d="M844.58,551c-4.92,21.86-25.92,22.54-40.58,40.58-14.49,17.83-39.5-30.3-40.58-40.58-2.56-24.3,13.79-67,40.58-40.59C822.55,528.69,847.48,538.12,844.58,551Z"/><path class="cls-12" d="M817.53,549.86c0,9.65-3.32,16.91-13,16.91s-26-13-17.47-17.47c10.06-5.27,12.75-15.33,17.47-17.48C813.35,527.83,817.53,540.21,817.53,549.86Z"/><circle class="cls-9" cx="753.27" cy="470.94" r="9.02"/><circle class="cls-9" cx="744.25" cy="479.96" r="9.02"/><circle class="cls-9" cx="878.41" cy="612.99" r="9.02"/><circle class="cls-9" cx="869.39" cy="622.01" r="9.02"/><circle class="cls-9" cx="856.99" cy="631.03" r="9.02"/><circle class="cls-9" cx="844.58" cy="637.79" r="9.02"/><circle class="cls-9" cx="828.8" cy="644.56" r="9.02"/><circle class="cls-9" cx="813.02" cy="644.56" r="9.02"/><circle class="cls-9" cx="799.49" cy="644.56" r="9.02"/><circle class="cls-9" cx="781.45" cy="642.3" r="9.02"/><circle class="cls-9" cx="765.67" cy="637.79" r="9.02"/><circle class="cls-9" cx="749.89" cy="628.77" r="9.02"/><circle class="cls-9" cx="737.49" cy="617.5" r="9.02"/><circle class="cls-9" cx="727.34" cy="603.97" r="9.02"/><circle class="cls-9" cx="718.32" cy="589.32" r="9.02"/><circle class="cls-9" cx="711.56" cy="575.79" r="9.02"/><circle class="cls-9" cx="711.56" cy="558.88" r="9.02"/><circle class="cls-9" cx="709.3" cy="545.35" r="9.02"/><circle class="cls-9" cx="711.56" cy="530.69" r="9.02"/><circle class="cls-9" cx="716.07" cy="514.91" r="9.02"/><circle class="cls-9" cx="722.83" cy="502.51" r="9.02"/><circle class="cls-9" cx="731.85" cy="488.98" r="9.02"/><circle class="cls-9" cx="894.19" cy="518.29" r="9.02"/><circle class="cls-9" cx="900.95" cy="530.69" r="9.02"/><circle class="cls-9" cx="900.95" cy="545.35" r="9.02"/><circle class="cls-9" cx="900.95" cy="558.88" r="9.02"/><circle class="cls-9" cx="896.44" cy="575.79" r="9.02"/><circle class="cls-9" cx="894.19" cy="589.32" r="9.02"/><circle class="cls-9" cx="887.42" cy="601.72" r="9.02"/><circle class="cls-9" cx="817.53" cy="457.42" r="9.02"/><circle class="cls-9" cx="831.06" cy="461.93" r="9.02"/><circle class="cls-9" cx="844.58" cy="466.43" r="9.02"/><circle class="cls-9" cx="856.99" cy="472.07" r="9.02"/><circle class="cls-9" cx="869.39" cy="481.09" r="9.02"/><circle class="cls-9" cx="878.41" cy="493.49" r="9.02"/><circle class="cls-9" cx="887.42" cy="505.89" r="9.02"/><circle class="cls-9" cx="765.67" cy="463.05" r="9.02"/><circle class="cls-9" cx="779.2" cy="457.42" r="9.02"/><circle class="cls-9" cx="791.6" cy="457.42" r="9.02"/><circle class="cls-9" cx="804" cy="455.16" r="9.02"/></g><g class="cls-8"><line class="cls-1" x1="1657.5" y1="3.49" x2="1919.5" y2="311.49"/><line class="cls-1" x1="1920" y1="2.99" x2="1788" y2="156.99"/><line class="cls-1" x1="1684" y1="34.99" x2="1920" y2="2.99"/><line class="cls-1" x1="1868" y1="244.99" x2="1920" y2="2.99"/><line class="cls-1" x1="1827" y1="202.99" x2="1920" y2="2.99"/><line class="cls-1" x1="1739" y1="89.99" x2="1920" y2="2.99"/><line class="cls-1" x1="1919" y1="221.99" x2="1865" y2="218.99"/><line class="cls-1" x1="1722" y1="2.99" x2="1722" y2="29.99"/><line class="cls-1" x1="1865" y1="218.99" x2="1838" y2="186.99"/><line class="cls-1" x1="1722" y1="29.99" x2="1760" y2="79.99"/><line class="cls-1" x1="1838" y1="186.99" x2="1760" y2="79.99"/><line class="cls-1" x1="1770" y1="3.99" x2="1770" y2="22.99"/><line class="cls-1" x1="1919" y1="167.99" x2="1885" y2="167.99"/><line class="cls-1" x1="1770" y1="22.99" x2="1796" y2="62.99"/><line class="cls-1" x1="1885" y1="167.99" x2="1854" y2="144.99"/><line class="cls-1" x1="1796" y1="62.99" x2="1854" y2="144.99"/><line class="cls-1" x1="1919" y1="123.99" x2="1892" y2="123.99"/><line class="cls-1" x1="1812" y1="3.99" x2="1815" y2="16.99"/><line class="cls-1" x1="1892" y1="123.99" x2="1863" y2="69.99"/><line class="cls-1" x1="1815" y1="16.99" x2="1863" y2="69.99"/><line class="cls-1" x1="1869" y1="1.99" x2="1869" y2="10.99"/><line class="cls-1" x1="1919" y1="54.99" x2="1894" y2="54.99"/><line class="cls-1" x1="1869" y1="10.99" x2="1869" y2="27.99"/><line class="cls-1" x1="1894" y1="46.99" x2="1892" y2="29.99"/><line class="cls-1" x1="1869" y1="27.99" x2="1892" y2="29.99"/></g><line class="cls-1" x1="1894" y1="46.99" x2="1896" y2="54.99"/></svg>
