<svg id="Layer_1" data-name="Layer 1" xmlns="http://www.w3.org/2000/svg" viewBox="0 0 1920 1080"><defs><style>.cls-1{fill:#534741;}.cls-2{fill:#754c24;}.cls-3{fill:#1b1464;}.cls-4,.cls-5,.cls-7{fill:none;stroke-miterlimit:10;}.cls-4,.cls-5{stroke:#000;}.cls-4{stroke-linecap:round;stroke-width:6px;}.cls-5{stroke-width:3px;}.cls-6{fill:#603813;}.cls-7{stroke:#754c24;stroke-width:4px;}.cls-8{fill:#fbb03b;}.cls-9{fill:#f7931e;}</style></defs><title>baggrund</title><rect class="cls-1" x="0.31" y="1.19" width="1919.36" height="1078.08"/><polygon class="cls-2" points="1919.67 1079.27 0.31 1079.27 509.32 272.87 1364.5 272.87 1919.67 1079.27"/><polygon class="cls-1" points="1186.28 1.19 692.66 1.19 509.32 272.87 1364.5 272.87 1186.28 1.19"/><ellipse class="cls-3" cx="936.91" cy="68.87" rx="64.75" ry="48.48"/><line class="cls-4" x1="936.27" y1="114.47" x2="936.27" y2="23.27"/><line class="cls-4" x1="997.81" y1="69.35" x2="876.01" y2="69.35"/><line class="cls-5" x1="936.27" y1="1079.27" x2="936.27" y2="272.87"/><line class="cls-5" x1="1154.87" y1="273.35" x2="1431.81" y2="1078.79"/><line class="cls-5" x1="720.23" y1="273.35" x2="456.11" y2="1078.79"/><line class="cls-5" x1="829.21" y1="273.35" x2="702.28" y2="1078.79"/><line class="cls-5" x1="606.12" y1="273.35" x2="218.91" y2="1078.79"/><line class="cls-5" x1="1043.33" y1="273.35" x2="1172.82" y2="1078.79"/><line class="cls-5" x1="1265.14" y1="273.35" x2="1671.57" y2="1078.79"/><line class="cls-5" x1="508.67" y1="273.35" x2="-0.33" y2="1079.75"/><line class="cls-5" x1="1363.86" y1="273.35" x2="1919.03" y2="1079.75"/><line class="cls-5" x1="424.05" y1="406.79" x2="542.01" y2="405.83"/><line class="cls-5" x1="676.63" y1="409.67" x2="808.69" y2="408.71"/><line class="cls-5" x1="936.91" y1="415.43" x2="1063.84" y2="414.47"/><line class="cls-5" x1="1202.31" y1="411.59" x2="1334.37" y2="410.63"/><line class="cls-5" x1="302.25" y1="599.75" x2="448.41" y2="600.71"/><line class="cls-5" x1="611.25" y1="607.43" x2="776.64" y2="607.43"/><line class="cls-5" x1="936.91" y1="607.43" x2="1097.18" y2="607.43"/><line class="cls-5" x1="1270.26" y1="607.43" x2="1433.1" y2="607.43"/><line class="cls-5" x1="129.16" y1="875.27" x2="316.35" y2="875.27"/><line class="cls-5" x1="522.78" y1="875.27" x2="734.33" y2="875.27"/><line class="cls-5" x1="936.91" y1="875.27" x2="1139.49" y2="875.27"/><line class="cls-5" x1="1361.3" y1="875.27" x2="1569" y2="875.27"/><line class="cls-5" x1="581.76" y1="323.27" x2="703.56" y2="323.27"/><line class="cls-5" x1="821.52" y1="323.27" x2="935.63" y2="323.27"/><line class="cls-5" x1="1051.02" y1="323.27" x2="1171.54" y2="323.27"/><line class="cls-5" x1="1293.34" y1="323.27" x2="1398.48" y2="323.27"/><line class="cls-5" x1="498.42" y1="496.07" x2="647.15" y2="495.11"/><line class="cls-5" x1="793.31" y1="502.79" x2="935.63" y2="501.83"/><line class="cls-5" x1="1080.51" y1="502.79" x2="1233.08" y2="499.91"/><line class="cls-5" x1="1376.68" y1="493.19" x2="1515.15" y2="492.23"/><line class="cls-5" x1="386.87" y1="728.39" x2="570.22" y2="729.35"/><line class="cls-5" x1="757.41" y1="729.35" x2="936.91" y2="729.35"/><line class="cls-5" x1="1116.41" y1="729.35" x2="1311.29" y2="729.35"/><line class="cls-5" x1="1494.64" y1="729.35" x2="1677.98" y2="729.35"/><line class="cls-5" x1="708.69" y1="1041.35" x2="935.63" y2="1040.39"/><line class="cls-5" x1="239.43" y1="1036.55" x2="470.21" y2="1037.51"/><line class="cls-5" x1="1171.54" y1="1038.47" x2="1417.71" y2="1037.51"/><polygon points="1888.25 1036.9 1649.67 1035.82 1649.68 1032.44 1888.26 1033.52 1888.25 1036.9"/><polygon class="cls-6" points="589.41 305.8 482 306.08 687.14 0.8 795.87 0.71 589.41 305.8"/><line class="cls-7" x1="588.81" y1="305.51" x2="796.51" y2="1.19"/><polygon class="cls-6" points="824.72 1.19 799.54 1.73 592.21 305.5 628.55 281.51 824.72 1.19"/><polygon class="cls-6" points="1280.16 304.84 1387.58 305.12 1182.43 -0.16 1073.7 -0.25 1280.16 304.84"/><line class="cls-7" x1="1280.77" y1="304.55" x2="1073.06" y2="0.23"/><polygon class="cls-6" points="1044.85 0.23 1070.03 0.77 1277.37 304.54 1241.02 280.55 1044.85 0.23"/><polygon class="cls-6" points="1919.67 560.87 1915.31 365.03 1670.56 0.82 1540.84 0.71 1919.67 560.87"/><line class="cls-7" x1="1919.67" y1="560.87" x2="1540.08" y2="1.28"/><polygon class="cls-6" points="1506.42 1.28 1536.46 1.93 1919.67 560.87 1918.38 590.63 1506.42 1.28"/><polygon class="cls-6" points="0.31 561.24 4.67 365.4 249.41 1.19 379.13 1.08 0.31 561.24"/><line class="cls-7" x1="0.31" y1="561.24" x2="379.9" y2="1.65"/><polygon class="cls-6" points="413.55 1.65 383.51 2.29 0.31 561.24 1.59 591 413.55 1.65"/><path class="cls-8" d="M1364.5,293c12.65,83.3-84.33,55-164.11,53.76-81.33-1.29-182.72,16.11-161.55-65.28,17.39-66.87,86.35-153.6,162.83-153.6S1354.22,225.34,1364.5,293Z"/><path class="cls-9" d="M1205.31,127c-12.39-.59-25.21-1.11-37,3.56a1.51,1.51,0,0,0,.39,2.95l3.43.11c1.93.06,1.93-2.94,0-3l-3.43-.11.4,2.94c11.51-4.57,24-4,36.16-3.45,1.93.1,1.93-2.9,0-3Z"/><path class="cls-9" d="M1206.51,130.44c13.56-1.51,27.34.58,39.43,7.06,1.7.91,3.22-1.68,1.51-2.59a70,70,0,0,0-40.94-7.47c-1.9.21-1.92,3.21,0,3Z"/><path class="cls-9" d="M1226.53,133.92c10.84-.68,22.08,4.54,32.27,7.74,1.84.58,2.63-2.32.79-2.89-10.5-3.3-21.86-8.55-33.06-7.85-1.92.12-1.93,3.13,0,3Z"/><path class="cls-9" d="M1242.19,141.88c5.18-.34,10.51-.73,15.65.23,5,.94,9.2,3.7,13.54,6.16a1.5,1.5,0,0,0,1.52-2.59c-4.59-2.61-9-5.46-14.26-6.46-5.42-1-11-.7-16.45-.34-1.92.13-1.93,3.13,0,3Z"/><path class="cls-9" d="M1252.52,145.31c9.85-.11,21.6.51,28.47,8.59,1.26,1.47,3.37-.66,2.13-2.12-7.38-8.68-20-9.59-30.6-9.47a1.5,1.5,0,0,0,0,3Z"/><path class="cls-9" d="M1259.61,152.28c10-.64,20.69,2.89,30.47,4.86,1.88.38,2.69-2.51.79-2.89-10-2-20.93-5.63-31.26-5-1.92.12-1.93,3.12,0,3Z"/><path class="cls-9" d="M1269.31,158.15c8.24,2.27,16.31,5.33,24.41,8,1.83.62,2.62-2.28.8-2.89-8.1-2.71-16.18-5.78-24.41-8a1.5,1.5,0,0,0-.8,2.89Z"/><path class="cls-9" d="M1270,164.07a129.3,129.3,0,0,1,35.76,8.27c1.8.7,2.58-2.2.8-2.89a132,132,0,0,0-36.56-8.38c-1.92-.17-1.91,2.83,0,3Z"/><path class="cls-9" d="M1286.85,171.45a301.94,301.94,0,0,1,37.54,15.79c1.72.87,3.24-1.72,1.52-2.59a306.8,306.8,0,0,0-38.26-16.09c-1.83-.63-2.62,2.27-.8,2.89Z"/><path class="cls-9" d="M1290.15,177.12q15.36,6.4,30.35,13.65c1.73.84,3.26-1.75,1.52-2.59q-15.35-7.41-31.08-14c-1.78-.74-2.55,2.16-.79,2.89Z"/><path class="cls-9" d="M1290.07,186.86c5.13.92,9.94,3.41,14.73,5.4l15.21,6.32c1.78.74,2.56-2.16.8-2.89l-15.21-6.32c-4.79-2-9.6-4.48-14.73-5.41-1.89-.33-2.7,2.56-.8,2.9Z"/><path class="cls-9" d="M1308.29,199c5.12,0,10.63,2.86,15.2,4.93a117.58,117.58,0,0,1,11.44,6,1.5,1.5,0,0,0,1.51-2.59,118.53,118.53,0,0,0-14-7.16c-4.45-1.9-9.22-4.18-14.13-4.2a1.5,1.5,0,0,0,0,3Z"/><path class="cls-9" d="M1315.34,210.05c4.78.44,9.26,3.24,13.45,5.4,3.9,2,7.71,4.16,11.48,6.4a1.5,1.5,0,0,0,1.51-2.59c-7.76-4.63-17.21-11.36-26.44-12.21-1.92-.18-1.9,2.82,0,3Z"/><path class="cls-9" d="M1321.33,216.64a22.54,22.54,0,0,1,8.48,5.23c2.06,2,2.81,4.64,4.49,6.9,3.45,4.64,8.8,8.27,13.13,12,1.44,1.26,3.57-.85,2.12-2.12-5.76-5-11.28-9.33-15.21-15.91-2.51-4.19-7.62-7.66-12.21-9-1.85-.56-2.64,2.34-.8,2.9Z"/><path class="cls-9" d="M1326.53,234.66a227.75,227.75,0,0,0,30.45,16.7c1.75.8,3.27-1.79,1.52-2.59a227.87,227.87,0,0,1-30.46-16.7c-1.62-1.06-3.12,1.54-1.51,2.59Z"/><path class="cls-9" d="M1335.08,250.33a59.12,59.12,0,0,1,22.76,7.33,1.5,1.5,0,0,0,1.52-2.59,62.77,62.77,0,0,0-24.28-7.74c-1.92-.22-1.9,2.78,0,3Z"/><path class="cls-9" d="M1346.59,257.48c1.49.88,2.23,2.29,3.45,3.45a14.28,14.28,0,0,0,4,2.46c3.83,1.73,6.6,3.36,9.22,6.72,1.19,1.52,3.3-.61,2.12-2.12a20.75,20.75,0,0,0-8.89-6.79,14.19,14.19,0,0,1-4.92-3,16.06,16.06,0,0,0-3.46-3.28,1.5,1.5,0,0,0-1.51,2.59Z"/><path class="cls-9" d="M1181.54,131.48c-10.8,1.18-22-1.94-32.43,1.93-1.8.66-1,3.56.8,2.89,10.17-3.76,21.12-.67,31.63-1.82,1.9-.21,1.92-3.21,0-3Z"/><path class="cls-9" d="M1164.79,138a33.66,33.66,0,0,0-14.71,1.64c-5.77,2-12.84,1.31-19,2.39-1.89.34-1.09,3.23.8,2.9a87.77,87.77,0,0,1,11.19-1.31c2.05-.1,4.33.23,6.34-.33s3.76-1.81,5.91-2.24a34.45,34.45,0,0,1,9.46-.05c1.92.16,1.91-2.84,0-3Z"/><path class="cls-9" d="M1148.12,145.64c-5.45.16-10.37-.27-15.62,1.46-5.4,1.77-10.75,3.74-16.12,5.61-1.81.63-1,3.53.8,2.89,4.8-1.67,9.61-3.36,14.42-5,5.63-2,10.67-1.77,16.52-1.94,1.92-.06,1.93-3.06,0-3Z"/><path class="cls-9" d="M1133.26,156.68c-8.2-.41-16.34-.66-24.37,1.3-1.87.46-1.08,3.36.8,2.9,7.76-1.9,15.65-1.59,23.57-1.2,1.92.1,1.92-2.9,0-3Z"/><path class="cls-9" d="M1124.33,163.22a131.07,131.07,0,0,0-21.15.78c-5.75.71-11.71,1.42-16.8,4.35a1.5,1.5,0,0,0,1.51,2.59c5.55-3.19,12.69-3.75,18.94-4.33a134.52,134.52,0,0,1,17.5-.39c1.93.08,1.92-2.92,0-3Z"/><path class="cls-9" d="M1116.87,168.52A146.38,146.38,0,0,0,1086.05,179c-1.75.82-.23,3.4,1.51,2.59a142.72,142.72,0,0,1,30.11-10.15c1.89-.42,1.09-3.31-.8-2.89Z"/><path class="cls-9" d="M1113.15,176.55c-6.64,1.86-13.28,3.72-19.88,5.69-5.28,1.58-11.42,2.71-15.88,6.11-1.52,1.16,0,3.77,1.51,2.59,4.67-3.56,11.49-4.72,17-6.37,6-1.76,12-3.44,18-5.13a1.5,1.5,0,0,0-.8-2.89Z"/><path class="cls-9" d="M1100.87,185.48c-10.67,5.07-21.63,10.23-30,18.8-1.35,1.38.77,3.51,2.12,2.12,8.18-8.37,19-13.37,29.4-18.33,1.74-.83.22-3.41-1.52-2.59Z"/><path class="cls-9" d="M1085.68,201.21c-9.09.71-17.7,6.72-23.62,13.37-1.27,1.44.84,3.57,2.13,2.12,5.31-6,13.26-11.85,21.49-12.49,1.91-.15,1.93-3.15,0-3Z"/><path class="cls-9" d="M1075.58,212.57a159.25,159.25,0,0,0-24.75,16.73c-1.49,1.23.64,3.34,2.12,2.12a154.22,154.22,0,0,1,24.15-16.26c1.69-.92.18-3.52-1.52-2.59Z"/><path class="cls-9" d="M1072.43,223.25a139.7,139.7,0,0,0-28.63,21.37c-1.38,1.35.74,3.47,2.12,2.12a136.4,136.4,0,0,1,28-20.9,1.5,1.5,0,0,0-1.52-2.59Z"/><path class="cls-9" d="M1062.15,238.42a81.72,81.72,0,0,0-22.1,22.57c-1,1.63,1.55,3.13,2.59,1.51a77.9,77.9,0,0,1,21-21.49c1.57-1.1.07-3.71-1.51-2.59Z"/><path class="cls-9" d="M1054.35,254.24c-9.63,4.95-16,15.24-20.67,24.65-.85,1.73,1.74,3.25,2.6,1.52,4.44-9,10.39-18.85,19.58-23.58,1.72-.89.2-3.48-1.51-2.59Z"/><path class="cls-9" d="M1048.92,271.51c-8.47,7.16-17.4,14.59-22,25-.77,1.75,1.82,3.28,2.59,1.51,4.46-10.15,13.21-17.37,21.5-24.37,1.47-1.25-.66-3.36-2.13-2.12Z"/><path class="cls-9" d="M1043.15,285.74c-1.5,4.92-4.81,9-6.79,13.69a38.49,38.49,0,0,0-2.79,12.46c-.12,1.93,2.88,1.92,3,0a35.39,35.39,0,0,1,4.43-15.13c1.87-3.38,3.9-6.5,5-10.22.56-1.85-2.33-2.64-2.9-.8Z"/><path class="cls-9" d="M1048.23,305c-3.46,7.19-9.53,17.39-5.52,25.34.87,1.72,3.46.2,2.59-1.52-3.28-6.5,2.74-16.53,5.52-22.31.84-1.73-1.75-3.25-2.59-1.51Z"/><path class="cls-9" d="M1055.42,315c-.87,4.33.5,7.95,1.94,12.05q2.66,7.54,5.51,15c.67,1.79,3.57,1,2.89-.8q-2.17-5.72-4.25-11.48c-1.53-4.28-4.13-9.36-3.2-14,.38-1.89-2.51-2.7-2.89-.8Z"/><path class="cls-9" d="M1348.17,267.55c9.16,2.85,17.66,7.79,23.41,15.62,1.13,1.54,3.73.05,2.59-1.51-6.25-8.5-15.23-13.9-25.2-17-1.85-.58-2.64,2.32-.8,2.89Z"/><path class="cls-9" d="M1351.94,280.46c3.81,1.64,7.56,3.4,11.22,5.35,2.1,1.11,4.18,2.19,5.57,4.19a24.68,24.68,0,0,0,2.52,3.65c1.35,1.38,3.47-.74,2.12-2.12s-1.89-3.22-3.15-4.64a15.22,15.22,0,0,0-4.27-3c-4.06-2.22-8.25-4.2-12.5-6-1.75-.75-3.28,1.83-1.51,2.59Z"/><path class="cls-9" d="M1352.29,289.56c2.76,8,13.61,8.1,17.42,15.15.91,1.7,3.5.19,2.59-1.51-1.71-3.16-4.79-5.09-7.82-6.83-3.27-1.89-8-3.76-9.3-7.61-.62-1.82-3.52-1-2.89.8Z"/><path class="cls-9" d="M1351.66,302.55c2.46,3.17,6.43,4.28,9.3,7,3.15,3,4.35,7.15,5.4,11.2a1.51,1.51,0,0,0,2.9-.8c-1-3.85-2.16-7.7-4.68-10.86-3-3.74-7.92-4.93-10.8-8.63-1.19-1.52-3.3.62-2.12,2.12Z"/><path class="cls-9" d="M1351.82,317c5.31,5.13,7.16,11.79,8.69,18.78.41,1.89,3.31,1.09,2.89-.79-1.64-7.52-3.78-14.63-9.46-20.11-1.39-1.34-3.51.78-2.12,2.12Z"/><path class="cls-9" d="M1350.42,326.15l2.33,19.6c.23,1.89,3.23,1.91,3,0l-2.33-19.6c-.23-1.9-3.23-1.92-3,0Z"/><path class="cls-9" d="M1341.39,334.21q.13,12.44-.13,24.86l2.56-1.06-1-.87c-1.47-1.24-3.6.87-2.13,2.12l1,.87a1.52,1.52,0,0,0,2.56-1.06q.26-12.42.13-24.86c0-1.93-3-1.93-3,0Z"/><path class="cls-9" d="M1329.47,339.22a55.22,55.22,0,0,1-.44,14.64c-.31,1.88,2.58,2.7,2.89.79a57.8,57.8,0,0,0,.55-15.43c-.19-1.9-3.2-1.92-3,0Z"/><path class="cls-9" d="M1316.73,343.83a86.21,86.21,0,0,1-1.11,18.43c-.32,1.89,2.57,2.7,2.89.8a89.11,89.11,0,0,0,1.22-19.23c-.09-1.93-3.09-1.94-3,0Z"/><path class="cls-9" d="M1304.11,345a106.62,106.62,0,0,1-3.26,16.9,1.5,1.5,0,0,0,2.89.8,111,111,0,0,0,3.37-17.7c.21-1.91-2.8-1.9-3,0Z"/><path class="cls-9" d="M1290.84,346.54l-3,13c-.44,1.87,2.45,2.68,2.89.79l3-13c.44-1.87-2.45-2.68-2.89-.79Z"/><path class="cls-9" d="M1278.15,348.06a27.45,27.45,0,0,1-1.42,12.29c-.64,1.83,2.25,2.62,2.89.8a29.56,29.56,0,0,0,1.53-13.09c-.2-1.9-3.21-1.92-3,0Z"/><path class="cls-9" d="M1263.89,344.21l-.62,21.54c-.06,1.93,2.94,1.93,3,0l.62-21.54c0-1.93-3-1.93-3,0Z"/><path class="cls-9" d="M1252,342.29v13.85a1.5,1.5,0,0,0,3,0V342.29a1.5,1.5,0,0,0-3,0Z"/><path class="cls-9" d="M1234.54,343.06v13.08a1.5,1.5,0,0,0,3,0V343.06a1.5,1.5,0,0,0-3,0Z"/><path class="cls-9" d="M1214.51,343.83v15a1.5,1.5,0,0,0,3,0v-15a1.5,1.5,0,0,0-3,0Z"/><path class="cls-9" d="M1070,332.67c1,8-1.52,16,6,21.49,1.56,1.14,3.06-1.46,1.52-2.59-6.22-4.57-3.71-12.36-4.48-18.9-.22-1.89-3.23-1.91-3,0Z"/><path class="cls-9" d="M1078.22,334.59c-.38,8.71,5.41,15.71,12.73,19.72,1.7.93,3.21-1.66,1.52-2.59-6.44-3.52-11.59-9.44-11.25-17.13.09-1.93-2.91-1.93-3,0Z"/><path class="cls-9" d="M1100.81,334.63c-2,7.37.67,14.42,6.07,19.6,1.39,1.33,3.52-.79,2.12-2.12-4.65-4.46-7-10.3-5.3-16.68a1.5,1.5,0,0,0-2.89-.8Z"/><path class="cls-9" d="M1116.61,335c-1.41,7.81.79,14.95,5.62,21.16,1.18,1.52,3.29-.61,2.12-2.12a22.7,22.7,0,0,1-4.85-18.25c.34-1.88-2.55-2.69-2.89-.79Z"/><path class="cls-9" d="M1142.63,337.29a153.45,153.45,0,0,0,.44,20c.17,1.91,3.17,1.93,3,0a153.45,153.45,0,0,1-.44-20c.08-1.93-2.92-1.93-3,0Z"/><path class="cls-9" d="M1158.43,339.62l2.81,16.13c.33,1.9,3.22,1.1,2.89-.79l-2.81-16.14c-.33-1.89-3.22-1.09-2.89.8Z"/><path class="cls-9" d="M1177.51,337.67v16.16a1.5,1.5,0,0,0,3,0V337.67a1.5,1.5,0,0,0-3,0Z"/><path class="cls-9" d="M1201.15,340.36v16.16a1.5,1.5,0,0,0,3,0V340.36a1.5,1.5,0,0,0-3,0Z"/><path class="cls-9" d="M1173.53,161.23c-8.4,4.65-15,12.57-14.86,22.56,0,1.93,3,1.93,3,0-.13-8.95,5.89-15.82,13.38-20,1.68-.93.17-3.52-1.52-2.59Z"/><path class="cls-9" d="M1134.63,188.66c-6.51,4.83-7,11.81-6.19,19.37.2,1.9,3.2,1.92,3,0-.67-6.26-.86-12.65,4.7-16.78,1.53-1.14,0-3.75-1.51-2.59Z"/><path class="cls-9" d="M1175.87,169.62c-2.12,6.19.16,12.34,4.85,16.64,1.42,1.31,3.55-.81,2.12-2.12-4-3.64-5.88-8.47-4.08-13.72.63-1.83-2.27-2.62-2.89-.8Z"/><path class="cls-9" d="M1137.57,194.92c-.87,5.74,2.12,10.49,5.25,15.05,1.08,1.58,3.68.08,2.59-1.51-2.55-3.72-5.67-8-5-12.74.28-1.89-2.61-2.71-2.89-.8Z"/><path class="cls-9" d="M1129.54,186.26c-6.23-1.07-11.66,4.5-15.53,8.68-1.31,1.41.8,3.54,2.12,2.12,2.91-3.15,7.84-8.73,12.62-7.9,1.88.32,2.7-2.57.79-2.9Z"/><path class="cls-9" d="M1230.07,148.86c8.35,1.8,16.38,6,20.58,13.77.92,1.7,3.51.19,2.59-1.51-4.55-8.38-13.29-13.19-22.37-15.15-1.89-.41-2.69,2.49-.8,2.89Z"/><path class="cls-9" d="M1231.28,154.16a17.6,17.6,0,0,1,6.08,8.46c.56,1.84,3.46,1,2.89-.8a20.38,20.38,0,0,0-6.85-9.79c-1.49-1.2-3.62.91-2.12,2.13Z"/><path class="cls-9" d="M1225.3,154.17v7.7a1.5,1.5,0,0,0,3,0v-7.7a1.5,1.5,0,0,0-3,0Z"/><path class="cls-9" d="M1257.91,188.07c6.81,5.58,11.68,12.91,12.16,21.88.1,1.92,3.1,1.94,3,0-.52-9.74-5.6-17.91-13-24-1.49-1.22-3.62.89-2.13,2.12Z"/><path class="cls-9" d="M1254.53,195a145,145,0,0,1-.25,16.55c-.14,1.93,2.86,1.92,3,0a145,145,0,0,0,.25-16.55c-.08-1.92-3.08-1.93-3,0Z"/><path class="cls-9" d="M1244.1,193.81q-2.4,10.88-4.08,21.88c-.29,1.89,2.6,2.7,2.89.8q1.68-11,4.09-21.88c.41-1.88-2.48-2.68-2.9-.8Z"/><path class="cls-9" d="M1196.62,198.52c-8.06,4.6-14.71,11.14-18.19,19.85-.72,1.79,2.18,2.57,2.89.8,3.18-7.95,9.49-13.88,16.81-18.06a1.5,1.5,0,0,0-1.51-2.59Z"/><path class="cls-9" d="M1195,208.42a38.72,38.72,0,0,0,.41,9.25c.31,1.9,3.2,1.1,2.9-.79a35.24,35.24,0,0,1-.31-8.46c.16-1.93-2.84-1.92-3,0Z"/><path class="cls-9" d="M1105.83,231.12l-2.44,12.65c-.36,1.89,2.53,2.7,2.9.8l2.43-12.65c.36-1.89-2.53-2.7-2.89-.8Z"/><path class="cls-9" d="M1115.45,234.58a44,44,0,0,0,1.4,16.18,1.5,1.5,0,0,0,2.89-.8,41.57,41.57,0,0,1-1.29-15.38c.2-1.92-2.81-1.9-3,0Z"/><path class="cls-9" d="M1098.84,226.2c-4.11-.55-6.75,4.63-8.94,7.34-2.6,3.23-5.21,6.33-4.58,10.7.28,1.9,3.17,1.09,2.9-.8-.49-3.33,2.6-6.28,4.51-8.65,1.37-1.69,3.6-5.92,6.11-5.59,1.91.25,1.89-2.75,0-3Z"/><path class="cls-9" d="M1193.56,237.4c4.74.91,11.24,4.61,14,8.64s3.07,9.67,4,14.33c.36,1.89,3.26,1.09,2.9-.8-1-5.37-1.42-11.81-5-16.19a28.32,28.32,0,0,0-15-8.87c-1.89-.36-2.69,2.53-.8,2.89Z"/><path class="cls-9" d="M1192.87,244.48a12.47,12.47,0,0,1,3.13,9.33c-.16,1.92,2.85,1.91,3,0a15.51,15.51,0,0,0-4-11.45c-1.25-1.48-3.37.65-2.12,2.12Z"/><path class="cls-9" d="M1184.23,242.38A52.43,52.43,0,0,0,1179,264.2c0,1.93,3,1.93,3,0a48.81,48.81,0,0,1,4.85-20.31c.83-1.73-1.76-3.26-2.59-1.51Z"/><path class="cls-9" d="M1263.17,254.14a33.72,33.72,0,0,1,3.14,17.74c-.18,1.92,2.82,1.91,3,0a36.72,36.72,0,0,0-3.55-19.26c-.82-1.74-3.41-.22-2.59,1.52Z"/><path class="cls-9" d="M1254,259.2a74.25,74.25,0,0,1-.27,11.93c-.2,1.92,2.8,1.91,3,0a74.25,74.25,0,0,0,.27-11.93c-.12-1.92-3.12-1.94-3,0Z"/><path class="cls-9" d="M1269.47,248.22c5.08.6,10.27,2.95,12.87,7.56a1.5,1.5,0,0,0,2.59-1.52c-3.15-5.58-9.32-8.31-15.46-9-1.92-.22-1.9,2.78,0,3Z"/><path class="cls-9" d="M1301.68,271.16c5.45,3.48,9.64,8.46,10.73,15,.32,1.9,3.21,1.09,2.89-.8-1.21-7.24-6.06-12.89-12.11-16.75-1.63-1.05-3.14,1.55-1.51,2.59Z"/><path class="cls-9" d="M1303.9,285v15.39a1.5,1.5,0,0,0,3,0V285a1.5,1.5,0,0,0-3,0Z"/><path class="cls-9" d="M1295.67,277.66a23.71,23.71,0,0,1-2.31,11.95c-.83,1.73,1.76,3.26,2.59,1.51a26.78,26.78,0,0,0,2.72-13.46c-.13-1.92-3.13-1.93-3,0Z"/><path class="cls-9" d="M1209.45,284.7c-7.77,5.28-12.89,13.39-11.56,23,.26,1.91,3.16,1.1,2.89-.8-1.13-8.17,3.66-15.18,10.18-19.61,1.59-1.08.09-3.68-1.51-2.59Z"/><path class="cls-9" d="M1216.31,294.6a30.91,30.91,0,0,0,1.43,16.63c.67,1.8,3.57,1,2.9-.79a28,28,0,0,1-1.44-15.05c.34-1.88-2.55-2.69-2.89-.79Z"/><path class="cls-9" d="M1226.71,289.88a39.07,39.07,0,0,1,6.73,15.12c.38,1.89,3.27,1.09,2.89-.8a41.14,41.14,0,0,0-7-15.83c-1.12-1.56-3.72-.06-2.59,1.51Z"/><path class="cls-9" d="M1130.41,272.63c-4,5.05-5.62,11-3.93,17.3a1.5,1.5,0,0,0,2.9-.79,16,16,0,0,1,3.15-14.39c1.18-1.51-.93-3.64-2.12-2.12Z"/><path class="cls-9" d="M1141,279.58c-1.29,7.78-.77,15.67,7.4,19.16,1.76.75,3.29-1.83,1.52-2.59-6.89-2.94-7.11-9.22-6-15.77.32-1.89-2.57-2.7-2.89-.8Z"/><path class="cls-9" d="M1151.25,273.51a23.61,23.61,0,0,1,3.66,14.92c-.17,1.92,2.83,1.91,3,0a26.42,26.42,0,0,0-4.07-16.43c-1-1.64-3.61-.14-2.59,1.51Z"/><path class="cls-9" d="M1080.49,281.6c-3.12.48-4.42,2.87-5.13,5.71a48.61,48.61,0,0,0-1.08,14.58c.12,1.92,3.12,1.93,3,0-.24-3.86-1.25-16.6,4-17.39,1.9-.29,1.09-3.19-.8-2.9Z"/><path class="cls-9" d="M1087.89,296.54c-1.47,5.46,0,10.64,3.46,15,1.2,1.51,3.31-.63,2.12-2.13a13.37,13.37,0,0,1-2.68-12.1,1.5,1.5,0,0,0-2.9-.79Z"/><path class="cls-9" d="M1099.51,289c3.59,3.51,5.9,7.79,6,12.88a1.5,1.5,0,0,0,3,0,21.19,21.19,0,0,0-6.82-15c-1.38-1.35-3.51.77-2.13,2.13Z"/><path class="cls-9" d="M1264.77,312.69a156.1,156.1,0,0,1,1.73,18.06c.07,1.92,3.08,1.93,3,0a160.79,160.79,0,0,0-1.84-18.85c-.3-1.91-3.19-1.1-2.89.79Z"/><path class="cls-9" d="M1276.17,321.51l1.19,19.62c.12,1.92,3.12,1.93,3,0l-1.19-19.62c-.11-1.91-3.11-1.93-3,0Z"/><path class="cls-9" d="M1282.18,314.93c4.83,2.13,9.07,5.33,11.6,10.05.91,1.7,3.5.19,2.59-1.51a25.87,25.87,0,0,0-12.67-11.13c-1.75-.78-3.28,1.81-1.52,2.59Z"/><path class="cls-9" d="M1160.08,311a11.57,11.57,0,0,0-9.75,4.3c-2.6,3.37-2.33,7.63-1.8,11.62.24,1.89,3.25,1.91,3,0-.4-3-.94-6.48.74-9.19a8.58,8.58,0,0,1,7.81-3.73c1.93.09,1.93-2.91,0-3Z"/><path class="cls-9" d="M1167.37,323.45a38.33,38.33,0,0,0,.79,13.87c.45,1.88,3.34,1.09,2.89-.79a36.22,36.22,0,0,1-.68-13.08c.24-1.91-2.76-1.89-3,0Z"/><path class="cls-9" d="M1175.46,316.37a13.26,13.26,0,0,1,4.65,9.38c.06,1.92,3.06,1.93,3,0a16.29,16.29,0,0,0-5.53-11.5c-1.41-1.31-3.54.81-2.12,2.12Z"/><path class="cls-9" d="M1196,136.66c-6-.39-12.88-.72-17.57,3.74-1.4,1.34.73,3.46,2.13,2.13,4-3.83,10.34-3.2,15.44-2.87,1.92.12,1.92-2.88,0-3Z"/><path class="cls-9" d="M1196.57,143q-.27,8.28.15,16.55c.1,1.92,3.1,1.93,3,0q-.42-8.28-.15-16.55c.06-1.93-2.94-1.93-3,0Z"/><path class="cls-9" d="M1206.81,146.89l1.65,4.59c.65,1.8,3.55,1,2.9-.8l-1.66-4.59c-.65-1.8-3.55-1-2.89.8Z"/><path class="cls-9" d="M1301,230.43c6,1.66,11.53,4.63,15.58,9.48,1.24,1.49,3.35-.64,2.12-2.12-4.36-5.22-10.41-8.47-16.9-10.25a1.5,1.5,0,0,0-.8,2.89Z"/><path class="cls-9" d="M1151.27,224.57c-5.14.23-11.11,3-12.3,8.44-.42,1.89,2.48,2.69,2.89.8.9-4.15,5.56-6.07,9.41-6.24,1.92-.09,1.93-3.09,0-3Z"/><path class="cls-9" d="M1090.16,256.89c-6.59-.08-15.91,1.06-18.22,8.47-.57,1.85,2.32,2.64,2.89.8,1.84-5.9,10.32-6.33,15.33-6.27,1.93,0,1.93-3,0-3Z"/><path class="cls-9" d="M1227,230a38.8,38.8,0,0,1,16.16,9.46,1.5,1.5,0,0,0,2.13-2.12,42.13,42.13,0,0,0-17.5-10.23c-1.84-.58-2.63,2.32-.79,2.89Z"/><path class="cls-9" d="M1212.9,183.33c1.58.07,6.71,0,6.89,2.41.14,1.91,3.14,1.93,3,0-.36-4.75-6.23-5.25-9.89-5.41-1.93-.08-1.92,2.92,0,3Z"/><path class="cls-9" d="M1237.36,266c-6.18-1.72-7.83,7.15-9.14,11.27-.59,1.85,2.31,2.64,2.89.8s1.22-3.68,1.91-5.5c.6-1.59,1.26-4.32,3.54-3.68a1.5,1.5,0,0,0,.8-2.89Z"/><path class="cls-9" d="M1317.56,311.19c3.89,1.81,7.43,4.66,8.92,8.82.64,1.8,3.54,1,2.89-.8-1.75-4.9-5.66-8.45-10.3-10.61-1.74-.81-3.26,1.77-1.51,2.59Z"/><path class="cls-9" d="M1232.15,319.48a26.13,26.13,0,0,0-1.5,14.34c.32,1.9,3.22,1.09,2.9-.8a23.17,23.17,0,0,1,1.5-12.74c.71-1.79-2.19-2.57-2.9-.8Z"/><path class="cls-8" d="M478.77,326.4c-4,51.44,79.73,27.38,150.52,20.94,72.18-6.57,163.8-3.23,137.93-51.1-21.25-39.34-90.06-87.05-158-81.61S482,284.6,478.77,326.4Z"/><path class="cls-9" d="M606,216.73c10.74-1.21,21.67-2.47,32.4-.53l.4-2.95-3,.32c-1.9.19-1.92,3.2,0,3l3-.32c1.53-.15,2.2-2.62.4-2.94-11-2-22.16-.83-33.2.42-1.9.22-1.92,3.22,0,3Z"/><path class="cls-9" d="M605,214.1c-12.32.07-24.64,2.23-35.85,7.47-1.75.82-.22,3.41,1.52,2.59,10.71-5,22.56-7,34.33-7.06a1.5,1.5,0,0,0,0-3Z"/><path class="cls-9" d="M587.49,217.64c-9.85.39-19.42,4.27-28.76,7.1-1.84.56-1.06,3.46.8,2.89,9.05-2.74,18.42-6.61,28-7,1.92-.08,1.93-3.08,0-3Z"/><path class="cls-9" d="M574.26,223.58A88,88,0,0,0,560,224.86c-4.54.92-8.46,3-12.58,5.06-1.73.85-.21,3.44,1.51,2.59,3.87-1.92,7.6-3.89,11.86-4.75a81.77,81.77,0,0,1,13.44-1.18c1.92-.07,1.93-3.07,0-3Z"/><path class="cls-9" d="M565.37,226.39c-8.9.66-19.77,1.46-26.53,8-1.38,1.34.74,3.46,2.12,2.12,6.09-5.92,16.42-6.56,24.41-7.15,1.91-.14,1.93-3.14,0-3Z"/><path class="cls-9" d="M559.67,231.13c-9.22.37-18.42,3.24-27.4,5.23-1.88.42-1.09,3.31.8,2.9,8.68-1.93,17.7-4.77,26.6-5.13,1.93-.08,1.94-3.08,0-3Z"/><path class="cls-9" d="M550.81,235.49c-7.06,1.95-14,4.4-21,6.62-1.84.59-1.05,3.48.79,2.89,7-2.22,13.94-4.67,21-6.61a1.51,1.51,0,0,0-.8-2.9Z"/><path class="cls-9" d="M551,239.08a159.23,159.23,0,0,0-31.41,7.62c-1.8.65-1,3.55.8,2.89A159.23,159.23,0,0,1,551.83,242c1.9-.27,1.09-3.16-.8-2.89Z"/><path class="cls-9" d="M536.38,244.81a340.33,340.33,0,0,0-32.67,12.52c-1.76.79-.23,3.37,1.52,2.59a330.41,330.41,0,0,1,31.95-12.21c1.82-.6,1-3.5-.8-2.9Z"/><path class="cls-9" d="M533.94,248.49q-13.35,5.07-26.46,10.71c-1.77.76-.25,3.35,1.51,2.59q12.76-5.48,25.75-10.41c1.78-.68,1-3.58-.8-2.89Z"/><path class="cls-9" d="M534.85,254.39c-8.7,1.8-17.31,6.1-25.6,9.24-1.78.68-1,3.58.8,2.9,8.29-3.15,16.9-7.45,25.6-9.25,1.89-.39,1.09-3.28-.8-2.89Z"/><path class="cls-9" d="M520.46,262.94c-8.25.69-16.86,5.18-24.14,8.93-1.72.88-.2,3.47,1.51,2.59,6.74-3.47,14.95-7.88,22.63-8.52,1.91-.15,1.92-3.16,0-3Z"/><path class="cls-9" d="M514.74,270.2c-7.67,1.11-15.33,5.75-22.14,9.27-1.72.88-.2,3.47,1.51,2.59,6.55-3.39,14.06-7.9,21.43-9,1.91-.27,1.1-3.16-.8-2.89Z"/><path class="cls-9" d="M509.64,274.68c-3.42,1-7.45,3-9.74,5.87-1.48,1.84-2.43,3.66-4.31,5.17-2.57,2.07-5.3,4-8,5.93-1.53,1.13,0,3.74,1.52,2.59,3.48-2.58,7.7-5,10.65-8.18,1.18-1.3,1.8-3,3-4.26a19.45,19.45,0,0,1,7.62-4.22c1.85-.55,1.06-3.45-.8-2.9Z"/><path class="cls-9" d="M505.92,286.26a228.1,228.1,0,0,1-25.26,12.15c-1.76.72-1,3.62.8,2.89a235.41,235.41,0,0,0,26-12.45,1.5,1.5,0,0,0-1.52-2.59Z"/><path class="cls-9" d="M500.7,296.05a71.22,71.22,0,0,0-20.61,6.39c-1.73.86-.22,3.45,1.51,2.59a68.93,68.93,0,0,1,19.9-6.09c1.9-.31,1.09-3.2-.8-2.89Z"/><path class="cls-9" d="M490.07,301.53a21.74,21.74,0,0,0-3.18,2.56,17,17,0,0,1-4.55,2.18,17.05,17.05,0,0,0-6.54,4.51c-1.3,1.42.81,3.55,2.12,2.12,2.22-2.41,4.62-3.44,7.59-4.67,2.46-1,3.83-2.91,6.07-4.11,1.71-.91.19-3.5-1.51-2.59Z"/><path class="cls-9" d="M627.52,217.77c9.41-.07,18.83-2.69,28.23-1.19,1.89.3,2.7-2.59.8-2.9-9.72-1.55-19.31,1-29,1.09a1.5,1.5,0,0,0,0,3Z"/><path class="cls-9" d="M643.37,220.49a47.22,47.22,0,0,1,7.69-.64c2.4.08,4.67.88,7,1,4.91.19,9.87-.44,14.81-.24,1.93.08,1.93-2.92,0-3-5.89-.23-11.9.55-17.71-.27a44.48,44.48,0,0,0-12.62.28c-1.91.26-1.1,3.15.79,2.89Z"/><path class="cls-9" d="M658.45,224c5.13-.33,9.79-.79,14.91,0,4.39.65,8.77,1.34,13.16,2,1.89.29,2.7-2.6.8-2.89-4.94-.76-9.87-1.56-14.82-2.26-4.76-.67-9.28-.13-14,.18-1.92.12-1.93,3.12,0,3Z"/><path class="cls-9" d="M672.62,229.63c7.13-.82,14.23-1.55,21.41-.95,1.92.16,1.91-2.84,0-3-7.18-.6-14.29.13-21.41.95-1.9.21-1.92,3.22,0,3Z"/><path class="cls-9" d="M681.12,233c10.37-1.11,22.93-2.72,33.09.29,1.85.55,2.64-2.35.79-2.9-10.49-3.1-23.18-1.54-33.88-.39-1.9.21-1.92,3.21,0,3Z"/><path class="cls-9" d="M687.85,235.64a178.28,178.28,0,0,1,27.57,4c1.88.43,2.68-2.46.8-2.9a184.78,184.78,0,0,0-28.37-4.13c-1.93-.14-1.92,2.87,0,3Z"/><path class="cls-9" d="M691.85,240.25c5.26.57,10.51,1.14,15.77,1.75s11.24.76,16.31,2.75c1.8.7,2.58-2.2.8-2.9-4.73-1.85-10.26-2-15.27-2.63-5.86-.7-11.74-1.34-17.61-2-1.92-.21-1.9,2.79,0,3Z"/><path class="cls-9" d="M702.81,244.67c9.41,2.2,19.13,4.26,27.64,9a1.5,1.5,0,0,0,1.52-2.59c-8.75-4.88-18.69-7-28.36-9.3-1.88-.44-2.68,2.45-.8,2.89Z"/><path class="cls-9" d="M718.76,253.26c7.06-.14,14.44,2.35,20.41,6,1.65,1,3.16-1.58,1.52-2.59-6.43-4-14.34-6.6-21.93-6.45-1.93,0-1.93,3,0,3Z"/><path class="cls-9" d="M727.63,259.31a165.71,165.71,0,0,1,22.8,8.12c1.75.78,3.28-1.81,1.52-2.59a169.32,169.32,0,0,0-23.52-8.42,1.5,1.5,0,0,0-.8,2.89Z"/><path class="cls-9" d="M731.36,265.57A140.38,140.38,0,0,1,758,276.22c1.7.91,3.22-1.68,1.51-2.59a143.89,143.89,0,0,0-27.37-10.95c-1.85-.55-2.65,2.35-.79,2.89Z"/><path class="cls-9" d="M741.81,274a67.78,67.78,0,0,1,20.41,11.45c1.46,1.24,3.6-.87,2.12-2.13a72.23,72.23,0,0,0-21.73-12.21c-1.81-.68-2.59,2.21-.8,2.89Z"/><path class="cls-9" d="M750.12,283.08c7.63,2,14,7.11,19.31,12.82,1.31,1.42,3.43-.71,2.12-2.13-5.61-6.06-12.52-11.49-20.64-13.58a1.5,1.5,0,0,0-.79,2.89Z"/><path class="cls-9" d="M755.78,292.9c7.42,3.41,15.81,6.77,21.15,13.2,1.23,1.48,3.35-.65,2.12-2.13-5.52-6.64-14.1-10.14-21.75-13.66-1.74-.8-3.27,1.79-1.52,2.59Z"/><path class="cls-9" d="M761.21,300.22c1.43,2.4,3.57,4.09,5.54,6a17.46,17.46,0,0,1,5,8.56c.43,1.88,3.33,1.08,2.89-.8a19.12,19.12,0,0,0-3.75-7.64c-2.17-2.72-5.31-4.65-7.1-7.67a1.5,1.5,0,0,0-2.59,1.52Z"/><path class="cls-9" d="M758.76,312.76c2.17,2.41,8.79,8.61,6.74,12.24a1.5,1.5,0,0,0,2.59,1.52c3.16-5.61-3.75-12-7.21-15.88-1.29-1.44-3.41.69-2.12,2.12Z"/><path class="cls-9" d="M752.84,318.83c1,2.34-.9,5.84-1.71,8.05-.9,2.44-1.83,4.86-2.78,7.28-.71,1.79,2.19,2.57,2.89.79,1.32-3.33,2.6-6.69,3.79-10.07,1-2.68,1.6-4.87.4-7.56-.78-1.76-3.37-.24-2.59,1.51Z"/><path class="cls-9" d="M490.2,307.48c-7.7,2.33-15.5,5.8-20.85,12-1.25,1.45.86,3.58,2.13,2.12,5-5.84,12.28-9.06,19.52-11.24,1.84-.56,1.06-3.46-.8-2.9Z"/><path class="cls-9" d="M487.67,315.71c-3.52,1.37-7,2.82-10.41,4.44a15.44,15.44,0,0,0-3.89,2.22c-1.06,1-1.55,2.31-2.64,3.26-1.46,1.26.67,3.38,2.12,2.12a12.72,12.72,0,0,0,1.77-2.17,9.93,9.93,0,0,1,4.15-2.84c3.18-1.51,6.42-2.86,9.69-4.14,1.78-.7,1-3.6-.79-2.89Z"/><path class="cls-9" d="M486.56,322.89c-.87,2.5-5.3,3.89-7.45,5-2.4,1.21-5,2.51-6.46,4.87-1,1.66,1.58,3.17,2.59,1.52,3.11-5.11,12.09-4.42,14.21-10.57.64-1.82-2.26-2.61-2.89-.79Z"/><path class="cls-9" d="M488.92,329.64c-2.26,2.54-6,3.18-8.48,5.6-2.1,2.07-3,4.75-3.69,7.56-.43,1.88,2.46,2.68,2.89.79.71-3.06,1.77-5.71,4.52-7.49,2.28-1.48,5-2.26,6.88-4.34,1.28-1.44-.84-3.57-2.12-2.12Z"/><path class="cls-9" d="M490,338.43c-4.22,3.42-5.87,7.9-6.77,13.1-.33,1.89,2.56,2.7,2.89.8.82-4.73,2.15-8.66,6-11.78,1.5-1.22-.63-3.33-2.12-2.12Z"/><path class="cls-9" d="M491.32,345.6,491,357.66c-.06,1.93,2.94,1.93,3,0l.37-12.06c.06-1.93-2.94-1.93-3,0Z"/><path class="cls-9" d="M500.05,349.85q1,7.77,2.32,15.47a1.51,1.51,0,0,0,2.21.9l.83-.6c1.55-1.12.06-3.72-1.51-2.59l-.84.6,2.21.9c-.85-4.88-1.6-9.77-2.22-14.68-.24-1.89-3.24-1.91-3,0Z"/><path class="cls-9" d="M511.08,352a25.08,25.08,0,0,0,1.79,9.49c.7,1.77,3.61,1,2.89-.8a22.9,22.9,0,0,1-1.68-8.69,1.5,1.5,0,0,0-3,0Z"/><path class="cls-9" d="M522.8,353.93a38.91,38.91,0,0,0,2.72,11.74c.71,1.77,3.61,1,2.89-.79a36.57,36.57,0,0,1-2.61-10.95c-.14-1.91-3.14-1.93-3,0Z"/><path class="cls-9" d="M534.17,354.14a52.55,52.55,0,0,0,4.6,10.61,1.5,1.5,0,0,0,2.59-1.51,48.52,48.52,0,0,1-4.29-9.9c-.57-1.84-3.46-1.06-2.9.8Z"/><path class="cls-9" d="M546.33,354.73l3.83,7.68c.86,1.73,3.44.21,2.59-1.51l-3.83-7.69c-.86-1.73-3.45-.21-2.59,1.52Z"/><path class="cls-9" d="M557.45,353.76a14.16,14.16,0,0,0,2.62,8.35c1.09,1.58,3.69.08,2.6-1.52a11.3,11.3,0,0,1-2.22-6.83c0-1.94-3-1.94-3,0Z"/><path class="cls-9" d="M569.85,350.8l2.42,13c.35,1.89,3.25,1.09,2.89-.8l-2.41-13c-.36-1.89-3.25-1.09-2.9.8Z"/><path class="cls-9" d="M580.24,348.79l1.2,8.4c.27,1.91,3.16,1.1,2.89-.79l-1.2-8.41c-.27-1.9-3.16-1.09-2.89.8Z"/><path class="cls-9" d="M595.83,348,597,356c.27,1.9,3.16,1.09,2.89-.8l-1.13-7.93c-.28-1.91-3.17-1.1-2.9.79Z"/><path class="cls-9" d="M613.71,347.05l1.3,9.11c.27,1.9,3.16,1.09,2.89-.8l-1.3-9.1c-.27-1.91-3.16-1.1-2.89.79Z"/><path class="cls-9" d="M741.16,329.6c-.13,4.4,2.53,8.45-2.14,11.33-1.65,1-.14,3.6,1.51,2.59a8.61,8.61,0,0,0,4.19-5.16c.73-2.94-.65-5.81-.56-8.76.06-1.93-2.94-1.93-3,0Z"/><path class="cls-9" d="M734,331.75c1.08,5-4.59,8.54-8.37,10.34-1.74.83-.22,3.42,1.51,2.59,5.23-2.49,11.16-7.2,9.75-13.73-.41-1.88-3.3-1.08-2.89.8Z"/><path class="cls-9" d="M714.2,334c2.13,3.77-.27,7.19-3.25,9.59-1.5,1.21.63,3.33,2.12,2.12,4.09-3.3,6.51-8.28,3.72-13.22A1.5,1.5,0,0,0,714.2,334Z"/><path class="cls-9" d="M700,335c1.7,4.07.31,7.74-2.56,10.87-1.3,1.42.81,3.55,2.12,2.12,3.51-3.84,5.44-8.75,3.33-13.78-.73-1.76-3.64-1-2.89.79Z"/><path class="cls-9" d="M677,338a62.91,62.91,0,0,1,1.28,11.77c0,1.93,3,1.94,3,0a66.36,66.36,0,0,0-1.39-12.56c-.39-1.89-3.28-1.09-2.89.79Z"/><path class="cls-9" d="M663.15,339.87l-1.11,10c-.21,1.91,2.79,1.9,3,0l1.11-10c.21-1.92-2.79-1.9-3,0Z"/><path class="cls-9" d="M646.05,340.69l1.4,9.8c.28,1.9,3.17,1.1,2.9-.8l-1.4-9.8c-.27-1.9-3.17-1.09-2.9.8Z"/><path class="cls-9" d="M625.28,344l1.4,9.81c.27,1.9,3.16,1.09,2.89-.8l-1.4-9.8c-.27-1.91-3.16-1.1-2.89.79Z"/><path class="cls-9" d="M636.13,235.13c5,1.4,12.6,4.39,13.28,10.45.22,1.9,3.22,1.92,3,0-.86-7.65-8.9-11.5-15.49-13.34a1.5,1.5,0,0,0-.79,2.89Z"/><path class="cls-9" d="M673.08,249c4.28,1.67,5.37,4.78,5.31,9.14,0,1.93,3,1.93,3,0,0-2.74-.1-5.54-1.72-7.87a12.07,12.07,0,0,0-5.79-4.16c-1.8-.7-2.58,2.2-.8,2.89Z"/><path class="cls-9" d="M633.19,239.2c1.93,2.86.35,5.58-2.12,7.48-1.5,1.16,0,3.77,1.52,2.59,3.67-2.83,6.11-7.26,3.19-11.58-1.08-1.59-3.68-.09-2.59,1.51Z"/><path class="cls-9" d="M669.27,251.47c1,2.72-1.35,5.34-2.94,7.33-1.19,1.5.92,3.63,2.12,2.12,2.28-2.85,5.17-6.38,3.72-10.25-.68-1.79-3.58-1-2.9.8Z"/><path class="cls-9" d="M679.23,247.2c4.15-.81,8.63,1.83,12.07,3.87a1.5,1.5,0,0,0,1.52-2.59c-4.26-2.51-9.31-5.16-14.39-4.17-1.89.36-1.09,3.26.8,2.89Z"/><path class="cls-9" d="M584.89,227.07c-7,1.61-14.82,4.61-18.74,11-1,1.65,1.58,3.16,2.59,1.51,3.49-5.68,10.8-8.18,16.94-9.61,1.88-.44,1.09-3.33-.79-2.89Z"/><path class="cls-9" d="M583.35,230.8c-2.5,1.71-4.75,3.91-5.64,6.89-.55,1.86,2.35,2.65,2.9.8a10,10,0,0,1,4.26-5.1c1.58-1.09.08-3.69-1.52-2.59Z"/><path class="cls-9" d="M587.69,232.75l.66,4.67a1.53,1.53,0,0,0,1.85,1.05,1.55,1.55,0,0,0,1-1.85l-.67-4.67a1.51,1.51,0,0,0-1.85-1,1.53,1.53,0,0,0-1,1.84Z"/><path class="cls-9" d="M562.62,253.27c-5.37,3.71-10.44,9.12-10,16.11.14,1.92,3.14,1.93,3,0-.41-5.9,3.93-10.39,8.46-13.52,1.58-1.09.08-3.69-1.51-2.59Z"/><path class="cls-9" d="M565.18,259.18a64.52,64.52,0,0,0,1.71,10.42c.47,1.87,3.37,1.08,2.9-.8a59.27,59.27,0,0,1-1.61-9.62c-.15-1.92-3.15-1.93-3,0Z"/><path class="cls-9" d="M574.64,258.74q3,6.19,5.37,12.62c.67,1.8,3.57,1,2.9-.8q-2.53-6.8-5.68-13.34c-.83-1.74-3.42-.22-2.59,1.52Z"/><path class="cls-9" d="M618.84,259.4c6,1.77,12.37,4.45,16.3,9.56,1.16,1.51,3.77,0,2.59-1.51-4.46-5.8-11.23-8.92-18.1-10.94-1.85-.55-2.64,2.34-.79,2.89Z"/><path class="cls-9" d="M619.29,263.51a14,14,0,0,1,.4,5c-.18,1.92,2.82,1.91,3,0a16.45,16.45,0,0,0-.51-5.8,1.5,1.5,0,0,0-2.89.8Z"/><path class="cls-9" d="M700.77,271.53,704,279c.77,1.76,3.35.24,2.59-1.52l-3.26-7.5c-.77-1.77-3.35-.24-2.59,1.51Z"/><path class="cls-9" d="M692.28,273.72a16.43,16.43,0,0,1,.18,8.88c-.47,1.87,2.42,2.67,2.89.79a19.59,19.59,0,0,0-.17-10.47c-.55-1.84-3.44-1.06-2.9.8Z"/><path class="cls-9" d="M709.63,269.3c1.91-.32,4.26,2,5.74,3s4.63,2.43,4.49,4.49,2.86,1.92,3,0c.22-3.19-3-5-5.27-6.6-2.7-1.84-5.29-4.38-8.76-3.78-1.9.33-1.09,3.22.8,2.89Z"/><path class="cls-9" d="M625,278.19a28.13,28.13,0,0,0-11.64,5.63c-3.59,3-3.67,7.43-4.24,11.74-.25,1.91,2.75,1.89,3,0,.59-4.43.72-8,4.8-10.58a26.91,26.91,0,0,1,8.88-3.9c1.89-.36,1.09-3.26-.8-2.89Z"/><path class="cls-9" d="M625,283.1c-2.16,2.15-3.49,5-2.66,8a1.5,1.5,0,0,0,2.89-.8c-.55-2,.49-3.71,1.89-5.1A1.5,1.5,0,0,0,625,283.1Z"/><path class="cls-9" d="M632.46,284.45a23.16,23.16,0,0,1,5.93,11.76c.32,1.9,3.21,1.09,2.9-.8a26.1,26.1,0,0,0-6.71-13.08c-1.29-1.44-3.4.69-2.12,2.12Z"/><path class="cls-9" d="M563,294.47a16.79,16.79,0,0,0-1.51,12.62,1.5,1.5,0,0,0,2.89-.8A13.6,13.6,0,0,1,565.55,296c.88-1.71-1.71-3.23-2.6-1.51Z"/><path class="cls-9" d="M571.21,298.12a32.89,32.89,0,0,0,1.32,7.62c.56,1.84,3.45,1.06,2.9-.8a28.23,28.23,0,0,1-1.22-6.82c-.11-1.92-3.11-1.93-3,0Z"/><path class="cls-9" d="M558.83,290.1c-4.68.76-10.07,2.53-12.77,6.73-1,1.63,1.55,3.13,2.59,1.51,2.24-3.48,7.15-4.72,11-5.35,1.9-.31,1.09-3.2-.8-2.89Z"/><path class="cls-9" d="M531.17,306.63c-4.55,2.49-9,6.25-9.52,11.73-.18,1.92,2.82,1.91,3,0,.41-4.29,4.58-7.24,8-9.14,1.69-.92.18-3.52-1.52-2.59Z"/><path class="cls-9" d="M529.15,317.7l1.34,9.34c.27,1.9,3.16,1.09,2.89-.8l-1.33-9.33c-.28-1.91-3.17-1.1-2.9.79Z"/><path class="cls-9" d="M535.79,312.29a13.59,13.59,0,0,0,3.77,8.59c1.29,1.44,3.41-.69,2.12-2.13a10.2,10.2,0,0,1-2.89-6.46c-.09-1.93-3.09-1.94-3,0Z"/><path class="cls-9" d="M614.9,312.6c4.62,1.64,10.82,5,10.41,10.71-.14,1.93,2.86,1.92,3,0,.51-7.19-6.75-11.52-12.61-13.6-1.82-.65-2.61,2.24-.8,2.89Z"/><path class="cls-9" d="M607.93,317.55a11.37,11.37,0,0,1,.09,8.92c-.69,1.8,2.21,2.58,2.89.79a13.77,13.77,0,0,0-.09-10.51c-.74-1.75-3.64-1-2.89.8Z"/><path class="cls-9" d="M598.69,313.26a21.44,21.44,0,0,0-5.16,10.54c-.28,1.89,2.61,2.7,2.9.8a18.39,18.39,0,0,1,4.39-9.22c1.23-1.47-.88-3.6-2.13-2.12Z"/><path class="cls-9" d="M683.45,299.38c2.56,1.78,4.66,4.4,3.84,7.67-.48,1.87,2.41,2.67,2.89.8,1.18-4.67-1.51-8.48-5.21-11.06-1.59-1.11-3.09,1.49-1.52,2.59Z"/><path class="cls-9" d="M673.57,303.08c.73,1.84,1.72,4,.79,6a7.23,7.23,0,0,1-4.19,3.25c-1.79.68-1,3.58.8,2.89,2.4-.91,4.74-2.27,6-4.62,1.43-2.72.57-5.62-.48-8.3-.7-1.77-3.6-1-2.9.8Z"/><path class="cls-9" d="M664.11,298.26a12.65,12.65,0,0,0-2.23,10.94,1.5,1.5,0,0,0,2.89-.79c-.88-3.18.07-6,1.93-8.63,1.12-1.58-1.48-3.08-2.59-1.52Z"/><path class="cls-9" d="M730,301.67c3.83,0,4.53,6.74,4.68,9.57.1,1.92,3.1,1.93,3,0-.25-4.79-1.61-12.55-7.68-12.57a1.5,1.5,0,0,0,0,3Z"/><path class="cls-9" d="M722.38,310c1.36,2.42.48,4.71-1.32,6.63-1.32,1.4.8,3.53,2.12,2.12,2.72-2.91,3.82-6.65,1.79-10.27a1.5,1.5,0,0,0-2.59,1.52Z"/><path class="cls-9" d="M711.85,303.48c-3,2.45-5.44,5.94-4.91,10,.25,1.89,3.25,1.92,3,0-.43-3.31,1.6-5.85,4-7.85,1.49-1.23-.64-3.34-2.12-2.12Z"/><path class="cls-9" d="M566.3,331.1a65.84,65.84,0,0,0,0,11.32c.16,1.91,3.17,1.92,3,0a65.84,65.84,0,0,1,0-11.32c.16-1.93-2.84-1.92-3,0Z"/><path class="cls-9" d="M556.91,337.51l.64,12c.11,1.92,3.11,1.93,3,0l-.64-12c-.1-1.92-3.1-1.94-3,0Z"/><path class="cls-9" d="M552.65,331.65c-4.18,1.67-8.37,4-10.76,8a1.5,1.5,0,0,0,2.59,1.51c2-3.24,5.54-5.22,9-6.59,1.77-.71,1-3.62-.8-2.9Z"/><path class="cls-9" d="M662.14,325.14a10.63,10.63,0,0,1,6.69,1.13c2,1.23,2.11,3.26,2,5.41-.09,1.93,2.91,1.92,3,0,.14-2.86-.25-5.59-2.66-7.44a12.64,12.64,0,0,0-9-2.1c-1.89.22-1.92,3.23,0,3Z"/><path class="cls-9" d="M653.84,331.34a14.12,14.12,0,0,1,.51,7.43c-.38,1.88,2.51,2.69,2.89.8a17.21,17.21,0,0,0-.51-9c-.6-1.82-3.5-1-2.89.8Z"/><path class="cls-9" d="M646.72,325.49c-2.38,1.85-4.39,4.58-4.06,7.75.2,1.9,3.2,1.92,3,0-.25-2.44,1.38-4.22,3.18-5.63,1.52-1.19-.61-3.3-2.12-2.12Z"/><path class="cls-9" d="M615.15,221.94c4.49-.56,10-1.57,14.19.63,1.71.89,3.23-1.7,1.52-2.59-4.79-2.5-10.57-1.68-15.71-1-1.89.24-1.92,3.24,0,3Z"/><path class="cls-9" d="M612.25,223.94a78.62,78.62,0,0,1,1.25,9.65c.12,1.92,3.12,1.93,3,0a85.6,85.6,0,0,0-1.36-10.45c-.36-1.89-3.25-1.09-2.89.8Z"/><path class="cls-9" d="M603.5,226l-1.07,2.91a1.5,1.5,0,0,0,1.05,1.84,1.52,1.52,0,0,0,1.84-1.05l1.08-2.9a1.5,1.5,0,0,0-2.9-.8Z"/><path class="cls-9" d="M528.92,281.61c-5.2,1.42-10.4,3.62-14.24,7.52-1.36,1.38.76,3.51,2.12,2.13,3.48-3.55,8.2-5.47,12.92-6.76a1.5,1.5,0,0,0-.8-2.89Z"/><path class="cls-9" d="M662.49,272.1c2.72-.12,7.59,0,9,2.94.85,1.74,3.43.22,2.59-1.51-1.9-3.93-7.77-4.6-11.58-4.43-1.92.09-1.93,3.09,0,3Z"/><path class="cls-9" d="M719.61,287.37c3.85-.34,11.73-1.31,14.25,2.53,1,1.61,3.65.11,2.59-1.52-3.32-5.05-11.67-4.47-16.84-4-1.91.16-1.93,3.16,0,3Z"/><path class="cls-9" d="M594.62,276.1a40.75,40.75,0,0,0-14.76,7.55c-1.48,1.25.65,3.37,2.12,2.13A37,37,0,0,1,595.42,279c1.84-.56,1.06-3.45-.8-2.89Z"/><path class="cls-9" d="M603.88,246.65c-2.65.29-8.68.64-8.62,4.46,0,1.93,3,1.94,3,0,0-.46,2.13-.92,2.42-1a26.54,26.54,0,0,1,3.2-.47c1.9-.21,1.92-3.21,0-3Z"/><path class="cls-9" d="M590.31,303.22c1.47-.42,2.34.25,3.19,1.38s1.7,2.38,2.48,3.62c1,1.63,3.63.13,2.59-1.51-2.07-3.28-4.47-7.71-9.06-6.38a1.5,1.5,0,0,0,.8,2.89Z"/><path class="cls-9" d="M520.89,331.9c-3.63,1.52-7.33,3.75-8.75,7.63-.66,1.81,2.23,2.6,2.89.79,1-2.75,4.12-4.47,6.65-5.53,1.76-.73,1-3.63-.79-2.89Z"/><path class="cls-9" d="M596.15,334.14a9.86,9.86,0,0,1,2.3,7.35c-.2,1.92,2.8,1.9,3,0a12.26,12.26,0,0,0-2.71-8.87c-1.16-1.51-3.77,0-2.59,1.52Z"/></svg>
