<svg id="Layer_1" data-name="Layer 1" xmlns="http://www.w3.org/2000/svg" viewBox="0 0 378 406"><defs><style>.cls-1{opacity:0.26;}.cls-2{fill:#ea9e87;}.cls-3{fill:#998675;}.cls-4{fill:none;stroke:#000;stroke-linecap:round;stroke-miterlimit:10;}.cls-5{fill:#c7b299;}.cls-6{fill:#fff;}.cls-7{fill:#c69c6d;}.cls-8{fill:#ff9bac;}</style></defs><title>beige_rotte</title><ellipse class="cls-1" cx="229.08" cy="377.3" rx="148.5" ry="29"/><path class="cls-2" d="M102,255.43a44.15,44.15,0,0,1-43.46-33.59c-5-20.37,6.72-39.22,16.57-56.08,10.53-18,20.78-36.8,18.5-58.37-2-18.8-9.62-36.69-23.06-50.14-15.95-16-38.64-23-58.26-8.93C9,50.7,7.46,54.83,9.6,58.58c1.86,3.27,7,5,10.26,2.69,7.83-5.61,16.32-7.69,25.44-3.84,7.13,3,13.12,8.41,18.14,14.18,11.26,13,17.72,32.67,15.17,49.8-1.57,10.52-7.2,20.53-12.35,29.66-4.82,8.56-10.09,16.88-14.43,25.71-9.15,18.61-13,38.84-4.49,58.48,9.34,21.66,31.21,35.29,54.66,35.17,9.65-.05,9.67-15.05,0-15Z"/><circle class="cls-3" cx="168.58" cy="36.3" r="36"/><path class="cls-4" d="M169,76.67a28.27,28.27,0,1,0-19.46-53.08"/><circle class="cls-3" cx="300.58" cy="36.3" r="36"/><path class="cls-4" d="M299.05,76.67a28.27,28.27,0,1,1,19.47-53.08"/><path class="cls-5" d="M354.58,197.3c35,85-32.32,135-124,135s-162.84-46.5-124-135c43-98,52-167.51,124-172C310.58,20.3,329.29,135.89,354.58,197.3Z"/><path class="cls-3" d="M250.05,151.22c-7.49,18.71-16.45,35.17-20,38.67-3.73,3.71-11.23-18.71-20-38.67-9-20.6,5.51-39.1,20-39.92S259.29,128.11,250.05,151.22Z"/><circle class="cls-6" cx="201.08" cy="108.8" r="28.5"/><circle class="cls-6" cx="258.08" cy="108.8" r="28.5"/><path class="cls-7" d="M229.75,111.3c-1.82-9.07,2.68-22.74,15.83-29,12.29-5.86,27.71-.77,33.17,7Z"/><circle cx="204.58" cy="110.3" r="7"/><circle cx="252.58" cy="110.3" r="7"/><circle class="cls-8" cx="229.08" cy="200.8" r="10.5"/><path class="cls-7" d="M229.36,111.3c1.81-9.07-2.68-22.74-15.83-29-12.29-5.86-27.71-.77-33.17,7"/><rect x="291.58" y="175.3" width="3" height="77" rx="1.5"/><rect x="284.58" y="248.3" width="3" height="21" transform="translate(228.9 -122.71) rotate(39.34)"/><rect x="298.58" y="248.3" width="3" height="21" transform="translate(696.21 268.7) rotate(140.66)"/><rect x="291.58" y="250.3" width="3" height="21"/><rect x="168.58" y="175.3" width="3" height="77" rx="1.5"/><rect x="161.58" y="248.3" width="3" height="21" transform="translate(201.02 -44.73) rotate(39.34)"/><rect x="175.58" y="248.3" width="3" height="21" transform="translate(478.09 346.68) rotate(140.66)"/><rect x="168.58" y="250.3" width="3" height="21"/><rect class="cls-5" x="252.58" y="328.3" width="15" height="38"/><path class="cls-5" d="M285.58,384.3l-29.22-11.15a5.52,5.52,0,0,1-3.55-6.93l.64-2a5.49,5.49,0,0,1,6.92-3.54l31.21,6.58c2.89.93,3.48,7.22,2.55,10.11l-.64,2C292.56,382.26,288.47,385.23,285.58,384.3Z"/><circle class="cls-5" cx="290.58" cy="382.3" r="5"/><circle class="cls-5" cx="295.58" cy="371.3" r="5"/><circle class="cls-5" cx="294.58" cy="377.3" r="5"/><rect class="cls-5" x="190.58" y="328.3" width="15" height="38" transform="translate(396.15 694.59) rotate(-180)"/><path class="cls-5" d="M172.58,384.3l29.22-11.15a5.51,5.51,0,0,0,3.54-6.93l-.64-2a5.49,5.49,0,0,0-6.92-3.54l-31.2,6.58c-2.89.93-3.49,7.22-2.55,10.11l.63,2C165.6,382.26,169.69,385.23,172.58,384.3Z"/><circle class="cls-5" cx="167.58" cy="382.3" r="5"/><circle class="cls-5" cx="162.58" cy="371.3" r="5"/><circle class="cls-5" cx="163.58" cy="377.3" r="5"/><polyline class="cls-2" points="22.27 59.74 -0.42 73.3 9.85 50.94"/></svg>
