<svg id="Layer_1" data-name="Layer 1" xmlns="http://www.w3.org/2000/svg" xmlns:xlink="http://www.w3.org/1999/xlink" viewBox="0 0 300 300"><defs><style>.cls-1{filter:url(#AI_BevelShadow_1);}.cls-2{fill:#ea9e87;}.cls-3{fill:#a67c52;}.cls-4{fill:none;stroke:#000;stroke-linecap:round;stroke-miterlimit:10;}.cls-5{fill:#c69c6d;}.cls-6{fill:#fff;}.cls-7{fill:#ff9bac;}</style><filter id="AI_BevelShadow_1" x="-20" y="-20" width="140" height="140" name="AI_BevelShadow_1"><feGaussianBlur result="blur" stdDeviation="4" in="SourceAlpha"/><feOffset result="offsetBlur" dx="4" dy="4" in="blur"/><feSpecularLighting result="specOut" surfaceScale="5" specularExponent="10" in="blur"><fePointLight x="-5000" y="-10000" z="-20000"/></feSpecularLighting><feComposite result="specOut" operator="in" in="specOut" in2="SourceAlpha"/><feComposite result="litPaint" operator="arithmetic" k2="1" k3="1" in="SourceGraphic" in2="specOut"/><feMerge><feMergeNode in="offsetBlur"/><feMergeNode in="litPaint"/></feMerge></filter></defs><title>beigerottetitel</title><g class="cls-1"><path class="cls-2" d="M127.84,175.81c-5.84-.19-11-3.6-12.55-9.43-1.29-4.84.69-9.44,3-13.62,3.18-5.77,7.21-11.32,6.67-18.23-.78-10.17-10.73-23.37-21.74-16.33-1.62,1-.12,3.63,1.52,2.59,9.23-5.91,17,6.44,17.28,14.48.31,7.68-5.82,13.72-8.54,20.48-4.45,11,2.12,22.67,14.37,23.06,1.93.06,1.93-2.94,0-3Z"/><circle class="cls-3" cx="146.33" cy="114.36" r="10"/><path class="cls-4" d="M146.44,125.57A7.85,7.85,0,1,0,141,110.83"/><circle class="cls-3" cx="183" cy="114.36" r="10"/><path class="cls-4" d="M182.57,125.57A7.85,7.85,0,0,1,188,110.83"/><path class="cls-5" d="M198,159.08c9.72,23.61-9,37.5-34.45,37.5s-45.23-12.92-34.44-37.5c11.94-27.22,14.45-46.53,34.44-47.78C185.78,109.91,191,142,198,159.08Z"/><path class="cls-3" d="M169,146.28c-2.08,5.2-4.57,9.77-5.54,10.74s-3.12-5.2-5.55-10.74c-2.5-5.72,1.54-10.86,5.55-11.09S171.53,139.86,169,146.28Z"/><circle class="cls-6" cx="155.36" cy="134.49" r="7.92"/><circle class="cls-6" cx="171.19" cy="134.49" r="7.92"/><path class="cls-3" d="M163.32,135.19a7.69,7.69,0,0,1,4.4-8.06c3.42-1.62,7.7-.21,9.21,2Z"/><circle cx="156.33" cy="134.91" r="1.94"/><circle cx="169.66" cy="134.91" r="1.94"/><circle class="cls-7" cx="163.14" cy="160.05" r="2.92"/><path class="cls-3" d="M163.22,135.19a7.69,7.69,0,0,0-4.4-8.06c-3.42-1.62-7.7-.21-9.21,2"/><path d="M191.61,98.09h0c.23,0,.4.42.38.85l-1.75,38.48c0,.43-.22.75-.45.71h0c-.23,0-.4-.42-.38-.85l1.75-38.48C191.18,98.37,191.38,98.05,191.61,98.09Z"/><polygon points="195.44 90.55 196.03 91.64 191.97 99.5 191.37 98.4 195.44 90.55"/><polygon points="188.52 89.44 187.83 90.32 191.13 99.36 191.82 98.47 188.52 89.44"/><polygon points="191.64 88.14 192.47 88.28 191.98 99.2 191.15 99.06 191.64 88.14"/><path d="M136.11,98.75h0c.23,0,.43.28.45.7l1.62,37.85c0,.43-.15.8-.38.83h0c-.23,0-.43-.28-.45-.71l-1.62-37.85C135.71,99.15,135.88,98.78,136.11,98.75Z"/><polygon points="139.23 90.28 139.92 91.16 136.59 100 135.9 99.12 139.23 90.28"/><polygon points="132.31 91.29 131.71 92.35 135.75 100.12 136.35 99.06 132.31 91.29"/><polygon points="135.28 89.09 136.11 88.97 136.57 99.71 135.74 99.83 135.28 89.09"/><rect class="cls-5" x="169.66" y="195.47" width="4.17" height="10.56"/><path class="cls-5" d="M178.83,211l-8.12-3.09a1.53,1.53,0,0,1-1-1.93l.18-.54a1.52,1.52,0,0,1,1.92-1l8.67,1.83c.8.26,1,2,.71,2.81l-.18.54A2.1,2.1,0,0,1,178.83,211Z"/><circle class="cls-5" cx="180.22" cy="210.47" r="1.39"/><circle class="cls-5" cx="181.61" cy="207.41" r="1.39"/><circle class="cls-5" cx="181.33" cy="209.08" r="1.39"/><rect class="cls-5" x="152.44" y="195.47" width="4.17" height="10.56"/><path class="cls-5" d="M147.44,211l8.12-3.09a1.53,1.53,0,0,0,1-1.93l-.17-.54a1.53,1.53,0,0,0-1.93-1l-8.66,1.83c-.81.26-1,2-.71,2.81l.17.54A2.1,2.1,0,0,0,147.44,211Z"/><circle class="cls-5" cx="146.05" cy="210.47" r="1.39"/><circle class="cls-5" cx="144.66" cy="207.41" r="1.39"/><circle class="cls-5" cx="144.94" cy="209.08" r="1.39"/><polyline class="cls-2" points="105.69 120.87 99.39 124.63 102.24 118.42"/></g></svg>
