<svg id="Layer_1" data-name="Layer 1" xmlns="http://www.w3.org/2000/svg" viewBox="0 0 335 369"><defs><style>.cls-1{fill:#fcee21;}</style></defs><title>energy2</title><polygon class="cls-1" points="54.98 164.77 14.36 132.19 69.92 125.14 93.84 83.83 118.59 124.86 174.27 131.31 134.31 164.32 144.15 209.95 94.88 188.69 46.06 210.48 54.98 164.77"/><path d="M93.89,88.74l23.19,38.47,51.07,5.9-36.61,30.25,9.14,42.37L94.86,186,49.44,206.23l8.29-42.46L20.52,133.93l50.94-6.47L93.89,88.74m-.09-9.83-4.24,7.33L68.38,122.81,19.89,129l-11.7,1.49,9.2,7.37,34.85,27.95-7.71,39.5-1.84,9.44,8.79-3.92,43.41-19.39,43.81,18.91,8.91,3.85-2-9.49-8.5-39.4L171.34,137l9-7.47-11.65-1.35-48.63-5.63L98.17,86.16,93.8,78.91Z"/><polygon class="cls-1" points="56.24 309.65 16.45 277.07 70.86 270.03 94.34 228.64 118.63 269.77 173.15 276.21 134.03 309.2 143.69 354.88 95.36 333.58 47.5 355.4 56.24 309.65"/><path d="M94.38,233.63l22.73,38.47,50,5.92-35.85,30.24,9,42.37L95.35,330.85,50.86,351.12,59,308.65,22.52,278.81l49.9-6.46,22-38.72m-.09-10L90,231.17,69.3,267.71l-47.42,6.14-11.49,1.49,9,7.34,34.15,28L46,350.18l-1.82,9.5,8.8-4,42.45-19.34,42.84,18.87,8.93,3.94-2-9.55-8.34-39.44,33.57-28.31,8.81-7.43-11.45-1.36-47.56-5.62L98.69,231.09l-4.4-7.44Z"/><path d="M241.26,14.27l22.79,38.47,50.14,5.91L278.25,88.89l9,42.38-45-19.79-44.6,20.28,8.13-42.47L169.22,59.45l50-6.46,22-38.72m-.09-10-4.25,7.49L216.13,48.35l-47.55,6.14L157.07,56l9,7.34,34.23,28-7.57,39.54-1.82,9.49,8.8-4L242.26,117l43,18.88,8.92,3.93-2-9.54-8.36-39.44,33.65-28.31L326.25,55l-11.47-1.35-47.69-5.62L245.56,11.72l-4.39-7.41Z"/></svg>
