<svg id="Layer_1" data-name="Layer 1" xmlns="http://www.w3.org/2000/svg" viewBox="0 0 344 375"><title>energy0</title><path d="M98.89,93.74l23.19,38.47,51.07,5.9-36.61,30.25,9.14,42.37L99.86,191,54.44,211.23l8.29-42.46L25.52,138.93l50.94-6.47L98.89,93.74m-.09-9.83-4.24,7.33L73.38,127.81,24.89,134l-11.7,1.49,9.2,7.37,34.85,27.95-7.71,39.5-1.84,9.44,8.79-3.92,43.41-19.39,43.81,18.91,8.91,3.85-2-9.49-8.5-39.4L176.34,142l9-7.47-11.65-1.35-48.63-5.63L103.17,91.16,98.8,83.91Z"/><path d="M99.38,238.63l22.73,38.47,50,5.92-35.85,30.24,9,42.37-44.89-19.78L55.86,356.12,64,313.65,27.52,283.81l49.9-6.46,22-38.72m-.09-10L95,236.17,74.3,272.71l-47.42,6.14-11.49,1.49,9,7.34,34.15,28L51,355.18l-1.82,9.5,8.8-4,42.45-19.34,42.84,18.87,8.93,3.94-2-9.55-8.34-39.44,33.57-28.31,8.81-7.43-11.45-1.36-47.56-5.62-21.47-36.34-4.4-7.44Z"/><path d="M246.26,19.27l22.79,38.47,50.14,5.91L283.25,93.89l9,42.38-45-19.79-44.6,20.28,8.13-42.47L174.22,64.45l50-6.46,22-38.72m-.09-10-4.25,7.49L221.13,53.35l-47.55,6.14L162.07,61l9,7.34,34.23,28-7.57,39.54-1.82,9.49,8.8-4L247.26,122l43,18.88,8.92,3.93-2-9.54-8.36-39.44,33.65-28.31L331.25,60l-11.47-1.35-47.69-5.62L250.56,16.72l-4.39-7.41Z"/></svg>
