<svg id="Layer_1" data-name="Layer 1" xmlns="http://www.w3.org/2000/svg" viewBox="0 0 328 361"><defs><style>.cls-1{fill:#fcee21;}</style></defs><title>energy</title><polygon class="cls-1" points="50.98 161.77 10.36 129.19 65.92 122.14 89.84 80.83 114.59 121.86 170.27 128.31 130.31 161.32 140.15 206.95 90.88 185.69 42.06 207.48 50.98 161.77"/><path d="M89.89,85.74l23.19,38.47,51.07,5.9-36.61,30.25,9.14,42.37L90.86,183,45.44,203.23l8.29-42.46L16.52,130.93l50.94-6.47L89.89,85.74m-.09-9.83-4.24,7.33L64.38,119.81,15.89,126l-11.7,1.49,9.2,7.37,34.85,27.95-7.71,39.5-1.84,9.44,8.79-3.92,43.41-19.39,43.81,18.91,8.91,3.85-2-9.49-8.5-39.4L167.34,134l9-7.47-11.65-1.35-48.63-5.63L94.17,83.16,89.8,75.91Z"/><polygon class="cls-1" points="52.24 306.65 12.45 274.07 66.86 267.03 90.34 225.64 114.63 266.77 169.15 273.21 130.03 306.2 139.69 351.88 91.36 330.58 43.5 352.4 52.24 306.65"/><path d="M90.38,230.63l22.73,38.47,50,5.92-35.85,30.24,9,42.37L91.35,327.85,46.86,348.12,55,305.65,18.52,275.81l49.9-6.46,22-38.72m-.09-10L86,228.17,65.3,264.71l-47.42,6.14L6.39,272.34l9,7.34,34.15,28L42,347.18l-1.82,9.5,8.8-4,42.45-19.34,42.84,18.87,8.93,3.94-2-9.55-8.34-39.44,33.57-28.31,8.81-7.43-11.45-1.36-47.56-5.62L94.69,228.09l-4.4-7.44Z"/><polygon class="cls-1" points="199.03 87.29 159.14 54.72 213.69 47.67 237.22 6.29 261.57 47.4 316.22 53.85 277.01 86.84 286.68 132.52 238.25 111.22 190.27 133.03 199.03 87.29"/><path d="M237.26,11.27l22.79,38.47,50.14,5.91L274.25,85.89l9,42.38-45-19.79-44.6,20.28,8.13-42.47L165.22,56.45l50-6.46,22-38.72m-.09-10L232.92,8.8,212.13,45.35l-47.55,6.14L153.07,53l9,7.34,34.23,28-7.57,39.54-1.82,9.49,8.8-4L238.26,114l43,18.88,8.92,3.93-2-9.54-8.36-39.44,33.65-28.31L322.25,52l-11.47-1.35-47.69-5.62L241.56,8.72l-4.39-7.41Z"/></svg>
