<svg id="Layer_1" data-name="Layer 1" xmlns="http://www.w3.org/2000/svg" viewBox="0 0 1520 1140"><defs><style>.cls-1{fill:#fcee21;}</style></defs><title>liv_stjerner</title><path d="M686.89,399.74l23.19,38.47,51.07,5.9-36.61,30.25,9.14,42.37L687.86,497l-45.42,20.28,8.29-42.46-37.21-29.84,50.94-6.47,22.43-38.72m-.09-9.83-4.24,7.33-21.18,36.57L612.89,440l-11.7,1.49,9.2,7.37,34.85,27.95-7.71,39.5-1.84,9.44,8.79-3.92,43.41-19.39,43.81,18.91,8.91,3.85-2-9.49-8.5-39.4L764.34,448l9-7.47-11.65-1.35-48.63-5.63-21.93-36.36-4.37-7.25Z"/><polygon class="cls-1" points="649.24 620.65 609.45 588.08 663.86 581.03 687.34 539.64 711.63 580.77 766.15 587.21 727.03 620.2 736.69 665.88 688.37 644.59 640.5 666.4 649.24 620.65"/><path d="M687.38,544.63l22.73,38.47,50,5.92-35.85,30.24,9,42.37-44.89-19.78-44.49,20.27L652,619.65l-36.45-29.84,49.9-6.46,22-38.72m-.09-10L683,542.17,662.3,578.71l-47.42,6.14-11.49,1.49,9,7.34,34.15,28L639,661.18l-1.82,9.5,8.8-4,42.45-19.34,42.84,18.87,8.93,3.94-2-9.55-8.34-39.44,33.57-28.31,8.81-7.43-11.45-1.36-47.56-5.62-21.47-36.34-4.4-7.44Z"/><path d="M834.26,325.27l22.79,38.47,50.14,5.91-35.94,30.24,9,42.38-45-19.79-44.6,20.28,8.13-42.47-36.54-29.84,50-6.46,22-38.72m-.09-10-4.25,7.49-20.79,36.55-47.55,6.14L750.07,367l9,7.34,34.23,28-7.57,39.54-1.82,9.49,8.8-4L835.26,428l43,18.88,8.92,3.93-2-9.54-8.36-39.44,33.65-28.31,8.84-7.44-11.47-1.35-47.69-5.62-21.53-36.35-4.39-7.41Z"/></svg>
