<svg id="Layer_1" data-name="Layer 1" xmlns="http://www.w3.org/2000/svg" viewBox="0 0 332 371"><defs><style>.cls-1{fill:#fcee21;}</style></defs><title>energy1</title><path d="M90.89,89.74l23.19,38.47,51.07,5.9-36.61,30.25,9.14,42.37L91.86,187,46.44,207.23l8.29-42.46L17.52,134.93l50.94-6.47L90.89,89.74m-.09-9.83-4.24,7.33L65.38,123.81,16.89,130l-11.7,1.49,9.2,7.37,34.85,27.95-7.71,39.5-1.84,9.44,8.79-3.92,43.41-19.39,43.81,18.91,8.91,3.85-2-9.49-8.5-39.4L168.34,138l9-7.47-11.65-1.35-48.63-5.63L95.17,87.16,90.8,79.91Z"/><polygon class="cls-1" points="53.24 310.65 13.45 278.07 67.86 271.03 91.34 229.64 115.63 270.77 170.15 277.21 131.03 310.2 140.69 355.88 92.36 334.58 44.5 356.4 53.24 310.65"/><path d="M91.38,234.63l22.73,38.47,50,5.92-35.85,30.24,9,42.37L92.35,331.85,47.86,352.12,56,309.65,19.52,279.81l49.9-6.46,22-38.72m-.09-10L87,232.17,66.3,268.71l-47.42,6.14L7.39,276.34l9,7.34,34.15,28L43,351.18l-1.82,9.5,8.8-4,42.45-19.34,42.84,18.87,8.93,3.94-2-9.55-8.34-39.44,33.57-28.31,8.81-7.43-11.45-1.36-47.56-5.62L95.69,232.09l-4.4-7.44Z"/><path d="M238.26,15.27l22.79,38.47,50.14,5.91L275.25,89.89l9,42.38-45-19.79-44.6,20.28,8.13-42.47L166.22,60.45l50-6.46,22-38.72m-.09-10-4.25,7.49L213.13,49.35l-47.55,6.14L154.07,57l9,7.34,34.23,28-7.57,39.54-1.82,9.49,8.8-4L239.26,118l43,18.88,8.92,3.93-2-9.54-8.36-39.44,33.65-28.31L323.25,56l-11.47-1.35-47.69-5.62L242.56,12.72l-4.39-7.41Z"/></svg>
