<svg id="Layer_1" data-name="Layer 1" xmlns="http://www.w3.org/2000/svg" viewBox="0 0 1920 1080"><defs><style>.cls-1{opacity:0.26;}.cls-2{fill:#ea9e87;}.cls-3{fill:#4d4d4d;}.cls-14,.cls-15,.cls-17,.cls-4{fill:none;}.cls-13,.cls-14,.cls-15,.cls-4{stroke:#000;}.cls-4{stroke-linecap:round;}.cls-14,.cls-15,.cls-17,.cls-18,.cls-4{stroke-miterlimit:10;}.cls-5{fill:#666;}.cls-18,.cls-6{fill:#fff;}.cls-7{fill:gray;}.cls-8{fill:#ff9bac;}.cls-9{fill:#998675;}.cls-10{fill:#c7b299;}.cls-11{fill:#c69c6d;}.cls-12{fill:#fbb03b;}.cls-13{stroke-linejoin:round;stroke-width:8px;}.cls-14{stroke-width:3px;}.cls-16{fill:#f7931e;}.cls-17{stroke:#fbb03b;stroke-width:16px;}.cls-18{stroke:#a67c52;stroke-width:88px;}.cls-19{fill:#fcee92;}.cls-20{fill:#fcee21;}.cls-21{fill:red;}.cls-22{fill:#fbc117;}.cls-23{fill:#006837;}</style></defs><title>forgrund</title><ellipse class="cls-1" cx="507.17" cy="713.75" rx="148.5" ry="29"/><path class="cls-2" d="M380.09,591.88a44.12,44.12,0,0,1-43.46-33.59c-5-20.37,6.72-39.21,16.57-56.08,10.53-18,20.78-36.8,18.5-58.37-2-18.8-9.62-36.68-23.06-50.14-15.95-16-38.64-23-58.26-8.93-3.32,2.38-4.83,6.51-2.69,10.26,1.86,3.28,7,5.05,10.26,2.7,7.83-5.62,16.32-7.7,25.44-3.85,7.12,3,13.12,8.41,18.14,14.18,11.26,13,17.72,32.67,15.16,49.81-1.56,10.51-7.19,20.53-12.34,29.66-4.82,8.56-10.09,16.88-14.43,25.7-9.15,18.62-13,38.84-4.49,58.48,9.34,21.67,31.21,35.29,54.66,35.17,9.65,0,9.67-15,0-15Z"/><circle class="cls-3" cx="446.67" cy="372.75" r="36"/><path class="cls-4" d="M447.06,413.13A28.27,28.27,0,0,0,427.6,360"/><circle class="cls-3" cx="578.67" cy="372.75" r="36"/><path class="cls-4" d="M577.14,413.13A28.27,28.27,0,1,1,596.61,360"/><path class="cls-5" d="M632.67,533.75c35,85-32.32,135-124,135s-162.84-46.5-124-135c43-98,52-167.5,124-172C588.67,356.75,607.38,472.34,632.67,533.75Z"/><path class="cls-3" d="M528.14,487.67c-7.49,18.71-16.45,35.18-20,38.67-3.73,3.71-11.23-18.71-20-38.67-9-20.6,5.51-39.09,20-39.91S537.38,464.57,528.14,487.67Z"/><circle class="cls-6" cx="479.17" cy="445.25" r="28.5"/><circle class="cls-6" cx="536.17" cy="445.25" r="28.5"/><path class="cls-7" d="M507.84,447.75c-1.82-9.06,2.67-22.74,15.83-29,12.29-5.85,27.71-.77,33.17,7Z"/><circle cx="482.67" cy="446.75" r="7"/><circle cx="530.67" cy="446.75" r="7"/><circle class="cls-8" cx="507.17" cy="537.25" r="10.5"/><path class="cls-7" d="M507.45,447.75c1.81-9.06-2.68-22.74-15.83-29-12.29-5.85-27.71-.77-33.17,7"/><rect x="569.67" y="511.75" width="3" height="77" rx="1.5"/><rect x="562.67" y="584.75" width="3" height="21" transform="translate(505.22 -222.75) rotate(39.34)"/><rect x="576.67" y="584.75" width="3" height="21" transform="translate(1402.66 689.06) rotate(140.66)"/><rect x="569.67" y="586.75" width="3" height="21"/><rect x="446.67" y="511.75" width="3" height="77" rx="1.5"/><rect x="439.67" y="584.75" width="3" height="21" transform="translate(477.35 -144.78) rotate(39.34)"/><rect x="453.67" y="584.75" width="3" height="21" transform="translate(1184.54 767.04) rotate(140.66)"/><rect x="446.67" y="586.75" width="3" height="21"/><rect class="cls-5" x="530.67" y="664.75" width="15" height="38"/><path class="cls-5" d="M563.67,720.75,534.45,709.6a5.5,5.5,0,0,1-3.55-6.92l.64-2a5.5,5.5,0,0,1,6.92-3.54l31.21,6.58c2.89.93,3.48,7.22,2.55,10.11l-.64,2C570.65,718.71,566.56,721.68,563.67,720.75Z"/><circle class="cls-5" cx="568.67" cy="718.75" r="5"/><circle class="cls-5" cx="573.67" cy="707.75" r="5"/><circle class="cls-5" cx="572.67" cy="713.75" r="5"/><rect class="cls-5" x="468.67" y="664.75" width="15" height="38" transform="translate(952.33 1367.5) rotate(-180)"/><path class="cls-5" d="M450.67,720.75l29.22-11.15a5.5,5.5,0,0,0,3.54-6.92l-.64-2a5.5,5.5,0,0,0-6.92-3.54l-31.2,6.58c-2.89.93-3.49,7.22-2.55,10.11l.63,2C443.68,718.71,447.78,721.68,450.67,720.75Z"/><circle class="cls-5" cx="445.67" cy="718.75" r="5"/><circle class="cls-5" cx="440.67" cy="707.75" r="5"/><circle class="cls-5" cx="441.67" cy="713.75" r="5"/><polyline class="cls-2" points="300.36 396.19 277.67 409.75 287.94 387.4"/><ellipse class="cls-1" cx="916.17" cy="685.75" rx="148.5" ry="29"/><path class="cls-2" d="M789.09,563.88a44.12,44.12,0,0,1-43.46-33.59c-5-20.37,6.72-39.21,16.57-56.08,10.53-18,20.78-36.8,18.5-58.37-2-18.8-9.62-36.68-23.06-50.14-15.95-16-38.64-23-58.26-8.93-3.32,2.38-4.83,6.51-2.69,10.26,1.86,3.28,7,5.05,10.26,2.7,7.83-5.62,16.32-7.7,25.44-3.85,7.12,3,13.12,8.41,18.14,14.18,11.26,13,17.72,32.67,15.16,49.81-1.56,10.51-7.19,20.53-12.34,29.66-4.82,8.56-10.09,16.88-14.43,25.7-9.15,18.62-13,38.84-4.49,58.48,9.34,21.67,31.21,35.29,54.66,35.17,9.65,0,9.67-15,0-15Z"/><circle class="cls-9" cx="855.67" cy="344.75" r="36"/><path class="cls-4" d="M856.06,385.13A28.27,28.27,0,0,0,836.6,332"/><circle class="cls-9" cx="987.67" cy="344.75" r="36"/><path class="cls-4" d="M986.14,385.13A28.27,28.27,0,1,1,1005.61,332"/><path class="cls-10" d="M1041.67,505.75c35,85-32.32,135-124,135s-162.84-46.5-124-135c43-98,52-167.5,124-172C997.67,328.75,1016.38,444.34,1041.67,505.75Z"/><path class="cls-9" d="M937.14,459.67c-7.49,18.71-16.45,35.18-20,38.67-3.73,3.71-11.23-18.71-20-38.67-9-20.6,5.51-39.09,20-39.91S946.38,436.57,937.14,459.67Z"/><circle class="cls-6" cx="888.17" cy="417.25" r="28.5"/><circle class="cls-6" cx="945.17" cy="417.25" r="28.5"/><path class="cls-11" d="M916.84,419.75c-1.82-9.06,2.67-22.74,15.83-29,12.29-5.85,27.71-.77,33.17,7Z"/><circle cx="891.67" cy="418.75" r="7"/><circle cx="939.67" cy="418.75" r="7"/><circle class="cls-8" cx="916.17" cy="509.25" r="10.5"/><path class="cls-11" d="M916.45,419.75c1.81-9.06-2.68-22.74-15.83-29-12.29-5.85-27.71-.77-33.17,7"/><rect x="978.67" y="483.75" width="3" height="77" rx="1.5"/><rect x="971.67" y="556.75" width="3" height="21" transform="translate(580.17 -488.39) rotate(39.34)"/><rect x="985.67" y="556.75" width="3" height="21" transform="translate(2110.22 380.12) rotate(140.66)"/><rect x="978.67" y="558.75" width="3" height="21"/><rect x="855.67" y="483.75" width="3" height="77" rx="1.5"/><rect x="848.67" y="556.75" width="3" height="21" transform="translate(552.29 -410.41) rotate(39.34)"/><rect x="862.67" y="556.75" width="3" height="21" transform="translate(1892.1 458.09) rotate(140.66)"/><rect x="855.67" y="558.75" width="3" height="21"/><rect class="cls-10" x="939.67" y="636.75" width="15" height="38"/><path class="cls-10" d="M972.67,692.75,943.45,681.6a5.5,5.5,0,0,1-3.55-6.92l.64-2a5.5,5.5,0,0,1,6.92-3.54l31.21,6.58c2.89.93,3.48,7.22,2.55,10.11l-.64,2C979.65,690.71,975.56,693.68,972.67,692.75Z"/><circle class="cls-10" cx="977.67" cy="690.75" r="5"/><circle class="cls-10" cx="982.67" cy="679.75" r="5"/><circle class="cls-10" cx="981.67" cy="685.75" r="5"/><rect class="cls-10" x="877.67" y="636.75" width="15" height="38" transform="translate(1770.33 1311.5) rotate(-180)"/><path class="cls-10" d="M859.67,692.75l29.22-11.15a5.5,5.5,0,0,0,3.54-6.92l-.64-2a5.5,5.5,0,0,0-6.92-3.54l-31.2,6.58c-2.89.93-3.49,7.22-2.55,10.11l.63,2C852.68,690.71,856.78,693.68,859.67,692.75Z"/><circle class="cls-10" cx="854.67" cy="690.75" r="5"/><circle class="cls-10" cx="849.67" cy="679.75" r="5"/><circle class="cls-10" cx="850.67" cy="685.75" r="5"/><polyline class="cls-2" points="709.36 368.19 686.67 381.75 696.94 359.4"/><ellipse class="cls-1" cx="1336" cy="700.5" rx="141" ry="21.5"/><path class="cls-12" d="M1263.09,421.18c-7.44,5.55-28.55,22.93-29.73,22.21-5.51-3.38-10.59-65-4.62-68.56,8.59-5.14,63.73,15.19,64.8,21.34C1294.21,400,1273.07,413.73,1263.09,421.18Z"/><path class="cls-12" d="M1405.07,419.52c-7-6-28.63-22.82-28.18-24.14,2.09-6.12,61.08-24.57,65.88-19.53,6.9,7.25-.85,65.51-6.62,67.9C1432.57,445.24,1414.54,427.63,1405.07,419.52Z"/><path class="cls-8" d="M1407.56,417.74c-3.94-3.37-16-12.75-15.75-13.48,1.17-3.42,34.13-13.73,36.81-10.92,3.85,4.05-.48,36.6-3.7,37.94C1422.92,432.11,1412.85,422.27,1407.56,417.74Z"/><path class="cls-8" d="M1261.63,416.5c-4.14,3.13-15.88,12.9-16.55,12.5-3.09-1.87-6.11-36.28-2.78-38.29,4.78-2.9,35.65,8.3,36.27,11.73C1279,404.57,1267.18,412.31,1261.63,416.5Z"/><ellipse class="cls-12" cx="1334" cy="523.5" rx="128" ry="138.5"/><circle class="cls-6" cx="1301" cy="462" r="32"/><circle class="cls-6" cx="1365" cy="462" r="32"/><circle cx="1285.5" cy="452.5" r="7.5"/><circle cx="1382.5" cy="467.5" r="7.5"/><polygon class="cls-13" points="1325 497 1333.5 485.49 1342 497 1325 497"/><path class="cls-14" d="M1352.5,507.5c0,6.9-2.1,12-9,12s-10-5.1-10-12"/><path class="cls-14" d="M1314.5,507.5c0,6.9,2.1,12,9,12s10-5.1,10-12"/><path class="cls-15" d="M1416,527c0,55.43-7.66,61-16.5,61s-15.5-5.57-15.5-61"/><path class="cls-15" d="M1288,527c0,55.43-7.66,61-16.5,61s-15.5-5.57-15.5-61"/><path class="cls-16" d="M1461.05,539.84c-.79,6.24-1.09,6.59-4.53,5.48-4.3-1.39-27.68-7.94-27-11.48.92-4.44,24.67-3.49,27.81-3C1461.34,531.42,1462.19,530.73,1461.05,539.84Z"/><path class="cls-16" d="M1461.67,514.78c.42,6.28.19,6.67-3.4,6.24-4.48-.54-28.68-2.5-28.64-6.12,0-4.52,23.54-8.14,26.72-8.27C1460.34,506.46,1461.05,505.62,1461.67,514.78Z"/><path class="cls-16" d="M1456.11,565.06c-1.67,6.06-2,6.36-5.27,4.77-4-2-26.26-11.81-25-15.22,1.54-4.25,24.9.08,28,1C1457.6,556.77,1458.54,556.21,1456.11,565.06Z"/><path class="cls-16" d="M1211.93,565c1.66,6.07,2,6.37,5.26,4.78,4.06-2,26.28-11.74,25.06-15.15-1.53-4.26-24.91,0-28,.93C1210.46,556.73,1209.51,556.16,1211.93,565Z"/><path class="cls-16" d="M1207,540.18c.52,6.27.81,6.63,4.29,5.66,4.35-1.2,28-6.77,27.4-10.34-.73-4.47-24.49-4.52-27.66-4.17C1207,531.76,1206.21,531,1207,540.18Z"/><path class="cls-16" d="M1206.46,513.78c-.43,6.28-.19,6.67,3.4,6.24,4.48-.54,28.68-2.5,28.64-6.12,0-4.52-23.54-8.14-26.72-8.27C1207.78,505.46,1207.07,504.62,1206.46,513.78Z"/><path class="cls-16" d="M1364.06,388.9c6.07,1.67,5.65,2.19,5,4.4-1.07,3.7-10,19.76-13.42,18.59-4.28-1.46-1.46-19.41-.74-21.73C1355.82,387.24,1355.21,386.47,1364.06,388.9Z"/><path class="cls-16" d="M1338,385c6.23,0,5.68,2,5.75,2.93.25,3.07-4.42,21.82-8,21.63-4.61-.26-6.49-18.38-6.34-20.95S1328.91,385,1338,385Z"/><path class="cls-16" d="M1308.27,387.83c-6.14,1.37-5.75,1.91-5.22,4.14.88,3.75,9,20.24,12.47,19.24,4.35-1.24,2.43-19.31,1.83-21.67C1316.59,386.59,1317.24,385.85,1308.27,387.83Z"/><rect x="1332" y="501" width="3" height="7"/><rect x="1392.65" y="573.39" width="1" height="11.23" rx="0.5" transform="translate(254.12 -410.3) rotate(18.41)"/><rect x="1406.42" y="573.51" width="1" height="10.98" rx="0.5" transform="translate(-71.23 218.82) rotate(-8.67)"/><rect x="1399.5" y="574" width="1" height="14" rx="0.5"/><rect x="1264.68" y="573.24" width="1" height="11.23" rx="0.5" transform="translate(247.54 -369.91) rotate(18.41)"/><rect x="1278.45" y="573.36" width="1" height="10.98" rx="0.5" transform="translate(-72.67 199.51) rotate(-8.67)"/><rect x="1271.53" y="573.85" width="1" height="14" rx="0.5"/><rect class="cls-12" x="1292" y="652" width="17" height="40"/><rect class="cls-12" x="1361" y="652" width="17" height="40"/><ellipse class="cls-12" cx="1378.5" cy="694" rx="11.5" ry="18" transform="matrix(0.27, -0.96, 0.96, 0.27, 335.44, 1831.51)"/><ellipse class="cls-12" cx="1291.5" cy="694" rx="18" ry="11.5" transform="translate(-140.15 377.8) rotate(-15.8)"/><path class="cls-17" d="M1231.13,602.71c-14.35,10.13-37.76,16.78-56.13,11.29-28.72-8.58-46.47-41.91-30.24-62.17"/><path class="cls-17" d="M1146,489.48c21,12.2,24.09,29.88-1.63,63"/><ellipse class="cls-16" cx="1134.5" cy="492" rx="20.5" ry="14.5"/><polygon class="cls-11" points="1506.87 1079.27 378.99 1079.27 254.67 957.75 1641.44 957.75 1506.87 1079.27"/><ellipse class="cls-18" cx="959.99" cy="836.87" rx="753.26" ry="201.12"/><ellipse class="cls-6" cx="286.86" cy="810.95" rx="54.49" ry="40.8"/><ellipse class="cls-6" cx="342" cy="780.23" rx="54.49" ry="40.8"/><ellipse class="cls-6" cx="433.03" cy="756.23" rx="54.49" ry="40.8"/><ellipse class="cls-6" cx="1234.36" cy="709.19" rx="54.49" ry="40.8"/><ellipse class="cls-6" cx="1133.08" cy="700.55" rx="54.49" ry="40.8"/><ellipse class="cls-6" cx="1026.66" cy="689.03" rx="54.49" ry="40.8"/><ellipse class="cls-6" cx="925.37" cy="689.03" rx="54.49" ry="40.8"/><ellipse class="cls-6" cx="824.08" cy="689.03" rx="54.49" ry="40.8"/><ellipse class="cls-6" cx="721.51" cy="700.55" rx="54.49" ry="40.8"/><ellipse class="cls-6" cx="617.66" cy="709.19" rx="54.49" ry="40.8"/><ellipse class="cls-6" cx="521.5" cy="729.35" rx="54.49" ry="40.8"/><ellipse class="cls-6" cx="1540.79" cy="770.63" rx="54.49" ry="40.8"/><ellipse class="cls-6" cx="1448.48" cy="738.95" rx="54.49" ry="40.8"/><ellipse class="cls-6" cx="1340.78" cy="720.71" rx="54.49" ry="40.8"/><ellipse class="cls-6" cx="1595.93" cy="815.75" rx="54.49" ry="40.8"/><path class="cls-19" d="M1029.61,906.22l-106.86,29c-58.67,0-84-35.89-84-78.55l-32.55-36.59c-54.76-56,57.92-80.7,116.59-80.7l98,24.75c58.67,0,96.18,9.83,96.18,52.5V858C1116.91,900.69,1124.31,918.05,1029.61,906.22Z"/><path class="cls-20" d="M956.76,882.14,905.5,851.75c-20-7.09-48.73-21.12-47.44-46.08l33.33-25.92c24.36-18.24,37.68-12.53,57.72-5.43l43.57,29.43c20,7.09,46.93,17.47,37.45,32.48l-33.6,20.32C987.05,871.56,976.8,889.23,956.76,882.14Z"/><ellipse class="cls-21" cx="1653.62" cy="195.39" rx="131.42" ry="118.36"/><rect class="cls-22" x="1629.9" y="37.67" width="46.16" height="39.36"/><rect class="cls-22" x="1647.85" y="1.19" width="11.54" height="36.48"/><path class="cls-6" d="M1730,111.55c15.77,11.8,23.08,25.48,16.32,30.54s-12.15-10.05-27.92-21.86-36-15.84-29.2-20.9S1714.2,99.74,1730,111.55Z"/><path class="cls-23" d="M1598.59,193.37h-2.73q-6.69,0-11.09.25c-.45,0-.86,0-1.23,0a3.3,3.3,0,0,1-1.81-.48A1.36,1.36,0,0,1,1581,192a11.28,11.28,0,0,1,1.2-3.28,22,22,0,0,1,2-3.69,4.43,4.43,0,0,1,3.68-1.92c.44,0,1,0,1.67.08q5.91.42,7.63.38h1.51c2,0,3-.75,3-2.25v-2.72a34.6,34.6,0,0,0-.67-5.75,3.6,3.6,0,0,1-.11-.88q0-1.5,3.45-2.67c1.42-.44,3-.87,4.91-1.27a22,22,0,0,1,4-.61c1.53,0,2.29.55,2.29,1.63a8,8,0,0,1-.17,1,38.7,38.7,0,0,0-.11,4v7.26q.06,2.2,3.06,2.25h8.64c2.93,0,4.68,0,5.24-.08.78-.09,1.26-.13,1.45-.13,1.44,0,2.17.56,2.17,1.67a10.49,10.49,0,0,1-1,3.23,17.26,17.26,0,0,1-2,3.69,3.83,3.83,0,0,1-3.17,2l-8.86-.59h-2.57c-2.19-.11-3.21.65-3.06,2.3v.66a51.89,51.89,0,0,0,.56,6.85,9.34,9.34,0,0,1,.11,1.25c0,1.22-1.14,2.24-3.4,3q-1.85.63-5,1.38a24.81,24.81,0,0,1-3.93.75,2.43,2.43,0,0,1-1.64-.56,1.78,1.78,0,0,1-.64-1.4,7.63,7.63,0,0,1,.06-.88q.33-3.28.33-8.3v-2.79C1601.76,194.05,1600.74,193.29,1598.59,193.37Z"/><path class="cls-23" d="M1686.56,212.94h-37.94q-5,0-5-2.13a2.7,2.7,0,0,1,1.05-2c.71-.63,3-2.31,6.86-5q10.76-7.59,15.93-14.14,2.68-3.35,2.68-5.76a4,4,0,0,0-1.62-3.32,7,7,0,0,0-4.34-1.23,11.53,11.53,0,0,0-3.91.52,49.38,49.38,0,0,0-5.9,3.4,6.13,6.13,0,0,1-3.23.75,8.23,8.23,0,0,1-4.82-1.52c-1.47-1-2.2-2.12-2.2-3.32s.67-2.31,2-3.69a23.19,23.19,0,0,1,5.3-3.9,55.48,55.48,0,0,1,26.69-6.46q11.13,0,18.44,3.21a13.23,13.23,0,0,1,5.29,4.09,8.91,8.91,0,0,1,2,5.5q0,7.31-13.49,15.86-4.78,3-4.79,4.5a2.32,2.32,0,0,0,1.45,2,7,7,0,0,0,3.51.82,14.36,14.36,0,0,0,8.75-2.84,19.18,19.18,0,0,1,2.59-1.71,4.39,4.39,0,0,1,1.75-.29c3.27,0,4.91,2.08,4.91,6.26a14.22,14.22,0,0,1-1.59,6.34,17.43,17.43,0,0,1-4.32,5.55,9.55,9.55,0,0,1-6.35,2.5,4.85,4.85,0,0,1-2.23-.44,6.94,6.94,0,0,1-1.89-1.65,4.77,4.77,0,0,0-2-1.5A13,13,0,0,0,1686.56,212.94Z"/><path class="cls-23" d="M287.51,199C145.19,214.31.31,330.47.31,330.47V1.19l551.32,1S479.93,178.18,287.51,199Z"/><path class="cls-21" d="M135.45,61.29a46.76,46.76,0,0,1,17.35,3.3Q164.11,69,169.7,77.78a24.65,24.65,0,0,1,4.14,13.63q0,13.19-13.48,21.61a43.77,43.77,0,0,1-23.53,6.4q-14.6,0-24.85-7.14-12.17-8.41-12.16-22.49,0-13.74,11.11-21.56Q120.73,61.29,135.45,61.29ZM133.94,76q-6.12,0-6.12,7.78A33.2,33.2,0,0,0,133,102a6.21,6.21,0,0,0,5.45,3.15q6,0,6-7.92a38.34,38.34,0,0,0-1.28-9.48,29,29,0,0,0-3.25-8.19A7.08,7.08,0,0,0,133.94,76Z"/><path class="cls-21" d="M197.7,67.74a17.49,17.49,0,0,1,10.81,3.37q4.5,3.36,4.5,8.09a10.1,10.1,0,0,1-4.66,8.52,19.72,19.72,0,0,1-21.69,0A10.08,10.08,0,0,1,182,79.2a9.38,9.38,0,0,1,3.94-7.63A18.08,18.08,0,0,1,197.7,67.74Zm0,28.44a17.56,17.56,0,0,1,10.81,3.37q4.5,3.38,4.5,8.1a10.1,10.1,0,0,1-4.66,8.52,19.72,19.72,0,0,1-21.69,0,10.08,10.08,0,0,1-4.67-8.52,9.38,9.38,0,0,1,3.94-7.63A18.09,18.09,0,0,1,197.7,96.18Z"/><path class="cls-21" d="M228.59,108.49c.62,0,2.06.11,4.34.34a21.81,21.81,0,0,0,2.5.2q5.58,0,6.44-6.6.47-3.74.46-21.26,0-2.65-1.44-3.69t-5.26-1c-.62,0-1.49,0-2.63.14-.88.07-1.65.1-2.3.1a6.45,6.45,0,0,1-3.62-.91,2.74,2.74,0,0,1-1.38-2.38c0-1.05.7-2.1,2.11-3.13a20.26,20.26,0,0,1,5.85-2.73,129.92,129.92,0,0,1,39.57-5.91q5.72,0,8.31,1c1.73.67,2.6,1.75,2.6,3.22a2.49,2.49,0,0,1-.85,2,11.62,11.62,0,0,1-3.42,1.55c-2.72.88-4.28,2-4.67,3.25s-.7,6.27-.92,15q.53,13.18.59,14.13a13.79,13.79,0,0,0,.53,2.6,5.41,5.41,0,0,0,3,3.6c1.44.65,4,1,7.62,1.18q6.18.2,6.18,3.79t-8.74,4.92a189.12,189.12,0,0,1-25,1.62q-8.41,0-15.91-.73a94.78,94.78,0,0,1-14.59-2.42c-3.38-.91-5.06-2.29-5.06-4.13a3.07,3.07,0,0,1,1.64-2.56A7.5,7.5,0,0,1,228.59,108.49Z"/><path class="cls-21" d="M369.4,68.18l-26.69,60.54a3.15,3.15,0,0,1-2,1.67,18.34,18.34,0,0,1-4.86.44A52.7,52.7,0,0,1,322,129.16q-6.23-1.68-6.22-3.69a2.31,2.31,0,0,1,.53-1.23l24.52-35.09c1.8-2.6,2.69-4.4,2.69-5.42,0-1.25-1-2.1-3.09-2.56A62,62,0,0,0,329,80.48q-10,0-14.27.94a6.54,6.54,0,0,0-3.22,1.87,11.57,11.57,0,0,1-3.32,2.53,9.31,9.31,0,0,1-3.84.67,8.7,8.7,0,0,1-7-2.83c-1.62-1.89-2.43-4.6-2.43-8.15a18.57,18.57,0,0,1,3.15-11A12.41,12.41,0,0,1,302.05,61a9.08,9.08,0,0,1,4.57-1.41,28.62,28.62,0,0,1,6.64,1.73,28.67,28.67,0,0,0,8.15,1h42.27q6.24,0,6.24,3.54A5.68,5.68,0,0,1,369.4,68.18Z"/><path d="M96.31,299.45l23.2,38.46,51.06,5.91L134,374.06l9.13,42.37L97.28,396.66,51.86,416.94l8.29-42.47L22.94,344.64l51-6.47,22.42-38.72m-.09-9.83L92,296.94,70.8,333.52l-48.49,6.16-11.69,1.48,9.19,7.38,34.85,27.94L47,416l-1.84,9.45,8.79-3.93,43.42-19.38,43.8,18.9,8.92,3.85-2-9.49L139.5,376l34.26-28.31,9-7.47-11.65-1.35-48.63-5.62-21.93-36.37-4.37-7.24Z"/><polygon class="cls-20" points="58.66 518.35 18.88 485.78 73.29 478.73 96.76 437.35 121.06 478.47 175.58 484.92 136.46 517.91 146.11 563.59 97.79 542.29 49.92 564.1 58.66 518.35"/><path d="M96.8,442.34l22.73,38.47,50,5.91L133.7,517l9,42.37L97.77,539.55,53.28,559.82l8.11-42.46L24.94,487.52l49.9-6.47,22-38.71m-.08-10-4.26,7.51L71.73,476.42,24.3,482.56l-11.49,1.49,9,7.33,34.16,28-7.56,39.55-1.81,9.49,8.8-4L97.81,545l42.83,18.88,8.93,3.93-2-9.54-8.34-39.45,33.57-28.31,8.82-7.43-11.45-1.35-47.57-5.63-21.47-36.34-4.39-7.43Z"/><path d="M243.69,220l22.78,38.47,50.15,5.91L280.67,294.6l9,42.37-45-19.78-44.6,20.27L208.19,295l-36.55-29.84,50-6.47,22-38.71m-.09-10-4.26,7.48-20.78,36.55L171,260.2l-11.51,1.48,9,7.35,34.24,28-7.58,39.54L193.32,346l8.8-4,42.57-19.34,42.95,18.88,8.92,3.92-2-9.54-8.35-39.43,33.65-28.31,8.84-7.44-11.48-1.36-47.69-5.62L248,217.43,243.6,210Z"/></svg>
