<svg id="Layer_1" data-name="Layer 1" xmlns="http://www.w3.org/2000/svg" xmlns:xlink="http://www.w3.org/1999/xlink" viewBox="0 0 1920 1080"><defs><style>.cls-1{fill:#534741;}.cls-2{fill:#754c24;}.cls-3{fill:#1b1464;}.cls-21,.cls-28,.cls-30,.cls-4,.cls-5,.cls-7{fill:none;}.cls-21,.cls-28,.cls-30,.cls-4,.cls-5{stroke:#000;}.cls-21,.cls-4{stroke-linecap:round;}.cls-11,.cls-21,.cls-28,.cls-30,.cls-4,.cls-5,.cls-7{stroke-miterlimit:10;}.cls-4{stroke-width:6px;}.cls-5{stroke-width:3px;}.cls-6{fill:#603813;}.cls-7{stroke:#754c24;}.cls-30,.cls-7{stroke-width:4px;}.cls-8{fill:#fbb03b;}.cls-9{fill:#f7931e;}.cls-10{fill:#c69c6d;}.cls-11,.cls-12{fill:#fff;}.cls-11{stroke:#a67c52;stroke-width:88px;}.cls-13{fill:#fcee92;}.cls-14{fill:#fcee21;}.cls-15{fill:red;}.cls-16{fill:#fbc117;}.cls-17{fill:#006837;}.cls-18{opacity:0.26;}.cls-19{fill:#ea9e87;}.cls-20{fill:#998675;}.cls-22{fill:#c7b299;}.cls-23{fill:#ff9bac;}.cls-24{fill:#4d4d4d;}.cls-25{fill:#666;}.cls-26{fill:gray;}.cls-27{filter:url(#AI_BevelShadow_1);}.cls-28{stroke-width:20px;}.cls-29{fill:#a67c52;}.cls-31{fill:#c1272d;}</style><filter id="AI_BevelShadow_1" x="-20" y="-20" width="140" height="140" name="AI_BevelShadow_1"><feGaussianBlur result="blur" stdDeviation="4" in="SourceAlpha"/><feOffset result="offsetBlur" dx="4" dy="4" in="blur"/><feSpecularLighting result="specOut" surfaceScale="5" specularExponent="10" in="blur"><fePointLight x="-5000" y="-10000" z="-20000"/></feSpecularLighting><feComposite result="specOut" operator="in" in="specOut" in2="SourceAlpha"/><feComposite result="litPaint" operator="arithmetic" k2="1" k3="1" in="SourceGraphic" in2="specOut"/><feMerge><feMergeNode in="offsetBlur"/><feMergeNode in="litPaint"/></feMerge></filter></defs><title>game_over</title><rect class="cls-1" x="1.31" y="1.19" width="1919.36" height="1078.08"/><polygon class="cls-2" points="1920.67 1079.27 1.31 1079.27 510.32 272.87 1365.5 272.87 1920.67 1079.27"/><polygon class="cls-1" points="1187.28 1.19 693.66 1.19 510.32 272.87 1365.5 272.87 1187.28 1.19"/><ellipse class="cls-3" cx="937.91" cy="68.87" rx="64.75" ry="48.48"/><line class="cls-4" x1="937.27" y1="114.47" x2="937.27" y2="23.27"/><line class="cls-4" x1="998.81" y1="69.35" x2="877.01" y2="69.35"/><line class="cls-5" x1="937.27" y1="1079.27" x2="937.27" y2="272.87"/><line class="cls-5" x1="1155.87" y1="273.35" x2="1432.81" y2="1078.79"/><line class="cls-5" x1="721.23" y1="273.35" x2="457.11" y2="1078.79"/><line class="cls-5" x1="830.21" y1="273.35" x2="703.28" y2="1078.79"/><line class="cls-5" x1="607.12" y1="273.35" x2="219.91" y2="1078.79"/><line class="cls-5" x1="1044.33" y1="273.35" x2="1173.82" y2="1078.79"/><line class="cls-5" x1="1266.14" y1="273.35" x2="1672.57" y2="1078.79"/><line class="cls-5" x1="509.67" y1="273.35" x2="0.67" y2="1079.75"/><line class="cls-5" x1="1364.86" y1="273.35" x2="1920.03" y2="1079.75"/><line class="cls-5" x1="425.05" y1="406.79" x2="543.01" y2="405.83"/><line class="cls-5" x1="677.63" y1="409.67" x2="809.69" y2="408.71"/><line class="cls-5" x1="937.91" y1="415.43" x2="1064.84" y2="414.47"/><line class="cls-5" x1="1203.31" y1="411.59" x2="1335.37" y2="410.63"/><line class="cls-5" x1="303.25" y1="599.75" x2="449.41" y2="600.71"/><line class="cls-5" x1="612.25" y1="607.43" x2="777.64" y2="607.43"/><line class="cls-5" x1="937.91" y1="607.43" x2="1098.18" y2="607.43"/><line class="cls-5" x1="1271.26" y1="607.43" x2="1434.1" y2="607.43"/><line class="cls-5" x1="130.16" y1="875.27" x2="317.35" y2="875.27"/><line class="cls-5" x1="523.78" y1="875.27" x2="735.33" y2="875.27"/><line class="cls-5" x1="937.91" y1="875.27" x2="1140.49" y2="875.27"/><line class="cls-5" x1="1362.3" y1="875.27" x2="1570" y2="875.27"/><line class="cls-5" x1="582.76" y1="323.27" x2="704.56" y2="323.27"/><line class="cls-5" x1="822.52" y1="323.27" x2="936.63" y2="323.27"/><line class="cls-5" x1="1052.02" y1="323.27" x2="1172.54" y2="323.27"/><line class="cls-5" x1="1294.34" y1="323.27" x2="1399.48" y2="323.27"/><line class="cls-5" x1="499.42" y1="496.07" x2="648.15" y2="495.11"/><line class="cls-5" x1="794.31" y1="502.79" x2="936.63" y2="501.83"/><line class="cls-5" x1="1081.51" y1="502.79" x2="1234.08" y2="499.91"/><line class="cls-5" x1="1377.68" y1="493.19" x2="1516.15" y2="492.23"/><line class="cls-5" x1="387.87" y1="728.39" x2="571.22" y2="729.35"/><line class="cls-5" x1="758.41" y1="729.35" x2="937.91" y2="729.35"/><line class="cls-5" x1="1117.41" y1="729.35" x2="1312.29" y2="729.35"/><line class="cls-5" x1="1495.64" y1="729.35" x2="1678.98" y2="729.35"/><line class="cls-5" x1="709.69" y1="1041.35" x2="936.63" y2="1040.39"/><line class="cls-5" x1="240.43" y1="1036.55" x2="471.21" y2="1037.51"/><line class="cls-5" x1="1172.54" y1="1038.47" x2="1418.71" y2="1037.51"/><line class="cls-5" x1="1650.78" y1="1034.63" x2="1889.25" y2="1035.59"/><polygon class="cls-6" points="590.41 305.8 483 306.08 688.14 0.8 796.87 0.71 590.41 305.8"/><line class="cls-7" x1="589.81" y1="305.51" x2="797.51" y2="1.19"/><polygon class="cls-6" points="825.72 1.19 800.54 1.73 593.21 305.5 629.55 281.51 825.72 1.19"/><polygon class="cls-6" points="1281.16 304.84 1388.58 305.12 1183.43 -0.16 1074.7 -0.25 1281.16 304.84"/><line class="cls-7" x1="1281.77" y1="304.55" x2="1074.06" y2="0.23"/><polygon class="cls-6" points="1045.85 0.23 1071.03 0.77 1278.37 304.54 1242.02 280.55 1045.85 0.23"/><polygon class="cls-6" points="1920.67 560.87 1916.31 365.03 1671.56 0.82 1541.84 0.71 1920.67 560.87"/><line class="cls-7" x1="1920.67" y1="560.87" x2="1541.08" y2="1.28"/><polygon class="cls-6" points="1507.42 1.28 1537.46 1.93 1920.67 560.87 1919.38 590.63 1507.42 1.28"/><polygon class="cls-6" points="1.31 561.24 5.67 365.4 250.41 1.19 380.13 1.08 1.31 561.24"/><line class="cls-7" x1="1.31" y1="561.24" x2="380.9" y2="1.65"/><polygon class="cls-6" points="414.55 1.65 384.51 2.29 1.31 561.24 2.59 591 414.55 1.65"/><path class="cls-8" d="M1365.5,293c12.65,83.3-84.33,55-164.11,53.76-81.33-1.29-182.72,16.11-161.55-65.28,17.39-66.87,86.35-153.6,162.83-153.6S1355.22,225.34,1365.5,293Z"/><path class="cls-9" d="M1206.31,127c-12.39-.59-25.21-1.11-37,3.56a1.51,1.51,0,0,0,.39,2.95l3.43.11c1.93.06,1.93-2.94,0-3l-3.43-.11.4,2.94c11.51-4.57,24-4,36.16-3.45,1.93.1,1.93-2.9,0-3Z"/><path class="cls-9" d="M1207.51,130.44c13.56-1.51,27.34.58,39.43,7.06,1.7.91,3.22-1.68,1.51-2.59a70,70,0,0,0-40.94-7.47c-1.9.21-1.92,3.21,0,3Z"/><path class="cls-9" d="M1227.53,133.92c10.84-.68,22.08,4.54,32.27,7.74,1.84.58,2.63-2.32.79-2.89-10.5-3.3-21.86-8.55-33.06-7.85-1.92.12-1.93,3.13,0,3Z"/><path class="cls-9" d="M1243.19,141.88c5.18-.34,10.51-.73,15.65.23,5,.94,9.2,3.7,13.54,6.16a1.5,1.5,0,0,0,1.52-2.59c-4.59-2.61-9-5.46-14.26-6.46-5.42-1-11-.7-16.45-.34-1.92.13-1.93,3.13,0,3Z"/><path class="cls-9" d="M1253.52,145.31c9.85-.11,21.6.51,28.47,8.59,1.26,1.47,3.37-.66,2.13-2.12-7.38-8.68-20-9.59-30.6-9.47a1.5,1.5,0,0,0,0,3Z"/><path class="cls-9" d="M1260.61,152.28c10-.64,20.69,2.89,30.47,4.86,1.88.38,2.69-2.51.79-2.89-10-2-20.93-5.63-31.26-5-1.92.12-1.93,3.12,0,3Z"/><path class="cls-9" d="M1270.31,158.15c8.24,2.27,16.31,5.33,24.41,8,1.83.62,2.62-2.28.8-2.89-8.1-2.71-16.18-5.78-24.41-8a1.5,1.5,0,0,0-.8,2.89Z"/><path class="cls-9" d="M1271,164.07a129.3,129.3,0,0,1,35.76,8.27c1.8.7,2.58-2.2.8-2.89a132,132,0,0,0-36.56-8.38c-1.92-.17-1.91,2.83,0,3Z"/><path class="cls-9" d="M1287.85,171.45a301.94,301.94,0,0,1,37.54,15.79c1.72.87,3.24-1.72,1.52-2.59a306.8,306.8,0,0,0-38.26-16.09c-1.83-.63-2.62,2.27-.8,2.89Z"/><path class="cls-9" d="M1291.15,177.12q15.36,6.4,30.35,13.65c1.73.84,3.26-1.75,1.52-2.59q-15.35-7.41-31.08-14c-1.78-.74-2.55,2.16-.79,2.89Z"/><path class="cls-9" d="M1291.07,186.86c5.13.92,9.94,3.41,14.73,5.4l15.21,6.32c1.78.74,2.56-2.16.8-2.89l-15.21-6.32c-4.79-2-9.6-4.48-14.73-5.41-1.89-.33-2.7,2.56-.8,2.9Z"/><path class="cls-9" d="M1309.29,199c5.12,0,10.63,2.86,15.2,4.93a117.58,117.58,0,0,1,11.44,6,1.5,1.5,0,0,0,1.51-2.59,118.53,118.53,0,0,0-14-7.16c-4.45-1.9-9.22-4.18-14.13-4.2a1.5,1.5,0,0,0,0,3Z"/><path class="cls-9" d="M1316.34,210.05c4.78.44,9.26,3.24,13.45,5.4,3.9,2,7.71,4.16,11.48,6.4a1.5,1.5,0,0,0,1.51-2.59c-7.76-4.63-17.21-11.36-26.44-12.21-1.92-.18-1.9,2.82,0,3Z"/><path class="cls-9" d="M1322.33,216.64a22.54,22.54,0,0,1,8.48,5.23c2.06,2,2.81,4.64,4.49,6.9,3.45,4.64,8.8,8.27,13.13,12,1.44,1.26,3.57-.85,2.12-2.12-5.76-5-11.28-9.33-15.21-15.91-2.51-4.19-7.62-7.66-12.21-9-1.85-.56-2.64,2.34-.8,2.9Z"/><path class="cls-9" d="M1327.53,234.66a227.75,227.75,0,0,0,30.45,16.7c1.75.8,3.27-1.79,1.52-2.59a227.87,227.87,0,0,1-30.46-16.7c-1.62-1.06-3.12,1.54-1.51,2.59Z"/><path class="cls-9" d="M1336.08,250.33a59.12,59.12,0,0,1,22.76,7.33,1.5,1.5,0,0,0,1.52-2.59,62.77,62.77,0,0,0-24.28-7.74c-1.92-.22-1.9,2.78,0,3Z"/><path class="cls-9" d="M1347.59,257.48c1.49.88,2.23,2.29,3.45,3.45a14.28,14.28,0,0,0,4,2.46c3.83,1.73,6.6,3.36,9.22,6.72,1.19,1.52,3.3-.61,2.12-2.12a20.75,20.75,0,0,0-8.89-6.79,14.19,14.19,0,0,1-4.92-3,16.06,16.06,0,0,0-3.46-3.28,1.5,1.5,0,0,0-1.51,2.59Z"/><path class="cls-9" d="M1182.54,131.48c-10.8,1.18-22-1.94-32.43,1.93-1.8.66-1,3.56.8,2.89,10.17-3.76,21.12-.67,31.63-1.82,1.9-.21,1.92-3.21,0-3Z"/><path class="cls-9" d="M1165.79,138a33.66,33.66,0,0,0-14.71,1.64c-5.77,2-12.84,1.31-19,2.39-1.89.34-1.09,3.23.8,2.9a87.77,87.77,0,0,1,11.19-1.31c2.05-.1,4.33.23,6.34-.33s3.76-1.81,5.91-2.24a34.45,34.45,0,0,1,9.46-.05c1.92.16,1.91-2.84,0-3Z"/><path class="cls-9" d="M1149.12,145.64c-5.45.16-10.37-.27-15.62,1.46-5.4,1.77-10.75,3.74-16.12,5.61-1.81.63-1,3.53.8,2.89,4.8-1.67,9.61-3.36,14.42-5,5.63-2,10.67-1.77,16.52-1.94,1.92-.06,1.93-3.06,0-3Z"/><path class="cls-9" d="M1134.26,156.68c-8.2-.41-16.34-.66-24.37,1.3-1.87.46-1.08,3.36.8,2.9,7.76-1.9,15.65-1.59,23.57-1.2,1.92.1,1.92-2.9,0-3Z"/><path class="cls-9" d="M1125.33,163.22a131.07,131.07,0,0,0-21.15.78c-5.75.71-11.71,1.42-16.8,4.35a1.5,1.5,0,0,0,1.51,2.59c5.55-3.19,12.69-3.75,18.94-4.33a134.52,134.52,0,0,1,17.5-.39c1.93.08,1.92-2.92,0-3Z"/><path class="cls-9" d="M1117.87,168.52A146.38,146.38,0,0,0,1087.05,179c-1.75.82-.23,3.4,1.51,2.59a142.72,142.72,0,0,1,30.11-10.15c1.89-.42,1.09-3.31-.8-2.89Z"/><path class="cls-9" d="M1114.15,176.55c-6.64,1.86-13.28,3.72-19.88,5.69-5.28,1.58-11.42,2.71-15.88,6.11-1.52,1.16,0,3.77,1.51,2.59,4.67-3.56,11.49-4.72,17-6.37,6-1.76,12-3.44,18-5.13a1.5,1.5,0,0,0-.8-2.89Z"/><path class="cls-9" d="M1101.87,185.48c-10.67,5.07-21.63,10.23-30,18.8-1.35,1.38.77,3.51,2.12,2.12,8.18-8.37,19-13.37,29.4-18.33,1.74-.83.22-3.41-1.52-2.59Z"/><path class="cls-9" d="M1086.68,201.21c-9.09.71-17.7,6.72-23.62,13.37-1.27,1.44.84,3.57,2.13,2.12,5.31-6,13.26-11.85,21.49-12.49,1.91-.15,1.93-3.15,0-3Z"/><path class="cls-9" d="M1076.58,212.57a159.25,159.25,0,0,0-24.75,16.73c-1.49,1.23.64,3.34,2.12,2.12a154.22,154.22,0,0,1,24.15-16.26c1.69-.92.18-3.52-1.52-2.59Z"/><path class="cls-9" d="M1073.43,223.25a139.7,139.7,0,0,0-28.63,21.37c-1.38,1.35.74,3.47,2.12,2.12a136.4,136.4,0,0,1,28-20.9,1.5,1.5,0,0,0-1.52-2.59Z"/><path class="cls-9" d="M1063.15,238.42a81.72,81.72,0,0,0-22.1,22.57c-1,1.63,1.55,3.13,2.59,1.51a77.9,77.9,0,0,1,21-21.49c1.57-1.1.07-3.71-1.51-2.59Z"/><path class="cls-9" d="M1055.35,254.24c-9.63,4.95-16,15.24-20.67,24.65-.85,1.73,1.74,3.25,2.6,1.52,4.44-9,10.39-18.85,19.58-23.58,1.72-.89.2-3.48-1.51-2.59Z"/><path class="cls-9" d="M1049.92,271.51c-8.47,7.16-17.4,14.59-22,25-.77,1.75,1.82,3.28,2.59,1.51,4.46-10.15,13.21-17.37,21.5-24.37,1.47-1.25-.66-3.36-2.13-2.12Z"/><path class="cls-9" d="M1044.15,285.74c-1.5,4.92-4.81,9-6.79,13.69a38.49,38.49,0,0,0-2.79,12.46c-.12,1.93,2.88,1.92,3,0a35.39,35.39,0,0,1,4.43-15.13c1.87-3.38,3.9-6.5,5-10.22.56-1.85-2.33-2.64-2.9-.8Z"/><path class="cls-9" d="M1049.23,305c-3.46,7.19-9.53,17.39-5.52,25.34.87,1.72,3.46.2,2.59-1.52-3.28-6.5,2.74-16.53,5.52-22.31.84-1.73-1.75-3.25-2.59-1.51Z"/><path class="cls-9" d="M1056.42,315c-.87,4.33.5,7.95,1.94,12.05q2.66,7.54,5.51,15c.67,1.79,3.57,1,2.89-.8q-2.17-5.72-4.25-11.48c-1.53-4.28-4.13-9.36-3.2-14,.38-1.89-2.51-2.7-2.89-.8Z"/><path class="cls-9" d="M1349.17,267.55c9.16,2.85,17.66,7.79,23.41,15.62,1.13,1.54,3.73.05,2.59-1.51-6.25-8.5-15.23-13.9-25.2-17-1.85-.58-2.64,2.32-.8,2.89Z"/><path class="cls-9" d="M1352.94,280.46c3.81,1.64,7.56,3.4,11.22,5.35,2.1,1.11,4.18,2.19,5.57,4.19a24.68,24.68,0,0,0,2.52,3.65c1.35,1.38,3.47-.74,2.12-2.12s-1.89-3.22-3.15-4.64a15.22,15.22,0,0,0-4.27-3c-4.06-2.22-8.25-4.2-12.5-6-1.75-.75-3.28,1.83-1.51,2.59Z"/><path class="cls-9" d="M1353.29,289.56c2.76,8,13.61,8.1,17.42,15.15.91,1.7,3.5.19,2.59-1.51-1.71-3.16-4.79-5.09-7.82-6.83-3.27-1.89-8-3.76-9.3-7.61-.62-1.82-3.52-1-2.89.8Z"/><path class="cls-9" d="M1352.66,302.55c2.46,3.17,6.43,4.28,9.3,7,3.15,3,4.35,7.15,5.4,11.2a1.51,1.51,0,0,0,2.9-.8c-1-3.85-2.16-7.7-4.68-10.86-3-3.74-7.92-4.93-10.8-8.63-1.19-1.52-3.3.62-2.12,2.12Z"/><path class="cls-9" d="M1352.82,317c5.31,5.13,7.16,11.79,8.69,18.78.41,1.89,3.31,1.09,2.89-.79-1.64-7.52-3.78-14.63-9.46-20.11-1.39-1.34-3.51.78-2.12,2.12Z"/><path class="cls-9" d="M1351.42,326.15l2.33,19.6c.23,1.89,3.23,1.91,3,0l-2.33-19.6c-.23-1.9-3.23-1.92-3,0Z"/><path class="cls-9" d="M1342.39,334.21q.13,12.44-.13,24.86l2.56-1.06-1-.87c-1.47-1.24-3.6.87-2.13,2.12l1,.87a1.52,1.52,0,0,0,2.56-1.06q.26-12.42.13-24.86c0-1.93-3-1.93-3,0Z"/><path class="cls-9" d="M1330.47,339.22a55.22,55.22,0,0,1-.44,14.64c-.31,1.88,2.58,2.7,2.89.79a57.8,57.8,0,0,0,.55-15.43c-.19-1.9-3.2-1.92-3,0Z"/><path class="cls-9" d="M1317.73,343.83a86.21,86.21,0,0,1-1.11,18.43c-.32,1.89,2.57,2.7,2.89.8a89.11,89.11,0,0,0,1.22-19.23c-.09-1.93-3.09-1.94-3,0Z"/><path class="cls-9" d="M1305.11,345a106.62,106.62,0,0,1-3.26,16.9,1.5,1.5,0,0,0,2.89.8,111,111,0,0,0,3.37-17.7c.21-1.91-2.8-1.9-3,0Z"/><path class="cls-9" d="M1291.84,346.54l-3,13c-.44,1.87,2.45,2.68,2.89.79l3-13c.44-1.87-2.45-2.68-2.89-.79Z"/><path class="cls-9" d="M1279.15,348.06a27.45,27.45,0,0,1-1.42,12.29c-.64,1.83,2.25,2.62,2.89.8a29.56,29.56,0,0,0,1.53-13.09c-.2-1.9-3.21-1.92-3,0Z"/><path class="cls-9" d="M1264.89,344.21l-.62,21.54c-.06,1.93,2.94,1.93,3,0l.62-21.54c0-1.93-3-1.93-3,0Z"/><path class="cls-9" d="M1253,342.29v13.85a1.5,1.5,0,0,0,3,0V342.29a1.5,1.5,0,0,0-3,0Z"/><path class="cls-9" d="M1235.54,343.06v13.08a1.5,1.5,0,0,0,3,0V343.06a1.5,1.5,0,0,0-3,0Z"/><path class="cls-9" d="M1215.51,343.83v15a1.5,1.5,0,0,0,3,0v-15a1.5,1.5,0,0,0-3,0Z"/><path class="cls-9" d="M1071,332.67c1,8-1.52,16,6,21.49,1.56,1.14,3.06-1.46,1.52-2.59-6.22-4.57-3.71-12.36-4.48-18.9-.22-1.89-3.23-1.91-3,0Z"/><path class="cls-9" d="M1079.22,334.59c-.38,8.71,5.41,15.71,12.73,19.72,1.7.93,3.21-1.66,1.52-2.59-6.44-3.52-11.59-9.44-11.25-17.13.09-1.93-2.91-1.93-3,0Z"/><path class="cls-9" d="M1101.81,334.63c-2,7.37.67,14.42,6.07,19.6,1.39,1.33,3.52-.79,2.12-2.12-4.65-4.46-7-10.3-5.3-16.68a1.5,1.5,0,0,0-2.89-.8Z"/><path class="cls-9" d="M1117.61,335c-1.41,7.81.79,14.95,5.62,21.16,1.18,1.52,3.29-.61,2.12-2.12a22.7,22.7,0,0,1-4.85-18.25c.34-1.88-2.55-2.69-2.89-.79Z"/><path class="cls-9" d="M1143.63,337.29a153.45,153.45,0,0,0,.44,20c.17,1.91,3.17,1.93,3,0a153.45,153.45,0,0,1-.44-20c.08-1.93-2.92-1.93-3,0Z"/><path class="cls-9" d="M1159.43,339.62l2.81,16.13c.33,1.9,3.22,1.1,2.89-.79l-2.81-16.14c-.33-1.89-3.22-1.09-2.89.8Z"/><path class="cls-9" d="M1178.51,337.67v16.16a1.5,1.5,0,0,0,3,0V337.67a1.5,1.5,0,0,0-3,0Z"/><path class="cls-9" d="M1202.15,340.36v16.16a1.5,1.5,0,0,0,3,0V340.36a1.5,1.5,0,0,0-3,0Z"/><path class="cls-9" d="M1174.53,161.23c-8.4,4.65-15,12.57-14.86,22.56,0,1.93,3,1.93,3,0-.13-8.95,5.89-15.82,13.38-20,1.68-.93.17-3.52-1.52-2.59Z"/><path class="cls-9" d="M1135.63,188.66c-6.51,4.83-7,11.81-6.19,19.37.2,1.9,3.2,1.92,3,0-.67-6.26-.86-12.65,4.7-16.78,1.53-1.14,0-3.75-1.51-2.59Z"/><path class="cls-9" d="M1176.87,169.62c-2.12,6.19.16,12.34,4.85,16.64,1.42,1.31,3.55-.81,2.12-2.12-4-3.64-5.88-8.47-4.08-13.72.63-1.83-2.27-2.62-2.89-.8Z"/><path class="cls-9" d="M1138.57,194.92c-.87,5.74,2.12,10.49,5.25,15.05,1.08,1.58,3.68.08,2.59-1.51-2.55-3.72-5.67-8-5-12.74.28-1.89-2.61-2.71-2.89-.8Z"/><path class="cls-9" d="M1130.54,186.26c-6.23-1.07-11.66,4.5-15.53,8.68-1.31,1.41.8,3.54,2.12,2.12,2.91-3.15,7.84-8.73,12.62-7.9,1.88.32,2.7-2.57.79-2.9Z"/><path class="cls-9" d="M1231.07,148.86c8.35,1.8,16.38,6,20.58,13.77.92,1.7,3.51.19,2.59-1.51-4.55-8.38-13.29-13.19-22.37-15.15-1.89-.41-2.69,2.49-.8,2.89Z"/><path class="cls-9" d="M1232.28,154.16a17.6,17.6,0,0,1,6.08,8.46c.56,1.84,3.46,1,2.89-.8a20.38,20.38,0,0,0-6.85-9.79c-1.49-1.2-3.62.91-2.12,2.13Z"/><path class="cls-9" d="M1226.3,154.17v7.7a1.5,1.5,0,0,0,3,0v-7.7a1.5,1.5,0,0,0-3,0Z"/><path class="cls-9" d="M1258.91,188.07c6.81,5.58,11.68,12.91,12.16,21.88.1,1.92,3.1,1.94,3,0-.52-9.74-5.6-17.91-13-24-1.49-1.22-3.62.89-2.13,2.12Z"/><path class="cls-9" d="M1255.53,195a145,145,0,0,1-.25,16.55c-.14,1.93,2.86,1.92,3,0a145,145,0,0,0,.25-16.55c-.08-1.92-3.08-1.93-3,0Z"/><path class="cls-9" d="M1245.1,193.81q-2.4,10.88-4.08,21.88c-.29,1.89,2.6,2.7,2.89.8q1.68-11,4.09-21.88c.41-1.88-2.48-2.68-2.9-.8Z"/><path class="cls-9" d="M1197.62,198.52c-8.06,4.6-14.71,11.14-18.19,19.85-.72,1.79,2.18,2.57,2.89.8,3.18-7.95,9.49-13.88,16.81-18.06a1.5,1.5,0,0,0-1.51-2.59Z"/><path class="cls-9" d="M1196,208.42a38.72,38.72,0,0,0,.41,9.25c.31,1.9,3.2,1.1,2.9-.79a35.24,35.24,0,0,1-.31-8.46c.16-1.93-2.84-1.92-3,0Z"/><path class="cls-9" d="M1106.83,231.12l-2.44,12.65c-.36,1.89,2.53,2.7,2.9.8l2.43-12.65c.36-1.89-2.53-2.7-2.89-.8Z"/><path class="cls-9" d="M1116.45,234.58a44,44,0,0,0,1.4,16.18,1.5,1.5,0,0,0,2.89-.8,41.57,41.57,0,0,1-1.29-15.38c.2-1.92-2.81-1.9-3,0Z"/><path class="cls-9" d="M1099.84,226.2c-4.11-.55-6.75,4.63-8.94,7.34-2.6,3.23-5.21,6.33-4.58,10.7.28,1.9,3.17,1.09,2.9-.8-.49-3.33,2.6-6.28,4.51-8.65,1.37-1.69,3.6-5.92,6.11-5.59,1.91.25,1.89-2.75,0-3Z"/><path class="cls-9" d="M1194.56,237.4c4.74.91,11.24,4.61,14,8.64s3.07,9.67,4,14.33c.36,1.89,3.26,1.09,2.9-.8-1-5.37-1.42-11.81-5-16.19a28.32,28.32,0,0,0-15-8.87c-1.89-.36-2.69,2.53-.8,2.89Z"/><path class="cls-9" d="M1193.87,244.48a12.47,12.47,0,0,1,3.13,9.33c-.16,1.92,2.85,1.91,3,0a15.51,15.51,0,0,0-4-11.45c-1.25-1.48-3.37.65-2.12,2.12Z"/><path class="cls-9" d="M1185.23,242.38A52.43,52.43,0,0,0,1180,264.2c0,1.93,3,1.93,3,0a48.81,48.81,0,0,1,4.85-20.31c.83-1.73-1.76-3.26-2.59-1.51Z"/><path class="cls-9" d="M1264.17,254.14a33.72,33.72,0,0,1,3.14,17.74c-.18,1.92,2.82,1.91,3,0a36.72,36.72,0,0,0-3.55-19.26c-.82-1.74-3.41-.22-2.59,1.52Z"/><path class="cls-9" d="M1255,259.2a74.25,74.25,0,0,1-.27,11.93c-.2,1.92,2.8,1.91,3,0a74.25,74.25,0,0,0,.27-11.93c-.12-1.92-3.12-1.94-3,0Z"/><path class="cls-9" d="M1270.47,248.22c5.08.6,10.27,2.95,12.87,7.56a1.5,1.5,0,0,0,2.59-1.52c-3.15-5.58-9.32-8.31-15.46-9-1.92-.22-1.9,2.78,0,3Z"/><path class="cls-9" d="M1302.68,271.16c5.45,3.48,9.64,8.46,10.73,15,.32,1.9,3.21,1.09,2.89-.8-1.21-7.24-6.06-12.89-12.11-16.75-1.63-1.05-3.14,1.55-1.51,2.59Z"/><path class="cls-9" d="M1304.9,285v15.39a1.5,1.5,0,0,0,3,0V285a1.5,1.5,0,0,0-3,0Z"/><path class="cls-9" d="M1296.67,277.66a23.71,23.71,0,0,1-2.31,11.95c-.83,1.73,1.76,3.26,2.59,1.51a26.78,26.78,0,0,0,2.72-13.46c-.13-1.92-3.13-1.93-3,0Z"/><path class="cls-9" d="M1210.45,284.7c-7.77,5.28-12.89,13.39-11.56,23,.26,1.91,3.16,1.1,2.89-.8-1.13-8.17,3.66-15.18,10.18-19.61,1.59-1.08.09-3.68-1.51-2.59Z"/><path class="cls-9" d="M1217.31,294.6a30.91,30.91,0,0,0,1.43,16.63c.67,1.8,3.57,1,2.9-.79a28,28,0,0,1-1.44-15.05c.34-1.88-2.55-2.69-2.89-.79Z"/><path class="cls-9" d="M1227.71,289.88a39.07,39.07,0,0,1,6.73,15.12c.38,1.89,3.27,1.09,2.89-.8a41.14,41.14,0,0,0-7-15.83c-1.12-1.56-3.72-.06-2.59,1.51Z"/><path class="cls-9" d="M1131.41,272.63c-4,5.05-5.62,11-3.93,17.3a1.5,1.5,0,0,0,2.9-.79,16,16,0,0,1,3.15-14.39c1.18-1.51-.93-3.64-2.12-2.12Z"/><path class="cls-9" d="M1142,279.58c-1.29,7.78-.77,15.67,7.4,19.16,1.76.75,3.29-1.83,1.52-2.59-6.89-2.94-7.11-9.22-6-15.77.32-1.89-2.57-2.7-2.89-.8Z"/><path class="cls-9" d="M1152.25,273.51a23.61,23.61,0,0,1,3.66,14.92c-.17,1.92,2.83,1.91,3,0a26.42,26.42,0,0,0-4.07-16.43c-1-1.64-3.61-.14-2.59,1.51Z"/><path class="cls-9" d="M1081.49,281.6c-3.12.48-4.42,2.87-5.13,5.71a48.61,48.61,0,0,0-1.08,14.58c.12,1.92,3.12,1.93,3,0-.24-3.86-1.25-16.6,4-17.39,1.9-.29,1.09-3.19-.8-2.9Z"/><path class="cls-9" d="M1088.89,296.54c-1.47,5.46,0,10.64,3.46,15,1.2,1.51,3.31-.63,2.12-2.13a13.37,13.37,0,0,1-2.68-12.1,1.5,1.5,0,0,0-2.9-.79Z"/><path class="cls-9" d="M1100.51,289c3.59,3.51,5.9,7.79,6,12.88a1.5,1.5,0,0,0,3,0,21.19,21.19,0,0,0-6.82-15c-1.38-1.35-3.51.77-2.13,2.13Z"/><path class="cls-9" d="M1265.77,312.69a156.1,156.1,0,0,1,1.73,18.06c.07,1.92,3.08,1.93,3,0a160.79,160.79,0,0,0-1.84-18.85c-.3-1.91-3.19-1.1-2.89.79Z"/><path class="cls-9" d="M1277.17,321.51l1.19,19.62c.12,1.92,3.12,1.93,3,0l-1.19-19.62c-.11-1.91-3.11-1.93-3,0Z"/><path class="cls-9" d="M1283.18,314.93c4.83,2.13,9.07,5.33,11.6,10.05.91,1.7,3.5.19,2.59-1.51a25.87,25.87,0,0,0-12.67-11.13c-1.75-.78-3.28,1.81-1.52,2.59Z"/><path class="cls-9" d="M1161.08,311a11.57,11.57,0,0,0-9.75,4.3c-2.6,3.37-2.33,7.63-1.8,11.62.24,1.89,3.25,1.91,3,0-.4-3-.94-6.48.74-9.19a8.58,8.58,0,0,1,7.81-3.73c1.93.09,1.93-2.91,0-3Z"/><path class="cls-9" d="M1168.37,323.45a38.33,38.33,0,0,0,.79,13.87c.45,1.88,3.34,1.09,2.89-.79a36.22,36.22,0,0,1-.68-13.08c.24-1.91-2.76-1.89-3,0Z"/><path class="cls-9" d="M1176.46,316.37a13.26,13.26,0,0,1,4.65,9.38c.06,1.92,3.06,1.93,3,0a16.29,16.29,0,0,0-5.53-11.5c-1.41-1.31-3.54.81-2.12,2.12Z"/><path class="cls-9" d="M1197,136.66c-6-.39-12.88-.72-17.57,3.74-1.4,1.34.73,3.46,2.13,2.13,4-3.83,10.34-3.2,15.44-2.87,1.92.12,1.92-2.88,0-3Z"/><path class="cls-9" d="M1197.57,143q-.27,8.28.15,16.55c.1,1.92,3.1,1.93,3,0q-.42-8.28-.15-16.55c.06-1.93-2.94-1.93-3,0Z"/><path class="cls-9" d="M1207.81,146.89l1.65,4.59c.65,1.8,3.55,1,2.9-.8l-1.66-4.59c-.65-1.8-3.55-1-2.89.8Z"/><path class="cls-9" d="M1302,230.43c6,1.66,11.53,4.63,15.58,9.48,1.24,1.49,3.35-.64,2.12-2.12-4.36-5.22-10.41-8.47-16.9-10.25a1.5,1.5,0,0,0-.8,2.89Z"/><path class="cls-9" d="M1152.27,224.57c-5.14.23-11.11,3-12.3,8.44-.42,1.89,2.48,2.69,2.89.8.9-4.15,5.56-6.07,9.41-6.24,1.92-.09,1.93-3.09,0-3Z"/><path class="cls-9" d="M1091.16,256.89c-6.59-.08-15.91,1.06-18.22,8.47-.57,1.85,2.32,2.64,2.89.8,1.84-5.9,10.32-6.33,15.33-6.27,1.93,0,1.93-3,0-3Z"/><path class="cls-9" d="M1228,230a38.8,38.8,0,0,1,16.16,9.46,1.5,1.5,0,0,0,2.13-2.12,42.13,42.13,0,0,0-17.5-10.23c-1.84-.58-2.63,2.32-.79,2.89Z"/><path class="cls-9" d="M1213.9,183.33c1.58.07,6.71,0,6.89,2.41.14,1.91,3.14,1.93,3,0-.36-4.75-6.23-5.25-9.89-5.41-1.93-.08-1.92,2.92,0,3Z"/><path class="cls-9" d="M1238.36,266c-6.18-1.72-7.83,7.15-9.14,11.27-.59,1.85,2.31,2.64,2.89.8s1.22-3.68,1.91-5.5c.6-1.59,1.26-4.32,3.54-3.68a1.5,1.5,0,0,0,.8-2.89Z"/><path class="cls-9" d="M1318.56,311.19c3.89,1.81,7.43,4.66,8.92,8.82.64,1.8,3.54,1,2.89-.8-1.75-4.9-5.66-8.45-10.3-10.61-1.74-.81-3.26,1.77-1.51,2.59Z"/><path class="cls-9" d="M1233.15,319.48a26.13,26.13,0,0,0-1.5,14.34c.32,1.9,3.22,1.09,2.9-.8a23.17,23.17,0,0,1,1.5-12.74c.71-1.79-2.19-2.57-2.9-.8Z"/><path class="cls-8" d="M479.77,326.4c-4,51.44,79.73,27.38,150.52,20.94,72.18-6.57,163.8-3.23,137.93-51.1-21.25-39.34-90.06-87.05-158-81.61S483,284.6,479.77,326.4Z"/><path class="cls-9" d="M607,216.73c10.74-1.21,21.67-2.47,32.4-.53l.4-2.95-3,.32c-1.9.19-1.92,3.2,0,3l3-.32c1.53-.15,2.2-2.62.4-2.94-11-2-22.16-.83-33.2.42-1.9.22-1.92,3.22,0,3Z"/><path class="cls-9" d="M606,214.1c-12.32.07-24.64,2.23-35.85,7.47-1.75.82-.22,3.41,1.52,2.59,10.71-5,22.56-7,34.33-7.06a1.5,1.5,0,0,0,0-3Z"/><path class="cls-9" d="M588.49,217.64c-9.85.39-19.42,4.27-28.76,7.1-1.84.56-1.06,3.46.8,2.89,9.05-2.74,18.42-6.61,28-7,1.92-.08,1.93-3.08,0-3Z"/><path class="cls-9" d="M575.26,223.58A88,88,0,0,0,561,224.86c-4.54.92-8.46,3-12.58,5.06-1.73.85-.21,3.44,1.51,2.59,3.87-1.92,7.6-3.89,11.86-4.75a81.77,81.77,0,0,1,13.44-1.18c1.92-.07,1.93-3.07,0-3Z"/><path class="cls-9" d="M566.37,226.39c-8.9.66-19.77,1.46-26.53,8-1.38,1.34.74,3.46,2.12,2.12,6.09-5.92,16.42-6.56,24.41-7.15,1.91-.14,1.93-3.14,0-3Z"/><path class="cls-9" d="M560.67,231.13c-9.22.37-18.42,3.24-27.4,5.23-1.88.42-1.09,3.31.8,2.9,8.68-1.93,17.7-4.77,26.6-5.13,1.93-.08,1.94-3.08,0-3Z"/><path class="cls-9" d="M551.81,235.49c-7.06,1.95-14,4.4-21,6.62-1.84.59-1.05,3.48.79,2.89,7-2.22,13.94-4.67,21-6.61a1.51,1.51,0,0,0-.8-2.9Z"/><path class="cls-9" d="M552,239.08a159.23,159.23,0,0,0-31.41,7.62c-1.8.65-1,3.55.8,2.89A159.23,159.23,0,0,1,552.83,242c1.9-.27,1.09-3.16-.8-2.89Z"/><path class="cls-9" d="M537.38,244.81a340.33,340.33,0,0,0-32.67,12.52c-1.76.79-.23,3.37,1.52,2.59a330.41,330.41,0,0,1,31.95-12.21c1.82-.6,1-3.5-.8-2.9Z"/><path class="cls-9" d="M534.94,248.49q-13.35,5.07-26.46,10.71c-1.77.76-.25,3.35,1.51,2.59q12.76-5.48,25.75-10.41c1.78-.68,1-3.58-.8-2.89Z"/><path class="cls-9" d="M535.85,254.39c-8.7,1.8-17.31,6.1-25.6,9.24-1.78.68-1,3.58.8,2.9,8.29-3.15,16.9-7.45,25.6-9.25,1.89-.39,1.09-3.28-.8-2.89Z"/><path class="cls-9" d="M521.46,262.94c-8.25.69-16.86,5.18-24.14,8.93-1.72.88-.2,3.47,1.51,2.59,6.74-3.47,14.95-7.88,22.63-8.52,1.91-.15,1.92-3.16,0-3Z"/><path class="cls-9" d="M515.74,270.2c-7.67,1.11-15.33,5.75-22.14,9.27-1.72.88-.2,3.47,1.51,2.59,6.55-3.39,14.06-7.9,21.43-9,1.91-.27,1.1-3.16-.8-2.89Z"/><path class="cls-9" d="M510.64,274.68c-3.42,1-7.45,3-9.74,5.87-1.48,1.84-2.43,3.66-4.31,5.17-2.57,2.07-5.3,4-8,5.93-1.53,1.13,0,3.74,1.52,2.59,3.48-2.58,7.7-5,10.65-8.18,1.18-1.3,1.8-3,3-4.26a19.45,19.45,0,0,1,7.62-4.22c1.85-.55,1.06-3.45-.8-2.9Z"/><path class="cls-9" d="M506.92,286.26a228.1,228.1,0,0,1-25.26,12.15c-1.76.72-1,3.62.8,2.89a235.41,235.41,0,0,0,26-12.45,1.5,1.5,0,0,0-1.52-2.59Z"/><path class="cls-9" d="M501.7,296.05a71.22,71.22,0,0,0-20.61,6.39c-1.73.86-.22,3.45,1.51,2.59a68.93,68.93,0,0,1,19.9-6.09c1.9-.31,1.09-3.2-.8-2.89Z"/><path class="cls-9" d="M491.07,301.53a21.74,21.74,0,0,0-3.18,2.56,17,17,0,0,1-4.55,2.18,17.05,17.05,0,0,0-6.54,4.51c-1.3,1.42.81,3.55,2.12,2.12,2.22-2.41,4.62-3.44,7.59-4.67,2.46-1,3.83-2.91,6.07-4.11,1.71-.91.19-3.5-1.51-2.59Z"/><path class="cls-9" d="M628.52,217.77c9.41-.07,18.83-2.69,28.23-1.19,1.89.3,2.7-2.59.8-2.9-9.72-1.55-19.31,1-29,1.09a1.5,1.5,0,0,0,0,3Z"/><path class="cls-9" d="M644.37,220.49a47.22,47.22,0,0,1,7.69-.64c2.4.08,4.67.88,7,1,4.91.19,9.87-.44,14.81-.24,1.93.08,1.93-2.92,0-3-5.89-.23-11.9.55-17.71-.27a44.48,44.48,0,0,0-12.62.28c-1.91.26-1.1,3.15.79,2.89Z"/><path class="cls-9" d="M659.45,224c5.13-.33,9.79-.79,14.91,0,4.39.65,8.77,1.34,13.16,2,1.89.29,2.7-2.6.8-2.89-4.94-.76-9.87-1.56-14.82-2.26-4.76-.67-9.28-.13-14,.18-1.92.12-1.93,3.12,0,3Z"/><path class="cls-9" d="M673.62,229.63c7.13-.82,14.23-1.55,21.41-.95,1.92.16,1.91-2.84,0-3-7.18-.6-14.29.13-21.41.95-1.9.21-1.92,3.22,0,3Z"/><path class="cls-9" d="M682.12,233c10.37-1.11,22.93-2.72,33.09.29,1.85.55,2.64-2.35.79-2.9-10.49-3.1-23.18-1.54-33.88-.39-1.9.21-1.92,3.21,0,3Z"/><path class="cls-9" d="M688.85,235.64a178.28,178.28,0,0,1,27.57,4c1.88.43,2.68-2.46.8-2.9a184.78,184.78,0,0,0-28.37-4.13c-1.93-.14-1.92,2.87,0,3Z"/><path class="cls-9" d="M692.85,240.25c5.26.57,10.51,1.14,15.77,1.75s11.24.76,16.31,2.75c1.8.7,2.58-2.2.8-2.9-4.73-1.85-10.26-2-15.27-2.63-5.86-.7-11.74-1.34-17.61-2-1.92-.21-1.9,2.79,0,3Z"/><path class="cls-9" d="M703.81,244.67c9.41,2.2,19.13,4.26,27.64,9a1.5,1.5,0,0,0,1.52-2.59c-8.75-4.88-18.69-7-28.36-9.3-1.88-.44-2.68,2.45-.8,2.89Z"/><path class="cls-9" d="M719.76,253.26c7.06-.14,14.44,2.35,20.41,6,1.65,1,3.16-1.58,1.52-2.59-6.43-4-14.34-6.6-21.93-6.45-1.93,0-1.93,3,0,3Z"/><path class="cls-9" d="M728.63,259.31a165.71,165.71,0,0,1,22.8,8.12c1.75.78,3.28-1.81,1.52-2.59a169.32,169.32,0,0,0-23.52-8.42,1.5,1.5,0,0,0-.8,2.89Z"/><path class="cls-9" d="M732.36,265.57A140.38,140.38,0,0,1,759,276.22c1.7.91,3.22-1.68,1.51-2.59a143.89,143.89,0,0,0-27.37-10.95c-1.85-.55-2.65,2.35-.79,2.89Z"/><path class="cls-9" d="M742.81,274a67.78,67.78,0,0,1,20.41,11.45c1.46,1.24,3.6-.87,2.12-2.13a72.23,72.23,0,0,0-21.73-12.21c-1.81-.68-2.59,2.21-.8,2.89Z"/><path class="cls-9" d="M751.12,283.08c7.63,2,14,7.11,19.31,12.82,1.31,1.42,3.43-.71,2.12-2.13-5.61-6.06-12.52-11.49-20.64-13.58a1.5,1.5,0,0,0-.79,2.89Z"/><path class="cls-9" d="M756.78,292.9c7.42,3.41,15.81,6.77,21.15,13.2,1.23,1.48,3.35-.65,2.12-2.13-5.52-6.64-14.1-10.14-21.75-13.66-1.74-.8-3.27,1.79-1.52,2.59Z"/><path class="cls-9" d="M762.21,300.22c1.43,2.4,3.57,4.09,5.54,6a17.46,17.46,0,0,1,5,8.56c.43,1.88,3.33,1.08,2.89-.8a19.12,19.12,0,0,0-3.75-7.64c-2.17-2.72-5.31-4.65-7.1-7.67a1.5,1.5,0,0,0-2.59,1.52Z"/><path class="cls-9" d="M759.76,312.76c2.17,2.41,8.79,8.61,6.74,12.24a1.5,1.5,0,0,0,2.59,1.52c3.16-5.61-3.75-12-7.21-15.88-1.29-1.44-3.41.69-2.12,2.12Z"/><path class="cls-9" d="M753.84,318.83c1,2.34-.9,5.84-1.71,8.05-.9,2.44-1.83,4.86-2.78,7.28-.71,1.79,2.19,2.57,2.89.79,1.32-3.33,2.6-6.69,3.79-10.07,1-2.68,1.6-4.87.4-7.56-.78-1.76-3.37-.24-2.59,1.51Z"/><path class="cls-9" d="M491.2,307.48c-7.7,2.33-15.5,5.8-20.85,12-1.25,1.45.86,3.58,2.13,2.12,5-5.84,12.28-9.06,19.52-11.24,1.84-.56,1.06-3.46-.8-2.9Z"/><path class="cls-9" d="M488.67,315.71c-3.52,1.37-7,2.82-10.41,4.44a15.44,15.44,0,0,0-3.89,2.22c-1.06,1-1.55,2.31-2.64,3.26-1.46,1.26.67,3.38,2.12,2.12a12.72,12.72,0,0,0,1.77-2.17,9.93,9.93,0,0,1,4.15-2.84c3.18-1.51,6.42-2.86,9.69-4.14,1.78-.7,1-3.6-.79-2.89Z"/><path class="cls-9" d="M487.56,322.89c-.87,2.5-5.3,3.89-7.45,5-2.4,1.21-5,2.51-6.46,4.87-1,1.66,1.58,3.17,2.59,1.52,3.11-5.11,12.09-4.42,14.21-10.57.64-1.82-2.26-2.61-2.89-.79Z"/><path class="cls-9" d="M489.92,329.64c-2.26,2.54-6,3.18-8.48,5.6-2.1,2.07-3,4.75-3.69,7.56-.43,1.88,2.46,2.68,2.89.79.71-3.06,1.77-5.71,4.52-7.49,2.28-1.48,5-2.26,6.88-4.34,1.28-1.44-.84-3.57-2.12-2.12Z"/><path class="cls-9" d="M491,338.43c-4.22,3.42-5.87,7.9-6.77,13.1-.33,1.89,2.56,2.7,2.89.8.82-4.73,2.15-8.66,6-11.78,1.5-1.22-.63-3.33-2.12-2.12Z"/><path class="cls-9" d="M492.32,345.6,492,357.66c-.06,1.93,2.94,1.93,3,0l.37-12.06c.06-1.93-2.94-1.93-3,0Z"/><path class="cls-9" d="M501.05,349.85q1,7.77,2.32,15.47a1.51,1.51,0,0,0,2.21.9l.83-.6c1.55-1.12.06-3.72-1.51-2.59l-.84.6,2.21.9c-.85-4.88-1.6-9.77-2.22-14.68-.24-1.89-3.24-1.91-3,0Z"/><path class="cls-9" d="M512.08,352a25.08,25.08,0,0,0,1.79,9.49c.7,1.77,3.61,1,2.89-.8a22.9,22.9,0,0,1-1.68-8.69,1.5,1.5,0,0,0-3,0Z"/><path class="cls-9" d="M523.8,353.93a38.91,38.91,0,0,0,2.72,11.74c.71,1.77,3.61,1,2.89-.79a36.57,36.57,0,0,1-2.61-10.95c-.14-1.91-3.14-1.93-3,0Z"/><path class="cls-9" d="M535.17,354.14a52.55,52.55,0,0,0,4.6,10.61,1.5,1.5,0,0,0,2.59-1.51,48.52,48.52,0,0,1-4.29-9.9c-.57-1.84-3.46-1.06-2.9.8Z"/><path class="cls-9" d="M547.33,354.73l3.83,7.68c.86,1.73,3.44.21,2.59-1.51l-3.83-7.69c-.86-1.73-3.45-.21-2.59,1.52Z"/><path class="cls-9" d="M558.45,353.76a14.16,14.16,0,0,0,2.62,8.35c1.09,1.58,3.69.08,2.6-1.52a11.3,11.3,0,0,1-2.22-6.83c0-1.94-3-1.94-3,0Z"/><path class="cls-9" d="M570.85,350.8l2.42,13c.35,1.89,3.25,1.09,2.89-.8l-2.41-13c-.36-1.89-3.25-1.09-2.9.8Z"/><path class="cls-9" d="M581.24,348.79l1.2,8.4c.27,1.91,3.16,1.1,2.89-.79l-1.2-8.41c-.27-1.9-3.16-1.09-2.89.8Z"/><path class="cls-9" d="M596.83,348,598,356c.27,1.9,3.16,1.09,2.89-.8l-1.13-7.93c-.28-1.91-3.17-1.1-2.9.79Z"/><path class="cls-9" d="M614.71,347.05l1.3,9.11c.27,1.9,3.16,1.09,2.89-.8l-1.3-9.1c-.27-1.91-3.16-1.1-2.89.79Z"/><path class="cls-9" d="M742.16,329.6c-.13,4.4,2.53,8.45-2.14,11.33-1.65,1-.14,3.6,1.51,2.59a8.61,8.61,0,0,0,4.19-5.16c.73-2.94-.65-5.81-.56-8.76.06-1.93-2.94-1.93-3,0Z"/><path class="cls-9" d="M735,331.75c1.08,5-4.59,8.54-8.37,10.34-1.74.83-.22,3.42,1.51,2.59,5.23-2.49,11.16-7.2,9.75-13.73-.41-1.88-3.3-1.08-2.89.8Z"/><path class="cls-9" d="M715.2,334c2.13,3.77-.27,7.19-3.25,9.59-1.5,1.21.63,3.33,2.12,2.12,4.09-3.3,6.51-8.28,3.72-13.22A1.5,1.5,0,0,0,715.2,334Z"/><path class="cls-9" d="M701,335c1.7,4.07.31,7.74-2.56,10.87-1.3,1.42.81,3.55,2.12,2.12,3.51-3.84,5.44-8.75,3.33-13.78-.73-1.76-3.64-1-2.89.79Z"/><path class="cls-9" d="M678,338a62.91,62.91,0,0,1,1.28,11.77c0,1.93,3,1.94,3,0a66.36,66.36,0,0,0-1.39-12.56c-.39-1.89-3.28-1.09-2.89.79Z"/><path class="cls-9" d="M664.15,339.87l-1.11,10c-.21,1.91,2.79,1.9,3,0l1.11-10c.21-1.92-2.79-1.9-3,0Z"/><path class="cls-9" d="M647.05,340.69l1.4,9.8c.28,1.9,3.17,1.1,2.9-.8l-1.4-9.8c-.27-1.9-3.17-1.09-2.9.8Z"/><path class="cls-9" d="M626.28,344l1.4,9.81c.27,1.9,3.16,1.09,2.89-.8l-1.4-9.8c-.27-1.91-3.16-1.1-2.89.79Z"/><path class="cls-9" d="M637.13,235.13c5,1.4,12.6,4.39,13.28,10.45.22,1.9,3.22,1.92,3,0-.86-7.65-8.9-11.5-15.49-13.34a1.5,1.5,0,0,0-.79,2.89Z"/><path class="cls-9" d="M674.08,249c4.28,1.67,5.37,4.78,5.31,9.14,0,1.93,3,1.93,3,0,0-2.74-.1-5.54-1.72-7.87a12.07,12.07,0,0,0-5.79-4.16c-1.8-.7-2.58,2.2-.8,2.89Z"/><path class="cls-9" d="M634.19,239.2c1.93,2.86.35,5.58-2.12,7.48-1.5,1.16,0,3.77,1.52,2.59,3.67-2.83,6.11-7.26,3.19-11.58-1.08-1.59-3.68-.09-2.59,1.51Z"/><path class="cls-9" d="M670.27,251.47c1,2.72-1.35,5.34-2.94,7.33-1.19,1.5.92,3.63,2.12,2.12,2.28-2.85,5.17-6.38,3.72-10.25-.68-1.79-3.58-1-2.9.8Z"/><path class="cls-9" d="M680.23,247.2c4.15-.81,8.63,1.83,12.07,3.87a1.5,1.5,0,0,0,1.52-2.59c-4.26-2.51-9.31-5.16-14.39-4.17-1.89.36-1.09,3.26.8,2.89Z"/><path class="cls-9" d="M585.89,227.07c-7,1.61-14.82,4.61-18.74,11-1,1.65,1.58,3.16,2.59,1.51,3.49-5.68,10.8-8.18,16.94-9.61,1.88-.44,1.09-3.33-.79-2.89Z"/><path class="cls-9" d="M584.35,230.8c-2.5,1.71-4.75,3.91-5.64,6.89-.55,1.86,2.35,2.65,2.9.8a10,10,0,0,1,4.26-5.1c1.58-1.09.08-3.69-1.52-2.59Z"/><path class="cls-9" d="M588.69,232.75l.66,4.67a1.53,1.53,0,0,0,1.85,1.05,1.55,1.55,0,0,0,1-1.85l-.67-4.67a1.51,1.51,0,0,0-1.85-1,1.53,1.53,0,0,0-1,1.84Z"/><path class="cls-9" d="M563.62,253.27c-5.37,3.71-10.44,9.12-10,16.11.14,1.92,3.14,1.93,3,0-.41-5.9,3.93-10.39,8.46-13.52,1.58-1.09.08-3.69-1.51-2.59Z"/><path class="cls-9" d="M566.18,259.18a64.52,64.52,0,0,0,1.71,10.42c.47,1.87,3.37,1.08,2.9-.8a59.27,59.27,0,0,1-1.61-9.62c-.15-1.92-3.15-1.93-3,0Z"/><path class="cls-9" d="M575.64,258.74q3,6.19,5.37,12.62c.67,1.8,3.57,1,2.9-.8q-2.53-6.8-5.68-13.34c-.83-1.74-3.42-.22-2.59,1.52Z"/><path class="cls-9" d="M619.84,259.4c6,1.77,12.37,4.45,16.3,9.56,1.16,1.51,3.77,0,2.59-1.51-4.46-5.8-11.23-8.92-18.1-10.94-1.85-.55-2.64,2.34-.79,2.89Z"/><path class="cls-9" d="M620.29,263.51a14,14,0,0,1,.4,5c-.18,1.92,2.82,1.91,3,0a16.45,16.45,0,0,0-.51-5.8,1.5,1.5,0,0,0-2.89.8Z"/><path class="cls-9" d="M701.77,271.53,705,279c.77,1.76,3.35.24,2.59-1.52l-3.26-7.5c-.77-1.77-3.35-.24-2.59,1.51Z"/><path class="cls-9" d="M693.28,273.72a16.43,16.43,0,0,1,.18,8.88c-.47,1.87,2.42,2.67,2.89.79a19.59,19.59,0,0,0-.17-10.47c-.55-1.84-3.44-1.06-2.9.8Z"/><path class="cls-9" d="M710.63,269.3c1.91-.32,4.26,2,5.74,3s4.63,2.43,4.49,4.49,2.86,1.92,3,0c.22-3.19-3-5-5.27-6.6-2.7-1.84-5.29-4.38-8.76-3.78-1.9.33-1.09,3.22.8,2.89Z"/><path class="cls-9" d="M626,278.19a28.13,28.13,0,0,0-11.64,5.63c-3.59,3-3.67,7.43-4.24,11.74-.25,1.91,2.75,1.89,3,0,.59-4.43.72-8,4.8-10.58a26.91,26.91,0,0,1,8.88-3.9c1.89-.36,1.09-3.26-.8-2.89Z"/><path class="cls-9" d="M626,283.1c-2.16,2.15-3.49,5-2.66,8a1.5,1.5,0,0,0,2.89-.8c-.55-2,.49-3.71,1.89-5.1A1.5,1.5,0,0,0,626,283.1Z"/><path class="cls-9" d="M633.46,284.45a23.16,23.16,0,0,1,5.93,11.76c.32,1.9,3.21,1.09,2.9-.8a26.1,26.1,0,0,0-6.71-13.08c-1.29-1.44-3.4.69-2.12,2.12Z"/><path class="cls-9" d="M564,294.47a16.79,16.79,0,0,0-1.51,12.62,1.5,1.5,0,0,0,2.89-.8A13.6,13.6,0,0,1,566.55,296c.88-1.71-1.71-3.23-2.6-1.51Z"/><path class="cls-9" d="M572.21,298.12a32.89,32.89,0,0,0,1.32,7.62c.56,1.84,3.45,1.06,2.9-.8a28.23,28.23,0,0,1-1.22-6.82c-.11-1.92-3.11-1.93-3,0Z"/><path class="cls-9" d="M559.83,290.1c-4.68.76-10.07,2.53-12.77,6.73-1,1.63,1.55,3.13,2.59,1.51,2.24-3.48,7.15-4.72,11-5.35,1.9-.31,1.09-3.2-.8-2.89Z"/><path class="cls-9" d="M532.17,306.63c-4.55,2.49-9,6.25-9.52,11.73-.18,1.92,2.82,1.91,3,0,.41-4.29,4.58-7.24,8-9.14,1.69-.92.18-3.52-1.52-2.59Z"/><path class="cls-9" d="M530.15,317.7l1.34,9.34c.27,1.9,3.16,1.09,2.89-.8l-1.33-9.33c-.28-1.91-3.17-1.1-2.9.79Z"/><path class="cls-9" d="M536.79,312.29a13.59,13.59,0,0,0,3.77,8.59c1.29,1.44,3.41-.69,2.12-2.13a10.2,10.2,0,0,1-2.89-6.46c-.09-1.93-3.09-1.94-3,0Z"/><path class="cls-9" d="M615.9,312.6c4.62,1.64,10.82,5,10.41,10.71-.14,1.93,2.86,1.92,3,0,.51-7.19-6.75-11.52-12.61-13.6-1.82-.65-2.61,2.24-.8,2.89Z"/><path class="cls-9" d="M608.93,317.55a11.37,11.37,0,0,1,.09,8.92c-.69,1.8,2.21,2.58,2.89.79a13.77,13.77,0,0,0-.09-10.51c-.74-1.75-3.64-1-2.89.8Z"/><path class="cls-9" d="M599.69,313.26a21.44,21.44,0,0,0-5.16,10.54c-.28,1.89,2.61,2.7,2.9.8a18.39,18.39,0,0,1,4.39-9.22c1.23-1.47-.88-3.6-2.13-2.12Z"/><path class="cls-9" d="M684.45,299.38c2.56,1.78,4.66,4.4,3.84,7.67-.48,1.87,2.41,2.67,2.89.8,1.18-4.67-1.51-8.48-5.21-11.06-1.59-1.11-3.09,1.49-1.52,2.59Z"/><path class="cls-9" d="M674.57,303.08c.73,1.84,1.72,4,.79,6a7.23,7.23,0,0,1-4.19,3.25c-1.79.68-1,3.58.8,2.89,2.4-.91,4.74-2.27,6-4.62,1.43-2.72.57-5.62-.48-8.3-.7-1.77-3.6-1-2.9.8Z"/><path class="cls-9" d="M665.11,298.26a12.65,12.65,0,0,0-2.23,10.94,1.5,1.5,0,0,0,2.89-.79c-.88-3.18.07-6,1.93-8.63,1.12-1.58-1.48-3.08-2.59-1.52Z"/><path class="cls-9" d="M731,301.67c3.83,0,4.53,6.74,4.68,9.57.1,1.92,3.1,1.93,3,0-.25-4.79-1.61-12.55-7.68-12.57a1.5,1.5,0,0,0,0,3Z"/><path class="cls-9" d="M723.38,310c1.36,2.42.48,4.71-1.32,6.63-1.32,1.4.8,3.53,2.12,2.12,2.72-2.91,3.82-6.65,1.79-10.27a1.5,1.5,0,0,0-2.59,1.52Z"/><path class="cls-9" d="M712.85,303.48c-3,2.45-5.44,5.94-4.91,10,.25,1.89,3.25,1.92,3,0-.43-3.31,1.6-5.85,4-7.85,1.49-1.23-.64-3.34-2.12-2.12Z"/><path class="cls-9" d="M567.3,331.1a65.84,65.84,0,0,0,0,11.32c.16,1.91,3.17,1.92,3,0a65.84,65.84,0,0,1,0-11.32c.16-1.93-2.84-1.92-3,0Z"/><path class="cls-9" d="M557.91,337.51l.64,12c.11,1.92,3.11,1.93,3,0l-.64-12c-.1-1.92-3.1-1.94-3,0Z"/><path class="cls-9" d="M553.65,331.65c-4.18,1.67-8.37,4-10.76,8a1.5,1.5,0,0,0,2.59,1.51c2-3.24,5.54-5.22,9-6.59,1.77-.71,1-3.62-.8-2.9Z"/><path class="cls-9" d="M663.14,325.14a10.63,10.63,0,0,1,6.69,1.13c2,1.23,2.11,3.26,2,5.41-.09,1.93,2.91,1.92,3,0,.14-2.86-.25-5.59-2.66-7.44a12.64,12.64,0,0,0-9-2.1c-1.89.22-1.92,3.23,0,3Z"/><path class="cls-9" d="M654.84,331.34a14.12,14.12,0,0,1,.51,7.43c-.38,1.88,2.51,2.69,2.89.8a17.21,17.21,0,0,0-.51-9c-.6-1.82-3.5-1-2.89.8Z"/><path class="cls-9" d="M647.72,325.49c-2.38,1.85-4.39,4.58-4.06,7.75.2,1.9,3.2,1.92,3,0-.25-2.44,1.38-4.22,3.18-5.63,1.52-1.19-.61-3.3-2.12-2.12Z"/><path class="cls-9" d="M616.15,221.94c4.49-.56,10-1.57,14.19.63,1.71.89,3.23-1.7,1.52-2.59-4.79-2.5-10.57-1.68-15.71-1-1.89.24-1.92,3.24,0,3Z"/><path class="cls-9" d="M613.25,223.94a78.62,78.62,0,0,1,1.25,9.65c.12,1.92,3.12,1.93,3,0a85.6,85.6,0,0,0-1.36-10.45c-.36-1.89-3.25-1.09-2.89.8Z"/><path class="cls-9" d="M604.5,226l-1.07,2.91a1.5,1.5,0,0,0,1.05,1.84,1.52,1.52,0,0,0,1.84-1.05l1.08-2.9a1.5,1.5,0,0,0-2.9-.8Z"/><path class="cls-9" d="M529.92,281.61c-5.2,1.42-10.4,3.62-14.24,7.52-1.36,1.38.76,3.51,2.12,2.13,3.48-3.55,8.2-5.47,12.92-6.76a1.5,1.5,0,0,0-.8-2.89Z"/><path class="cls-9" d="M663.49,272.1c2.72-.12,7.59,0,9,2.94.85,1.74,3.43.22,2.59-1.51-1.9-3.93-7.77-4.6-11.58-4.43-1.92.09-1.93,3.09,0,3Z"/><path class="cls-9" d="M720.61,287.37c3.85-.34,11.73-1.31,14.25,2.53,1,1.61,3.65.11,2.59-1.52-3.32-5.05-11.67-4.47-16.84-4-1.91.16-1.93,3.16,0,3Z"/><path class="cls-9" d="M595.62,276.1a40.75,40.75,0,0,0-14.76,7.55c-1.48,1.25.65,3.37,2.12,2.13A37,37,0,0,1,596.42,279c1.84-.56,1.06-3.45-.8-2.89Z"/><path class="cls-9" d="M604.88,246.65c-2.65.29-8.68.64-8.62,4.46,0,1.93,3,1.94,3,0,0-.46,2.13-.92,2.42-1a26.54,26.54,0,0,1,3.2-.47c1.9-.21,1.92-3.21,0-3Z"/><path class="cls-9" d="M591.31,303.22c1.47-.42,2.34.25,3.19,1.38s1.7,2.38,2.48,3.62c1,1.63,3.63.13,2.59-1.51-2.07-3.28-4.47-7.71-9.06-6.38a1.5,1.5,0,0,0,.8,2.89Z"/><path class="cls-9" d="M521.89,331.9c-3.63,1.52-7.33,3.75-8.75,7.63-.66,1.81,2.23,2.6,2.89.79,1-2.75,4.12-4.47,6.65-5.53,1.76-.73,1-3.63-.79-2.89Z"/><path class="cls-9" d="M597.15,334.14a9.86,9.86,0,0,1,2.3,7.35c-.2,1.92,2.8,1.9,3,0a12.26,12.26,0,0,0-2.71-8.87c-1.16-1.51-3.77,0-2.59,1.52Z"/><polygon class="cls-10" points="1507.82 1079.27 379.54 1079.27 255.17 966.95 1642.44 966.95 1507.82 1079.27"/><ellipse class="cls-11" cx="960.99" cy="836.87" rx="753.26" ry="201.12"/><ellipse class="cls-12" cx="287.86" cy="810.95" rx="54.49" ry="40.8"/><ellipse class="cls-12" cx="343" cy="780.23" rx="54.49" ry="40.8"/><ellipse class="cls-12" cx="434.03" cy="756.23" rx="54.49" ry="40.8"/><ellipse class="cls-12" cx="1235.36" cy="709.19" rx="54.49" ry="40.8"/><ellipse class="cls-12" cx="1134.08" cy="700.55" rx="54.49" ry="40.8"/><ellipse class="cls-12" cx="1027.66" cy="689.03" rx="54.49" ry="40.8"/><ellipse class="cls-12" cx="926.37" cy="689.03" rx="54.49" ry="40.8"/><ellipse class="cls-12" cx="825.08" cy="689.03" rx="54.49" ry="40.8"/><ellipse class="cls-12" cx="722.51" cy="700.55" rx="54.49" ry="40.8"/><ellipse class="cls-12" cx="618.66" cy="709.19" rx="54.49" ry="40.8"/><ellipse class="cls-12" cx="522.5" cy="729.35" rx="54.49" ry="40.8"/><ellipse class="cls-12" cx="1541.79" cy="770.63" rx="54.49" ry="40.8"/><ellipse class="cls-12" cx="1449.48" cy="738.95" rx="54.49" ry="40.8"/><ellipse class="cls-12" cx="1341.78" cy="720.71" rx="54.49" ry="40.8"/><ellipse class="cls-12" cx="1596.93" cy="815.75" rx="54.49" ry="40.8"/><path class="cls-13" d="M1030.61,906.22l-106.86,29c-58.67,0-84-35.89-84-78.55l-32.55-36.59c-54.76-56,57.92-80.7,116.59-80.7l98,24.75c58.67,0,96.18,9.83,96.18,52.5V858C1117.91,900.69,1125.31,918.05,1030.61,906.22Z"/><path class="cls-14" d="M957.76,882.14,906.5,851.75c-20-7.09-48.73-21.12-47.44-46.08l33.33-25.92c24.36-18.24,37.68-12.53,57.72-5.43l43.57,29.43c20,7.09,46.93,17.47,37.45,32.48l-33.6,20.32C988.05,871.56,977.8,889.23,957.76,882.14Z"/><ellipse class="cls-15" cx="1654.62" cy="195.39" rx="131.42" ry="118.36"/><rect class="cls-16" x="1630.9" y="37.67" width="46.16" height="39.36"/><rect class="cls-16" x="1648.85" y="1.19" width="11.54" height="36.48"/><path class="cls-12" d="M1731,111.55c15.77,11.8,23.08,25.48,16.32,30.54s-12.15-10.05-27.92-21.86-36-15.84-29.2-20.9S1715.2,99.74,1731,111.55Z"/><path class="cls-17" d="M1599.59,193.37h-2.73q-6.69,0-11.09.25c-.45,0-.86,0-1.23,0a3.3,3.3,0,0,1-1.81-.48A1.36,1.36,0,0,1,1582,192a11.28,11.28,0,0,1,1.2-3.28,22,22,0,0,1,2-3.69,4.43,4.43,0,0,1,3.68-1.92c.44,0,1,0,1.67.08q5.91.42,7.63.38h1.51c2,0,3-.75,3-2.25v-2.72a34.6,34.6,0,0,0-.67-5.75,3.6,3.6,0,0,1-.11-.88q0-1.5,3.45-2.67c1.42-.44,3-.87,4.91-1.27a22,22,0,0,1,4-.61c1.53,0,2.29.55,2.29,1.63a8,8,0,0,1-.17,1,38.7,38.7,0,0,0-.11,4v7.26q.06,2.2,3.06,2.25h8.64c2.93,0,4.68,0,5.24-.08.78-.09,1.26-.13,1.45-.13,1.44,0,2.17.56,2.17,1.67a10.49,10.49,0,0,1-1,3.23,17.26,17.26,0,0,1-2,3.69,3.83,3.83,0,0,1-3.17,2l-8.86-.59h-2.57c-2.19-.11-3.21.65-3.06,2.3v.66a51.62,51.62,0,0,0,.56,6.84,9.61,9.61,0,0,1,.11,1.26c0,1.22-1.14,2.24-3.4,3q-1.85.63-5,1.38a24.81,24.81,0,0,1-3.93.75,2.43,2.43,0,0,1-1.64-.56,1.78,1.78,0,0,1-.64-1.4,7.63,7.63,0,0,1,.06-.88q.33-3.28.33-8.3v-2.79C1602.76,194.05,1601.74,193.29,1599.59,193.37Z"/><path class="cls-17" d="M1687.56,212.94h-37.94q-5,0-5-2.13a2.7,2.7,0,0,1,1.05-2c.71-.63,3-2.31,6.86-5q10.76-7.59,15.93-14.14,2.68-3.35,2.68-5.76a4,4,0,0,0-1.62-3.32,7,7,0,0,0-4.34-1.23,11.53,11.53,0,0,0-3.91.52,49.38,49.38,0,0,0-5.9,3.4,6.13,6.13,0,0,1-3.23.75,8.23,8.23,0,0,1-4.82-1.52c-1.47-1-2.2-2.12-2.2-3.32s.67-2.31,2-3.69a23.19,23.19,0,0,1,5.3-3.9,55.48,55.48,0,0,1,26.69-6.46q11.13,0,18.44,3.21a13.23,13.23,0,0,1,5.29,4.09,8.91,8.91,0,0,1,2,5.5q0,7.31-13.49,15.86-4.78,3-4.79,4.5a2.32,2.32,0,0,0,1.45,2,7,7,0,0,0,3.51.82,14.36,14.36,0,0,0,8.75-2.84,19.18,19.18,0,0,1,2.59-1.71,4.22,4.22,0,0,1,1.75-.29c3.27,0,4.91,2.08,4.91,6.26a14.22,14.22,0,0,1-1.59,6.34,17.43,17.43,0,0,1-4.32,5.55,9.55,9.55,0,0,1-6.35,2.5,4.85,4.85,0,0,1-2.23-.44,6.94,6.94,0,0,1-1.89-1.65,4.77,4.77,0,0,0-2-1.5A13,13,0,0,0,1687.56,212.94Z"/><path class="cls-17" d="M288.51,199C146.19,214.31,1.31,330.47,1.31,330.47V1.19l551.32,1S480.93,178.18,288.51,199Z"/><path class="cls-15" d="M136.45,61.29a47,47,0,0,1,17.35,3.29q11.31,4.44,16.9,13.2a24.65,24.65,0,0,1,4.14,13.63q0,13.19-13.48,21.61a43.77,43.77,0,0,1-23.53,6.39q-14.6,0-24.85-7.13-12.17-8.41-12.16-22.49,0-13.74,11.11-21.56Q121.73,61.29,136.45,61.29ZM134.94,76q-6.12,0-6.12,7.78A33.2,33.2,0,0,0,134,102a6.21,6.21,0,0,0,5.45,3.15q6,0,6-7.92a38.34,38.34,0,0,0-1.28-9.48,29,29,0,0,0-3.25-8.19A7.08,7.08,0,0,0,134.94,76Z"/><path class="cls-15" d="M198.7,67.73a17.5,17.5,0,0,1,10.81,3.38q4.5,3.36,4.5,8.09a10.1,10.1,0,0,1-4.66,8.52,19.72,19.72,0,0,1-21.69,0A10.08,10.08,0,0,1,183,79.2a9.38,9.38,0,0,1,3.94-7.63A18.09,18.09,0,0,1,198.7,67.73Zm0,28.45a17.56,17.56,0,0,1,10.81,3.37q4.5,3.38,4.5,8.1a10.1,10.1,0,0,1-4.66,8.52,19.77,19.77,0,0,1-21.69,0,10.08,10.08,0,0,1-4.67-8.52,9.38,9.38,0,0,1,3.94-7.63A18.09,18.09,0,0,1,198.7,96.18Z"/><path class="cls-15" d="M229.59,108.49c.62,0,2.06.11,4.34.34a21.81,21.81,0,0,0,2.5.2q5.58,0,6.44-6.6.47-3.74.46-21.26,0-2.65-1.44-3.69t-5.26-1c-.62,0-1.49,0-2.63.14-.88.07-1.65.1-2.3.1a6.45,6.45,0,0,1-3.62-.91,2.74,2.74,0,0,1-1.38-2.39c0-1,.7-2.09,2.11-3.12a20.26,20.26,0,0,1,5.85-2.73,129.92,129.92,0,0,1,39.57-5.91q5.72,0,8.31,1c1.73.67,2.6,1.75,2.6,3.22a2.49,2.49,0,0,1-.85,2,11.62,11.62,0,0,1-3.42,1.55c-2.72.88-4.28,2-4.67,3.25s-.7,6.26-.92,15q.53,13.18.59,14.12a13.71,13.71,0,0,0,.53,2.61,5.41,5.41,0,0,0,3,3.6c1.44.65,4,1,7.62,1.18q6.18.2,6.18,3.79t-8.74,4.92a189.12,189.12,0,0,1-25,1.62q-8.41,0-15.91-.74a93.76,93.76,0,0,1-14.59-2.41c-3.38-.91-5.06-2.29-5.06-4.13a3.07,3.07,0,0,1,1.64-2.56A7.5,7.5,0,0,1,229.59,108.49Z"/><path class="cls-15" d="M370.4,68.18l-26.69,60.54a3.15,3.15,0,0,1-2,1.67,18.34,18.34,0,0,1-4.86.44A52.7,52.7,0,0,1,323,129.16q-6.23-1.68-6.22-3.69a2.31,2.31,0,0,1,.53-1.23l24.52-35.1c1.8-2.59,2.69-4.39,2.69-5.41,0-1.25-1-2.1-3.09-2.56A62,62,0,0,0,330,80.48q-10,0-14.27.94a6.54,6.54,0,0,0-3.22,1.87,11.57,11.57,0,0,1-3.32,2.53,9.31,9.31,0,0,1-3.84.67,8.7,8.7,0,0,1-7-2.83Q296,80.82,296,75.51a18.57,18.57,0,0,1,3.15-11A12.41,12.41,0,0,1,303.05,61a9.08,9.08,0,0,1,4.57-1.41,28.62,28.62,0,0,1,6.64,1.73,28.67,28.67,0,0,0,8.15,1h42.27q6.24,0,6.24,3.54A5.68,5.68,0,0,1,370.4,68.18Z"/><path d="M97.31,299.45l23.2,38.46,51.06,5.91L135,374.06l9.13,42.37L98.28,396.66,52.86,416.94l8.29-42.47L23.94,344.64l51-6.47,22.42-38.72m-.09-9.83L93,296.94,71.8,333.52l-48.49,6.16-11.69,1.48,9.19,7.38,34.85,27.94L48,416l-1.84,9.45,8.79-3.93,43.42-19.38L142.12,421l8.92,3.84-2-9.49L140.5,376l34.26-28.31,9-7.47-11.65-1.35-48.63-5.62-21.93-36.37-4.37-7.24Z"/><polygon class="cls-14" points="59.66 524.35 19.88 491.78 74.29 484.73 97.76 443.35 122.06 484.47 176.58 490.92 137.46 523.91 147.11 569.59 98.79 548.29 50.92 570.1 59.66 524.35"/><path d="M97.8,448.34l22.73,38.47,50,5.91L134.7,523l9,42.37L98.77,545.55,54.28,565.82l8.11-42.46L25.94,493.52l49.9-6.47,22-38.71m-.08-10-4.26,7.51L72.73,482.42,25.3,488.56l-11.49,1.49,9,7.33,34.16,28-7.56,39.54-1.81,9.5,8.8-4L98.81,551l42.83,18.88,8.93,3.93-2-9.54-8.34-39.45,33.57-28.3,8.82-7.44-11.45-1.35-47.57-5.63-21.47-36.34-4.39-7.43Z"/><path d="M244.69,222l22.78,38.47,50.15,5.91L281.67,296.6l9,42.37-45-19.78-44.6,20.27L209.19,297l-36.55-29.84,50-6.47,22-38.71m-.09-10-4.26,7.48-20.78,36.55L172,262.2l-11.51,1.49,9,7.34,34.24,28-7.58,39.54L194.32,348l8.8-4,42.57-19.34,42.95,18.88,8.92,3.92-2-9.54-8.35-39.43,33.65-28.31,8.84-7.44-11.48-1.36-47.69-5.62L249,219.43,244.6,212Z"/><ellipse class="cls-18" cx="1738.5" cy="1040" rx="148.5" ry="29"/><path class="cls-19" d="M1611.43,918.13A44.11,44.11,0,0,1,1568,884.54c-5-20.37,6.72-39.21,16.56-56.08,10.53-18,20.79-36.8,18.51-58.37-2-18.8-9.63-36.68-23.07-50.14-15.94-16-38.64-23-58.26-8.93-3.31,2.38-4.82,6.51-2.69,10.27,1.87,3.27,7,5,10.27,2.69,7.82-5.61,16.31-7.7,25.43-3.85,7.13,3,13.12,8.41,18.14,14.19,11.26,13,17.72,32.66,15.17,49.8-1.57,10.51-7.2,20.53-12.35,29.66-4.82,8.56-10.09,16.88-14.43,25.7-9.15,18.62-13,38.84-4.49,58.48,9.34,21.67,31.21,35.29,54.67,35.17,9.65,0,9.67-15,0-15Z"/><circle class="cls-20" cx="1678" cy="699" r="36"/><path class="cls-21" d="M1678.4,739.38a28.27,28.27,0,1,0-19.47-53.09"/><circle class="cls-20" cx="1810" cy="699" r="36"/><path class="cls-21" d="M1808.47,739.38a28.27,28.27,0,0,1,19.47-53.09"/><path class="cls-22" d="M1864,860c35,85-32.32,135-124,135s-162.83-46.5-124-135c43-98,52-167.5,124-172C1820,683,1838.72,798.59,1864,860Z"/><path class="cls-20" d="M1759.47,813.92c-7.48,18.72-16.45,35.18-20,38.67-3.73,3.71-11.23-18.71-20-38.67-9-20.6,5.52-39.09,20-39.91S1768.71,790.82,1759.47,813.92Z"/><circle class="cls-12" cx="1710.5" cy="771.5" r="28.5"/><circle class="cls-12" cx="1767.5" cy="771.5" r="28.5"/><path class="cls-10" d="M1739.17,774c-1.81-9.06,2.68-22.74,15.83-29,12.29-5.85,27.71-.77,33.17,7Z"/><circle cx="1714" cy="773" r="7"/><circle cx="1762" cy="773" r="7"/><circle class="cls-23" cx="1738.5" cy="863.5" r="10.5"/><path class="cls-10" d="M1738.79,774c1.81-9.06-2.68-22.74-15.83-29-12.3-5.85-27.72-.77-33.17,7"/><rect x="1801" y="838" width="3" height="77" rx="1.5"/><rect x="1794" y="911" width="3" height="21" transform="translate(991.12 -929.43) rotate(39.34)"/><rect x="1808" y="911" width="3" height="21" transform="translate(3793.1 487) rotate(140.66)"/><rect x="1801" y="913" width="3" height="21"/><rect x="1678" y="838" width="3" height="77" rx="1.5"/><rect x="1671" y="911" width="3" height="21" transform="translate(963.24 -851.46) rotate(39.34)"/><rect x="1685" y="911" width="3" height="21" transform="translate(3574.98 564.98) rotate(140.66)"/><rect x="1678" y="913" width="3" height="21"/><rect class="cls-22" x="1762" y="991" width="15" height="38"/><path class="cls-22" d="M1795,1047l-29.22-11.15a5.49,5.49,0,0,1-3.54-6.92l.63-2a5.51,5.51,0,0,1,6.93-3.54L1801,1030c2.89.93,3.48,7.22,2.55,10.11l-.63,2C1802,1045,1797.89,1047.93,1795,1047Z"/><circle class="cls-22" cx="1800" cy="1045" r="5"/><circle class="cls-22" cx="1805" cy="1034" r="5"/><circle class="cls-22" cx="1804" cy="1040" r="5"/><rect class="cls-22" x="1700" y="991" width="15" height="38" transform="translate(3415 2020) rotate(-180)"/><path class="cls-22" d="M1682,1047l29.22-11.15a5.49,5.49,0,0,0,3.54-6.92l-.63-2a5.51,5.51,0,0,0-6.93-3.54L1676,1030c-2.89.93-3.48,7.22-2.55,10.11l.63,2C1675,1045,1679.11,1047.93,1682,1047Z"/><circle class="cls-22" cx="1677" cy="1045" r="5"/><circle class="cls-22" cx="1672" cy="1034" r="5"/><circle class="cls-22" cx="1673" cy="1040" r="5"/><polyline class="cls-19" points="1531.69 722.45 1509 736 1519.28 713.65"/><ellipse class="cls-18" cx="234.5" cy="1031" rx="148.5" ry="29"/><path class="cls-19" d="M107.43,909.13A44.11,44.11,0,0,1,64,875.54c-5-20.37,6.72-39.21,16.56-56.08,10.53-18,20.79-36.8,18.51-58.37-2-18.8-9.63-36.68-23.07-50.14C60,695,37.33,688,17.71,702c-3.31,2.38-4.82,6.51-2.69,10.27,1.87,3.27,7,5,10.27,2.69,7.82-5.61,16.31-7.7,25.43-3.85,7.13,3,13.12,8.41,18.14,14.19,11.26,13,17.72,32.66,15.17,49.8-1.57,10.51-7.2,20.53-12.35,29.66-4.82,8.56-10.09,16.88-14.43,25.7-9.15,18.62-13,38.84-4.49,58.48,9.34,21.67,31.21,35.29,54.67,35.17,9.65,0,9.67-15,0-15Z"/><circle class="cls-24" cx="174" cy="690" r="36"/><path class="cls-21" d="M174.4,730.38a28.27,28.27,0,1,0-19.47-53.09"/><circle class="cls-24" cx="306" cy="690" r="36"/><path class="cls-21" d="M304.47,730.38a28.27,28.27,0,0,1,19.47-53.09"/><path class="cls-25" d="M360,851c35,85-32.32,135-124,135S73.17,939.5,112,851c43-98,52-167.5,124-172C316,674,334.72,789.59,360,851Z"/><path class="cls-24" d="M255.47,804.92c-7.48,18.72-16.45,35.18-20,38.67-3.73,3.71-11.23-18.71-20-38.67-9-20.6,5.52-39.09,20-39.91S264.71,781.82,255.47,804.92Z"/><circle class="cls-12" cx="206.5" cy="762.5" r="28.5"/><circle class="cls-12" cx="263.5" cy="762.5" r="28.5"/><path class="cls-26" d="M235.17,765c-1.81-9.06,2.68-22.74,15.83-29,12.29-5.85,27.71-.77,33.17,7Z"/><circle cx="210" cy="764" r="7"/><circle cx="258" cy="764" r="7"/><circle class="cls-23" cx="234.5" cy="854.5" r="10.5"/><path class="cls-26" d="M234.79,765c1.81-9.06-2.68-22.74-15.83-29-12.3-5.85-27.72-.77-33.17,7"/><rect x="297" y="829" width="3" height="77" rx="1.5"/><rect x="290" y="902" width="3" height="21" transform="translate(644.55 22) rotate(39.34)"/><rect x="304" y="902" width="3" height="21" transform="translate(1120.25 1424.52) rotate(140.66)"/><rect x="297" y="904" width="3" height="21"/><rect x="174" y="829" width="3" height="77" rx="1.5"/><rect x="167" y="902" width="3" height="21" transform="translate(616.68 99.98) rotate(39.34)"/><rect x="181" y="902" width="3" height="21" transform="translate(902.13 1502.5) rotate(140.66)"/><rect x="174" y="904" width="3" height="21"/><rect class="cls-25" x="258" y="982" width="15" height="38"/><path class="cls-25" d="M291,1038l-29.22-11.15a5.49,5.49,0,0,1-3.54-6.92l.63-2a5.51,5.51,0,0,1,6.93-3.54L297,1021c2.89.93,3.48,7.22,2.55,10.11l-.63,2C298,1036,293.89,1038.93,291,1038Z"/><circle class="cls-25" cx="296" cy="1036" r="5"/><circle class="cls-25" cx="301" cy="1025" r="5"/><circle class="cls-25" cx="300" cy="1031" r="5"/><rect class="cls-25" x="196" y="982" width="15" height="38" transform="translate(407 2002) rotate(-180)"/><path class="cls-25" d="M178,1038l29.22-11.15a5.49,5.49,0,0,0,3.54-6.92l-.63-2a5.51,5.51,0,0,0-6.93-3.54L172,1021c-2.89.93-3.48,7.22-2.55,10.11l.63,2C171,1036,175.11,1038.93,178,1038Z"/><circle class="cls-25" cx="173" cy="1036" r="5"/><circle class="cls-25" cx="168" cy="1025" r="5"/><circle class="cls-25" cx="169" cy="1031" r="5"/><polyline class="cls-19" points="27.69 713.45 5 727 15.28 704.65"/><g class="cls-27"><rect class="cls-24" x="381" y="222" width="1140" height="661" rx="204.51"/><rect class="cls-28" x="381" y="222" width="1140" height="661" rx="204.51"/></g><g class="cls-27"><rect class="cls-29" x="813" y="654" width="619" height="123"/><rect class="cls-5" x="813" y="654" width="619" height="123"/></g><path d="M833.85,695.88c6.44,0,6.45-10,0-10s-6.44,10,0,10Z"/><path d="M835.17,744.25c6.43,0,6.44-10,0-10s-6.45,10,0,10Z"/><path d="M1403.52,698.57c6.44,0,6.45-10,0-10s-6.44,10,0,10Z"/><path d="M1403.52,744.25c6.44,0,6.45-10,0-10s-6.44,10,0,10Z"/><path class="cls-17" d="M962.23,720.34q6.67,6.23,12.61,6.22a7.48,7.48,0,0,0,5.19-1.95,6.15,6.15,0,0,0,2.16-4.73,5.85,5.85,0,0,0-1.54-4,21.16,21.16,0,0,0-5.88-3.91,29.51,29.51,0,0,1-9.3-6.7,13.68,13.68,0,0,1-3.24-9.37,16.36,16.36,0,0,1,5.06-12.17q5.07-4.95,13.41-5a26.76,26.76,0,0,1,11.91,3.07v13.82q-5.48-5.26-10.5-5.27a6.6,6.6,0,0,0-4.32,1.5,4.51,4.51,0,0,0-1.83,3.61,4.88,4.88,0,0,0,1.5,3.57,18.14,18.14,0,0,0,5.39,3.23,29,29,0,0,1,9.88,6.65q3.36,3.76,3.36,10.16a18.55,18.55,0,0,1-5.79,13.74,19.41,19.41,0,0,1-14.13,5.69,30.26,30.26,0,0,1-13.94-3.91Z"/><path class="cls-17" d="M1015.06,702.53a12.83,12.83,0,0,1,4-4,9.44,9.44,0,0,1,4.91-1.32q6.27,0,10,6a26,26,0,0,1,3.73,14.13,28.71,28.71,0,0,1-1.91,10.77,19.39,19.39,0,0,1-5.21,7.66,11.11,11.11,0,0,1-7.49,2.87,9.64,9.64,0,0,1-3.88-.83,13.28,13.28,0,0,1-3.67-2.48v20.82h-13v-58h11.24Zm.5,22.57a5.65,5.65,0,0,0,1.66,1.65,3.76,3.76,0,0,0,2,.56,4.08,4.08,0,0,0,3.7-2.58,15.58,15.58,0,0,0,1.32-7,15.37,15.37,0,0,0-1.26-7c-.85-1.61-2-2.41-3.34-2.41a3.29,3.29,0,0,0-3,1.77,11,11,0,0,0-1,5.34Z"/><path class="cls-17" d="M1051.25,678.79a7.22,7.22,0,0,1,4.9,2,6.44,6.44,0,0,1,2.2,5.06,6.68,6.68,0,0,1-2.1,5,6.93,6.93,0,0,1-5,2,7.08,7.08,0,0,1-7.09-7.06,6.61,6.61,0,0,1,2.11-4.94A7,7,0,0,1,1051.25,678.79Zm-6.68,19.3h13.2v39.55h-13.2Z"/><path class="cls-17" d="M1066.65,679.74h13.2v57.9h-13.2Z"/><path class="cls-17" d="M1117.2,678.79a7.22,7.22,0,0,1,4.9,2,6.44,6.44,0,0,1,2.2,5.06,6.68,6.68,0,0,1-2.1,5,6.93,6.93,0,0,1-5,2,7.08,7.08,0,0,1-7.09-7.06,6.61,6.61,0,0,1,2.11-4.94A7,7,0,0,1,1117.2,678.79Zm-6.68,19.3h13.2v39.55h-13.2Z"/><path class="cls-17" d="M1152.23,732.87a12.28,12.28,0,0,1-3.77,3.57,9,9,0,0,1-4.57,1.2q-5.57,0-9.59-5.81a23.94,23.94,0,0,1-4-14,26,26,0,0,1,4.06-14.32q4.07-6.36,10.42-6.35a10.11,10.11,0,0,1,4.48,1,11.7,11.7,0,0,1,3.82,3.1l3.57-3.2h8.8v38a22.8,22.8,0,0,1-4.9,14.87q-4.89,6-13.9,6a29.91,29.91,0,0,1-13.74-3.69v-13q6.27,4.89,10.92,4.89a8.1,8.1,0,0,0,6-2.42,8.32,8.32,0,0,0,2.41-6.12Zm0-22.7a7.07,7.07,0,0,0-1.82-1.54,3.82,3.82,0,0,0-1.83-.5,4,4,0,0,0-3.61,2.47,13.57,13.57,0,0,0-1.33,6.46,14.38,14.38,0,0,0,1.29,6.57q1.27,2.52,3.36,2.52a3.16,3.16,0,0,0,3-1.91,13,13,0,0,0,1-5.69Z"/><path class="cls-17" d="M1204.32,734.28q-7.6,4.28-14.17,4.28a18.08,18.08,0,0,1-13.9-5.77q-5.34-5.77-5.34-14.78a22.28,22.28,0,0,1,5-14.77,16.65,16.65,0,0,1,13.48-6.06,15.05,15.05,0,0,1,12,5.18q4.48,5.19,4.49,13.91v3.28h-21.3a11.15,11.15,0,0,0,3.12,6,8.17,8.17,0,0,0,5.7,2,10.25,10.25,0,0,0,4.95-1.21,38.29,38.29,0,0,0,6-4.31Zm-10-21.75v-1.32a7.55,7.55,0,0,0-1.42-4.61,4.26,4.26,0,0,0-3.54-1.91,4.43,4.43,0,0,0-3.86,1.95,11.51,11.51,0,0,0-1.56,5.89Z"/><path class="cls-17" d="M1225.24,702.2a12,12,0,0,1,4-3.78,10,10,0,0,1,5-1.24,10.2,10.2,0,0,1,7.84,3.42,12.16,12.16,0,0,1,3.14,8.53v28.51H1232V711.87q0-3.36-2.49-3.36a3.13,3.13,0,0,0-2.78,1.82,10.45,10.45,0,0,0-1,5.11v22.2h-13V698.09H1224Z"/><path class="cls-17" d="M1251.8,682.11q8.67-3.32,14.61-3.32a20.77,20.77,0,0,1,13,4.19,13.23,13.23,0,0,1,5.48,11,11.83,11.83,0,0,1-1.72,6.49,34.82,34.82,0,0,1-5.92,6.44,34.63,34.63,0,0,0-5.62,6.16,10.55,10.55,0,0,0-1.56,5.83v1h-11.33V717.6a18.91,18.91,0,0,1,1.49-8.29,29.11,29.11,0,0,1,6-7.25,37.21,37.21,0,0,0,4.26-4.58,5.3,5.3,0,0,0,1-3,4.22,4.22,0,0,0-2.16-3.73,8.81,8.81,0,0,0-4.81-1.37q-5.89,0-12.7,4.52Zm12.32,42.29a7.14,7.14,0,0,1,5.28,2.08,7,7,0,1,1-9.88,0A6.5,6.5,0,0,1,1264.12,724.4Z"/><path d="M626.85,335.85c.39-2.2.78-4.4,1.15-6.6a.84.84,0,0,1,.89-.72,3.84,3.84,0,0,1,2.43,1.14l1.32,1.08a9.09,9.09,0,0,1,2,2.28,3.43,3.43,0,0,1,.52,2.32c-.41,2-.84,4-1.27,6.07a1.26,1.26,0,0,0,0,.9,9.54,9.54,0,0,0,1.38,1.41A78.06,78.06,0,0,1,646,356a69.31,69.31,0,0,1,7.76,13.83c4.2,10.22,5.12,19.3,3.37,27.16-1.49,6.68-4.77,11.49-9.51,14.47a17.78,17.78,0,0,1-9.24,2.89c-4.62.13-9.42-1.46-14.61-4.74a39.7,39.7,0,0,1-6.81-5.23c-.42-.44-.71-.65-.86-.65s-.22.2-.37.57c-.79,1.83-1.62,3.67-2.46,5.49-.33.66-.63,1-.91,1a2.2,2.2,0,0,1-1.64-.92c-.42-.47-.84-.95-1.27-1.42a4.8,4.8,0,0,1-1-1.86,3.08,3.08,0,0,1,.1-2.26q1.08-2.71,2.08-5.43a1.36,1.36,0,0,0,.11-.81,6.25,6.25,0,0,0-1-1.31,118.59,118.59,0,0,1-8.4-11.47q-4.18-6.43-7.65-13.07c-5.12-9.82-8.67-18.62-9.86-26.47-1-6.64.1-11.65,3.81-15a16.15,16.15,0,0,1,9.9-4c5.58-.44,11.86.82,18.56,3.8a51.32,51.32,0,0,1,9.25,5.19,2.13,2.13,0,0,0,1,.58Q626.73,336.32,626.85,335.85Zm-8.17,37.78c1.31-4.75,2.5-9.54,3.6-14.35a4.46,4.46,0,0,0-.14-3c-.55-1-2.14-2.81-4.86-5.32-4.81-4.43-8.7-6.54-11.35-6.35-1.95.14-2.82,1.47-2.67,4s1.25,5.5,3.22,9,4.15,7,6.69,10.84c1.36,2.07,2.05,3.16,2.14,3.28,1.31,2.24,2.18,3.34,2.68,3.31C618.21,375,618.44,374.57,618.68,373.63Zm9.45-6.74q-1.89,7.17-4.09,14.25a4.66,4.66,0,0,0-.22,2.77,33,33,0,0,0,4.19,5.94c3.34,4.14,6.15,6.17,8.71,6.07,2-.08,3.22-1.29,3.6-3.63s-.13-5.5-1.65-9.47a92.08,92.08,0,0,0-7.17-14.15c-1.33-2.17-2.22-3.24-2.62-3.22C628.64,365.46,628.39,366,628.13,366.89Z"/><path d="M698.47,366.71a318.37,318.37,0,0,1-.78,32.72,45.87,45.87,0,0,1-1.7,10.5c-.7,2-1.67,3-2.88,3s-2.28-.67-3.3-2.1a97.17,97.17,0,0,1-6.21-9.67,305.51,305.51,0,0,0-22.09-33.68,24.9,24.9,0,0,0-3.45-3.92,8.87,8.87,0,0,0-3.2-1.73,8.93,8.93,0,0,1-5.42-5c-1.21-2.55-.85-4.49,1.14-5.82s5.76-2.16,11.32-2.48c4.65-.26,8.32.07,11,1a8.4,8.4,0,0,1,5.38,4.64,6.35,6.35,0,0,1,.29,4.48,9.45,9.45,0,0,0-.4,2.17,5.24,5.24,0,0,0,.43,1.8,41.17,41.17,0,0,0,4.47,7.13c2.35,3.22,4,4.81,5,4.77.66,0,1.06-.45,1.21-1.28a41.82,41.82,0,0,0,.11-6.38,18.23,18.23,0,0,0-.84-5.69,10.71,10.71,0,0,0-2.71-3.59,13.68,13.68,0,0,1-3.13-4.22c-.85-2.05-.63-3.57.72-4.56s4-1.59,8-1.79c5.58-.29,9.16,1.47,10.61,5.26.84,2.2.44,3.84-1.16,4.92a4.77,4.77,0,0,0-2.19,2.66A37.3,37.3,0,0,0,698.47,366.71Z"/><path d="M717.61,380.66a7.4,7.4,0,0,1,4.19,1.4,15.58,15.58,0,0,1,4.15,4,37.57,37.57,0,0,1,6.27,15.52,56.88,56.88,0,0,1,.82,11.71,58.52,58.52,0,0,1-1.43,11.78c-1.37,5.75-3.25,8.62-5.39,8.64a3.53,3.53,0,0,1-2.7-1.46,6,6,0,0,1-1.47-3.41,21.44,21.44,0,0,1,.89-5,35.16,35.16,0,0,0,.86-5.27,19.57,19.57,0,0,0,0-4.41A4.07,4.07,0,0,0,722,411a15.65,15.65,0,0,1-4.16-3.09,26.27,26.27,0,0,1-5.63-11.85,20.16,20.16,0,0,1-.13-10C713.11,382.56,714.92,380.76,717.61,380.66Z"/><path d="M784.63,323.14a490.77,490.77,0,0,1,13.8,60.95,62.21,62.21,0,0,0,1.26,6.67,7.24,7.24,0,0,0,1.81,2.85,12.43,12.43,0,0,1,2.26,2.9,9.34,9.34,0,0,1,.86,3.07c.43,3.57-1.33,6.32-5.2,8.25a25.37,25.37,0,0,1-10.76,2.63,1.84,1.84,0,0,1-1.65-.61,9.2,9.2,0,0,1-.83-3c-.4-2.25-1-3.38-1.8-3.36-.43,0-1,.68-1.77,2-2.12,3.71-4.79,5.59-8,5.64-3.93.07-7.74-2.41-11.65-7.4a57.73,57.73,0,0,1-6.27-10.37,73.15,73.15,0,0,1-5.58-15.52,58.62,58.62,0,0,1-1.5-18c.44-5.38,1.84-9.56,4.36-12.55a9.93,9.93,0,0,1,7.32-3.89,15.42,15.42,0,0,1,9.51,3.14,2.37,2.37,0,0,0,1.12.5c.87,0,.8-1.95-.28-5.76a9.61,9.61,0,0,0-1.81-3.73,8.35,8.35,0,0,0-3.26-2.12,6.88,6.88,0,0,1-4.08-4.54c-1-3.23.14-5.83,3.65-7.81,6.22-3.44,10.63-5.21,13.11-5.3S783.56,319.49,784.63,323.14Zm-13.22,34.24c-1.74.06-2.73,1.63-3,4.71-.36,4.11.24,9.46,1.62,16.08,1.24,6,2.67,10.51,4.45,13.53,1.27,2.18,2.66,3.26,4.2,3.23s2.63-1.73,2.84-5.09-.33-8.76-1.85-16.2c-1.4-6.82-2.94-11.34-4.41-13.57C774.12,358.32,772.83,357.43,771.41,357.38Z"/><path d="M820.33,346.22q3.81,19.53,6.26,39.08a37.57,37.57,0,0,0,1.3,6.78,11.06,11.06,0,0,0,2.37,3.95,10.91,10.91,0,0,1,1.85,2.5,7.6,7.6,0,0,1,.66,2.65c.54,5.8-3.4,8.73-11.67,8.83a25.87,25.87,0,0,1-10.78-1.74,5.55,5.55,0,0,1-2.39-2.31,9.37,9.37,0,0,1-1.24-3.8,7.38,7.38,0,0,1,.09-2.82,15.47,15.47,0,0,1,1.75-3.24,9.91,9.91,0,0,0,1.05-5.05,69.12,69.12,0,0,0-1-10.39c-.23-1.48-.71-4.23-1.52-8.27s-1.35-6.39-1.52-7.06a6.83,6.83,0,0,0-3-4.16,7.77,7.77,0,0,1-3.58-5.28c-.6-2.81,0-4.94,1.91-6.38a43.35,43.35,0,0,1,8.71-5.17,21.64,21.64,0,0,1,7.69-2.23C818.75,342.07,819.79,343.44,820.33,346.22Zm-15-29.2a9.7,9.7,0,0,1,6.46,2,10,10,0,0,1,3.58,5.82c.8,3.45.33,6.22-1.36,8.29-2.67,3.28-6.37,5-11.13,5.12a7.64,7.64,0,0,1-5.25-1.72,12,12,0,0,1-4.14-6.62c-1-3.83-.14-6.9,2.75-9.21A15.25,15.25,0,0,1,805.34,317Z"/><path d="M878.89,365.49q1.33,12,2.38,23.91a16.41,16.41,0,0,0,.74,4,41,41,0,0,0,2.64,4.94,6.73,6.73,0,0,1,.73,3c.15,3-.76,5.09-2.7,6.28s-5.49,1.8-10.63,1.84q-5.25,0-7.51-1.57c-1.56-1.12-2.42-2.94-2.6-5.47a6.49,6.49,0,0,1,.09-2c.13-.43.56-1.49,1.31-3.17.87-1.9,1-8.23-.05-19-.59-6.23-1.51-10.84-2.7-13.81-1-2.38-2.38-3.56-4.24-3.53s-2.88,1-3.3,3-.32,5.47.25,10.57q.74,6.69,1.36,13.39a36.45,36.45,0,0,0,.78,5.48,49.48,49.48,0,0,0,2.36,5.73,8.67,8.67,0,0,1,.62,2.77,6,6,0,0,1-2.71,5.92q-3,1.92-9.61,2c-7,.06-10.74-2.48-11.21-7.64a6.91,6.91,0,0,1,.1-2.47,9.53,9.53,0,0,1,1.32-2.41,5.83,5.83,0,0,0,1-3,79.51,79.51,0,0,0-.37-8.13q-.6-7.69-1.76-16.12a27.19,27.19,0,0,0-1.3-6.09,11.3,11.3,0,0,0-3-3.49,7.4,7.4,0,0,1-2.45-4.41,6.14,6.14,0,0,1,.66-4.45c.74-1.16,2.43-2.66,5.09-4.48a59.1,59.1,0,0,1,6.89-4,14.13,14.13,0,0,1,4.74-1.7,2.9,2.9,0,0,1,2.31,1.45,7.83,7.83,0,0,1,1.37,3.5c0,.14.09.7.21,1.69,0,.37.06.68.1.95.31,2.17,1,3.24,2.08,3.22.64,0,1.21-.88,1.7-2.61q2.31-8.46,9-8.58c3.45-.06,6.6,1.38,9.39,4.33a20.39,20.39,0,0,1,4.39,7.46A65.36,65.36,0,0,1,878.89,365.49Z"/><path d="M923.19,340.36c1.45,0,2.35.33,2.69,1s.69,2.86,1.06,6.54q.3,3,1.35,3c.54,0,1-.67,1.48-2,2-5.69,4.79-8.54,8.32-8.55,2.49,0,4.55,1.33,6.15,4a19.06,19.06,0,0,1,1.9,5.09A25.07,25.07,0,0,1,946,362a19.92,19.92,0,0,1-2.23,5.56c-1.67,2.78-3.71,4.17-6.15,4.17a4.9,4.9,0,0,1-3.38-1.22,24.42,24.42,0,0,1-3.68-5c-.58-.95-1.11-1.43-1.58-1.43-.74,0-1.21.72-1.39,2.16a73.58,73.58,0,0,0-.1,9q.26,10.29.74,14a8.08,8.08,0,0,0,.81,2.83,5.37,5.37,0,0,0,2.08,1.6c2.33,1.22,3.51,3.36,3.54,6.4a10,10,0,0,1-1.05,4.89,5.44,5.44,0,0,1-2.89,2.76q-3.63,1.38-10.7,1.39-6.72,0-10.27-2.08-3.18-1.89-3.34-6.59a9.46,9.46,0,0,1,2.08-6.35,8.27,8.27,0,0,0,1.45-2.36,10,10,0,0,0,.48-2.9c.25-4.13.18-11.79-.37-23a17.14,17.14,0,0,0-.62-4.39,4.12,4.12,0,0,0-1.71-2.14,6.67,6.67,0,0,1-3.17-5.49,8.06,8.06,0,0,1,1.63-5.64,19.21,19.21,0,0,1,6.4-4.72C916.7,341.52,920.24,340.43,923.19,340.36Z"/><path d="M972.21,344.65q-.66,19.82-1.1,39.63a34.73,34.73,0,0,0,.34,6.89,9.66,9.66,0,0,0,1.86,4,9.94,9.94,0,0,1,1.54,2.56,7.47,7.47,0,0,1,.35,2.69c-.13,5.87-4.31,8.79-12.59,8.78-4.46,0-8-.64-10.6-1.92a4.92,4.92,0,0,1-2.14-2.39,8.82,8.82,0,0,1-.82-3.89,7.43,7.43,0,0,1,.42-2.87,17.08,17.08,0,0,1,2.15-3.27,11.4,11.4,0,0,0,1.7-5.12,81,81,0,0,0,.55-10.58q0-2.25-.14-8.43c-.09-4.12-.17-6.52-.22-7.2a5.67,5.67,0,0,0-2.21-4.3,6.38,6.38,0,0,1-2.48-5.46,7.07,7.07,0,0,1,3.28-6.42,54.2,54.2,0,0,1,9.83-5,24.44,24.44,0,0,1,8.17-2C971.6,340.41,972.31,341.83,972.21,344.65Zm-7.34-29.92A7.66,7.66,0,0,1,970.7,317a7.9,7.9,0,0,1,1.93,6,11.45,11.45,0,0,1-3.52,8.31,17.54,17.54,0,0,1-12.34,4.81,6.22,6.22,0,0,1-4.79-1.92,9.39,9.39,0,0,1-2.4-6.82,10.32,10.32,0,0,1,5.24-9.21A18.85,18.85,0,0,1,964.87,314.73Z"/><path d="M995.94,340.1a23.8,23.8,0,0,1,6.57,1.56,5.49,5.49,0,0,0,1.54.29,7.64,7.64,0,0,0,2.81-1.19,3.44,3.44,0,0,1,1.65-.6q1.89,0,3.44,4.06a34.19,34.19,0,0,1,1.87,7,27,27,0,0,1,.38,6.61,9.12,9.12,0,0,1-1.5,4.51,3.53,3.53,0,0,1-2.92,1.77,3.11,3.11,0,0,1-2.4-1.18,34.62,34.62,0,0,1-3.15-5.14q-2.26-4.24-4-4.26a2.49,2.49,0,0,0-2,1.38,6.5,6.5,0,0,0-1,3.29c-.14,2.23,1,4.33,3.34,6.3a35.67,35.67,0,0,1,9.46,11.39c1.75,3.46,2.45,7.69,2.15,12.67q-.57,9.45-5.49,15.75c-2.82,3.66-6.13,5.48-10,5.46a28.78,28.78,0,0,1-5.37-.9c-2.44-.52-3.82-.77-4.12-.77a4.15,4.15,0,0,0-1.15.2,7.63,7.63,0,0,1-1.6.27,3.11,3.11,0,0,1-2.77-1.65,28.24,28.24,0,0,1-2.72-7.95,38.82,38.82,0,0,1-1.11-9.32c.11-4.18,1.11-6.27,3-6.26a2.46,2.46,0,0,1,2,1.27,75.7,75.7,0,0,1,3.58,6.73,20.11,20.11,0,0,0,2.48,4.14,2.94,2.94,0,0,0,2.18,1.14,2.41,2.41,0,0,0,2.08-1.19,5.91,5.91,0,0,0,.89-3.16,7,7,0,0,0-2.74-5.6,34.51,34.51,0,0,1-8.62-11.16,29.13,29.13,0,0,1-2.31-13.25,30.79,30.79,0,0,1,3.55-14C986.93,342.82,991,340.05,995.94,340.1Z"/><path d="M1052.33,378.08q-9.19-.15-18.37-.26c-.81,0-1.27.6-1.38,1.82a13.34,13.34,0,0,0,2,8.33q2.42,3.93,5.53,4a9.17,9.17,0,0,0,4.21-1.21,13.81,13.81,0,0,0,4-3c1-1.07,1.74-1.6,2.26-1.59.67,0,1.25.74,1.75,2.19a10.44,10.44,0,0,1,.53,4.47,16.86,16.86,0,0,1-4.26,9.35c-4.46,5.32-9.25,8-14.51,7.92s-9.63-2.83-12.94-8.38a35.67,35.67,0,0,1-3.79-9.88,53.14,53.14,0,0,1-1.18-16.2,49.31,49.31,0,0,1,5.84-20.47,30.82,30.82,0,0,1,10.4-11.62,17,17,0,0,1,9.44-2.75c5.21.09,9.26,2.62,12.11,7.56a26.7,26.7,0,0,1,3.06,8.73,35.66,35.66,0,0,1,.32,11.12,23.22,23.22,0,0,1-2,7.17C1054.47,377.18,1053.45,378.1,1052.33,378.08Zm-16.06-12.92,4,.06c1.7,0,2.7-1.29,3-4a12.09,12.09,0,0,0-.49-6,3.23,3.23,0,0,0-3-2.35c-1.51,0-2.82.95-3.91,2.92a14.88,14.88,0,0,0-1.84,5.61,5,5,0,0,0,.26,2.86A2.1,2.1,0,0,0,1036.27,365.16Z"/><path d="M1108.33,367.19q-2.11,11.73-3.6,23.48a14.45,14.45,0,0,0-.09,3.94,30.77,30.77,0,0,0,1.69,4.91,6.2,6.2,0,0,1,.19,3c-.37,2.93-1.61,5-3.74,6.09s-5.75,1.65-10.89,1.58q-5.25-.07-7.26-1.71c-1.39-1.13-2-3-1.7-5.46a6.35,6.35,0,0,1,.44-2c.2-.42.82-1.46,1.88-3.1,1.25-1.86,2.45-8.1,4.09-18.73,1-6.16,1.36-10.73,1-13.7-.25-2.38-1.31-3.6-3.17-3.64s-3.18.89-4.18,2.8-1.91,5.39-2.68,10.45q-1,6.66-1.85,13.3a32.09,32.09,0,0,0-.38,5.45,40.38,40.38,0,0,0,1.26,5.73,8,8,0,0,1,.13,2.76,7,7,0,0,1-3.69,5.8c-2.19,1.23-5.48,1.82-9.89,1.77-7-.08-10.38-2.7-10-7.87a7.27,7.27,0,0,1,.54-2.46,11.61,11.61,0,0,1,1.76-2.38,7,7,0,0,0,1.55-2.92c.29-1.09.73-3.8,1.36-8.12q1.14-7.68,2.3-16.11a28.32,28.32,0,0,0,.45-6.11,8.12,8.12,0,0,0-1.88-3.59,5.62,5.62,0,0,1-1-4.49,7.69,7.69,0,0,1,2.12-4.39,29.06,29.06,0,0,1,6.58-4.22,86,86,0,0,1,8.28-3.69,18.35,18.35,0,0,1,5.32-1.45,1.94,1.94,0,0,1,1.76,1.54,6.5,6.5,0,0,1,.12,3.51c0,.14-.15.7-.38,1.68-.1.36-.17.67-.23.94-.42,2.15-.09,3.24,1,3.26.65,0,1.5-.81,2.57-2.49,3.45-5.49,7.53-8.16,12-8a8.81,8.81,0,0,1,7.79,4.68,15.2,15.2,0,0,1,1.83,7.48A76.34,76.34,0,0,1,1108.33,367.19Z"/><path d="M1165.5,340.94c.69,0,1.07.68,1.16,1.95a11.47,11.47,0,0,1-.73,4.39,29.69,29.69,0,0,1-3,6.05,29,29,0,0,1-4.16,5.34,5.73,5.73,0,0,0-1.55,2.07c0,.13-.16.66-.37,1.58s-.38,1.75-.58,2.49a34.21,34.21,0,0,1-6.53,13,28.65,28.65,0,0,1-8.86,7.16,21.08,21.08,0,0,1-10.2,2.38,11.14,11.14,0,0,1-2.47-.32,8.18,8.18,0,0,0-1.52-.24c-1.37,0-2.27,1.12-2.67,3.46a4.18,4.18,0,0,0,.74,3.58,4.33,4.33,0,0,0,3.38,1.37,22.89,22.89,0,0,0,4.67-.63,47.43,47.43,0,0,1,9.59-1.29q4.55.1,6.57,2.73a11.7,11.7,0,0,1,2.19,5.58,25.05,25.05,0,0,1,0,7.63,37.22,37.22,0,0,1-4.43,12.79A26.1,26.1,0,0,1,1136,432.83a24.68,24.68,0,0,1-11.81,2.68c-5.55-.05-10-1.58-13.24-4.62a13.53,13.53,0,0,1-3.45-5.62,17.36,17.36,0,0,1-.84-7.21,13.91,13.91,0,0,1,1.28-4.78,7.48,7.48,0,0,1,2.4-3.09,2.5,2.5,0,0,0,1.34-1.71,4.05,4.05,0,0,0-.7-2.15,14.54,14.54,0,0,1-1.85-9.3,17.55,17.55,0,0,1,2.47-6.56,17.06,17.06,0,0,1,4.57-5.17,2.72,2.72,0,0,0,1.22-1.57,5.43,5.43,0,0,0-.67-2.82c-1.9-4.27-2.3-9.23-1.09-14.86a27.17,27.17,0,0,1,3.39-8.48,26.09,26.09,0,0,1,5.82-6.78c5.57-4.5,11.16-6.64,16.52-6.43A19.33,19.33,0,0,1,1148,346a17.35,17.35,0,0,0,4.74,1.39c3,.12,6.51-1.65,10.78-5.28A4.18,4.18,0,0,1,1165.5,340.94Zm-46.58,72.77c-.63,0-1,.63-1.15,1.91a7.52,7.52,0,0,0,7.85,8.85,9.49,9.49,0,0,0,5.94-1.64,6.61,6.61,0,0,0,2.59-4.79,4.56,4.56,0,0,0-.48-2.81,2.07,2.07,0,0,0-1.84-1.19,8.83,8.83,0,0,0-1.77.24,18.25,18.25,0,0,1-4.81.52,19.65,19.65,0,0,1-3.67-.39,9.19,9.19,0,0,1-2.11-.56A1.75,1.75,0,0,0,1118.92,413.71Zm20.1-60c-1.35-.05-2.67.75-3.93,2.4a17.7,17.7,0,0,0-2.94,6.64,37.1,37.1,0,0,0-1.36,11.49c.24,2.9,1.09,4.36,2.49,4.4s2.67-.82,3.87-2.58a21.64,21.64,0,0,0,2.9-7.13c1.15-4.7,1.7-8.38,1.54-11S1140.59,353.84,1139,353.69Z"/><path d="M1188.63,346c1.45.07,2.21.44,2.27,1.1s-.46,2.75-1.5,6.27c-.56,1.9-.48,2.87.22,2.9.54,0,1.27-.57,2.22-1.8,4.15-5.3,8.14-7.85,11.66-7.67,2.5.13,4,1.5,4.54,4.11a15.11,15.11,0,0,1,0,4.88,27,27,0,0,1-1.42,5.65,33.62,33.62,0,0,1-3.11,6.16,28,28,0,0,1-4,5.14c-2.53,2.55-5,3.78-7.41,3.69a3.9,3.9,0,0,1-3-1.29,15.13,15.13,0,0,1-2.14-4.86c-.27-.93-.64-1.41-1.12-1.43-.74,0-1.44.64-2.08,2a62.66,62.66,0,0,0-2.81,8.57,97.72,97.72,0,0,0-2.91,13.37,6.51,6.51,0,0,0,.15,2.71,4,4,0,0,0,1.73,1.58c2.06,1.23,2.78,3.29,2.21,6.17a11.19,11.19,0,0,1-2,4.6,6.71,6.71,0,0,1-3.38,2.55,35.64,35.64,0,0,1-10.93,1.07q-6.72-.13-9.92-2.23c-1.89-1.26-2.61-3.4-2.11-6.41a10.57,10.57,0,0,1,3.4-6,10.9,10.9,0,0,0,2-2.21,11.51,11.51,0,0,0,1.15-2.76c1.25-4,3-11.29,6-22a16.79,16.79,0,0,0,.81-4.22,2.73,2.73,0,0,0-1-2.12c-1.53-1.29-1.95-3.1-1.23-5.41a10.8,10.8,0,0,1,3.7-5.32,30.59,30.59,0,0,1,8.21-4.18C1181.68,346.74,1185.66,345.89,1188.63,346Z"/><path d="M1255.55,359.55c-1.28.91-2.54,1.83-3.8,2.74a3.15,3.15,0,0,0-1,1.17,3.49,3.49,0,0,0-.23,1.33,48.55,48.55,0,0,1-3.38,16.32c-3.52,9.56-8.41,17.35-15.12,23.48-6.22,5.72-12.16,8.54-18.3,8.39-5.23-.13-9.39-2.55-12.33-7.31-.33-.52-.61-.79-.83-.79s-.74.36-1.5,1.12c-.94.89-1.87,1.79-2.79,2.69a1.73,1.73,0,0,1-1.22.55c-.5,0-.93-.5-1.27-1.48a5.66,5.66,0,0,1-.19-3,4.27,4.27,0,0,1,1.27-2.23l2.62-2.51a4.5,4.5,0,0,0,1.33-1.9,7.33,7.33,0,0,0,0-1.68,42,42,0,0,1,2-15.08,49.94,49.94,0,0,1,15.74-24.49c7.34-6.2,14.89-9.07,22-8.65,5.9.34,9.5,2.92,10.9,7.69.22.71.47,1.06.74,1.08a2.4,2.4,0,0,0,1.08-.52c1.46-1,2.94-2.07,4.43-3.1a3.16,3.16,0,0,1,1.67-.74c.58,0,.89.56.94,1.58a6.1,6.1,0,0,1-.65,3A6.4,6.4,0,0,1,1255.55,359.55Zm-33.92,19.29q3.63-2.94,7.36-5.86a4,4,0,0,0,1.35-1.68,17.91,17.91,0,0,0,.57-2.94c.54-3.72-.07-5.63-2-5.72a4.51,4.51,0,0,0-3.37,1.77,14.52,14.52,0,0,0-2.93,5c-.37,1-1,3.14-1.94,6.5-.15.6-.26,1-.33,1.22-.46,1.65-.44,2.49,0,2.51C1220.6,379.63,1221,379.37,1221.63,378.84Zm5.16,2.53q-3.6,3-7.08,6a3.4,3.4,0,0,0-1.23,1.62,12.72,12.72,0,0,0-.13,4.87c.32,2.37,1.14,3.56,2.42,3.61a3.73,3.73,0,0,0,3-1.85,16.5,16.5,0,0,0,2.42-5.25c.66-2.23,1.31-4.83,2-7.8.35-1.43.37-2.16.06-2.18A4.2,4.2,0,0,0,1226.79,381.37Z"/><path d="M1324,335.49q-20.3,27.66-31.32,55.31a39.3,39.3,0,0,0-2,6.07,4,4,0,0,0,.48,2.66,7.39,7.39,0,0,1,1,2.74,7.47,7.47,0,0,1-.43,2.8c-1,3.22-3.76,5.6-8.3,7.17a33.24,33.24,0,0,1-11.6,1.9c-.81,0-1.29-.24-1.43-.63a6.66,6.66,0,0,1,.22-2.8c.42-2.09.26-3.15-.53-3.17q-.66,0-2.52,1.77c-3.48,3.31-6.72,4.93-9.89,4.84-3.92-.11-7-2.58-8.91-7.45a28.4,28.4,0,0,1-1.78-10.07,40.47,40.47,0,0,1,2.62-14.89,55.13,55.13,0,0,1,10.12-16.83,46.19,46.19,0,0,1,13.67-11.1c4-2.05,7.47-3,10.23-2.8q4.77.33,6.7,3.77c.23.36.46.54.7.56.88.06,2.29-1.67,4.39-5.19a7.76,7.76,0,0,0,1.38-3.51,2.75,2.75,0,0,0-1.31-2.24c-1.24-.95-1.23-2.45.08-4.5q2.88-4.5,10.79-6.54c9.27-2.33,15.29-3.35,17.77-3.15S1326.46,332.18,1324,335.49Zm-41.38,29.1c-1.74-.1-3.85,1.23-6.22,4a52.22,52.22,0,0,0-8.51,14.83c-2.19,5.59-3,9.84-2.65,12.73.23,2.09,1.13,3.17,2.67,3.23s3.35-1.44,5.17-4.49,4-8,7-14.88c2.73-6.3,4.36-10.51,4.46-12.65C1284.61,365.69,1284,364.76,1282.64,364.59Z"/><path d="M772.76,485.58q-1.26,12.89-3.43,25.76c-.09.62-.17,1.1-.22,1.46-.14.88,0,1.32.29,1.33s.79-.58,1.81-1.76c3.62-4.17,7.14-6.23,10.72-6.17s6.43,2.35,8.57,6.88c2.66,5.69,3.34,13.09,1.72,22.15-2.32,12.94-7.57,23.2-15.51,30.71-5.72,5.44-11.64,8-17.42,7.81a13.85,13.85,0,0,1-7.19-2,19.79,19.79,0,0,1-5.6-6.26c-.28-.42-.55-.63-.79-.64a12.5,12.5,0,0,0-2.93,1.15,5.6,5.6,0,0,1-2.71.56c-1.69-.07-2.24-1-1.67-2.73a12.9,12.9,0,0,1,.84-2,75.68,75.68,0,0,0,4.28-10.53c1.38-4.19,3.31-10.84,5.37-19.94q2-9.06,3.58-18.12a55.65,55.65,0,0,0,1-8.48,3.45,3.45,0,0,0-1.33-2.72,7.77,7.77,0,0,1-2.34-2.9,7.14,7.14,0,0,1-.31-3.59q.53-4.38,6.31-8.51a32.88,32.88,0,0,1,7.65-3.83,22.62,22.62,0,0,1,7.61-1.6C772.42,481.61,773,482.94,772.76,485.58Zm-2,40.39c-1.39,0-2.55.76-3.49,2.37-.73,1.22-1.47,3.73-2.28,7.52-2.25,10.35-3.93,17.33-4.47,21-.54,3.36.12,5.08,2,5.15s3.86-1.25,5.6-4,3.25-6.67,4.45-11.88c1.76-7.69,2-13.33,1-16.9Q772.71,526.15,770.71,526Z"/><path d="M819.47,520.41q-1.31,10.79-3,21.55c-1.55,9.53-2.57,15.09-2.69,16.66a4.16,4.16,0,0,0,1.3,3.67,4,4,0,0,1,1.58,4.77,9.65,9.65,0,0,1-1.79,4,7.15,7.15,0,0,1-3.11,2.48q-3.3,1.4-10.37,1.19-8-.25-10.7-2.29a4.76,4.76,0,0,1-1.74-2.78,7.8,7.8,0,0,1,0-3.87,6,6,0,0,1,1.1-2.45,10.79,10.79,0,0,1,2.7-2c1.22-.72,2.34-2.77,3.3-6.15a215,215,0,0,0,5.24-24.71c1.71-10.87,2.31-17.87,2.32-21s-.65-5.45-1.91-7a8.48,8.48,0,0,1-1.88-3.06,9.18,9.18,0,0,1-.27-3.51,10.27,10.27,0,0,1,2.24-5.69,18.11,18.11,0,0,1,6-4.45,40.21,40.21,0,0,1,6.89-2.63,24.82,24.82,0,0,1,6.07-1.23c2,0,2.87,2.22,2.62,6.6-.09,1.44-.41,4.73-1.07,9.87C821.27,506.41,820.32,513.75,819.47,520.41Z"/><path d="M859.66,544.37l-18.57-.3q-1.22,0-1.47,1.8a12.82,12.82,0,0,0,1.63,8.32c1.5,2.63,3.35,4,5.52,4a10.11,10.11,0,0,0,4.46-1.17,14.92,14.92,0,0,0,4.27-3c1-1.06,1.82-1.59,2.35-1.59.7,0,1.29.75,1.78,2.21a10,10,0,0,1,.45,4.48,16.36,16.36,0,0,1-4.9,9.36c-5.1,5.29-10.63,7.87-16.36,7.74s-10.13-3-13-8.57a31.73,31.73,0,0,1-2.84-9.87,56.81,56.81,0,0,1,.29-16.06A60.46,60.46,0,0,1,830,521.46c2.85-5.17,6.06-9,9.74-11.54a14.63,14.63,0,0,1,8.66-2.81q7.23.08,11.79,7.43a28.6,28.6,0,0,1,3.48,8.71,34.29,34.29,0,0,1,.85,11.14,21.08,21.08,0,0,1-1.76,7.2C861.82,543.46,860.79,544.38,859.66,544.37Zm-16-12.91,3.93.06c1.66,0,2.64-1.3,2.91-4a12.3,12.3,0,0,0-.63-6q-1-2.31-2.91-2.34-2.15,0-3.67,2.93a15.67,15.67,0,0,0-1.75,5.58,5,5,0,0,0,.25,2.85A2,2,0,0,0,843.66,531.46Z"/><path d="M907.34,528.87c-3.84,11.42-7.91,22.84-12.29,34.24a64.82,64.82,0,0,1-5.11,11c-1.34,2-2.69,3.07-4,3s-2.27-.8-2.9-2.35a56,56,0,0,1-3.3-10.53c-2.6-12.26-5.21-24.51-7.93-36.74a17.37,17.37,0,0,0-1.39-4.33,4.81,4.81,0,0,0-2.14-2c-1.88-1-2.71-2.88-2.52-5.59a6.87,6.87,0,0,1,4-6q3.71-1.87,11.43-1.81c4.32,0,7.47.6,9.47,1.72a5.26,5.26,0,0,1,2.85,5.16,8.8,8.8,0,0,1-1.69,4.69,13.71,13.71,0,0,0-1.31,2.23,5.69,5.69,0,0,0-.38,1.9,28.79,28.79,0,0,0,1.26,7.7c.92,3.51,1.88,5.26,2.87,5.27.66,0,1.22-.42,1.68-1.28a61.63,61.63,0,0,0,2.63-6.65,22.59,22.59,0,0,0,1.49-6,8.1,8.1,0,0,0-1.06-3.89,9.64,9.64,0,0,1-1.1-4.57,5.25,5.25,0,0,1,2.61-4.68c1.65-.94,4.31-1.41,8-1.39q7.77,0,7.62,6a5.52,5.52,0,0,1-3,5,7.75,7.75,0,0,0-3.08,2.64A51.72,51.72,0,0,0,907.34,528.87Z"/><path d="M952,507.63a21.93,21.93,0,0,1,6.22,1.49,4.85,4.85,0,0,0,1.45.28,6.59,6.59,0,0,0,2.51-1.24,2.72,2.72,0,0,1,1.47-.61q1.75,0,3.6,4a40.18,40.18,0,0,1,2.49,7,30.07,30.07,0,0,1,1,6.62,8.67,8.67,0,0,1-1,4.54,3.09,3.09,0,0,1-2.68,1.81,3.28,3.28,0,0,1-2.45-1.15,36.43,36.43,0,0,1-3.5-5.12c-1.68-2.81-3-4.22-4.13-4.22-.72,0-1.34.47-1.86,1.4a6.59,6.59,0,0,0-.77,3.31c0,2.23,1.23,4.32,3.69,6.28a42.14,42.14,0,0,1,10.32,11.3A25.69,25.69,0,0,1,971.71,556c.19,6.32-1.27,11.61-4.49,15.85a12.64,12.64,0,0,1-10.47,5.55,33.64,33.64,0,0,1-5.87-.88q-4-.75-4.5-.75a4.67,4.67,0,0,0-1.23.2,8.28,8.28,0,0,1-1.74.27,3.44,3.44,0,0,1-3-1.64,26.71,26.71,0,0,1-3-8,37.2,37.2,0,0,1-1.24-9.31q.11-6.29,3-6.28a2.6,2.6,0,0,1,2,1.27c.61.84,1.9,3.09,3.88,6.73a20.34,20.34,0,0,0,2.73,4.13,3.24,3.24,0,0,0,2.35,1.12,2.46,2.46,0,0,0,2.14-1.19,5.48,5.48,0,0,0,.79-3.17c0-2.05-1-3.92-3.1-5.6a34.24,34.24,0,0,1-9.17-11.13A29.4,29.4,0,0,1,938.14,530a32.69,32.69,0,0,1,3-14C943.79,510.42,947.39,507.63,952,507.63Z"/><path d="M992.57,507.87c1.55,0,2.53.23,2.92.7s.63,1.67.7,3.58c.06,1.68.4,2.52,1,2.51.25,0,1.07-.87,2.46-2.6a12.72,12.72,0,0,1,4.05-3.32,9.74,9.74,0,0,1,4.53-1.36c3.23,0,6.19,2,9,5.93a40.7,40.7,0,0,1,5.25,11.44,74.15,74.15,0,0,1,2.92,15.26c1,11.4-.2,20.82-4,28.27-2.94,5.8-6.75,8.74-11.36,8.8a13.09,13.09,0,0,1-7.46-2.64,2.45,2.45,0,0,0-1.23-.54c-.83,0-1.13,1.38-.91,4.1.29,3.59,1.24,6.17,2.87,7.74a23.42,23.42,0,0,1,2.74,3,8.22,8.22,0,0,1-1.57,9q-2.65,2.25-7.91,2.31a25.36,25.36,0,0,1-16.65-5.79,9.78,9.78,0,0,1-3.87-7.42,7,7,0,0,1,.39-3.1,6.56,6.56,0,0,1,1.92-2.23c1.39-1.1,2.17-3.09,2.35-6s0-11.1-.38-24.69c-.62-11.19-1-17.46-1.37-18.82a1.62,1.62,0,0,0-.47-.89,12.4,12.4,0,0,0-2-.74,3.68,3.68,0,0,1-2.07-2,8.86,8.86,0,0,1-.87-3.86,10.31,10.31,0,0,1,1-4.81,13.2,13.2,0,0,1,3.4-4.07C984.06,510.57,988.92,508,992.57,507.87Zm4.88,25.73q.18,9.36.48,18.73c0,.78.06,1.52.1,2.25a5.4,5.4,0,0,0,1.31,3.4,3.8,3.8,0,0,0,3,1.26c3.72,0,5.12-5.2,4.4-15.5-.46-6.67-1.49-11.36-3.15-14.07-1-1.67-2.17-2.5-3.47-2.49Q997.37,527.2,997.45,533.6Z"/><path d="M1047.34,511.81q1.53,19.63,4.15,39.28a33.37,33.37,0,0,0,1.44,6.82,11.12,11.12,0,0,0,2.63,4,12.66,12.66,0,0,1,2.08,2.5,7.93,7.93,0,0,1,.85,2.66c1,5.8-3,8.82-12,9a30.25,30.25,0,0,1-11.78-1.69,6,6,0,0,1-2.63-2.34,9,9,0,0,1-1.36-3.85,7,7,0,0,1,.11-2.86,14.78,14.78,0,0,1,1.88-3.29,10,10,0,0,0,1.18-5.11,85.86,85.86,0,0,0-.64-10.52c-.15-1.49-.5-4.28-1-8.37s-.78-6.48-.89-7.16a6.32,6.32,0,0,0-2.53-4.25,6.79,6.79,0,0,1-2.79-5.4c-.2-2.85.7-5,2.67-6.41a48.33,48.33,0,0,1,8.85-5,20.82,20.82,0,0,1,7.41-2.1C1046.33,507.62,1047.12,509,1047.34,511.81Zm-9.13-29.58a6.77,6.77,0,0,1,5.27,2.18,9.08,9.08,0,0,1,2.17,5.9c.17,3.47-.65,6.23-2.48,8.27a14.17,14.17,0,0,1-10.91,4.9,5.76,5.76,0,0,1-4.51-1.87,10,10,0,0,1-2.51-6.77,10.24,10.24,0,0,1,4.29-9.18Q1034.12,482.26,1038.21,482.23Z"/><path d="M1068.85,506.9a24,24,0,0,1,6.35,1.4,4.89,4.89,0,0,0,1.48.25,5.83,5.83,0,0,0,2.4-1.24,2.52,2.52,0,0,1,1.42-.62c1.17,0,2.47,1.29,4,3.91a45.69,45.69,0,0,1,3.17,6.86,31.67,31.67,0,0,1,1.77,6.48,7.87,7.87,0,0,1-.46,4.47,2.7,2.7,0,0,1-2.46,1.83,3.66,3.66,0,0,1-2.59-1.09,40.83,40.83,0,0,1-4.11-5c-2-2.75-3.51-4.12-4.59-4.1q-1.08,0-1.71,1.41a6.08,6.08,0,0,0-.41,3.27q.4,3.3,4.45,6.12a51.23,51.23,0,0,1,11.84,10.94,29.35,29.35,0,0,1,5.32,12.38c1.23,6.21.74,11.43-1.67,15.68a10.44,10.44,0,0,1-9.38,5.74,37.12,37.12,0,0,1-6-.72q-4.15-.64-4.65-.63a4.42,4.42,0,0,0-1.2.23,8.43,8.43,0,0,1-1.68.32,4.21,4.21,0,0,1-3.35-1.55,30.86,30.86,0,0,1-4.49-7.79,38.43,38.43,0,0,1-2.88-9.18c-.62-4.15.06-6.23,2-6.27a3.06,3.06,0,0,1,2.24,1.21c.75.82,2.39,3,5,6.56a24.48,24.48,0,0,0,3.44,4,3.82,3.82,0,0,0,2.55,1.06,2.06,2.06,0,0,0,1.93-1.23,5,5,0,0,0,.24-3.15c-.36-2-1.71-3.83-4-5.45a40.2,40.2,0,0,1-10.87-10.8,30,30,0,0,1-4.41-13,29.12,29.12,0,0,1,1.4-13.87C1060.9,509.76,1064.29,507,1068.85,506.9Z"/><path d="M1116.15,523.66q1.85,11.24,4.33,22.46a17.43,17.43,0,0,0,2.66,6.47c1.19,1.66,2.41,2.47,3.64,2.43q1.58-.06,3.54-2.52a1.35,1.35,0,0,1,1-.64q1,0,2.25,1.86a13.85,13.85,0,0,1,1.9,4.15,11.76,11.76,0,0,1-.58,8c-2.33,5.48-6.27,8.34-11.85,8.54-4.41.15-8.52-1.73-12.17-5.68s-6.2-9.21-7.58-15.8q-3.22-15.43-5.42-30.86a5.55,5.55,0,0,0-.48-1.9c-.18-.25-.56-.36-1.15-.35l-4,.07a1.62,1.62,0,0,1-1.51-.61,9.23,9.23,0,0,1-.68-3c-.12-1-.24-2-.35-2.95a4.16,4.16,0,0,1,.54-3c5.12-6.51,10.27-13,15.51-19.45a2.08,2.08,0,0,1,1.54-.62l3.05,0a1.34,1.34,0,0,1,1.33.75,10,10,0,0,1,.59,3q.4,4.48.92,9a6.17,6.17,0,0,0,.67,2.59,1.87,1.87,0,0,0,1.61.57l7-.12a2,2,0,0,1,1.94.86,11.94,11.94,0,0,1,1,3.8c.19,1.3.38,2.6.58,3.9a12.14,12.14,0,0,1,.16,4.41,1.65,1.65,0,0,1-1.76,1.27l-7,.16c-.72,0-1.17.24-1.36.69A5.38,5.38,0,0,0,1116.15,523.66Z"/><path d="M1135.2,482.45c2.23,0,4.21,1.36,6,4.15,2.41,3.65,4,8.84,4.91,15.58a108.19,108.19,0,0,1,.94,14.43,85.46,85.46,0,0,1-.92,13.86c-.74,4.61-1.6,6.94-2.68,7s-3.24-2.84-6.32-8.64a85.84,85.84,0,0,1-5.81-13.78,72.79,72.79,0,0,1-3.11-13.52,32.11,32.11,0,0,1,.6-12.64C1130,484.61,1132.19,482.48,1135.2,482.45Zm10.38,62.23c2.3-.08,4.62,1.28,7.05,4.07a26,26,0,0,1,5.35,9.76c1.2,3.89,1.44,7.28.63,10.18s-2.43,4.41-4.89,4.51-4.89-1.11-7.4-3.64a23.42,23.42,0,0,1-5.82-10.33c-1.07-3.84-1.13-7.1-.24-9.79C1141.24,546.34,1143,544.76,1145.58,544.68Z"/><g class="cls-27"><rect class="cls-29" x="471" y="653" width="308" height="123"/><rect class="cls-30" x="471" y="653" width="308" height="123"/></g><path class="cls-31" d="M580,672h32l11.5,23.22L635,672h32l-24,35.17L672,751H638l-14.5-31.54L609,751H576l28.24-43.83Z"/><path d="M488.51,688.22c6.43,0,6.44-10,0-10s-6.45,10,0,10Z"/><path d="M486.62,744.94c6.43,0,6.44-10,0-10s-6.45,10,0,10Z"/><path d="M753.21,692c6.44,0,6.45-10,0-10s-6.44,10,0,10Z"/><path d="M751.32,744.94c6.44,0,6.45-10,0-10s-6.44,10,0,10Z"/></svg>
