<svg id="Layer_1" data-name="Layer 1" xmlns="http://www.w3.org/2000/svg" xmlns:xlink="http://www.w3.org/1999/xlink" viewBox="0 0 1920 870"><defs><style>.cls-1,.cls-14,.cls-5{fill:none;stroke:#000;stroke-miterlimit:10;}.cls-1{stroke-width:3px;}.cls-2{opacity:0.26;}.cls-3{fill:#ea9e87;}.cls-4{fill:#998675;}.cls-5{stroke-linecap:round;}.cls-6{fill:#c7b299;}.cls-7{fill:#fff;}.cls-8{fill:#c69c6d;}.cls-9{fill:#ff9bac;}.cls-10{fill:#4d4d4d;}.cls-11{fill:#666;}.cls-12{fill:gray;}.cls-13{filter:url(#AI_BevelShadow_1);}.cls-14{stroke-width:20px;}</style><filter id="AI_BevelShadow_1" x="-20" y="-20" width="140" height="140" name="AI_BevelShadow_1"><feGaussianBlur result="blur" stdDeviation="4" in="SourceAlpha"/><feOffset result="offsetBlur" dx="4" dy="4" in="blur"/><feSpecularLighting result="specOut" surfaceScale="5" specularExponent="10" in="blur"><fePointLight x="-5000" y="-10000" z="-20000"/></feSpecularLighting><feComposite result="specOut" operator="in" in="specOut" in2="SourceAlpha"/><feComposite result="litPaint" operator="arithmetic" k2="1" k3="1" in="SourceGraphic" in2="specOut"/><feMerge><feMergeNode in="offsetBlur"/><feMergeNode in="litPaint"/></feMerge></filter></defs><title>gameover</title><line class="cls-1" x1="130.16" y1="665.27" x2="317.35" y2="665.27"/><ellipse class="cls-2" cx="1738.5" cy="830" rx="148.5" ry="29"/><path class="cls-3" d="M1611.43,708.13A44.11,44.11,0,0,1,1568,674.54c-5-20.37,6.72-39.21,16.56-56.08,10.53-18,20.79-36.8,18.51-58.37-2-18.8-9.63-36.68-23.07-50.14-15.94-16-38.64-23-58.26-8.93-3.31,2.38-4.82,6.51-2.69,10.27,1.87,3.27,7,5,10.27,2.69,7.82-5.61,16.31-7.7,25.43-3.85,7.13,3,13.12,8.41,18.14,14.19,11.26,13,17.72,32.66,15.17,49.8-1.57,10.51-7.2,20.53-12.35,29.66-4.82,8.56-10.09,16.88-14.43,25.7-9.15,18.62-13,38.84-4.49,58.48,9.34,21.67,31.21,35.29,54.67,35.17,9.65,0,9.67-15,0-15Z"/><circle class="cls-4" cx="1678" cy="489" r="36"/><path class="cls-5" d="M1678.4,529.38a28.27,28.27,0,1,0-19.47-53.09"/><circle class="cls-4" cx="1810" cy="489" r="36"/><path class="cls-5" d="M1808.47,529.38a28.27,28.27,0,0,1,19.47-53.09"/><path class="cls-6" d="M1864,650c35,85-32.32,135-124,135s-162.83-46.5-124-135c43-98,52-167.5,124-172C1820,473,1838.72,588.59,1864,650Z"/><path class="cls-4" d="M1759.47,603.92c-7.48,18.72-16.45,35.18-20,38.67-3.73,3.71-11.23-18.71-20-38.67-9-20.6,5.52-39.09,20-39.91S1768.71,580.82,1759.47,603.92Z"/><circle class="cls-7" cx="1710.5" cy="561.5" r="28.5"/><circle class="cls-7" cx="1767.5" cy="561.5" r="28.5"/><path class="cls-8" d="M1739.17,564c-1.81-9.06,2.68-22.74,15.83-29,12.29-5.85,27.71-.77,33.17,7Z"/><circle cx="1714" cy="563" r="7"/><circle cx="1762" cy="563" r="7"/><circle class="cls-9" cx="1738.5" cy="653.5" r="10.5"/><path class="cls-8" d="M1738.79,564c1.81-9.06-2.68-22.74-15.83-29-12.3-5.85-27.72-.77-33.17,7"/><rect x="1801" y="628" width="3" height="77" rx="1.5"/><rect x="1794" y="701" width="3" height="21" transform="translate(857.99 -977.03) rotate(39.34)"/><rect x="1808" y="701" width="3" height="21" transform="translate(3659.97 114.6) rotate(140.66)"/><rect x="1801" y="703" width="3" height="21"/><rect x="1678" y="628" width="3" height="77" rx="1.5"/><rect x="1671" y="701" width="3" height="21" transform="translate(830.11 -899.05) rotate(39.34)"/><rect x="1685" y="701" width="3" height="21" transform="translate(3441.84 192.57) rotate(140.66)"/><rect x="1678" y="703" width="3" height="21"/><rect class="cls-6" x="1762" y="781" width="15" height="38"/><path class="cls-6" d="M1795,837l-29.22-11.15a5.49,5.49,0,0,1-3.54-6.92l.63-2a5.51,5.51,0,0,1,6.93-3.54L1801,820c2.89.93,3.48,7.22,2.55,10.11l-.63,2C1802,835,1797.89,837.93,1795,837Z"/><circle class="cls-6" cx="1800" cy="835" r="5"/><circle class="cls-6" cx="1805" cy="824" r="5"/><circle class="cls-6" cx="1804" cy="830" r="5"/><rect class="cls-6" x="1700" y="781" width="15" height="38" transform="translate(3415 1600) rotate(-180)"/><path class="cls-6" d="M1682,837l29.22-11.15a5.49,5.49,0,0,0,3.54-6.92l-.63-2a5.51,5.51,0,0,0-6.93-3.54L1676,820c-2.89.93-3.48,7.22-2.55,10.11l.63,2C1675,835,1679.11,837.93,1682,837Z"/><circle class="cls-6" cx="1677" cy="835" r="5"/><circle class="cls-6" cx="1672" cy="824" r="5"/><circle class="cls-6" cx="1673" cy="830" r="5"/><polyline class="cls-3" points="1531.69 512.45 1509 526 1519.28 503.65"/><ellipse class="cls-2" cx="234.5" cy="821" rx="148.5" ry="29"/><path class="cls-3" d="M107.43,699.13A44.11,44.11,0,0,1,64,665.54c-5-20.37,6.72-39.21,16.56-56.08,10.53-18,20.79-36.8,18.51-58.37-2-18.8-9.63-36.68-23.07-50.14C60,485,37.33,478,17.71,492c-3.31,2.38-4.82,6.51-2.69,10.27,1.87,3.27,7,5,10.27,2.69,7.82-5.61,16.31-7.7,25.43-3.85,7.13,3,13.12,8.41,18.14,14.19,11.26,13,17.72,32.66,15.17,49.8-1.57,10.51-7.2,20.53-12.35,29.66-4.82,8.56-10.09,16.88-14.43,25.7-9.15,18.62-13,38.84-4.49,58.48,9.34,21.67,31.21,35.29,54.67,35.17,9.65,0,9.67-15,0-15Z"/><circle class="cls-10" cx="174" cy="480" r="36"/><path class="cls-5" d="M174.4,520.38a28.27,28.27,0,1,0-19.47-53.09"/><circle class="cls-10" cx="306" cy="480" r="36"/><path class="cls-5" d="M304.47,520.38a28.27,28.27,0,0,1,19.47-53.09"/><path class="cls-11" d="M360,641c35,85-32.32,135-124,135S73.17,729.5,112,641c43-98,52-167.5,124-172C316,464,334.72,579.59,360,641Z"/><path class="cls-10" d="M255.47,594.92c-7.48,18.72-16.45,35.18-20,38.67-3.73,3.71-11.23-18.71-20-38.67-9-20.6,5.52-39.09,20-39.91S264.71,571.82,255.47,594.92Z"/><circle class="cls-7" cx="206.5" cy="552.5" r="28.5"/><circle class="cls-7" cx="263.5" cy="552.5" r="28.5"/><path class="cls-12" d="M235.17,555c-1.81-9.06,2.68-22.74,15.83-29,12.29-5.85,27.71-.77,33.17,7Z"/><circle cx="210" cy="554" r="7"/><circle cx="258" cy="554" r="7"/><circle class="cls-9" cx="234.5" cy="644.5" r="10.5"/><path class="cls-12" d="M234.79,555c1.81-9.06-2.68-22.74-15.83-29-12.3-5.85-27.72-.77-33.17,7"/><rect x="297" y="619" width="3" height="77" rx="1.5"/><rect x="290" y="692" width="3" height="21" transform="translate(511.42 -25.59) rotate(39.34)"/><rect x="304" y="692" width="3" height="21" transform="translate(987.12 1052.11) rotate(140.66)"/><rect x="297" y="694" width="3" height="21"/><rect x="174" y="619" width="3" height="77" rx="1.5"/><rect x="167" y="692" width="3" height="21" transform="translate(483.55 52.39) rotate(39.34)"/><rect x="181" y="692" width="3" height="21" transform="translate(769 1130.09) rotate(140.66)"/><rect x="174" y="694" width="3" height="21"/><rect class="cls-11" x="258" y="772" width="15" height="38"/><path class="cls-11" d="M291,828l-29.22-11.15a5.49,5.49,0,0,1-3.54-6.92l.63-2a5.51,5.51,0,0,1,6.93-3.54L297,811c2.89.93,3.48,7.22,2.55,10.11l-.63,2C298,826,293.89,828.93,291,828Z"/><circle class="cls-11" cx="296" cy="826" r="5"/><circle class="cls-11" cx="301" cy="815" r="5"/><circle class="cls-11" cx="300" cy="821" r="5"/><rect class="cls-11" x="196" y="772" width="15" height="38" transform="translate(407 1582) rotate(-180)"/><path class="cls-11" d="M178,828l29.22-11.15a5.49,5.49,0,0,0,3.54-6.92l-.63-2a5.51,5.51,0,0,0-6.93-3.54L172,811c-2.89.93-3.48,7.22-2.55,10.11l.63,2C171,826,175.11,828.93,178,828Z"/><circle class="cls-11" cx="173" cy="826" r="5"/><circle class="cls-11" cx="168" cy="815" r="5"/><circle class="cls-11" cx="169" cy="821" r="5"/><polyline class="cls-3" points="27.69 503.44 5 517 15.28 494.65"/><g class="cls-13"><rect class="cls-10" x="381" y="12" width="1140" height="661" rx="204.51"/><rect class="cls-14" x="381" y="12" width="1140" height="661" rx="204.51"/></g><path d="M626.85,125.85c.39-2.2.78-4.4,1.15-6.6a.84.84,0,0,1,.89-.72,3.84,3.84,0,0,1,2.43,1.14l1.32,1.08a9.09,9.09,0,0,1,2,2.28,3.43,3.43,0,0,1,.52,2.32c-.41,2-.84,4.05-1.27,6.07a1.26,1.26,0,0,0,0,.9,9.54,9.54,0,0,0,1.38,1.41A78.06,78.06,0,0,1,646,146a69.31,69.31,0,0,1,7.76,13.83c4.2,10.22,5.12,19.3,3.37,27.16-1.49,6.68-4.77,11.49-9.51,14.47a17.78,17.78,0,0,1-9.24,2.89c-4.62.13-9.42-1.46-14.61-4.74a39.7,39.7,0,0,1-6.81-5.23c-.42-.44-.71-.65-.86-.65s-.22.2-.37.57c-.79,1.83-1.62,3.67-2.46,5.49-.33.66-.63,1-.91,1a2.2,2.2,0,0,1-1.64-.92c-.42-.47-.84-1-1.27-1.42a4.8,4.8,0,0,1-1-1.86,3.08,3.08,0,0,1,.1-2.26q1.08-2.72,2.08-5.43a1.36,1.36,0,0,0,.11-.81,6.25,6.25,0,0,0-1-1.31,118.59,118.59,0,0,1-8.4-11.47q-4.18-6.43-7.65-13.07c-5.12-9.82-8.67-18.62-9.86-26.47-1-6.64.1-11.65,3.81-15a16.15,16.15,0,0,1,9.9-4c5.58-.44,11.86.82,18.56,3.8a51.32,51.32,0,0,1,9.25,5.19,2.13,2.13,0,0,0,1,.58Q626.73,126.32,626.85,125.85Zm-8.17,37.78c1.31-4.75,2.5-9.54,3.6-14.35a4.46,4.46,0,0,0-.14-3c-.55-1-2.14-2.81-4.86-5.32-4.81-4.43-8.7-6.54-11.35-6.35-1.95.14-2.82,1.47-2.67,4s1.25,5.5,3.22,9,4.15,7,6.69,10.84c1.36,2.07,2.05,3.16,2.14,3.28,1.31,2.24,2.18,3.34,2.68,3.31C618.21,165,618.44,164.57,618.68,163.63Zm9.45-6.74q-1.89,7.17-4.09,14.25a4.66,4.66,0,0,0-.22,2.77,33,33,0,0,0,4.19,5.94c3.34,4.14,6.15,6.17,8.71,6.07,2-.08,3.22-1.29,3.6-3.63s-.13-5.5-1.65-9.47a92.08,92.08,0,0,0-7.17-14.15c-1.33-2.17-2.22-3.24-2.62-3.22C628.64,155.46,628.39,156,628.13,156.89Z"/><path d="M698.47,156.71a318.37,318.37,0,0,1-.78,32.72,45.87,45.87,0,0,1-1.7,10.5c-.7,2-1.67,3-2.88,3s-2.28-.67-3.3-2.1a97.17,97.17,0,0,1-6.21-9.67,305.51,305.51,0,0,0-22.09-33.68,24.9,24.9,0,0,0-3.45-3.92,8.87,8.87,0,0,0-3.2-1.73,8.93,8.93,0,0,1-5.42-5c-1.21-2.55-.85-4.49,1.14-5.82s5.76-2.16,11.32-2.48c4.65-.26,8.32.07,11,1a8.4,8.4,0,0,1,5.38,4.64,6.35,6.35,0,0,1,.29,4.48,9.45,9.45,0,0,0-.4,2.17,5.24,5.24,0,0,0,.43,1.8,41.17,41.17,0,0,0,4.47,7.13c2.35,3.22,4,4.81,5,4.77.66,0,1.06-.45,1.21-1.28a41.82,41.82,0,0,0,.11-6.38,18.23,18.23,0,0,0-.84-5.69,10.71,10.71,0,0,0-2.71-3.59,13.68,13.68,0,0,1-3.13-4.22c-.85-2-.63-3.57.72-4.56s4-1.59,8-1.79c5.58-.29,9.16,1.47,10.61,5.26.84,2.2.44,3.84-1.16,4.92a4.77,4.77,0,0,0-2.19,2.66A37.3,37.3,0,0,0,698.47,156.71Z"/><path d="M717.61,170.66a7.4,7.4,0,0,1,4.19,1.4,15.58,15.58,0,0,1,4.15,4,37.57,37.57,0,0,1,6.27,15.52,56.88,56.88,0,0,1,.82,11.71,58.52,58.52,0,0,1-1.43,11.78c-1.37,5.75-3.25,8.62-5.39,8.64a3.53,3.53,0,0,1-2.7-1.46,6,6,0,0,1-1.47-3.41,21.44,21.44,0,0,1,.89-5,35.16,35.16,0,0,0,.86-5.27,19.57,19.57,0,0,0,0-4.41A4.07,4.07,0,0,0,722,201a15.65,15.65,0,0,1-4.16-3.09,26.27,26.27,0,0,1-5.63-11.85,20.16,20.16,0,0,1-.13-10C713.11,172.56,714.92,170.76,717.61,170.66Z"/><path d="M784.63,113.14a490.77,490.77,0,0,1,13.8,61,62.21,62.21,0,0,0,1.26,6.67,7.24,7.24,0,0,0,1.81,2.85,12.43,12.43,0,0,1,2.26,2.9,9.34,9.34,0,0,1,.86,3.07c.43,3.57-1.33,6.32-5.2,8.25a25.37,25.37,0,0,1-10.76,2.63,1.84,1.84,0,0,1-1.65-.61,9.2,9.2,0,0,1-.83-3c-.4-2.25-1-3.38-1.8-3.36-.43,0-1,.68-1.77,2-2.12,3.71-4.79,5.59-8,5.64-3.93.07-7.74-2.41-11.65-7.4a57.73,57.73,0,0,1-6.27-10.37,73.15,73.15,0,0,1-5.58-15.52,58.62,58.62,0,0,1-1.5-18c.44-5.38,1.84-9.56,4.36-12.55a9.93,9.93,0,0,1,7.32-3.89,15.42,15.42,0,0,1,9.51,3.14,2.37,2.37,0,0,0,1.12.5c.87,0,.8-1.95-.28-5.76a9.61,9.61,0,0,0-1.81-3.73,8.35,8.35,0,0,0-3.26-2.12,6.88,6.88,0,0,1-4.08-4.54c-1-3.23.14-5.83,3.65-7.81,6.22-3.44,10.63-5.21,13.11-5.3S783.56,109.49,784.63,113.14Zm-13.22,34.24c-1.74.06-2.73,1.63-3,4.71-.36,4.11.24,9.46,1.62,16.08,1.24,6,2.67,10.51,4.45,13.53,1.27,2.18,2.66,3.26,4.2,3.23s2.63-1.73,2.84-5.09-.33-8.76-1.85-16.2c-1.4-6.82-2.94-11.34-4.41-13.57C774.12,148.32,772.83,147.43,771.41,147.38Z"/><path d="M820.33,136.22q3.81,19.53,6.26,39.08a37.57,37.57,0,0,0,1.3,6.78,11.06,11.06,0,0,0,2.37,3.95,10.91,10.91,0,0,1,1.85,2.5,7.6,7.6,0,0,1,.66,2.65c.54,5.8-3.4,8.73-11.67,8.83a25.87,25.87,0,0,1-10.78-1.74,5.55,5.55,0,0,1-2.39-2.31,9.37,9.37,0,0,1-1.24-3.8,7.38,7.38,0,0,1,.09-2.82,15.47,15.47,0,0,1,1.75-3.24,9.91,9.91,0,0,0,1.05-5,69.12,69.12,0,0,0-1-10.39c-.23-1.48-.71-4.23-1.52-8.27s-1.35-6.39-1.52-7.06a6.83,6.83,0,0,0-3-4.16,7.77,7.77,0,0,1-3.58-5.28c-.6-2.81,0-4.94,1.91-6.38a43.35,43.35,0,0,1,8.71-5.17,21.64,21.64,0,0,1,7.69-2.23C818.75,132.07,819.79,133.44,820.33,136.22Zm-15-29.2a9.7,9.7,0,0,1,6.46,2,10,10,0,0,1,3.58,5.82c.8,3.45.33,6.22-1.36,8.29-2.67,3.28-6.37,5-11.13,5.12a7.64,7.64,0,0,1-5.25-1.72,12,12,0,0,1-4.14-6.62c-1-3.83-.14-6.9,2.75-9.21A15.25,15.25,0,0,1,805.34,107Z"/><path d="M878.89,155.49q1.33,12,2.38,23.91a16.41,16.41,0,0,0,.74,4,41,41,0,0,0,2.64,4.94,6.73,6.73,0,0,1,.73,3.05c.15,3-.76,5.09-2.7,6.28s-5.49,1.8-10.63,1.84q-5.25,0-7.51-1.57c-1.56-1.12-2.42-2.94-2.6-5.47a6.49,6.49,0,0,1,.09-2c.13-.43.56-1.49,1.31-3.17.87-1.9,1-8.23-.05-19-.59-6.23-1.51-10.84-2.7-13.81-1-2.38-2.38-3.56-4.24-3.53s-2.88,1-3.3,3-.32,5.47.25,10.57q.74,6.69,1.36,13.39a36.45,36.45,0,0,0,.78,5.48,49.48,49.48,0,0,0,2.36,5.73,8.67,8.67,0,0,1,.62,2.77,6,6,0,0,1-2.71,5.92q-3,1.92-9.61,2c-7,.06-10.74-2.48-11.21-7.64a6.91,6.91,0,0,1,.1-2.47,9.53,9.53,0,0,1,1.32-2.41,5.83,5.83,0,0,0,1-2.95,79.51,79.51,0,0,0-.37-8.13q-.6-7.69-1.76-16.12a27.19,27.19,0,0,0-1.3-6.09,11.3,11.3,0,0,0-3-3.49,7.4,7.4,0,0,1-2.45-4.41,6.14,6.14,0,0,1,.66-4.45c.74-1.16,2.43-2.66,5.09-4.48a59.1,59.1,0,0,1,6.89-4,14.13,14.13,0,0,1,4.74-1.7,2.9,2.9,0,0,1,2.31,1.45,7.83,7.83,0,0,1,1.37,3.5c0,.14.09.7.21,1.69,0,.37.06.68.1,1,.31,2.17,1,3.24,2.08,3.22.64,0,1.21-.88,1.7-2.61q2.31-8.46,9-8.58c3.45-.06,6.6,1.38,9.39,4.33a20.39,20.39,0,0,1,4.39,7.46A65.36,65.36,0,0,1,878.89,155.49Z"/><path d="M923.19,130.36c1.45,0,2.35.33,2.69,1s.69,2.86,1.06,6.54q.3,3,1.35,3c.54,0,1-.67,1.48-2,2-5.69,4.79-8.54,8.32-8.55,2.49,0,4.55,1.33,6.15,4a19.06,19.06,0,0,1,1.9,5.09A25.07,25.07,0,0,1,946,152a19.92,19.92,0,0,1-2.23,5.56c-1.67,2.78-3.71,4.17-6.15,4.17a4.9,4.9,0,0,1-3.38-1.22,24.42,24.42,0,0,1-3.68-5c-.58-1-1.11-1.43-1.58-1.43-.74,0-1.21.72-1.39,2.16a73.58,73.58,0,0,0-.1,9q.26,10.29.74,14.05a8.08,8.08,0,0,0,.81,2.83,5.37,5.37,0,0,0,2.08,1.6c2.33,1.22,3.51,3.36,3.54,6.4a10,10,0,0,1-1.05,4.89,5.44,5.44,0,0,1-2.89,2.76q-3.63,1.38-10.7,1.39-6.72,0-10.27-2.08-3.18-1.89-3.34-6.59a9.46,9.46,0,0,1,2.08-6.35,8.27,8.27,0,0,0,1.45-2.36,10,10,0,0,0,.48-2.9c.25-4.13.18-11.79-.37-23a17.14,17.14,0,0,0-.62-4.39,4.12,4.12,0,0,0-1.71-2.14,6.67,6.67,0,0,1-3.17-5.49,8.06,8.06,0,0,1,1.63-5.64,19.21,19.21,0,0,1,6.4-4.72C916.7,131.52,920.24,130.43,923.19,130.36Z"/><path d="M972.21,134.65q-.66,19.82-1.1,39.63a34.73,34.73,0,0,0,.34,6.89,9.66,9.66,0,0,0,1.86,4,9.94,9.94,0,0,1,1.54,2.56,7.47,7.47,0,0,1,.35,2.69c-.13,5.87-4.31,8.79-12.59,8.78-4.46,0-8-.64-10.6-1.92a4.92,4.92,0,0,1-2.14-2.39,8.82,8.82,0,0,1-.82-3.89,7.43,7.43,0,0,1,.42-2.87,17.08,17.08,0,0,1,2.15-3.27,11.4,11.4,0,0,0,1.7-5.12,81,81,0,0,0,.55-10.58q0-2.25-.14-8.43c-.09-4.12-.17-6.52-.22-7.2a5.67,5.67,0,0,0-2.21-4.3,6.38,6.38,0,0,1-2.48-5.46,7.07,7.07,0,0,1,3.28-6.42,54.2,54.2,0,0,1,9.83-5,24.44,24.44,0,0,1,8.17-2C971.6,130.41,972.31,131.83,972.21,134.65Zm-7.34-29.92A7.66,7.66,0,0,1,970.7,107a7.9,7.9,0,0,1,1.93,6,11.45,11.45,0,0,1-3.52,8.31,17.54,17.54,0,0,1-12.34,4.81,6.22,6.22,0,0,1-4.79-1.92,9.39,9.39,0,0,1-2.4-6.82,10.32,10.32,0,0,1,5.24-9.21A18.85,18.85,0,0,1,964.87,104.73Z"/><path d="M995.94,130.1a23.8,23.8,0,0,1,6.57,1.56,5.49,5.49,0,0,0,1.54.29,7.64,7.64,0,0,0,2.81-1.19,3.44,3.44,0,0,1,1.65-.6q1.89,0,3.44,4.06a34.19,34.19,0,0,1,1.87,7,27,27,0,0,1,.38,6.61,9.12,9.12,0,0,1-1.5,4.51,3.53,3.53,0,0,1-2.92,1.77,3.11,3.11,0,0,1-2.4-1.18,34.62,34.62,0,0,1-3.15-5.14q-2.26-4.25-4-4.26a2.49,2.49,0,0,0-2,1.38,6.5,6.5,0,0,0-1,3.29c-.14,2.23,1,4.33,3.34,6.3a35.67,35.67,0,0,1,9.46,11.39c1.75,3.46,2.45,7.69,2.15,12.67q-.57,9.45-5.49,15.75c-2.82,3.66-6.13,5.48-10,5.46a28.78,28.78,0,0,1-5.37-.9c-2.44-.52-3.82-.77-4.12-.77a4.15,4.15,0,0,0-1.15.2,7.63,7.63,0,0,1-1.6.27,3.11,3.11,0,0,1-2.77-1.65,28.24,28.24,0,0,1-2.72-8,38.82,38.82,0,0,1-1.11-9.32c.11-4.18,1.11-6.27,3-6.26a2.46,2.46,0,0,1,2,1.27,75.7,75.7,0,0,1,3.58,6.73,20.11,20.11,0,0,0,2.48,4.14,2.94,2.94,0,0,0,2.18,1.14,2.41,2.41,0,0,0,2.08-1.19,5.91,5.91,0,0,0,.89-3.16,7,7,0,0,0-2.74-5.6,34.51,34.51,0,0,1-8.62-11.16,29.13,29.13,0,0,1-2.31-13.25,30.79,30.79,0,0,1,3.55-14C986.93,132.82,991,130.05,995.94,130.1Z"/><path d="M1052.33,168.08q-9.19-.15-18.37-.26c-.81,0-1.27.6-1.38,1.82a13.34,13.34,0,0,0,2,8.33q2.42,3.93,5.53,4a9.17,9.17,0,0,0,4.21-1.21,13.81,13.81,0,0,0,4-3c1-1.07,1.74-1.6,2.26-1.59.67,0,1.25.74,1.75,2.19a10.44,10.44,0,0,1,.53,4.47,16.86,16.86,0,0,1-4.26,9.35c-4.46,5.32-9.25,8-14.51,7.92s-9.63-2.83-12.94-8.38a35.67,35.67,0,0,1-3.79-9.88,53.14,53.14,0,0,1-1.18-16.2,49.31,49.31,0,0,1,5.84-20.47,30.82,30.82,0,0,1,10.4-11.62,17,17,0,0,1,9.44-2.75c5.21.09,9.26,2.62,12.11,7.56a26.7,26.7,0,0,1,3.06,8.73,35.66,35.66,0,0,1,.32,11.12,23.22,23.22,0,0,1-2,7.17C1054.47,167.18,1053.45,168.1,1052.33,168.08Zm-16.06-12.92,4,.06c1.7,0,2.7-1.29,3-4a12.09,12.09,0,0,0-.49-6,3.23,3.23,0,0,0-3-2.35c-1.51,0-2.82.95-3.91,2.92a14.88,14.88,0,0,0-1.84,5.61,5,5,0,0,0,.26,2.86A2.1,2.1,0,0,0,1036.27,155.16Z"/><path d="M1108.33,157.19q-2.11,11.73-3.6,23.48a14.45,14.45,0,0,0-.09,3.94,30.77,30.77,0,0,0,1.69,4.91,6.2,6.2,0,0,1,.19,3c-.37,2.93-1.61,5-3.74,6.09s-5.75,1.65-10.89,1.58q-5.25-.08-7.26-1.71c-1.39-1.13-2-2.95-1.7-5.46a6.35,6.35,0,0,1,.44-2c.2-.42.82-1.46,1.88-3.1,1.25-1.86,2.45-8.1,4.09-18.73,1-6.16,1.36-10.73,1-13.7-.25-2.38-1.31-3.6-3.17-3.64s-3.18.89-4.18,2.8-1.91,5.39-2.68,10.45q-1,6.66-1.85,13.3a32.09,32.09,0,0,0-.38,5.45,40.38,40.38,0,0,0,1.26,5.73,8,8,0,0,1,.13,2.76,7,7,0,0,1-3.69,5.8c-2.19,1.23-5.48,1.82-9.89,1.77-7-.08-10.38-2.7-10-7.87a7.27,7.27,0,0,1,.54-2.46,11.61,11.61,0,0,1,1.76-2.38,7,7,0,0,0,1.55-2.92c.29-1.09.73-3.8,1.36-8.12q1.14-7.68,2.3-16.11a28.32,28.32,0,0,0,.45-6.11,8.12,8.12,0,0,0-1.88-3.59,5.62,5.62,0,0,1-1-4.49,7.69,7.69,0,0,1,2.12-4.39,29.06,29.06,0,0,1,6.58-4.22,86,86,0,0,1,8.28-3.69,18.35,18.35,0,0,1,5.32-1.45,1.94,1.94,0,0,1,1.76,1.54,6.5,6.5,0,0,1,.12,3.51c0,.14-.15.7-.38,1.68-.1.36-.17.67-.23.94-.42,2.15-.09,3.24,1,3.26.65,0,1.5-.81,2.57-2.49,3.45-5.49,7.53-8.16,12-8a8.81,8.81,0,0,1,7.79,4.68,15.2,15.2,0,0,1,1.83,7.48A76.34,76.34,0,0,1,1108.33,157.19Z"/><path d="M1165.5,130.94c.69,0,1.07.68,1.16,1.95a11.47,11.47,0,0,1-.73,4.39,29.69,29.69,0,0,1-3,6.05,29,29,0,0,1-4.16,5.34,5.73,5.73,0,0,0-1.55,2.07c0,.13-.16.66-.37,1.58s-.38,1.75-.58,2.49a34.21,34.21,0,0,1-6.53,13,28.65,28.65,0,0,1-8.86,7.16,21.08,21.08,0,0,1-10.2,2.38,11.14,11.14,0,0,1-2.47-.32,8.18,8.18,0,0,0-1.52-.24c-1.37,0-2.27,1.12-2.67,3.46a4.18,4.18,0,0,0,.74,3.58,4.33,4.33,0,0,0,3.38,1.37,22.89,22.89,0,0,0,4.67-.63,47.43,47.43,0,0,1,9.59-1.29q4.55.1,6.57,2.73a11.7,11.7,0,0,1,2.19,5.58,25.05,25.05,0,0,1,0,7.63,37.22,37.22,0,0,1-4.43,12.79A26.1,26.1,0,0,1,1136,222.83a24.68,24.68,0,0,1-11.81,2.68c-5.55,0-10-1.58-13.24-4.62a13.53,13.53,0,0,1-3.45-5.62,17.36,17.36,0,0,1-.84-7.21,13.91,13.91,0,0,1,1.28-4.78,7.48,7.48,0,0,1,2.4-3.09,2.5,2.5,0,0,0,1.34-1.71,4.05,4.05,0,0,0-.7-2.15,14.54,14.54,0,0,1-1.85-9.3,17.55,17.55,0,0,1,2.47-6.56,17.06,17.06,0,0,1,4.57-5.17,2.72,2.72,0,0,0,1.22-1.57,5.43,5.43,0,0,0-.67-2.82c-1.9-4.27-2.3-9.23-1.09-14.86a27.17,27.17,0,0,1,3.39-8.48,26.09,26.09,0,0,1,5.82-6.78c5.57-4.5,11.16-6.64,16.52-6.43A19.33,19.33,0,0,1,1148,136a17.35,17.35,0,0,0,4.74,1.39c3,.12,6.51-1.65,10.78-5.28A4.18,4.18,0,0,1,1165.5,130.94Zm-46.58,72.77c-.63,0-1,.63-1.15,1.91a7.52,7.52,0,0,0,7.85,8.85,9.49,9.49,0,0,0,5.94-1.64,6.61,6.61,0,0,0,2.59-4.79,4.56,4.56,0,0,0-.48-2.81,2.07,2.07,0,0,0-1.84-1.19,8.83,8.83,0,0,0-1.77.24,18.25,18.25,0,0,1-4.81.52,19.65,19.65,0,0,1-3.67-.39,9.19,9.19,0,0,1-2.11-.56A1.75,1.75,0,0,0,1118.92,203.71Zm20.1-60c-1.35-.05-2.67.75-3.93,2.4a17.7,17.7,0,0,0-2.94,6.64,37.1,37.1,0,0,0-1.36,11.49c.24,2.9,1.09,4.36,2.49,4.4s2.67-.82,3.87-2.58a21.64,21.64,0,0,0,2.9-7.13c1.15-4.7,1.7-8.38,1.54-11S1140.59,143.84,1139,143.69Z"/><path d="M1188.63,136c1.45.07,2.21.44,2.27,1.1s-.46,2.75-1.5,6.27c-.56,1.9-.48,2.87.22,2.9.54,0,1.27-.57,2.22-1.8,4.15-5.3,8.14-7.85,11.66-7.67,2.5.13,4,1.5,4.54,4.11a15.11,15.11,0,0,1,0,4.88,27,27,0,0,1-1.42,5.65,33.62,33.62,0,0,1-3.11,6.16,28,28,0,0,1-4,5.14c-2.53,2.55-5,3.78-7.41,3.69a3.9,3.9,0,0,1-3-1.29,15.13,15.13,0,0,1-2.14-4.86c-.27-.93-.64-1.41-1.12-1.43-.74,0-1.44.64-2.08,2a62.66,62.66,0,0,0-2.81,8.57,97.72,97.72,0,0,0-2.91,13.37,6.51,6.51,0,0,0,.15,2.71,4,4,0,0,0,1.73,1.58c2.06,1.23,2.78,3.29,2.21,6.17a11.19,11.19,0,0,1-2,4.6,6.71,6.71,0,0,1-3.38,2.55,35.64,35.64,0,0,1-10.93,1.07q-6.72-.13-9.92-2.23c-1.89-1.26-2.61-3.4-2.11-6.41a10.57,10.57,0,0,1,3.4-6,10.9,10.9,0,0,0,2-2.21,11.51,11.51,0,0,0,1.15-2.76c1.25-4,3-11.29,6-22a16.79,16.79,0,0,0,.81-4.22,2.73,2.73,0,0,0-1-2.12c-1.53-1.29-1.95-3.1-1.23-5.41a10.8,10.8,0,0,1,3.7-5.32,30.59,30.59,0,0,1,8.21-4.18C1181.68,136.74,1185.66,135.89,1188.63,136Z"/><path d="M1255.55,149.55c-1.28.91-2.54,1.83-3.8,2.74a3.15,3.15,0,0,0-1,1.17,3.49,3.49,0,0,0-.23,1.33,48.55,48.55,0,0,1-3.38,16.32c-3.52,9.56-8.41,17.35-15.12,23.48-6.22,5.72-12.16,8.54-18.3,8.39-5.23-.13-9.39-2.55-12.33-7.31-.33-.52-.61-.79-.83-.79s-.74.36-1.5,1.12c-.94.89-1.87,1.79-2.79,2.69a1.73,1.73,0,0,1-1.22.55c-.5,0-.93-.5-1.27-1.48a5.66,5.66,0,0,1-.19-3,4.27,4.27,0,0,1,1.27-2.23l2.62-2.51a4.5,4.5,0,0,0,1.33-1.9,7.33,7.33,0,0,0,0-1.68,42,42,0,0,1,2-15.08,49.94,49.94,0,0,1,15.74-24.49c7.34-6.2,14.89-9.07,22-8.65,5.9.34,9.5,2.92,10.9,7.69.22.71.47,1.06.74,1.08a2.4,2.4,0,0,0,1.08-.52c1.46-1,2.94-2.07,4.43-3.1a3.16,3.16,0,0,1,1.67-.74c.58,0,.89.56.94,1.58a6.1,6.1,0,0,1-.65,3A6.4,6.4,0,0,1,1255.55,149.55Zm-33.92,19.29q3.63-2.94,7.36-5.86a4,4,0,0,0,1.35-1.68,17.91,17.91,0,0,0,.57-2.94c.54-3.72-.07-5.63-2-5.72a4.51,4.51,0,0,0-3.37,1.77,14.52,14.52,0,0,0-2.93,5c-.37,1-1,3.14-1.94,6.5-.15.6-.26,1-.33,1.22-.46,1.65-.44,2.49,0,2.51C1220.6,169.63,1221,169.37,1221.63,168.84Zm5.16,2.53q-3.6,3-7.08,6a3.4,3.4,0,0,0-1.23,1.62,12.72,12.72,0,0,0-.13,4.87c.32,2.37,1.14,3.56,2.42,3.61a3.73,3.73,0,0,0,3-1.85,16.5,16.5,0,0,0,2.42-5.25c.66-2.23,1.31-4.83,2-7.8.35-1.43.37-2.16.06-2.18A4.2,4.2,0,0,0,1226.79,171.37Z"/><path d="M1324,125.49q-20.3,27.66-31.32,55.31a39.3,39.3,0,0,0-2,6.07,4,4,0,0,0,.48,2.66,7.39,7.39,0,0,1,1,2.74,7.47,7.47,0,0,1-.43,2.8c-1,3.22-3.76,5.6-8.3,7.17a33.24,33.24,0,0,1-11.6,1.9c-.81,0-1.29-.24-1.43-.63a6.66,6.66,0,0,1,.22-2.8c.42-2.09.26-3.15-.53-3.17q-.66,0-2.52,1.77c-3.48,3.31-6.72,4.93-9.89,4.84-3.92-.11-7-2.58-8.91-7.45a28.4,28.4,0,0,1-1.78-10.07,40.47,40.47,0,0,1,2.62-14.89,55.13,55.13,0,0,1,10.12-16.83,46.19,46.19,0,0,1,13.67-11.1c4-2.05,7.47-3,10.23-2.8q4.77.33,6.7,3.77c.23.36.46.54.7.56.88.06,2.29-1.67,4.39-5.19a7.76,7.76,0,0,0,1.38-3.51,2.75,2.75,0,0,0-1.31-2.24c-1.24-1-1.23-2.45.08-4.5q2.88-4.5,10.79-6.54c9.27-2.33,15.29-3.35,17.77-3.15S1326.46,122.18,1324,125.49Zm-41.38,29.1c-1.74-.1-3.85,1.23-6.22,4a52.22,52.22,0,0,0-8.51,14.83c-2.19,5.59-3,9.84-2.65,12.73.23,2.09,1.13,3.17,2.67,3.23s3.35-1.44,5.17-4.49,4-8,7-14.88c2.73-6.3,4.36-10.51,4.46-12.65C1284.61,155.69,1284,154.76,1282.64,154.59Z"/><path d="M772.76,275.58q-1.26,12.89-3.43,25.76c-.09.62-.17,1.1-.22,1.46-.14.88,0,1.32.29,1.33s.79-.58,1.81-1.76c3.62-4.17,7.14-6.23,10.72-6.17s6.43,2.35,8.57,6.88c2.66,5.69,3.34,13.09,1.72,22.15-2.32,12.94-7.57,23.2-15.51,30.71-5.72,5.44-11.64,8-17.42,7.81a13.85,13.85,0,0,1-7.19-2.05,19.79,19.79,0,0,1-5.6-6.26c-.28-.42-.55-.63-.79-.64a12.5,12.5,0,0,0-2.93,1.15,5.6,5.6,0,0,1-2.71.56c-1.69-.07-2.24-1-1.67-2.73a12.9,12.9,0,0,1,.84-2,75.68,75.68,0,0,0,4.28-10.53c1.38-4.19,3.31-10.84,5.37-19.94q2-9.06,3.58-18.12a55.65,55.65,0,0,0,1-8.48,3.45,3.45,0,0,0-1.33-2.72,7.77,7.77,0,0,1-2.34-2.9,7.14,7.14,0,0,1-.31-3.59q.53-4.38,6.31-8.51a32.88,32.88,0,0,1,7.65-3.83,22.62,22.62,0,0,1,7.61-1.6C772.42,271.61,773,272.94,772.76,275.58Zm-2,40.39c-1.39,0-2.55.76-3.49,2.37-.73,1.22-1.47,3.73-2.28,7.52-2.25,10.35-3.93,17.33-4.47,21-.54,3.36.12,5.08,2,5.15s3.86-1.25,5.6-4,3.25-6.67,4.45-11.88c1.76-7.69,2-13.33,1-16.9Q772.71,316.15,770.71,316Z"/><path d="M819.47,310.41q-1.31,10.79-3,21.55c-1.55,9.53-2.57,15.09-2.69,16.66a4.16,4.16,0,0,0,1.3,3.67,4,4,0,0,1,1.58,4.77,9.65,9.65,0,0,1-1.79,4,7.15,7.15,0,0,1-3.11,2.48q-3.3,1.4-10.37,1.19-8-.25-10.7-2.29a4.76,4.76,0,0,1-1.74-2.78,7.8,7.8,0,0,1,0-3.87,6,6,0,0,1,1.1-2.45,10.79,10.79,0,0,1,2.7-2c1.22-.72,2.34-2.77,3.3-6.15a215,215,0,0,0,5.24-24.71c1.71-10.87,2.31-17.87,2.32-21s-.65-5.45-1.91-7a8.48,8.48,0,0,1-1.88-3.06,9.18,9.18,0,0,1-.27-3.51,10.27,10.27,0,0,1,2.24-5.69,18.11,18.11,0,0,1,6-4.45,40.21,40.21,0,0,1,6.89-2.63,24.82,24.82,0,0,1,6.07-1.23c2,0,2.87,2.22,2.62,6.6-.09,1.44-.41,4.73-1.07,9.87C821.27,296.41,820.32,303.75,819.47,310.41Z"/><path d="M859.66,334.37l-18.57-.3q-1.22,0-1.47,1.8a12.82,12.82,0,0,0,1.63,8.32c1.5,2.63,3.35,4,5.52,4a10.11,10.11,0,0,0,4.46-1.17,14.92,14.92,0,0,0,4.27-3c1-1.06,1.82-1.59,2.35-1.59.7,0,1.29.75,1.78,2.21a10,10,0,0,1,.45,4.48,16.36,16.36,0,0,1-4.9,9.36c-5.1,5.29-10.63,7.87-16.36,7.74s-10.13-3-13-8.57a31.73,31.73,0,0,1-2.84-9.87,56.81,56.81,0,0,1,.29-16.06A60.46,60.46,0,0,1,830,311.46c2.85-5.17,6.06-9,9.74-11.54a14.63,14.63,0,0,1,8.66-2.81q7.23.08,11.79,7.43a28.6,28.6,0,0,1,3.48,8.71,34.29,34.29,0,0,1,.85,11.14,21.08,21.08,0,0,1-1.76,7.2C861.82,333.46,860.79,334.38,859.66,334.37Zm-16-12.91,3.93.06c1.66,0,2.64-1.3,2.91-4a12.3,12.3,0,0,0-.63-6q-1-2.31-2.91-2.34-2.15,0-3.67,2.93a15.67,15.67,0,0,0-1.75,5.58,5,5,0,0,0,.25,2.85A2,2,0,0,0,843.66,321.46Z"/><path d="M907.34,318.87c-3.84,11.42-7.91,22.84-12.29,34.24a64.82,64.82,0,0,1-5.11,11c-1.34,2.05-2.69,3.07-4,3.05s-2.27-.8-2.9-2.35a56,56,0,0,1-3.3-10.53c-2.6-12.26-5.21-24.51-7.93-36.74a17.37,17.37,0,0,0-1.39-4.33,4.81,4.81,0,0,0-2.14-2c-1.88-1-2.71-2.88-2.52-5.59a6.87,6.87,0,0,1,4-6q3.71-1.87,11.43-1.81c4.32,0,7.47.6,9.47,1.72a5.26,5.26,0,0,1,2.85,5.16,8.8,8.8,0,0,1-1.69,4.69,13.71,13.71,0,0,0-1.31,2.23,5.69,5.69,0,0,0-.38,1.9,28.79,28.79,0,0,0,1.26,7.7c.92,3.51,1.88,5.26,2.87,5.27.66,0,1.22-.42,1.68-1.28a61.63,61.63,0,0,0,2.63-6.65,22.59,22.59,0,0,0,1.49-6,8.1,8.1,0,0,0-1.06-3.89,9.64,9.64,0,0,1-1.1-4.57,5.25,5.25,0,0,1,2.61-4.68c1.65-.94,4.31-1.41,8-1.39q7.77,0,7.62,6a5.52,5.52,0,0,1-3,5,7.75,7.75,0,0,0-3.08,2.64A51.72,51.72,0,0,0,907.34,318.87Z"/><path d="M952,297.63a21.93,21.93,0,0,1,6.22,1.49,4.85,4.85,0,0,0,1.45.28,6.59,6.59,0,0,0,2.51-1.24,2.72,2.72,0,0,1,1.47-.61q1.75,0,3.6,4a40.18,40.18,0,0,1,2.49,7,30.07,30.07,0,0,1,1,6.62,8.67,8.67,0,0,1-1,4.54,3.09,3.09,0,0,1-2.68,1.81,3.28,3.28,0,0,1-2.45-1.15,36.43,36.43,0,0,1-3.5-5.12c-1.68-2.81-3-4.22-4.13-4.22-.72,0-1.34.47-1.86,1.4a6.59,6.59,0,0,0-.77,3.31c0,2.23,1.23,4.32,3.69,6.28a42.14,42.14,0,0,1,10.32,11.3A25.69,25.69,0,0,1,971.71,346c.19,6.32-1.27,11.61-4.49,15.85a12.64,12.64,0,0,1-10.47,5.55,33.64,33.64,0,0,1-5.87-.88q-4-.75-4.5-.75a4.67,4.67,0,0,0-1.23.2,8.28,8.28,0,0,1-1.74.27,3.44,3.44,0,0,1-3-1.64,26.71,26.71,0,0,1-3-8,37.2,37.2,0,0,1-1.24-9.31q.11-6.28,3-6.28a2.6,2.6,0,0,1,2,1.27c.61.84,1.9,3.09,3.88,6.73a20.34,20.34,0,0,0,2.73,4.13,3.24,3.24,0,0,0,2.35,1.12,2.46,2.46,0,0,0,2.14-1.19,5.48,5.48,0,0,0,.79-3.17c0-2.05-1-3.92-3.1-5.6a34.24,34.24,0,0,1-9.17-11.13A29.4,29.4,0,0,1,938.14,320a32.69,32.69,0,0,1,3-14C943.79,300.42,947.39,297.63,952,297.63Z"/><path d="M992.57,297.87c1.55,0,2.53.23,2.92.7s.63,1.67.7,3.58c.06,1.68.4,2.52,1,2.51.25,0,1.07-.87,2.46-2.6a12.72,12.72,0,0,1,4.05-3.32,9.74,9.74,0,0,1,4.53-1.36c3.23,0,6.19,2,9,5.93a40.7,40.7,0,0,1,5.25,11.44,74.15,74.15,0,0,1,2.92,15.26c1,11.4-.2,20.82-4,28.27-2.94,5.8-6.75,8.74-11.36,8.8a13.09,13.09,0,0,1-7.46-2.64,2.45,2.45,0,0,0-1.23-.54c-.83,0-1.13,1.38-.91,4.1.29,3.59,1.24,6.17,2.87,7.74a23.42,23.42,0,0,1,2.74,3,8.22,8.22,0,0,1-1.57,8.95q-2.65,2.25-7.91,2.31a25.36,25.36,0,0,1-16.65-5.79,9.78,9.78,0,0,1-3.87-7.42,7,7,0,0,1,.39-3.1,6.56,6.56,0,0,1,1.92-2.23c1.39-1.1,2.17-3.09,2.35-5.95s0-11.1-.38-24.69c-.62-11.19-1-17.46-1.37-18.82a1.62,1.62,0,0,0-.47-.89,12.4,12.4,0,0,0-2-.74,3.68,3.68,0,0,1-2.07-2,8.86,8.86,0,0,1-.87-3.86,10.31,10.31,0,0,1,1-4.81,13.2,13.2,0,0,1,3.4-4.07C984.06,300.57,988.92,298,992.57,297.87Zm4.88,25.73q.18,9.36.48,18.73c0,.78.06,1.52.1,2.25a5.4,5.4,0,0,0,1.31,3.4,3.8,3.8,0,0,0,3,1.26c3.72,0,5.12-5.2,4.4-15.5-.46-6.67-1.49-11.36-3.15-14.07-1-1.67-2.17-2.5-3.47-2.49Q997.37,317.2,997.45,323.6Z"/><path d="M1047.34,301.81q1.53,19.63,4.15,39.28a33.37,33.37,0,0,0,1.44,6.82,11.12,11.12,0,0,0,2.63,3.95,12.66,12.66,0,0,1,2.08,2.5,7.93,7.93,0,0,1,.85,2.66c1,5.8-3,8.82-12,9a30.25,30.25,0,0,1-11.78-1.69,6,6,0,0,1-2.63-2.34,9,9,0,0,1-1.36-3.85,7,7,0,0,1,.11-2.86,14.78,14.78,0,0,1,1.88-3.29,10,10,0,0,0,1.18-5.11,85.86,85.86,0,0,0-.64-10.52c-.15-1.49-.5-4.28-1-8.37s-.78-6.48-.89-7.16a6.32,6.32,0,0,0-2.53-4.25,6.79,6.79,0,0,1-2.79-5.4c-.2-2.85.7-5,2.67-6.41a48.33,48.33,0,0,1,8.85-5,20.82,20.82,0,0,1,7.41-2.1C1046.33,297.62,1047.12,299,1047.34,301.81Zm-9.13-29.58a6.77,6.77,0,0,1,5.27,2.18,9.08,9.08,0,0,1,2.17,5.9c.17,3.47-.65,6.23-2.48,8.27a14.17,14.17,0,0,1-10.91,4.9,5.76,5.76,0,0,1-4.51-1.87,10,10,0,0,1-2.51-6.77,10.24,10.24,0,0,1,4.29-9.18Q1034.12,272.26,1038.21,272.23Z"/><path d="M1068.85,296.9a24,24,0,0,1,6.35,1.4,4.89,4.89,0,0,0,1.48.25,5.83,5.83,0,0,0,2.4-1.24,2.52,2.52,0,0,1,1.42-.62c1.17,0,2.47,1.29,4,3.91a45.69,45.69,0,0,1,3.17,6.86,31.67,31.67,0,0,1,1.77,6.48,7.87,7.87,0,0,1-.46,4.47,2.7,2.7,0,0,1-2.46,1.83,3.66,3.66,0,0,1-2.59-1.09,40.83,40.83,0,0,1-4.11-5c-2-2.75-3.51-4.12-4.59-4.1q-1.08,0-1.71,1.41a6.08,6.08,0,0,0-.41,3.27q.4,3.3,4.45,6.12a51.23,51.23,0,0,1,11.84,10.94,29.35,29.35,0,0,1,5.32,12.38c1.23,6.21.74,11.43-1.67,15.68a10.44,10.44,0,0,1-9.38,5.74,37.12,37.12,0,0,1-6-.72q-4.15-.64-4.65-.63a4.42,4.42,0,0,0-1.2.23,8.43,8.43,0,0,1-1.68.32,4.21,4.21,0,0,1-3.35-1.55,30.86,30.86,0,0,1-4.49-7.79,38.43,38.43,0,0,1-2.88-9.18c-.62-4.15.06-6.23,2-6.27a3.06,3.06,0,0,1,2.24,1.21c.75.82,2.39,3,5,6.56a24.48,24.48,0,0,0,3.44,4,3.82,3.82,0,0,0,2.55,1.06,2.06,2.06,0,0,0,1.93-1.23,5,5,0,0,0,.24-3.15c-.36-2-1.71-3.83-4-5.45a40.2,40.2,0,0,1-10.87-10.8,30,30,0,0,1-4.41-13,29.12,29.12,0,0,1,1.4-13.87C1060.9,299.76,1064.29,297,1068.85,296.9Z"/><path d="M1116.15,313.66q1.85,11.23,4.33,22.46a17.43,17.43,0,0,0,2.66,6.47c1.19,1.66,2.41,2.47,3.64,2.43q1.58-.06,3.54-2.52a1.35,1.35,0,0,1,1-.64q1,0,2.25,1.86a13.85,13.85,0,0,1,1.9,4.15,11.76,11.76,0,0,1-.58,8c-2.33,5.48-6.27,8.34-11.85,8.54-4.41.15-8.52-1.73-12.17-5.68s-6.2-9.21-7.58-15.8q-3.22-15.43-5.42-30.86a5.55,5.55,0,0,0-.48-1.9c-.18-.25-.56-.36-1.15-.35l-4,.07a1.62,1.62,0,0,1-1.51-.61,9.23,9.23,0,0,1-.68-3c-.12-1-.24-2-.35-2.95a4.16,4.16,0,0,1,.54-3c5.12-6.51,10.27-13,15.51-19.45a2.08,2.08,0,0,1,1.54-.62l3.05,0a1.34,1.34,0,0,1,1.33.75,10,10,0,0,1,.59,3q.4,4.48.92,9a6.17,6.17,0,0,0,.67,2.59,1.87,1.87,0,0,0,1.61.57l7-.12a2,2,0,0,1,1.94.86,11.94,11.94,0,0,1,1,3.8c.19,1.3.38,2.6.58,3.9a12.14,12.14,0,0,1,.16,4.41,1.65,1.65,0,0,1-1.76,1.27l-7,.16c-.72,0-1.17.24-1.36.69A5.38,5.38,0,0,0,1116.15,313.66Z"/><path d="M1135.2,272.45c2.23,0,4.21,1.36,6,4.15,2.41,3.65,4,8.84,4.91,15.58a108.19,108.19,0,0,1,.94,14.43,85.46,85.46,0,0,1-.92,13.86c-.74,4.61-1.6,6.94-2.68,7s-3.24-2.84-6.32-8.64a85.84,85.84,0,0,1-5.81-13.78,72.79,72.79,0,0,1-3.11-13.52,32.11,32.11,0,0,1,.6-12.64C1130,274.61,1132.19,272.48,1135.2,272.45Zm10.38,62.23c2.3-.08,4.62,1.28,7.05,4.07a26,26,0,0,1,5.35,9.76c1.2,3.89,1.44,7.28.63,10.18s-2.43,4.41-4.89,4.51-4.89-1.11-7.4-3.64a23.42,23.42,0,0,1-5.82-10.33c-1.07-3.84-1.13-7.1-.24-9.79C1141.24,336.34,1143,334.76,1145.58,334.68Z"/></svg>
