<svg id="Layer_1" data-name="Layer 1" xmlns="http://www.w3.org/2000/svg" viewBox="0 0 1520 1140"><defs><style>.cls-1{opacity:0.26;}.cls-2{fill:#ea9e87;}.cls-3{fill:#4d4d4d;}.cls-4{fill:none;stroke:#000;stroke-linecap:round;stroke-miterlimit:10;}.cls-5{fill:#666;}.cls-6{fill:#fff;}.cls-7{fill:gray;}.cls-8{fill:#ff9bac;}</style></defs><title>grå_rotte</title><ellipse class="cls-1" cx="888.08" cy="692.3" rx="148.5" ry="29"/><path class="cls-2" d="M761,570.43a44.15,44.15,0,0,1-43.46-33.59c-5-20.37,6.72-39.22,16.57-56.08,10.53-18,20.78-36.8,18.5-58.37-2-18.8-9.62-36.69-23.06-50.14-15.95-16-38.64-23-58.26-8.93-3.32,2.38-4.83,6.51-2.69,10.26,1.86,3.27,7,5,10.26,2.69,7.83-5.61,16.32-7.69,25.44-3.84,7.13,3,13.12,8.41,18.14,14.18,11.26,13,17.72,32.67,15.17,49.8-1.57,10.52-7.2,20.53-12.35,29.66-4.82,8.56-10.09,16.88-14.43,25.71-9.15,18.61-13,38.84-4.49,58.48,9.34,21.66,31.21,35.29,54.66,35.17,9.65,0,9.67-15,0-15Z"/><circle class="cls-3" cx="827.58" cy="351.3" r="36"/><path class="cls-4" d="M828,391.67a28.27,28.27,0,0,0-19.46-53.08"/><circle class="cls-3" cx="959.58" cy="351.3" r="36"/><path class="cls-4" d="M958.05,391.67a28.27,28.27,0,1,1,19.47-53.08"/><path class="cls-5" d="M1013.58,512.3c35,85-32.32,135-124,135s-162.84-46.5-124-135c43-98,52-167.51,124-172C969.58,335.3,988.29,450.89,1013.58,512.3Z"/><path class="cls-3" d="M909.05,466.22c-7.49,18.71-16.45,35.17-20,38.67-3.73,3.71-11.23-18.71-20-38.67-9-20.6,5.51-39.1,20-39.92S918.29,443.11,909.05,466.22Z"/><circle class="cls-6" cx="860.08" cy="423.8" r="28.5"/><circle class="cls-6" cx="917.08" cy="423.8" r="28.5"/><path class="cls-7" d="M888.75,426.3c-1.82-9.07,2.68-22.74,15.83-29,12.29-5.86,27.71-.77,33.17,7Z"/><circle cx="863.58" cy="425.3" r="7"/><circle cx="911.58" cy="425.3" r="7"/><circle class="cls-8" cx="888.08" cy="515.8" r="10.5"/><path class="cls-7" d="M888.36,426.3c1.81-9.07-2.68-22.74-15.83-29-12.29-5.86-27.71-.77-33.17,7"/><rect x="950.58" y="490.3" width="3" height="77" rx="1.5"/><rect x="943.58" y="563.3" width="3" height="21" transform="translate(577.95 -469.1) rotate(39.34)"/><rect x="957.58" y="563.3" width="3" height="21" transform="translate(2064.56 409.53) rotate(140.66)"/><rect x="950.58" y="565.3" width="3" height="21"/><rect x="827.58" y="490.3" width="3" height="77" rx="1.5"/><rect x="820.58" y="563.3" width="3" height="21" transform="translate(550.07 -391.12) rotate(39.34)"/><rect x="834.58" y="563.3" width="3" height="21" transform="translate(1846.43 487.51) rotate(140.66)"/><rect x="827.58" y="565.3" width="3" height="21"/><rect class="cls-5" x="911.58" y="643.3" width="15" height="38"/><path class="cls-5" d="M944.58,699.3l-29.22-11.15a5.52,5.52,0,0,1-3.55-6.93l.64-2a5.49,5.49,0,0,1,6.92-3.54l31.21,6.58c2.89.93,3.48,7.22,2.55,10.11l-.64,2C951.56,697.26,947.47,700.23,944.58,699.3Z"/><circle class="cls-5" cx="949.58" cy="697.3" r="5"/><circle class="cls-5" cx="954.58" cy="686.3" r="5"/><circle class="cls-5" cx="953.58" cy="692.3" r="5"/><rect class="cls-5" x="849.58" y="643.3" width="15" height="38" transform="translate(1714.15 1324.59) rotate(-180)"/><path class="cls-5" d="M831.58,699.3l29.22-11.15a5.51,5.51,0,0,0,3.54-6.93l-.64-2a5.49,5.49,0,0,0-6.92-3.54l-31.2,6.58c-2.89.93-3.49,7.22-2.55,10.11l.63,2C824.6,697.26,828.69,700.23,831.58,699.3Z"/><circle class="cls-5" cx="826.58" cy="697.3" r="5"/><circle class="cls-5" cx="821.58" cy="686.3" r="5"/><circle class="cls-5" cx="822.58" cy="692.3" r="5"/><polyline class="cls-2" points="681.27 374.74 658.58 388.3 668.85 365.94"/></svg>
