<svg id="Layer_1" data-name="Layer 1" xmlns="http://www.w3.org/2000/svg" xmlns:xlink="http://www.w3.org/1999/xlink" viewBox="0 0 267 296"><defs><style>.cls-1{filter:url(#AI_BevelShadow_1);}.cls-2{fill:#ea9e87;}.cls-3{fill:#4d4d4d;}.cls-4{fill:none;stroke:#000;stroke-linecap:round;stroke-miterlimit:10;}.cls-5{fill:#666;}.cls-6{fill:#fff;}.cls-7{fill:gray;}.cls-8{fill:#ff9bac;}</style><filter id="AI_BevelShadow_1" x="-20" y="-20" width="140" height="140" name="AI_BevelShadow_1"><feGaussianBlur result="blur" stdDeviation="4" in="SourceAlpha"/><feOffset result="offsetBlur" dx="4" dy="4" in="blur"/><feSpecularLighting result="specOut" surfaceScale="5" specularExponent="10" in="blur"><fePointLight x="-5000" y="-10000" z="-20000"/></feSpecularLighting><feComposite result="specOut" operator="in" in="specOut" in2="SourceAlpha"/><feComposite result="litPaint" operator="arithmetic" k2="1" k3="1" in="SourceGraphic" in2="specOut"/><feMerge><feMergeNode in="offsetBlur"/><feMergeNode in="litPaint"/></feMerge></filter></defs><title>graarottehop</title><g class="cls-1"><path class="cls-2" d="M121,169.4c-4.39,3.86-10.5,4.85-15.6,1.66-4.5-2.81-6.07-7.79-7.27-12.64-1.77-7.15-3-14-9.2-18.62-7.71-5.73-22.51-7.33-25.28,4.43-.44,1.88,2.45,2.68,2.89.8,2-8.29,12-7.73,18-4.48,8.65,4.63,8.91,13.22,11.44,21.57,3.67,12.16,16.66,18.61,27.12,9.4,1.45-1.27-.68-3.39-2.12-2.12Z"/><circle class="cls-3" cx="92.42" cy="111.9" r="10"/><path class="cls-4" d="M100.18,120a7.86,7.86,0,0,0-14-7"/><circle class="cls-3" cx="119.16" cy="86.81" r="10"/><path class="cls-4" d="M126.53,95.28a7.85,7.85,0,0,1-6.15-14.45"/><path class="cls-5" d="M160.7,109.16c23.25,10.57,19.11,33.49.54,50.92s-41.82,21.53-50.78-3.78c-9.91-28-21.29-43.82-7.57-58.41C118.15,81.67,143.91,101.53,160.7,109.16Z"/><path class="cls-3" d="M135.85,110.46c4.7,3,8.72,6.35,9.49,7.49s-5.7,2.07-11.61,3.39c-6.09,1.37-10.36-3.57-9.82-7.55S130,106.72,135.85,110.46Z"/><circle class="cls-6" cx="119.35" cy="114.25" r="7.92"/><circle class="cls-6" cx="130.9" cy="103.42" r="7.92"/><path class="cls-7" d="M125.63,109.31a7.67,7.67,0,0,1-2.3-8.89c1.37-3.52,5.46-5.42,8-4.88Z"/><circle cx="121.07" cy="113.21" r="1.94"/><circle cx="130.07" cy="104.77" r="1.94"/><circle class="cls-8" cx="146.93" cy="118.05" r="2.92"/><path class="cls-7" d="M125.55,109.38a7.67,7.67,0,0,0-8.72-2.87c-3.6,1.16-5.75,5.12-5.38,7.73"/><rect x="147.09" y="105.54" width="21.39" height="0.83" rx="0.42" transform="translate(-31.37 87.38) rotate(-28.27)"/><rect x="169.3" y="98.83" width="0.83" height="5.83" transform="translate(37.27 248.77) rotate(-78.93)"/><rect x="164.95" y="97.91" width="5.83" height="0.83" transform="translate(13.03 216.1) rotate(-67.62)"/><rect x="166.36" y="99.36" width="5.83" height="0.83" transform="translate(-27.07 92.09) rotate(-28.27)"/><rect x="130.65" y="130.11" width="21.39" height="0.83" rx="0.42" transform="translate(-40.32 67.17) rotate(-23.5)"/><rect x="153.16" y="124.41" width="0.83" height="5.83" transform="translate(-10.84 240.3) rotate(-74.15)"/><rect x="149.11" y="123.34" width="5.83" height="0.83" transform="translate(-27.48 202.53) rotate(-62.84)"/><rect x="150.4" y="124.9" width="5.83" height="0.83" transform="translate(-37.25 71.51) rotate(-23.5)"/><rect class="cls-3" x="168.31" y="110.97" width="10.56" height="4.17" transform="translate(-33.53 117.13) rotate(-34.2)"/><path class="cls-3" d="M178.1,101.42l2,8.45a1.51,1.51,0,0,1-1,1.89l-.55.17a1.54,1.54,0,0,1-1.9-1l-3.36-8.2c-.24-.81,1.12-1.93,1.92-2.16l.55-.16A2.1,2.1,0,0,1,178.1,101.42Z"/><circle class="cls-3" cx="176.86" cy="100.58" r="1.39"/><circle class="cls-3" cx="173.55" cy="101.15" r="1.39"/><circle class="cls-3" cx="175.09" cy="100.44" r="1.39"/><rect class="cls-3" x="151.88" y="136.17" width="10.56" height="4.17" transform="translate(-51.4 120.48) rotate(-36.47)"/><path class="cls-3" d="M161.22,126.44l2.33,8.37a1.53,1.53,0,0,1-1,1.94l-.54.18a1.53,1.53,0,0,1-1.94-1l-3.68-8.06c-.27-.8,1-2,1.84-2.24l.54-.18A2.1,2.1,0,0,1,161.22,126.44Z"/><circle class="cls-3" cx="159.94" cy="125.66" r="1.39"/><circle class="cls-3" cx="156.66" cy="126.36" r="1.39"/><circle class="cls-3" cx="158.17" cy="125.59" r="1.39"/><polyline class="cls-2" points="67.24 144.46 65.22 151.51 63.05 145.03"/></g></svg>
