<svg id="Layer_1" data-name="Layer 1" xmlns="http://www.w3.org/2000/svg" xmlns:xlink="http://www.w3.org/1999/xlink" viewBox="0 0 436 386"><defs><style>.cls-1{filter:url(#AI_BevelShadow_1);}.cls-2{opacity:0.26;}.cls-3{fill:#ea9e87;}.cls-4{fill:#4d4d4d;}.cls-5{fill:none;stroke:#000;stroke-linecap:round;stroke-miterlimit:10;}.cls-6{fill:#666;}.cls-7{fill:#fff;}.cls-8{fill:gray;}.cls-9{fill:#ff9bac;}</style><filter id="AI_BevelShadow_1" x="-20" y="-20" width="140" height="140" name="AI_BevelShadow_1"><feGaussianBlur result="blur" stdDeviation="4" in="SourceAlpha"/><feOffset result="offsetBlur" dx="4" dy="4" in="blur"/><feSpecularLighting result="specOut" surfaceScale="5" specularExponent="10" in="blur"><fePointLight x="-5000" y="-10000" z="-20000"/></feSpecularLighting><feComposite result="specOut" operator="in" in="specOut" in2="SourceAlpha"/><feComposite result="litPaint" operator="arithmetic" k2="1" k3="1" in="SourceGraphic" in2="specOut"/><feMerge><feMergeNode in="offsetBlur"/><feMergeNode in="litPaint"/></feMerge></filter></defs><title>graarottetitel</title><g class="cls-1"><ellipse class="cls-2" cx="254.75" cy="235.93" rx="41.25" ry="8.06"/><path class="cls-3" d="M219.45,202.66c-5.84-.18-11-3.6-12.55-9.43-1.29-4.84.69-9.44,3-13.62,3.17-5.77,7.2-11.32,6.67-18.22-.79-10.18-10.73-23.38-21.74-16.34-1.63,1-.12,3.64,1.51,2.59,9.23-5.9,17,6.44,17.29,14.48.3,7.69-5.83,13.73-8.55,20.48-4.45,11,2.12,22.67,14.37,23.06,1.93.06,1.93-2.94,0-3Z"/><circle class="cls-4" cx="237.94" cy="141.21" r="10"/><path class="cls-5" d="M238.05,152.42a7.85,7.85,0,1,0-5.4-14.74"/><circle class="cls-4" cx="274.61" cy="141.21" r="10"/><path class="cls-5" d="M274.19,152.42a7.85,7.85,0,1,1,5.4-14.74"/><path class="cls-6" d="M289.61,185.93c9.72,23.61-9,37.5-34.44,37.5s-45.24-12.91-34.45-37.5c11.95-27.22,14.45-46.53,34.45-47.78C277.39,136.76,282.59,168.87,289.61,185.93Z"/><path class="cls-4" d="M260.57,173.13c-2.07,5.2-4.56,9.77-5.54,10.74s-3.12-5.19-5.54-10.74C247,167.41,251,162.27,255,162S263.14,166.71,260.57,173.13Z"/><circle class="cls-7" cx="246.97" cy="161.35" r="7.92"/><circle class="cls-7" cx="262.81" cy="161.35" r="7.92"/><path class="cls-8" d="M254.94,162a7.65,7.65,0,0,1,4.39-8c3.42-1.63,7.7-.22,9.22,1.94Z"/><circle cx="247.94" cy="161.76" r="1.94"/><circle cx="261.28" cy="161.76" r="1.94"/><circle class="cls-9" cx="254.75" cy="186.9" r="2.92"/><path class="cls-8" d="M254.83,162a7.66,7.66,0,0,0-4.4-8c-3.41-1.63-7.7-.22-9.21,1.94"/><rect x="272.11" y="179.82" width="0.83" height="21.39" rx="0.42"/><rect x="267.67" y="202.6" width="5.83" height="0.83" transform="translate(-57.96 283.57) rotate(-50.66)"/><rect x="274.06" y="200.1" width="0.83" height="5.83" transform="translate(-66.5 220.01) rotate(-39.34)"/><rect x="272.11" y="200.65" width="0.83" height="5.83"/><rect x="237.94" y="179.82" width="0.83" height="21.39" rx="0.42"/><rect x="233.5" y="202.6" width="5.83" height="0.83" transform="translate(-70.47 257.15) rotate(-50.66)"/><rect x="239.89" y="200.1" width="0.83" height="5.83" transform="translate(-74.24 198.35) rotate(-39.34)"/><rect x="237.94" y="200.65" width="0.83" height="5.83"/><rect class="cls-6" x="261.28" y="222.32" width="4.17" height="10.56"/><path class="cls-6" d="M270.44,237.88l-8.11-3.1a1.53,1.53,0,0,1-1-1.93l.18-.54a1.53,1.53,0,0,1,1.92-1l8.67,1.82c.8.26,1,2,.71,2.81l-.18.55A2.11,2.11,0,0,1,270.44,237.88Z"/><circle class="cls-6" cx="271.83" cy="237.32" r="1.39"/><circle class="cls-6" cx="273.22" cy="234.26" r="1.39"/><circle class="cls-6" cx="272.94" cy="235.93" r="1.39"/><rect class="cls-6" x="244.06" y="222.32" width="4.17" height="10.56"/><path class="cls-6" d="M239.06,237.88l8.11-3.1a1.54,1.54,0,0,0,1-1.93l-.18-.54a1.53,1.53,0,0,0-1.92-1l-8.67,1.82c-.8.26-1,2-.71,2.81l.18.55A2.11,2.11,0,0,0,239.06,237.88Z"/><circle class="cls-6" cx="237.67" cy="237.32" r="1.39"/><circle class="cls-6" cx="236.28" cy="234.26" r="1.39"/><circle class="cls-6" cx="236.56" cy="235.93" r="1.39"/><polyline class="cls-3" points="197.3 147.72 191 151.49 193.85 145.28"/></g></svg>
