<svg id="Layer_1" data-name="Layer 1" xmlns="http://www.w3.org/2000/svg" viewBox="0 0 1520 1140"><defs><style>.cls-1{opacity:0.26;}.cls-2{fill:#fbb03b;}.cls-3{fill:#ff9bac;}.cls-4{fill:#fff;}.cls-5,.cls-6,.cls-7{stroke:#000;}.cls-5{stroke-linejoin:round;stroke-width:8px;}.cls-6,.cls-7,.cls-9{fill:none;stroke-miterlimit:10;}.cls-6{stroke-width:3px;}.cls-8{fill:#f7931e;}.cls-9{stroke:#fbb03b;stroke-width:16px;}</style></defs><title>kat</title><ellipse class="cls-1" cx="697.58" cy="629.8" rx="141" ry="21.5"/><path class="cls-2" d="M624.66,350.48c-7.43,5.55-28.54,22.93-29.72,22.2-5.52-3.38-10.59-65-4.62-68.56,8.58-5.14,63.73,15.2,64.8,21.35C655.78,329.29,634.65,343,624.66,350.48Z"/><path class="cls-2" d="M766.65,348.81c-7-6-28.63-22.82-28.18-24.13,2.08-6.12,61.08-24.58,65.88-19.54,6.89,7.25-.86,65.51-6.63,67.91C794.14,374.53,776.11,356.92,766.65,348.81Z"/><path class="cls-3" d="M769.13,347c-3.93-3.37-16-12.75-15.74-13.49,1.17-3.42,34.13-13.73,36.81-10.91,3.85,4.05-.48,36.6-3.7,37.94C784.5,361.41,774.42,351.57,769.13,347Z"/><path class="cls-3" d="M623.2,345.8c-4.13,3.12-15.88,12.9-16.54,12.49-3.09-1.87-6.11-36.27-2.79-38.29,4.79-2.89,35.66,8.3,36.27,11.74C640.53,333.87,628.76,341.6,623.2,345.8Z"/><ellipse class="cls-2" cx="695.58" cy="452.8" rx="128" ry="138.5"/><circle class="cls-4" cx="662.58" cy="391.3" r="32"/><circle class="cls-4" cx="726.58" cy="391.3" r="32"/><circle cx="647.08" cy="381.8" r="7.5"/><circle cx="744.08" cy="396.8" r="7.5"/><polygon class="cls-5" points="686.58 426.3 695.08 414.79 703.58 426.3 686.58 426.3"/><path class="cls-6" d="M714.08,436.8c0,6.9-2.1,12-9,12s-10-5.1-10-12"/><path class="cls-6" d="M676.08,436.8c0,6.9,2.09,12,9,12s10-5.1,10-12"/><path class="cls-7" d="M777.58,456.3c0,55.43-7.67,61-16.5,61s-15.5-5.57-15.5-61"/><path class="cls-7" d="M649.58,456.3c0,55.43-7.67,61-16.5,61s-15.5-5.57-15.5-61"/><path class="cls-8" d="M822.62,469.14c-.78,6.24-1.08,6.58-4.53,5.47-4.29-1.38-27.67-7.93-26.94-11.48.92-4.43,24.66-3.49,27.81-3C822.91,460.72,823.77,460,822.62,469.14Z"/><path class="cls-8" d="M823.25,444.07c.42,6.28.19,6.67-3.4,6.24-4.48-.54-28.68-2.49-28.64-6.11,0-4.53,23.54-8.14,26.72-8.28C821.92,435.76,822.63,434.91,823.25,444.07Z"/><path class="cls-8" d="M817.68,494.35c-1.67,6.07-2,6.36-5.26,4.77-4.06-2-26.26-11.8-25-15.21,1.54-4.26,24.91.07,28,1C819.17,486.06,820.12,485.5,817.68,494.35Z"/><path class="cls-8" d="M573.51,494.32c1.65,6.07,2,6.36,5.25,4.78,4.06-2,26.29-11.75,25.06-15.16-1.53-4.26-24.9,0-28,.94C572,486,571.09,485.46,573.51,494.32Z"/><path class="cls-8" d="M568.55,469.48c.53,6.27.81,6.62,4.3,5.66,4.35-1.21,28-6.77,27.4-10.35-.73-4.47-24.5-4.51-27.66-4.17C568.61,461.06,567.79,460.33,568.55,469.48Z"/><path class="cls-8" d="M568,443.07c-.42,6.28-.19,6.67,3.4,6.24,4.49-.54,28.69-2.49,28.64-6.11-.05-4.53-23.53-8.14-26.72-8.28C569.36,434.76,568.65,433.91,568,443.07Z"/><path class="cls-8" d="M725.64,318.2c6.06,1.66,5.65,2.18,5,4.39-1.07,3.71-10,19.76-13.42,18.59-4.28-1.45-1.46-19.41-.74-21.73C717.39,316.54,716.78,315.76,725.64,318.2Z"/><path class="cls-8" d="M699.58,314.3c6.23,0,5.67,2,5.75,2.92.25,3.08-4.43,21.83-8,21.63-4.61-.25-6.5-18.38-6.34-20.94S690.48,314.27,699.58,314.3Z"/><path class="cls-8" d="M669.85,317.13c-6.14,1.36-5.75,1.9-5.23,4.14.89,3.75,9,20.23,12.48,19.24,4.34-1.24,2.42-19.32,1.82-21.67C678.17,315.88,678.82,315.14,669.85,317.13Z"/><rect x="693.58" y="430.3" width="3" height="7"/><rect x="754.22" y="502.68" width="1" height="11.23" rx="0.5" transform="translate(199.13 -212.32) rotate(18.41)"/><rect x="768" y="502.8" width="1" height="10.98" rx="0.5" transform="translate(-67.87 121.72) rotate(-8.67)"/><rect x="761.08" y="503.3" width="1" height="14" rx="0.5"/><rect x="626.25" y="502.53" width="1" height="11.23" rx="0.5" transform="translate(192.53 -171.92) rotate(18.41)"/><rect x="640.02" y="502.66" width="1" height="10.98" rx="0.5" transform="translate(-69.31 102.42) rotate(-8.67)"/><rect x="633.11" y="503.15" width="1" height="14" rx="0.5"/><rect class="cls-2" x="653.58" y="581.3" width="17" height="40"/><rect class="cls-2" x="722.58" y="581.3" width="17" height="40"/><ellipse class="cls-2" cx="740.08" cy="623.3" rx="11.5" ry="18" transform="translate(-61.15 1165.74) rotate(-74.2)"/><ellipse class="cls-2" cx="653.08" cy="623.3" rx="18" ry="11.5" transform="translate(-145.02 201.33) rotate(-15.8)"/><path class="cls-9" d="M592.71,532c-14.35,10.13-37.77,16.78-56.13,11.3-28.72-8.58-46.47-41.91-30.24-62.17"/><path class="cls-9" d="M507.54,418.77c21,12.21,24.09,29.89-1.63,63.05"/><ellipse class="cls-8" cx="496.08" cy="421.3" rx="20.5" ry="14.5"/></svg>
