<svg id="Layer_1" data-name="Layer 1" xmlns="http://www.w3.org/2000/svg" viewBox="0 0 378 406"><defs><style>.cls-1{opacity:0.26;}.cls-2{fill:#fbb03b;}.cls-3{fill:#ff9bac;}.cls-4{fill:#fff;}.cls-5,.cls-6,.cls-7{stroke:#000;}.cls-5{stroke-linejoin:round;stroke-width:8px;}.cls-6,.cls-7,.cls-9{fill:none;stroke-miterlimit:10;}.cls-6{stroke-width:3px;}.cls-8{fill:#f7931e;}.cls-9{stroke:#fbb03b;stroke-width:16px;}</style></defs><title>kat</title><ellipse class="cls-1" cx="230.75" cy="356.67" rx="146.83" ry="21.62"/><path class="cls-2" d="M154.82,75.75c-7.74,5.58-29.72,23.06-30.95,22.33-5.74-3.4-11-65.36-4.81-68.95C128,24,185.42,44.41,186.54,50.6,187.23,54.44,165.22,68.25,154.82,75.75Z"/><path class="cls-2" d="M302.67,74.07C295.34,68,272.86,51.12,273.33,49.8c2.17-6.16,63.61-24.72,68.6-19.65C349.11,37.44,341,96,335,98.45,331.31,99.94,312.53,82.23,302.67,74.07Z"/><path class="cls-3" d="M305.26,72.29c-4.09-3.39-16.65-12.82-16.39-13.56,1.21-3.44,35.54-13.81,38.33-11,4,4.07-.5,36.81-3.85,38.16C321.26,86.74,310.77,76.84,305.26,72.29Z"/><path class="cls-3" d="M153.3,71c-4.3,3.14-16.53,13-17.22,12.57-3.22-1.88-6.37-36.49-2.9-38.51,5-2.92,37.12,8.34,37.76,11.8C171.34,59,159.09,66.82,153.3,71Z"/><ellipse class="cls-2" cx="228.67" cy="178.65" rx="133.29" ry="139.3"/><ellipse class="cls-4" cx="194.3" cy="116.8" rx="33.32" ry="32.18"/><ellipse class="cls-4" cx="260.95" cy="116.8" rx="33.32" ry="32.18"/><ellipse cx="178.16" cy="107.25" rx="7.81" ry="7.54"/><ellipse cx="279.17" cy="122.33" rx="7.81" ry="7.54"/><polygon class="cls-5" points="219.3 152 228.15 140.43 237 152 219.3 152"/><path class="cls-6" d="M247.93,162.56c0,6.95-2.18,12.07-9.37,12.07s-10.41-5.12-10.41-12.07"/><path class="cls-6" d="M208.36,162.56c0,6.95,2.18,12.07,9.37,12.07s10.42-5.12,10.42-12.07"/><path class="cls-7" d="M314.06,182.17c0,55.76-8,61.36-17.19,61.36s-16.14-5.6-16.14-61.36"/><path class="cls-7" d="M180.77,182.17c0,55.76-8,61.36-17.19,61.36s-16.14-5.6-16.14-61.36"/><path class="cls-8" d="M361,195.09c-.81,6.28-1.13,6.62-4.71,5.51-4.48-1.4-28.82-8-28.06-11.55.95-4.46,25.68-3.51,29-3C361.27,186.62,362.16,185.93,361,195.09Z"/><path class="cls-8" d="M361.61,169.88c.44,6.32.2,6.71-3.54,6.28-4.66-.54-29.86-2.51-29.82-6.15.05-4.56,24.51-8.19,27.82-8.33C360.23,161.52,361,160.67,361.61,169.88Z"/><path class="cls-8" d="M355.82,220.45c-1.74,6.1-2.1,6.4-5.49,4.8-4.22-2-27.34-11.88-26.05-15.3,1.6-4.28,25.93.07,29.11,1C357.37,212.11,358.36,211.55,355.82,220.45Z"/><path class="cls-8" d="M101.55,220.42c1.73,6.1,2.09,6.4,5.48,4.8,4.22-2,27.37-11.81,26.09-15.24-1.59-4.28-25.93,0-29.11.94C100,212.07,99,211.51,101.55,220.42Z"/><path class="cls-8" d="M96.39,195.43c.55,6.31.85,6.66,4.48,5.69,4.53-1.21,29.14-6.8,28.53-10.4-.76-4.49-25.51-4.54-28.8-4.19C96.46,187,95.6,186.23,96.39,195.43Z"/><path class="cls-8" d="M95.85,168.88c-.44,6.31-.2,6.7,3.55,6.27,4.66-.54,29.86-2.51,29.82-6.15-.05-4.55-24.51-8.19-27.83-8.32C97.23,160.51,96.5,159.66,95.85,168.88Z"/><path class="cls-8" d="M260,43.28c6.32,1.68,5.89,2.2,5.22,4.42-1.12,3.73-10.41,19.87-14,18.7-4.45-1.46-1.51-19.52-.76-21.86C251.39,41.61,250.75,40.83,260,43.28Z"/><path class="cls-8" d="M232.83,39.36c6.49,0,5.91,2,6,2.94.26,3.09-4.6,22-8.33,21.75-4.8-.25-6.76-18.48-6.6-21.06S223.37,39.33,232.83,39.36Z"/><path class="cls-8" d="M201.88,42.21c-6.4,1.37-6,1.91-5.44,4.16.92,3.77,9.36,20.35,13,19.35,4.53-1.25,2.53-19.43,1.9-21.79C210.54,41,211.21,40.21,201.88,42.21Z"/><rect x="226.58" y="156.02" width="3.12" height="7.04"/><path d="M288.41,239.83h0a.5.5,0,0,1-.33-.64l3.37-9.75a.52.52,0,0,1,.66-.32h0a.49.49,0,0,1,.33.63l-3.37,9.76A.52.52,0,0,1,288.41,239.83Z"/><path d="M305.46,239.93h0a.51.51,0,0,1-.59-.42l-1.57-9.92a.51.51,0,0,1,.44-.58h0a.52.52,0,0,1,.59.43l1.57,9.92A.51.51,0,0,1,305.46,239.93Z"/><rect x="296.87" y="229.44" width="1.04" height="14.08" rx="0.5"/><path d="M155.15,239.68h0a.49.49,0,0,1-.32-.64l3.36-9.75a.52.52,0,0,1,.66-.32h0a.5.5,0,0,1,.33.63l-3.37,9.76A.52.52,0,0,1,155.15,239.68Z"/><path d="M172.2,239.78h0a.5.5,0,0,1-.59-.42L170,229.44a.5.5,0,0,1,.44-.57h0a.5.5,0,0,1,.59.42l1.57,9.92A.5.5,0,0,1,172.2,239.78Z"/><rect x="163.61" y="229.3" width="1.04" height="14.08" rx="0.5"/><rect class="cls-2" x="184.93" y="307.89" width="17.7" height="40.23"/><rect class="cls-2" x="256.78" y="307.89" width="17.7" height="40.23"/><ellipse class="cls-2" cx="275.01" cy="350.14" rx="11.59" ry="18.7" transform="translate(-133.24 527.78) rotate(-75.37)"/><ellipse class="cls-2" cx="184.41" cy="350.14" rx="18.7" ry="11.59" transform="translate(-82.46 57.94) rotate(-14.63)"/><path class="cls-9" d="M121.55,258.32c-14.94,10.19-39.33,16.87-58.45,11.35-29.91-8.62-48.39-42.14-31.49-62.52"/><path class="cls-9" d="M32.86,144.44c21.85,12.27,25.09,30.05-1.7,63.4"/><ellipse class="cls-8" cx="20.92" cy="146.97" rx="21.35" ry="14.58"/></svg>
