<svg id="Layer_1" data-name="Layer 1" xmlns="http://www.w3.org/2000/svg" xmlns:xlink="http://www.w3.org/1999/xlink" viewBox="0 0 561.46 620.99"><defs><style>.cls-1{filter:url(#AI_BevelShadow_1);}.cls-2{opacity:0.26;}.cls-3{fill:#fbb03b;}.cls-4{fill:#ff9bac;}.cls-5{fill:#fff;}.cls-6,.cls-7,.cls-8{stroke:#000;}.cls-6{stroke-linejoin:round;stroke-width:8px;}.cls-7,.cls-8{fill:none;stroke-miterlimit:10;}.cls-7{stroke-width:3px;}.cls-9{fill:#f7931e;}</style><filter id="AI_BevelShadow_1" x="-20" y="-20" width="140" height="140" name="AI_BevelShadow_1"><feGaussianBlur result="blur" stdDeviation="4" in="SourceAlpha"/><feOffset result="offsetBlur" dx="4" dy="4" in="blur"/><feSpecularLighting result="specOut" surfaceScale="5" specularExponent="10" in="blur"><fePointLight x="-5000" y="-10000" z="-20000"/></feSpecularLighting><feComposite result="specOut" operator="in" in="specOut" in2="SourceAlpha"/><feComposite result="litPaint" operator="arithmetic" k2="1" k3="1" in="SourceGraphic" in2="specOut"/><feMerge><feMergeNode in="offsetBlur"/><feMergeNode in="litPaint"/></feMerge></filter></defs><title>kattitel_1</title><g class="cls-1"><ellipse class="cls-2" cx="308" cy="471.49" rx="141" ry="21.5"/><path class="cls-3" d="M235.09,192.17c-7.44,5.55-28.55,22.93-29.73,22.21-5.51-3.38-10.59-65-4.62-68.56,8.59-5.14,63.73,15.19,64.8,21.34C266.21,171,245.07,184.71,235.09,192.17Z"/><path class="cls-3" d="M377.07,190.51c-7.05-6-28.63-22.82-28.18-24.14,2.09-6.12,61.08-24.58,65.88-19.53,6.9,7.25-.85,65.51-6.62,67.9C404.57,216.23,386.54,198.61,377.07,190.51Z"/><path class="cls-4" d="M379.56,188.73c-3.94-3.37-16-12.75-15.75-13.48,1.17-3.42,34.13-13.73,36.81-10.92,3.85,4-.48,36.6-3.7,37.94C394.92,203.1,384.85,193.26,379.56,188.73Z"/><path class="cls-4" d="M233.63,187.49c-4.14,3.13-15.88,12.9-16.55,12.5-3.09-1.87-6.11-36.28-2.78-38.29,4.78-2.9,35.65,8.29,36.27,11.73C251,175.56,239.18,183.3,233.63,187.49Z"/><ellipse class="cls-3" cx="306" cy="294.49" rx="128" ry="138.5"/><circle class="cls-5" cx="273" cy="232.99" r="32"/><circle class="cls-5" cx="337" cy="232.99" r="32"/><circle cx="257.5" cy="223.49" r="7.5"/><circle cx="354.5" cy="238.49" r="7.5"/><polygon class="cls-6" points="297 267.99 305.5 256.48 314 267.99 297 267.99"/><path class="cls-7" d="M324.5,278.49c0,6.9-2.1,12-9,12s-10-5.1-10-12"/><path class="cls-7" d="M286.5,278.49c0,6.9,2.1,12,9,12s10-5.1,10-12"/><path class="cls-8" d="M388,298c0,55.43-7.66,61-16.5,61S356,353.42,356,298"/><path class="cls-8" d="M260,298c0,55.43-7.66,61-16.5,61S228,353.42,228,298"/><path class="cls-9" d="M433.05,310.83c-.79,6.24-1.09,6.58-4.53,5.47-4.3-1.38-27.68-7.93-26.95-11.48.92-4.43,24.67-3.48,27.81-3C433.34,302.41,434.19,301.72,433.05,310.83Z"/><path class="cls-9" d="M433.67,285.77c.42,6.27.19,6.67-3.4,6.24-4.48-.54-28.68-2.5-28.64-6.12.05-4.53,23.54-8.14,26.72-8.27C432.34,277.45,433.05,276.6,433.67,285.77Z"/><path class="cls-9" d="M428.11,336.05c-1.67,6.06-2,6.36-5.27,4.77-4-2-26.26-11.81-25-15.22,1.54-4.25,24.9.08,27.95,1C429.6,327.76,430.54,327.19,428.11,336.05Z"/><path class="cls-9" d="M183.93,336c1.66,6.07,2,6.37,5.26,4.78,4.06-2,26.28-11.74,25.06-15.15-1.53-4.26-24.91,0-28,.93C182.46,327.72,181.51,327.15,183.93,336Z"/><path class="cls-9" d="M179,311.17c.52,6.27.81,6.62,4.29,5.66,4.35-1.2,28-6.77,27.4-10.35-.73-4.46-24.49-4.51-27.66-4.16C179,302.75,178.21,302,179,311.17Z"/><path class="cls-9" d="M178.46,284.77c-.43,6.27-.19,6.67,3.4,6.24,4.48-.54,28.68-2.5,28.64-6.12-.05-4.53-23.54-8.14-26.72-8.27C179.78,276.45,179.07,275.6,178.46,284.77Z"/><path class="cls-9" d="M336.06,159.89c6.07,1.67,5.65,2.19,5,4.39-1.07,3.71-10,19.76-13.42,18.6-4.28-1.46-1.46-19.42-.74-21.74C327.82,158.23,327.21,157.46,336.06,159.89Z"/><path class="cls-9" d="M310,156c6.23,0,5.68,2,5.75,2.92.25,3.08-4.42,21.83-8,21.63-4.61-.25-6.49-18.37-6.34-20.94S300.91,156,310,156Z"/><path class="cls-9" d="M280.27,158.82c-6.14,1.36-5.75,1.9-5.22,4.14.88,3.75,9,20.24,12.47,19.24,4.35-1.24,2.43-19.31,1.83-21.67C288.59,157.58,289.24,156.84,280.27,158.82Z"/><rect x="304" y="271.99" width="3" height="7"/><rect x="359.54" y="349.49" width="11.23" height="1" rx="0.5" transform="translate(-82.24 585.94) rotate(-71.59)"/><rect x="378.42" y="344.5" width="1" height="10.98" rx="0.5" transform="matrix(0.99, -0.15, 0.15, 0.99, -48.45, 61.15)"/><rect x="371.5" y="344.99" width="1" height="14" rx="0.5"/><rect x="231.56" y="349.34" width="11.23" height="1" rx="0.5" transform="translate(-169.66 464.41) rotate(-71.59)"/><rect x="250.45" y="344.35" width="1" height="10.98" rx="0.5" transform="translate(-49.9 41.85) rotate(-8.68)"/><rect x="243.53" y="344.84" width="1" height="14" rx="0.5"/><rect class="cls-3" x="264" y="422.99" width="17" height="40"/><rect class="cls-3" x="333" y="422.99" width="17" height="40"/><ellipse class="cls-3" cx="350.5" cy="464.99" rx="11.5" ry="18" transform="translate(-192.34 675.67) rotate(-74.2)"/><ellipse class="cls-3" cx="263.5" cy="464.99" rx="18" ry="11.5" transform="translate(-116.63 89.3) rotate(-15.8)"/></g></svg>
