<svg id="Layer_1" data-name="Layer 1" xmlns="http://www.w3.org/2000/svg" xmlns:xlink="http://www.w3.org/1999/xlink" viewBox="0 0 1920 1080"><defs><style>.cls-1{fill:#534741;}.cls-2{fill:#754c24;}.cls-3{fill:#666;}.cls-4{fill:#1b1464;}.cls-22,.cls-23,.cls-25,.cls-28,.cls-5,.cls-6,.cls-8{fill:none;}.cls-21,.cls-22,.cls-26,.cls-28,.cls-5,.cls-6{stroke:#000;}.cls-5{stroke-linecap:round;stroke-width:6px;}.cls-12,.cls-22,.cls-23,.cls-25,.cls-26,.cls-28,.cls-5,.cls-6,.cls-8{stroke-miterlimit:10;}.cls-6{stroke-width:3px;}.cls-7{fill:#603813;}.cls-8{stroke:#754c24;}.cls-26,.cls-28,.cls-8{stroke-width:4px;}.cls-9{fill:#fbb03b;}.cls-10{fill:#f7931e;}.cls-11{fill:#c69c6d;}.cls-12,.cls-13{fill:#fff;}.cls-12{stroke:#a67c52;stroke-width:88px;}.cls-14{fill:#fcee92;}.cls-15{fill:#fcee21;}.cls-16{fill:red;}.cls-17{fill:#fbc117;}.cls-18{fill:#006837;}.cls-19{opacity:0.26;}.cls-20{fill:#ff9bac;}.cls-21{stroke-linejoin:round;stroke-width:8px;}.cls-23{stroke:#fbb03b;stroke-width:16px;}.cls-24{filter:url(#AI_BevelShadow_1);}.cls-25{stroke:#c1272d;stroke-width:22.15px;}.cls-26,.cls-27{fill:#a67c52;}.cls-29{fill:#c1272d;}</style><filter id="AI_BevelShadow_1" x="-20" y="-20" width="140" height="140" name="AI_BevelShadow_1"><feGaussianBlur result="blur" stdDeviation="4" in="SourceAlpha"/><feOffset result="offsetBlur" dx="4" dy="4" in="blur"/><feSpecularLighting result="specOut" surfaceScale="5" specularExponent="10" in="blur"><fePointLight x="-5000" y="-10000" z="-20000"/></feSpecularLighting><feComposite result="specOut" operator="in" in="specOut" in2="SourceAlpha"/><feComposite result="litPaint" operator="arithmetic" k2="1" k3="1" in="SourceGraphic" in2="specOut"/><feMerge><feMergeNode in="offsetBlur"/><feMergeNode in="litPaint"/></feMerge></filter></defs><title>level_complete</title><rect class="cls-1" x="-0.69" y="0.19" width="1919.36" height="1078.08"/><polygon class="cls-2" points="1918.67 1078.27 -0.69 1078.27 508.32 271.87 1363.5 271.87 1918.67 1078.27"/><polygon class="cls-3" points="1185.28 0.19 691.66 0.19 508.32 271.87 1363.5 271.87 1185.28 0.19"/><ellipse class="cls-4" cx="935.91" cy="67.87" rx="64.75" ry="48.48"/><line class="cls-5" x1="935.27" y1="113.47" x2="935.27" y2="22.27"/><line class="cls-5" x1="996.81" y1="68.35" x2="875.01" y2="68.35"/><line class="cls-6" x1="935.27" y1="1078.27" x2="935.27" y2="271.87"/><line class="cls-6" x1="1153.87" y1="272.35" x2="1430.81" y2="1077.79"/><line class="cls-6" x1="719.23" y1="272.35" x2="455.11" y2="1077.79"/><line class="cls-6" x1="828.21" y1="272.35" x2="701.28" y2="1077.79"/><line class="cls-6" x1="605.12" y1="272.35" x2="217.91" y2="1077.79"/><line class="cls-6" x1="1042.33" y1="272.35" x2="1171.82" y2="1077.79"/><line class="cls-6" x1="1264.14" y1="272.35" x2="1670.57" y2="1077.79"/><line class="cls-6" x1="507.67" y1="272.35" x2="-1.33" y2="1078.75"/><line class="cls-6" x1="1362.86" y1="272.35" x2="1918.03" y2="1078.75"/><line class="cls-6" x1="423.05" y1="405.79" x2="541.01" y2="404.83"/><line class="cls-6" x1="675.63" y1="408.67" x2="807.69" y2="407.71"/><line class="cls-6" x1="935.91" y1="414.43" x2="1062.84" y2="413.47"/><line class="cls-6" x1="1201.31" y1="410.59" x2="1333.37" y2="409.63"/><line class="cls-6" x1="301.25" y1="598.75" x2="447.41" y2="599.71"/><line class="cls-6" x1="610.25" y1="606.43" x2="775.64" y2="606.43"/><line class="cls-6" x1="935.91" y1="606.43" x2="1096.18" y2="606.43"/><line class="cls-6" x1="1269.26" y1="606.43" x2="1432.1" y2="606.43"/><line class="cls-6" x1="128.16" y1="874.27" x2="315.35" y2="874.27"/><line class="cls-6" x1="521.78" y1="874.27" x2="733.33" y2="874.27"/><line class="cls-6" x1="935.91" y1="874.27" x2="1138.49" y2="874.27"/><line class="cls-6" x1="1360.3" y1="874.27" x2="1568" y2="874.27"/><line class="cls-6" x1="580.76" y1="322.27" x2="702.56" y2="322.27"/><line class="cls-6" x1="820.52" y1="322.27" x2="934.63" y2="322.27"/><line class="cls-6" x1="1050.02" y1="322.27" x2="1170.54" y2="322.27"/><line class="cls-6" x1="1292.34" y1="322.27" x2="1397.48" y2="322.27"/><line class="cls-6" x1="497.42" y1="495.07" x2="646.15" y2="494.11"/><line class="cls-6" x1="792.31" y1="501.79" x2="934.63" y2="500.83"/><line class="cls-6" x1="1079.51" y1="501.79" x2="1232.08" y2="498.91"/><line class="cls-6" x1="1375.68" y1="492.19" x2="1514.15" y2="491.23"/><line class="cls-6" x1="385.87" y1="727.39" x2="569.22" y2="728.35"/><line class="cls-6" x1="756.41" y1="728.35" x2="935.91" y2="728.35"/><line class="cls-6" x1="1115.41" y1="728.35" x2="1310.29" y2="728.35"/><line class="cls-6" x1="1493.64" y1="728.35" x2="1676.98" y2="728.35"/><line class="cls-6" x1="707.69" y1="1040.35" x2="934.63" y2="1039.39"/><line class="cls-6" x1="238.43" y1="1035.55" x2="469.21" y2="1036.51"/><line class="cls-6" x1="1170.54" y1="1037.47" x2="1416.71" y2="1036.51"/><line class="cls-6" x1="1648.78" y1="1033.63" x2="1887.25" y2="1034.59"/><polygon class="cls-7" points="588.41 304.8 481 305.08 686.14 -0.2 794.87 -0.29 588.41 304.8"/><line class="cls-8" x1="587.81" y1="304.51" x2="795.51" y2="0.19"/><polygon class="cls-7" points="823.72 0.19 798.54 0.73 591.21 304.5 627.55 280.51 823.72 0.19"/><polygon class="cls-7" points="1279.16 303.84 1386.58 304.12 1181.43 -1.16 1072.7 -1.25 1279.16 303.84"/><line class="cls-8" x1="1279.77" y1="303.55" x2="1072.06" y2="-0.77"/><polygon class="cls-7" points="1043.85 -0.77 1069.03 -0.23 1276.37 303.54 1240.02 279.55 1043.85 -0.77"/><polygon class="cls-7" points="1918.67 559.87 1914.31 364.03 1669.56 -0.18 1539.84 -0.29 1918.67 559.87"/><line class="cls-8" x1="1918.67" y1="559.87" x2="1539.08" y2="0.28"/><polygon class="cls-7" points="1505.42 0.28 1535.46 0.93 1918.67 559.87 1917.38 589.63 1505.42 0.28"/><polygon class="cls-7" points="-0.69 560.24 3.67 364.4 248.41 0.19 378.13 0.08 -0.69 560.24"/><line class="cls-8" x1="-0.69" y1="560.24" x2="378.9" y2="0.65"/><polygon class="cls-7" points="412.55 0.65 382.51 1.29 -0.69 560.24 0.59 590 412.55 0.65"/><path class="cls-9" d="M1363.5,292c12.65,83.3-84.33,55-164.11,53.76-81.33-1.29-182.72,16.11-161.55-65.28,17.39-66.87,86.35-153.6,162.83-153.6S1353.22,224.34,1363.5,292Z"/><path class="cls-10" d="M1204.31,126c-12.39-.59-25.21-1.11-37,3.56a1.51,1.51,0,0,0,.39,2.95l3.43.11c1.93.06,1.93-2.94,0-3l-3.43-.11.4,2.94c11.51-4.57,24-4,36.16-3.45,1.93.1,1.93-2.9,0-3Z"/><path class="cls-10" d="M1205.51,129.44c13.56-1.51,27.34.58,39.43,7.06,1.7.91,3.22-1.68,1.51-2.59a70,70,0,0,0-40.94-7.47c-1.9.21-1.92,3.21,0,3Z"/><path class="cls-10" d="M1225.53,132.92c10.84-.68,22.08,4.54,32.27,7.74,1.84.58,2.63-2.32.79-2.89-10.5-3.3-21.86-8.55-33.06-7.85-1.92.12-1.93,3.13,0,3Z"/><path class="cls-10" d="M1241.19,140.88c5.18-.34,10.51-.73,15.65.23,5,.94,9.2,3.7,13.54,6.16a1.5,1.5,0,0,0,1.52-2.59c-4.59-2.61-9-5.46-14.26-6.46-5.42-1-11-.7-16.45-.34-1.92.13-1.93,3.13,0,3Z"/><path class="cls-10" d="M1251.52,144.31c9.85-.11,21.6.51,28.47,8.59,1.26,1.47,3.37-.66,2.13-2.12-7.38-8.68-20-9.59-30.6-9.47a1.5,1.5,0,0,0,0,3Z"/><path class="cls-10" d="M1258.61,151.28c10-.64,20.69,2.89,30.47,4.86,1.88.38,2.69-2.51.79-2.89-10-2-20.93-5.63-31.26-5-1.92.12-1.93,3.12,0,3Z"/><path class="cls-10" d="M1268.31,157.15c8.24,2.27,16.31,5.33,24.41,8,1.83.62,2.62-2.28.8-2.89-8.1-2.71-16.18-5.78-24.41-8a1.5,1.5,0,0,0-.8,2.89Z"/><path class="cls-10" d="M1269,163.07a129.3,129.3,0,0,1,35.76,8.27c1.8.7,2.58-2.2.8-2.89a132,132,0,0,0-36.56-8.38c-1.92-.17-1.91,2.83,0,3Z"/><path class="cls-10" d="M1285.85,170.45a301.94,301.94,0,0,1,37.54,15.79c1.72.87,3.24-1.72,1.52-2.59a306.8,306.8,0,0,0-38.26-16.09c-1.83-.63-2.62,2.27-.8,2.89Z"/><path class="cls-10" d="M1289.15,176.12q15.36,6.4,30.35,13.65c1.73.84,3.26-1.75,1.52-2.59q-15.35-7.41-31.08-14c-1.78-.74-2.55,2.16-.79,2.89Z"/><path class="cls-10" d="M1289.07,185.86c5.13.92,9.94,3.41,14.73,5.4l15.21,6.32c1.78.74,2.56-2.16.8-2.89l-15.21-6.32c-4.79-2-9.6-4.48-14.73-5.41-1.89-.33-2.7,2.56-.8,2.9Z"/><path class="cls-10" d="M1307.29,198c5.12,0,10.63,2.86,15.2,4.93a117.58,117.58,0,0,1,11.44,6,1.5,1.5,0,0,0,1.51-2.59,118.53,118.53,0,0,0-14-7.16c-4.45-1.9-9.22-4.18-14.13-4.2a1.5,1.5,0,0,0,0,3Z"/><path class="cls-10" d="M1314.34,209.05c4.78.44,9.26,3.24,13.45,5.4,3.9,2,7.71,4.16,11.48,6.4a1.5,1.5,0,0,0,1.51-2.59c-7.76-4.63-17.21-11.36-26.44-12.21-1.92-.18-1.9,2.82,0,3Z"/><path class="cls-10" d="M1320.33,215.64a22.54,22.54,0,0,1,8.48,5.23c2.06,2,2.81,4.64,4.49,6.9,3.45,4.64,8.8,8.27,13.13,12,1.44,1.26,3.57-.85,2.12-2.12-5.76-5-11.28-9.33-15.21-15.91-2.51-4.19-7.62-7.66-12.21-9-1.85-.56-2.64,2.34-.8,2.9Z"/><path class="cls-10" d="M1325.53,233.66a227.75,227.75,0,0,0,30.45,16.7c1.75.8,3.27-1.79,1.52-2.59a227.87,227.87,0,0,1-30.46-16.7c-1.62-1.06-3.12,1.54-1.51,2.59Z"/><path class="cls-10" d="M1334.08,249.33a59.12,59.12,0,0,1,22.76,7.33,1.5,1.5,0,0,0,1.52-2.59,62.77,62.77,0,0,0-24.28-7.74c-1.92-.22-1.9,2.78,0,3Z"/><path class="cls-10" d="M1345.59,256.48c1.49.88,2.23,2.29,3.45,3.45a14.28,14.28,0,0,0,4,2.46c3.83,1.73,6.6,3.36,9.22,6.72,1.19,1.52,3.3-.61,2.12-2.12a20.75,20.75,0,0,0-8.89-6.79,14.19,14.19,0,0,1-4.92-3,16.06,16.06,0,0,0-3.46-3.28,1.5,1.5,0,0,0-1.51,2.59Z"/><path class="cls-10" d="M1180.54,130.48c-10.8,1.18-22-1.94-32.43,1.93-1.8.66-1,3.56.8,2.89,10.17-3.76,21.12-.67,31.63-1.82,1.9-.21,1.92-3.21,0-3Z"/><path class="cls-10" d="M1163.79,137a33.66,33.66,0,0,0-14.71,1.64c-5.77,2-12.84,1.31-19,2.39-1.89.34-1.09,3.23.8,2.9a87.77,87.77,0,0,1,11.19-1.31c2.05-.1,4.33.23,6.34-.33s3.76-1.81,5.91-2.24a34.45,34.45,0,0,1,9.46-.05c1.92.16,1.91-2.84,0-3Z"/><path class="cls-10" d="M1147.12,144.64c-5.45.16-10.37-.27-15.62,1.46-5.4,1.77-10.75,3.74-16.12,5.61-1.81.63-1,3.53.8,2.89,4.8-1.67,9.61-3.36,14.42-5,5.63-2,10.67-1.77,16.52-1.94,1.92-.06,1.93-3.06,0-3Z"/><path class="cls-10" d="M1132.26,155.68c-8.2-.41-16.34-.66-24.37,1.3-1.87.46-1.08,3.36.8,2.9,7.76-1.9,15.65-1.59,23.57-1.2,1.92.1,1.92-2.9,0-3Z"/><path class="cls-10" d="M1123.33,162.22a131.07,131.07,0,0,0-21.15.78c-5.75.71-11.71,1.42-16.8,4.35a1.5,1.5,0,0,0,1.51,2.59c5.55-3.19,12.69-3.75,18.94-4.33a134.52,134.52,0,0,1,17.5-.39c1.93.08,1.92-2.92,0-3Z"/><path class="cls-10" d="M1115.87,167.52A146.38,146.38,0,0,0,1085.05,178c-1.75.82-.23,3.4,1.51,2.59a142.72,142.72,0,0,1,30.11-10.15c1.89-.42,1.09-3.31-.8-2.89Z"/><path class="cls-10" d="M1112.15,175.55c-6.64,1.86-13.28,3.72-19.88,5.69-5.28,1.58-11.42,2.71-15.88,6.11-1.52,1.16,0,3.77,1.51,2.59,4.67-3.56,11.49-4.72,17-6.37,6-1.76,12-3.44,18-5.13a1.5,1.5,0,0,0-.8-2.89Z"/><path class="cls-10" d="M1099.87,184.48c-10.67,5.07-21.63,10.23-30,18.8-1.35,1.38.77,3.51,2.12,2.12,8.18-8.37,19-13.37,29.4-18.33,1.74-.83.22-3.41-1.52-2.59Z"/><path class="cls-10" d="M1084.68,200.21c-9.09.71-17.7,6.72-23.62,13.37-1.27,1.44.84,3.57,2.13,2.12,5.31-6,13.26-11.85,21.49-12.49,1.91-.15,1.93-3.15,0-3Z"/><path class="cls-10" d="M1074.58,211.57a159.25,159.25,0,0,0-24.75,16.73c-1.49,1.23.64,3.34,2.12,2.12a154.22,154.22,0,0,1,24.15-16.26c1.69-.92.18-3.52-1.52-2.59Z"/><path class="cls-10" d="M1071.43,222.25a139.7,139.7,0,0,0-28.63,21.37c-1.38,1.35.74,3.47,2.12,2.12a136.4,136.4,0,0,1,28-20.9,1.5,1.5,0,0,0-1.52-2.59Z"/><path class="cls-10" d="M1061.15,237.42a81.72,81.72,0,0,0-22.1,22.57c-1,1.63,1.55,3.13,2.59,1.51a77.9,77.9,0,0,1,21-21.49c1.57-1.1.07-3.71-1.51-2.59Z"/><path class="cls-10" d="M1053.35,253.24c-9.63,4.95-16,15.24-20.67,24.65-.85,1.73,1.74,3.25,2.6,1.52,4.44-9,10.39-18.85,19.58-23.58,1.72-.89.2-3.48-1.51-2.59Z"/><path class="cls-10" d="M1047.92,270.51c-8.47,7.16-17.4,14.59-22,25-.77,1.75,1.82,3.28,2.59,1.51,4.46-10.15,13.21-17.37,21.5-24.37,1.47-1.25-.66-3.36-2.13-2.12Z"/><path class="cls-10" d="M1042.15,284.74c-1.5,4.92-4.81,9-6.79,13.69a38.49,38.49,0,0,0-2.79,12.46c-.12,1.93,2.88,1.92,3,0a35.39,35.39,0,0,1,4.43-15.13c1.87-3.38,3.9-6.5,5-10.22.56-1.85-2.33-2.64-2.9-.8Z"/><path class="cls-10" d="M1047.23,304c-3.46,7.19-9.53,17.39-5.52,25.34.87,1.72,3.46.2,2.59-1.52-3.28-6.5,2.74-16.53,5.52-22.31.84-1.73-1.75-3.25-2.59-1.51Z"/><path class="cls-10" d="M1054.42,314c-.87,4.33.5,7.95,1.94,12.05q2.66,7.54,5.51,15c.67,1.79,3.57,1,2.89-.8q-2.17-5.72-4.25-11.48c-1.53-4.28-4.13-9.36-3.2-14,.38-1.89-2.51-2.7-2.89-.8Z"/><path class="cls-10" d="M1347.17,266.55c9.16,2.85,17.66,7.79,23.41,15.62,1.13,1.54,3.73.05,2.59-1.51-6.25-8.5-15.23-13.9-25.2-17-1.85-.58-2.64,2.32-.8,2.89Z"/><path class="cls-10" d="M1350.94,279.46c3.81,1.64,7.56,3.4,11.22,5.35,2.1,1.11,4.18,2.19,5.57,4.19a24.68,24.68,0,0,0,2.52,3.65c1.35,1.38,3.47-.74,2.12-2.12s-1.89-3.22-3.15-4.64a15.22,15.22,0,0,0-4.27-3c-4.06-2.22-8.25-4.2-12.5-6-1.75-.75-3.28,1.83-1.51,2.59Z"/><path class="cls-10" d="M1351.29,288.56c2.76,8,13.61,8.1,17.42,15.15.91,1.7,3.5.19,2.59-1.51-1.71-3.16-4.79-5.09-7.82-6.83-3.27-1.89-8-3.76-9.3-7.61-.62-1.82-3.52-1-2.89.8Z"/><path class="cls-10" d="M1350.66,301.55c2.46,3.17,6.43,4.28,9.3,7,3.15,3,4.35,7.15,5.4,11.2a1.51,1.51,0,0,0,2.9-.8c-1-3.85-2.16-7.7-4.68-10.86-3-3.74-7.92-4.93-10.8-8.63-1.19-1.52-3.3.62-2.12,2.12Z"/><path class="cls-10" d="M1350.82,316c5.31,5.13,7.16,11.79,8.69,18.78.41,1.89,3.31,1.09,2.89-.79-1.64-7.52-3.78-14.63-9.46-20.11-1.39-1.34-3.51.78-2.12,2.12Z"/><path class="cls-10" d="M1349.42,325.15l2.33,19.6c.23,1.89,3.23,1.91,3,0l-2.33-19.6c-.23-1.9-3.23-1.92-3,0Z"/><path class="cls-10" d="M1340.39,333.21q.13,12.44-.13,24.86l2.56-1.06-1-.87c-1.47-1.24-3.6.87-2.13,2.12l1,.87a1.52,1.52,0,0,0,2.56-1.06q.26-12.42.13-24.86c0-1.93-3-1.93-3,0Z"/><path class="cls-10" d="M1328.47,338.22a55.22,55.22,0,0,1-.44,14.64c-.31,1.88,2.58,2.7,2.89.79a57.8,57.8,0,0,0,.55-15.43c-.19-1.9-3.2-1.92-3,0Z"/><path class="cls-10" d="M1315.73,342.83a86.21,86.21,0,0,1-1.11,18.43c-.32,1.89,2.57,2.7,2.89.8a89.11,89.11,0,0,0,1.22-19.23c-.09-1.93-3.09-1.94-3,0Z"/><path class="cls-10" d="M1303.11,344a106.62,106.62,0,0,1-3.26,16.9,1.5,1.5,0,0,0,2.89.8,111,111,0,0,0,3.37-17.7c.21-1.91-2.8-1.9-3,0Z"/><path class="cls-10" d="M1289.84,345.54l-3,13c-.44,1.87,2.45,2.68,2.89.79l3-13c.44-1.87-2.45-2.68-2.89-.79Z"/><path class="cls-10" d="M1277.15,347.06a27.45,27.45,0,0,1-1.42,12.29c-.64,1.83,2.25,2.62,2.89.8a29.56,29.56,0,0,0,1.53-13.09c-.2-1.9-3.21-1.92-3,0Z"/><path class="cls-10" d="M1262.89,343.21l-.62,21.54c-.06,1.93,2.94,1.93,3,0l.62-21.54c0-1.93-3-1.93-3,0Z"/><path class="cls-10" d="M1251,341.29v13.85a1.5,1.5,0,0,0,3,0V341.29a1.5,1.5,0,0,0-3,0Z"/><path class="cls-10" d="M1233.54,342.06v13.08a1.5,1.5,0,0,0,3,0V342.06a1.5,1.5,0,0,0-3,0Z"/><path class="cls-10" d="M1213.51,342.83v15a1.5,1.5,0,0,0,3,0v-15a1.5,1.5,0,0,0-3,0Z"/><path class="cls-10" d="M1069,331.67c1,8-1.52,16,6,21.49,1.56,1.14,3.06-1.46,1.52-2.59-6.22-4.57-3.71-12.36-4.48-18.9-.22-1.89-3.23-1.91-3,0Z"/><path class="cls-10" d="M1077.22,333.59c-.38,8.71,5.41,15.71,12.73,19.72,1.7.93,3.21-1.66,1.52-2.59-6.44-3.52-11.59-9.44-11.25-17.13.09-1.93-2.91-1.93-3,0Z"/><path class="cls-10" d="M1099.81,333.63c-2,7.37.67,14.42,6.07,19.6,1.39,1.33,3.52-.79,2.12-2.12-4.65-4.46-7-10.3-5.3-16.68a1.5,1.5,0,0,0-2.89-.8Z"/><path class="cls-10" d="M1115.61,334c-1.41,7.81.79,14.95,5.62,21.16,1.18,1.52,3.29-.61,2.12-2.12a22.7,22.7,0,0,1-4.85-18.25c.34-1.88-2.55-2.69-2.89-.79Z"/><path class="cls-10" d="M1141.63,336.29a153.45,153.45,0,0,0,.44,20c.17,1.91,3.17,1.93,3,0a153.45,153.45,0,0,1-.44-20c.08-1.93-2.92-1.93-3,0Z"/><path class="cls-10" d="M1157.43,338.62l2.81,16.13c.33,1.9,3.22,1.1,2.89-.79l-2.81-16.14c-.33-1.89-3.22-1.09-2.89.8Z"/><path class="cls-10" d="M1176.51,336.67v16.16a1.5,1.5,0,0,0,3,0V336.67a1.5,1.5,0,0,0-3,0Z"/><path class="cls-10" d="M1200.15,339.36v16.16a1.5,1.5,0,0,0,3,0V339.36a1.5,1.5,0,0,0-3,0Z"/><path class="cls-10" d="M1172.53,160.23c-8.4,4.65-15,12.57-14.86,22.56,0,1.93,3,1.93,3,0-.13-8.95,5.89-15.82,13.38-20,1.68-.93.17-3.52-1.52-2.59Z"/><path class="cls-10" d="M1133.63,187.66c-6.51,4.83-7,11.81-6.19,19.37.2,1.9,3.2,1.92,3,0-.67-6.26-.86-12.65,4.7-16.78,1.53-1.14,0-3.75-1.51-2.59Z"/><path class="cls-10" d="M1174.87,168.62c-2.12,6.19.16,12.34,4.85,16.64,1.42,1.31,3.55-.81,2.12-2.12-4-3.64-5.88-8.47-4.08-13.72.63-1.83-2.27-2.62-2.89-.8Z"/><path class="cls-10" d="M1136.57,193.92c-.87,5.74,2.12,10.49,5.25,15.05,1.08,1.58,3.68.08,2.59-1.51-2.55-3.72-5.67-8-5-12.74.28-1.89-2.61-2.71-2.89-.8Z"/><path class="cls-10" d="M1128.54,185.26c-6.23-1.07-11.66,4.5-15.53,8.68-1.31,1.41.8,3.54,2.12,2.12,2.91-3.15,7.84-8.73,12.62-7.9,1.88.32,2.7-2.57.79-2.9Z"/><path class="cls-10" d="M1229.07,147.86c8.35,1.8,16.38,6,20.58,13.77.92,1.7,3.51.19,2.59-1.51-4.55-8.38-13.29-13.19-22.37-15.15-1.89-.41-2.69,2.49-.8,2.89Z"/><path class="cls-10" d="M1230.28,153.16a17.6,17.6,0,0,1,6.08,8.46c.56,1.84,3.46,1,2.89-.8a20.38,20.38,0,0,0-6.85-9.79c-1.49-1.2-3.62.91-2.12,2.13Z"/><path class="cls-10" d="M1224.3,153.17v7.7a1.5,1.5,0,0,0,3,0v-7.7a1.5,1.5,0,0,0-3,0Z"/><path class="cls-10" d="M1256.91,187.07c6.81,5.58,11.68,12.91,12.16,21.88.1,1.92,3.1,1.94,3,0-.52-9.74-5.6-17.91-13-24-1.49-1.22-3.62.89-2.13,2.12Z"/><path class="cls-10" d="M1253.53,194a145,145,0,0,1-.25,16.55c-.14,1.93,2.86,1.92,3,0a145,145,0,0,0,.25-16.55c-.08-1.92-3.08-1.93-3,0Z"/><path class="cls-10" d="M1243.1,192.81q-2.4,10.88-4.08,21.88c-.29,1.89,2.6,2.7,2.89.8q1.68-11,4.09-21.88c.41-1.88-2.48-2.68-2.9-.8Z"/><path class="cls-10" d="M1195.62,197.52c-8.06,4.6-14.71,11.14-18.19,19.85-.72,1.79,2.18,2.57,2.89.8,3.18-7.95,9.49-13.88,16.81-18.06a1.5,1.5,0,0,0-1.51-2.59Z"/><path class="cls-10" d="M1194,207.42a38.72,38.72,0,0,0,.41,9.25c.31,1.9,3.2,1.1,2.9-.79a35.24,35.24,0,0,1-.31-8.46c.16-1.93-2.84-1.92-3,0Z"/><path class="cls-10" d="M1104.83,230.12l-2.44,12.65c-.36,1.89,2.53,2.7,2.9.8l2.43-12.65c.36-1.89-2.53-2.7-2.89-.8Z"/><path class="cls-10" d="M1114.45,233.58a44,44,0,0,0,1.4,16.18,1.5,1.5,0,0,0,2.89-.8,41.57,41.57,0,0,1-1.29-15.38c.2-1.92-2.81-1.9-3,0Z"/><path class="cls-10" d="M1097.84,225.2c-4.11-.55-6.75,4.63-8.94,7.34-2.6,3.23-5.21,6.33-4.58,10.7.28,1.9,3.17,1.09,2.9-.8-.49-3.33,2.6-6.28,4.51-8.65,1.37-1.69,3.6-5.92,6.11-5.59,1.91.25,1.89-2.75,0-3Z"/><path class="cls-10" d="M1192.56,236.4c4.74.91,11.24,4.61,14,8.64s3.07,9.67,4,14.33c.36,1.89,3.26,1.09,2.9-.8-1-5.37-1.42-11.81-5-16.19a28.32,28.32,0,0,0-15-8.87c-1.89-.36-2.69,2.53-.8,2.89Z"/><path class="cls-10" d="M1191.87,243.48a12.47,12.47,0,0,1,3.13,9.33c-.16,1.92,2.85,1.91,3,0a15.51,15.51,0,0,0-4-11.45c-1.25-1.48-3.37.65-2.12,2.12Z"/><path class="cls-10" d="M1183.23,241.38A52.43,52.43,0,0,0,1178,263.2c0,1.93,3,1.93,3,0a48.81,48.81,0,0,1,4.85-20.31c.83-1.73-1.76-3.26-2.59-1.51Z"/><path class="cls-10" d="M1262.17,253.14a33.72,33.72,0,0,1,3.14,17.74c-.18,1.92,2.82,1.91,3,0a36.72,36.72,0,0,0-3.55-19.26c-.82-1.74-3.41-.22-2.59,1.52Z"/><path class="cls-10" d="M1253,258.2a74.25,74.25,0,0,1-.27,11.93c-.2,1.92,2.8,1.91,3,0a74.25,74.25,0,0,0,.27-11.93c-.12-1.92-3.12-1.94-3,0Z"/><path class="cls-10" d="M1268.47,247.22c5.08.6,10.27,2.95,12.87,7.56a1.5,1.5,0,0,0,2.59-1.52c-3.15-5.58-9.32-8.31-15.46-9-1.92-.22-1.9,2.78,0,3Z"/><path class="cls-10" d="M1300.68,270.16c5.45,3.48,9.64,8.46,10.73,15,.32,1.9,3.21,1.09,2.89-.8-1.21-7.24-6.06-12.89-12.11-16.75-1.63-1.05-3.14,1.55-1.51,2.59Z"/><path class="cls-10" d="M1302.9,284v15.39a1.5,1.5,0,0,0,3,0V284a1.5,1.5,0,0,0-3,0Z"/><path class="cls-10" d="M1294.67,276.66a23.71,23.71,0,0,1-2.31,11.95c-.83,1.73,1.76,3.26,2.59,1.51a26.78,26.78,0,0,0,2.72-13.46c-.13-1.92-3.13-1.93-3,0Z"/><path class="cls-10" d="M1208.45,283.7c-7.77,5.28-12.89,13.39-11.56,23,.26,1.91,3.16,1.1,2.89-.8-1.13-8.17,3.66-15.18,10.18-19.61,1.59-1.08.09-3.68-1.51-2.59Z"/><path class="cls-10" d="M1215.31,293.6a30.91,30.91,0,0,0,1.43,16.63c.67,1.8,3.57,1,2.9-.79a28,28,0,0,1-1.44-15.05c.34-1.88-2.55-2.69-2.89-.79Z"/><path class="cls-10" d="M1225.71,288.88a39.07,39.07,0,0,1,6.73,15.12c.38,1.89,3.27,1.09,2.89-.8a41.14,41.14,0,0,0-7-15.83c-1.12-1.56-3.72-.06-2.59,1.51Z"/><path class="cls-10" d="M1129.41,271.63c-4,5.05-5.62,11-3.93,17.3a1.5,1.5,0,0,0,2.9-.79,16,16,0,0,1,3.15-14.39c1.18-1.51-.93-3.64-2.12-2.12Z"/><path class="cls-10" d="M1140,278.58c-1.29,7.78-.77,15.67,7.4,19.16,1.76.75,3.29-1.83,1.52-2.59-6.89-2.94-7.11-9.22-6-15.77.32-1.89-2.57-2.7-2.89-.8Z"/><path class="cls-10" d="M1150.25,272.51a23.61,23.61,0,0,1,3.66,14.92c-.17,1.92,2.83,1.91,3,0a26.42,26.42,0,0,0-4.07-16.43c-1-1.64-3.61-.14-2.59,1.51Z"/><path class="cls-10" d="M1079.49,280.6c-3.12.48-4.42,2.87-5.13,5.71a48.61,48.61,0,0,0-1.08,14.58c.12,1.92,3.12,1.93,3,0-.24-3.86-1.25-16.6,4-17.39,1.9-.29,1.09-3.19-.8-2.9Z"/><path class="cls-10" d="M1086.89,295.54c-1.47,5.46,0,10.64,3.46,15,1.2,1.51,3.31-.63,2.12-2.13a13.37,13.37,0,0,1-2.68-12.1,1.5,1.5,0,0,0-2.9-.79Z"/><path class="cls-10" d="M1098.51,288c3.59,3.51,5.9,7.79,6,12.88a1.5,1.5,0,0,0,3,0,21.19,21.19,0,0,0-6.82-15c-1.38-1.35-3.51.77-2.13,2.13Z"/><path class="cls-10" d="M1263.77,311.69a156.1,156.1,0,0,1,1.73,18.06c.07,1.92,3.08,1.93,3,0a160.79,160.79,0,0,0-1.84-18.85c-.3-1.91-3.19-1.1-2.89.79Z"/><path class="cls-10" d="M1275.17,320.51l1.19,19.62c.12,1.92,3.12,1.93,3,0l-1.19-19.62c-.11-1.91-3.11-1.93-3,0Z"/><path class="cls-10" d="M1281.18,313.93c4.83,2.13,9.07,5.33,11.6,10.05.91,1.7,3.5.19,2.59-1.51a25.87,25.87,0,0,0-12.67-11.13c-1.75-.78-3.28,1.81-1.52,2.59Z"/><path class="cls-10" d="M1159.08,310a11.57,11.57,0,0,0-9.75,4.3c-2.6,3.37-2.33,7.63-1.8,11.62.24,1.89,3.25,1.91,3,0-.4-3-.94-6.48.74-9.19a8.58,8.58,0,0,1,7.81-3.73c1.93.09,1.93-2.91,0-3Z"/><path class="cls-10" d="M1166.37,322.45a38.33,38.33,0,0,0,.79,13.87c.45,1.88,3.34,1.09,2.89-.79a36.22,36.22,0,0,1-.68-13.08c.24-1.91-2.76-1.89-3,0Z"/><path class="cls-10" d="M1174.46,315.37a13.26,13.26,0,0,1,4.65,9.38c.06,1.92,3.06,1.93,3,0a16.29,16.29,0,0,0-5.53-11.5c-1.41-1.31-3.54.81-2.12,2.12Z"/><path class="cls-10" d="M1195,135.66c-6-.39-12.88-.72-17.57,3.74-1.4,1.34.73,3.46,2.13,2.13,4-3.83,10.34-3.2,15.44-2.87,1.92.12,1.92-2.88,0-3Z"/><path class="cls-10" d="M1195.57,142q-.27,8.28.15,16.55c.1,1.92,3.1,1.93,3,0q-.42-8.28-.15-16.55c.06-1.93-2.94-1.93-3,0Z"/><path class="cls-10" d="M1205.81,145.89l1.65,4.59c.65,1.8,3.55,1,2.9-.8l-1.66-4.59c-.65-1.8-3.55-1-2.89.8Z"/><path class="cls-10" d="M1300,229.43c6,1.66,11.53,4.63,15.58,9.48,1.24,1.49,3.35-.64,2.12-2.12-4.36-5.22-10.41-8.47-16.9-10.25a1.5,1.5,0,0,0-.8,2.89Z"/><path class="cls-10" d="M1150.27,223.57c-5.14.23-11.11,3-12.3,8.44-.42,1.89,2.48,2.69,2.89.8.9-4.15,5.56-6.07,9.41-6.24,1.92-.09,1.93-3.09,0-3Z"/><path class="cls-10" d="M1089.16,255.89c-6.59-.08-15.91,1.06-18.22,8.47-.57,1.85,2.32,2.64,2.89.8,1.84-5.9,10.32-6.33,15.33-6.27,1.93,0,1.93-3,0-3Z"/><path class="cls-10" d="M1226,229a38.8,38.8,0,0,1,16.16,9.46,1.5,1.5,0,0,0,2.13-2.12,42.13,42.13,0,0,0-17.5-10.23c-1.84-.58-2.63,2.32-.79,2.89Z"/><path class="cls-10" d="M1211.9,182.33c1.58.07,6.71,0,6.89,2.41.14,1.91,3.14,1.93,3,0-.36-4.75-6.23-5.25-9.89-5.41-1.93-.08-1.92,2.92,0,3Z"/><path class="cls-10" d="M1236.36,265c-6.18-1.72-7.83,7.15-9.14,11.27-.59,1.85,2.31,2.64,2.89.8s1.22-3.68,1.91-5.5c.6-1.59,1.26-4.32,3.54-3.68a1.5,1.5,0,0,0,.8-2.89Z"/><path class="cls-10" d="M1316.56,310.19c3.89,1.81,7.43,4.66,8.92,8.82.64,1.8,3.54,1,2.89-.8-1.75-4.9-5.66-8.45-10.3-10.61-1.74-.81-3.26,1.77-1.51,2.59Z"/><path class="cls-10" d="M1231.15,318.48a26.13,26.13,0,0,0-1.5,14.34c.32,1.9,3.22,1.09,2.9-.8a23.17,23.17,0,0,1,1.5-12.74c.71-1.79-2.19-2.57-2.9-.8Z"/><path class="cls-9" d="M477.77,325.4c-4,51.44,79.73,27.38,150.52,20.94,72.18-6.57,163.8-3.23,137.93-51.1-21.25-39.34-90.06-87.05-158-81.61S481,283.6,477.77,325.4Z"/><path class="cls-10" d="M605,215.73c10.74-1.21,21.67-2.47,32.4-.53l.4-2.95-3,.32c-1.9.19-1.92,3.2,0,3l3-.32c1.53-.15,2.2-2.62.4-2.94-11-2-22.16-.83-33.2.42-1.9.22-1.92,3.22,0,3Z"/><path class="cls-10" d="M604,213.1c-12.32.07-24.64,2.23-35.85,7.47-1.75.82-.22,3.41,1.52,2.59,10.71-5,22.56-7,34.33-7.06a1.5,1.5,0,0,0,0-3Z"/><path class="cls-10" d="M586.49,216.64c-9.85.39-19.42,4.27-28.76,7.1-1.84.56-1.06,3.46.8,2.89,9.05-2.74,18.42-6.61,28-7,1.92-.08,1.93-3.08,0-3Z"/><path class="cls-10" d="M573.26,222.58A88,88,0,0,0,559,223.86c-4.54.92-8.46,3-12.58,5.06-1.73.85-.21,3.44,1.51,2.59,3.87-1.92,7.6-3.89,11.86-4.75a81.77,81.77,0,0,1,13.44-1.18c1.92-.07,1.93-3.07,0-3Z"/><path class="cls-10" d="M564.37,225.39c-8.9.66-19.77,1.46-26.53,8-1.38,1.34.74,3.46,2.12,2.12,6.09-5.92,16.42-6.56,24.41-7.15,1.91-.14,1.93-3.14,0-3Z"/><path class="cls-10" d="M558.67,230.13c-9.22.37-18.42,3.24-27.4,5.23-1.88.42-1.09,3.31.8,2.9,8.68-1.93,17.7-4.77,26.6-5.13,1.93-.08,1.94-3.08,0-3Z"/><path class="cls-10" d="M549.81,234.49c-7.06,1.95-14,4.4-21,6.62-1.84.59-1.05,3.48.79,2.89,7-2.22,13.94-4.67,21-6.61a1.51,1.51,0,0,0-.8-2.9Z"/><path class="cls-10" d="M550,238.08a159.23,159.23,0,0,0-31.41,7.62c-1.8.65-1,3.55.8,2.89A159.23,159.23,0,0,1,550.83,241c1.9-.27,1.09-3.16-.8-2.89Z"/><path class="cls-10" d="M535.38,243.81a340.33,340.33,0,0,0-32.67,12.52c-1.76.79-.23,3.37,1.52,2.59a330.41,330.41,0,0,1,31.95-12.21c1.82-.6,1-3.5-.8-2.9Z"/><path class="cls-10" d="M532.94,247.49q-13.35,5.07-26.46,10.71c-1.77.76-.25,3.35,1.51,2.59q12.76-5.48,25.75-10.41c1.78-.68,1-3.58-.8-2.89Z"/><path class="cls-10" d="M533.85,253.39c-8.7,1.8-17.31,6.1-25.6,9.24-1.78.68-1,3.58.8,2.9,8.29-3.15,16.9-7.45,25.6-9.25,1.89-.39,1.09-3.28-.8-2.89Z"/><path class="cls-10" d="M519.46,261.94c-8.25.69-16.86,5.18-24.14,8.93-1.72.88-.2,3.47,1.51,2.59,6.74-3.47,14.95-7.88,22.63-8.52,1.91-.15,1.92-3.16,0-3Z"/><path class="cls-10" d="M513.74,269.2c-7.67,1.11-15.33,5.75-22.14,9.27-1.72.88-.2,3.47,1.51,2.59,6.55-3.39,14.06-7.9,21.43-9,1.91-.27,1.1-3.16-.8-2.89Z"/><path class="cls-10" d="M508.64,273.68c-3.42,1-7.45,3-9.74,5.87-1.48,1.84-2.43,3.66-4.31,5.17-2.57,2.07-5.3,4-8,5.93-1.53,1.13,0,3.74,1.52,2.59,3.48-2.58,7.7-5,10.65-8.18,1.18-1.3,1.8-3,3-4.26a19.45,19.45,0,0,1,7.62-4.22c1.85-.55,1.06-3.45-.8-2.9Z"/><path class="cls-10" d="M504.92,285.26a228.1,228.1,0,0,1-25.26,12.15c-1.76.72-1,3.62.8,2.89a235.41,235.41,0,0,0,26-12.45,1.5,1.5,0,0,0-1.52-2.59Z"/><path class="cls-10" d="M499.7,295.05a71.22,71.22,0,0,0-20.61,6.39c-1.73.86-.22,3.45,1.51,2.59a68.93,68.93,0,0,1,19.9-6.09c1.9-.31,1.09-3.2-.8-2.89Z"/><path class="cls-10" d="M489.07,300.53a21.74,21.74,0,0,0-3.18,2.56,17,17,0,0,1-4.55,2.18,17.05,17.05,0,0,0-6.54,4.51c-1.3,1.42.81,3.55,2.12,2.12,2.22-2.41,4.62-3.44,7.59-4.67,2.46-1,3.83-2.91,6.07-4.11,1.71-.91.19-3.5-1.51-2.59Z"/><path class="cls-10" d="M626.52,216.77c9.41-.07,18.83-2.69,28.23-1.19,1.89.3,2.7-2.59.8-2.9-9.72-1.55-19.31,1-29,1.09a1.5,1.5,0,0,0,0,3Z"/><path class="cls-10" d="M642.37,219.49a47.22,47.22,0,0,1,7.69-.64c2.4.08,4.67.88,7,1,4.91.19,9.87-.44,14.81-.24,1.93.08,1.93-2.92,0-3-5.89-.23-11.9.55-17.71-.27a44.48,44.48,0,0,0-12.62.28c-1.91.26-1.1,3.15.79,2.89Z"/><path class="cls-10" d="M657.45,223c5.13-.33,9.79-.79,14.91,0,4.39.65,8.77,1.34,13.16,2,1.89.29,2.7-2.6.8-2.89-4.94-.76-9.87-1.56-14.82-2.26-4.76-.67-9.28-.13-14,.18-1.92.12-1.93,3.12,0,3Z"/><path class="cls-10" d="M671.62,228.63c7.13-.82,14.23-1.55,21.41-.95,1.92.16,1.91-2.84,0-3-7.18-.6-14.29.13-21.41.95-1.9.21-1.92,3.22,0,3Z"/><path class="cls-10" d="M680.12,232c10.37-1.11,22.93-2.72,33.09.29,1.85.55,2.64-2.35.79-2.9-10.49-3.1-23.18-1.54-33.88-.39-1.9.21-1.92,3.21,0,3Z"/><path class="cls-10" d="M686.85,234.64a178.28,178.28,0,0,1,27.57,4c1.88.43,2.68-2.46.8-2.9a184.78,184.78,0,0,0-28.37-4.13c-1.93-.14-1.92,2.87,0,3Z"/><path class="cls-10" d="M690.85,239.25c5.26.57,10.51,1.14,15.77,1.75s11.24.76,16.31,2.75c1.8.7,2.58-2.2.8-2.9-4.73-1.85-10.26-2-15.27-2.63-5.86-.7-11.74-1.34-17.61-2-1.92-.21-1.9,2.79,0,3Z"/><path class="cls-10" d="M701.81,243.67c9.41,2.2,19.13,4.26,27.64,9a1.5,1.5,0,0,0,1.52-2.59c-8.75-4.88-18.69-7-28.36-9.3-1.88-.44-2.68,2.45-.8,2.89Z"/><path class="cls-10" d="M717.76,252.26c7.06-.14,14.44,2.35,20.41,6,1.65,1,3.16-1.58,1.52-2.59-6.43-4-14.34-6.6-21.93-6.45-1.93,0-1.93,3,0,3Z"/><path class="cls-10" d="M726.63,258.31a165.71,165.71,0,0,1,22.8,8.12c1.75.78,3.28-1.81,1.52-2.59a169.32,169.32,0,0,0-23.52-8.42,1.5,1.5,0,0,0-.8,2.89Z"/><path class="cls-10" d="M730.36,264.57A140.38,140.38,0,0,1,757,275.22c1.7.91,3.22-1.68,1.51-2.59a143.89,143.89,0,0,0-27.37-10.95c-1.85-.55-2.65,2.35-.79,2.89Z"/><path class="cls-10" d="M740.81,273a67.78,67.78,0,0,1,20.41,11.45c1.46,1.24,3.6-.87,2.12-2.13a72.23,72.23,0,0,0-21.73-12.21c-1.81-.68-2.59,2.21-.8,2.89Z"/><path class="cls-10" d="M749.12,282.08c7.63,2,14,7.11,19.31,12.82,1.31,1.42,3.43-.71,2.12-2.13-5.61-6.06-12.52-11.49-20.64-13.58a1.5,1.5,0,0,0-.79,2.89Z"/><path class="cls-10" d="M754.78,291.9c7.42,3.41,15.81,6.77,21.15,13.2,1.23,1.48,3.35-.65,2.12-2.13-5.52-6.64-14.1-10.14-21.75-13.66-1.74-.8-3.27,1.79-1.52,2.59Z"/><path class="cls-10" d="M760.21,299.22c1.43,2.4,3.57,4.09,5.54,6a17.46,17.46,0,0,1,5,8.56c.43,1.88,3.33,1.08,2.89-.8a19.12,19.12,0,0,0-3.75-7.64c-2.17-2.72-5.31-4.65-7.1-7.67a1.5,1.5,0,0,0-2.59,1.52Z"/><path class="cls-10" d="M757.76,311.76c2.17,2.41,8.79,8.61,6.74,12.24a1.5,1.5,0,0,0,2.59,1.52c3.16-5.61-3.75-12-7.21-15.88-1.29-1.44-3.41.69-2.12,2.12Z"/><path class="cls-10" d="M751.84,317.83c1,2.34-.9,5.84-1.71,8.05-.9,2.44-1.83,4.86-2.78,7.28-.71,1.79,2.19,2.57,2.89.79,1.32-3.33,2.6-6.69,3.79-10.07,1-2.68,1.6-4.87.4-7.56-.78-1.76-3.37-.24-2.59,1.51Z"/><path class="cls-10" d="M489.2,306.48c-7.7,2.33-15.5,5.8-20.85,12-1.25,1.45.86,3.58,2.13,2.12,5-5.84,12.28-9.06,19.52-11.24,1.84-.56,1.06-3.46-.8-2.9Z"/><path class="cls-10" d="M486.67,314.71c-3.52,1.37-7,2.82-10.41,4.44a15.44,15.44,0,0,0-3.89,2.22c-1.06,1-1.55,2.31-2.64,3.26-1.46,1.26.67,3.38,2.12,2.12a12.72,12.72,0,0,0,1.77-2.17,9.93,9.93,0,0,1,4.15-2.84c3.18-1.51,6.42-2.86,9.69-4.14,1.78-.7,1-3.6-.79-2.89Z"/><path class="cls-10" d="M485.56,321.89c-.87,2.5-5.3,3.89-7.45,5-2.4,1.21-5,2.51-6.46,4.87-1,1.66,1.58,3.17,2.59,1.52,3.11-5.11,12.09-4.42,14.21-10.57.64-1.82-2.26-2.61-2.89-.79Z"/><path class="cls-10" d="M487.92,328.64c-2.26,2.54-6,3.18-8.48,5.6-2.1,2.07-3,4.75-3.69,7.56-.43,1.88,2.46,2.68,2.89.79.71-3.06,1.77-5.71,4.52-7.49,2.28-1.48,5-2.26,6.88-4.34,1.28-1.44-.84-3.57-2.12-2.12Z"/><path class="cls-10" d="M489,337.43c-4.22,3.42-5.87,7.9-6.77,13.1-.33,1.89,2.56,2.7,2.89.8.82-4.73,2.15-8.66,6-11.78,1.5-1.22-.63-3.33-2.12-2.12Z"/><path class="cls-10" d="M490.32,344.6,490,356.66c-.06,1.93,2.94,1.93,3,0l.37-12.06c.06-1.93-2.94-1.93-3,0Z"/><path class="cls-10" d="M499.05,348.85q1,7.77,2.32,15.47a1.51,1.51,0,0,0,2.21.9l.83-.6c1.55-1.12.06-3.72-1.51-2.59l-.84.6,2.21.9c-.85-4.88-1.6-9.77-2.22-14.68-.24-1.89-3.24-1.91-3,0Z"/><path class="cls-10" d="M510.08,351a25.08,25.08,0,0,0,1.79,9.49c.7,1.77,3.61,1,2.89-.8a22.9,22.9,0,0,1-1.68-8.69,1.5,1.5,0,0,0-3,0Z"/><path class="cls-10" d="M521.8,352.93a38.91,38.91,0,0,0,2.72,11.74c.71,1.77,3.61,1,2.89-.79a36.57,36.57,0,0,1-2.61-10.95c-.14-1.91-3.14-1.93-3,0Z"/><path class="cls-10" d="M533.17,353.14a52.55,52.55,0,0,0,4.6,10.61,1.5,1.5,0,0,0,2.59-1.51,48.52,48.52,0,0,1-4.29-9.9c-.57-1.84-3.46-1.06-2.9.8Z"/><path class="cls-10" d="M545.33,353.73l3.83,7.68c.86,1.73,3.44.21,2.59-1.51l-3.83-7.69c-.86-1.73-3.45-.21-2.59,1.52Z"/><path class="cls-10" d="M556.45,352.76a14.16,14.16,0,0,0,2.62,8.35c1.09,1.58,3.69.08,2.6-1.52a11.3,11.3,0,0,1-2.22-6.83c0-1.94-3-1.94-3,0Z"/><path class="cls-10" d="M568.85,349.8l2.42,13c.35,1.89,3.25,1.09,2.89-.8l-2.41-13c-.36-1.89-3.25-1.09-2.9.8Z"/><path class="cls-10" d="M579.24,347.79l1.2,8.4c.27,1.91,3.16,1.1,2.89-.79l-1.2-8.41c-.27-1.9-3.16-1.09-2.89.8Z"/><path class="cls-10" d="M594.83,347,596,355c.27,1.9,3.16,1.09,2.89-.8l-1.13-7.93c-.28-1.91-3.17-1.1-2.9.79Z"/><path class="cls-10" d="M612.71,346.05l1.3,9.11c.27,1.9,3.16,1.09,2.89-.8l-1.3-9.1c-.27-1.91-3.16-1.1-2.89.79Z"/><path class="cls-10" d="M740.16,328.6c-.13,4.4,2.53,8.45-2.14,11.33-1.65,1-.14,3.6,1.51,2.59a8.61,8.61,0,0,0,4.19-5.16c.73-2.94-.65-5.81-.56-8.76.06-1.93-2.94-1.93-3,0Z"/><path class="cls-10" d="M733,330.75c1.08,5-4.59,8.54-8.37,10.34-1.74.83-.22,3.42,1.51,2.59,5.23-2.49,11.16-7.2,9.75-13.73-.41-1.88-3.3-1.08-2.89.8Z"/><path class="cls-10" d="M713.2,333c2.13,3.77-.27,7.19-3.25,9.59-1.5,1.21.63,3.33,2.12,2.12,4.09-3.3,6.51-8.28,3.72-13.22A1.5,1.5,0,0,0,713.2,333Z"/><path class="cls-10" d="M699,334c1.7,4.07.31,7.74-2.56,10.87-1.3,1.42.81,3.55,2.12,2.12,3.51-3.84,5.44-8.75,3.33-13.78-.73-1.76-3.64-1-2.89.79Z"/><path class="cls-10" d="M676,337a62.91,62.91,0,0,1,1.28,11.77c0,1.93,3,1.94,3,0a66.36,66.36,0,0,0-1.39-12.56c-.39-1.89-3.28-1.09-2.89.79Z"/><path class="cls-10" d="M662.15,338.87l-1.11,10c-.21,1.91,2.79,1.9,3,0l1.11-10c.21-1.92-2.79-1.9-3,0Z"/><path class="cls-10" d="M645.05,339.69l1.4,9.8c.28,1.9,3.17,1.1,2.9-.8l-1.4-9.8c-.27-1.9-3.17-1.09-2.9.8Z"/><path class="cls-10" d="M624.28,343l1.4,9.81c.27,1.9,3.16,1.09,2.89-.8l-1.4-9.8c-.27-1.91-3.16-1.1-2.89.79Z"/><path class="cls-10" d="M635.13,234.13c5,1.4,12.6,4.39,13.28,10.45.22,1.9,3.22,1.92,3,0-.86-7.65-8.9-11.5-15.49-13.34a1.5,1.5,0,0,0-.79,2.89Z"/><path class="cls-10" d="M672.08,248c4.28,1.67,5.37,4.78,5.31,9.14,0,1.93,3,1.93,3,0,0-2.74-.1-5.54-1.72-7.87a12.07,12.07,0,0,0-5.79-4.16c-1.8-.7-2.58,2.2-.8,2.89Z"/><path class="cls-10" d="M632.19,238.2c1.93,2.86.35,5.58-2.12,7.48-1.5,1.16,0,3.77,1.52,2.59,3.67-2.83,6.11-7.26,3.19-11.58-1.08-1.59-3.68-.09-2.59,1.51Z"/><path class="cls-10" d="M668.27,250.47c1,2.72-1.35,5.34-2.94,7.33-1.19,1.5.92,3.63,2.12,2.12,2.28-2.85,5.17-6.38,3.72-10.25-.68-1.79-3.58-1-2.9.8Z"/><path class="cls-10" d="M678.23,246.2c4.15-.81,8.63,1.83,12.07,3.87a1.5,1.5,0,0,0,1.52-2.59c-4.26-2.51-9.31-5.16-14.39-4.17-1.89.36-1.09,3.26.8,2.89Z"/><path class="cls-10" d="M583.89,226.07c-7,1.61-14.82,4.61-18.74,11-1,1.65,1.58,3.16,2.59,1.51,3.49-5.68,10.8-8.18,16.94-9.61,1.88-.44,1.09-3.33-.79-2.89Z"/><path class="cls-10" d="M582.35,229.8c-2.5,1.71-4.75,3.91-5.64,6.89-.55,1.86,2.35,2.65,2.9.8a10,10,0,0,1,4.26-5.1c1.58-1.09.08-3.69-1.52-2.59Z"/><path class="cls-10" d="M586.69,231.75l.66,4.67a1.53,1.53,0,0,0,1.85,1.05,1.55,1.55,0,0,0,1-1.85l-.67-4.67a1.51,1.51,0,0,0-1.85-1,1.53,1.53,0,0,0-1,1.84Z"/><path class="cls-10" d="M561.62,252.27c-5.37,3.71-10.44,9.12-10,16.11.14,1.92,3.14,1.93,3,0-.41-5.9,3.93-10.39,8.46-13.52,1.58-1.09.08-3.69-1.51-2.59Z"/><path class="cls-10" d="M564.18,258.18a64.52,64.52,0,0,0,1.71,10.42c.47,1.87,3.37,1.08,2.9-.8a59.27,59.27,0,0,1-1.61-9.62c-.15-1.92-3.15-1.93-3,0Z"/><path class="cls-10" d="M573.64,257.74q3,6.19,5.37,12.62c.67,1.8,3.57,1,2.9-.8q-2.53-6.8-5.68-13.34c-.83-1.74-3.42-.22-2.59,1.52Z"/><path class="cls-10" d="M617.84,258.4c6,1.77,12.37,4.45,16.3,9.56,1.16,1.51,3.77,0,2.59-1.51-4.46-5.8-11.23-8.92-18.1-10.94-1.85-.55-2.64,2.34-.79,2.89Z"/><path class="cls-10" d="M618.29,262.51a14,14,0,0,1,.4,5c-.18,1.92,2.82,1.91,3,0a16.45,16.45,0,0,0-.51-5.8,1.5,1.5,0,0,0-2.89.8Z"/><path class="cls-10" d="M699.77,270.53,703,278c.77,1.76,3.35.24,2.59-1.52l-3.26-7.5c-.77-1.77-3.35-.24-2.59,1.51Z"/><path class="cls-10" d="M691.28,272.72a16.43,16.43,0,0,1,.18,8.88c-.47,1.87,2.42,2.67,2.89.79a19.59,19.59,0,0,0-.17-10.47c-.55-1.84-3.44-1.06-2.9.8Z"/><path class="cls-10" d="M708.63,268.3c1.91-.32,4.26,2,5.74,3s4.63,2.43,4.49,4.49,2.86,1.92,3,0c.22-3.19-3-5-5.27-6.6-2.7-1.84-5.29-4.38-8.76-3.78-1.9.33-1.09,3.22.8,2.89Z"/><path class="cls-10" d="M624,277.19a28.13,28.13,0,0,0-11.64,5.63c-3.59,3-3.67,7.43-4.24,11.74-.25,1.91,2.75,1.89,3,0,.59-4.43.72-8,4.8-10.58a26.91,26.91,0,0,1,8.88-3.9c1.89-.36,1.09-3.26-.8-2.89Z"/><path class="cls-10" d="M624,282.1c-2.16,2.15-3.49,5-2.66,8a1.5,1.5,0,0,0,2.89-.8c-.55-2,.49-3.71,1.89-5.1A1.5,1.5,0,0,0,624,282.1Z"/><path class="cls-10" d="M631.46,283.45a23.16,23.16,0,0,1,5.93,11.76c.32,1.9,3.21,1.09,2.9-.8a26.1,26.1,0,0,0-6.71-13.08c-1.29-1.44-3.4.69-2.12,2.12Z"/><path class="cls-10" d="M562,293.47a16.79,16.79,0,0,0-1.51,12.62,1.5,1.5,0,0,0,2.89-.8A13.6,13.6,0,0,1,564.55,295c.88-1.71-1.71-3.23-2.6-1.51Z"/><path class="cls-10" d="M570.21,297.12a32.89,32.89,0,0,0,1.32,7.62c.56,1.84,3.45,1.06,2.9-.8a28.23,28.23,0,0,1-1.22-6.82c-.11-1.92-3.11-1.93-3,0Z"/><path class="cls-10" d="M557.83,289.1c-4.68.76-10.07,2.53-12.77,6.73-1,1.63,1.55,3.13,2.59,1.51,2.24-3.48,7.15-4.72,11-5.35,1.9-.31,1.09-3.2-.8-2.89Z"/><path class="cls-10" d="M530.17,305.63c-4.55,2.49-9,6.25-9.52,11.73-.18,1.92,2.82,1.91,3,0,.41-4.29,4.58-7.24,8-9.14,1.69-.92.18-3.52-1.52-2.59Z"/><path class="cls-10" d="M528.15,316.7l1.34,9.34c.27,1.9,3.16,1.09,2.89-.8l-1.33-9.33c-.28-1.91-3.17-1.1-2.9.79Z"/><path class="cls-10" d="M534.79,311.29a13.59,13.59,0,0,0,3.77,8.59c1.29,1.44,3.41-.69,2.12-2.13a10.2,10.2,0,0,1-2.89-6.46c-.09-1.93-3.09-1.94-3,0Z"/><path class="cls-10" d="M613.9,311.6c4.62,1.64,10.82,5,10.41,10.71-.14,1.93,2.86,1.92,3,0,.51-7.19-6.75-11.52-12.61-13.6-1.82-.65-2.61,2.24-.8,2.89Z"/><path class="cls-10" d="M606.93,316.55a11.37,11.37,0,0,1,.09,8.92c-.69,1.8,2.21,2.58,2.89.79a13.77,13.77,0,0,0-.09-10.51c-.74-1.75-3.64-1-2.89.8Z"/><path class="cls-10" d="M597.69,312.26a21.44,21.44,0,0,0-5.16,10.54c-.28,1.89,2.61,2.7,2.9.8a18.39,18.39,0,0,1,4.39-9.22c1.23-1.47-.88-3.6-2.13-2.12Z"/><path class="cls-10" d="M682.45,298.38c2.56,1.78,4.66,4.4,3.84,7.67-.48,1.87,2.41,2.67,2.89.8,1.18-4.67-1.51-8.48-5.21-11.06-1.59-1.11-3.09,1.49-1.52,2.59Z"/><path class="cls-10" d="M672.57,302.08c.73,1.84,1.72,4,.79,6a7.23,7.23,0,0,1-4.19,3.25c-1.79.68-1,3.58.8,2.89,2.4-.91,4.74-2.27,6-4.62,1.43-2.72.57-5.62-.48-8.3-.7-1.77-3.6-1-2.9.8Z"/><path class="cls-10" d="M663.11,297.26a12.65,12.65,0,0,0-2.23,10.94,1.5,1.5,0,0,0,2.89-.79c-.88-3.18.07-6,1.93-8.63,1.12-1.58-1.48-3.08-2.59-1.52Z"/><path class="cls-10" d="M729,300.67c3.83,0,4.53,6.74,4.68,9.57.1,1.92,3.1,1.93,3,0-.25-4.79-1.61-12.55-7.68-12.57a1.5,1.5,0,0,0,0,3Z"/><path class="cls-10" d="M721.38,309c1.36,2.42.48,4.71-1.32,6.63-1.32,1.4.8,3.53,2.12,2.12,2.72-2.91,3.82-6.65,1.79-10.27a1.5,1.5,0,0,0-2.59,1.52Z"/><path class="cls-10" d="M710.85,302.48c-3,2.45-5.44,5.94-4.91,10,.25,1.89,3.25,1.92,3,0-.43-3.31,1.6-5.85,4-7.85,1.49-1.23-.64-3.34-2.12-2.12Z"/><path class="cls-10" d="M565.3,330.1a65.84,65.84,0,0,0,0,11.32c.16,1.91,3.17,1.92,3,0a65.84,65.84,0,0,1,0-11.32c.16-1.93-2.84-1.92-3,0Z"/><path class="cls-10" d="M555.91,336.51l.64,12c.11,1.92,3.11,1.93,3,0l-.64-12c-.1-1.92-3.1-1.94-3,0Z"/><path class="cls-10" d="M551.65,330.65c-4.18,1.67-8.37,4-10.76,8a1.5,1.5,0,0,0,2.59,1.51c2-3.24,5.54-5.22,9-6.59,1.77-.71,1-3.62-.8-2.9Z"/><path class="cls-10" d="M661.14,324.14a10.63,10.63,0,0,1,6.69,1.13c2,1.23,2.11,3.26,2,5.41-.09,1.93,2.91,1.92,3,0,.14-2.86-.25-5.59-2.66-7.44a12.64,12.64,0,0,0-9-2.1c-1.89.22-1.92,3.23,0,3Z"/><path class="cls-10" d="M652.84,330.34a14.12,14.12,0,0,1,.51,7.43c-.38,1.88,2.51,2.69,2.89.8a17.21,17.21,0,0,0-.51-9c-.6-1.82-3.5-1-2.89.8Z"/><path class="cls-10" d="M645.72,324.49c-2.38,1.85-4.39,4.58-4.06,7.75.2,1.9,3.2,1.92,3,0-.25-2.44,1.38-4.22,3.18-5.63,1.52-1.19-.61-3.3-2.12-2.12Z"/><path class="cls-10" d="M614.15,220.94c4.49-.56,10-1.57,14.19.63,1.71.89,3.23-1.7,1.52-2.59-4.79-2.5-10.57-1.68-15.71-1-1.89.24-1.92,3.24,0,3Z"/><path class="cls-10" d="M611.25,222.94a78.62,78.62,0,0,1,1.25,9.65c.12,1.92,3.12,1.93,3,0a85.6,85.6,0,0,0-1.36-10.45c-.36-1.89-3.25-1.09-2.89.8Z"/><path class="cls-10" d="M602.5,225l-1.07,2.91a1.5,1.5,0,0,0,1.05,1.84,1.52,1.52,0,0,0,1.84-1.05l1.08-2.9a1.5,1.5,0,0,0-2.9-.8Z"/><path class="cls-10" d="M527.92,280.61c-5.2,1.42-10.4,3.62-14.24,7.52-1.36,1.38.76,3.51,2.12,2.13,3.48-3.55,8.2-5.47,12.92-6.76a1.5,1.5,0,0,0-.8-2.89Z"/><path class="cls-10" d="M661.49,271.1c2.72-.12,7.59,0,9,2.94.85,1.74,3.43.22,2.59-1.51-1.9-3.93-7.77-4.6-11.58-4.43-1.92.09-1.93,3.09,0,3Z"/><path class="cls-10" d="M718.61,286.37c3.85-.34,11.73-1.31,14.25,2.53,1,1.61,3.65.11,2.59-1.52-3.32-5.05-11.67-4.47-16.84-4-1.91.16-1.93,3.16,0,3Z"/><path class="cls-10" d="M593.62,275.1a40.75,40.75,0,0,0-14.76,7.55c-1.48,1.25.65,3.37,2.12,2.13A37,37,0,0,1,594.42,278c1.84-.56,1.06-3.45-.8-2.89Z"/><path class="cls-10" d="M602.88,245.65c-2.65.29-8.68.64-8.62,4.46,0,1.93,3,1.94,3,0,0-.46,2.13-.92,2.42-1a26.54,26.54,0,0,1,3.2-.47c1.9-.21,1.92-3.21,0-3Z"/><path class="cls-10" d="M589.31,302.22c1.47-.42,2.34.25,3.19,1.38s1.7,2.38,2.48,3.62c1,1.63,3.63.13,2.59-1.51-2.07-3.28-4.47-7.71-9.06-6.38a1.5,1.5,0,0,0,.8,2.89Z"/><path class="cls-10" d="M519.89,330.9c-3.63,1.52-7.33,3.75-8.75,7.63-.66,1.81,2.23,2.6,2.89.79,1-2.75,4.12-4.47,6.65-5.53,1.76-.73,1-3.63-.79-2.89Z"/><path class="cls-10" d="M595.15,333.14a9.86,9.86,0,0,1,2.3,7.35c-.2,1.92,2.8,1.9,3,0a12.26,12.26,0,0,0-2.71-8.87c-1.16-1.51-3.77,0-2.59,1.52Z"/><polygon class="cls-11" points="1505.82 1078.27 377.54 1078.27 253 958 1640.44 965.95 1505.82 1078.27"/><ellipse class="cls-12" cx="958.99" cy="835.87" rx="753.26" ry="201.12"/><ellipse class="cls-13" cx="285.86" cy="809.95" rx="54.49" ry="40.8"/><ellipse class="cls-13" cx="341" cy="779.23" rx="54.49" ry="40.8"/><ellipse class="cls-13" cx="432.03" cy="755.23" rx="54.49" ry="40.8"/><ellipse class="cls-13" cx="1233.36" cy="708.19" rx="54.49" ry="40.8"/><ellipse class="cls-13" cx="1132.08" cy="699.55" rx="54.49" ry="40.8"/><ellipse class="cls-13" cx="1025.66" cy="688.03" rx="54.49" ry="40.8"/><ellipse class="cls-13" cx="924.37" cy="688.03" rx="54.49" ry="40.8"/><ellipse class="cls-13" cx="823.08" cy="688.03" rx="54.49" ry="40.8"/><ellipse class="cls-13" cx="720.51" cy="699.55" rx="54.49" ry="40.8"/><ellipse class="cls-13" cx="616.66" cy="708.19" rx="54.49" ry="40.8"/><ellipse class="cls-13" cx="520.5" cy="728.35" rx="54.49" ry="40.8"/><ellipse class="cls-13" cx="1539.79" cy="769.63" rx="54.49" ry="40.8"/><ellipse class="cls-13" cx="1447.48" cy="737.95" rx="54.49" ry="40.8"/><ellipse class="cls-13" cx="1339.78" cy="719.71" rx="54.49" ry="40.8"/><ellipse class="cls-13" cx="1594.93" cy="814.75" rx="54.49" ry="40.8"/><path class="cls-14" d="M1028.61,905.22l-106.86,29c-58.67,0-84-35.89-84-78.55l-32.55-36.59c-54.76-56,57.92-80.7,116.59-80.7l98,24.75c58.67,0,96.18,9.83,96.18,52.5V857C1115.91,899.69,1123.31,917.05,1028.61,905.22Z"/><path class="cls-15" d="M955.76,881.14,904.5,850.75c-20-7.09-48.73-21.12-47.44-46.08l33.33-25.92c24.36-18.24,37.68-12.53,57.72-5.43l43.57,29.43c20,7.09,46.93,17.47,37.45,32.48l-33.6,20.32C986.05,870.56,975.8,888.23,955.76,881.14Z"/><path class="cls-13" d="M1729,110.55c15.77,11.8,23.08,25.48,16.32,30.54s-12.15-10.05-27.92-21.86-36-15.84-29.2-20.9S1713.2,98.74,1729,110.55Z"/><ellipse class="cls-16" cx="1652.62" cy="194.39" rx="131.42" ry="118.36"/><rect class="cls-17" x="1628.9" y="36.67" width="46.16" height="39.36"/><rect class="cls-17" x="1646.85" y="0.19" width="11.54" height="36.48"/><path class="cls-18" d="M1597.59,192.37h-2.73q-6.69,0-11.09.25c-.45,0-.86,0-1.23,0a3.3,3.3,0,0,1-1.81-.48A1.36,1.36,0,0,1,1580,191a11.28,11.28,0,0,1,1.2-3.28,22,22,0,0,1,2-3.69,4.43,4.43,0,0,1,3.68-1.92c.44,0,1,0,1.67.08q5.91.42,7.63.38h1.51c2,0,3-.75,3-2.25v-2.72a34.6,34.6,0,0,0-.67-5.75,3.6,3.6,0,0,1-.11-.88q0-1.5,3.45-2.67c1.42-.44,3-.87,4.91-1.27a22,22,0,0,1,4-.61c1.53,0,2.29.55,2.29,1.63a8,8,0,0,1-.17,1,38.7,38.7,0,0,0-.11,4v7.26q.06,2.2,3.06,2.25h8.64c2.93,0,4.68,0,5.24-.08.78-.09,1.26-.13,1.45-.13,1.44,0,2.17.56,2.17,1.67a10.49,10.49,0,0,1-1,3.23,17.26,17.26,0,0,1-2,3.69,3.83,3.83,0,0,1-3.17,2l-8.86-.59h-2.57c-2.19-.11-3.21.65-3.06,2.3v.66a51.89,51.89,0,0,0,.56,6.85,9.34,9.34,0,0,1,.11,1.25c0,1.22-1.14,2.24-3.4,3q-1.85.63-5,1.38a24.81,24.81,0,0,1-3.93.75,2.43,2.43,0,0,1-1.64-.56,1.78,1.78,0,0,1-.64-1.4,7.63,7.63,0,0,1,.06-.88q.33-3.28.33-8.3v-2.79C1600.76,193.05,1599.74,192.29,1597.59,192.37Z"/><path class="cls-18" d="M1685.56,211.94h-37.94q-5,0-5-2.13a2.7,2.7,0,0,1,1.05-2c.71-.63,3-2.31,6.86-5q10.76-7.59,15.93-14.14,2.68-3.35,2.68-5.76a4,4,0,0,0-1.62-3.32,7,7,0,0,0-4.34-1.23,11.53,11.53,0,0,0-3.91.52,49.38,49.38,0,0,0-5.9,3.4,6.13,6.13,0,0,1-3.23.75,8.23,8.23,0,0,1-4.82-1.52c-1.47-1-2.2-2.12-2.2-3.32s.67-2.31,2-3.69a23.19,23.19,0,0,1,5.3-3.9,55.48,55.48,0,0,1,26.69-6.46q11.13,0,18.44,3.21a13.23,13.23,0,0,1,5.29,4.09,8.91,8.91,0,0,1,2,5.5q0,7.31-13.49,15.86-4.78,3-4.79,4.5a2.32,2.32,0,0,0,1.45,2,7,7,0,0,0,3.51.82,14.36,14.36,0,0,0,8.75-2.84,19.18,19.18,0,0,1,2.59-1.71,4.39,4.39,0,0,1,1.75-.29c3.27,0,4.91,2.08,4.91,6.26a14.22,14.22,0,0,1-1.59,6.34,17.43,17.43,0,0,1-4.32,5.55,9.55,9.55,0,0,1-6.35,2.5,4.85,4.85,0,0,1-2.23-.44,6.94,6.94,0,0,1-1.89-1.65,4.77,4.77,0,0,0-2-1.5A13,13,0,0,0,1685.56,211.94Z"/><path class="cls-18" d="M286.51,198C144.19,213.31-.69,329.47-.69,329.47V.19l551.32,1S478.93,177.18,286.51,198Z"/><path class="cls-16" d="M134.45,60.29a46.76,46.76,0,0,1,17.35,3.3Q163.11,68,168.7,76.78a24.65,24.65,0,0,1,4.14,13.63q0,13.19-13.48,21.61a43.77,43.77,0,0,1-23.53,6.4q-14.6,0-24.85-7.14-12.17-8.41-12.16-22.49,0-13.74,11.11-21.56Q119.73,60.29,134.45,60.29ZM132.94,75q-6.12,0-6.12,7.78A33.2,33.2,0,0,0,132,101a6.21,6.21,0,0,0,5.45,3.15q6,0,6-7.92a38.34,38.34,0,0,0-1.28-9.48,29,29,0,0,0-3.25-8.19A7.08,7.08,0,0,0,132.94,75Z"/><path class="cls-16" d="M196.7,66.74a17.49,17.49,0,0,1,10.81,3.37q4.5,3.36,4.5,8.09a10.1,10.1,0,0,1-4.66,8.52,19.72,19.72,0,0,1-21.69,0A10.08,10.08,0,0,1,181,78.2a9.38,9.38,0,0,1,3.94-7.63A18.08,18.08,0,0,1,196.7,66.74Zm0,28.44a17.56,17.56,0,0,1,10.81,3.37q4.5,3.38,4.5,8.1a10.1,10.1,0,0,1-4.66,8.52,19.72,19.72,0,0,1-21.69,0,10.08,10.08,0,0,1-4.67-8.52A9.38,9.38,0,0,1,184.93,99,18.09,18.09,0,0,1,196.7,95.18Z"/><path class="cls-16" d="M227.59,107.49c.62,0,2.06.11,4.34.34a21.81,21.81,0,0,0,2.5.2q5.58,0,6.44-6.6.47-3.74.46-21.26,0-2.65-1.44-3.69t-5.26-1c-.62,0-1.49,0-2.63.14-.88.07-1.65.1-2.3.1a6.45,6.45,0,0,1-3.62-.91,2.74,2.74,0,0,1-1.38-2.38c0-1.05.7-2.1,2.11-3.13a20.26,20.26,0,0,1,5.85-2.73,129.92,129.92,0,0,1,39.57-5.91q5.72,0,8.31,1c1.73.67,2.6,1.75,2.6,3.22a2.49,2.49,0,0,1-.85,2,11.62,11.62,0,0,1-3.42,1.55c-2.72.88-4.28,2-4.67,3.25s-.7,6.27-.92,15q.53,13.18.59,14.13a13.79,13.79,0,0,0,.53,2.6,5.41,5.41,0,0,0,3,3.6c1.44.65,4,1,7.62,1.18q6.18.2,6.18,3.79t-8.74,4.92a189.12,189.12,0,0,1-25,1.62q-8.41,0-15.91-.73a94.78,94.78,0,0,1-14.59-2.42c-3.38-.91-5.06-2.29-5.06-4.13a3.07,3.07,0,0,1,1.64-2.56A7.5,7.5,0,0,1,227.59,107.49Z"/><path class="cls-16" d="M368.4,67.18l-26.69,60.54a3.15,3.15,0,0,1-2,1.67,18.34,18.34,0,0,1-4.86.44A52.7,52.7,0,0,1,321,128.16q-6.23-1.68-6.22-3.69a2.31,2.31,0,0,1,.53-1.23l24.52-35.09c1.8-2.6,2.69-4.4,2.69-5.42,0-1.25-1-2.1-3.09-2.56A62,62,0,0,0,328,79.48q-10,0-14.27.94a6.54,6.54,0,0,0-3.22,1.87,11.57,11.57,0,0,1-3.32,2.53,9.31,9.31,0,0,1-3.84.67,8.7,8.7,0,0,1-7-2.83c-1.62-1.89-2.43-4.6-2.43-8.15a18.57,18.57,0,0,1,3.15-11A12.41,12.41,0,0,1,301.05,60a9.08,9.08,0,0,1,4.57-1.41,28.62,28.62,0,0,1,6.64,1.73,28.67,28.67,0,0,0,8.15,1h42.27q6.24,0,6.24,3.54A5.68,5.68,0,0,1,368.4,67.18Z"/><path d="M95.31,303.45l23.2,38.46,51.06,5.91L133,378.06l9.13,42.37L96.28,400.66,50.86,420.94l8.29-42.47L21.94,348.64l51-6.47,22.42-38.72m-.09-9.83L91,300.94,69.8,337.52l-48.49,6.16L9.62,345.16l9.19,7.38,34.85,27.94L46,420l-1.84,9.45,8.79-3.93,43.42-19.38L140.12,425l8.92,3.84-2-9.49L138.5,380l34.26-28.31,9-7.47-11.65-1.35-48.63-5.62L99.59,300.86l-4.37-7.24Z"/><polygon class="cls-15" points="57.66 524.35 17.88 491.78 72.29 484.73 95.76 443.35 120.06 484.47 174.58 490.92 135.46 523.91 145.11 569.59 96.79 548.29 48.92 570.1 57.66 524.35"/><path d="M95.8,448.34l22.73,38.47,50,5.91L132.7,523l9,42.37L96.77,545.55,52.28,565.82l8.11-42.46L23.94,493.52l49.9-6.47,22-38.71m-.08-10-4.26,7.51L70.73,482.42,23.3,488.56l-11.49,1.49,9,7.33,34.16,28-7.56,39.54-1.81,9.5,8.8-4L96.81,551l42.83,18.88,8.93,3.93-2-9.54-8.34-39.45,33.57-28.3,8.82-7.44-11.45-1.35-47.57-5.63-21.47-36.34-4.39-7.43Z"/><path d="M242.69,229l22.78,38.47,50.15,5.91L279.67,303.6l9,42.37-45-19.78-44.6,20.27L207.19,304l-36.55-29.84,50-6.47,22-38.71m-.09-10-4.26,7.48-20.78,36.55L170,269.2l-11.51,1.49,9,7.34,34.24,28-7.58,39.54L192.32,355l8.8-4,42.57-19.34,42.95,18.88,8.92,3.92-2-9.54-8.35-39.43,33.65-28.31,8.84-7.44-11.48-1.36-47.69-5.62L247,226.43,242.6,219Z"/><ellipse class="cls-19" cx="1737" cy="1044.5" rx="141" ry="21.5"/><path class="cls-9" d="M1664.09,765.18c-7.44,5.55-28.55,22.93-29.73,22.21-5.51-3.38-10.59-65-4.62-68.56,8.59-5.14,63.73,15.19,64.8,21.34C1695.21,744,1674.07,757.73,1664.09,765.18Z"/><path class="cls-9" d="M1806.07,763.52c-7-6-28.63-22.82-28.18-24.14,2.09-6.12,61.08-24.57,65.88-19.53,6.9,7.25-.85,65.51-6.62,67.9C1833.57,789.24,1815.54,771.63,1806.07,763.52Z"/><path class="cls-20" d="M1808.56,761.74c-3.94-3.37-16-12.75-15.75-13.48,1.17-3.42,34.13-13.73,36.81-10.92,3.85,4-.48,36.6-3.7,37.94C1823.92,776.11,1813.85,766.27,1808.56,761.74Z"/><path class="cls-20" d="M1662.63,760.5c-4.14,3.13-15.88,12.9-16.55,12.5-3.09-1.87-6.11-36.28-2.78-38.29,4.78-2.9,35.65,8.3,36.27,11.73C1680,748.57,1668.18,756.31,1662.63,760.5Z"/><ellipse class="cls-9" cx="1735" cy="867.5" rx="128" ry="138.5"/><circle class="cls-13" cx="1702" cy="806" r="32"/><circle class="cls-13" cx="1766" cy="806" r="32"/><circle cx="1686.5" cy="796.5" r="7.5"/><circle cx="1783.5" cy="811.5" r="7.5"/><polygon class="cls-21" points="1726 841 1734.5 829.49 1743 841 1726 841"/><path class="cls-6" d="M1753.5,851.5c0,6.9-2.1,12-9,12s-10-5.1-10-12"/><path class="cls-6" d="M1715.5,851.5c0,6.9,2.1,12,9,12s10-5.1,10-12"/><path class="cls-22" d="M1785.83,873.89c20.56-51.48,29.74-53.81,38-50.53s12.33,10.92-8.24,62.4"/><path class="cls-22" d="M1651.74,880.68c-19.48-51.9-14.26-59.8-6-62.91s16.47-.24,36,51.66"/><path class="cls-10" d="M1862.05,883.84c-.79,6.24-1.09,6.59-4.53,5.48-4.3-1.39-27.68-7.94-27-11.48.92-4.44,24.67-3.49,27.81-3C1862.34,875.42,1863.19,874.73,1862.05,883.84Z"/><path class="cls-10" d="M1862.67,858.78c.42,6.28.19,6.67-3.4,6.24-4.48-.54-28.68-2.5-28.64-6.12,0-4.52,23.54-8.14,26.72-8.27C1861.34,850.46,1862.05,849.62,1862.67,858.78Z"/><path class="cls-10" d="M1857.11,909.06c-1.67,6.06-2,6.36-5.27,4.77-4-2-26.26-11.81-25-15.22,1.54-4.25,24.9.08,28,1C1858.6,900.77,1859.54,900.21,1857.11,909.06Z"/><path class="cls-10" d="M1612.93,909c1.66,6.07,2,6.37,5.26,4.78,4.06-2,26.28-11.74,25.06-15.15-1.53-4.26-24.91,0-28,.93C1611.46,900.73,1610.51,900.16,1612.93,909Z"/><path class="cls-10" d="M1608,884.18c.52,6.27.81,6.63,4.29,5.66,4.35-1.2,28-6.77,27.4-10.34-.73-4.47-24.49-4.52-27.66-4.17C1608,875.76,1607.21,875,1608,884.18Z"/><path class="cls-10" d="M1607.46,857.78c-.43,6.28-.19,6.67,3.4,6.24,4.48-.54,28.68-2.5,28.64-6.12,0-4.52-23.54-8.14-26.72-8.27C1608.78,849.46,1608.07,848.62,1607.46,857.78Z"/><path class="cls-10" d="M1765.06,732.9c6.07,1.67,5.65,2.19,5,4.4-1.07,3.7-10,19.76-13.42,18.59-4.28-1.46-1.46-19.41-.74-21.73C1756.82,731.24,1756.21,730.47,1765.06,732.9Z"/><path class="cls-10" d="M1739,729c6.23,0,5.68,2,5.75,2.93.25,3.07-4.42,21.82-8,21.63-4.61-.26-6.49-18.38-6.34-20.95S1729.91,729,1739,729Z"/><path class="cls-10" d="M1709.27,731.83c-6.14,1.37-5.75,1.91-5.22,4.14.88,3.75,9,20.24,12.47,19.24,4.35-1.24,2.43-19.31,1.83-21.67C1717.59,730.59,1718.24,729.85,1709.27,731.83Z"/><rect x="1733" y="845" width="3" height="7"/><rect x="1826.19" y="828.67" width="1" height="11.23" rx="0.5" transform="translate(2500.85 2725.93) rotate(-134.16)"/><rect x="1813.97" y="822.45" width="1" height="10.98" rx="0.5" transform="translate(3266.4 2195.3) rotate(-161.25)"/><rect x="1821.03" y="822.35" width="1" height="14" rx="0.5" transform="translate(3056.23 2404.56) rotate(-152.57)"/><rect x="1654.79" y="818.31" width="1" height="11.23" rx="0.5" transform="translate(3353.39 1555.55) rotate(176.85)"/><rect x="1641.98" y="823.49" width="1" height="10.98" rx="0.5" transform="translate(3478.96 718.11) rotate(149.76)"/><rect x="1647.68" y="817.58" width="1" height="14" rx="0.5" transform="translate(3484.06 985.77) rotate(158.44)"/><rect class="cls-9" x="1693" y="996" width="17" height="40"/><rect class="cls-9" x="1762" y="996" width="17" height="40"/><ellipse class="cls-9" cx="1779.5" cy="1038" rx="11.5" ry="18" transform="translate(296.27 2467.71) rotate(-74.2)"/><ellipse class="cls-9" cx="1692.5" cy="1038" rx="18" ry="11.5" transform="translate(-218.65 499.96) rotate(-15.8)"/><path class="cls-23" d="M1632.13,946.71c-14.35,10.13-37.76,16.78-56.13,11.29-28.72-8.58-46.47-41.91-30.24-62.17"/><path class="cls-23" d="M1547,833.48c21,12.2,24.09,29.88-1.63,63"/><ellipse class="cls-10" cx="1535.5" cy="836" rx="20.5" ry="14.5"/><g class="cls-24"><rect class="cls-9" x="308.09" y="177.89" width="1272.41" height="747.5" rx="373.75"/><rect class="cls-25" x="308.09" y="177.89" width="1272.41" height="747.5" rx="373.75"/></g><g class="cls-24"><rect class="cls-26" x="800" y="689" width="620" height="127"/><path d="M821.32,722c6.43,0,6.45-10,0-10s-6.44,10,0,10Z"/><path d="M821.32,774.16c6.43,0,6.45-10,0-10s-6.44,10,0,10Z"/><path d="M1379.92,728.12c6.43,0,6.45-10,0-10s-6.44,10,0,10Z"/><path d="M1379.92,780.3c6.43,0,6.45-10,0-10s-6.44,10,0,10Z"/><path class="cls-18" d="M942.66,757.26q7,6.53,13.21,6.52a7.84,7.84,0,0,0,5.44-2,6.45,6.45,0,0,0,2.26-5,6.15,6.15,0,0,0-1.61-4.17,22.33,22.33,0,0,0-6.17-4.1,30.72,30.72,0,0,1-9.73-7,14.35,14.35,0,0,1-3.4-9.81A17.14,17.14,0,0,1,948,719q5.31-5.19,14-5.19A27.9,27.9,0,0,1,974.47,717v14.47q-5.73-5.52-11-5.52a6.92,6.92,0,0,0-4.52,1.56,4.73,4.73,0,0,0-1.91,3.78,5.11,5.11,0,0,0,1.56,3.74,18.63,18.63,0,0,0,5.65,3.39,30.37,30.37,0,0,1,10.34,7q3.52,3.95,3.52,10.64a19.44,19.44,0,0,1-6.06,14.39,20.31,20.31,0,0,1-14.8,6q-6.78,0-14.6-4.09Z"/><path class="cls-18" d="M998,738.62a13.51,13.51,0,0,1,4.2-4.22,9.89,9.89,0,0,1,5.15-1.39q6.55,0,10.47,6.24a27.26,27.26,0,0,1,3.91,14.8,30.25,30.25,0,0,1-2,11.27,20.33,20.33,0,0,1-5.45,8,11.64,11.64,0,0,1-7.85,3,10,10,0,0,1-4.06-.87,13.87,13.87,0,0,1-3.85-2.59v21.8H984.86V734h11.78Zm.52,23.63a6,6,0,0,0,1.74,1.72,3.87,3.87,0,0,0,2.09.59,4.27,4.27,0,0,0,3.87-2.7,16.32,16.32,0,0,0,1.39-7.36,15.89,15.89,0,0,0-1.33-7.27q-1.32-2.54-3.5-2.53a3.46,3.46,0,0,0-3.19,1.85,11.54,11.54,0,0,0-1.07,5.6Z"/><path class="cls-18" d="M1035.88,713.76a7.57,7.57,0,0,1,5.13,2,6.79,6.79,0,0,1,2.3,5.31,7,7,0,0,1-2.19,5.21,7.27,7.27,0,0,1-5.24,2.13,7.41,7.41,0,0,1-7.43-7.39,6.94,6.94,0,0,1,2.21-5.17A7.29,7.29,0,0,1,1035.88,713.76Zm-7,20.21h13.82v41.41h-13.82Z"/><path class="cls-18" d="M1052,714.76h13.82v60.62H1052Z"/><path class="cls-18" d="M1104.93,713.76a7.57,7.57,0,0,1,5.13,2,6.79,6.79,0,0,1,2.3,5.31,7,7,0,0,1-2.19,5.21,7.26,7.26,0,0,1-5.24,2.13,7.12,7.12,0,0,1-5.28-2.19,7.21,7.21,0,0,1-2.15-5.2,6.91,6.91,0,0,1,2.22-5.17A7.25,7.25,0,0,1,1104.93,713.76Zm-7,20.21h13.82v41.41h-13.82Z"/><path class="cls-18" d="M1141.61,770.39a13,13,0,0,1-4,3.73,9.33,9.33,0,0,1-4.78,1.26q-5.82,0-10-6.08a25.09,25.09,0,0,1-4.22-14.64,27.2,27.2,0,0,1,4.26-15q4.26-6.64,10.91-6.65a10.51,10.51,0,0,1,4.69,1.07,12.38,12.38,0,0,1,4,3.24l3.73-3.35h9.22v39.76a23.92,23.92,0,0,1-5.13,15.58q-5.13,6.33-14.56,6.32a31.24,31.24,0,0,1-14.38-3.86V778.12q6.56,5.13,11.43,5.13a8.53,8.53,0,0,0,6.3-2.54,8.74,8.74,0,0,0,2.52-6.41Zm0-23.77a7.14,7.14,0,0,0-1.91-1.61,4,4,0,0,0-1.91-.52,4.22,4.22,0,0,0-3.79,2.58,14.36,14.36,0,0,0-1.39,6.76,15.14,15.14,0,0,0,1.35,6.89q1.35,2.63,3.52,2.63a3.31,3.31,0,0,0,3.11-2,13.59,13.59,0,0,0,1-6Z"/><path class="cls-18" d="M1196.15,771.86q-8,4.49-14.84,4.48-9,0-14.55-6t-5.6-15.47a23.4,23.4,0,0,1,5.29-15.47,17.44,17.44,0,0,1,14.12-6.35,15.72,15.72,0,0,1,12.53,5.44q4.7,5.43,4.7,14.55v3.44h-22.29a11.62,11.62,0,0,0,3.26,6.25,8.57,8.57,0,0,0,6,2.09,10.82,10.82,0,0,0,5.18-1.26,40.43,40.43,0,0,0,6.23-4.52Zm-10.43-22.77V747.7a7.85,7.85,0,0,0-1.49-4.82,4.45,4.45,0,0,0-3.7-2,4.62,4.62,0,0,0-4,2,12,12,0,0,0-1.64,6.17Z"/><path class="cls-18" d="M1218.05,738.27a12.51,12.51,0,0,1,4.16-3.95,10.46,10.46,0,0,1,5.2-1.31,10.68,10.68,0,0,1,8.21,3.59,12.73,12.73,0,0,1,3.29,8.93v29.85h-13.82v-27q0-3.52-2.61-3.52a3.26,3.26,0,0,0-2.91,1.91,10.94,10.94,0,0,0-1.09,5.34v23.25h-13.64V734h11.86Z"/><path class="cls-18" d="M1245.86,717.24q9.09-3.48,15.3-3.48a21.71,21.71,0,0,1,13.6,4.39,13.82,13.82,0,0,1,5.74,11.54,12.31,12.31,0,0,1-1.8,6.8,36.61,36.61,0,0,1-6.2,6.75,36.31,36.31,0,0,0-5.89,6.45,11.09,11.09,0,0,0-1.63,6.1v1h-11.86V754.4a19.57,19.57,0,0,1,1.57-8.68,30.25,30.25,0,0,1,6.25-7.6,38.86,38.86,0,0,0,4.46-4.79,5.49,5.49,0,0,0,1.06-3.15,4.39,4.39,0,0,0-2.26-3.9,9.18,9.18,0,0,0-5-1.44q-6.17,0-13.3,4.73Zm12.91,44.28a7.51,7.51,0,0,1,5.52,2.17,7.38,7.38,0,1,1-10.34,0A6.81,6.81,0,0,1,1258.77,761.52Z"/></g><path class="cls-13" d="M733,241.77a32.34,32.34,0,0,1,11.06-.41,4.14,4.14,0,0,0,1.31,0,14.6,14.6,0,0,0,2.46-1.42,4.51,4.51,0,0,1,1.39-.6c1.83-.43,3.78.75,5.84,3.56a14.68,14.68,0,0,1,3.12,8.67,8.2,8.2,0,0,1-1.35,4.66,5.37,5.37,0,0,1-3.33,2.51,4.08,4.08,0,0,1-2.67-.16,35.42,35.42,0,0,1-4.54-3.35q-5-4-9.7-2.84a6.8,6.8,0,0,0-3.65,2.13,5.25,5.25,0,0,0-1.35,3.58c0,2.64,2.11,4.11,6.29,4.46a65.42,65.42,0,0,1,10.89,1.6c7,2.27,10.53,7.22,10.58,14.66a24.72,24.72,0,0,1-7,17.5c-4.84,5.21-11.18,8.58-19,10.27a50,50,0,0,1-11,1.06c-3.87,0-6.66-.44-8.37-1.26-1.31-.65-2.5-2.46-3.56-5.41a26.77,26.77,0,0,1-1.63-9,6.74,6.74,0,0,1,.8-3.53,4.19,4.19,0,0,1,2.55-2.1,3,3,0,0,1,3,1,44,44,0,0,1,4.07,5.36,8.31,8.31,0,0,0,4.82,3.06,14,14,0,0,0,6.81.12,10.85,10.85,0,0,0,4.9-2.35,4.81,4.81,0,0,0,1.86-3.64A3.27,3.27,0,0,0,736,287a11.25,11.25,0,0,0-4.8-1.37,53.87,53.87,0,0,1-8.93-1.62,20.47,20.47,0,0,1-5.73-2.85A14.86,14.86,0,0,1,710,268.58a22.27,22.27,0,0,1,1.62-8.16,27.63,27.63,0,0,1,4.68-7.8A31.4,31.4,0,0,1,733,241.77Z"/><path class="cls-13" d="M786,248.61q7.2-1.29,12.23,2a9.64,9.64,0,0,1,3.73,4.49,21.86,21.86,0,0,1,1.1,7.7c0,2.36,0,4.71,0,7.06q0,7.33,1,9.37a2.65,2.65,0,0,0,.88,1.2,4.66,4.66,0,0,0,1.74.27c.89,0,1.33.64,1.34,1.81a9.82,9.82,0,0,1-1.57,4.95,16.93,16.93,0,0,1-4.1,4.69,13.25,13.25,0,0,1-6.48,3,7,7,0,0,1-6.87-2.35q-.88-1.08-1.62-1a4.61,4.61,0,0,0-2.18,1.52,17.1,17.1,0,0,1-9.34,5q-5.4.92-8.75-1.09a9.26,9.26,0,0,1-3.48-3.85,12.09,12.09,0,0,1-1.32-5.53,14.58,14.58,0,0,1,3.4-9.2c3.57-4.59,8.94-7.6,16.12-8.89a6,6,0,0,0,3-1.06,4,4,0,0,0,.61-2.62c0-3.31-.34-5.66-1-7a2.52,2.52,0,0,0-3-1.69,4,4,0,0,0-2.21,1.24,19.74,19.74,0,0,0-2.39,3.53q-3.63,6.62-7.63,7.37a3.74,3.74,0,0,1-3.3-.71,4.14,4.14,0,0,1-1.3-3.28,9.06,9.06,0,0,1,1.56-4.78,19.28,19.28,0,0,1,4.28-4.76A34.64,34.64,0,0,1,786,248.61Zm-1.42-23.27q5.58-1.07,9,.59a5.79,5.79,0,0,1,2.5,2.52,8.27,8.27,0,0,1,1,3.94,10.34,10.34,0,0,1-3.17,7.81c-2.13,2.07-5.15,3.44-9.06,4.16-8.29,1.51-12.44-.74-12.48-7a10.42,10.42,0,0,1,3.17-7.75A17.16,17.16,0,0,1,784.57,225.34Zm-1.18,50.91a4.83,4.83,0,0,0-3.14,2.23,7.21,7.21,0,0,0-1.32,4.26,5.54,5.54,0,0,0,1,3.46,2.5,2.5,0,0,0,2.53,1c2.2-.37,3.28-2.66,3.26-6.88a7.78,7.78,0,0,0-.5-3.39A1.64,1.64,0,0,0,783.39,276.25Zm1.25-46.6a4.39,4.39,0,0,0-3,2,7.49,7.49,0,0,0-1,4.21,5.09,5.09,0,0,0,1.12,3.47,2.89,2.89,0,0,0,2.84.9,4.55,4.55,0,0,0,3-2.06,7.33,7.33,0,0,0,1.11-4.16C788.7,230.66,787.34,229.2,784.64,229.65Z"/><path class="cls-13" d="M859,224.85q.07,22,.16,43.93a25.4,25.4,0,0,0,.29,4.79,3.65,3.65,0,0,0,1.53,1.94,7.61,7.61,0,0,1,2,1.95,4.29,4.29,0,0,1,.52,2.18c0,2.57-2.22,4.69-6.68,6.41a46.32,46.32,0,0,1-12.05,2.87c-.89.08-1.46,0-1.73-.29a4.07,4.07,0,0,1-.53-2.13c-.14-1.61-.65-2.38-1.51-2.29-.47.05-1.2.6-2.19,1.66a15.2,15.2,0,0,1-9.41,5,14.08,14.08,0,0,1-11.6-4.1,22.8,22.8,0,0,1-4.93-6.91,25.08,25.08,0,0,1-2.55-10.9,30.24,30.24,0,0,1,3.17-13.36,26.27,26.27,0,0,1,8.08-10,18.3,18.3,0,0,1,8.51-3.69,14.12,14.12,0,0,1,8.66,1.44,2,2,0,0,0,1,.26c.89-.1,1.33-1.52,1.32-4.27a4,4,0,0,0-.74-2.62,5,5,0,0,0-2.61-1.3c-1.75-.43-2.63-1.43-2.64-3,0-2.32,2-4.39,6-6.18,7.1-3.1,11.87-4.72,14.29-5S859,222.22,859,224.85Zm-22.52,26.53c-1.8.21-3.23,1.48-4.27,3.8A28.33,28.33,0,0,0,830.14,267q0,6.5,2.08,9.55a4,4,0,0,0,4,1.95q2.7-.28,3.91-4c.8-2.5,1.2-6.43,1.17-11.79q0-7.38-1.5-9.66A3.33,3.33,0,0,0,836.47,251.38Z"/><path class="cls-13" d="M889.69,236.43A17.52,17.52,0,0,1,902,240.09a11.86,11.86,0,0,1,3.75,5.07,24,24,0,0,1,1.07,8q0,3.62-.07,7.22,0,7.51.94,9.72a3.22,3.22,0,0,0,.87,1.33,5.3,5.3,0,0,0,1.76.48c.89.13,1.34.8,1.34,2a9.26,9.26,0,0,1-1.6,4.89,14.94,14.94,0,0,1-4.15,4.35,11.93,11.93,0,0,1-6.55,2.37,7.78,7.78,0,0,1-6.93-3.19c-.58-.81-1.13-1.2-1.63-1.18a4.12,4.12,0,0,0-2.2,1.33,15.21,15.21,0,0,1-9.46,4.05c-3.64.22-6.58-.48-8.84-2.12a11.26,11.26,0,0,1-3.51-4.4A13.78,13.78,0,0,1,869,265c3.62-4.32,9.07-6.77,16.33-7.22a5.59,5.59,0,0,0,3.05-.73,3.84,3.84,0,0,0,.62-2.63,21.17,21.17,0,0,0-.94-7.37,2.91,2.91,0,0,0-3-2.12,3.45,3.45,0,0,0-2.23,1,16.62,16.62,0,0,0-2.44,3.34c-2.46,4.26-5.05,6.47-7.74,6.67a4.05,4.05,0,0,1-3.34-1.15,4.83,4.83,0,0,1-1.31-3.56,8.74,8.74,0,0,1,1.59-4.76,16.58,16.58,0,0,1,4.35-4.38A30.6,30.6,0,0,1,889.69,236.43ZM887,264.6a4.23,4.23,0,0,0-3.19,1.92,6.92,6.92,0,0,0-1.35,4.24,6.4,6.4,0,0,0,1,3.69,2.77,2.77,0,0,0,2.55,1.28c2.22-.12,3.33-2.35,3.32-6.71a8.55,8.55,0,0,0-.49-3.55A1.81,1.81,0,0,0,887,264.6Z"/><path class="cls-13" d="M965.09,253.44q.27,8.54.56,17.09a7.84,7.84,0,0,0,.52,2.87,24.07,24.07,0,0,0,2.56,3.62,3.47,3.47,0,0,1,.62,2.2,4.34,4.34,0,0,1-3.3,4.36c-2.2.78-6.12,1.09-11.77,1-3.84-.07-6.55-.48-8.14-1.27a4.13,4.13,0,0,1-2.46-3.95,3.08,3.08,0,0,1,.25-1.43,21.84,21.84,0,0,1,1.67-2.24q1.67-2,1.68-13.58c0-4.47-.45-7.77-1.34-9.92a4,4,0,0,0-4-2.59,3.89,3.89,0,0,0-3.85,2.07c-.69,1.4-1,3.92-1,7.58v9.61a16.26,16.26,0,0,0,.31,3.93,25.3,25.3,0,0,0,2.07,4.13,4.29,4.29,0,0,1,.46,2c0,1.91-1.14,3.31-3.43,4.22s-5.84,1.38-10.68,1.44c-7.74.1-11.61-1.64-11.61-5.36a3.57,3.57,0,0,1,.35-1.78,8.4,8.4,0,0,1,1.69-1.76,4.24,4.24,0,0,0,1.38-2.15,44.16,44.16,0,0,0,.53-5.85c.19-3.7.29-7.56.28-11.61a13.74,13.74,0,0,0-.44-4.38,7.06,7.06,0,0,0-2.53-2.48,3.77,3.77,0,0,1-1.8-3.16,4.06,4.06,0,0,1,1.46-3.21,26,26,0,0,1,6-3.27q4-1.73,7.73-2.91a20.79,20.79,0,0,1,5.11-1.18,2.6,2.6,0,0,1,2.11,1.06,3.91,3.91,0,0,1,.86,2.52c0,.1,0,.51,0,1.22a5.83,5.83,0,0,0,0,.68c0,1.55.55,2.33,1.67,2.33.67,0,1.38-.62,2.13-1.84a11.3,11.3,0,0,1,10.46-5.93,13.61,13.61,0,0,1,9,3.38,12.64,12.64,0,0,1,3.67,5.47A34.29,34.29,0,0,1,965.09,253.44Z"/><path class="cls-13" d="M983.5,219.13a8.44,8.44,0,0,1,6.31,3.47q3.47,4.28,3.44,11.72a44.69,44.69,0,0,1-5.48,20.42q-2.81,4.89-4.52,4.8c-1.11-.05-2.68-2.28-4.71-6.66A55.15,55.15,0,0,1,975,242.55a43,43,0,0,1-1.3-10,17.89,17.89,0,0,1,2.15-9.16A7.86,7.86,0,0,1,983.5,219.13Zm.11,45.75a8.23,8.23,0,0,1,6.21,3.47,11.49,11.49,0,0,1,2.57,7.4,10.57,10.57,0,0,1-2.68,7.28,7.82,7.82,0,0,1-6.39,2.8,8.49,8.49,0,0,1-6.21-3.13,11.36,11.36,0,0,1-2.78-7.76,10.27,10.27,0,0,1,2.47-7A8,8,0,0,1,983.61,264.88Z"/><path class="cls-13" d="M1036.91,288.5l-3-.3c-1.75-.17-3.7-.26-5.87-.27-1.36,0-2.3,0-2.83-.07a7.29,7.29,0,0,1-4.52-1.89,5.29,5.29,0,0,1-1.74-4,3.81,3.81,0,0,1,.78-2.55,4.83,4.83,0,0,1,2.53-1.3,3.09,3.09,0,0,0,2.25-1.36,12.25,12.25,0,0,0,.93-4.11q.35-3.57.66-14t.36-20.67a17.91,17.91,0,0,0-.52-5.43,4.93,4.93,0,0,0-2.54-2.42,4.9,4.9,0,0,1-2.86-4.57,3.75,3.75,0,0,1,2-3.48,9.27,9.27,0,0,1,5.53-.73c.77.08,1.69.2,2.75.35,2.33.36,4,.61,5.08.74q6,.7,13.45,1.28c1.05.08,2.37.23,4,.46,6.34.89,11.34,2.49,15,4.72a30.87,30.87,0,0,1,12.28,14.41,45.46,45.46,0,0,1,3.57,18.79,40.37,40.37,0,0,1-1.42,10.44,30.11,30.11,0,0,1-3.74,8.69,21.82,21.82,0,0,1-13.3,9.28,29.42,29.42,0,0,1-10.62.55l-5-.79-4.32-.63Q1040.74,288.89,1036.91,288.5Zm9-50.82-.18,36.95a7,7,0,0,0,1.1,4.41,5.38,5.38,0,0,0,3.73,1.7c8.08,1,12.15-5.5,12.22-19.55q.06-11.62-2.72-18.44c-2-5-5.56-7.89-10.52-8.56a3.34,3.34,0,0,0-2.81.54A4.14,4.14,0,0,0,1045.88,237.68Z"/><path class="cls-13" d="M1125.71,281.09q-9.64-2-19.32-3.82c-.86-.16-1.28.18-1.29,1,0,2,.94,4.1,2.87,6.24a11.22,11.22,0,0,0,6.21,3.84,12.68,12.68,0,0,0,4.39,0,11.1,11.1,0,0,0,4-1.31,3.44,3.44,0,0,1,2.23-.66,3.63,3.63,0,0,1,2.08,1.91,6.13,6.13,0,0,1,1,3.24c0,2.21-1.25,4.09-3.73,5.66a20.45,20.45,0,0,1-15.12,2.68,24.27,24.27,0,0,1-14.46-8.19,28.77,28.77,0,0,1-4.67-7.57,29.2,29.2,0,0,1-2.37-11.58,21.7,21.7,0,0,1,4.3-13.45,17.47,17.47,0,0,1,9.29-6.4,19.13,19.13,0,0,1,9.12-.2,23.6,23.6,0,0,1,13.25,7.81,26.46,26.46,0,0,1,4.39,6.86,19.55,19.55,0,0,1,1.88,8,8.55,8.55,0,0,1-1.14,4.66A2.62,2.62,0,0,1,1125.71,281.09Zm-18.2-12.32,4.16.81c1.75.34,2.64-.39,2.65-2.21a7.39,7.39,0,0,0-1.25-4.34,5.11,5.11,0,0,0-3.32-2.25,3.37,3.37,0,0,0-3.64,1.33,6.06,6.06,0,0,0-1.26,3.63,3,3,0,0,0,.59,2.07A3.58,3.58,0,0,0,1107.51,268.77Z"/><path class="cls-13" d="M1156.17,275.06l-.09,15.28a9,9,0,0,0,1.17,4.72,4.89,4.89,0,0,0,3.06,2.46,7.54,7.54,0,0,0,4.21-.58,1.91,1.91,0,0,1,1.22-.1,3.13,3.13,0,0,1,1.78,1.75,6.36,6.36,0,0,1,.8,3,5.54,5.54,0,0,1-2.8,4.65q-5.82,4-14,2.17A17.89,17.89,0,0,1,1141,302a18.22,18.22,0,0,1-3.89-11.76q.06-10.58.13-21.14a2.57,2.57,0,0,0-.21-1.36,2.11,2.11,0,0,0-1.17-.52c-1.4-.32-2.81-.65-4.22-1a2.38,2.38,0,0,1-1.51-.78,4.49,4.49,0,0,1-.32-2.12l0-2a1.89,1.89,0,0,1,1-1.81q9.43-4.47,18.82-8.58a3.07,3.07,0,0,1,1.72,0l3.3.88a2.09,2.09,0,0,1,1.36.88,4.67,4.67,0,0,1,.33,2.15c0,2,0,4.07,0,6.11a3.22,3.22,0,0,0,.38,1.86,3,3,0,0,0,1.65.84c2.51.67,5,1.34,7.52,2a3.2,3.2,0,0,1,2,1.15,5.64,5.64,0,0,1,.43,2.7c0,.88,0,1.76,0,2.64a4.83,4.83,0,0,1-.58,2.83c-.39.45-1.08.54-2.08.27-2.46-.66-4.91-1.3-7.37-1.93-.76-.2-1.27-.18-1.55.05A2.23,2.23,0,0,0,1156.17,275.06Z"/><path class="cls-13" d="M638.09,401.26q0,6.76,0,13.52c0,6,.11,9.44.28,10.38a2.35,2.35,0,0,0,2,1.83,4.61,4.61,0,0,1,2,.82,2.16,2.16,0,0,1,.5,1.59,4.71,4.71,0,0,1-.93,2.74,6.79,6.79,0,0,1-2.52,2.15,42.26,42.26,0,0,1-9.77,3.06c-5.17,1.15-8.79,1.59-10.87,1.28a4.09,4.09,0,0,1-2.37-1.12,2.93,2.93,0,0,1-.92-2.14,2.64,2.64,0,0,1,.5-1.64,10,10,0,0,1,2.18-1.8q1.56-1.08,1.92-4.3a139.84,139.84,0,0,0,.63-15.45q0-10.08-.57-12.81a4.25,4.25,0,0,0-2.79-3.51,5,5,0,0,1-2.29-1.21,2.86,2.86,0,0,1-.62-2,6.1,6.1,0,0,1,1.87-4.06,27.34,27.34,0,0,1,6-4.54,76.81,76.81,0,0,1,7.14-3.73,50.48,50.48,0,0,1,6.39-2.61c2.11-.59,3.17.5,3.17,3.25q0,1.35-.38,6.3Q638.17,395,638.09,401.26Z"/><path class="cls-13" d="M682.45,403.66l-5.27,16.95A76.4,76.4,0,0,1,673.23,431a34.77,34.77,0,0,1-4.53,7.16,21.09,21.09,0,0,1-12.64,7.71q-6,1.13-9.71-1.45a6.67,6.67,0,0,1-2.88-5.9,9.58,9.58,0,0,1,2-5.91,8.17,8.17,0,0,1,4.9-3.26,4.93,4.93,0,0,1,4.69,1.08,4.39,4.39,0,0,1,1.13,1.44,24.53,24.53,0,0,1,.86,3.05c.31,1.19,1,1.69,2,1.49a3.24,3.24,0,0,0,2.1-1.57,5.54,5.54,0,0,0,.84-3.06c0-1.35-.72-3.47-2.13-6.33q-4.92-10.05-9.81-19.84a14.71,14.71,0,0,0-2.31-3.71,8.7,8.7,0,0,0-3.38-1.26,2.11,2.11,0,0,1-1.39-1,3.08,3.08,0,0,1-.59-1.78c0-2.5,2.36-4.82,7.1-6.91a64.58,64.58,0,0,1,10.83-3.56,18.59,18.59,0,0,1,6.74-.64c2.21.32,3.32,1.51,3.33,3.53a5.94,5.94,0,0,1-.92,2.77,5.75,5.75,0,0,0-.87,2.68,5.3,5.3,0,0,0,.43,2.07,34.59,34.59,0,0,0,1.82,3.43c1,1.81,1.94,2.63,2.72,2.47s1.7-1.25,2.58-3.23a13.38,13.38,0,0,0,1.31-5.46,4.22,4.22,0,0,0-1-3.06,4.64,4.64,0,0,1-1.55-3q0-2.22,2.73-4.17a20.06,20.06,0,0,1,7.37-3c5.73-1.25,8.61-.33,8.63,2.68a4.58,4.58,0,0,1-.86,2.81,10.77,10.77,0,0,1-3.18,2.54,8.51,8.51,0,0,0-3.07,3.28A66.21,66.21,0,0,0,682.45,403.66Z"/><path class="cls-13" d="M718.59,360.23l-.27,14.19q0,2.13,0,6.24c0,3,.07,4.82.15,5.35.2,1.2.78,1.71,1.73,1.54s2.06-.94,3.74-2.4,2.52-2.47,2.52-3a3.58,3.58,0,0,0-.91-1.65,2.82,2.82,0,0,1-.67-1.7c0-3.26,3.59-5.56,10.85-6.82a24,24,0,0,1,8.94-.21,3.78,3.78,0,0,1,2.18,1.4,4,4,0,0,1,.88,2.53,3.48,3.48,0,0,1-1.75,3.17,16.15,16.15,0,0,1-2.37,1A16,16,0,0,0,739,383q-2.85,2.59-2.85,3.55c0,.43,1.17,2.24,3.5,5.46s4.5,6,6.52,8.41a26.76,26.76,0,0,0,3,3.25,15.2,15.2,0,0,0,3,1.84q3,1.4,3,3.71a5.13,5.13,0,0,1-1.84,4.08,9.43,9.43,0,0,1-5.1,2.05q-6.63.9-13.27,1.85a4,4,0,0,1-3.9-1.49q-3.43-4.33-6.85-8.62c-1.82-2.25-2.92-3.58-3.32-4s-.73-.6-1-.55-.55.36-.65.92a18.4,18.4,0,0,0-.15,3.1,7.3,7.3,0,0,0,.43,2.89,6.06,6.06,0,0,0,1.89,1.93,3,3,0,0,1,1.08,2.64,5.62,5.62,0,0,1-3,5c-2,1.25-5.33,2.23-10,3-5.44.88-9,1.23-10.6,1a3.78,3.78,0,0,1-2.37-1.4,4.07,4.07,0,0,1-1-2.69,4.34,4.34,0,0,1,1.69-3.23,11.72,11.72,0,0,0,1.86-1.89,5.07,5.07,0,0,0,.64-1.8,142.83,142.83,0,0,0,.78-19.4l-.06-9.76c0-3.32-.18-5.42-.5-6.27s-1.09-1.25-2.31-1.17c-2.22.13-3.34-.63-3.35-2.32a5.11,5.11,0,0,1,1.45-3.35,21.13,21.13,0,0,1,4.78-3.71q10.62-6.6,15.77-7.62Q718.67,358,718.59,360.23Z"/><path class="cls-13" d="M780.23,349.86q-.13,7.33-.28,14.69c0,1.47,0,3.63,0,6.46,0,3.15.07,5,.16,5.55q.3,1.89,1.74,1.71,1.23-.16,3.78-2.28c1.69-1.41,2.54-2.42,2.54-3a4,4,0,0,0-.92-1.77,3,3,0,0,1-.67-1.79c0-3.38,3.62-5.55,10.94-6.42a23.74,23.74,0,0,1,9,.3,4,4,0,0,1,2.2,1.57,4.37,4.37,0,0,1,.88,2.65,3.4,3.4,0,0,1-1.76,3.17,15.23,15.23,0,0,1-2.39.87,15.17,15.17,0,0,0-4.69,3.09q-2.88,2.52-2.87,3.51c0,.44,1.17,2.37,3.52,5.82s4.53,6.47,6.56,9a29.74,29.74,0,0,0,3,3.5,16,16,0,0,0,3.05,2q3,1.59,3,4a5.06,5.06,0,0,1-1.86,4.1,9,9,0,0,1-5.13,1.88q-6.69.6-13.37,1.26a4.14,4.14,0,0,1-3.93-1.73q-3.45-4.65-6.9-9.27c-1.83-2.42-2.94-3.85-3.34-4.31s-.74-.66-1-.63-.54.35-.65.92a19.75,19.75,0,0,0-.15,3.21,8.1,8.1,0,0,0,.43,3,6.67,6.67,0,0,0,1.91,2.11,3.37,3.37,0,0,1,1.09,2.78,5.55,5.55,0,0,1-3,5.07c-2,1.19-5.37,2-10,2.59-5.48.64-9,.82-10.69.5a4,4,0,0,1-2.39-1.57,4.59,4.59,0,0,1-1-2.86,4.35,4.35,0,0,1,1.7-3.28,11.45,11.45,0,0,0,1.88-1.86,5,5,0,0,0,.64-1.85,149.86,149.86,0,0,0,.78-20.14c0-3.39,0-6.77-.07-10.16a26.66,26.66,0,0,0-.51-6.55,2.18,2.18,0,0,0-2.33-1.37q-3.37,0-3.39-2.62a5,5,0,0,1,1.46-3.4,19.9,19.9,0,0,1,4.83-3.56q10.72-6.16,15.93-6.9Q780.31,347.55,780.23,349.86Z"/><path class="cls-13" d="M855.36,383.62q-9.74.61-19.46,1.37a1.23,1.23,0,0,0-1.28,1.39,7.42,7.42,0,0,0,2.94,5.63,8.54,8.54,0,0,0,6.29,2.31,13.52,13.52,0,0,0,4.4-1.19,14.66,14.66,0,0,0,4-2.44,4.35,4.35,0,0,1,2.23-1.29c.72,0,1.43.42,2.12,1.41a5.27,5.27,0,0,1,1,3.11c0,2.31-1.23,4.61-3.7,6.9a24.12,24.12,0,0,1-15.17,6.68,18.84,18.84,0,0,1-14.58-4.73,21.39,21.39,0,0,1-4.75-6.51A25.73,25.73,0,0,1,817,385.17a27.27,27.27,0,0,1,4.14-14.76,26,26,0,0,1,9.23-9.09,21.64,21.64,0,0,1,9.14-2.84,17.4,17.4,0,0,1,13.42,4.16,18.39,18.39,0,0,1,4.5,5.85,17.35,17.35,0,0,1,2,7.76,10.8,10.8,0,0,1-1.1,5.2A3.56,3.56,0,0,1,855.36,383.62ZM836.93,376l4.18-.33c1.77-.13,2.65-1.14,2.64-3a6.18,6.18,0,0,0-1.3-4.12,3.76,3.76,0,0,0-3.36-1.37,4.52,4.52,0,0,0-3.64,2.41,7.78,7.78,0,0,0-1.22,4.07,2.52,2.52,0,0,0,.61,1.95A2.84,2.84,0,0,0,836.93,376Z"/><path class="cls-13" d="M910.55,340.73q0,22.13.05,44.27a26.34,26.34,0,0,0,.28,4.84,4,4,0,0,0,1.52,2.06,8.12,8.12,0,0,1,2,2.1,4.5,4.5,0,0,1,.52,2.22c0,2.59-2.23,4.59-6.68,6a43.71,43.71,0,0,1-12,2.1,2.28,2.28,0,0,1-1.72-.41,4.28,4.28,0,0,1-.52-2.19c-.14-1.64-.64-2.45-1.5-2.42-.47,0-1.2.52-2.19,1.52a14,14,0,0,1-9.41,4.36q-6.42.25-11.58-5a26,26,0,0,1-4.92-7.41,27.1,27.1,0,0,1-2.52-11.27,29.27,29.27,0,0,1,3.19-13.29,23.51,23.51,0,0,1,8.1-9.42,16.86,16.86,0,0,1,8.51-3,14.74,14.74,0,0,1,8.65,2.14,2.06,2.06,0,0,0,1,.35c.89,0,1.33-1.44,1.32-4.21a4.31,4.31,0,0,0-.73-2.71,5.4,5.4,0,0,0-2.61-1.52,3.29,3.29,0,0,1-2.62-3.27c0-2.35,2-4.28,6-5.77,7.1-2.57,11.86-3.85,14.27-3.92S910.54,338.08,910.55,340.73ZM888,365.82c-1.8.07-3.22,1.25-4.27,3.52a27.91,27.91,0,0,0-2.08,11.78q0,6.57,2.06,9.83a4.24,4.24,0,0,0,3.94,2.26q2.7-.09,3.92-3.79t1.2-11.83q0-7.44-1.48-9.86A3.63,3.63,0,0,0,888,365.82Z"/><path class="cls-13" d="M955.76,381.15Q946,381,936.23,381a1.14,1.14,0,0,0-1.28,1.31,8.14,8.14,0,0,0,2.92,6,9.08,9.08,0,0,0,6.3,2.8,12.79,12.79,0,0,0,4.42-.87,13.8,13.8,0,0,0,4-2.17,4,4,0,0,1,2.24-1.14c.72,0,1.43.54,2.12,1.58a5.78,5.78,0,0,1,1,3.22q0,3.5-3.74,6.69A22.61,22.61,0,0,1,939,404.09a19.93,19.93,0,0,1-14.62-5.86,23.88,23.88,0,0,1-4.74-7,28,28,0,0,1-2.46-11.51A26.62,26.62,0,0,1,921.43,365a23.2,23.2,0,0,1,9.31-8.48,20.18,20.18,0,0,1,9.19-2.11,18.76,18.76,0,0,1,13.44,5.33,20.89,20.89,0,0,1,4.48,6.28,18.57,18.57,0,0,1,1.95,8,10.53,10.53,0,0,1-1.13,5.15A3.27,3.27,0,0,1,955.76,381.15ZM937.31,372h4.2c1.77,0,2.66-.95,2.66-2.86a6.77,6.77,0,0,0-1.29-4.28,4.23,4.23,0,0,0-7,.48,7.57,7.57,0,0,0-1.25,4,2.78,2.78,0,0,0,.6,2A3,3,0,0,0,937.31,372Z"/><path class="cls-13" d="M979.16,355.13a34.38,34.38,0,0,1,6.77,1.31,8.26,8.26,0,0,0,1.58.26,8.94,8.94,0,0,0,2.74-.76,4,4,0,0,1,1.62-.36c1.28.06,2.56,1.07,3.86,3a23,23,0,0,1,2.56,5.1,14.34,14.34,0,0,1,1,4.73,4.44,4.44,0,0,1-1.18,3.16,3.62,3.62,0,0,1-2.91,1.14,4.47,4.47,0,0,1-2.59-.93,31.32,31.32,0,0,1-3.67-3.78c-1.76-2.07-3.23-3.13-4.39-3.17a2.46,2.46,0,0,0-2,.92,3.41,3.41,0,0,0-.86,2.31c0,1.59,1.3,3.11,3.9,4.6a37.51,37.51,0,0,1,10.73,8.46,14.61,14.61,0,0,1-2,20.12,15.09,15.09,0,0,1-10.67,3.54,52.08,52.08,0,0,1-5.89-.81c-2.68-.43-4.19-.64-4.52-.65a5.8,5.8,0,0,0-1.24.12,12.21,12.21,0,0,1-1.75.15,4.13,4.13,0,0,1-3.06-1.23,17.18,17.18,0,0,1-3.15-5.71A19.49,19.49,0,0,1,962.6,390q0-4.47,3-4.41a3.2,3.2,0,0,1,2.14.94,61,61,0,0,1,4.08,4.87,16.72,16.72,0,0,0,2.82,3,4.12,4.12,0,0,0,2.4.86,2.83,2.83,0,0,0,2.2-.78,3,3,0,0,0,.84-2.23q0-2.18-3.19-4.07-6.67-4-9.64-8.14a15.81,15.81,0,0,1-3-9.47,16.08,16.08,0,0,1,3.05-9.87A13.31,13.31,0,0,1,979.16,355.13Z"/><path class="cls-13" d="M1072.82,348.33l-.25,43.16a24.89,24.89,0,0,0,.25,4.75,4.52,4.52,0,0,0,1.49,2.18,9.64,9.64,0,0,1,2,2.28,4.49,4.49,0,0,1,.5,2.22c0,2.52-2.24,4.21-6.67,5.13a43.21,43.21,0,0,1-12,.7,2.46,2.46,0,0,1-1.71-.6,4.38,4.38,0,0,1-.5-2.2c-.13-1.63-.62-2.48-1.48-2.55-.47,0-1.2.37-2.2,1.25a12.62,12.62,0,0,1-9.4,3.24q-6.4-.47-11.52-6.31a29.62,29.62,0,0,1-4.85-7.94A28.88,28.88,0,0,1,1024,382.1a27,27,0,0,1,3.28-12.84,19.49,19.49,0,0,1,8.17-8.3,15.31,15.31,0,0,1,8.5-1.86,16.47,16.47,0,0,1,8.6,3.26,2.18,2.18,0,0,0,1,.48c.89.08,1.33-1.24,1.35-4a4.66,4.66,0,0,0-.71-2.76,6.39,6.39,0,0,0-2.58-1.84,3.82,3.82,0,0,1-2.59-3.59c0-2.32,2-3.94,6-4.84,7.07-1.52,11.81-2.09,14.2-1.81S1072.83,345.74,1072.82,348.33Zm-22.58,21.54c-1.8-.16-3.22.81-4.28,2.91q-2.14,4.22-2.17,11.38,0,6.49,2,9.95a4.84,4.84,0,0,0,3.92,2.7q2.68.22,3.92-3.27t1.28-11.48c0-4.89-.44-8.18-1.4-9.89A4.19,4.19,0,0,0,1050.24,369.87Z"/><path class="cls-13" d="M1102.37,368.93q-.09,13.54-.17,27.1a15.92,15.92,0,0,0,.48,4.77,7.27,7.27,0,0,0,2.06,3,8.69,8.69,0,0,1,1.7,1.95,3.94,3.94,0,0,1,.42,1.89c0,4-4.52,5.46-13.5,4.48a42.82,42.82,0,0,1-11.48-2.52,5.35,5.35,0,0,1-2.32-1.88,4.68,4.68,0,0,1-.87-2.78,3.41,3.41,0,0,1,.46-1.93,11.42,11.42,0,0,1,2.33-2,5.54,5.54,0,0,0,1.83-3.34,35.62,35.62,0,0,0,.58-7.23q0-1.56-.15-5.83c-.11-2.85-.19-4.52-.24-5a4.41,4.41,0,0,0-2.29-3.23,4.61,4.61,0,0,1-2.54-4.06c0-2,1.14-3.33,3.37-4a59.06,59.06,0,0,1,9.92-2.21,32.25,32.25,0,0,1,8.16-.32C1101.63,365.93,1102.38,367,1102.37,368.93Zm-8-21.6a10.65,10.65,0,0,1,5.68,2.33,5.8,5.8,0,0,1-1.14,9.63q-5,2.63-12.17,1.72a8.71,8.71,0,0,1-4.78-1.91,6.19,6.19,0,0,1-2.37-5c0-2.7,1.72-4.62,5.12-5.72A21.45,21.45,0,0,1,1094.34,347.33Z"/><path class="cls-13" d="M1153.13,371.41a2.77,2.77,0,0,1,1.78,1.62,6.38,6.38,0,0,1,.76,3.15,10.68,10.68,0,0,1-3.6,7.33c-.63.49-1,.92-1,1.28,0,.1,0,.46.07,1.11a12.39,12.39,0,0,1,.11,1.74,11.34,11.34,0,0,1-3.32,8.53,16.45,16.45,0,0,1-7.63,3.9,27.1,27.1,0,0,1-10.23.3,21.66,21.66,0,0,1-2.66-.56,12.48,12.48,0,0,0-1.64-.37q-2.17-.31-2.19,2.13a3.24,3.24,0,0,0,1.4,2.67,8.07,8.07,0,0,0,3.83,1.43,34.83,34.83,0,0,0,4.84.18,66.41,66.41,0,0,1,9.91.42,15.18,15.18,0,0,1,7.47,2.93,11.92,11.92,0,0,1,3.35,4.34,12.57,12.57,0,0,1,1.21,5.44,13.39,13.39,0,0,1-3.08,8.41c-2.42,3-6,5-10.64,6.06a38.45,38.45,0,0,1-12.71.28c-6.07-.75-11-2.37-14.76-4.91a14,14,0,0,1-4.16-4.39,10,10,0,0,1-1.53-5.19,6.08,6.08,0,0,1,.9-3.25,4.4,4.4,0,0,1,2.26-1.91c.82-.27,1.23-.62,1.24-1.05s-.34-.88-1-1.62q-3.27-3.51-3.25-6.86a7.46,7.46,0,0,1,1.61-4.4,9.39,9.39,0,0,1,4-3.15c.66-.29,1-.61,1-1a4.24,4.24,0,0,0-1.21-2.12,16.25,16.25,0,0,1-4.17-10.87,11.29,11.29,0,0,1,1.54-5.74,11.71,11.71,0,0,1,4.2-4.22,21.41,21.41,0,0,1,14.68-2.58,34.24,34.24,0,0,1,7.12,2.1,32.62,32.62,0,0,0,5.11,1.69,11.72,11.72,0,0,0,8.9-2.33A2.37,2.37,0,0,1,1153.13,371.41Zm-31.5,46.25c-.68-.09-1,.31-1,1.2a5.81,5.81,0,0,0,2.6,4.74,13.76,13.76,0,0,0,6.79,2.55,13.18,13.18,0,0,0,6.3-.36,3.14,3.14,0,0,0,2.3-3,2.94,2.94,0,0,0-.85-2.06,3.45,3.45,0,0,0-2.13-1.1,13.65,13.65,0,0,0-1.88-.07,30.31,30.31,0,0,1-5.13-.28,35.76,35.76,0,0,1-4-.75,18.25,18.25,0,0,1-2.33-.67A2.68,2.68,0,0,0,1121.63,417.66Zm9.22-40.62a3.31,3.31,0,0,0-3.31,1.22,7,7,0,0,0-1.29,4.46,21,21,0,0,0,1.31,8.17q1.34,3.18,3.54,3.51a3.44,3.44,0,0,0,3.46-1.33,7.79,7.79,0,0,0,1.3-4.78,19.27,19.27,0,0,0-1.28-7.83C1133.7,378.5,1132.46,377.35,1130.85,377Z"/><path class="cls-13" d="M1202.05,383.85a23.83,23.83,0,0,1,11.9,6.57,15.38,15.38,0,0,1,3.59,5.48,22,22,0,0,1,1,7.39c0,2.12-.07,4.25-.11,6.37q0,6.66.86,8.82a3.8,3.8,0,0,0,.84,1.39,6.61,6.61,0,0,0,1.69.83,2,2,0,0,1,1.29,2.07,6.23,6.23,0,0,1-1.57,4,10,10,0,0,1-4,2.91,10.77,10.77,0,0,1-6.36.64,10.17,10.17,0,0,1-6.7-4.43c-.57-.86-1.09-1.34-1.58-1.43a3.23,3.23,0,0,0-2.15.67,13,13,0,0,1-9.23,1.5,16.55,16.55,0,0,1-8.6-4,14.54,14.54,0,0,1-3.39-4.88,13.79,13.79,0,0,1-1.23-5.75,9.48,9.48,0,0,1,3.46-7.54q5.35-4.57,15.94-2.44c1.57.32,2.55.36,3,.11s.61-1,.62-2.2a19.7,19.7,0,0,0-.86-6.89,4,4,0,0,0-2.9-2.71,2.83,2.83,0,0,0-2.17.32,10.71,10.71,0,0,0-2.39,2.39q-3.63,4.83-7.58,4.06a5.51,5.51,0,0,1-4.48-5.55,6,6,0,0,1,1.59-3.94,10.6,10.6,0,0,1,4.26-2.84A26.64,26.64,0,0,1,1202.05,383.85Zm-2.84,24.68a3.26,3.26,0,0,0-3.11,1,4.76,4.76,0,0,0-1.34,3.5,6.55,6.55,0,0,0,.92,3.58,3.69,3.69,0,0,0,2.47,1.77q3.24.63,3.27-5.25a8.13,8.13,0,0,0-.45-3.33A2.5,2.5,0,0,0,1199.21,408.53Z"/><path class="cls-13" d="M1249.65,406.69l0,14.06a8,8,0,0,0,1.18,4.36,4.86,4.86,0,0,0,3,2.3,7.81,7.81,0,0,0,4.13-.48,2.05,2.05,0,0,1,1.2-.07,3.09,3.09,0,0,1,1.76,1.63,5.56,5.56,0,0,1,.8,2.78c0,1.7-.91,3.1-2.73,4.23-3.79,2.42-8.39,3.05-13.8,1.85a18,18,0,0,1-10.33-6.07,16.5,16.5,0,0,1-3.88-11l.06-19.59a2.3,2.3,0,0,0-.22-1.26,2.26,2.26,0,0,0-1.14-.52l-4.15-1a2.41,2.41,0,0,1-1.48-.77,3.93,3.93,0,0,1-.32-2c0-.63,0-1.26,0-1.88a1.69,1.69,0,0,1,.93-1.66q9.24-3.87,18.41-7.37a3.29,3.29,0,0,1,1.68.09l3.24.91a2.17,2.17,0,0,1,1.34.86,4.17,4.17,0,0,1,.33,2v5.61a2.86,2.86,0,0,0,.37,1.73,3.17,3.17,0,0,0,1.62.81l7.39,2.06a3.24,3.24,0,0,1,1.91,1.1,5,5,0,0,1,.44,2.48v2.42a4,4,0,0,1-.56,2.57q-.55.61-2,.21l-7.23-1.94c-.75-.19-1.25-.19-1.52,0S1249.65,405.92,1249.65,406.69Z"/><path class="cls-13" d="M651.87,480.51q-.23,9-.46,18c0,2.14.58,3.12,1.88,2.94.64-.09,1.28-.65,1.9-1.67,2.61-4.39,6.1-6.91,10.49-7.51s7.74.35,10.31,2.84a9.27,9.27,0,0,1,2.44,4.15,30.33,30.33,0,0,1,.84,7.3q.22,7.88.44,15.76a7.27,7.27,0,0,0,.53,3,7.62,7.62,0,0,0,2.19,2.19,2.76,2.76,0,0,1,1.2,2.3c0,3.17-4.41,5.14-13.27,6-7.88.75-11.82-.29-11.83-3.18a2.53,2.53,0,0,1,.2-1.14c.13-.27.6-1,1.41-2.21q1.71-2.55,1.66-12c0-3.82-.36-6.57-1-8.23a4.18,4.18,0,0,0-4.81-2.95,4.63,4.63,0,0,0-3.64,2.36q-.85,1.47-.84,5.23l0,8.23a53.48,53.48,0,0,0,.51,6.13,8.67,8.67,0,0,0,1.88,2.48,2.82,2.82,0,0,1,.78,2c0,3.23-4,5.23-11.94,6.07-9.32,1-14-.12-14-3.36a3.14,3.14,0,0,1,.44-1.79,14,14,0,0,1,2.19-2.11c1-.88,1.73-3,2.12-6.35a161.66,161.66,0,0,0,.55-16.52,103.45,103.45,0,0,0-.51-12.42,3.85,3.85,0,0,0-.59-1.81,3.63,3.63,0,0,0-1.6-1c-1.67-.62-2.51-1.51-2.51-2.68a4.78,4.78,0,0,1,1.89-3.7,34.27,34.27,0,0,1,7.27-4,49.27,49.27,0,0,1,11.61-4C651.16,478.49,651.92,479.08,651.87,480.51Z"/><path class="cls-13" d="M711.07,486.48a18.83,18.83,0,0,1,19.71,10.24,22.9,22.9,0,0,1,2.61,10.61c.05,6.59-2.63,12.42-8,17.44a28.86,28.86,0,0,1-17.75,8q-9.78.79-15.85-4.68c-3.94-3.53-5.93-8.37-6-14.59a24.7,24.7,0,0,1,7.08-17.83A29,29,0,0,1,711.07,486.48Zm-3.2,10.72A3.85,3.85,0,0,0,705,499a6.79,6.79,0,0,0-1.06,4,38.38,38.38,0,0,0,1,7.21,55.46,55.46,0,0,0,2.24,8q1.29,3.55,4.15,3.3,3.65-.32,3.61-5.4a44.91,44.91,0,0,0-1-8.51,35.07,35.07,0,0,0-2.27-7.59Q710.29,497,707.87,497.2Z"/><path class="cls-13" d="M759.67,491l.09,14.86q.07,9.86.34,11.46a3.12,3.12,0,0,0,2,2.36,5.51,5.51,0,0,1,2,1.26,2.8,2.8,0,0,1,.53,1.82,4.74,4.74,0,0,1-1,2.85,5.59,5.59,0,0,1-2.55,1.92q-3,1.2-10,1.66-7.9.52-11.12-.57A5.2,5.2,0,0,1,737.7,527a4.09,4.09,0,0,1-1-2.56,2.71,2.71,0,0,1,.5-1.72,8,8,0,0,1,2.23-1.59q1.59-.9,1.94-4.41a167,167,0,0,0,.54-17c0-7.45-.27-12.22-.66-14.32a6.18,6.18,0,0,0-2.9-4.48A6.55,6.55,0,0,1,736,479a4,4,0,0,1-.65-2.33,5.6,5.6,0,0,1,1.9-4.11,20.89,20.89,0,0,1,6.12-3.74,60.82,60.82,0,0,1,7.33-2.61,41,41,0,0,1,6.56-1.54q3.24-.31,3.27,4.22,0,1.49-.36,6.85Q759.71,484.11,759.67,491Z"/><path class="cls-13" d="M814.9,463.76q.12,21.66.23,43.34a24.51,24.51,0,0,0,.3,4.73,3.75,3.75,0,0,0,1.51,2,7.82,7.82,0,0,1,2,2,4.26,4.26,0,0,1,.52,2.16q0,3.81-6.59,6.09A43.36,43.36,0,0,1,801,526.36c-.88,0-1.45-.08-1.71-.37a4,4,0,0,1-.53-2.12c-.15-1.59-.64-2.37-1.49-2.33-.47,0-1.19.54-2.18,1.53a14,14,0,0,1-9.3,4.39q-6.37.35-11.5-4.72a24.68,24.68,0,0,1-4.89-7.1,25.51,25.51,0,0,1-2.54-10.85,28.13,28.13,0,0,1,3.12-12.89,23.9,23.9,0,0,1,8-9.3,17.49,17.49,0,0,1,8.42-3.18,14.56,14.56,0,0,1,8.57,1.83,2,2,0,0,0,1,.3c.88-.06,1.31-1.44,1.3-4.14a4.08,4.08,0,0,0-.74-2.61,5.09,5.09,0,0,0-2.58-1.39,3.1,3.1,0,0,1-2.61-3.1q0-3.44,5.93-5.82,10.53-4.15,14.12-4.38T814.9,463.76ZM792.67,489q-2.67.18-4.22,3.53a27.07,27.07,0,0,0-2,11.5c0,4.25.71,7.41,2.07,9.5a4.16,4.16,0,0,0,3.92,2.12c1.78-.1,3.07-1.35,3.87-3.77s1.17-6.27,1.14-11.55c0-4.84-.52-8-1.49-9.57A3.52,3.52,0,0,0,792.67,489Z"/><path class="cls-13" d="M859.92,501.61q-9.69.31-19.38.71a1.17,1.17,0,0,0-1.27,1.34,7.73,7.73,0,0,0,2.93,5.75,8.65,8.65,0,0,0,6.25,2.53,12.86,12.86,0,0,0,4.39-1,13.8,13.8,0,0,0,4-2.31,4.24,4.24,0,0,1,2.23-1.23c.71,0,1.41.47,2.1,1.48a5.47,5.47,0,0,1,1.05,3.14q0,3.46-3.69,6.8A23,23,0,0,1,843.4,525a19.24,19.24,0,0,1-14.53-5.3,22.68,22.68,0,0,1-4.73-6.71,27.3,27.3,0,0,1,1.65-25.81,24.52,24.52,0,0,1,9.19-8.73,21,21,0,0,1,9.11-2.5,17.92,17.92,0,0,1,13.36,4.62,19.41,19.41,0,0,1,4.48,6,17.89,17.89,0,0,1,2,7.83,10.62,10.62,0,0,1-1.1,5.17A3.42,3.42,0,0,1,859.92,501.61Zm-18.35-8.29,4.17-.17c1.76-.08,2.63-1,2.62-2.94a6.38,6.38,0,0,0-1.29-4.17,3.89,3.89,0,0,0-3.35-1.48,4.25,4.25,0,0,0-3.62,2.27,7.54,7.54,0,0,0-1.22,4,2.64,2.64,0,0,0,.61,2A2.93,2.93,0,0,0,841.57,493.32Z"/><path class="cls-13" d="M907,474.26q2.19,0,2.67.69c.32.48.6,2,.85,4.64.14,1.43.57,2.13,1.29,2.12.55,0,1.07-.48,1.57-1.42,2.2-4.07,5.08-6.13,8.63-6.15a7.62,7.62,0,0,1,6.17,2.82,11.47,11.47,0,0,1,1.9,3.61,13.13,13.13,0,0,1,.75,4.24,13.31,13.31,0,0,1-.91,4.69,12.07,12.07,0,0,1-2.35,4,8.47,8.47,0,0,1-6.49,3,6.67,6.67,0,0,1-3.53-.85,18.25,18.25,0,0,1-3.74-3.5,2.26,2.26,0,0,0-1.62-1c-.77,0-1.27.52-1.5,1.54a35.76,35.76,0,0,0-.35,6.43,72.3,72.3,0,0,0,.47,10,4.25,4.25,0,0,0,.81,2,5.68,5.68,0,0,0,2.21,1.12q3.72,1.27,3.72,4.53a5.41,5.41,0,0,1-1.19,3.47,5.72,5.72,0,0,1-3.18,2,53.67,53.67,0,0,1-11.63,1.1q-7.31.09-11.1-1.34a4.66,4.66,0,0,1-3.39-4.63,5.79,5.79,0,0,1,2.46-4.54,6.89,6.89,0,0,0,1.65-1.7,5.46,5.46,0,0,0,.61-2.07,131.28,131.28,0,0,0,.63-16.32,8.66,8.66,0,0,0-.42-3.11,3,3,0,0,0-1.66-1.49q-2.94-1.29-2.94-3.86a5.13,5.13,0,0,1,2-4,23.18,23.18,0,0,1,6.77-3.47A35,35,0,0,1,907,474.26Z"/><path class="cls-13" d="M957.48,473.78a20.6,20.6,0,0,1,13.27,4.77,24.2,24.2,0,0,1,6.55,8.69,27.32,27.32,0,0,1,2.54,11.57,22.8,22.8,0,0,1-8.25,17.75,26.16,26.16,0,0,1-18,6.88q-9.87-.06-16-6.65-5.94-6.4-5.95-16.69,0-11.44,7.27-18.75A24.73,24.73,0,0,1,957.48,473.78ZM954.16,485a3.35,3.35,0,0,0-2.91,1.56,7.17,7.17,0,0,0-1.1,4.19,47.17,47.17,0,0,0,.92,7.94,69.61,69.61,0,0,0,2.21,8.92c.85,2.65,2.24,4,4.16,4,2.45,0,3.68-1.79,3.68-5.45a52.21,52.21,0,0,0-.92-9.27,42.67,42.67,0,0,0-2.24-8.46C957.05,486.18,955.79,485,954.16,485Z"/><path class="cls-13" d="M1006.18,487.51l-.06,16.3a8.58,8.58,0,0,0,1.21,4.76,3.71,3.71,0,0,0,3.1,1.91,8.29,8.29,0,0,0,4.26-1.61,2.15,2.15,0,0,1,1.24-.39c.66,0,1.26.5,1.81,1.45a6.09,6.09,0,0,1,.81,3.06,7.85,7.85,0,0,1-2.82,5.64,19.11,19.11,0,0,1-14.21,5.47,14,14,0,0,1-10.58-4.59q-4-4.46-4-11.61l.06-22.35a2.57,2.57,0,0,0-.23-1.39c-.15-.18-.54-.28-1.17-.29l-4.26-.09c-.8,0-1.31-.18-1.53-.49a4.4,4.4,0,0,1-.33-2.16c0-.71,0-1.42,0-2.13a2.54,2.54,0,0,1,1-2.11q9.48-6.78,19-13.43a3.16,3.16,0,0,1,1.74-.38l3.35.11a1.57,1.57,0,0,1,1.38.61,4.71,4.71,0,0,1,.35,2.2q0,3.25,0,6.51a3.07,3.07,0,0,0,.38,1.9,2.36,2.36,0,0,0,1.67.49l7.65.28a2.45,2.45,0,0,1,2,.72,5.72,5.72,0,0,1,.44,2.79c0,.94,0,1.89,0,2.83a6.2,6.2,0,0,1-.59,3.18,2.24,2.24,0,0,1-2.11.81l-7.47-.25a2,2,0,0,0-1.57.43A2.83,2.83,0,0,0,1006.18,487.51Z"/><path class="cls-13" d="M1045.3,489.08q0,8.06-.08,16.13a8.5,8.5,0,0,0,1.19,4.73,3.83,3.83,0,0,0,3.1,1.95,8.4,8.4,0,0,0,4.25-1.53A2.08,2.08,0,0,1,1055,510c.66,0,1.26.52,1.81,1.46a5.94,5.94,0,0,1,.8,3,7.58,7.58,0,0,1-2.82,5.53,19,19,0,0,1-14.2,5.21,14.13,14.13,0,0,1-10.57-4.7q-4-4.47-4-11.57l.09-22.18a2.63,2.63,0,0,0-.22-1.38c-.15-.18-.54-.28-1.17-.31l-4.26-.16c-.79,0-1.3-.21-1.52-.52a4.3,4.3,0,0,1-.32-2.15v-2.12a2.49,2.49,0,0,1,1-2.08q9.48-6.54,19-12.94a3.15,3.15,0,0,1,1.73-.33l3.35.18a1.6,1.6,0,0,1,1.38.63,4.72,4.72,0,0,1,.34,2.19l0,6.44a3,3,0,0,0,.38,1.88,2.37,2.37,0,0,0,1.67.52l7.63.43a2.44,2.44,0,0,1,2,.76,5.46,5.46,0,0,1,.44,2.76c0,.93,0,1.87,0,2.8a6,6,0,0,1-.6,3.13,2.21,2.21,0,0,1-2.1.77l-7.46-.4a2,2,0,0,0-1.57.4A2.78,2.78,0,0,0,1045.3,489.08Z"/><path class="cls-13" d="M1097.29,505.63q-9.64-.64-19.32-1.21a1.07,1.07,0,0,0-1.29,1.2,8.39,8.39,0,0,0,2.87,5.94,9.56,9.56,0,0,0,6.22,3.06,14.64,14.64,0,0,0,8.36-2.51,3.88,3.88,0,0,1,2.23-1c.71.05,1.4.59,2.08,1.63a5.61,5.61,0,0,1,1,3.15c0,2.24-1.26,4.32-3.74,6.27a21.82,21.82,0,0,1-15.12,4.77,20.7,20.7,0,0,1-14.44-6.47,24.72,24.72,0,0,1-4.66-7.09,27.88,27.88,0,0,1-2.37-11.43,24.42,24.42,0,0,1,4.28-14.1,20.82,20.82,0,0,1,9.27-7.62,19.77,19.77,0,0,1,9.11-1.41,20.14,20.14,0,0,1,13.26,6.05,21.93,21.93,0,0,1,4.4,6.32,18,18,0,0,1,1.88,7.79,9.46,9.46,0,0,1-1.14,4.89A3.06,3.06,0,0,1,1097.29,505.63Zm-18.2-10,4.15.26c1.76.11,2.64-.75,2.65-2.6a6.71,6.71,0,0,0-1.25-4.22,4.32,4.32,0,0,0-3.32-1.83,3.81,3.81,0,0,0-3.63,1.83,6.91,6.91,0,0,0-1.26,3.84,2.79,2.79,0,0,0,.58,2A3.23,3.23,0,0,0,1079.09,495.67Z"/><path class="cls-13" d="M1123.29,482.5c1.44.13,2.32.45,2.64.94a14.3,14.3,0,0,1,.81,4.49c.13,1.36.54,2.08,1.26,2.14.54.05,1.07-.35,1.56-1.19,2.22-3.63,5.08-5.26,8.61-4.91a8.61,8.61,0,0,1,6.08,3.31,11.66,11.66,0,0,1,1.86,3.57,12.19,12.19,0,0,1,.71,4,11,11,0,0,1-.92,4.3,9.94,9.94,0,0,1-2.36,3.5,7.91,7.91,0,0,1-6.45,2.21,7.29,7.29,0,0,1-3.5-1.12,20.18,20.18,0,0,1-3.69-3.67,2.57,2.57,0,0,0-1.59-1.1c-.77-.06-1.27.38-1.51,1.32a32.2,32.2,0,0,0-.39,6.07,65.3,65.3,0,0,0,.39,9.52,4.32,4.32,0,0,0,.79,2,6.47,6.47,0,0,0,2.19,1.24c2.45,1,3.67,2.53,3.66,4.58a4.61,4.61,0,0,1-1.21,3.19,5.27,5.27,0,0,1-3.17,1.64,54.37,54.37,0,0,1-11.58.16q-7.26-.45-11-2.11c-2.24-1-3.35-2.58-3.34-4.73a5.08,5.08,0,0,1,2.49-4.17,6.13,6.13,0,0,0,1.66-1.5,4.86,4.86,0,0,0,.63-1.94,122.23,122.23,0,0,0,.75-15.61,8.05,8.05,0,0,0-.39-3,3.41,3.41,0,0,0-1.63-1.6q-2.91-1.51-2.9-4a4.42,4.42,0,0,1,2-3.69,20.88,20.88,0,0,1,6.76-2.62A34,34,0,0,1,1123.29,482.5Z"/><path class="cls-13" d="M1199,506.81q.24,7.71.49,15.43a6.82,6.82,0,0,0,.5,2.63,23.89,23.89,0,0,0,2.49,3.43,3.17,3.17,0,0,1,.6,2q0,2.88-3.24,3.7c-2.15.56-6,.58-11.52.09-3.75-.34-6.4-.92-7.95-1.76a4.11,4.11,0,0,1-2.39-3.81,2.61,2.61,0,0,1,.25-1.29,19.34,19.34,0,0,1,1.65-1.91q1.63-1.73,1.7-12.26c0-4.08-.39-7.13-1.25-9.18a4.43,4.43,0,0,0-3.91-2.78c-1.82-.2-3.08.3-3.76,1.51s-1,3.49-1.07,6.85q0,4.42,0,8.85a14.54,14.54,0,0,0,.28,3.64,25,25,0,0,0,2,4,3.82,3.82,0,0,1,.44,1.87q0,2.63-3.37,3.6t-10.48.4c-7.58-.59-11.37-2.61-11.35-6.09a3.17,3.17,0,0,1,.36-1.63,6.94,6.94,0,0,1,1.67-1.47,3.38,3.38,0,0,0,1.36-1.86,36.8,36.8,0,0,0,.57-5.41q.32-5.13.36-10.79a12.4,12.4,0,0,0-.41-4.13,8,8,0,0,0-2.46-2.62,4,4,0,0,1-1.74-3.17,3.33,3.33,0,0,1,1.45-2.83,23,23,0,0,1,5.91-2.3,75.89,75.89,0,0,1,7.58-1.77,21.06,21.06,0,0,1,5-.49,3,3,0,0,1,2.06,1.23,3.81,3.81,0,0,1,.82,2.42c0,.08,0,.46,0,1.11a5,5,0,0,0,0,.62c0,1.43.53,2.2,1.62,2.32.65.08,1.35-.41,2.09-1.45,2.37-3.42,5.78-4.84,10.23-4.29a15.51,15.51,0,0,1,8.79,4,13.13,13.13,0,0,1,3.56,5.28A31.06,31.06,0,0,1,1199,506.81Z"/><path class="cls-13" d="M1243.07,519.93q-9.52-1.24-19.07-2.4c-.84-.1-1.26.23-1.27,1q0,2.78,2.85,5.57a10.52,10.52,0,0,0,6.15,3.15,13.37,13.37,0,0,0,4.33-.27,12.36,12.36,0,0,0,3.92-1.44,3.72,3.72,0,0,1,2.19-.74,3.25,3.25,0,0,1,2.07,1.6,5,5,0,0,1,1,2.88c0,2-1.22,3.79-3.66,5.39a22.2,22.2,0,0,1-14.93,3.41,22.58,22.58,0,0,1-14.3-6.7,24.33,24.33,0,0,1-4.62-6.75,24.8,24.8,0,0,1-2.35-10.59,19.83,19.83,0,0,1,4.21-12.59,18,18,0,0,1,9.13-6.23,20.25,20.25,0,0,1,9-.56,22.72,22.72,0,0,1,13.07,6.5,22.17,22.17,0,0,1,4.36,6,15.71,15.71,0,0,1,1.89,7.11,7.46,7.46,0,0,1-1.1,4.3A2.83,2.83,0,0,1,1243.07,519.93Zm-18-10.25,4.1.54c1.73.23,2.6-.49,2.61-2.15a6.16,6.16,0,0,0-1.25-3.91,4.88,4.88,0,0,0-3.28-1.9,3.58,3.58,0,0,0-3.58,1.39,5.56,5.56,0,0,0-1.23,3.38,2.6,2.6,0,0,0,.58,1.88A3.54,3.54,0,0,0,1225.08,509.68Z"/><path class="cls-13" d="M879.48,608.41l-10.56,24.36a39,39,0,0,1-4.16,7.84,4.76,4.76,0,0,1-3.68,2.19,3.71,3.71,0,0,1-3.13-1.64,39,39,0,0,1-4.42-7.39q-5.87-12.93-11.76-25.78a11.14,11.14,0,0,0-1.84-3,5.4,5.4,0,0,0-2.45-1.38q-3.13-1-3.14-3.88c0-2,1.27-3.38,3.84-4.31s6.63-1.44,12.2-1.51c4.65-.06,8.09.3,10.3,1.06s3.31,2,3.32,3.6a4.79,4.79,0,0,1-1.55,3.33,9.64,9.64,0,0,0-1.27,1.6,2.76,2.76,0,0,0-.28,1.35q0,1.63,1.82,5.43c1.22,2.46,2.34,3.69,3.38,3.68a2,2,0,0,0,1.68-.92,37,37,0,0,0,2.37-4.74,11.65,11.65,0,0,0,1.26-4.26,4.59,4.59,0,0,0-1.32-2.73,5.26,5.26,0,0,1-1.41-3.22c0-1.54.86-2.66,2.6-3.35s4.59-1.06,8.57-1.09q8.39-.07,8.39,4.19,0,2.46-3,3.59a7.76,7.76,0,0,0-3.18,1.91A26.76,26.76,0,0,0,879.48,608.41Z"/><path class="cls-13" d="M947.59,618.67H929.23a1.67,1.67,0,0,0-1.13.27,1.58,1.58,0,0,0-.26,1.09,9.86,9.86,0,0,0,9.11,9.08,12.82,12.82,0,0,0,4.62-1,14.39,14.39,0,0,0,4.17-2.35,4.18,4.18,0,0,1,2.09-1.26c.63,0,1.32.61,2,1.82a6.69,6.69,0,0,1,1.11,3.47,7.43,7.43,0,0,1-1.38,4,16.41,16.41,0,0,1-3.75,4,22.63,22.63,0,0,1-14,5,20,20,0,0,1-7.1-1.36,17.67,17.67,0,0,1-6-3.59c-.55-.51-1-.77-1.23-.77a3.75,3.75,0,0,0-1.36.63,37.39,37.39,0,0,1-8,3.61,25.53,25.53,0,0,1-7.63,1.48q-5.78,0-9.23-3.09-4-3.54-4-9.77a14,14,0,0,1,7.53-13,20,20,0,0,1,5.29-2.15,48,48,0,0,1,7.72-.84c.93,0,1.52-.28,1.77-.73A8.23,8.23,0,0,0,910,610a16.81,16.81,0,0,0-1.06-6.61c-.7-1.6-1.65-2.4-2.86-2.39a3.32,3.32,0,0,0-2.32,1,18,18,0,0,0-2.6,3.62,16.84,16.84,0,0,1-3.52,4.59,5.67,5.67,0,0,1-3.66,1.4,4.4,4.4,0,0,1-3.35-1.42,5,5,0,0,1-1.34-3.55,8.78,8.78,0,0,1,2.41-5.84,20.48,20.48,0,0,1,6.94-4.91,27.41,27.41,0,0,1,11.87-2.86,22.43,22.43,0,0,1,5.14.61,18.62,18.62,0,0,1,4.44,1.49,3.25,3.25,0,0,0,1.16.48,4.06,4.06,0,0,0,1.27-.49,19.41,19.41,0,0,1,4.71-1.49,28.43,28.43,0,0,1,5.61-.61,18.6,18.6,0,0,1,12,4.13,20.27,20.27,0,0,1,5.55,6.85,17.8,17.8,0,0,1,1.88,8.11,9.29,9.29,0,0,1-1.15,5,2.93,2.93,0,0,1-1.27,1.22A6.29,6.29,0,0,1,947.59,618.67Zm-39.26,2.07a3.88,3.88,0,0,0-3.18,1.73,7.51,7.51,0,0,0-.29,7.92,2.87,2.87,0,0,0,2.42,1.55c2.16,0,3.24-2.06,3.24-6.16a12.06,12.06,0,0,0-.44-4A1.8,1.8,0,0,0,908.33,620.74Zm21.43-11h5.14a2,2,0,0,0,1.58-.51,3.17,3.17,0,0,0,.43-2,6.88,6.88,0,0,0-1.27-4.29,3.92,3.92,0,0,0-3.29-1.67,4.12,4.12,0,0,0-3.49,1.79,7.16,7.16,0,0,0-1.48,4.37,2.58,2.58,0,0,0,.47,1.82A2.82,2.82,0,0,0,929.76,609.69Z"/><path class="cls-13" d="M978.8,577.66q-.21,7.59-.4,15.16c0,1.52,0,3.74-.06,6.68,0,3.26,0,5.18.11,5.77.19,1.32.77,2,1.73,2s2.08-.61,3.78-1.85,2.55-2.15,2.55-2.76a4.79,4.79,0,0,0-.9-1.95,3.62,3.62,0,0,1-.65-1.93q0-5.24,10.95-5.15a24.12,24.12,0,0,1,9,1.43,4.8,4.8,0,0,1,2.18,1.86,5,5,0,0,1,.85,2.8,3.07,3.07,0,0,1-1.78,3,14,14,0,0,1-2.38.61,12.72,12.72,0,0,0-4.69,2.6q-2.89,2.22-2.89,3.24,0,.68,3.45,6.37t6.44,9.89a33.4,33.4,0,0,0,3,3.87,18.57,18.57,0,0,0,3,2.37q3,1.88,2.94,4.29a4.78,4.78,0,0,1-1.88,4,8.19,8.19,0,0,1-5.11,1.44H994.71a4.49,4.49,0,0,1-3.89-2.18L984,628.91q-2.7-4.06-3.29-4.85c-.4-.52-.74-.77-1-.78s-.55.29-.66.88a22.29,22.29,0,0,0-.17,3.29,8.78,8.78,0,0,0,.41,3.17,7.89,7.89,0,0,0,1.88,2.4,4,4,0,0,1,1.06,3,5.1,5.1,0,0,1-3,4.89q-3,1.5-10,1.5-8.21,0-10.66-.82a4.79,4.79,0,0,1-2.38-2,5.61,5.61,0,0,1-1-3.13,4,4,0,0,1,1.73-3.2,9.89,9.89,0,0,0,1.89-1.7,4.94,4.94,0,0,0,.65-1.84,162.3,162.3,0,0,0,.93-21V598.17a30.28,30.28,0,0,0-.46-6.94,2.63,2.63,0,0,0-2.32-1.8c-2.25-.36-3.38-1.47-3.37-3.31a4.56,4.56,0,0,1,1.48-3.32,15.9,15.9,0,0,1,4.86-2.92c7.19-3.11,12.51-4.63,16-4.61A2,2,0,0,1,978.8,577.66Z"/><path class="cls-13" d="M1028.24,576.61a7.9,7.9,0,0,1,6.2,3.18q3.39,4.08,3.36,11.44a42.08,42.08,0,0,1-1.51,10.49,43.34,43.34,0,0,1-3.92,10q-2.77,4.95-4.46,4.95t-4.61-6.42a51.65,51.65,0,0,1-3.47-10.13,42.49,42.49,0,0,1-1.26-9.87,18.21,18.21,0,0,1,2.13-9.15A8,8,0,0,1,1028.24,576.61Zm0,45.33a7.67,7.67,0,0,1,6.1,3.14,10.84,10.84,0,0,1,2.51,7.19,11,11,0,0,1-2.65,7.34,8,8,0,0,1-6.29,3.09,7.88,7.88,0,0,1-6.1-2.83,10.94,10.94,0,0,1-2.72-7.6,10.58,10.58,0,0,1,2.45-7.06A8.28,8.28,0,0,1,1028.26,621.94Z"/><g class="cls-24"><rect class="cls-27" x="463" y="690" width="308" height="123"/><rect class="cls-28" x="463" y="690" width="308" height="123"/></g><path class="cls-29" d="M572,709h32l11.5,23.22L627,709h32l-24,35.17L664,788H630l-14.5-31.54L601,788H568l28.24-43.83Z"/><path d="M742.31,731.53c6.43,0,6.44-10,0-10s-6.45,10,0,10Z"/><path d="M738.09,786.3c6.44,0,6.45-10,0-10s-6.44,10,0,10Z"/><path d="M485.31,723.1c6.44,0,6.45-10,0-10s-6.44,10,0,10Z"/><path d="M483.21,782.08c6.43,0,6.44-10,0-10s-6.45,10,0,10Z"/></svg>
