<svg id="Layer_1" data-name="Layer 1" xmlns="http://www.w3.org/2000/svg" xmlns:xlink="http://www.w3.org/1999/xlink" viewBox="0 0 1587 913"><defs><style>.cls-1{opacity:0.26;}.cls-2{fill:#fbb03b;}.cls-3{fill:#ff9bac;}.cls-4{fill:#fff;}.cls-12,.cls-15,.cls-5,.cls-6,.cls-7{stroke:#000;}.cls-5{stroke-linejoin:round;stroke-width:8px;}.cls-11,.cls-15,.cls-6,.cls-7,.cls-9{fill:none;}.cls-11,.cls-12,.cls-15,.cls-6,.cls-7,.cls-9{stroke-miterlimit:10;}.cls-6{stroke-width:3px;}.cls-8{fill:#f7931e;}.cls-9{stroke:#fbb03b;stroke-width:16px;}.cls-10{filter:url(#AI_BevelShadow_1);}.cls-11{stroke:#c1272d;stroke-width:22.15px;}.cls-12,.cls-14{fill:#a67c52;}.cls-12,.cls-15{stroke-width:4px;}.cls-13{fill:#006837;}.cls-16{fill:#c1272d;}</style><filter id="AI_BevelShadow_1" x="-20" y="-20" width="140" height="140" name="AI_BevelShadow_1"><feGaussianBlur result="blur" stdDeviation="4" in="SourceAlpha"/><feOffset result="offsetBlur" dx="4" dy="4" in="blur"/><feSpecularLighting result="specOut" surfaceScale="5" specularExponent="10" in="blur"><fePointLight x="-5000" y="-10000" z="-20000"/></feSpecularLighting><feComposite result="specOut" operator="in" in="specOut" in2="SourceAlpha"/><feComposite result="litPaint" operator="arithmetic" k2="1" k3="1" in="SourceGraphic" in2="specOut"/><feMerge><feMergeNode in="offsetBlur"/><feMergeNode in="litPaint"/></feMerge></filter></defs><title>levelcomplete</title><ellipse class="cls-1" cx="1446" cy="877.5" rx="141" ry="21.5"/><path class="cls-2" d="M1373.09,598.18c-7.44,5.55-28.55,22.93-29.73,22.21-5.51-3.38-10.59-65-4.62-68.56,8.59-5.14,63.73,15.19,64.8,21.34C1404.21,577,1383.07,590.73,1373.09,598.18Z"/><path class="cls-2" d="M1515.07,596.52c-7-6-28.63-22.82-28.18-24.14,2.09-6.12,61.08-24.57,65.88-19.53,6.9,7.25-.85,65.51-6.62,67.9C1542.57,622.24,1524.54,604.63,1515.07,596.52Z"/><path class="cls-3" d="M1517.56,594.74c-3.94-3.37-16-12.75-15.75-13.48,1.17-3.42,34.13-13.73,36.81-10.92,3.85,4-.48,36.6-3.7,37.94C1532.92,609.11,1522.85,599.27,1517.56,594.74Z"/><path class="cls-3" d="M1371.63,593.5c-4.14,3.13-15.88,12.9-16.55,12.5-3.09-1.87-6.11-36.28-2.78-38.29,4.78-2.9,35.65,8.3,36.27,11.73C1389,581.57,1377.18,589.31,1371.63,593.5Z"/><ellipse class="cls-2" cx="1444" cy="700.5" rx="128" ry="138.5"/><circle class="cls-4" cx="1411" cy="639" r="32"/><circle class="cls-4" cx="1475" cy="639" r="32"/><circle cx="1395.5" cy="629.5" r="7.5"/><circle cx="1492.5" cy="644.5" r="7.5"/><polygon class="cls-5" points="1435 674 1443.5 662.49 1452 674 1435 674"/><path class="cls-6" d="M1462.5,684.5c0,6.9-2.1,12-9,12s-10-5.1-10-12"/><path class="cls-6" d="M1424.5,684.5c0,6.9,2.1,12,9,12s10-5.1,10-12"/><path class="cls-7" d="M1494.83,706.89c20.56-51.48,29.74-53.81,38-50.53s12.33,10.92-8.24,62.4"/><path class="cls-7" d="M1360.74,713.68c-19.48-51.9-14.26-59.8-6-62.91s16.47-.24,36,51.66"/><path class="cls-8" d="M1571.05,716.84c-.79,6.24-1.09,6.59-4.53,5.48-4.3-1.39-27.68-7.94-27-11.48.92-4.44,24.67-3.49,27.81-3C1571.34,708.42,1572.19,707.73,1571.05,716.84Z"/><path class="cls-8" d="M1571.67,691.78c.42,6.28.19,6.67-3.4,6.24-4.48-.54-28.68-2.5-28.64-6.12,0-4.52,23.54-8.14,26.72-8.27C1570.34,683.46,1571.05,682.62,1571.67,691.78Z"/><path class="cls-8" d="M1566.11,742.06c-1.67,6.06-2,6.36-5.27,4.77-4-2-26.26-11.81-25-15.22,1.54-4.25,24.9.08,28,1C1567.6,733.77,1568.54,733.21,1566.11,742.06Z"/><path class="cls-8" d="M1321.93,742c1.66,6.07,2,6.37,5.26,4.78,4.06-2,26.28-11.74,25.06-15.15-1.53-4.26-24.91,0-28,.93C1320.46,733.73,1319.51,733.16,1321.93,742Z"/><path class="cls-8" d="M1317,717.18c.52,6.27.81,6.63,4.29,5.66,4.35-1.2,28-6.77,27.4-10.34-.73-4.47-24.49-4.52-27.66-4.17C1317,708.76,1316.21,708,1317,717.18Z"/><path class="cls-8" d="M1316.46,690.78c-.43,6.28-.19,6.67,3.4,6.24,4.48-.54,28.68-2.5,28.64-6.12,0-4.52-23.54-8.14-26.72-8.27C1317.78,682.46,1317.07,681.62,1316.46,690.78Z"/><path class="cls-8" d="M1474.06,565.9c6.07,1.67,5.65,2.19,5,4.4-1.07,3.7-10,19.76-13.42,18.59-4.28-1.46-1.46-19.41-.74-21.73C1465.82,564.24,1465.21,563.47,1474.06,565.9Z"/><path class="cls-8" d="M1448,562c6.23,0,5.68,2,5.75,2.93.25,3.07-4.42,21.82-8,21.63-4.61-.26-6.49-18.38-6.34-20.95S1438.91,562,1448,562Z"/><path class="cls-8" d="M1418.27,564.83c-6.14,1.37-5.75,1.91-5.22,4.14.88,3.75,9,20.24,12.47,19.24,4.35-1.24,2.43-19.31,1.83-21.67C1426.59,563.59,1427.24,562.85,1418.27,564.83Z"/><rect x="1442" y="678" width="3" height="7"/><rect x="1535.19" y="661.67" width="1" height="11.23" rx="0.5" transform="translate(2126.91 2233.83) rotate(-134.16)"/><rect x="1522.97" y="655.45" width="1" height="10.98" rx="0.5" transform="translate(2753.54 1776.61) rotate(-161.25)"/><rect x="1530.03" y="655.35" width="1" height="14" rx="0.5" transform="translate(2583.87 1955.29) rotate(-152.57)"/><rect x="1363.79" y="651.31" width="1" height="11.23" rx="0.5" transform="translate(2762.65 1237.81) rotate(176.85)"/><rect x="1350.98" y="656.49" width="1" height="10.98" rx="0.5" transform="translate(2852.46 553.36) rotate(149.76)"/><rect x="1356.68" y="650.58" width="1" height="14" rx="0.5" transform="translate(2861.05 770.4) rotate(158.44)"/><rect class="cls-2" x="1402" y="829" width="17" height="40"/><rect class="cls-2" x="1471" y="829" width="17" height="40"/><ellipse class="cls-2" cx="1488.5" cy="871" rx="11.5" ry="18" transform="translate(245.18 2066.17) rotate(-74.2)"/><ellipse class="cls-2" cx="1401.5" cy="871" rx="18" ry="11.5" transform="translate(-184.18 414.43) rotate(-15.8)"/><path class="cls-9" d="M1341.13,779.71c-14.35,10.13-37.76,16.78-56.13,11.29-28.72-8.58-46.47-41.91-30.24-62.17"/><path class="cls-9" d="M1256,666.48c21,12.2,24.09,29.88-1.63,63"/><ellipse class="cls-8" cx="1244.5" cy="669" rx="20.5" ry="14.5"/><g class="cls-10"><rect class="cls-2" x="17.09" y="10.89" width="1272.41" height="747.5" rx="373.75"/><rect class="cls-11" x="17.09" y="10.89" width="1272.41" height="747.5" rx="373.75"/></g><g class="cls-10"><rect class="cls-12" x="509" y="522" width="620" height="127"/><path d="M530.32,555c6.43,0,6.45-10,0-10s-6.44,10,0,10Z"/><path d="M530.32,607.16c6.43,0,6.45-10,0-10s-6.44,10,0,10Z"/><path d="M1088.92,561.12c6.43,0,6.45-10,0-10s-6.44,10,0,10Z"/><path d="M1088.92,613.3c6.43,0,6.45-10,0-10s-6.44,10,0,10Z"/><path class="cls-13" d="M651.66,590.26q7,6.53,13.21,6.52a7.84,7.84,0,0,0,5.44-2,6.45,6.45,0,0,0,2.26-5,6.15,6.15,0,0,0-1.61-4.17,22.33,22.33,0,0,0-6.17-4.1,30.72,30.72,0,0,1-9.73-7,14.35,14.35,0,0,1-3.4-9.81A17.14,17.14,0,0,1,657,552q5.31-5.19,14-5.19A27.9,27.9,0,0,1,683.47,550v14.47q-5.73-5.52-11-5.52a6.92,6.92,0,0,0-4.52,1.56,4.73,4.73,0,0,0-1.91,3.78,5.11,5.11,0,0,0,1.56,3.74,18.76,18.76,0,0,0,5.65,3.39,30.37,30.37,0,0,1,10.34,7q3.52,3.95,3.52,10.64a19.44,19.44,0,0,1-6.06,14.39,20.31,20.31,0,0,1-14.8,6q-6.78,0-14.6-4.09Z"/><path class="cls-13" d="M707,571.62a13.51,13.51,0,0,1,4.2-4.22,9.89,9.89,0,0,1,5.15-1.39q6.55,0,10.47,6.24a27.26,27.26,0,0,1,3.91,14.8,30.25,30.25,0,0,1-2,11.27,20.33,20.33,0,0,1-5.45,8,11.64,11.64,0,0,1-7.85,3,10,10,0,0,1-4.06-.87,13.87,13.87,0,0,1-3.85-2.59v21.8H693.86V567h11.78Zm.52,23.63a6,6,0,0,0,1.74,1.72,3.87,3.87,0,0,0,2.09.59,4.27,4.27,0,0,0,3.87-2.7,16.32,16.32,0,0,0,1.39-7.36,15.89,15.89,0,0,0-1.33-7.27q-1.32-2.54-3.5-2.53a3.46,3.46,0,0,0-3.19,1.85,11.54,11.54,0,0,0-1.07,5.6Z"/><path class="cls-13" d="M744.88,546.76a7.57,7.57,0,0,1,5.13,2,6.79,6.79,0,0,1,2.3,5.31,7,7,0,0,1-2.19,5.21,7.27,7.27,0,0,1-5.24,2.13,7.41,7.41,0,0,1-7.43-7.39,6.94,6.94,0,0,1,2.21-5.17A7.29,7.29,0,0,1,744.88,546.76Zm-7,20.21H751.7v41.41H737.88Z"/><path class="cls-13" d="M761,547.76h13.82v60.62H761Z"/><path class="cls-13" d="M813.93,546.76a7.57,7.57,0,0,1,5.13,2,6.79,6.79,0,0,1,2.3,5.31,7,7,0,0,1-2.19,5.21,7.26,7.26,0,0,1-5.24,2.13,7.12,7.12,0,0,1-5.28-2.19,7.21,7.21,0,0,1-2.15-5.2,6.91,6.91,0,0,1,2.22-5.17A7.25,7.25,0,0,1,813.93,546.76Zm-7,20.21h13.82v41.41H806.93Z"/><path class="cls-13" d="M850.61,603.39a13,13,0,0,1-4,3.73,9.33,9.33,0,0,1-4.78,1.26q-5.82,0-10-6.08a25.09,25.09,0,0,1-4.22-14.64,27.2,27.2,0,0,1,4.26-15q4.26-6.64,10.91-6.65a10.51,10.51,0,0,1,4.69,1.07,12.38,12.38,0,0,1,4,3.24l3.73-3.35h9.22v39.76a23.92,23.92,0,0,1-5.13,15.58q-5.13,6.33-14.56,6.32a31.24,31.24,0,0,1-14.38-3.86V611.12q6.55,5.13,11.43,5.13a8.53,8.53,0,0,0,6.3-2.54,8.74,8.74,0,0,0,2.52-6.41Zm0-23.77A7.14,7.14,0,0,0,848.7,578a4,4,0,0,0-1.91-.52,4.22,4.22,0,0,0-3.79,2.58,14.36,14.36,0,0,0-1.39,6.76,15.14,15.14,0,0,0,1.35,6.89q1.35,2.63,3.52,2.63a3.31,3.31,0,0,0,3.11-2,13.59,13.59,0,0,0,1-6Z"/><path class="cls-13" d="M905.15,604.86q-8,4.49-14.84,4.48-9,0-14.55-6t-5.6-15.47a23.4,23.4,0,0,1,5.29-15.47A17.44,17.44,0,0,1,889.57,566a15.72,15.72,0,0,1,12.53,5.44q4.7,5.43,4.7,14.55v3.44H884.51a11.62,11.62,0,0,0,3.26,6.25,8.57,8.57,0,0,0,6,2.09,10.79,10.79,0,0,0,5.18-1.26,40.43,40.43,0,0,0,6.23-4.52Zm-10.43-22.77V580.7a7.85,7.85,0,0,0-1.49-4.82,4.45,4.45,0,0,0-3.7-2,4.62,4.62,0,0,0-4,2,12,12,0,0,0-1.64,6.17Z"/><path class="cls-13" d="M927.05,571.27a12.51,12.51,0,0,1,4.16-3.95,10.46,10.46,0,0,1,5.2-1.31,10.68,10.68,0,0,1,8.21,3.59,12.73,12.73,0,0,1,3.29,8.93v29.85H934.09v-27q0-3.52-2.61-3.52a3.26,3.26,0,0,0-2.91,1.91,10.94,10.94,0,0,0-1.09,5.34v23.25H913.84V567H925.7Z"/><path class="cls-13" d="M954.86,550.24q9.09-3.48,15.3-3.48a21.71,21.71,0,0,1,13.6,4.39,13.82,13.82,0,0,1,5.74,11.54,12.31,12.31,0,0,1-1.8,6.8,36.61,36.61,0,0,1-6.2,6.75,36.31,36.31,0,0,0-5.89,6.45,11.09,11.09,0,0,0-1.63,6.1v1H962.12V587.4a19.57,19.57,0,0,1,1.57-8.68,30.25,30.25,0,0,1,6.25-7.6,38.86,38.86,0,0,0,4.46-4.79,5.49,5.49,0,0,0,1.06-3.15,4.39,4.39,0,0,0-2.26-3.9,9.18,9.18,0,0,0-5-1.44q-6.17,0-13.3,4.73Zm12.91,44.28a7.51,7.51,0,0,1,5.52,2.17,7.38,7.38,0,1,1-10.34,0A6.81,6.81,0,0,1,967.77,594.52Z"/></g><path class="cls-4" d="M442,74.77a32.34,32.34,0,0,1,11.06-.41,4.14,4.14,0,0,0,1.31,0,14.6,14.6,0,0,0,2.46-1.42,4.51,4.51,0,0,1,1.39-.6c1.83-.43,3.78.75,5.84,3.56a14.68,14.68,0,0,1,3.12,8.67,8.2,8.2,0,0,1-1.35,4.66,5.37,5.37,0,0,1-3.33,2.51,4.08,4.08,0,0,1-2.67-.16,35.42,35.42,0,0,1-4.54-3.35q-5-4-9.7-2.84A6.8,6.8,0,0,0,442,87.48a5.25,5.25,0,0,0-1.35,3.58c0,2.64,2.11,4.11,6.29,4.46a65.42,65.42,0,0,1,10.89,1.6c7,2.27,10.53,7.22,10.58,14.66a24.72,24.72,0,0,1-7.05,17.5c-4.84,5.21-11.18,8.58-19,10.27a50,50,0,0,1-11,1.06c-3.87,0-6.66-.44-8.37-1.26-1.31-.65-2.5-2.46-3.56-5.41a26.77,26.77,0,0,1-1.63-9,6.74,6.74,0,0,1,.8-3.53,4.19,4.19,0,0,1,2.55-2.1,3,3,0,0,1,3,1,44,44,0,0,1,4.07,5.36,8.31,8.31,0,0,0,4.82,3.06,14,14,0,0,0,6.81.12,10.85,10.85,0,0,0,4.9-2.35,4.81,4.81,0,0,0,1.86-3.64A3.27,3.27,0,0,0,445,120a11.25,11.25,0,0,0-4.8-1.37,53.87,53.87,0,0,1-8.93-1.62,20.47,20.47,0,0,1-5.73-2.85A14.86,14.86,0,0,1,419,101.58a22.27,22.27,0,0,1,1.62-8.16,27.63,27.63,0,0,1,4.68-7.8A31.4,31.4,0,0,1,442,74.77Z"/><path class="cls-4" d="M495,81.61q7.2-1.29,12.23,2A9.64,9.64,0,0,1,511,88.15a21.86,21.86,0,0,1,1.1,7.7c0,2.36,0,4.71,0,7.06q0,7.34,1,9.37a2.65,2.65,0,0,0,.88,1.2,4.66,4.66,0,0,0,1.74.27c.89,0,1.33.64,1.34,1.81a9.82,9.82,0,0,1-1.57,5,16.93,16.93,0,0,1-4.1,4.69,13.25,13.25,0,0,1-6.48,3,7,7,0,0,1-6.87-2.35q-.89-1.08-1.62-1a4.61,4.61,0,0,0-2.18,1.52,17.1,17.1,0,0,1-9.34,5q-5.4.92-8.75-1.09a9.26,9.26,0,0,1-3.48-3.85,12.09,12.09,0,0,1-1.32-5.53,14.58,14.58,0,0,1,3.4-9.2c3.57-4.59,8.94-7.6,16.12-8.89a6,6,0,0,0,3-1.06,4,4,0,0,0,.61-2.62c0-3.31-.34-5.66-1-7a2.52,2.52,0,0,0-3-1.69,4,4,0,0,0-2.21,1.24,19.74,19.74,0,0,0-2.39,3.53q-3.63,6.61-7.63,7.37a3.74,3.74,0,0,1-3.3-.71,4.14,4.14,0,0,1-1.3-3.28,9.06,9.06,0,0,1,1.56-4.78A19.28,19.28,0,0,1,479.43,89,34.64,34.64,0,0,1,495,81.61Zm-1.42-23.27q5.58-1.06,9,.59a5.79,5.79,0,0,1,2.5,2.52,8.27,8.27,0,0,1,1,3.94,10.34,10.34,0,0,1-3.17,7.81c-2.13,2.07-5.15,3.44-9.06,4.16-8.29,1.51-12.44-.74-12.48-7a10.42,10.42,0,0,1,3.17-7.75A17.16,17.16,0,0,1,493.57,58.34Zm-1.18,50.91a4.83,4.83,0,0,0-3.14,2.23,7.21,7.21,0,0,0-1.32,4.26,5.54,5.54,0,0,0,1,3.46,2.5,2.5,0,0,0,2.53,1c2.2-.37,3.28-2.66,3.26-6.88a7.78,7.78,0,0,0-.5-3.39A1.64,1.64,0,0,0,492.39,109.25Zm1.25-46.6a4.39,4.39,0,0,0-3,2,7.49,7.49,0,0,0-1.05,4.21,5.09,5.09,0,0,0,1.12,3.47,2.89,2.89,0,0,0,2.84.9,4.55,4.55,0,0,0,3-2.06A7.33,7.33,0,0,0,497.72,67C497.7,63.66,496.34,62.2,493.64,62.65Z"/><path class="cls-4" d="M568,57.85q.07,22,.16,43.93a25.4,25.4,0,0,0,.29,4.79,3.65,3.65,0,0,0,1.53,1.94,7.61,7.61,0,0,1,2,1.95,4.29,4.29,0,0,1,.52,2.18c0,2.57-2.22,4.69-6.68,6.41a46.32,46.32,0,0,1-12.05,2.87c-.89.08-1.46,0-1.73-.29a4.07,4.07,0,0,1-.53-2.13c-.14-1.61-.65-2.38-1.51-2.29-.47.05-1.2.6-2.19,1.66a15.2,15.2,0,0,1-9.41,5,14.08,14.08,0,0,1-11.6-4.1,22.8,22.8,0,0,1-4.93-6.91,25.08,25.08,0,0,1-2.55-10.9,30.24,30.24,0,0,1,3.17-13.36,26.27,26.27,0,0,1,8.08-10,18.3,18.3,0,0,1,8.51-3.69,14.12,14.12,0,0,1,8.66,1.44,2,2,0,0,0,1,.26c.89-.1,1.33-1.52,1.32-4.27a4,4,0,0,0-.74-2.62,5,5,0,0,0-2.61-1.3c-1.75-.43-2.63-1.43-2.64-3,0-2.32,2-4.39,6-6.18,7.1-3.1,11.87-4.72,14.29-5S568,55.22,568,57.85ZM545.47,84.38c-1.8.21-3.23,1.48-4.27,3.8A28.33,28.33,0,0,0,539.14,100q0,6.49,2.08,9.55a4,4,0,0,0,4,1.95q2.7-.28,3.91-4c.8-2.5,1.2-6.43,1.17-11.79q0-7.38-1.5-9.66A3.33,3.33,0,0,0,545.47,84.38Z"/><path class="cls-4" d="M598.69,69.43A17.52,17.52,0,0,1,611,73.09a11.86,11.86,0,0,1,3.75,5.07,24,24,0,0,1,1.07,8q0,3.61-.07,7.22,0,7.52.94,9.72a3.22,3.22,0,0,0,.87,1.33,5.3,5.3,0,0,0,1.76.48c.89.13,1.34.8,1.34,2a9.26,9.26,0,0,1-1.6,4.89,14.94,14.94,0,0,1-4.15,4.35,11.93,11.93,0,0,1-6.55,2.37,7.78,7.78,0,0,1-6.93-3.19c-.58-.81-1.13-1.2-1.63-1.18a4.12,4.12,0,0,0-2.2,1.33,15.21,15.21,0,0,1-9.46,4c-3.64.22-6.58-.48-8.84-2.12a11.26,11.26,0,0,1-3.51-4.4A13.78,13.78,0,0,1,578,98c3.62-4.32,9.07-6.77,16.33-7.22a5.59,5.59,0,0,0,3.05-.73,3.84,3.84,0,0,0,.62-2.63,21.17,21.17,0,0,0-.94-7.37,2.91,2.91,0,0,0-3-2.12,3.45,3.45,0,0,0-2.23,1,16.62,16.62,0,0,0-2.44,3.34c-2.46,4.26-5.05,6.47-7.74,6.67a4.05,4.05,0,0,1-3.34-1.15A4.83,4.83,0,0,1,577,84.24a8.74,8.74,0,0,1,1.59-4.76,16.58,16.58,0,0,1,4.35-4.38A30.6,30.6,0,0,1,598.69,69.43ZM596,97.6a4.23,4.23,0,0,0-3.19,1.92,6.92,6.92,0,0,0-1.35,4.24,6.4,6.4,0,0,0,1,3.69,2.77,2.77,0,0,0,2.55,1.28c2.22-.12,3.33-2.35,3.32-6.71a8.55,8.55,0,0,0-.49-3.55A1.81,1.81,0,0,0,596,97.6Z"/><path class="cls-4" d="M674.09,86.44q.27,8.53.56,17.09a7.84,7.84,0,0,0,.52,2.87,24.07,24.07,0,0,0,2.56,3.62,3.47,3.47,0,0,1,.62,2.2,4.34,4.34,0,0,1-3.3,4.36c-2.2.78-6.12,1.09-11.77,1-3.84-.07-6.55-.48-8.14-1.27a4.13,4.13,0,0,1-2.46-4,3.08,3.08,0,0,1,.25-1.43,21.84,21.84,0,0,1,1.67-2.24q1.67-2,1.68-13.58c0-4.47-.45-7.77-1.34-9.92a4,4,0,0,0-4-2.59,3.89,3.89,0,0,0-3.85,2.07c-.69,1.4-1,3.92-1,7.58v9.61a16.26,16.26,0,0,0,.31,3.93,25.3,25.3,0,0,0,2.07,4.13,4.29,4.29,0,0,1,.46,2c0,1.91-1.14,3.31-3.43,4.22s-5.84,1.38-10.68,1.44c-7.74.1-11.61-1.64-11.61-5.36a3.57,3.57,0,0,1,.35-1.78,8.4,8.4,0,0,1,1.69-1.76,4.24,4.24,0,0,0,1.38-2.15,44.16,44.16,0,0,0,.53-5.85c.19-3.7.29-7.56.28-11.61a13.74,13.74,0,0,0-.44-4.38,7.06,7.06,0,0,0-2.53-2.48,3.77,3.77,0,0,1-1.8-3.16,4.06,4.06,0,0,1,1.46-3.21,26,26,0,0,1,6-3.27q4-1.73,7.73-2.91a20.79,20.79,0,0,1,5.11-1.18,2.6,2.6,0,0,1,2.11,1.06,3.91,3.91,0,0,1,.86,2.52c0,.1,0,.51,0,1.22a5.83,5.83,0,0,0,0,.68c0,1.55.55,2.33,1.67,2.33.67,0,1.38-.62,2.13-1.84a11.3,11.3,0,0,1,10.46-5.93,13.61,13.61,0,0,1,9,3.38,12.64,12.64,0,0,1,3.67,5.47A34.29,34.29,0,0,1,674.09,86.44Z"/><path class="cls-4" d="M692.5,52.13a8.44,8.44,0,0,1,6.31,3.47q3.47,4.27,3.44,11.72a41.08,41.08,0,0,1-1.51,10.52,41.18,41.18,0,0,1-4,9.9q-2.81,4.89-4.52,4.8c-1.11-.05-2.68-2.28-4.71-6.66A55.15,55.15,0,0,1,684,75.55a43,43,0,0,1-1.3-10,17.89,17.89,0,0,1,2.15-9.16A7.86,7.86,0,0,1,692.5,52.13Zm.11,45.75a8.23,8.23,0,0,1,6.21,3.47,11.49,11.49,0,0,1,2.57,7.4,10.57,10.57,0,0,1-2.68,7.28,7.82,7.82,0,0,1-6.39,2.8,8.49,8.49,0,0,1-6.21-3.13,11.36,11.36,0,0,1-2.78-7.76,10.27,10.27,0,0,1,2.47-7A8,8,0,0,1,692.61,97.88Z"/><path class="cls-4" d="M745.91,121.5l-3-.3c-1.75-.17-3.7-.26-5.87-.27-1.36,0-2.3,0-2.83-.07A7.29,7.29,0,0,1,729.7,119a5.29,5.29,0,0,1-1.74-4,3.81,3.81,0,0,1,.78-2.55,4.83,4.83,0,0,1,2.53-1.3,3.09,3.09,0,0,0,2.25-1.36,12.25,12.25,0,0,0,.93-4.11q.34-3.57.66-14T735.47,71a17.91,17.91,0,0,0-.52-5.43,4.93,4.93,0,0,0-2.54-2.42,4.9,4.9,0,0,1-2.86-4.57,3.75,3.75,0,0,1,2-3.48,9.27,9.27,0,0,1,5.53-.73c.77.08,1.69.2,2.75.35,2.33.36,4,.61,5.08.74q6,.7,13.45,1.28c1,.08,2.37.23,3.95.46,6.34.89,11.34,2.49,15,4.72A30.87,30.87,0,0,1,789.6,76.31a45.46,45.46,0,0,1,3.57,18.79,40.37,40.37,0,0,1-1.42,10.44,30.11,30.11,0,0,1-3.74,8.69,21.82,21.82,0,0,1-13.3,9.28,29.42,29.42,0,0,1-10.62.55l-5-.79-4.32-.63Q749.74,121.89,745.91,121.5Zm9-50.82-.18,36.95a7,7,0,0,0,1.1,4.41,5.38,5.38,0,0,0,3.73,1.7c8.08,1,12.15-5.5,12.22-19.55q.06-11.62-2.72-18.44c-2-5-5.56-7.89-10.52-8.56a3.34,3.34,0,0,0-2.81.54A4.14,4.14,0,0,0,754.88,70.68Z"/><path class="cls-4" d="M834.71,114.09q-9.65-2-19.32-3.82c-.86-.16-1.28.18-1.29,1,0,2,.94,4.1,2.87,6.24a11.22,11.22,0,0,0,6.21,3.84,12.68,12.68,0,0,0,4.39,0,11.1,11.1,0,0,0,4-1.31,3.44,3.44,0,0,1,2.23-.66,3.63,3.63,0,0,1,2.08,1.91,6.13,6.13,0,0,1,1,3.24c0,2.21-1.25,4.09-3.73,5.66A20.45,20.45,0,0,1,818,132.88a24.27,24.27,0,0,1-14.46-8.19,28.77,28.77,0,0,1-4.67-7.57,29.2,29.2,0,0,1-2.37-11.58,21.7,21.7,0,0,1,4.3-13.45,17.47,17.47,0,0,1,9.29-6.4,19.13,19.13,0,0,1,9.12-.2,23.6,23.6,0,0,1,13.25,7.81,26.46,26.46,0,0,1,4.39,6.86,19.55,19.55,0,0,1,1.88,8,8.55,8.55,0,0,1-1.14,4.66A2.62,2.62,0,0,1,834.71,114.09Zm-18.2-12.32,4.16.81c1.75.34,2.64-.39,2.65-2.21A7.39,7.39,0,0,0,822.07,96a5.11,5.11,0,0,0-3.32-2.25,3.37,3.37,0,0,0-3.64,1.33,6.06,6.06,0,0,0-1.26,3.63,3,3,0,0,0,.59,2.07A3.58,3.58,0,0,0,816.51,101.77Z"/><path class="cls-4" d="M865.17,108.06l-.09,15.28a9,9,0,0,0,1.17,4.72,4.89,4.89,0,0,0,3.06,2.46,7.54,7.54,0,0,0,4.21-.58,1.91,1.91,0,0,1,1.22-.1,3.13,3.13,0,0,1,1.78,1.75,6.36,6.36,0,0,1,.8,3,5.54,5.54,0,0,1-2.8,4.65q-5.82,4-14,2.17A17.89,17.89,0,0,1,850,135a18.22,18.22,0,0,1-3.89-11.76q.06-10.58.13-21.14a2.57,2.57,0,0,0-.21-1.36,2.11,2.11,0,0,0-1.17-.52c-1.4-.32-2.81-.65-4.22-1a2.38,2.38,0,0,1-1.51-.78,4.49,4.49,0,0,1-.32-2.12l0-2a1.89,1.89,0,0,1,.95-1.81q9.43-4.47,18.82-8.58a3.07,3.07,0,0,1,1.72,0l3.3.88a2.09,2.09,0,0,1,1.36.88,4.67,4.67,0,0,1,.33,2.15c0,2,0,4.07,0,6.11a3.22,3.22,0,0,0,.38,1.86,3,3,0,0,0,1.65.84c2.51.67,5,1.34,7.52,2a3.2,3.2,0,0,1,2,1.15,5.64,5.64,0,0,1,.43,2.7c0,.88,0,1.76,0,2.64a4.83,4.83,0,0,1-.58,2.83c-.39.45-1.08.54-2.08.27-2.46-.66-4.91-1.3-7.37-1.93-.76-.2-1.27-.18-1.55,0A2.23,2.23,0,0,0,865.17,108.06Z"/><path class="cls-4" d="M347.09,234.26q0,6.77,0,13.52c0,6,.11,9.44.28,10.38a2.35,2.35,0,0,0,2,1.83,4.61,4.61,0,0,1,2,.82,2.16,2.16,0,0,1,.5,1.59,4.71,4.71,0,0,1-.93,2.74,6.79,6.79,0,0,1-2.52,2.15,42.26,42.26,0,0,1-9.77,3.06c-5.17,1.15-8.79,1.59-10.87,1.28a4.09,4.09,0,0,1-2.37-1.12,2.93,2.93,0,0,1-.92-2.14,2.64,2.64,0,0,1,.5-1.64,10,10,0,0,1,2.18-1.8q1.56-1.08,1.92-4.3a139.84,139.84,0,0,0,.63-15.45q0-10.08-.57-12.81a4.25,4.25,0,0,0-2.79-3.51,5,5,0,0,1-2.29-1.21,2.86,2.86,0,0,1-.62-2,6.1,6.1,0,0,1,1.87-4.06,27.34,27.34,0,0,1,6-4.54,76.81,76.81,0,0,1,7.14-3.73,50.48,50.48,0,0,1,6.39-2.61c2.11-.59,3.17.5,3.17,3.25q0,1.35-.38,6.3Q347.17,228,347.09,234.26Z"/><path class="cls-4" d="M391.45,236.66l-5.27,17A76.4,76.4,0,0,1,382.23,264a34.77,34.77,0,0,1-4.53,7.16,21.09,21.09,0,0,1-12.64,7.71q-6,1.13-9.71-1.45a6.67,6.67,0,0,1-2.88-5.9,9.58,9.58,0,0,1,2-5.91,8.17,8.17,0,0,1,4.9-3.26,4.93,4.93,0,0,1,4.69,1.08,4.39,4.39,0,0,1,1.13,1.44,24.53,24.53,0,0,1,.86,3.05c.31,1.19,1,1.69,2,1.49a3.24,3.24,0,0,0,2.1-1.57,5.54,5.54,0,0,0,.84-3.06c0-1.35-.72-3.47-2.13-6.33q-4.92-10-9.81-19.84a14.71,14.71,0,0,0-2.31-3.71,8.7,8.7,0,0,0-3.38-1.26,2.11,2.11,0,0,1-1.39-1,3.08,3.08,0,0,1-.59-1.78c0-2.5,2.36-4.82,7.1-6.91a64.58,64.58,0,0,1,10.83-3.56,18.59,18.59,0,0,1,6.74-.64c2.21.32,3.32,1.51,3.33,3.53a5.94,5.94,0,0,1-.92,2.77,5.75,5.75,0,0,0-.87,2.68,5.3,5.3,0,0,0,.43,2.07,34.59,34.59,0,0,0,1.82,3.43c1,1.81,1.94,2.63,2.72,2.47s1.7-1.25,2.58-3.23a13.38,13.38,0,0,0,1.31-5.46,4.22,4.22,0,0,0-1-3.06,4.64,4.64,0,0,1-1.55-3q0-2.22,2.73-4.17a20.06,20.06,0,0,1,7.37-3c5.73-1.25,8.61-.33,8.63,2.68a4.58,4.58,0,0,1-.86,2.81,10.77,10.77,0,0,1-3.18,2.54,8.51,8.51,0,0,0-3.07,3.28A66.21,66.21,0,0,0,391.45,236.66Z"/><path class="cls-4" d="M427.59,193.23l-.27,14.19q0,2.13,0,6.24c0,3,.07,4.82.15,5.35.2,1.2.78,1.71,1.73,1.54s2.06-.94,3.74-2.4,2.52-2.47,2.52-3.05a3.58,3.58,0,0,0-.91-1.65,2.82,2.82,0,0,1-.67-1.7c0-3.26,3.59-5.56,10.85-6.82a24,24,0,0,1,8.94-.21,3.78,3.78,0,0,1,2.18,1.4,4,4,0,0,1,.88,2.53,3.48,3.48,0,0,1-1.75,3.17,16.15,16.15,0,0,1-2.37,1A16,16,0,0,0,448,216q-2.85,2.6-2.85,3.55c0,.43,1.17,2.24,3.5,5.46s4.5,6,6.52,8.41a26.76,26.76,0,0,0,3,3.25,15.2,15.2,0,0,0,3,1.84q3,1.39,3,3.71a5.13,5.13,0,0,1-1.84,4.08,9.43,9.43,0,0,1-5.1,2q-6.63.9-13.27,1.85a4,4,0,0,1-3.9-1.49q-3.44-4.33-6.85-8.62c-1.82-2.25-2.92-3.58-3.32-4s-.73-.6-1-.55-.55.36-.65.92a18.4,18.4,0,0,0-.15,3.1,7.3,7.3,0,0,0,.43,2.89,6.06,6.06,0,0,0,1.89,1.93,3,3,0,0,1,1.08,2.64,5.62,5.62,0,0,1-3,5c-2,1.25-5.33,2.23-9.95,3-5.44.88-9,1.23-10.6,1a3.78,3.78,0,0,1-2.37-1.4,4.07,4.07,0,0,1-1-2.69,4.34,4.34,0,0,1,1.69-3.23,11.72,11.72,0,0,0,1.86-1.89,5.07,5.07,0,0,0,.64-1.8,142.83,142.83,0,0,0,.78-19.4l-.06-9.76c0-3.32-.18-5.42-.5-6.27s-1.09-1.25-2.31-1.17c-2.22.13-3.34-.63-3.35-2.32a5.11,5.11,0,0,1,1.45-3.35,21.13,21.13,0,0,1,4.78-3.71q10.62-6.6,15.77-7.62Q427.67,191,427.59,193.23Z"/><path class="cls-4" d="M489.23,182.86q-.14,7.33-.28,14.69c0,1.47,0,3.63,0,6.46,0,3.15.07,5,.16,5.55q.3,1.89,1.74,1.71,1.23-.17,3.78-2.28c1.69-1.41,2.54-2.42,2.54-3a4,4,0,0,0-.92-1.77,3,3,0,0,1-.67-1.79c0-3.38,3.62-5.55,10.94-6.42a23.74,23.74,0,0,1,9,.3,4,4,0,0,1,2.2,1.57,4.37,4.37,0,0,1,.88,2.65,3.4,3.4,0,0,1-1.76,3.17,15.23,15.23,0,0,1-2.39.87,15.17,15.17,0,0,0-4.69,3.09q-2.88,2.52-2.87,3.51c0,.44,1.17,2.37,3.52,5.82s4.53,6.47,6.56,9a29.74,29.74,0,0,0,3,3.5,16,16,0,0,0,3.05,2q3,1.59,3,4a5.06,5.06,0,0,1-1.86,4.1,9,9,0,0,1-5.13,1.88q-6.69.6-13.37,1.26a4.14,4.14,0,0,1-3.93-1.73q-3.45-4.65-6.9-9.27c-1.83-2.42-2.94-3.85-3.34-4.31s-.74-.66-1-.63-.54.35-.65.92a19.75,19.75,0,0,0-.15,3.21,8.1,8.1,0,0,0,.43,3,6.67,6.67,0,0,0,1.91,2.11,3.37,3.37,0,0,1,1.09,2.78,5.55,5.55,0,0,1-3,5.07c-2,1.19-5.37,2-10,2.59-5.48.64-9,.82-10.69.5a4,4,0,0,1-2.39-1.57,4.59,4.59,0,0,1-1-2.86,4.35,4.35,0,0,1,1.7-3.28,11.45,11.45,0,0,0,1.88-1.86,5,5,0,0,0,.64-1.85,149.86,149.86,0,0,0,.78-20.14c0-3.39,0-6.77-.07-10.16a26.66,26.66,0,0,0-.51-6.55,2.18,2.18,0,0,0-2.33-1.37q-3.37,0-3.39-2.62a5,5,0,0,1,1.46-3.4,19.9,19.9,0,0,1,4.83-3.56q10.73-6.17,15.93-6.9Q489.3,180.55,489.23,182.86Z"/><path class="cls-4" d="M564.36,216.62q-9.74.62-19.46,1.37a1.23,1.23,0,0,0-1.28,1.39,7.42,7.42,0,0,0,2.94,5.63,8.54,8.54,0,0,0,6.29,2.31,13.52,13.52,0,0,0,4.4-1.19,14.66,14.66,0,0,0,4-2.44,4.35,4.35,0,0,1,2.23-1.29c.72-.05,1.43.42,2.12,1.41a5.27,5.27,0,0,1,1,3.11c0,2.31-1.23,4.61-3.7,6.9a24.12,24.12,0,0,1-15.17,6.68,18.84,18.84,0,0,1-14.58-4.73,21.39,21.39,0,0,1-4.75-6.51A25.73,25.73,0,0,1,526,218.17a27.27,27.27,0,0,1,4.14-14.76,26,26,0,0,1,9.23-9.09,21.64,21.64,0,0,1,9.14-2.84,17.4,17.4,0,0,1,13.42,4.16,18.39,18.39,0,0,1,4.5,5.85,17.35,17.35,0,0,1,2,7.76,10.8,10.8,0,0,1-1.1,5.2A3.56,3.56,0,0,1,564.36,216.62ZM545.93,209l4.18-.33c1.77-.13,2.65-1.14,2.64-3a6.18,6.18,0,0,0-1.3-4.12,3.76,3.76,0,0,0-3.36-1.37,4.52,4.52,0,0,0-3.64,2.41,7.78,7.78,0,0,0-1.22,4.07,2.52,2.52,0,0,0,.61,2A2.84,2.84,0,0,0,545.93,209Z"/><path class="cls-4" d="M619.55,173.73q0,22.13.05,44.27a26.34,26.34,0,0,0,.28,4.84,4,4,0,0,0,1.52,2.06,8.12,8.12,0,0,1,2,2.1,4.5,4.5,0,0,1,.52,2.22c0,2.59-2.23,4.59-6.68,6a43.71,43.71,0,0,1-12,2.1,2.28,2.28,0,0,1-1.72-.41,4.28,4.28,0,0,1-.52-2.19c-.14-1.64-.64-2.45-1.5-2.42-.47,0-1.2.52-2.19,1.52a14,14,0,0,1-9.41,4.36q-6.42.25-11.58-5a26,26,0,0,1-4.92-7.41,27.1,27.1,0,0,1-2.52-11.27,29.27,29.27,0,0,1,3.19-13.29,23.51,23.51,0,0,1,8.1-9.42,16.86,16.86,0,0,1,8.51-3,14.74,14.74,0,0,1,8.65,2.14,2.06,2.06,0,0,0,1,.35c.89,0,1.33-1.44,1.32-4.21a4.31,4.31,0,0,0-.73-2.71,5.4,5.4,0,0,0-2.61-1.52,3.29,3.29,0,0,1-2.62-3.27c0-2.35,2-4.28,6-5.77,7.1-2.57,11.86-3.85,14.27-3.92S619.54,171.08,619.55,173.73ZM597,198.82c-1.8.07-3.22,1.25-4.27,3.52a27.91,27.91,0,0,0-2.08,11.78q0,6.57,2.06,9.83a4.24,4.24,0,0,0,3.94,2.26q2.7-.09,3.92-3.79t1.2-11.83q0-7.44-1.48-9.86A3.63,3.63,0,0,0,597,198.82Z"/><path class="cls-4" d="M664.76,214.15Q655,214,645.23,214a1.14,1.14,0,0,0-1.28,1.31,8.14,8.14,0,0,0,2.92,5.95,9.08,9.08,0,0,0,6.3,2.8,12.79,12.79,0,0,0,4.42-.87,13.8,13.8,0,0,0,4-2.17,4,4,0,0,1,2.24-1.14c.72,0,1.43.54,2.12,1.58a5.78,5.78,0,0,1,1,3.22q0,3.49-3.74,6.69A22.61,22.61,0,0,1,648,237.09a19.93,19.93,0,0,1-14.62-5.86,23.88,23.88,0,0,1-4.74-7,28,28,0,0,1-2.46-11.51A26.62,26.62,0,0,1,630.43,198a23.2,23.2,0,0,1,9.31-8.48,20.18,20.18,0,0,1,9.19-2.11,18.76,18.76,0,0,1,13.44,5.33,20.89,20.89,0,0,1,4.48,6.28,18.57,18.57,0,0,1,1.95,8,10.53,10.53,0,0,1-1.13,5.15A3.27,3.27,0,0,1,664.76,214.15ZM646.31,205h4.2c1.77,0,2.66-1,2.66-2.86a6.77,6.77,0,0,0-1.29-4.28,4.23,4.23,0,0,0-7,.48,7.57,7.57,0,0,0-1.25,4,2.78,2.78,0,0,0,.6,2A3,3,0,0,0,646.31,205Z"/><path class="cls-4" d="M688.16,188.13a34.38,34.38,0,0,1,6.77,1.31,8.26,8.26,0,0,0,1.58.26,8.94,8.94,0,0,0,2.74-.76,4,4,0,0,1,1.62-.36c1.28.06,2.56,1.07,3.86,3a23,23,0,0,1,2.56,5.1,14.34,14.34,0,0,1,1,4.73,4.44,4.44,0,0,1-1.18,3.16,3.62,3.62,0,0,1-2.91,1.14,4.47,4.47,0,0,1-2.59-.93,31.32,31.32,0,0,1-3.67-3.78c-1.76-2.07-3.23-3.13-4.39-3.17a2.46,2.46,0,0,0-2,.92,3.41,3.41,0,0,0-.86,2.31c0,1.59,1.3,3.11,3.9,4.6a37.51,37.51,0,0,1,10.73,8.46,14.61,14.61,0,0,1-2,20.12,15.09,15.09,0,0,1-10.67,3.54,52.08,52.08,0,0,1-5.89-.81c-2.68-.43-4.19-.64-4.52-.65a5.8,5.8,0,0,0-1.24.12,12.21,12.21,0,0,1-1.75.15,4.13,4.13,0,0,1-3.06-1.23,17.18,17.18,0,0,1-3.15-5.71A19.49,19.49,0,0,1,671.6,223q0-4.47,3-4.41a3.2,3.2,0,0,1,2.14.94,61,61,0,0,1,4.08,4.87,16.72,16.72,0,0,0,2.82,3,4.12,4.12,0,0,0,2.4.86,2.83,2.83,0,0,0,2.2-.78,3,3,0,0,0,.84-2.23q0-2.18-3.19-4.07-6.67-4-9.64-8.14a15.81,15.81,0,0,1-3-9.47,16.08,16.08,0,0,1,3.05-9.87A13.31,13.31,0,0,1,688.16,188.13Z"/><path class="cls-4" d="M781.82,181.33l-.25,43.16a24.89,24.89,0,0,0,.25,4.75,4.52,4.52,0,0,0,1.49,2.18,9.64,9.64,0,0,1,2,2.28,4.49,4.49,0,0,1,.5,2.22c0,2.52-2.24,4.21-6.67,5.13a43.21,43.21,0,0,1-12,.7,2.46,2.46,0,0,1-1.71-.6,4.38,4.38,0,0,1-.5-2.2c-.13-1.63-.62-2.48-1.48-2.55-.47,0-1.2.37-2.2,1.25a12.62,12.62,0,0,1-9.4,3.24q-6.4-.46-11.52-6.31a29.62,29.62,0,0,1-4.85-7.94A28.88,28.88,0,0,1,733,215.1a27,27,0,0,1,3.28-12.84,19.49,19.49,0,0,1,8.17-8.3,15.31,15.31,0,0,1,8.5-1.86,16.47,16.47,0,0,1,8.6,3.26,2.18,2.18,0,0,0,1,.48c.89.08,1.33-1.24,1.35-4a4.66,4.66,0,0,0-.71-2.76,6.39,6.39,0,0,0-2.58-1.84,3.82,3.82,0,0,1-2.59-3.59c0-2.32,2-3.94,6-4.84,7.07-1.52,11.81-2.09,14.2-1.81S781.83,178.74,781.82,181.33Zm-22.58,21.54c-1.8-.16-3.22.81-4.28,2.91q-2.15,4.22-2.17,11.38,0,6.5,2,10a4.84,4.84,0,0,0,3.92,2.7q2.68.23,3.92-3.27t1.28-11.48c0-4.89-.44-8.18-1.4-9.89A4.19,4.19,0,0,0,759.24,202.87Z"/><path class="cls-4" d="M811.37,201.93q-.09,13.55-.17,27.1a15.92,15.92,0,0,0,.48,4.77,7.27,7.27,0,0,0,2.06,3,8.69,8.69,0,0,1,1.7,1.95,3.94,3.94,0,0,1,.42,1.89c0,4-4.52,5.46-13.5,4.48a42.82,42.82,0,0,1-11.48-2.52,5.35,5.35,0,0,1-2.32-1.88,4.68,4.68,0,0,1-.87-2.78,3.41,3.41,0,0,1,.46-1.93,11.42,11.42,0,0,1,2.33-2,5.54,5.54,0,0,0,1.83-3.34,35.62,35.62,0,0,0,.58-7.23q0-1.56-.15-5.83c-.11-2.85-.19-4.52-.24-5a4.41,4.41,0,0,0-2.29-3.23,4.61,4.61,0,0,1-2.54-4.06c0-2,1.14-3.33,3.37-4a59.06,59.06,0,0,1,9.92-2.21,32.25,32.25,0,0,1,8.16-.32C810.63,198.93,811.38,200,811.37,201.93Zm-8-21.6a10.65,10.65,0,0,1,5.68,2.33,5.8,5.8,0,0,1-1.14,9.63q-5,2.63-12.17,1.72a8.71,8.71,0,0,1-4.78-1.91,6.19,6.19,0,0,1-2.37-5c0-2.7,1.72-4.62,5.12-5.72A21.45,21.45,0,0,1,803.34,180.33Z"/><path class="cls-4" d="M862.13,204.41a2.77,2.77,0,0,1,1.78,1.62,6.38,6.38,0,0,1,.76,3.15,10.68,10.68,0,0,1-3.6,7.33c-.63.49-1,.92-1,1.28,0,.1,0,.46.07,1.11a12.39,12.39,0,0,1,.11,1.74,11.34,11.34,0,0,1-3.32,8.53,16.45,16.45,0,0,1-7.63,3.9,27.1,27.1,0,0,1-10.23.3,21.66,21.66,0,0,1-2.66-.56,12.48,12.48,0,0,0-1.64-.37q-2.18-.31-2.19,2.13a3.24,3.24,0,0,0,1.4,2.67,8.07,8.07,0,0,0,3.83,1.43,34.83,34.83,0,0,0,4.84.18,66.41,66.41,0,0,1,9.91.42,15.18,15.18,0,0,1,7.47,2.93,11.92,11.92,0,0,1,3.35,4.34,12.57,12.57,0,0,1,1.21,5.44,13.39,13.39,0,0,1-3.08,8.41c-2.42,3-6,5-10.64,6.06a38.45,38.45,0,0,1-12.71.28c-6.07-.75-11-2.37-14.76-4.91a14,14,0,0,1-4.16-4.39,10,10,0,0,1-1.53-5.19,6.08,6.08,0,0,1,.9-3.25,4.4,4.4,0,0,1,2.26-1.91c.82-.27,1.23-.62,1.24-1.05s-.34-.88-1-1.62q-3.27-3.51-3.25-6.86a7.46,7.46,0,0,1,1.61-4.4,9.39,9.39,0,0,1,4-3.15c.66-.29,1-.61,1-1a4.24,4.24,0,0,0-1.21-2.12A16.25,16.25,0,0,1,819.06,216a11.29,11.29,0,0,1,1.54-5.74,11.71,11.71,0,0,1,4.2-4.22,21.41,21.41,0,0,1,14.68-2.58,34.24,34.24,0,0,1,7.12,2.1,32.62,32.62,0,0,0,5.11,1.69,11.72,11.72,0,0,0,8.9-2.33A2.37,2.37,0,0,1,862.13,204.41Zm-31.5,46.25c-.68-.09-1,.31-1,1.2a5.81,5.81,0,0,0,2.6,4.74,13.76,13.76,0,0,0,6.79,2.55,13.18,13.18,0,0,0,6.3-.36,3.14,3.14,0,0,0,2.3-3,2.94,2.94,0,0,0-.85-2.06,3.45,3.45,0,0,0-2.13-1.1,13.65,13.65,0,0,0-1.88-.07,30.31,30.31,0,0,1-5.13-.28,35.76,35.76,0,0,1-4-.75,18.25,18.25,0,0,1-2.33-.67A2.68,2.68,0,0,0,830.63,250.66ZM839.85,210a3.31,3.31,0,0,0-3.31,1.22,7,7,0,0,0-1.29,4.46,21,21,0,0,0,1.31,8.17q1.34,3.18,3.54,3.51a3.44,3.44,0,0,0,3.46-1.33,7.79,7.79,0,0,0,1.3-4.78,19.27,19.27,0,0,0-1.28-7.83C842.7,211.5,841.46,210.35,839.85,210Z"/><path class="cls-4" d="M911.05,216.85a23.83,23.83,0,0,1,11.9,6.57,15.38,15.38,0,0,1,3.59,5.48,22,22,0,0,1,1,7.39c0,2.12-.07,4.25-.11,6.37q0,6.66.86,8.82a3.8,3.8,0,0,0,.84,1.39,6.61,6.61,0,0,0,1.69.83,2,2,0,0,1,1.29,2.07,6.23,6.23,0,0,1-1.57,4,10,10,0,0,1-4,2.91,10.77,10.77,0,0,1-6.36.64,10.17,10.17,0,0,1-6.7-4.43c-.57-.86-1.09-1.34-1.58-1.43a3.23,3.23,0,0,0-2.15.67,13,13,0,0,1-9.23,1.5,16.55,16.55,0,0,1-8.6-4,14.54,14.54,0,0,1-3.39-4.88,13.79,13.79,0,0,1-1.23-5.75,9.48,9.48,0,0,1,3.46-7.54q5.35-4.58,15.94-2.44c1.57.32,2.55.36,3,.11s.61-1,.62-2.2a19.7,19.7,0,0,0-.86-6.89,4,4,0,0,0-2.9-2.71,2.83,2.83,0,0,0-2.17.32,10.71,10.71,0,0,0-2.39,2.39q-3.63,4.83-7.58,4.06a5.51,5.51,0,0,1-4.48-5.55,6,6,0,0,1,1.59-3.94,10.6,10.6,0,0,1,4.26-2.84A26.64,26.64,0,0,1,911.05,216.85Zm-2.84,24.68a3.26,3.26,0,0,0-3.11,1,4.76,4.76,0,0,0-1.34,3.5,6.55,6.55,0,0,0,.92,3.58,3.69,3.69,0,0,0,2.47,1.77q3.24.63,3.27-5.25a8.13,8.13,0,0,0-.45-3.33A2.5,2.5,0,0,0,908.21,241.53Z"/><path class="cls-4" d="M958.65,239.69l0,14.06a8,8,0,0,0,1.18,4.36,4.86,4.86,0,0,0,3,2.3,7.81,7.81,0,0,0,4.13-.48,2.05,2.05,0,0,1,1.2-.07,3.09,3.09,0,0,1,1.76,1.63,5.56,5.56,0,0,1,.8,2.78c0,1.7-.91,3.1-2.73,4.23-3.79,2.42-8.39,3.05-13.8,1.85a18,18,0,0,1-10.33-6.07,16.5,16.5,0,0,1-3.88-11l.06-19.59a2.3,2.3,0,0,0-.22-1.26,2.26,2.26,0,0,0-1.14-.52l-4.15-1a2.41,2.41,0,0,1-1.48-.77,3.93,3.93,0,0,1-.32-2c0-.63,0-1.26,0-1.88a1.69,1.69,0,0,1,.93-1.66q9.24-3.87,18.41-7.37a3.29,3.29,0,0,1,1.68.09l3.24.91a2.17,2.17,0,0,1,1.34.86,4.17,4.17,0,0,1,.33,2v5.61a2.86,2.86,0,0,0,.37,1.73,3.17,3.17,0,0,0,1.62.81l7.39,2.06a3.24,3.24,0,0,1,1.91,1.1,5,5,0,0,1,.44,2.48v2.42a4,4,0,0,1-.56,2.57q-.55.62-2,.21l-7.23-1.94c-.75-.19-1.25-.19-1.52,0S958.65,238.92,958.65,239.69Z"/><path class="cls-4" d="M360.87,313.51q-.22,9-.46,18c-.05,2.14.58,3.12,1.88,2.94.64-.09,1.28-.65,1.9-1.67,2.61-4.39,6.1-6.91,10.49-7.51s7.74.35,10.31,2.84a9.27,9.27,0,0,1,2.44,4.15,30.33,30.33,0,0,1,.84,7.3q.23,7.88.44,15.76a7.27,7.27,0,0,0,.53,3,7.62,7.62,0,0,0,2.19,2.19,2.76,2.76,0,0,1,1.2,2.3c0,3.17-4.41,5.14-13.27,6-7.88.75-11.82-.29-11.83-3.18a2.53,2.53,0,0,1,.2-1.14c.13-.27.6-1,1.41-2.21q1.71-2.55,1.66-12c0-3.82-.36-6.57-1.05-8.23a4.18,4.18,0,0,0-4.81-2.95,4.63,4.63,0,0,0-3.64,2.36q-.85,1.47-.84,5.23l0,8.23a53.48,53.48,0,0,0,.51,6.13,8.67,8.67,0,0,0,1.88,2.48,2.82,2.82,0,0,1,.78,2c0,3.23-4,5.23-11.94,6.07-9.32,1-14-.12-14-3.36a3.14,3.14,0,0,1,.44-1.79,14,14,0,0,1,2.19-2.11c1-.88,1.73-3,2.12-6.35a161.66,161.66,0,0,0,.55-16.52,103.45,103.45,0,0,0-.51-12.42,3.85,3.85,0,0,0-.59-1.81,3.63,3.63,0,0,0-1.6-1c-1.67-.62-2.51-1.51-2.51-2.68a4.78,4.78,0,0,1,1.89-3.7,34.27,34.27,0,0,1,7.27-4,49.27,49.27,0,0,1,11.61-4C360.16,311.49,360.92,312.08,360.87,313.51Z"/><path class="cls-4" d="M420.07,319.48a18.83,18.83,0,0,1,19.71,10.24,22.9,22.9,0,0,1,2.61,10.61c.05,6.59-2.63,12.42-8,17.44a28.86,28.86,0,0,1-17.75,8q-9.78.79-15.85-4.68c-3.94-3.53-5.93-8.37-6-14.59a24.7,24.7,0,0,1,7.08-17.83A29,29,0,0,1,420.07,319.48Zm-3.2,10.72A3.85,3.85,0,0,0,414,332a6.79,6.79,0,0,0-1.06,4,38.38,38.38,0,0,0,1,7.21,55.46,55.46,0,0,0,2.24,8q1.29,3.56,4.15,3.3,3.65-.31,3.61-5.4a44.91,44.91,0,0,0-1-8.51,35.07,35.07,0,0,0-2.27-7.59Q419.29,330,416.87,330.2Z"/><path class="cls-4" d="M468.67,324l.09,14.86q.08,9.86.34,11.46a3.12,3.12,0,0,0,2,2.36,5.51,5.51,0,0,1,2,1.26,2.8,2.8,0,0,1,.53,1.82,4.74,4.74,0,0,1-1,2.85,5.59,5.59,0,0,1-2.55,1.92q-3,1.2-10,1.66-7.9.53-11.12-.57A5.2,5.2,0,0,1,446.7,360a4.09,4.09,0,0,1-1-2.56,2.71,2.71,0,0,1,.5-1.72,8,8,0,0,1,2.23-1.59q1.59-.9,1.94-4.41a167,167,0,0,0,.54-17c0-7.45-.27-12.22-.66-14.32a6.18,6.18,0,0,0-2.9-4.48A6.55,6.55,0,0,1,445,312a4,4,0,0,1-.65-2.33,5.6,5.6,0,0,1,1.9-4.11,20.89,20.89,0,0,1,6.12-3.74,60.82,60.82,0,0,1,7.33-2.61,41,41,0,0,1,6.56-1.54q3.24-.31,3.27,4.22,0,1.49-.36,6.85Q468.71,317.11,468.67,324Z"/><path class="cls-4" d="M523.9,296.76q.12,21.66.23,43.34a24.51,24.51,0,0,0,.3,4.73,3.75,3.75,0,0,0,1.51,2,7.82,7.82,0,0,1,2,2,4.26,4.26,0,0,1,.52,2.16q0,3.81-6.59,6.09A43.36,43.36,0,0,1,510,359.36c-.88,0-1.45-.08-1.71-.37a4,4,0,0,1-.53-2.12c-.15-1.59-.64-2.37-1.49-2.33-.47,0-1.19.54-2.18,1.53a14,14,0,0,1-9.3,4.39q-6.37.35-11.5-4.72a24.68,24.68,0,0,1-4.89-7.1,25.51,25.51,0,0,1-2.54-10.85,28.13,28.13,0,0,1,3.12-12.89,23.9,23.9,0,0,1,8-9.3,17.49,17.49,0,0,1,8.42-3.18,14.56,14.56,0,0,1,8.57,1.83,2,2,0,0,0,1,.3c.88-.06,1.31-1.44,1.3-4.14a4.08,4.08,0,0,0-.74-2.61,5.09,5.09,0,0,0-2.58-1.39,3.1,3.1,0,0,1-2.61-3.1q0-3.44,5.93-5.82,10.53-4.15,14.12-4.38T523.9,296.76ZM501.67,322q-2.67.18-4.22,3.53a27.07,27.07,0,0,0-2,11.5c0,4.25.71,7.41,2.07,9.5a4.16,4.16,0,0,0,3.92,2.12c1.78-.1,3.07-1.35,3.87-3.77s1.17-6.27,1.14-11.55c0-4.84-.52-8-1.49-9.57A3.52,3.52,0,0,0,501.67,322Z"/><path class="cls-4" d="M568.92,334.61q-9.69.31-19.38.71a1.17,1.17,0,0,0-1.27,1.34,7.73,7.73,0,0,0,2.93,5.75,8.65,8.65,0,0,0,6.25,2.53,12.86,12.86,0,0,0,4.39-1,13.8,13.8,0,0,0,4-2.31,4.24,4.24,0,0,1,2.23-1.23c.71,0,1.41.47,2.1,1.48a5.47,5.47,0,0,1,1.05,3.14q0,3.47-3.69,6.8A23,23,0,0,1,552.4,358a19.24,19.24,0,0,1-14.53-5.3,22.68,22.68,0,0,1-4.73-6.71,27.3,27.3,0,0,1,1.65-25.81,24.52,24.52,0,0,1,9.19-8.73,21,21,0,0,1,9.11-2.5,17.92,17.92,0,0,1,13.36,4.62,19.41,19.41,0,0,1,4.48,6,17.89,17.89,0,0,1,2,7.83,10.62,10.62,0,0,1-1.1,5.17A3.42,3.42,0,0,1,568.92,334.61Zm-18.35-8.29,4.17-.17c1.76-.08,2.63-1,2.62-2.94a6.38,6.38,0,0,0-1.29-4.17,3.89,3.89,0,0,0-3.35-1.48,4.25,4.25,0,0,0-3.62,2.27,7.54,7.54,0,0,0-1.22,4,2.64,2.64,0,0,0,.61,2A2.93,2.93,0,0,0,550.57,326.32Z"/><path class="cls-4" d="M616,307.26q2.19,0,2.67.69c.32.48.6,2,.85,4.64.14,1.43.57,2.13,1.29,2.12.55,0,1.07-.48,1.57-1.42,2.2-4.07,5.08-6.13,8.63-6.15a7.62,7.62,0,0,1,6.17,2.82,11.47,11.47,0,0,1,1.9,3.61,13.13,13.13,0,0,1,.75,4.24,13.31,13.31,0,0,1-.91,4.69,12.07,12.07,0,0,1-2.35,4,8.47,8.47,0,0,1-6.49,3,6.67,6.67,0,0,1-3.53-.85,18.25,18.25,0,0,1-3.74-3.5,2.26,2.26,0,0,0-1.62-1c-.77,0-1.27.52-1.5,1.54a35.76,35.76,0,0,0-.35,6.43,72.3,72.3,0,0,0,.47,10,4.25,4.25,0,0,0,.81,2,5.68,5.68,0,0,0,2.21,1.12q3.72,1.28,3.72,4.53a5.41,5.41,0,0,1-1.19,3.47,5.72,5.72,0,0,1-3.18,2,53.67,53.67,0,0,1-11.63,1.1q-7.31.09-11.1-1.34a4.66,4.66,0,0,1-3.39-4.63,5.79,5.79,0,0,1,2.46-4.54,6.89,6.89,0,0,0,1.65-1.7,5.46,5.46,0,0,0,.61-2.07,131.28,131.28,0,0,0,.63-16.32,8.66,8.66,0,0,0-.42-3.11,3,3,0,0,0-1.66-1.49q-2.94-1.29-2.94-3.86a5.13,5.13,0,0,1,2-4,23.18,23.18,0,0,1,6.77-3.47A35,35,0,0,1,616,307.26Z"/><path class="cls-4" d="M666.48,306.78a20.6,20.6,0,0,1,13.27,4.77,24.2,24.2,0,0,1,6.55,8.69,27.32,27.32,0,0,1,2.54,11.57,22.8,22.8,0,0,1-8.25,17.75,26.16,26.16,0,0,1-18,6.88q-9.87-.06-16-6.65-5.94-6.41-5.95-16.69,0-11.44,7.27-18.75A24.73,24.73,0,0,1,666.48,306.78ZM663.16,318a3.35,3.35,0,0,0-2.91,1.56,7.17,7.17,0,0,0-1.1,4.19,47.17,47.17,0,0,0,.92,7.94,69.61,69.61,0,0,0,2.21,8.92c.85,2.65,2.24,4,4.16,4,2.45,0,3.68-1.79,3.68-5.45a52.21,52.21,0,0,0-.92-9.27,42.67,42.67,0,0,0-2.24-8.46C666.05,319.18,664.79,318,663.16,318Z"/><path class="cls-4" d="M715.18,320.51l-.06,16.3a8.58,8.58,0,0,0,1.21,4.76,3.71,3.71,0,0,0,3.1,1.91,8.29,8.29,0,0,0,4.26-1.61,2.15,2.15,0,0,1,1.24-.39c.66,0,1.26.5,1.81,1.45a6.09,6.09,0,0,1,.81,3.06,7.85,7.85,0,0,1-2.82,5.64,19.11,19.11,0,0,1-14.21,5.47,14,14,0,0,1-10.58-4.59q-4-4.45-4-11.61l.06-22.35a2.57,2.57,0,0,0-.23-1.39c-.15-.18-.54-.28-1.17-.29l-4.26-.09c-.8,0-1.31-.18-1.53-.49a4.4,4.4,0,0,1-.33-2.16c0-.71,0-1.42,0-2.13a2.54,2.54,0,0,1,1-2.11q9.48-6.78,19-13.43a3.16,3.16,0,0,1,1.74-.38l3.35.11a1.57,1.57,0,0,1,1.38.61,4.71,4.71,0,0,1,.35,2.2q0,3.25,0,6.51a3.07,3.07,0,0,0,.38,1.9,2.36,2.36,0,0,0,1.67.49l7.65.28a2.45,2.45,0,0,1,2,.72,5.72,5.72,0,0,1,.44,2.79c0,.94,0,1.89,0,2.83a6.2,6.2,0,0,1-.59,3.18,2.24,2.24,0,0,1-2.11.81l-7.47-.25a2,2,0,0,0-1.57.43A2.83,2.83,0,0,0,715.18,320.51Z"/><path class="cls-4" d="M754.3,322.08q0,8.06-.08,16.13a8.5,8.5,0,0,0,1.19,4.73,3.83,3.83,0,0,0,3.1,1.95,8.4,8.4,0,0,0,4.25-1.53A2.08,2.08,0,0,1,764,343c.66,0,1.26.52,1.81,1.46a5.94,5.94,0,0,1,.8,3,7.58,7.58,0,0,1-2.82,5.53,19,19,0,0,1-14.2,5.21,14.13,14.13,0,0,1-10.57-4.7q-4-4.47-3.95-11.57l.09-22.18a2.63,2.63,0,0,0-.22-1.38c-.15-.18-.54-.28-1.17-.31l-4.26-.16c-.79,0-1.3-.21-1.52-.52a4.3,4.3,0,0,1-.32-2.15v-2.12a2.49,2.49,0,0,1,1-2.08q9.48-6.54,19-12.94a3.15,3.15,0,0,1,1.73-.33l3.35.18a1.6,1.6,0,0,1,1.38.63,4.72,4.72,0,0,1,.34,2.19l0,6.44a3,3,0,0,0,.38,1.88,2.37,2.37,0,0,0,1.67.52l7.63.43a2.44,2.44,0,0,1,2,.76,5.46,5.46,0,0,1,.44,2.76c0,.93,0,1.87,0,2.8a6,6,0,0,1-.6,3.13,2.21,2.21,0,0,1-2.1.77l-7.46-.4a2,2,0,0,0-1.57.4A2.78,2.78,0,0,0,754.3,322.08Z"/><path class="cls-4" d="M806.29,338.63q-9.64-.64-19.32-1.21a1.07,1.07,0,0,0-1.29,1.2,8.39,8.39,0,0,0,2.87,5.94,9.56,9.56,0,0,0,6.22,3.06,14.64,14.64,0,0,0,8.36-2.51,3.88,3.88,0,0,1,2.23-1c.71.05,1.4.59,2.08,1.63a5.61,5.61,0,0,1,1,3.15c0,2.24-1.26,4.32-3.74,6.27A21.82,21.82,0,0,1,789.59,360a20.7,20.7,0,0,1-14.44-6.47,24.72,24.72,0,0,1-4.66-7.09A27.88,27.88,0,0,1,768.12,335a24.42,24.42,0,0,1,4.28-14.1,20.82,20.82,0,0,1,9.27-7.62,19.77,19.77,0,0,1,9.11-1.41A20.14,20.14,0,0,1,804,317.88a21.93,21.93,0,0,1,4.4,6.32,18,18,0,0,1,1.88,7.79,9.46,9.46,0,0,1-1.14,4.89A3.06,3.06,0,0,1,806.29,338.63Zm-18.2-10,4.15.26c1.76.11,2.64-.75,2.65-2.6a6.71,6.71,0,0,0-1.25-4.22,4.32,4.32,0,0,0-3.32-1.83,3.81,3.81,0,0,0-3.63,1.83,6.91,6.91,0,0,0-1.26,3.84,2.79,2.79,0,0,0,.58,2A3.23,3.23,0,0,0,788.09,328.67Z"/><path class="cls-4" d="M832.29,315.5c1.44.13,2.32.45,2.64.94a14.3,14.3,0,0,1,.81,4.49c.13,1.36.54,2.08,1.26,2.14.54.05,1.07-.35,1.56-1.19,2.22-3.63,5.08-5.26,8.61-4.91a8.61,8.61,0,0,1,6.08,3.31,11.66,11.66,0,0,1,1.86,3.57,12.19,12.19,0,0,1,.71,4,11,11,0,0,1-.92,4.3,9.94,9.94,0,0,1-2.36,3.5,7.91,7.91,0,0,1-6.45,2.21,7.29,7.29,0,0,1-3.5-1.12,20.18,20.18,0,0,1-3.69-3.67,2.57,2.57,0,0,0-1.59-1.1c-.77-.06-1.27.38-1.51,1.32a32.2,32.2,0,0,0-.39,6.07,65.3,65.3,0,0,0,.39,9.52,4.32,4.32,0,0,0,.79,2,6.47,6.47,0,0,0,2.19,1.24c2.45,1,3.67,2.53,3.66,4.58a4.61,4.61,0,0,1-1.21,3.19,5.27,5.27,0,0,1-3.17,1.64,54.37,54.37,0,0,1-11.58.16q-7.26-.45-11-2.11c-2.24-1-3.35-2.58-3.34-4.73a5.08,5.08,0,0,1,2.49-4.17,6.13,6.13,0,0,0,1.66-1.5,4.86,4.86,0,0,0,.63-1.94,122.23,122.23,0,0,0,.75-15.61,8.05,8.05,0,0,0-.39-3,3.41,3.41,0,0,0-1.63-1.6q-2.91-1.51-2.9-4a4.42,4.42,0,0,1,2-3.69,20.88,20.88,0,0,1,6.76-2.62A34,34,0,0,1,832.29,315.5Z"/><path class="cls-4" d="M908,339.81q.24,7.71.49,15.43a6.82,6.82,0,0,0,.5,2.63,23.89,23.89,0,0,0,2.49,3.43,3.17,3.17,0,0,1,.6,2q0,2.88-3.24,3.7c-2.15.56-6,.58-11.52.09-3.75-.34-6.4-.92-8-1.76a4.11,4.11,0,0,1-2.39-3.81,2.61,2.61,0,0,1,.25-1.29,19.34,19.34,0,0,1,1.65-1.91q1.64-1.72,1.7-12.26c0-4.08-.39-7.13-1.25-9.18a4.43,4.43,0,0,0-3.91-2.78c-1.82-.2-3.08.3-3.76,1.51s-1,3.49-1.07,6.85q0,4.42-.05,8.85a14.54,14.54,0,0,0,.28,3.64,25,25,0,0,0,2,4,3.82,3.82,0,0,1,.44,1.87q0,2.63-3.37,3.6t-10.48.4c-7.58-.59-11.37-2.61-11.35-6.09a3.17,3.17,0,0,1,.36-1.63,6.94,6.94,0,0,1,1.67-1.47,3.38,3.38,0,0,0,1.36-1.86,36.8,36.8,0,0,0,.57-5.41q.32-5.13.36-10.79a12.4,12.4,0,0,0-.41-4.13,8,8,0,0,0-2.46-2.62,4,4,0,0,1-1.74-3.17,3.33,3.33,0,0,1,1.45-2.83,23,23,0,0,1,5.91-2.3,75.89,75.89,0,0,1,7.58-1.77,21.06,21.06,0,0,1,5-.49,3,3,0,0,1,2.06,1.23,3.81,3.81,0,0,1,.82,2.42c0,.08,0,.46,0,1.11a5,5,0,0,0,0,.62c0,1.43.53,2.2,1.62,2.32.65.08,1.35-.41,2.09-1.45,2.37-3.42,5.78-4.84,10.23-4.29a15.51,15.51,0,0,1,8.79,4,13.13,13.13,0,0,1,3.56,5.28A31.06,31.06,0,0,1,908,339.81Z"/><path class="cls-4" d="M952.07,352.93q-9.52-1.24-19.07-2.4c-.84-.1-1.26.23-1.27,1q0,2.78,2.85,5.57a10.52,10.52,0,0,0,6.15,3.15,13.37,13.37,0,0,0,4.33-.27,12.36,12.36,0,0,0,3.92-1.44,3.72,3.72,0,0,1,2.19-.74,3.25,3.25,0,0,1,2.07,1.6,5,5,0,0,1,1,2.88c0,2-1.22,3.79-3.66,5.39a22.2,22.2,0,0,1-14.93,3.41,22.58,22.58,0,0,1-14.3-6.7,24.33,24.33,0,0,1-4.62-6.75A24.8,24.8,0,0,1,914.38,347a19.83,19.83,0,0,1,4.21-12.59,18,18,0,0,1,9.13-6.23,20.25,20.25,0,0,1,9-.56,22.72,22.72,0,0,1,13.07,6.5,22.17,22.17,0,0,1,4.36,6,15.71,15.71,0,0,1,1.89,7.11,7.46,7.46,0,0,1-1.1,4.3A2.83,2.83,0,0,1,952.07,352.93Zm-18-10.25,4.1.54c1.73.23,2.6-.49,2.61-2.15a6.16,6.16,0,0,0-1.25-3.91,4.88,4.88,0,0,0-3.28-1.9,3.58,3.58,0,0,0-3.58,1.39,5.56,5.56,0,0,0-1.23,3.38,2.6,2.6,0,0,0,.58,1.88A3.54,3.54,0,0,0,934.08,342.68Z"/><path class="cls-4" d="M588.48,441.41l-10.56,24.36a39,39,0,0,1-4.16,7.84,4.76,4.76,0,0,1-3.68,2.19,3.71,3.71,0,0,1-3.13-1.64,39,39,0,0,1-4.42-7.39q-5.87-12.93-11.76-25.78a11.14,11.14,0,0,0-1.84-3,5.4,5.4,0,0,0-2.45-1.38q-3.13-1-3.14-3.88c0-1.95,1.27-3.38,3.84-4.31s6.63-1.44,12.2-1.51c4.65-.06,8.09.3,10.3,1.06s3.31,2,3.32,3.6a4.79,4.79,0,0,1-1.55,3.33,9.64,9.64,0,0,0-1.27,1.6,2.76,2.76,0,0,0-.28,1.35q0,1.64,1.82,5.43c1.22,2.46,2.34,3.69,3.38,3.68a2,2,0,0,0,1.68-.92,37,37,0,0,0,2.37-4.74,11.65,11.65,0,0,0,1.26-4.26,4.59,4.59,0,0,0-1.32-2.73,5.26,5.26,0,0,1-1.41-3.22c0-1.54.86-2.66,2.6-3.35s4.59-1.06,8.57-1.09q8.39-.08,8.39,4.19,0,2.46-3,3.59a7.76,7.76,0,0,0-3.18,1.91A26.76,26.76,0,0,0,588.48,441.41Z"/><path class="cls-4" d="M656.59,451.67H638.23a1.67,1.67,0,0,0-1.13.27,1.58,1.58,0,0,0-.26,1.09,9.86,9.86,0,0,0,9.11,9.08,12.82,12.82,0,0,0,4.62-1,14.39,14.39,0,0,0,4.17-2.35,4.18,4.18,0,0,1,2.09-1.26c.63,0,1.32.61,2,1.82a6.69,6.69,0,0,1,1.11,3.47,7.43,7.43,0,0,1-1.38,4,16.41,16.41,0,0,1-3.75,4,22.63,22.63,0,0,1-14,4.95,20,20,0,0,1-7.1-1.36,17.67,17.67,0,0,1-6-3.59c-.55-.51-1-.77-1.23-.77a3.75,3.75,0,0,0-1.36.63,37.39,37.39,0,0,1-8,3.61,25.53,25.53,0,0,1-7.63,1.48q-5.78,0-9.23-3.09-4-3.54-4-9.77a14,14,0,0,1,7.53-13,20,20,0,0,1,5.29-2.15,48,48,0,0,1,7.72-.84c.93,0,1.52-.28,1.77-.73A8.23,8.23,0,0,0,619,443a16.81,16.81,0,0,0-1.06-6.61c-.7-1.6-1.65-2.4-2.86-2.39a3.32,3.32,0,0,0-2.32,1,18,18,0,0,0-2.6,3.62,16.84,16.84,0,0,1-3.52,4.59,5.67,5.67,0,0,1-3.66,1.4,4.4,4.4,0,0,1-3.35-1.42,5,5,0,0,1-1.34-3.55,8.78,8.78,0,0,1,2.41-5.84,20.48,20.48,0,0,1,6.94-4.91,27.41,27.41,0,0,1,11.87-2.86,22.43,22.43,0,0,1,5.14.61,18.62,18.62,0,0,1,4.44,1.49,3.25,3.25,0,0,0,1.16.48,4.06,4.06,0,0,0,1.27-.49,19.41,19.41,0,0,1,4.71-1.49,28.43,28.43,0,0,1,5.61-.61,18.6,18.6,0,0,1,12,4.13,20.27,20.27,0,0,1,5.55,6.85,17.8,17.8,0,0,1,1.88,8.11,9.29,9.29,0,0,1-1.15,5,2.93,2.93,0,0,1-1.27,1.22A6.29,6.29,0,0,1,656.59,451.67Zm-39.26,2.07a3.88,3.88,0,0,0-3.18,1.73,7.51,7.51,0,0,0-.29,7.92,2.87,2.87,0,0,0,2.42,1.55c2.16,0,3.24-2.06,3.24-6.16a12.06,12.06,0,0,0-.44-4A1.8,1.8,0,0,0,617.33,453.74Zm21.43-11.05h5.14a2,2,0,0,0,1.58-.51,3.17,3.17,0,0,0,.43-2,6.88,6.88,0,0,0-1.27-4.29,3.92,3.92,0,0,0-3.29-1.67,4.12,4.12,0,0,0-3.49,1.79,7.16,7.16,0,0,0-1.48,4.37,2.58,2.58,0,0,0,.47,1.82A2.82,2.82,0,0,0,638.76,442.69Z"/><path class="cls-4" d="M687.8,410.66q-.21,7.59-.4,15.16c0,1.52,0,3.74-.06,6.68,0,3.26,0,5.18.11,5.77.19,1.32.77,2,1.73,2s2.08-.61,3.78-1.85,2.55-2.15,2.55-2.76a4.79,4.79,0,0,0-.9-1.95,3.62,3.62,0,0,1-.65-1.93q0-5.24,10.95-5.15a24.12,24.12,0,0,1,9,1.43,4.8,4.8,0,0,1,2.18,1.86,5,5,0,0,1,.85,2.8,3.07,3.07,0,0,1-1.78,3,14,14,0,0,1-2.38.61,12.72,12.72,0,0,0-4.69,2.6q-2.89,2.22-2.89,3.24,0,.68,3.45,6.37t6.44,9.89a33.4,33.4,0,0,0,3,3.87,18.57,18.57,0,0,0,3,2.37q3,1.88,2.94,4.29a4.78,4.78,0,0,1-1.88,4A8.19,8.19,0,0,1,717,474.4H703.71a4.49,4.49,0,0,1-3.89-2.18L693,461.91q-2.7-4.07-3.29-4.85c-.4-.52-.74-.77-1-.78s-.55.29-.66.88a22.29,22.29,0,0,0-.17,3.29,8.78,8.78,0,0,0,.41,3.17,7.89,7.89,0,0,0,1.88,2.4,4,4,0,0,1,1.06,3,5.1,5.1,0,0,1-3,4.89q-3,1.5-10,1.5-8.21,0-10.66-.82a4.79,4.79,0,0,1-2.38-2,5.61,5.61,0,0,1-1-3.13,4,4,0,0,1,1.73-3.2,9.89,9.89,0,0,0,1.89-1.7,4.94,4.94,0,0,0,.65-1.84,162.3,162.3,0,0,0,.93-21V431.17a30.28,30.28,0,0,0-.46-6.94,2.63,2.63,0,0,0-2.32-1.8c-2.25-.36-3.38-1.47-3.37-3.31a4.56,4.56,0,0,1,1.48-3.32,15.9,15.9,0,0,1,4.86-2.92c7.19-3.11,12.51-4.63,16-4.61A2,2,0,0,1,687.8,410.66Z"/><path class="cls-4" d="M737.24,409.61a7.9,7.9,0,0,1,6.2,3.18q3.39,4.08,3.36,11.44a42.08,42.08,0,0,1-1.51,10.49,43.34,43.34,0,0,1-3.92,10q-2.77,4.95-4.46,5t-4.61-6.42a51.65,51.65,0,0,1-3.47-10.13,42.49,42.49,0,0,1-1.26-9.87,18.21,18.21,0,0,1,2.13-9.15A8,8,0,0,1,737.24,409.61Zm0,45.33a7.67,7.67,0,0,1,6.1,3.14,10.84,10.84,0,0,1,2.51,7.19,11,11,0,0,1-2.65,7.34,8,8,0,0,1-6.29,3.09,7.88,7.88,0,0,1-6.1-2.83,10.94,10.94,0,0,1-2.72-7.6,10.58,10.58,0,0,1,2.45-7.06A8.28,8.28,0,0,1,737.26,454.94Z"/><g class="cls-10"><rect class="cls-14" x="172" y="523" width="308" height="123"/><rect class="cls-15" x="172" y="523" width="308" height="123"/></g><path class="cls-16" d="M281,542h32l11.5,23.22L336,542h32l-24,35.17L373,621H339l-14.5-31.54L310,621H277l28.24-43.83Z"/><path d="M451.31,564.53c6.43,0,6.44-10,0-10s-6.45,10,0,10Z"/><path d="M447.09,619.3c6.44,0,6.45-10,0-10s-6.44,10,0,10Z"/><path d="M194.31,556.1c6.44,0,6.45-10,0-10s-6.44,10,0,10Z"/><path d="M192.21,615.08c6.43,0,6.44-10,0-10s-6.45,10,0,10Z"/><ellipse class="cls-1" cx="1446" cy="877.5" rx="141" ry="21.5"/><path class="cls-2" d="M1373.09,598.18c-7.44,5.55-28.55,22.93-29.73,22.21-5.51-3.38-10.59-65-4.62-68.56,8.59-5.14,63.73,15.19,64.8,21.34C1404.21,577,1383.07,590.73,1373.09,598.18Z"/><path class="cls-2" d="M1515.07,596.52c-7-6-28.63-22.82-28.18-24.14,2.09-6.12,61.08-24.57,65.88-19.53,6.9,7.25-.85,65.51-6.62,67.9C1542.57,622.24,1524.54,604.63,1515.07,596.52Z"/><path class="cls-3" d="M1517.56,594.74c-3.94-3.37-16-12.75-15.75-13.48,1.17-3.42,34.13-13.73,36.81-10.92,3.85,4-.48,36.6-3.7,37.94C1532.92,609.11,1522.85,599.27,1517.56,594.74Z"/><path class="cls-3" d="M1371.63,593.5c-4.14,3.13-15.88,12.9-16.55,12.5-3.09-1.87-6.11-36.28-2.78-38.29,4.78-2.9,35.65,8.3,36.27,11.73C1389,581.57,1377.18,589.31,1371.63,593.5Z"/><ellipse class="cls-2" cx="1444" cy="700.5" rx="128" ry="138.5"/><circle class="cls-4" cx="1411" cy="639" r="32"/><circle class="cls-4" cx="1475" cy="639" r="32"/><circle cx="1395.5" cy="629.5" r="7.5"/><circle cx="1492.5" cy="644.5" r="7.5"/><polygon class="cls-5" points="1435 674 1443.5 662.49 1452 674 1435 674"/><path class="cls-6" d="M1462.5,684.5c0,6.9-2.1,12-9,12s-10-5.1-10-12"/><path class="cls-6" d="M1424.5,684.5c0,6.9,2.1,12,9,12s10-5.1,10-12"/><path class="cls-7" d="M1494.83,706.89c20.56-51.48,29.74-53.81,38-50.53s12.33,10.92-8.24,62.4"/><path class="cls-7" d="M1360.74,713.68c-19.48-51.9-14.26-59.8-6-62.91s16.47-.24,36,51.66"/><path class="cls-8" d="M1571.05,716.84c-.79,6.24-1.09,6.59-4.53,5.48-4.3-1.39-27.68-7.94-27-11.48.92-4.44,24.67-3.49,27.81-3C1571.34,708.42,1572.19,707.73,1571.05,716.84Z"/><path class="cls-8" d="M1571.67,691.78c.42,6.28.19,6.67-3.4,6.24-4.48-.54-28.68-2.5-28.64-6.12,0-4.52,23.54-8.14,26.72-8.27C1570.34,683.46,1571.05,682.62,1571.67,691.78Z"/><path class="cls-8" d="M1566.11,742.06c-1.67,6.06-2,6.36-5.27,4.77-4-2-26.26-11.81-25-15.22,1.54-4.25,24.9.08,28,1C1567.6,733.77,1568.54,733.21,1566.11,742.06Z"/><path class="cls-8" d="M1321.93,742c1.66,6.07,2,6.37,5.26,4.78,4.06-2,26.28-11.74,25.06-15.15-1.53-4.26-24.91,0-28,.93C1320.46,733.73,1319.51,733.16,1321.93,742Z"/><path class="cls-8" d="M1317,717.18c.52,6.27.81,6.63,4.29,5.66,4.35-1.2,28-6.77,27.4-10.34-.73-4.47-24.49-4.52-27.66-4.17C1317,708.76,1316.21,708,1317,717.18Z"/><path class="cls-8" d="M1316.46,690.78c-.43,6.28-.19,6.67,3.4,6.24,4.48-.54,28.68-2.5,28.64-6.12,0-4.52-23.54-8.14-26.72-8.27C1317.78,682.46,1317.07,681.62,1316.46,690.78Z"/><path class="cls-8" d="M1474.06,565.9c6.07,1.67,5.65,2.19,5,4.4-1.07,3.7-10,19.76-13.42,18.59-4.28-1.46-1.46-19.41-.74-21.73C1465.82,564.24,1465.21,563.47,1474.06,565.9Z"/><path class="cls-8" d="M1448,562c6.23,0,5.68,2,5.75,2.93.25,3.07-4.42,21.82-8,21.63-4.61-.26-6.49-18.38-6.34-20.95S1438.91,562,1448,562Z"/><path class="cls-8" d="M1418.27,564.83c-6.14,1.37-5.75,1.91-5.22,4.14.88,3.75,9,20.24,12.47,19.24,4.35-1.24,2.43-19.31,1.83-21.67C1426.59,563.59,1427.24,562.85,1418.27,564.83Z"/><rect x="1442" y="678" width="3" height="7"/><rect x="1535.19" y="661.67" width="1" height="11.23" rx="0.5" transform="translate(2126.91 2233.83) rotate(-134.16)"/><rect x="1522.97" y="655.45" width="1" height="10.98" rx="0.5" transform="translate(2753.54 1776.61) rotate(-161.25)"/><rect x="1530.03" y="655.35" width="1" height="14" rx="0.5" transform="translate(2583.87 1955.29) rotate(-152.57)"/><rect x="1363.79" y="651.31" width="1" height="11.23" rx="0.5" transform="translate(2762.65 1237.81) rotate(176.85)"/><rect x="1350.98" y="656.49" width="1" height="10.98" rx="0.5" transform="translate(2852.46 553.36) rotate(149.76)"/><rect x="1356.68" y="650.58" width="1" height="14" rx="0.5" transform="translate(2861.05 770.4) rotate(158.44)"/><rect class="cls-2" x="1402" y="829" width="17" height="40"/><rect class="cls-2" x="1471" y="829" width="17" height="40"/><ellipse class="cls-2" cx="1488.5" cy="871" rx="11.5" ry="18" transform="translate(245.18 2066.17) rotate(-74.2)"/><ellipse class="cls-2" cx="1401.5" cy="871" rx="18" ry="11.5" transform="translate(-184.18 414.43) rotate(-15.8)"/><path class="cls-9" d="M1341.13,779.71c-14.35,10.13-37.76,16.78-56.13,11.29-28.72-8.58-46.47-41.91-30.24-62.17"/><path class="cls-9" d="M1256,666.48c21,12.2,24.09,29.88-1.63,63"/><ellipse class="cls-8" cx="1244.5" cy="669" rx="20.5" ry="14.5"/><g class="cls-10"><rect class="cls-2" x="17.09" y="10.89" width="1272.41" height="747.5" rx="373.75"/><rect class="cls-11" x="17.09" y="10.89" width="1272.41" height="747.5" rx="373.75"/></g><path class="cls-4" d="M442,74.77a32.34,32.34,0,0,1,11.06-.41,4.14,4.14,0,0,0,1.31,0,14.6,14.6,0,0,0,2.46-1.42,4.51,4.51,0,0,1,1.39-.6c1.83-.43,3.78.75,5.84,3.56a14.68,14.68,0,0,1,3.12,8.67,8.2,8.2,0,0,1-1.35,4.66,5.37,5.37,0,0,1-3.33,2.51,4.08,4.08,0,0,1-2.67-.16,35.42,35.42,0,0,1-4.54-3.35q-5-4-9.7-2.84A6.8,6.8,0,0,0,442,87.48a5.25,5.25,0,0,0-1.35,3.58c0,2.64,2.11,4.11,6.29,4.46a65.42,65.42,0,0,1,10.89,1.6c7,2.27,10.53,7.22,10.58,14.66a24.72,24.72,0,0,1-7.05,17.5c-4.84,5.21-11.18,8.58-19,10.27a50,50,0,0,1-11,1.06c-3.87,0-6.66-.44-8.37-1.26-1.31-.65-2.5-2.46-3.56-5.41a26.77,26.77,0,0,1-1.63-9,6.74,6.74,0,0,1,.8-3.53,4.19,4.19,0,0,1,2.55-2.1,3,3,0,0,1,3,1,44,44,0,0,1,4.07,5.36,8.31,8.31,0,0,0,4.82,3.06,14,14,0,0,0,6.81.12,10.85,10.85,0,0,0,4.9-2.35,4.81,4.81,0,0,0,1.86-3.64A3.27,3.27,0,0,0,445,120a11.25,11.25,0,0,0-4.8-1.37,53.87,53.87,0,0,1-8.93-1.62,20.47,20.47,0,0,1-5.73-2.85A14.86,14.86,0,0,1,419,101.58a22.27,22.27,0,0,1,1.62-8.16,27.63,27.63,0,0,1,4.68-7.8A31.4,31.4,0,0,1,442,74.77Z"/><path class="cls-4" d="M495,81.61q7.2-1.29,12.23,2A9.64,9.64,0,0,1,511,88.15a21.86,21.86,0,0,1,1.1,7.7c0,2.36,0,4.71,0,7.06q0,7.34,1,9.37a2.65,2.65,0,0,0,.88,1.2,4.66,4.66,0,0,0,1.74.27c.89,0,1.33.64,1.34,1.81a9.82,9.82,0,0,1-1.57,5,16.93,16.93,0,0,1-4.1,4.69,13.25,13.25,0,0,1-6.48,3,7,7,0,0,1-6.87-2.35q-.89-1.08-1.62-1a4.61,4.61,0,0,0-2.18,1.52,17.1,17.1,0,0,1-9.34,5q-5.4.92-8.75-1.09a9.26,9.26,0,0,1-3.48-3.85,12.09,12.09,0,0,1-1.32-5.53,14.58,14.58,0,0,1,3.4-9.2c3.57-4.59,8.94-7.6,16.12-8.89a6,6,0,0,0,3-1.06,4,4,0,0,0,.61-2.62c0-3.31-.34-5.66-1-7a2.52,2.52,0,0,0-3-1.69,4,4,0,0,0-2.21,1.24,19.74,19.74,0,0,0-2.39,3.53q-3.63,6.61-7.63,7.37a3.74,3.74,0,0,1-3.3-.71,4.14,4.14,0,0,1-1.3-3.28,9.06,9.06,0,0,1,1.56-4.78A19.28,19.28,0,0,1,479.43,89,34.64,34.64,0,0,1,495,81.61Zm-1.42-23.27q5.58-1.06,9,.59a5.79,5.79,0,0,1,2.5,2.52,8.27,8.27,0,0,1,1,3.94,10.34,10.34,0,0,1-3.17,7.81c-2.13,2.07-5.15,3.44-9.06,4.16-8.29,1.51-12.44-.74-12.48-7a10.42,10.42,0,0,1,3.17-7.75A17.16,17.16,0,0,1,493.57,58.34Zm-1.18,50.91a4.83,4.83,0,0,0-3.14,2.23,7.21,7.21,0,0,0-1.32,4.26,5.54,5.54,0,0,0,1,3.46,2.5,2.5,0,0,0,2.53,1c2.2-.37,3.28-2.66,3.26-6.88a7.78,7.78,0,0,0-.5-3.39A1.64,1.64,0,0,0,492.39,109.25Zm1.25-46.6a4.39,4.39,0,0,0-3,2,7.49,7.49,0,0,0-1.05,4.21,5.09,5.09,0,0,0,1.12,3.47,2.89,2.89,0,0,0,2.84.9,4.55,4.55,0,0,0,3-2.06A7.33,7.33,0,0,0,497.72,67C497.7,63.66,496.34,62.2,493.64,62.65Z"/><path class="cls-4" d="M568,57.85q.07,22,.16,43.93a25.4,25.4,0,0,0,.29,4.79,3.65,3.65,0,0,0,1.53,1.94,7.61,7.61,0,0,1,2,1.95,4.29,4.29,0,0,1,.52,2.18c0,2.57-2.22,4.69-6.68,6.41a46.32,46.32,0,0,1-12.05,2.87c-.89.08-1.46,0-1.73-.29a4.07,4.07,0,0,1-.53-2.13c-.14-1.61-.65-2.38-1.51-2.29-.47.05-1.2.6-2.19,1.66a15.2,15.2,0,0,1-9.41,5,14.08,14.08,0,0,1-11.6-4.1,22.8,22.8,0,0,1-4.93-6.91,25.08,25.08,0,0,1-2.55-10.9,30.24,30.24,0,0,1,3.17-13.36,26.27,26.27,0,0,1,8.08-10,18.3,18.3,0,0,1,8.51-3.69,14.12,14.12,0,0,1,8.66,1.44,2,2,0,0,0,1,.26c.89-.1,1.33-1.52,1.32-4.27a4,4,0,0,0-.74-2.62,5,5,0,0,0-2.61-1.3c-1.75-.43-2.63-1.43-2.64-3,0-2.32,2-4.39,6-6.18,7.1-3.1,11.87-4.72,14.29-5S568,55.22,568,57.85ZM545.47,84.38c-1.8.21-3.23,1.48-4.27,3.8A28.33,28.33,0,0,0,539.14,100q0,6.49,2.08,9.55a4,4,0,0,0,4,1.95q2.7-.28,3.91-4c.8-2.5,1.2-6.43,1.17-11.79q0-7.38-1.5-9.66A3.33,3.33,0,0,0,545.47,84.38Z"/><path class="cls-4" d="M598.69,69.43A17.52,17.52,0,0,1,611,73.09a11.86,11.86,0,0,1,3.75,5.07,24,24,0,0,1,1.07,8q0,3.61-.07,7.22,0,7.52.94,9.72a3.22,3.22,0,0,0,.87,1.33,5.3,5.3,0,0,0,1.76.48c.89.13,1.34.8,1.34,2a9.26,9.26,0,0,1-1.6,4.89,14.94,14.94,0,0,1-4.15,4.35,11.93,11.93,0,0,1-6.55,2.37,7.78,7.78,0,0,1-6.93-3.19c-.58-.81-1.13-1.2-1.63-1.18a4.12,4.12,0,0,0-2.2,1.33,15.21,15.21,0,0,1-9.46,4c-3.64.22-6.58-.48-8.84-2.12a11.26,11.26,0,0,1-3.51-4.4A13.78,13.78,0,0,1,578,98c3.62-4.32,9.07-6.77,16.33-7.22a5.59,5.59,0,0,0,3.05-.73,3.84,3.84,0,0,0,.62-2.63,21.17,21.17,0,0,0-.94-7.37,2.91,2.91,0,0,0-3-2.12,3.45,3.45,0,0,0-2.23,1,16.62,16.62,0,0,0-2.44,3.34c-2.46,4.26-5.05,6.47-7.74,6.67a4.05,4.05,0,0,1-3.34-1.15A4.83,4.83,0,0,1,577,84.24a8.74,8.74,0,0,1,1.59-4.76,16.58,16.58,0,0,1,4.35-4.38A30.6,30.6,0,0,1,598.69,69.43ZM596,97.6a4.23,4.23,0,0,0-3.19,1.92,6.92,6.92,0,0,0-1.35,4.24,6.4,6.4,0,0,0,1,3.69,2.77,2.77,0,0,0,2.55,1.28c2.22-.12,3.33-2.35,3.32-6.71a8.55,8.55,0,0,0-.49-3.55A1.81,1.81,0,0,0,596,97.6Z"/><path class="cls-4" d="M674.09,86.44q.27,8.53.56,17.09a7.84,7.84,0,0,0,.52,2.87,24.07,24.07,0,0,0,2.56,3.62,3.47,3.47,0,0,1,.62,2.2,4.34,4.34,0,0,1-3.3,4.36c-2.2.78-6.12,1.09-11.77,1-3.84-.07-6.55-.48-8.14-1.27a4.13,4.13,0,0,1-2.46-4,3.08,3.08,0,0,1,.25-1.43,21.84,21.84,0,0,1,1.67-2.24q1.67-2,1.68-13.58c0-4.47-.45-7.77-1.34-9.92a4,4,0,0,0-4-2.59,3.89,3.89,0,0,0-3.85,2.07c-.69,1.4-1,3.92-1,7.58v9.61a16.26,16.26,0,0,0,.31,3.93,25.3,25.3,0,0,0,2.07,4.13,4.29,4.29,0,0,1,.46,2c0,1.91-1.14,3.31-3.43,4.22s-5.84,1.38-10.68,1.44c-7.74.1-11.61-1.64-11.61-5.36a3.57,3.57,0,0,1,.35-1.78,8.4,8.4,0,0,1,1.69-1.76,4.24,4.24,0,0,0,1.38-2.15,44.16,44.16,0,0,0,.53-5.85c.19-3.7.29-7.56.28-11.61a13.74,13.74,0,0,0-.44-4.38,7.06,7.06,0,0,0-2.53-2.48,3.77,3.77,0,0,1-1.8-3.16,4.06,4.06,0,0,1,1.46-3.21,26,26,0,0,1,6-3.27q4-1.73,7.73-2.91a20.79,20.79,0,0,1,5.11-1.18,2.6,2.6,0,0,1,2.11,1.06,3.91,3.91,0,0,1,.86,2.52c0,.1,0,.51,0,1.22a5.83,5.83,0,0,0,0,.68c0,1.55.55,2.33,1.67,2.33.67,0,1.38-.62,2.13-1.84a11.3,11.3,0,0,1,10.46-5.93,13.61,13.61,0,0,1,9,3.38,12.64,12.64,0,0,1,3.67,5.47A34.29,34.29,0,0,1,674.09,86.44Z"/><path class="cls-4" d="M692.5,52.13a8.44,8.44,0,0,1,6.31,3.47q3.47,4.27,3.44,11.72a41.08,41.08,0,0,1-1.51,10.52,41.18,41.18,0,0,1-4,9.9q-2.81,4.89-4.52,4.8c-1.11-.05-2.68-2.28-4.71-6.66A55.15,55.15,0,0,1,684,75.55a43,43,0,0,1-1.3-10,17.89,17.89,0,0,1,2.15-9.16A7.86,7.86,0,0,1,692.5,52.13Zm.11,45.75a8.23,8.23,0,0,1,6.21,3.47,11.49,11.49,0,0,1,2.57,7.4,10.57,10.57,0,0,1-2.68,7.28,7.82,7.82,0,0,1-6.39,2.8,8.49,8.49,0,0,1-6.21-3.13,11.36,11.36,0,0,1-2.78-7.76,10.27,10.27,0,0,1,2.47-7A8,8,0,0,1,692.61,97.88Z"/><path class="cls-4" d="M745.91,121.5l-3-.3c-1.75-.17-3.7-.26-5.87-.27-1.36,0-2.3,0-2.83-.07A7.29,7.29,0,0,1,729.7,119a5.29,5.29,0,0,1-1.74-4,3.81,3.81,0,0,1,.78-2.55,4.83,4.83,0,0,1,2.53-1.3,3.09,3.09,0,0,0,2.25-1.36,12.25,12.25,0,0,0,.93-4.11q.34-3.57.66-14T735.47,71a17.91,17.91,0,0,0-.52-5.43,4.93,4.93,0,0,0-2.54-2.42,4.9,4.9,0,0,1-2.86-4.57,3.75,3.75,0,0,1,2-3.48,9.27,9.27,0,0,1,5.53-.73c.77.08,1.69.2,2.75.35,2.33.36,4,.61,5.08.74q6,.7,13.45,1.28c1,.08,2.37.23,3.95.46,6.34.89,11.34,2.49,15,4.72A30.87,30.87,0,0,1,789.6,76.31a45.46,45.46,0,0,1,3.57,18.79,40.37,40.37,0,0,1-1.42,10.44,30.11,30.11,0,0,1-3.74,8.69,21.82,21.82,0,0,1-13.3,9.28,29.42,29.42,0,0,1-10.62.55l-5-.79-4.32-.63Q749.74,121.89,745.91,121.5Zm9-50.82-.18,36.95a7,7,0,0,0,1.1,4.41,5.38,5.38,0,0,0,3.73,1.7c8.08,1,12.15-5.5,12.22-19.55q.06-11.62-2.72-18.44c-2-5-5.56-7.89-10.52-8.56a3.34,3.34,0,0,0-2.81.54A4.14,4.14,0,0,0,754.88,70.68Z"/><path class="cls-4" d="M834.71,114.09q-9.65-2-19.32-3.82c-.86-.16-1.28.18-1.29,1,0,2,.94,4.1,2.87,6.24a11.22,11.22,0,0,0,6.21,3.84,12.68,12.68,0,0,0,4.39,0,11.1,11.1,0,0,0,4-1.31,3.44,3.44,0,0,1,2.23-.66,3.63,3.63,0,0,1,2.08,1.91,6.13,6.13,0,0,1,1,3.24c0,2.21-1.25,4.09-3.73,5.66A20.45,20.45,0,0,1,818,132.88a24.27,24.27,0,0,1-14.46-8.19,28.77,28.77,0,0,1-4.67-7.57,29.2,29.2,0,0,1-2.37-11.58,21.7,21.7,0,0,1,4.3-13.45,17.47,17.47,0,0,1,9.29-6.4,19.13,19.13,0,0,1,9.12-.2,23.6,23.6,0,0,1,13.25,7.81,26.46,26.46,0,0,1,4.39,6.86,19.55,19.55,0,0,1,1.88,8,8.55,8.55,0,0,1-1.14,4.66A2.62,2.62,0,0,1,834.71,114.09Zm-18.2-12.32,4.16.81c1.75.34,2.64-.39,2.65-2.21A7.39,7.39,0,0,0,822.07,96a5.11,5.11,0,0,0-3.32-2.25,3.37,3.37,0,0,0-3.64,1.33,6.06,6.06,0,0,0-1.26,3.63,3,3,0,0,0,.59,2.07A3.58,3.58,0,0,0,816.51,101.77Z"/><path class="cls-4" d="M865.17,108.06l-.09,15.28a9,9,0,0,0,1.17,4.72,4.89,4.89,0,0,0,3.06,2.46,7.54,7.54,0,0,0,4.21-.58,1.91,1.91,0,0,1,1.22-.1,3.13,3.13,0,0,1,1.78,1.75,6.36,6.36,0,0,1,.8,3,5.54,5.54,0,0,1-2.8,4.65q-5.82,4-14,2.17A17.89,17.89,0,0,1,850,135a18.22,18.22,0,0,1-3.89-11.76q.06-10.58.13-21.14a2.57,2.57,0,0,0-.21-1.36,2.11,2.11,0,0,0-1.17-.52c-1.4-.32-2.81-.65-4.22-1a2.38,2.38,0,0,1-1.51-.78,4.49,4.49,0,0,1-.32-2.12l0-2a1.89,1.89,0,0,1,.95-1.81q9.43-4.47,18.82-8.58a3.07,3.07,0,0,1,1.72,0l3.3.88a2.09,2.09,0,0,1,1.36.88,4.67,4.67,0,0,1,.33,2.15c0,2,0,4.07,0,6.11a3.22,3.22,0,0,0,.38,1.86,3,3,0,0,0,1.65.84c2.51.67,5,1.34,7.52,2a3.2,3.2,0,0,1,2,1.15,5.64,5.64,0,0,1,.43,2.7c0,.88,0,1.76,0,2.64a4.83,4.83,0,0,1-.58,2.83c-.39.45-1.08.54-2.08.27-2.46-.66-4.91-1.3-7.37-1.93-.76-.2-1.27-.18-1.55,0A2.23,2.23,0,0,0,865.17,108.06Z"/><path class="cls-4" d="M347.09,234.26q0,6.77,0,13.52c0,6,.11,9.44.28,10.38a2.35,2.35,0,0,0,2,1.83,4.61,4.61,0,0,1,2,.82,2.16,2.16,0,0,1,.5,1.59,4.71,4.71,0,0,1-.93,2.74,6.79,6.79,0,0,1-2.52,2.15,42.26,42.26,0,0,1-9.77,3.06c-5.17,1.15-8.79,1.59-10.87,1.28a4.09,4.09,0,0,1-2.37-1.12,2.93,2.93,0,0,1-.92-2.14,2.64,2.64,0,0,1,.5-1.64,10,10,0,0,1,2.18-1.8q1.56-1.08,1.92-4.3a139.84,139.84,0,0,0,.63-15.45q0-10.08-.57-12.81a4.25,4.25,0,0,0-2.79-3.51,5,5,0,0,1-2.29-1.21,2.86,2.86,0,0,1-.62-2,6.1,6.1,0,0,1,1.87-4.06,27.34,27.34,0,0,1,6-4.54,76.81,76.81,0,0,1,7.14-3.73,50.48,50.48,0,0,1,6.39-2.61c2.11-.59,3.17.5,3.17,3.25q0,1.35-.38,6.3Q347.17,228,347.09,234.26Z"/><path class="cls-4" d="M391.45,236.66l-5.27,17A76.4,76.4,0,0,1,382.23,264a34.77,34.77,0,0,1-4.53,7.16,21.09,21.09,0,0,1-12.64,7.71q-6,1.13-9.71-1.45a6.67,6.67,0,0,1-2.88-5.9,9.58,9.58,0,0,1,2-5.91,8.17,8.17,0,0,1,4.9-3.26,4.93,4.93,0,0,1,4.69,1.08,4.39,4.39,0,0,1,1.13,1.44,24.53,24.53,0,0,1,.86,3.05c.31,1.19,1,1.69,2,1.49a3.24,3.24,0,0,0,2.1-1.57,5.54,5.54,0,0,0,.84-3.06c0-1.35-.72-3.47-2.13-6.33q-4.92-10-9.81-19.84a14.71,14.71,0,0,0-2.31-3.71,8.7,8.7,0,0,0-3.38-1.26,2.11,2.11,0,0,1-1.39-1,3.08,3.08,0,0,1-.59-1.78c0-2.5,2.36-4.82,7.1-6.91a64.58,64.58,0,0,1,10.83-3.56,18.59,18.59,0,0,1,6.74-.64c2.21.32,3.32,1.51,3.33,3.53a5.94,5.94,0,0,1-.92,2.77,5.75,5.75,0,0,0-.87,2.68,5.3,5.3,0,0,0,.43,2.07,34.59,34.59,0,0,0,1.82,3.43c1,1.81,1.94,2.63,2.72,2.47s1.7-1.25,2.58-3.23a13.38,13.38,0,0,0,1.31-5.46,4.22,4.22,0,0,0-1-3.06,4.64,4.64,0,0,1-1.55-3q0-2.22,2.73-4.17a20.06,20.06,0,0,1,7.37-3c5.73-1.25,8.61-.33,8.63,2.68a4.58,4.58,0,0,1-.86,2.81,10.77,10.77,0,0,1-3.18,2.54,8.51,8.51,0,0,0-3.07,3.28A66.21,66.21,0,0,0,391.45,236.66Z"/><path class="cls-4" d="M427.59,193.23l-.27,14.19q0,2.13,0,6.24c0,3,.07,4.82.15,5.35.2,1.2.78,1.71,1.73,1.54s2.06-.94,3.74-2.4,2.52-2.47,2.52-3.05a3.58,3.58,0,0,0-.91-1.65,2.82,2.82,0,0,1-.67-1.7c0-3.26,3.59-5.56,10.85-6.82a24,24,0,0,1,8.94-.21,3.78,3.78,0,0,1,2.18,1.4,4,4,0,0,1,.88,2.53,3.48,3.48,0,0,1-1.75,3.17,16.15,16.15,0,0,1-2.37,1A16,16,0,0,0,448,216q-2.85,2.6-2.85,3.55c0,.43,1.17,2.24,3.5,5.46s4.5,6,6.52,8.41a26.76,26.76,0,0,0,3,3.25,15.2,15.2,0,0,0,3,1.84q3,1.39,3,3.71a5.13,5.13,0,0,1-1.84,4.08,9.43,9.43,0,0,1-5.1,2q-6.63.9-13.27,1.85a4,4,0,0,1-3.9-1.49q-3.44-4.33-6.85-8.62c-1.82-2.25-2.92-3.58-3.32-4s-.73-.6-1-.55-.55.36-.65.92a18.4,18.4,0,0,0-.15,3.1,7.3,7.3,0,0,0,.43,2.89,6.06,6.06,0,0,0,1.89,1.93,3,3,0,0,1,1.08,2.64,5.62,5.62,0,0,1-3,5c-2,1.25-5.33,2.23-9.95,3-5.44.88-9,1.23-10.6,1a3.78,3.78,0,0,1-2.37-1.4,4.07,4.07,0,0,1-1-2.69,4.34,4.34,0,0,1,1.69-3.23,11.72,11.72,0,0,0,1.86-1.89,5.07,5.07,0,0,0,.64-1.8,142.83,142.83,0,0,0,.78-19.4l-.06-9.76c0-3.32-.18-5.42-.5-6.27s-1.09-1.25-2.31-1.17c-2.22.13-3.34-.63-3.35-2.32a5.11,5.11,0,0,1,1.45-3.35,21.13,21.13,0,0,1,4.78-3.71q10.62-6.6,15.77-7.62Q427.67,191,427.59,193.23Z"/><path class="cls-4" d="M489.23,182.86q-.14,7.33-.28,14.69c0,1.47,0,3.63,0,6.46,0,3.15.07,5,.16,5.55q.3,1.89,1.74,1.71,1.23-.17,3.78-2.28c1.69-1.41,2.54-2.42,2.54-3a4,4,0,0,0-.92-1.77,3,3,0,0,1-.67-1.79c0-3.38,3.62-5.55,10.94-6.42a23.74,23.74,0,0,1,9,.3,4,4,0,0,1,2.2,1.57,4.37,4.37,0,0,1,.88,2.65,3.4,3.4,0,0,1-1.76,3.17,15.23,15.23,0,0,1-2.39.87,15.17,15.17,0,0,0-4.69,3.09q-2.88,2.52-2.87,3.51c0,.44,1.17,2.37,3.52,5.82s4.53,6.47,6.56,9a29.74,29.74,0,0,0,3,3.5,16,16,0,0,0,3.05,2q3,1.59,3,4a5.06,5.06,0,0,1-1.86,4.1,9,9,0,0,1-5.13,1.88q-6.69.6-13.37,1.26a4.14,4.14,0,0,1-3.93-1.73q-3.45-4.65-6.9-9.27c-1.83-2.42-2.94-3.85-3.34-4.31s-.74-.66-1-.63-.54.35-.65.92a19.75,19.75,0,0,0-.15,3.21,8.1,8.1,0,0,0,.43,3,6.67,6.67,0,0,0,1.91,2.11,3.37,3.37,0,0,1,1.09,2.78,5.55,5.55,0,0,1-3,5.07c-2,1.19-5.37,2-10,2.59-5.48.64-9,.82-10.69.5a4,4,0,0,1-2.39-1.57,4.59,4.59,0,0,1-1-2.86,4.35,4.35,0,0,1,1.7-3.28,11.45,11.45,0,0,0,1.88-1.86,5,5,0,0,0,.64-1.85,149.86,149.86,0,0,0,.78-20.14c0-3.39,0-6.77-.07-10.16a26.66,26.66,0,0,0-.51-6.55,2.18,2.18,0,0,0-2.33-1.37q-3.37,0-3.39-2.62a5,5,0,0,1,1.46-3.4,19.9,19.9,0,0,1,4.83-3.56q10.73-6.17,15.93-6.9Q489.3,180.55,489.23,182.86Z"/><path class="cls-4" d="M564.36,216.62q-9.74.62-19.46,1.37a1.23,1.23,0,0,0-1.28,1.39,7.42,7.42,0,0,0,2.94,5.63,8.54,8.54,0,0,0,6.29,2.31,13.52,13.52,0,0,0,4.4-1.19,14.66,14.66,0,0,0,4-2.44,4.35,4.35,0,0,1,2.23-1.29c.72-.05,1.43.42,2.12,1.41a5.27,5.27,0,0,1,1,3.11c0,2.31-1.23,4.61-3.7,6.9a24.12,24.12,0,0,1-15.17,6.68,18.84,18.84,0,0,1-14.58-4.73,21.39,21.39,0,0,1-4.75-6.51A25.73,25.73,0,0,1,526,218.17a27.27,27.27,0,0,1,4.14-14.76,26,26,0,0,1,9.23-9.09,21.64,21.64,0,0,1,9.14-2.84,17.4,17.4,0,0,1,13.42,4.16,18.39,18.39,0,0,1,4.5,5.85,17.35,17.35,0,0,1,2,7.76,10.8,10.8,0,0,1-1.1,5.2A3.56,3.56,0,0,1,564.36,216.62ZM545.93,209l4.18-.33c1.77-.13,2.65-1.14,2.64-3a6.18,6.18,0,0,0-1.3-4.12,3.76,3.76,0,0,0-3.36-1.37,4.52,4.52,0,0,0-3.64,2.41,7.78,7.78,0,0,0-1.22,4.07,2.52,2.52,0,0,0,.61,2A2.84,2.84,0,0,0,545.93,209Z"/><path class="cls-4" d="M619.55,173.73q0,22.13.05,44.27a26.34,26.34,0,0,0,.28,4.84,4,4,0,0,0,1.52,2.06,8.12,8.12,0,0,1,2,2.1,4.5,4.5,0,0,1,.52,2.22c0,2.59-2.23,4.59-6.68,6a43.71,43.71,0,0,1-12,2.1,2.28,2.28,0,0,1-1.72-.41,4.28,4.28,0,0,1-.52-2.19c-.14-1.64-.64-2.45-1.5-2.42-.47,0-1.2.52-2.19,1.52a14,14,0,0,1-9.41,4.36q-6.42.25-11.58-5a26,26,0,0,1-4.92-7.41,27.1,27.1,0,0,1-2.52-11.27,29.27,29.27,0,0,1,3.19-13.29,23.51,23.51,0,0,1,8.1-9.42,16.86,16.86,0,0,1,8.51-3,14.74,14.74,0,0,1,8.65,2.14,2.06,2.06,0,0,0,1,.35c.89,0,1.33-1.44,1.32-4.21a4.31,4.31,0,0,0-.73-2.71,5.4,5.4,0,0,0-2.61-1.52,3.29,3.29,0,0,1-2.62-3.27c0-2.35,2-4.28,6-5.77,7.1-2.57,11.86-3.85,14.27-3.92S619.54,171.08,619.55,173.73ZM597,198.82c-1.8.07-3.22,1.25-4.27,3.52a27.91,27.91,0,0,0-2.08,11.78q0,6.57,2.06,9.83a4.24,4.24,0,0,0,3.94,2.26q2.7-.09,3.92-3.79t1.2-11.83q0-7.44-1.48-9.86A3.63,3.63,0,0,0,597,198.82Z"/><path class="cls-4" d="M664.76,214.15Q655,214,645.23,214a1.14,1.14,0,0,0-1.28,1.31,8.14,8.14,0,0,0,2.92,5.95,9.08,9.08,0,0,0,6.3,2.8,12.79,12.79,0,0,0,4.42-.87,13.8,13.8,0,0,0,4-2.17,4,4,0,0,1,2.24-1.14c.72,0,1.43.54,2.12,1.58a5.78,5.78,0,0,1,1,3.22q0,3.49-3.74,6.69A22.61,22.61,0,0,1,648,237.09a19.93,19.93,0,0,1-14.62-5.86,23.88,23.88,0,0,1-4.74-7,28,28,0,0,1-2.46-11.51A26.62,26.62,0,0,1,630.43,198a23.2,23.2,0,0,1,9.31-8.48,20.18,20.18,0,0,1,9.19-2.11,18.76,18.76,0,0,1,13.44,5.33,20.89,20.89,0,0,1,4.48,6.28,18.57,18.57,0,0,1,1.95,8,10.53,10.53,0,0,1-1.13,5.15A3.27,3.27,0,0,1,664.76,214.15ZM646.31,205h4.2c1.77,0,2.66-1,2.66-2.86a6.77,6.77,0,0,0-1.29-4.28,4.23,4.23,0,0,0-7,.48,7.57,7.57,0,0,0-1.25,4,2.78,2.78,0,0,0,.6,2A3,3,0,0,0,646.31,205Z"/><path class="cls-4" d="M688.16,188.13a34.38,34.38,0,0,1,6.77,1.31,8.26,8.26,0,0,0,1.58.26,8.94,8.94,0,0,0,2.74-.76,4,4,0,0,1,1.62-.36c1.28.06,2.56,1.07,3.86,3a23,23,0,0,1,2.56,5.1,14.34,14.34,0,0,1,1,4.73,4.44,4.44,0,0,1-1.18,3.16,3.62,3.62,0,0,1-2.91,1.14,4.47,4.47,0,0,1-2.59-.93,31.32,31.32,0,0,1-3.67-3.78c-1.76-2.07-3.23-3.13-4.39-3.17a2.46,2.46,0,0,0-2,.92,3.41,3.41,0,0,0-.86,2.31c0,1.59,1.3,3.11,3.9,4.6a37.51,37.51,0,0,1,10.73,8.46,14.61,14.61,0,0,1-2,20.12,15.09,15.09,0,0,1-10.67,3.54,52.08,52.08,0,0,1-5.89-.81c-2.68-.43-4.19-.64-4.52-.65a5.8,5.8,0,0,0-1.24.12,12.21,12.21,0,0,1-1.75.15,4.13,4.13,0,0,1-3.06-1.23,17.18,17.18,0,0,1-3.15-5.71A19.49,19.49,0,0,1,671.6,223q0-4.47,3-4.41a3.2,3.2,0,0,1,2.14.94,61,61,0,0,1,4.08,4.87,16.72,16.72,0,0,0,2.82,3,4.12,4.12,0,0,0,2.4.86,2.83,2.83,0,0,0,2.2-.78,3,3,0,0,0,.84-2.23q0-2.18-3.19-4.07-6.67-4-9.64-8.14a15.81,15.81,0,0,1-3-9.47,16.08,16.08,0,0,1,3.05-9.87A13.31,13.31,0,0,1,688.16,188.13Z"/><path class="cls-4" d="M781.82,181.33l-.25,43.16a24.89,24.89,0,0,0,.25,4.75,4.52,4.52,0,0,0,1.49,2.18,9.64,9.64,0,0,1,2,2.28,4.49,4.49,0,0,1,.5,2.22c0,2.52-2.24,4.21-6.67,5.13a43.21,43.21,0,0,1-12,.7,2.46,2.46,0,0,1-1.71-.6,4.38,4.38,0,0,1-.5-2.2c-.13-1.63-.62-2.48-1.48-2.55-.47,0-1.2.37-2.2,1.25a12.62,12.62,0,0,1-9.4,3.24q-6.4-.46-11.52-6.31a29.62,29.62,0,0,1-4.85-7.94A28.88,28.88,0,0,1,733,215.1a27,27,0,0,1,3.28-12.84,19.49,19.49,0,0,1,8.17-8.3,15.31,15.31,0,0,1,8.5-1.86,16.47,16.47,0,0,1,8.6,3.26,2.18,2.18,0,0,0,1,.48c.89.08,1.33-1.24,1.35-4a4.66,4.66,0,0,0-.71-2.76,6.39,6.39,0,0,0-2.58-1.84,3.82,3.82,0,0,1-2.59-3.59c0-2.32,2-3.94,6-4.84,7.07-1.52,11.81-2.09,14.2-1.81S781.83,178.74,781.82,181.33Zm-22.58,21.54c-1.8-.16-3.22.81-4.28,2.91q-2.15,4.22-2.17,11.38,0,6.5,2,10a4.84,4.84,0,0,0,3.92,2.7q2.68.23,3.92-3.27t1.28-11.48c0-4.89-.44-8.18-1.4-9.89A4.19,4.19,0,0,0,759.24,202.87Z"/><path class="cls-4" d="M811.37,201.93q-.09,13.55-.17,27.1a15.92,15.92,0,0,0,.48,4.77,7.27,7.27,0,0,0,2.06,3,8.69,8.69,0,0,1,1.7,1.95,3.94,3.94,0,0,1,.42,1.89c0,4-4.52,5.46-13.5,4.48a42.82,42.82,0,0,1-11.48-2.52,5.35,5.35,0,0,1-2.32-1.88,4.68,4.68,0,0,1-.87-2.78,3.41,3.41,0,0,1,.46-1.93,11.42,11.42,0,0,1,2.33-2,5.54,5.54,0,0,0,1.83-3.34,35.62,35.62,0,0,0,.58-7.23q0-1.56-.15-5.83c-.11-2.85-.19-4.52-.24-5a4.41,4.41,0,0,0-2.29-3.23,4.61,4.61,0,0,1-2.54-4.06c0-2,1.14-3.33,3.37-4a59.06,59.06,0,0,1,9.92-2.21,32.25,32.25,0,0,1,8.16-.32C810.63,198.93,811.38,200,811.37,201.93Zm-8-21.6a10.65,10.65,0,0,1,5.68,2.33,5.8,5.8,0,0,1-1.14,9.63q-5,2.63-12.17,1.72a8.71,8.71,0,0,1-4.78-1.91,6.19,6.19,0,0,1-2.37-5c0-2.7,1.72-4.62,5.12-5.72A21.45,21.45,0,0,1,803.34,180.33Z"/><path class="cls-4" d="M862.13,204.41a2.77,2.77,0,0,1,1.78,1.62,6.38,6.38,0,0,1,.76,3.15,10.68,10.68,0,0,1-3.6,7.33c-.63.49-1,.92-1,1.28,0,.1,0,.46.07,1.11a12.39,12.39,0,0,1,.11,1.74,11.34,11.34,0,0,1-3.32,8.53,16.45,16.45,0,0,1-7.63,3.9,27.1,27.1,0,0,1-10.23.3,21.66,21.66,0,0,1-2.66-.56,12.48,12.48,0,0,0-1.64-.37q-2.18-.31-2.19,2.13a3.24,3.24,0,0,0,1.4,2.67,8.07,8.07,0,0,0,3.83,1.43,34.83,34.83,0,0,0,4.84.18,66.41,66.41,0,0,1,9.91.42,15.18,15.18,0,0,1,7.47,2.93,11.92,11.92,0,0,1,3.35,4.34,12.57,12.57,0,0,1,1.21,5.44,13.39,13.39,0,0,1-3.08,8.41c-2.42,3-6,5-10.64,6.06a38.45,38.45,0,0,1-12.71.28c-6.07-.75-11-2.37-14.76-4.91a14,14,0,0,1-4.16-4.39,10,10,0,0,1-1.53-5.19,6.08,6.08,0,0,1,.9-3.25,4.4,4.4,0,0,1,2.26-1.91c.82-.27,1.23-.62,1.24-1.05s-.34-.88-1-1.62q-3.27-3.51-3.25-6.86a7.46,7.46,0,0,1,1.61-4.4,9.39,9.39,0,0,1,4-3.15c.66-.29,1-.61,1-1a4.24,4.24,0,0,0-1.21-2.12A16.25,16.25,0,0,1,819.06,216a11.29,11.29,0,0,1,1.54-5.74,11.71,11.71,0,0,1,4.2-4.22,21.41,21.41,0,0,1,14.68-2.58,34.24,34.24,0,0,1,7.12,2.1,32.62,32.62,0,0,0,5.11,1.69,11.72,11.72,0,0,0,8.9-2.33A2.37,2.37,0,0,1,862.13,204.41Zm-31.5,46.25c-.68-.09-1,.31-1,1.2a5.81,5.81,0,0,0,2.6,4.74,13.76,13.76,0,0,0,6.79,2.55,13.18,13.18,0,0,0,6.3-.36,3.14,3.14,0,0,0,2.3-3,2.94,2.94,0,0,0-.85-2.06,3.45,3.45,0,0,0-2.13-1.1,13.65,13.65,0,0,0-1.88-.07,30.31,30.31,0,0,1-5.13-.28,35.76,35.76,0,0,1-4-.75,18.25,18.25,0,0,1-2.33-.67A2.68,2.68,0,0,0,830.63,250.66ZM839.85,210a3.31,3.31,0,0,0-3.31,1.22,7,7,0,0,0-1.29,4.46,21,21,0,0,0,1.31,8.17q1.34,3.18,3.54,3.51a3.44,3.44,0,0,0,3.46-1.33,7.79,7.79,0,0,0,1.3-4.78,19.27,19.27,0,0,0-1.28-7.83C842.7,211.5,841.46,210.35,839.85,210Z"/><path class="cls-4" d="M911.05,216.85a23.83,23.83,0,0,1,11.9,6.57,15.38,15.38,0,0,1,3.59,5.48,22,22,0,0,1,1,7.39c0,2.12-.07,4.25-.11,6.37q0,6.66.86,8.82a3.8,3.8,0,0,0,.84,1.39,6.61,6.61,0,0,0,1.69.83,2,2,0,0,1,1.29,2.07,6.23,6.23,0,0,1-1.57,4,10,10,0,0,1-4,2.91,10.77,10.77,0,0,1-6.36.64,10.17,10.17,0,0,1-6.7-4.43c-.57-.86-1.09-1.34-1.58-1.43a3.23,3.23,0,0,0-2.15.67,13,13,0,0,1-9.23,1.5,16.55,16.55,0,0,1-8.6-4,14.54,14.54,0,0,1-3.39-4.88,13.79,13.79,0,0,1-1.23-5.75,9.48,9.48,0,0,1,3.46-7.54q5.35-4.58,15.94-2.44c1.57.32,2.55.36,3,.11s.61-1,.62-2.2a19.7,19.7,0,0,0-.86-6.89,4,4,0,0,0-2.9-2.71,2.83,2.83,0,0,0-2.17.32,10.71,10.71,0,0,0-2.39,2.39q-3.63,4.83-7.58,4.06a5.51,5.51,0,0,1-4.48-5.55,6,6,0,0,1,1.59-3.94,10.6,10.6,0,0,1,4.26-2.84A26.64,26.64,0,0,1,911.05,216.85Zm-2.84,24.68a3.26,3.26,0,0,0-3.11,1,4.76,4.76,0,0,0-1.34,3.5,6.55,6.55,0,0,0,.92,3.58,3.69,3.69,0,0,0,2.47,1.77q3.24.63,3.27-5.25a8.13,8.13,0,0,0-.45-3.33A2.5,2.5,0,0,0,908.21,241.53Z"/><path class="cls-4" d="M958.65,239.69l0,14.06a8,8,0,0,0,1.18,4.36,4.86,4.86,0,0,0,3,2.3,7.81,7.81,0,0,0,4.13-.48,2.05,2.05,0,0,1,1.2-.07,3.09,3.09,0,0,1,1.76,1.63,5.56,5.56,0,0,1,.8,2.78c0,1.7-.91,3.1-2.73,4.23-3.79,2.42-8.39,3.05-13.8,1.85a18,18,0,0,1-10.33-6.07,16.5,16.5,0,0,1-3.88-11l.06-19.59a2.3,2.3,0,0,0-.22-1.26,2.26,2.26,0,0,0-1.14-.52l-4.15-1a2.41,2.41,0,0,1-1.48-.77,3.93,3.93,0,0,1-.32-2c0-.63,0-1.26,0-1.88a1.69,1.69,0,0,1,.93-1.66q9.24-3.87,18.41-7.37a3.29,3.29,0,0,1,1.68.09l3.24.91a2.17,2.17,0,0,1,1.34.86,4.17,4.17,0,0,1,.33,2v5.61a2.86,2.86,0,0,0,.37,1.73,3.17,3.17,0,0,0,1.62.81l7.39,2.06a3.24,3.24,0,0,1,1.91,1.1,5,5,0,0,1,.44,2.48v2.42a4,4,0,0,1-.56,2.57q-.55.62-2,.21l-7.23-1.94c-.75-.19-1.25-.19-1.52,0S958.65,238.92,958.65,239.69Z"/><path class="cls-4" d="M360.87,313.51q-.22,9-.46,18c-.05,2.14.58,3.12,1.88,2.94.64-.09,1.28-.65,1.9-1.67,2.61-4.39,6.1-6.91,10.49-7.51s7.74.35,10.31,2.84a9.27,9.27,0,0,1,2.44,4.15,30.33,30.33,0,0,1,.84,7.3q.23,7.88.44,15.76a7.27,7.27,0,0,0,.53,3,7.62,7.62,0,0,0,2.19,2.19,2.76,2.76,0,0,1,1.2,2.3c0,3.17-4.41,5.14-13.27,6-7.88.75-11.82-.29-11.83-3.18a2.53,2.53,0,0,1,.2-1.14c.13-.27.6-1,1.41-2.21q1.71-2.55,1.66-12c0-3.82-.36-6.57-1.05-8.23a4.18,4.18,0,0,0-4.81-2.95,4.63,4.63,0,0,0-3.64,2.36q-.85,1.47-.84,5.23l0,8.23a53.48,53.48,0,0,0,.51,6.13,8.67,8.67,0,0,0,1.88,2.48,2.82,2.82,0,0,1,.78,2c0,3.23-4,5.23-11.94,6.07-9.32,1-14-.12-14-3.36a3.14,3.14,0,0,1,.44-1.79,14,14,0,0,1,2.19-2.11c1-.88,1.73-3,2.12-6.35a161.66,161.66,0,0,0,.55-16.52,103.45,103.45,0,0,0-.51-12.42,3.85,3.85,0,0,0-.59-1.81,3.63,3.63,0,0,0-1.6-1c-1.67-.62-2.51-1.51-2.51-2.68a4.78,4.78,0,0,1,1.89-3.7,34.27,34.27,0,0,1,7.27-4,49.27,49.27,0,0,1,11.61-4C360.16,311.49,360.92,312.08,360.87,313.51Z"/><path class="cls-4" d="M420.07,319.48a18.83,18.83,0,0,1,19.71,10.24,22.9,22.9,0,0,1,2.61,10.61c.05,6.59-2.63,12.42-8,17.44a28.86,28.86,0,0,1-17.75,8q-9.78.79-15.85-4.68c-3.94-3.53-5.93-8.37-6-14.59a24.7,24.7,0,0,1,7.08-17.83A29,29,0,0,1,420.07,319.48Zm-3.2,10.72A3.85,3.85,0,0,0,414,332a6.79,6.79,0,0,0-1.06,4,38.38,38.38,0,0,0,1,7.21,55.46,55.46,0,0,0,2.24,8q1.29,3.56,4.15,3.3,3.65-.31,3.61-5.4a44.91,44.91,0,0,0-1-8.51,35.07,35.07,0,0,0-2.27-7.59Q419.29,330,416.87,330.2Z"/><path class="cls-4" d="M468.67,324l.09,14.86q.08,9.86.34,11.46a3.12,3.12,0,0,0,2,2.36,5.51,5.51,0,0,1,2,1.26,2.8,2.8,0,0,1,.53,1.82,4.74,4.74,0,0,1-1,2.85,5.59,5.59,0,0,1-2.55,1.92q-3,1.2-10,1.66-7.9.53-11.12-.57A5.2,5.2,0,0,1,446.7,360a4.09,4.09,0,0,1-1-2.56,2.71,2.71,0,0,1,.5-1.72,8,8,0,0,1,2.23-1.59q1.59-.9,1.94-4.41a167,167,0,0,0,.54-17c0-7.45-.27-12.22-.66-14.32a6.18,6.18,0,0,0-2.9-4.48A6.55,6.55,0,0,1,445,312a4,4,0,0,1-.65-2.33,5.6,5.6,0,0,1,1.9-4.11,20.89,20.89,0,0,1,6.12-3.74,60.82,60.82,0,0,1,7.33-2.61,41,41,0,0,1,6.56-1.54q3.24-.31,3.27,4.22,0,1.49-.36,6.85Q468.71,317.11,468.67,324Z"/><path class="cls-4" d="M523.9,296.76q.12,21.66.23,43.34a24.51,24.51,0,0,0,.3,4.73,3.75,3.75,0,0,0,1.51,2,7.82,7.82,0,0,1,2,2,4.26,4.26,0,0,1,.52,2.16q0,3.81-6.59,6.09A43.36,43.36,0,0,1,510,359.36c-.88,0-1.45-.08-1.71-.37a4,4,0,0,1-.53-2.12c-.15-1.59-.64-2.37-1.49-2.33-.47,0-1.19.54-2.18,1.53a14,14,0,0,1-9.3,4.39q-6.37.35-11.5-4.72a24.68,24.68,0,0,1-4.89-7.1,25.51,25.51,0,0,1-2.54-10.85,28.13,28.13,0,0,1,3.12-12.89,23.9,23.9,0,0,1,8-9.3,17.49,17.49,0,0,1,8.42-3.18,14.56,14.56,0,0,1,8.57,1.83,2,2,0,0,0,1,.3c.88-.06,1.31-1.44,1.3-4.14a4.08,4.08,0,0,0-.74-2.61,5.09,5.09,0,0,0-2.58-1.39,3.1,3.1,0,0,1-2.61-3.1q0-3.44,5.93-5.82,10.53-4.15,14.12-4.38T523.9,296.76ZM501.67,322q-2.67.18-4.22,3.53a27.07,27.07,0,0,0-2,11.5c0,4.25.71,7.41,2.07,9.5a4.16,4.16,0,0,0,3.92,2.12c1.78-.1,3.07-1.35,3.87-3.77s1.17-6.27,1.14-11.55c0-4.84-.52-8-1.49-9.57A3.52,3.52,0,0,0,501.67,322Z"/><path class="cls-4" d="M568.92,334.61q-9.69.31-19.38.71a1.17,1.17,0,0,0-1.27,1.34,7.73,7.73,0,0,0,2.93,5.75,8.65,8.65,0,0,0,6.25,2.53,12.86,12.86,0,0,0,4.39-1,13.8,13.8,0,0,0,4-2.31,4.24,4.24,0,0,1,2.23-1.23c.71,0,1.41.47,2.1,1.48a5.47,5.47,0,0,1,1.05,3.14q0,3.47-3.69,6.8A23,23,0,0,1,552.4,358a19.24,19.24,0,0,1-14.53-5.3,22.68,22.68,0,0,1-4.73-6.71,27.3,27.3,0,0,1,1.65-25.81,24.52,24.52,0,0,1,9.19-8.73,21,21,0,0,1,9.11-2.5,17.92,17.92,0,0,1,13.36,4.62,19.41,19.41,0,0,1,4.48,6,17.89,17.89,0,0,1,2,7.83,10.62,10.62,0,0,1-1.1,5.17A3.42,3.42,0,0,1,568.92,334.61Zm-18.35-8.29,4.17-.17c1.76-.08,2.63-1,2.62-2.94a6.38,6.38,0,0,0-1.29-4.17,3.89,3.89,0,0,0-3.35-1.48,4.25,4.25,0,0,0-3.62,2.27,7.54,7.54,0,0,0-1.22,4,2.64,2.64,0,0,0,.61,2A2.93,2.93,0,0,0,550.57,326.32Z"/><path class="cls-4" d="M616,307.26q2.19,0,2.67.69c.32.48.6,2,.85,4.64.14,1.43.57,2.13,1.29,2.12.55,0,1.07-.48,1.57-1.42,2.2-4.07,5.08-6.13,8.63-6.15a7.62,7.62,0,0,1,6.17,2.82,11.47,11.47,0,0,1,1.9,3.61,13.13,13.13,0,0,1,.75,4.24,13.31,13.31,0,0,1-.91,4.69,12.07,12.07,0,0,1-2.35,4,8.47,8.47,0,0,1-6.49,3,6.67,6.67,0,0,1-3.53-.85,18.25,18.25,0,0,1-3.74-3.5,2.26,2.26,0,0,0-1.62-1c-.77,0-1.27.52-1.5,1.54a35.76,35.76,0,0,0-.35,6.43,72.3,72.3,0,0,0,.47,10,4.25,4.25,0,0,0,.81,2,5.68,5.68,0,0,0,2.21,1.12q3.72,1.28,3.72,4.53a5.41,5.41,0,0,1-1.19,3.47,5.72,5.72,0,0,1-3.18,2,53.67,53.67,0,0,1-11.63,1.1q-7.31.09-11.1-1.34a4.66,4.66,0,0,1-3.39-4.63,5.79,5.79,0,0,1,2.46-4.54,6.89,6.89,0,0,0,1.65-1.7,5.46,5.46,0,0,0,.61-2.07,131.28,131.28,0,0,0,.63-16.32,8.66,8.66,0,0,0-.42-3.11,3,3,0,0,0-1.66-1.49q-2.94-1.29-2.94-3.86a5.13,5.13,0,0,1,2-4,23.18,23.18,0,0,1,6.77-3.47A35,35,0,0,1,616,307.26Z"/><path class="cls-4" d="M666.48,306.78a20.6,20.6,0,0,1,13.27,4.77,24.2,24.2,0,0,1,6.55,8.69,27.32,27.32,0,0,1,2.54,11.57,22.8,22.8,0,0,1-8.25,17.75,26.16,26.16,0,0,1-18,6.88q-9.87-.06-16-6.65-5.94-6.41-5.95-16.69,0-11.44,7.27-18.75A24.73,24.73,0,0,1,666.48,306.78ZM663.16,318a3.35,3.35,0,0,0-2.91,1.56,7.17,7.17,0,0,0-1.1,4.19,47.17,47.17,0,0,0,.92,7.94,69.61,69.61,0,0,0,2.21,8.92c.85,2.65,2.24,4,4.16,4,2.45,0,3.68-1.79,3.68-5.45a52.21,52.21,0,0,0-.92-9.27,42.67,42.67,0,0,0-2.24-8.46C666.05,319.18,664.79,318,663.16,318Z"/><path class="cls-4" d="M715.18,320.51l-.06,16.3a8.58,8.58,0,0,0,1.21,4.76,3.71,3.71,0,0,0,3.1,1.91,8.29,8.29,0,0,0,4.26-1.61,2.15,2.15,0,0,1,1.24-.39c.66,0,1.26.5,1.81,1.45a6.09,6.09,0,0,1,.81,3.06,7.85,7.85,0,0,1-2.82,5.64,19.11,19.11,0,0,1-14.21,5.47,14,14,0,0,1-10.58-4.59q-4-4.45-4-11.61l.06-22.35a2.57,2.57,0,0,0-.23-1.39c-.15-.18-.54-.28-1.17-.29l-4.26-.09c-.8,0-1.31-.18-1.53-.49a4.4,4.4,0,0,1-.33-2.16c0-.71,0-1.42,0-2.13a2.54,2.54,0,0,1,1-2.11q9.48-6.78,19-13.43a3.16,3.16,0,0,1,1.74-.38l3.35.11a1.57,1.57,0,0,1,1.38.61,4.71,4.71,0,0,1,.35,2.2q0,3.25,0,6.51a3.07,3.07,0,0,0,.38,1.9,2.36,2.36,0,0,0,1.67.49l7.65.28a2.45,2.45,0,0,1,2,.72,5.72,5.72,0,0,1,.44,2.79c0,.94,0,1.89,0,2.83a6.2,6.2,0,0,1-.59,3.18,2.24,2.24,0,0,1-2.11.81l-7.47-.25a2,2,0,0,0-1.57.43A2.83,2.83,0,0,0,715.18,320.51Z"/><path class="cls-4" d="M754.3,322.08q0,8.06-.08,16.13a8.5,8.5,0,0,0,1.19,4.73,3.83,3.83,0,0,0,3.1,1.95,8.4,8.4,0,0,0,4.25-1.53A2.08,2.08,0,0,1,764,343c.66,0,1.26.52,1.81,1.46a5.94,5.94,0,0,1,.8,3,7.58,7.58,0,0,1-2.82,5.53,19,19,0,0,1-14.2,5.21,14.13,14.13,0,0,1-10.57-4.7q-4-4.47-3.95-11.57l.09-22.18a2.63,2.63,0,0,0-.22-1.38c-.15-.18-.54-.28-1.17-.31l-4.26-.16c-.79,0-1.3-.21-1.52-.52a4.3,4.3,0,0,1-.32-2.15v-2.12a2.49,2.49,0,0,1,1-2.08q9.48-6.54,19-12.94a3.15,3.15,0,0,1,1.73-.33l3.35.18a1.6,1.6,0,0,1,1.38.63,4.72,4.72,0,0,1,.34,2.19l0,6.44a3,3,0,0,0,.38,1.88,2.37,2.37,0,0,0,1.67.52l7.63.43a2.44,2.44,0,0,1,2,.76,5.46,5.46,0,0,1,.44,2.76c0,.93,0,1.87,0,2.8a6,6,0,0,1-.6,3.13,2.21,2.21,0,0,1-2.1.77l-7.46-.4a2,2,0,0,0-1.57.4A2.78,2.78,0,0,0,754.3,322.08Z"/><path class="cls-4" d="M806.29,338.63q-9.64-.64-19.32-1.21a1.07,1.07,0,0,0-1.29,1.2,8.39,8.39,0,0,0,2.87,5.94,9.56,9.56,0,0,0,6.22,3.06,14.64,14.64,0,0,0,8.36-2.51,3.88,3.88,0,0,1,2.23-1c.71.05,1.4.59,2.08,1.63a5.61,5.61,0,0,1,1,3.15c0,2.24-1.26,4.32-3.74,6.27A21.82,21.82,0,0,1,789.59,360a20.7,20.7,0,0,1-14.44-6.47,24.72,24.72,0,0,1-4.66-7.09A27.88,27.88,0,0,1,768.12,335a24.42,24.42,0,0,1,4.28-14.1,20.82,20.82,0,0,1,9.27-7.62,19.77,19.77,0,0,1,9.11-1.41A20.14,20.14,0,0,1,804,317.88a21.93,21.93,0,0,1,4.4,6.32,18,18,0,0,1,1.88,7.79,9.46,9.46,0,0,1-1.14,4.89A3.06,3.06,0,0,1,806.29,338.63Zm-18.2-10,4.15.26c1.76.11,2.64-.75,2.65-2.6a6.71,6.71,0,0,0-1.25-4.22,4.32,4.32,0,0,0-3.32-1.83,3.81,3.81,0,0,0-3.63,1.83,6.91,6.91,0,0,0-1.26,3.84,2.79,2.79,0,0,0,.58,2A3.23,3.23,0,0,0,788.09,328.67Z"/><path class="cls-4" d="M832.29,315.5c1.44.13,2.32.45,2.64.94a14.3,14.3,0,0,1,.81,4.49c.13,1.36.54,2.08,1.26,2.14.54.05,1.07-.35,1.56-1.19,2.22-3.63,5.08-5.26,8.61-4.91a8.61,8.61,0,0,1,6.08,3.31,11.66,11.66,0,0,1,1.86,3.57,12.19,12.19,0,0,1,.71,4,11,11,0,0,1-.92,4.3,9.94,9.94,0,0,1-2.36,3.5,7.91,7.91,0,0,1-6.45,2.21,7.29,7.29,0,0,1-3.5-1.12,20.18,20.18,0,0,1-3.69-3.67,2.57,2.57,0,0,0-1.59-1.1c-.77-.06-1.27.38-1.51,1.32a32.2,32.2,0,0,0-.39,6.07,65.3,65.3,0,0,0,.39,9.52,4.32,4.32,0,0,0,.79,2,6.47,6.47,0,0,0,2.19,1.24c2.45,1,3.67,2.53,3.66,4.58a4.61,4.61,0,0,1-1.21,3.19,5.27,5.27,0,0,1-3.17,1.64,54.37,54.37,0,0,1-11.58.16q-7.26-.45-11-2.11c-2.24-1-3.35-2.58-3.34-4.73a5.08,5.08,0,0,1,2.49-4.17,6.13,6.13,0,0,0,1.66-1.5,4.86,4.86,0,0,0,.63-1.94,122.23,122.23,0,0,0,.75-15.61,8.05,8.05,0,0,0-.39-3,3.41,3.41,0,0,0-1.63-1.6q-2.91-1.51-2.9-4a4.42,4.42,0,0,1,2-3.69,20.88,20.88,0,0,1,6.76-2.62A34,34,0,0,1,832.29,315.5Z"/><path class="cls-4" d="M908,339.81q.24,7.71.49,15.43a6.82,6.82,0,0,0,.5,2.63,23.89,23.89,0,0,0,2.49,3.43,3.17,3.17,0,0,1,.6,2q0,2.88-3.24,3.7c-2.15.56-6,.58-11.52.09-3.75-.34-6.4-.92-8-1.76a4.11,4.11,0,0,1-2.39-3.81,2.61,2.61,0,0,1,.25-1.29,19.34,19.34,0,0,1,1.65-1.91q1.64-1.72,1.7-12.26c0-4.08-.39-7.13-1.25-9.18a4.43,4.43,0,0,0-3.91-2.78c-1.82-.2-3.08.3-3.76,1.51s-1,3.49-1.07,6.85q0,4.42-.05,8.85a14.54,14.54,0,0,0,.28,3.64,25,25,0,0,0,2,4,3.82,3.82,0,0,1,.44,1.87q0,2.63-3.37,3.6t-10.48.4c-7.58-.59-11.37-2.61-11.35-6.09a3.17,3.17,0,0,1,.36-1.63,6.94,6.94,0,0,1,1.67-1.47,3.38,3.38,0,0,0,1.36-1.86,36.8,36.8,0,0,0,.57-5.41q.32-5.13.36-10.79a12.4,12.4,0,0,0-.41-4.13,8,8,0,0,0-2.46-2.62,4,4,0,0,1-1.74-3.17,3.33,3.33,0,0,1,1.45-2.83,23,23,0,0,1,5.91-2.3,75.89,75.89,0,0,1,7.58-1.77,21.06,21.06,0,0,1,5-.49,3,3,0,0,1,2.06,1.23,3.81,3.81,0,0,1,.82,2.42c0,.08,0,.46,0,1.11a5,5,0,0,0,0,.62c0,1.43.53,2.2,1.62,2.32.65.08,1.35-.41,2.09-1.45,2.37-3.42,5.78-4.84,10.23-4.29a15.51,15.51,0,0,1,8.79,4,13.13,13.13,0,0,1,3.56,5.28A31.06,31.06,0,0,1,908,339.81Z"/><path class="cls-4" d="M952.07,352.93q-9.52-1.24-19.07-2.4c-.84-.1-1.26.23-1.27,1q0,2.78,2.85,5.57a10.52,10.52,0,0,0,6.15,3.15,13.37,13.37,0,0,0,4.33-.27,12.36,12.36,0,0,0,3.92-1.44,3.72,3.72,0,0,1,2.19-.74,3.25,3.25,0,0,1,2.07,1.6,5,5,0,0,1,1,2.88c0,2-1.22,3.79-3.66,5.39a22.2,22.2,0,0,1-14.93,3.41,22.58,22.58,0,0,1-14.3-6.7,24.33,24.33,0,0,1-4.62-6.75A24.8,24.8,0,0,1,914.38,347a19.83,19.83,0,0,1,4.21-12.59,18,18,0,0,1,9.13-6.23,20.25,20.25,0,0,1,9-.56,22.72,22.72,0,0,1,13.07,6.5,22.17,22.17,0,0,1,4.36,6,15.71,15.71,0,0,1,1.89,7.11,7.46,7.46,0,0,1-1.1,4.3A2.83,2.83,0,0,1,952.07,352.93Zm-18-10.25,4.1.54c1.73.23,2.6-.49,2.61-2.15a6.16,6.16,0,0,0-1.25-3.91,4.88,4.88,0,0,0-3.28-1.9,3.58,3.58,0,0,0-3.58,1.39,5.56,5.56,0,0,0-1.23,3.38,2.6,2.6,0,0,0,.58,1.88A3.54,3.54,0,0,0,934.08,342.68Z"/><path class="cls-4" d="M588.48,441.41l-10.56,24.36a39,39,0,0,1-4.16,7.84,4.76,4.76,0,0,1-3.68,2.19,3.71,3.71,0,0,1-3.13-1.64,39,39,0,0,1-4.42-7.39q-5.87-12.93-11.76-25.78a11.14,11.14,0,0,0-1.84-3,5.4,5.4,0,0,0-2.45-1.38q-3.13-1-3.14-3.88c0-1.95,1.27-3.38,3.84-4.31s6.63-1.44,12.2-1.51c4.65-.06,8.09.3,10.3,1.06s3.31,2,3.32,3.6a4.79,4.79,0,0,1-1.55,3.33,9.64,9.64,0,0,0-1.27,1.6,2.76,2.76,0,0,0-.28,1.35q0,1.64,1.82,5.43c1.22,2.46,2.34,3.69,3.38,3.68a2,2,0,0,0,1.68-.92,37,37,0,0,0,2.37-4.74,11.65,11.65,0,0,0,1.26-4.26,4.59,4.59,0,0,0-1.32-2.73,5.26,5.26,0,0,1-1.41-3.22c0-1.54.86-2.66,2.6-3.35s4.59-1.06,8.57-1.09q8.39-.08,8.39,4.19,0,2.46-3,3.59a7.76,7.76,0,0,0-3.18,1.91A26.76,26.76,0,0,0,588.48,441.41Z"/><path class="cls-4" d="M656.59,451.67H638.23a1.67,1.67,0,0,0-1.13.27,1.58,1.58,0,0,0-.26,1.09,9.86,9.86,0,0,0,9.11,9.08,12.82,12.82,0,0,0,4.62-1,14.39,14.39,0,0,0,4.17-2.35,4.18,4.18,0,0,1,2.09-1.26c.63,0,1.32.61,2,1.82a6.69,6.69,0,0,1,1.11,3.47,7.43,7.43,0,0,1-1.38,4,16.41,16.41,0,0,1-3.75,4,22.63,22.63,0,0,1-14,4.95,20,20,0,0,1-7.1-1.36,17.67,17.67,0,0,1-6-3.59c-.55-.51-1-.77-1.23-.77a3.75,3.75,0,0,0-1.36.63,37.39,37.39,0,0,1-8,3.61,25.53,25.53,0,0,1-7.63,1.48q-5.78,0-9.23-3.09-4-3.54-4-9.77a14,14,0,0,1,7.53-13,20,20,0,0,1,5.29-2.15,48,48,0,0,1,7.72-.84c.93,0,1.52-.28,1.77-.73A8.23,8.23,0,0,0,619,443a16.81,16.81,0,0,0-1.06-6.61c-.7-1.6-1.65-2.4-2.86-2.39a3.32,3.32,0,0,0-2.32,1,18,18,0,0,0-2.6,3.62,16.84,16.84,0,0,1-3.52,4.59,5.67,5.67,0,0,1-3.66,1.4,4.4,4.4,0,0,1-3.35-1.42,5,5,0,0,1-1.34-3.55,8.78,8.78,0,0,1,2.41-5.84,20.48,20.48,0,0,1,6.94-4.91,27.41,27.41,0,0,1,11.87-2.86,22.43,22.43,0,0,1,5.14.61,18.62,18.62,0,0,1,4.44,1.49,3.25,3.25,0,0,0,1.16.48,4.06,4.06,0,0,0,1.27-.49,19.41,19.41,0,0,1,4.71-1.49,28.43,28.43,0,0,1,5.61-.61,18.6,18.6,0,0,1,12,4.13,20.27,20.27,0,0,1,5.55,6.85,17.8,17.8,0,0,1,1.88,8.11,9.29,9.29,0,0,1-1.15,5,2.93,2.93,0,0,1-1.27,1.22A6.29,6.29,0,0,1,656.59,451.67Zm-39.26,2.07a3.88,3.88,0,0,0-3.18,1.73,7.51,7.51,0,0,0-.29,7.92,2.87,2.87,0,0,0,2.42,1.55c2.16,0,3.24-2.06,3.24-6.16a12.06,12.06,0,0,0-.44-4A1.8,1.8,0,0,0,617.33,453.74Zm21.43-11.05h5.14a2,2,0,0,0,1.58-.51,3.17,3.17,0,0,0,.43-2,6.88,6.88,0,0,0-1.27-4.29,3.92,3.92,0,0,0-3.29-1.67,4.12,4.12,0,0,0-3.49,1.79,7.16,7.16,0,0,0-1.48,4.37,2.58,2.58,0,0,0,.47,1.82A2.82,2.82,0,0,0,638.76,442.69Z"/><path class="cls-4" d="M687.8,410.66q-.21,7.59-.4,15.16c0,1.52,0,3.74-.06,6.68,0,3.26,0,5.18.11,5.77.19,1.32.77,2,1.73,2s2.08-.61,3.78-1.85,2.55-2.15,2.55-2.76a4.79,4.79,0,0,0-.9-1.95,3.62,3.62,0,0,1-.65-1.93q0-5.24,10.95-5.15a24.12,24.12,0,0,1,9,1.43,4.8,4.8,0,0,1,2.18,1.86,5,5,0,0,1,.85,2.8,3.07,3.07,0,0,1-1.78,3,14,14,0,0,1-2.38.61,12.72,12.72,0,0,0-4.69,2.6q-2.89,2.22-2.89,3.24,0,.68,3.45,6.37t6.44,9.89a33.4,33.4,0,0,0,3,3.87,18.57,18.57,0,0,0,3,2.37q3,1.88,2.94,4.29a4.78,4.78,0,0,1-1.88,4A8.19,8.19,0,0,1,717,474.4H703.71a4.49,4.49,0,0,1-3.89-2.18L693,461.91q-2.7-4.07-3.29-4.85c-.4-.52-.74-.77-1-.78s-.55.29-.66.88a22.29,22.29,0,0,0-.17,3.29,8.78,8.78,0,0,0,.41,3.17,7.89,7.89,0,0,0,1.88,2.4,4,4,0,0,1,1.06,3,5.1,5.1,0,0,1-3,4.89q-3,1.5-10,1.5-8.21,0-10.66-.82a4.79,4.79,0,0,1-2.38-2,5.61,5.61,0,0,1-1-3.13,4,4,0,0,1,1.73-3.2,9.89,9.89,0,0,0,1.89-1.7,4.94,4.94,0,0,0,.65-1.84,162.3,162.3,0,0,0,.93-21V431.17a30.28,30.28,0,0,0-.46-6.94,2.63,2.63,0,0,0-2.32-1.8c-2.25-.36-3.38-1.47-3.37-3.31a4.56,4.56,0,0,1,1.48-3.32,15.9,15.9,0,0,1,4.86-2.92c7.19-3.11,12.51-4.63,16-4.61A2,2,0,0,1,687.8,410.66Z"/><path class="cls-4" d="M737.24,409.61a7.9,7.9,0,0,1,6.2,3.18q3.39,4.08,3.36,11.44a42.08,42.08,0,0,1-1.51,10.49,43.34,43.34,0,0,1-3.92,10q-2.77,4.95-4.46,5t-4.61-6.42a51.65,51.65,0,0,1-3.47-10.13,42.49,42.49,0,0,1-1.26-9.87,18.21,18.21,0,0,1,2.13-9.15A8,8,0,0,1,737.24,409.61Zm0,45.33a7.67,7.67,0,0,1,6.1,3.14,10.84,10.84,0,0,1,2.51,7.19,11,11,0,0,1-2.65,7.34,8,8,0,0,1-6.29,3.09,7.88,7.88,0,0,1-6.1-2.83,10.94,10.94,0,0,1-2.72-7.6,10.58,10.58,0,0,1,2.45-7.06A8.28,8.28,0,0,1,737.26,454.94Z"/></svg>
