<svg id="Layer_1" data-name="Layer 1" xmlns="http://www.w3.org/2000/svg" xmlns:xlink="http://www.w3.org/1999/xlink" viewBox="0 0 1520 1140"><defs><style>.cls-1{opacity:0.26;}.cls-2{fill:#c1272d;}.cls-3{fill:#c69c6d;}.cls-4{fill:#d4b891;}.cls-5{fill:none;}.cls-5,.cls-6,.cls-8{stroke:#000;}.cls-12,.cls-14,.cls-5,.cls-6,.cls-7,.cls-8,.cls-9{stroke-miterlimit:10;}.cls-10,.cls-14,.cls-6,.cls-7{fill:#fff;}.cls-7{stroke:#e6e6e6;}.cls-8{fill:url(#linear-gradient);}.cls-9{stroke:#fbb03b;stroke-width:10px;}.cls-11{fill:#b3b3b3;}.cls-12{stroke:#f49c87;stroke-width:3px;}.cls-13{fill:#8c6239;}.cls-14{stroke:#ccc;}</style><linearGradient id="linear-gradient" x1="855.66" y1="460.67" x2="861.24" y2="438.54" gradientUnits="userSpaceOnUse"><stop offset="0" stop-color="#ff7bac"/><stop offset="0.11" stop-color="#ff7bac" stop-opacity="0.76"/><stop offset="0.31" stop-color="#ff7bac" stop-opacity="0.36"/><stop offset="0.45" stop-color="#ff7bac" stop-opacity="0.1"/><stop offset="0.52" stop-color="#ff7bac" stop-opacity="0"/></linearGradient></defs><title>nisse</title><ellipse class="cls-1" cx="862.08" cy="692.8" rx="133.5" ry="17.5"/><path class="cls-2" d="M826.08,671V654.8h22v34.5h-36A19,19,0,0,1,826.08,671Z"/><path class="cls-2" d="M906.08,671V654.8h-22v34.5h36A19,19,0,0,0,906.08,671Z"/><path class="cls-3" d="M730.73,463.4c4.59-5.17,6-11.43,3.07-14s-8.95-.46-13.54,4.7c-3.76,4.23-5.35,9.2-4.21,12.27l-42.19,47.49,3,2.66L719,469C722.22,469.8,727,467.63,730.73,463.4Z"/><path class="cls-2" d="M941,377.62c17.35,46.34-33.15,16.55-83.43,13.75-53.4-3-82.95,25.55-81.68-25.35,2.24-90.22,122.36-140.76,191.24-77.22C968.59,290.19,902.08,273.8,941,377.62Z"/><circle class="cls-4" cx="759.58" cy="444.3" r="12"/><path class="cls-5" d="M753.08,446.3a8.5,8.5,0,0,1,17,0"/><circle class="cls-4" cx="966.58" cy="447.3" r="12"/><path class="cls-5" d="M956.08,450.3a8.5,8.5,0,0,1,17,0"/><rect class="cls-4" x="759.58" y="384.3" width="207" height="264" rx="78.29"/><path class="cls-2" d="M966.58,509.3V570a78.29,78.29,0,0,1-78.29,78.29H837.87A78.29,78.29,0,0,1,759.58,570V509.3"/><circle class="cls-6" cx="838.58" cy="428.3" r="20.5"/><circle class="cls-6" cx="879.58" cy="428.3" r="20.5"/><circle cx="876.58" cy="426.3" r="5"/><circle cx="841.58" cy="426.3" r="5"/><path class="cls-3" d="M859.58,427.87c.28-10.73,8.3-16.7,13.31-18.72h0c7.66-2.12,15.68-1.22,21.59,5.72"/><path class="cls-3" d="M858.68,427.87c-.29-10.73-8.51-16.7-13.51-18.72h0c-7.67-2.12-15.69-1.22-21.59,5.72"/><line class="cls-5" x1="818.58" y1="428.3" x2="767.58" y2="428.3"/><line class="cls-5" x1="900.08" y1="427.8" x2="958.08" y2="427.8"/><path class="cls-7" d="M960.08,410.27a13.52,13.52,0,0,0-17.57-12.85,13.48,13.48,0,0,0-19.92-7.66A13.48,13.48,0,0,0,899,385a13.48,13.48,0,0,0-23.39-2.47,13.48,13.48,0,0,0-21.91-.13,13.46,13.46,0,0,0-21,1,13.47,13.47,0,0,0-20.84,3.29,13.48,13.48,0,0,0-21.5,8,13.72,13.72,0,0,0-4.76-.87,13.49,13.49,0,0,0-13.5,13.5c0,.2,0,.39,0,.59a13.08,13.08,0,0,0-1.53-.09,13.5,13.5,0,1,0,13.5,13.5c0-.2,0-.4,0-.6a12.82,12.82,0,0,0,1.53.1,13.5,13.5,0,0,0,13.24-10.88,13.64,13.64,0,0,0,4.76.88A13.47,13.47,0,0,0,815.31,404a13.44,13.44,0,0,0,19.16-2.71,13.44,13.44,0,0,0,20-2,13.46,13.46,0,0,0,21.1-1.13,13.47,13.47,0,0,0,21.6.54,13.46,13.46,0,0,0,19.38,6.19,13.51,13.51,0,0,0,13,10,13.69,13.69,0,0,0,4.07-.63,13.49,13.49,0,0,0,9.43,9.15,13.5,13.5,0,1,0,17-13.05Z"/><path class="cls-7" d="M974.08,284.8a7,7,0,1,0-13.16,3.34,7,7,0,1,0,8.72,9.07,7,7,0,1,0,4.44-12.41Z"/><path class="cls-8" d="M869.24,445.9c1.84,8.54-8.78,22.43-19.87,14.53-4.53-3.23-3-11.21,1.24-15.13"/><rect x="759.58" y="550.3" width="207" height="29"/><rect class="cls-9" x="839.08" y="548.8" width="49" height="32"/><path class="cls-10" d="M890.84,480.19c6.14-2,12.42-4.16,18.93-2.78,6.11,1.3,11.49,3.42,17.85,2.33,5.54-.94,9.1-2.77,14.6-.54,5.11,2.07,9.65,4.45,15.33,4.21l-6-6c.13,1.06-1.12,3-1.36,4.14a15.66,15.66,0,0,0,0,5.29c.54,4.13,1.47,6.27-1.86,9.4-2.77,2.6-4.9,3-8.25,4.22a10.06,10.06,0,0,0-3.52,2.05,36.88,36.88,0,0,0-2.49,4.37c-.39,0,3.82-1.77-.6-1.39a15.06,15.06,0,0,0-2.63.72c-2,.6-4.05,1.26-6,2a100.55,100.55,0,0,0-11.39,5c-4.06,2.12-6.56,4.41-11.28,3.13-3.74-1-7.12-2.69-11.05-3a15.69,15.69,0,0,0-9.69,2.11c-1,.65-2,2.31-3,2.76-1.55.7-4.32,0-6.05-.06q-13.37-.82-26.61-2.89c-8.25-1.31-16.65-2.47-23.92-6.81A84.16,84.16,0,0,0,802.51,500c-7-2.1-14.83-3.69-20.59-8.4-3-2.44-4.86-5.83-7.32-8.76a22.64,22.64,0,0,0-4.59-4.15c-.58-.4-1.18-.75-1.77-1.13-2.48-1.57-1-1.29-2.66.79l-4.25,1.76a45.72,45.72,0,0,1,14.73,1.45c6.53,1.73,10.58-7.52,4.62-11L777,468.4l-4.62,11c5.9,1.51,11.4.34,17.35-.13,6.11-.48,12.31-.28,18.44-.3a90.51,90.51,0,0,1,19.37,1.66c6.41,1.35,11.7.45,18-.44,5.68-.8,10.59,2,16.27,1.77,6.34-.19,12.55-.72,18.91-.47,13.2.51,27.17,1.3,40,4.56l1.59-11.78A191.88,191.88,0,0,0,888,476.18c-2.94.42-4.65,4-4.3,6.58.43,3.18,2.88,4.83,5.9,5.2a142.41,142.41,0,0,0,29.77.1c4.74-.4,9.49-1.13,14.24-1.34,2.17-.09,4.85-.34,6.8.89.52.33,2.8,2,1.07,1.82l4.24,1.76c-1-1.18-1.26-3.13-2.33-4.43a9.24,9.24,0,0,0-2.75-2.34,8.06,8.06,0,0,0-9.11.81,7,7,0,0,0-2.38,4.88c-.16,1.52.65,2.95.57,4.31-.24,3.84-4.59,5.33-7.62,6.77-7.77,3.69-15.8,6.84-24.53,6.52-4-.14-7.9-.54-11.9.23-4.16.8-8,2.64-12,4-8.39,2.9-16.57.33-24.91-1.62q-12.94-3-25.7-6.8t-25.24-8.31a72.56,72.56,0,0,1-9.95-4.21c-1.66-.91-7.49-4.14-7.39-5.84l-1.76,4.24c-1.28,1.13,2.45-.23,3.16-.34,1.92-.32,3.85-.51,5.79-.65,3.71-.27,7.44-.31,11.17-.22,7.52.18,15,.93,22.5,1.47,15,1.1,30,.78,45,.47s30-.51,44.9,1.28c2,.24,4,.54,6,.87,1.44.24,4.39,1.47,5.63,1.06l1.11.27q.29-4.31-2.55-3.28c-1.34-.29-3.66.51-4.94.77a50,50,0,0,0-18.35,8.1c-4.46,3.13-3.41,11.58,3,11.18l11.7-.72a6.14,6.14,0,0,0,6-6,18.58,18.58,0,0,0-6.37-14.7c-3.83-3.31-10.07-5.83-14.69-2.66a8.23,8.23,0,0,0-3.59,6.85c-.17,3.64-.81,4.94-4.6,6.24-6.06,2.08-13.31,2.77-19.67,3.14-13.83.81-28.11-2.56-41.51-5.66a335.87,335.87,0,0,1-41.05-12.35V496.1c9.18-2.72,19.33.68,28.28,3,9.12,2.33,18.24,4.54,27.7,4.73,6.57.13,8.41-10.75,1.59-11.79a36,36,0,0,1-8.58-2.39l1.43,11c2.46-1.51,3.71-.35,5.08,1.66,1.77,2.6,3.58,5,6.89,5.53a8,8,0,0,0,8-3.46,10.54,10.54,0,0,0,1.39-3.53c.1-.82.23-1.64.4-2.45-1.5.51-1.54.9-.12,1.16l1.6-11.78-10.36.27c-4.13.11-8,5.18-5.18,9,7.57,10.23,21.6,14.44,33.25,8.45,6.67-3.42,9.15-10.75,2.78-16.09-5.27-4.42-12.31-3.52-17.36.59-4.87,3.95.43,11.44,5.84,10a43,43,0,0,1,8.93-1.51c1.53-.08,6.88.83,7.26-.46l5.79-4.41a4.51,4.51,0,0,1-3.09-.23c-6.95-3.27-13,7.07-6,10.36a16.66,16.66,0,0,0,9.14,1.87,6.23,6.23,0,0,0,5.78-4.4c5.14-17.62-21.45-15.29-30.95-12.79l5.83,10c.66-.53,1.2.52,1.05.06l.6-4.62c-1.15,2.58-7.12,2.53-9.39,2.2a13.91,13.91,0,0,1-9-5.12l-5.18,9,10.36-.27c7.2-.2,7.58-9.29,1.59-11.79a11,11,0,0,0-11.16,1.92,10.56,10.56,0,0,0-3.27,4.78c-.18.56-.71,1.76-.52,2.35-.4,1.43.51,1.4,2.75-.08q4.21.4,2.2-1.85c-.81-3.22-5.93-5.8-8.76-6.59a15.25,15.25,0,0,0-12.09,1.77c-4.78,2.93-3.17,9.05,1.44,11a36,36,0,0,0,8.58,2.4l1.6-11.79c-19.53-.39-39.67-13.06-59.17-7.28-6,1.78-5.4,9.57,0,11.57,24,8.88,49.59,16,75.14,18.23a82.71,82.71,0,0,0,18.93-.69c5.8-.81,12-1.43,17.41-3.76,4.61-2,8.76-5.67,10.18-10.66.12-.4,1-4.24.53-4.53l-4,2.09a4.3,4.3,0,0,1,1.68.77c1.89,2,2.91,3.2,2.83,6.12l6-6-11.7.72,3,11.18a42.55,42.55,0,0,1,18.64-7.4c5.85-.87,12.18-3.58,12.4-10.52.18-5.51-4.38-8.66-9.18-9.87-7.21-1.81-15-2.52-22.36-3.1-29.89-2.33-59.87.74-89.8-1.59-6.85-.54-13.72-1-20.6-.92-6.08.11-15.39-.13-20.87,3-5.94,3.42-4.19,10.06-.53,14.39,4.09,4.83,9.76,7.95,15.5,10.39,13.12,5.56,27,9.7,40.75,13.48q10.06,2.79,20.25,5.1c6.91,1.56,14.11,3.48,21.25,2.67,7.32-.83,13.69-5.43,21-5.83,4.09-.22,8.14.58,12.24.22a51,51,0,0,0,10.38-2c6.84-2.05,14.45-5,20.38-9a18.35,18.35,0,0,0,6.95-8.15,14,14,0,0,0,1.16-4.55c.12-2-.73-3.85-.61-5.76l-1.76,4.24q-6.83-1.62-4.46,2.07a6.72,6.72,0,0,0,1.49,2.34,7,7,0,0,0,5.06,2.67,11,11,0,0,0,9.9-4.42c5.16-6.51,2.26-15.19-4.33-19.38-7.88-5-18.06-2.41-26.72-1.65-10.25.9-20.5,1.25-30.73,0l1.59,11.79a174.79,174.79,0,0,1,31.18-1.52c6.77.24,8.15-10.13,1.6-11.79-12.4-3.15-25.7-4-38.44-4.75a152.47,152.47,0,0,0-19-.13c-3.36.21-6.33.65-9.6-.27a30,30,0,0,0-7.85-1.44c-5.91-.07-11.51,2.48-17.42,1.37A109.35,109.35,0,0,0,813,467c-6.28-.1-12.59-.08-18.87.08-6,.15-12.67,2.26-18.55.76-6.52-1.66-10.61,7.51-4.63,11l3.73,2.15,4.62-11c-7.52-2-24.18-5.89-24.92,6-.27,4.29,2.19,7.95,5.52,10.39,1.51,1.1,3.26,1.89,4.67,3.14,2.16,1.92,3.63,4.72,5.45,6.95,5.52,6.73,13.58,10.21,21.69,12.78,8.85,2.79,16.75,5.31,24.79,10,9.52,5.6,20.92,6.91,31.67,8.42,5.21.73,10.44,1.35,15.69,1.83s11.91,1.84,17.26.73c3.78-.78,5.53-5.07,9.2-4.93,5.33.19,10,3.8,15.55,3.69,4.82-.11,8.73-2.78,12.83-5a79.68,79.68,0,0,1,16.23-6.51c2.27-.64,4.91-.95,6.94-2.24.77-.49,4.4-5.14,3.8-5.22l-1.33,1.64,1.1-.21c1.25.1,2.86-.77,4-1.3a29,29,0,0,0,6.27-4.45c4.19-3.61,7.43-7.92,7.35-13.7,0-2.5-1.23-5.13-1.05-7.59s2-4.26,1.62-7c-.38-3.11-2.44-6.16-6-6-5.36.23-9.88-3.34-14.88-4.76-6-1.7-10.85.1-16.69,1.21-6.35,1.21-12.67-2.59-19-2.91-6.61-.35-13.1,1.64-19.29,3.67-7.31,2.39-4.18,14,3.19,11.57Z"/><path class="cls-10" d="M944.94,506.26a64.83,64.83,0,0,1,1,19.7c-.61,6.41,9.39,6.36,10,0a74,74,0,0,0-1.38-22.36c-1.32-6.29-11-3.63-9.64,2.66Z"/><path class="cls-10" d="M935.82,513.17c.21,2.33.43,4.66.62,7,.13,1.67.49,3.59-.36,5.09-3.17,5.61,5.47,10.65,8.64,5,3-5.24,1.6-11.44,1.1-17.13-.55-6.37-10.56-6.42-10,0Z"/><path class="cls-10" d="M922.85,519.44l0,2.94c.06,5.1,6.65,6.61,9.32,2.52l-1.35.65-5-5-.35,6.58,7.52-4.32c2.19,1.49.48-.13-.15-.73a6.19,6.19,0,0,0-2.69-1.48,5.71,5.71,0,0,0-6.06,2.61c-1.45,2.29-1.81,5.82-2.44,8.4-.77,3.09-1.49,6.19-2.23,9.29-1.39,5.82,5.83,8.23,9.13,3.85l.49-.64-3,2.3-1.62-.28c2.1,1.49,5.71.46,6.84-1.8,2.32-4.64,5.44-10.67,4.17-16-1.5-6.25-11.15-3.61-9.64,2.66.17-1.06.07-.76-.31.92-.2.74-.42,1.47-.67,2.19a39.61,39.61,0,0,1-2.19,5.15l6.85-1.8c-3.46-2.46-7.26-.84-9.56,2.21l9.14,3.86c1.28-5.39,2.09-11.36,4.17-16.5l-2.3,3,.41-.31-3.85.51.49.18-3-2.29a9.21,9.21,0,0,0,3,3.31c3.33,2.25,7.33-.79,7.53-4.32l.35-6.58c.14-2.49-2.41-5.29-5-5-3.42.39-5.38,1.38-7.28,4.31l9.31,2.52,0-2.94c-.06-6.43-10.06-6.45-10,0Z"/><path class="cls-10" d="M911.77,524.45a74.42,74.42,0,0,0-1.61,8.65c-.17,1.4-.26,2.8-.43,4.2a11.79,11.79,0,0,1-.37,2.28c-.51,1-.31,1.12.59.42l4.82,6.33c.85-6.18,2.58-12.77,1.15-19s-11.09-3.62-9.64,2.66c1,4.24-.57,9.4-1.15,13.64-.42,3,1.22,6.48,4.82,6.33,11.28-.5,9.51-15,11.46-22.89,1.55-6.25-8.09-8.91-9.64-2.66Z"/><path class="cls-10" d="M892.35,527.72q-.71,6.74-1.9,13.39c-.64,3.55,2.22,7.37,6.15,6.15l.62-.19h-2.66l.62.24-3-2.3c-1.45-2.53.21,1.44.54,2a5.63,5.63,0,0,0,3,2.3,6,6,0,0,0,6.28-1.5l-7.85-1,.34.73c1.34,2.83,5.83,3.27,7.85,1,.74-.82,1.78-1.29,2.52-2.15,1.32-1.54,1.61-3.31,1.83-5.28a66,66,0,0,0,.29-10.33c-.28-6.41-10.28-6.45-10,0a68.37,68.37,0,0,1,0,7.3c-.06,1-1,3.56.59,1.53-.56.71-1.63,1.14-2.27,1.86l7.86,1-.35-.73c-1.43-3-5.69-3.06-7.85-1l-.38.36,3.54-1.47.29,0,3,2.29c1.53,2.61,0-.92-.23-1.38a5.49,5.49,0,0,0-1.61-2,6,6,0,0,0-5.6-.94l6.15,6.15c1-5.32,1.7-10.67,2.26-16,.28-2.71-2.5-5-5-5-2.93,0-4.72,2.33-5,5Z"/><path class="cls-10" d="M880.61,526.47a51.07,51.07,0,0,1-1.18,16.35l9.82,1.33,0-13.68c0-6.43-10-6.44-10,0l0,13.68c0,5.55,8.48,6.91,9.82,1.33a59.93,59.93,0,0,0,1.54-19c-.52-6.37-10.53-6.42-10,0Z"/><path class="cls-10" d="M867.9,532.79l.36,1.34a5,5,0,0,0,9.82,1.33l-.21.51c3-3,.84-8.62-3.54-8.54-2.51.05-5,0-6.8,2-2.35,2.63-.82,5.44-.89,8.5-.14,6-.81,11.84,3.47,16.67a5,5,0,0,0,7.07,0c4.08-4.62,2.26-11.3,3-17,.37-2.7-.65-5.33-3.49-6.15-2.32-.67-5.79.82-6.15,3.49-.33,2.43-.7,4.85-.81,7.3,0,.89.44,5.18.36,5.27h7.07c-1.41-1.59-.66-5.58-.6-7.52a29.43,29.43,0,0,0-.69-8.37l-1.29,4.86q-2.79,1.32-.27.95l-3.53-8.53a9.49,9.49,0,0,0-2.36,3.9l9.82,1.33a14.25,14.25,0,0,0-.72-4c-2.09-6-11.75-3.45-9.64,2.65Z"/><path class="cls-10" d="M863.07,535.15l.5-.25h-5.05l.55.28-2.3-3c.51,1.38-.39,4.73-.48,6.59a21.08,21.08,0,0,0,1.49,8.07,5.07,5.07,0,0,0,9.14,1.19l.33-.5c3.56-5.39-5.1-10.4-8.63-5l-.34.51,9.14,1.19a13.74,13.74,0,0,1-1.13-5.41c.11-2.08.48-4.13.5-6.22.05-5-3.94-8.48-8.76-6-5.75,2.89-.7,11.52,5,8.63Z"/><path class="cls-10" d="M851.19,525.25a26.52,26.52,0,0,1-4.78-1.34c-3.68-1.4-7.07,2.75-6.15,6.15q1.69,6.26,4,12.31c1.4,3.69,7,5.35,9.14,1.19a14.4,14.4,0,0,0,1.74-8.2c-.65-6.3-9.7-6.55-10,0-.29,6.37.7,14.81,9,13.63,4.45-.63,4.58-7.15,1.2-9.14l-.52-.3,1.8,1.79-.32-.51.69,2.53,0-.6c-.36-6.4-10.37-6.44-10,0a6.47,6.47,0,0,0,3.34,5.73l1.19-9.14-.81.11,3.86.51-.74-.45,1.8,1.79c-.85-1.5-.47-4.32-.4-5.95h-10a5.07,5.07,0,0,1-.38,3.15l9.14,1.2q-2.28-6.06-4-12.3l-6.15,6.15a27.33,27.33,0,0,0,4.78,1.33c6.29,1.15,9-8.48,2.66-9.64Z"/><path class="cls-10" d="M824.36,523a26.37,26.37,0,0,0,4.29,16.22,5.07,5.07,0,0,0,8.64,0l.42-.65-3,2.3c2.21-.82,4.46-1.35,5.45-4.38,1.08-3.27-.25-6-.76-9.11l-.5,3.85.33-.74-9.32-2.53a13.77,13.77,0,0,0,3.28,11c2.38,3,4.46,6.26,8.58,6.85,2.69.38,5.33-.67,6.15-3.5.67-2.34-.83-5.76-3.5-6.15-1.65-.23-2.44-2.2-3.46-3.44-1.37-1.68-1.26-2.47-1.05-4.71.47-4.82-7.31-7-9.31-2.52a7.14,7.14,0,0,0-.84,4.59c.08.49,1.09,2.9,1,3.16l3-2.3c1.24-.27-1.84.39-2.24.58a6.64,6.64,0,0,0-2.82,2.71h8.64A17.32,17.32,0,0,1,834.36,523c.42-6.42-9.58-6.4-10,0Z"/><path class="cls-10" d="M814.05,520.19l-.06,2.07,9.82-1.33a12,12,0,0,1-.56-2.29l-9.14,3.85c.73,1.49.5,3.47.91,5.08a21.18,21.18,0,0,0,2.39,5.55c3.33,5.5,12,.48,8.64-5-2-3.31-1.62-7.19-3.3-10.63a5,5,0,0,0-6.25-2.05c-2.46,1.08-3.27,3.36-2.89,5.9a12,12,0,0,0,.56,2.29c1.82,5.25,9.65,4.49,9.82-1.33l.06-2.07c.19-6.43-9.81-6.43-10,0Z"/><path class="cls-10" d="M810.13,511.26c-2.42-1.18-5.2-1.16-7.22.86s-2,4.5-1,7a23.9,23.9,0,0,1,.81,3.75,16.09,16.09,0,0,0,2.51,5.58,5.14,5.14,0,0,0,6.84,1.8c2.19-1.28,3.35-4.62,1.8-6.84a9.11,9.11,0,0,1-1.62-3.85,22.45,22.45,0,0,0-1.78-5.66l.69,2.53,0-.42-.69,2.53.25-.34L809,520l.37-.22-2.52.69.41-.05-2.52-.68.37.18a5.12,5.12,0,0,0,6.84-1.79c1.29-2.19.65-5.66-1.79-6.84Z"/><path class="cls-10" d="M799.51,508.87a10.89,10.89,0,0,0-7.06-2.82c-2.94-.11-4.69,2.4-5,5a40.14,40.14,0,0,0,.41,11.63c.8,4.86,8.69,4.69,9.64,0a2.51,2.51,0,0,1,1.62-2.18l-7.53-4.32a12.65,12.65,0,0,0,1.8,7.83,8.11,8.11,0,0,0,2.71,2.66,11,11,0,0,0,1.82.82c.27.1,1.55.75.66,0l4.86-8.36-3.68-1.36-1.84-.68c.34-.1.62.08.83.53l.69,2.52v-.54c-.08-6.43-10.09-6.45-10,0,.08,6.12,6.71,7.46,11.35,9.18s8.74-5.27,4.87-8.36c-1.19-.94-2.8-2.25-4.4-2.37-.51-.21-.47-.12.13.26s.59.52.34.16c0,0-.13-2.26-.13-2.33.38-4-4.45-5.88-7.52-4.31a11.88,11.88,0,0,0-6.21,8.15h9.64a31.71,31.71,0,0,1,0-9l-5,5c.28,0,.28,0,0-.11a5.13,5.13,0,0,0,7.07,0c1.78-1.78,2.08-5.32,0-7.07Z"/><path class="cls-10" d="M770.63,498.88a22.43,22.43,0,0,0,7.79,17.36c2.37,2,6.19,2,7.85-1a24.74,24.74,0,0,0,2.31-5.73c1.62-6.23-8-8.89-9.64-2.65a14.22,14.22,0,0,1-1.3,3.33l7.85-1a12.8,12.8,0,0,1-4.86-10.29c.07-6.44-9.93-6.44-10,0Z"/><path class="cls-10" d="M763.84,489.14c-2.57,5.12-2.92,10.78.25,15.76,3.45,5.41,12.11.4,8.64-5a5.28,5.28,0,0,1-.26-5.66,5.14,5.14,0,0,0-1.79-6.85c-2.22-1.29-5.63-.63-6.84,1.8Z"/><path class="cls-10" d="M756.85,481a31.41,31.41,0,0,0-2.26,7.06c-.45,2.57.69,5.51,3.49,6.15,2.44.56,5.67-.74,6.15-3.49a26.63,26.63,0,0,1,.64-2.78c.12-.42.25-.84.4-1.25.07-.21.65-1.65.22-.64,1-2.39.79-5.48-1.8-6.84-2.15-1.14-5.73-.77-6.84,1.79Z"/><path class="cls-11" d="M858.21,472.86A31.06,31.06,0,0,1,891.16,476c1.5,1.17,3.64-.94,2.12-2.12a34.18,34.18,0,0,0-36.59-3.65c-1.72.87-.21,3.46,1.52,2.59Z"/><path class="cls-11" d="M884.59,470.6c13.85-5.36,30-6.62,41.92,3.69,1.46,1.26,3.59-.86,2.13-2.12-12.78-11-29.89-10.26-44.85-4.46-1.78.69-1,3.59.8,2.89Z"/><path class="cls-11" d="M922,469.23a36.33,36.33,0,0,1,33.29,5.31c1.56,1.14,3.05-1.46,1.51-2.59a39.11,39.11,0,0,0-35.59-5.61c-1.83.6-1.05,3.5.79,2.89Z"/><path class="cls-11" d="M955.23,468.69A20.14,20.14,0,0,1,969,489.76c-.18,1.93,2.82,1.91,3,0a23.11,23.11,0,0,0-15.93-24c-1.84-.6-2.63,2.3-.8,2.89Z"/><path class="cls-11" d="M961.22,484.14c.67,6.77,1.26,13.76-2.15,19.94-.94,1.69,1.65,3.21,2.59,1.51,3.68-6.67,3.29-14.09,2.56-21.45-.18-1.9-3.18-1.92-3,0Z"/><path class="cls-11" d="M863.35,469.74a33,33,0,0,0-33.8.81c-1.63,1-.12,3.62,1.52,2.59a29.94,29.94,0,0,1,30.77-.81c1.69.94,3.2-1.65,1.51-2.59Z"/><path class="cls-11" d="M834.71,468.08a43.76,43.76,0,0,0-36.91,1c-1.74.85-.22,3.44,1.51,2.59a40.52,40.52,0,0,1,33.88-1c1.76.74,3.29-1.84,1.52-2.59Z"/><path class="cls-11" d="M802.29,466.55a27,27,0,0,0-28,3.75c-1.51,1.21.63,3.32,2.12,2.12a23.81,23.81,0,0,1,24.4-3.28c1.75.75,3.28-1.83,1.51-2.59Z"/><path class="cls-11" d="M777.34,466.89c-10.83-3-25.47-1.66-28.42,11.45-.42,1.88,2.47,2.68,2.89.79,2.59-11.49,15.49-11.93,24.74-9.34a1.5,1.5,0,0,0,.79-2.9Z"/><path class="cls-11" d="M756.15,475.8a19.29,19.29,0,0,0-2.67,16.73c.56,1.84,3.45,1.06,2.9-.8a16.34,16.34,0,0,1,2.36-14.41c1.11-1.59-1.49-3.09-2.59-1.52Z"/><path class="cls-11" d="M763.43,484.17A26.63,26.63,0,0,0,762,506.84c.7,1.77,3.61,1,2.9-.8A23.67,23.67,0,0,1,766,485.69c.92-1.7-1.67-3.22-2.59-1.52Z"/><path class="cls-11" d="M768.55,494.1a29.14,29.14,0,0,0,8.59,23.35,1.51,1.51,0,0,0,2.13-2.13,26.12,26.12,0,0,1-7.72-21.22c.16-1.92-2.84-1.91-3,0Z"/><path class="cls-11" d="M799.33,508.67c-.63,7.59.87,20.06,8.14,24.44,1.65,1,3.16-1.6,1.51-2.59-6.29-3.79-7.18-15.45-6.65-21.85.16-1.93-2.84-1.92-3,0Z"/><path class="cls-11" d="M811.11,511.93c-.89,7.91,1.6,19.95,7.82,25.49,1.43,1.28,3.56-.83,2.12-2.12-5.59-5-7.74-16.28-6.94-23.37.21-1.91-2.79-1.9-3,0Z"/><path class="cls-11" d="M890.4,522.2c.3,8.42.42,16.77-2.83,24.7-.73,1.79,2.17,2.57,2.89.8,3.35-8.17,3.25-16.82,2.94-25.5-.07-1.93-3.07-1.94-3,0Z"/><path class="cls-11" d="M866,526.21c-.07,9.45-1.53,20.39,1.51,29.49.61,1.83,3.51,1,2.9-.79-2.9-8.68-1.47-19.67-1.41-28.7a1.5,1.5,0,0,0-3,0Z"/><path class="cls-11" d="M785.76,505.15c-.12,4.48-.26,9,0,13.44.18,2.93.13,6.34,1.87,8.84,1.09,1.58,3.69.08,2.59-1.51-1.93-2.78-1.52-7.41-1.6-10.69s0-6.72.12-10.08c0-1.93-3-1.93-3,0Z"/><path class="cls-11" d="M952.54,502.08a79.91,79.91,0,0,1,.92,30c-.3,1.89,2.59,2.7,2.89.79a84.57,84.57,0,0,0-.91-31.63c-.42-1.88-3.31-1.08-2.9.8Z"/><path class="cls-11" d="M945.32,510.41c.26,7.7.37,15.31-2.06,22.71-.61,1.84,2.29,2.63,2.89.8,2.52-7.66,2.44-15.54,2.17-23.51-.07-1.92-3.07-1.93-3,0Z"/><path class="cls-11" d="M934.76,517a58.18,58.18,0,0,1-4.53,29.27c-.77,1.75,1.82,3.28,2.59,1.51A61,61,0,0,0,937.76,517c-.19-1.91-3.19-1.93-3,0Z"/><path class="cls-11" d="M920.52,522.2a51.08,51.08,0,0,1-5,25.54c-.84,1.73,1.74,3.25,2.59,1.52a54.23,54.23,0,0,0,5.45-27.06c-.11-1.92-3.11-1.93-3,0Z"/><path class="cls-11" d="M904.61,530.25a47.22,47.22,0,0,1-2.74,21.9c-.68,1.81,2.22,2.59,2.89.8a49,49,0,0,0,2.85-22.7c-.2-1.9-3.2-1.92-3,0Z"/><path class="cls-11" d="M822.62,522.45a32.06,32.06,0,0,0,6.07,20.63c1.11,1.55,3.72.06,2.59-1.51a29.42,29.42,0,0,1-5.66-19.12c.09-1.93-2.91-1.92-3,0Z"/><path class="cls-11" d="M837.15,522.19c1.14,10.36,5.39,19.61,10.35,28.66.93,1.69,3.52.18,2.59-1.52-4.69-8.55-8.86-17.33-9.94-27.14-.21-1.89-3.22-1.91-3,0Z"/><path class="cls-11" d="M853.35,526.71a70.07,70.07,0,0,0,4.35,24.48c.66,1.79,3.56,1,2.89-.8a67.85,67.85,0,0,1-4.24-23.68,1.5,1.5,0,0,0-3,0Z"/><path class="cls-11" d="M877.81,532.24a206.17,206.17,0,0,1-.4,25.83c-.15,1.93,2.85,1.92,3,0a206.17,206.17,0,0,0,.4-25.83c-.09-1.93-3.09-1.94-3,0Z"/><path class="cls-12" d="M874.08,496.3c2.87,8.83-6.84-5.78-16-5.5s-17.88,15.55-15,5.5c2.35-8.24,6.94-15.5,15.5-15.5S871.43,488.15,874.08,496.3Z"/><rect class="cls-2" x="984.66" y="509" width="8.46" height="55.62" rx="4.23" transform="translate(5.06 1082.85) rotate(-57.53)"/><ellipse class="cls-13" cx="950.8" cy="585.8" rx="7.81" ry="5.21" transform="translate(-165.88 600.39) rotate(-32.39)"/><rect class="cls-2" x="981.19" y="532.09" width="8.46" height="63.84" rx="4.23" transform="translate(933.89 -570.23) rotate(57.61)"/><rect class="cls-10" x="954.66" y="575.29" width="8.52" height="10.36" transform="matrix(0.54, 0.84, -0.84, 0.54, 935.48, -540.21)"/><ellipse class="cls-13" cx="949.58" cy="580.3" rx="2" ry="3" transform="translate(250.86 1446.46) rotate(-82.54)"/><rect class="cls-2" x="733.22" y="510.8" width="8.46" height="55.62" rx="4.23" transform="translate(670.56 -372.13) rotate(49.66)"/><ellipse class="cls-13" cx="701.9" cy="487.76" rx="5.21" ry="7.81" transform="translate(-103.35 201.16) rotate(-15.2)"/><rect class="cls-2" x="708.25" y="495.34" width="8.46" height="63.84" rx="4.23" transform="translate(1538.31 849.2) rotate(164.8)"/><rect class="cls-10" x="700.33" y="491.91" width="8.52" height="10.36" transform="translate(1514.89 791.98) rotate(164.8)"/><ellipse class="cls-13" cx="707.52" cy="488.21" rx="3" ry="2" transform="translate(-31.25 927.71) rotate(-65.36)"/><path class="cls-14" d="M904.37,644.51a6.48,6.48,0,0,1-9,.27,6.49,6.49,0,0,0-4.93,2.5,6.5,6.5,0,1,0,.26,8.3,22,22,0,0,1,14.06,1.92,6.5,6.5,0,1,0-.4-13Z"/><path class="cls-14" d="M846.65,644.91a6.46,6.46,0,0,0-4.52,1.76,6.48,6.48,0,0,0-9.5.42,6.5,6.5,0,1,0-.1,8.3A6.49,6.49,0,0,0,842,656a6.5,6.5,0,1,0,4.63-11.13Z"/></svg>
