<svg id="Layer_1" data-name="Layer 1" xmlns="http://www.w3.org/2000/svg" xmlns:xlink="http://www.w3.org/1999/xlink" viewBox="0 0 677.17 862.99"><defs><style>.cls-1{filter:url(#AI_BevelShadow_1);}.cls-2{fill:#c69c6d;}.cls-3{fill:#c1272d;}.cls-4{fill:#8c6239;}.cls-5{fill:#fff;}</style><filter id="AI_BevelShadow_1" x="-20" y="-20" width="140" height="140" name="AI_BevelShadow_1"><feGaussianBlur result="blur" stdDeviation="4" in="SourceAlpha"/><feOffset result="offsetBlur" dx="4" dy="4" in="blur"/><feSpecularLighting result="specOut" surfaceScale="5" specularExponent="10" in="blur"><fePointLight x="-5000" y="-10000" z="-20000"/></feSpecularLighting><feComposite result="specOut" operator="in" in="specOut" in2="SourceAlpha"/><feComposite result="litPaint" operator="arithmetic" k2="1" k3="1" in="SourceGraphic" in2="specOut"/><feMerge><feMergeNode in="offsetBlur"/><feMergeNode in="litPaint"/></feMerge></filter></defs><title>nissearm</title><g class="cls-1"><path class="cls-2" d="M138.94,394.18c7.57-8.52,9.84-18.87,5.07-23.11s-14.79-.77-22.36,7.75c-6.21,7-8.85,15.21-7,20.28L45,477.54l4.94,4.38,69.69-78.44C124.88,404.76,132.73,401.17,138.94,394.18Z"/><rect class="cls-3" x="104.1" y="511.43" width="91.87" height="13.98" rx="6.99" transform="translate(-299.93 220.42) rotate(-40.34)"/><ellipse class="cls-4" cx="91.32" cy="434.42" rx="8.6" ry="12.9" transform="translate(-110.74 39.16) rotate(-15.2)"/><rect class="cls-3" x="101.81" y="446.94" width="13.98" height="105.45" rx="6.99" transform="translate(-127.24 46.03) rotate(-15.2)"/><rect class="cls-5" x="88.72" y="441.27" width="14.07" height="17.11" transform="translate(-114.62 40.86) rotate(-15.2)"/><ellipse class="cls-4" cx="100.6" cy="435.17" rx="4.96" ry="3.3" transform="translate(-336.88 345.15) rotate(-65.36)"/></g></svg>
