<svg id="Layer_1" data-name="Layer 1" xmlns="http://www.w3.org/2000/svg" xmlns:xlink="http://www.w3.org/1999/xlink" viewBox="0 0 677.17 862.99"><defs><style>.cls-1{filter:url(#AI_BevelShadow_1);}.cls-2{opacity:0.26;}.cls-3{fill:#c1272d;}.cls-4{fill:#c69c6d;}.cls-5{fill:#d4b891;}.cls-6{fill:none;}.cls-6,.cls-7,.cls-9{stroke:#000;}.cls-10,.cls-13,.cls-15,.cls-6,.cls-7,.cls-8,.cls-9{stroke-miterlimit:10;}.cls-15,.cls-6,.cls-7,.cls-8,.cls-9{stroke-width:1.65px;}.cls-11,.cls-15,.cls-7,.cls-8{fill:#fff;}.cls-8{stroke:#e6e6e6;}.cls-9{fill:url(#linear-gradient);}.cls-10{stroke:#fbb03b;stroke-width:16.52px;}.cls-12{fill:#b3b3b3;}.cls-13{stroke:#f49c87;stroke-width:4.96px;}.cls-14{fill:#8c6239;}.cls-15{stroke:#ccc;}</style><filter id="AI_BevelShadow_1" x="-20" y="-20" width="140" height="140" name="AI_BevelShadow_1"><feGaussianBlur result="blur" stdDeviation="4" in="SourceAlpha"/><feOffset result="offsetBlur" dx="4" dy="4" in="blur"/><feSpecularLighting result="specOut" surfaceScale="5" specularExponent="10" in="blur"><fePointLight x="-5000" y="-10000" z="-20000"/></feSpecularLighting><feComposite result="specOut" operator="in" in="specOut" in2="SourceAlpha"/><feComposite result="litPaint" operator="arithmetic" k2="1" k3="1" in="SourceGraphic" in2="specOut"/><feMerge><feMergeNode in="offsetBlur"/><feMergeNode in="litPaint"/></feMerge></filter><linearGradient id="linear-gradient" x1="345.29" y1="389.68" x2="354.51" y2="353.13" gradientUnits="userSpaceOnUse"><stop offset="0" stop-color="#ff7bac"/><stop offset="0.11" stop-color="#ff7bac" stop-opacity="0.76"/><stop offset="0.31" stop-color="#ff7bac" stop-opacity="0.36"/><stop offset="0.45" stop-color="#ff7bac" stop-opacity="0.1"/><stop offset="0.52" stop-color="#ff7bac" stop-opacity="0"/></linearGradient></defs><title>nisse</title><g class="cls-1"><ellipse class="cls-2" cx="355.88" cy="773.08" rx="220.5" ry="28.9"/><path class="cls-3" d="M296.42,737.05V710.32h36.34v57H273.3A31.37,31.37,0,0,1,296.42,737.05Z"/><path class="cls-3" d="M428.56,737.05V710.32H392.22v57h59.46A31.37,31.37,0,0,0,428.56,737.05Z"/><path class="cls-4" d="M138.94,394.18c7.57-8.52,9.84-18.87,5.07-23.11s-14.79-.77-22.36,7.75c-6.21,7-8.85,15.21-7,20.28L45,477.54l4.94,4.38,69.69-78.44C124.88,404.76,132.73,401.17,138.94,394.18Z"/><path class="cls-3" d="M486.16,252.51c28.66,76.54-54.76,27.33-137.8,22.71-88.2-4.92-137,42.19-134.92-41.88,3.7-149,202.1-232.49,315.87-127.55C531.81,108.1,422,81,486.16,252.51Z"/><circle class="cls-5" cx="186.58" cy="362.63" r="19.82"/><path class="cls-6" d="M175.85,365.94a14,14,0,1,1,28.07,0"/><circle class="cls-5" cx="528.49" cy="367.59" r="19.82"/><path class="cls-6" d="M511.14,372.54a14,14,0,0,1,28.08,0"/><rect class="cls-5" x="186.58" y="263.53" width="341.9" height="436.05" rx="129.31"/><path class="cls-3" d="M528.49,470V570.27A129.31,129.31,0,0,1,399.18,699.58H315.89A129.31,129.31,0,0,1,186.58,570.27V470"/><circle class="cls-7" cx="317.07" cy="336.21" r="33.86"/><circle class="cls-7" cx="384.79" cy="336.21" r="33.86"/><circle cx="406.83" cy="335.9" r="8.26"/><circle cx="332.02" cy="337.9" r="8.26"/><path class="cls-4" d="M351.75,335.51c.47-17.72,13.72-27.59,22-30.93h0c12.65-3.5,25.91-2,35.66,9.46"/><path class="cls-4" d="M350.27,335.51c-.47-17.72-14-27.59-22.32-30.93h0c-12.65-3.5-25.91-2-35.66,9.46"/><line class="cls-6" x1="284.03" y1="336.21" x2="199.8" y2="336.21"/><line class="cls-6" x1="418.65" y1="335.38" x2="514.45" y2="335.38"/><path class="cls-8" d="M517.75,306.43a22.32,22.32,0,0,0-29-21.22,22.25,22.25,0,0,0-32.89-12.66,22.27,22.27,0,0,0-39-7.93,22.28,22.28,0,0,0-38.65-4.08,22.25,22.25,0,0,0-36.18-.21A22.22,22.22,0,0,0,307.33,262a22.24,22.24,0,0,0-34.42,5.43,22.26,22.26,0,0,0-35.52,13.27,22.26,22.26,0,0,0-30.16,20.85c0,.33,0,.65.05,1a21.09,21.09,0,0,0-2.53-.15,22.3,22.3,0,1,0,22.3,22.29c0-.33,0-.65-.05-1a21.08,21.08,0,0,0,2.53.16,22.31,22.31,0,0,0,21.87-18A22.21,22.21,0,0,0,278.64,296a22.23,22.23,0,0,0,31.65-4.48,22.21,22.21,0,0,0,33-3.32,22.24,22.24,0,0,0,34.85-1.86,22.26,22.26,0,0,0,35.68.88,22.31,22.31,0,0,0,20.48,13.47,22.05,22.05,0,0,0,11.53-3.24,22.28,22.28,0,0,0,28.23,15.42A22.32,22.32,0,0,0,489.67,328a22.3,22.3,0,1,0,28.08-21.56Z"/><path class="cls-8" d="M540.87,99.18a11.56,11.56,0,1,0-21.72,5.52,11.56,11.56,0,1,0,14.4,15,11.56,11.56,0,1,0,7.32-20.51Z"/><path class="cls-9" d="M367.72,365.28c3,14.11-14.51,37.05-32.82,24-7.49-5.33-4.94-18.51,2-25"/><rect x="186.58" y="537.71" width="341.9" height="47.9"/><rect class="cls-10" x="317.89" y="535.24" width="80.93" height="52.85"/><path class="cls-11" d="M403.39,421.93c9.08-3,18.94-6.62,28.67-5.16,10.76,1.62,20.05,6.3,31.23,4.54,4.6-.72,9-2.55,13.55-3.23,3.79-.55,7.22.54,10.72,1.93,8.56,3.4,16.47,7.85,26,7.22L504,420l.3,1.15v-5.27c-.36,2.56-2.22,4.84-2.82,7.48a26.58,26.58,0,0,0-.1,9.74c.64,4.56,2.8,9.07-.5,12.86-3.16,3.63-7.4,7.44-12.15,8.5-8.09,1.82-11.7,5.39-14.55,13.09l2.55-4.37,1.21-.49-2.17.55c-1.47.37-3,.74-4.42,1.14q-3.53,1-7,2.13a169.06,169.06,0,0,0-17.65,7.06c-4.94,2.29-9.57,5.05-14.35,7.61s-9,1.09-14-.66c-9.51-3.33-20.3-6.32-29.7-.84-2,1.15-4.37,2.75-5.63,4.74-1.05,1.66-.85,1.38.72.82-1.21.43-3.31-.1-4.61-.17q-9.31-.45-18.61-1.27-18.26-1.59-36.33-4.61c-10.6-1.79-22-3.26-31.56-8.53-9.1-5-17.4-10.13-27.3-13.53-8.34-2.87-16.91-5-25.24-7.85S224,442.45,218.4,435.6c-3.52-4.31-6.24-9.3-10.45-13.05a52.45,52.45,0,0,0-7.35-5.2,23.23,23.23,0,0,0-3-2q-.35-.13-.21-.39a3.29,3.29,0,0,1-.88,3.9l-7,2.9a72.59,72.59,0,0,1,24.33,2.39c10.79,3,17.43-12.44,7.63-18.11l-6.14-3.56-7.64,18.12c8.06,2.26,15.83,1.23,24,.25s16.39-.87,24.59-.91c8,0,16-.22,23.94.11s15.07,2.12,22.76,3.41c8.33,1.41,16.06.16,24.27-1.32a29.62,29.62,0,0,1,9.66-.59c3.42.55,6.6,2.18,10,2.8,8.48,1.54,17.54-.38,26.11-.5,8.41-.12,16.82.24,25.21.83,18.11,1.29,36.94,2.3,54.57,6.9l2.64-19.47a310.83,310.83,0,0,0-56.78,3.22c-4.81.7-7.75,6.54-7.1,10.88.79,5.27,4.69,7.95,9.73,8.59,18.92,2.42,37.92,1.29,56.84-.53,7.75-.75,17.68-3.48,25.23-.86a8.46,8.46,0,0,1,3,1.53c.45.38,1.38,2.06,1.83,2.35.1.06-.13.31-.24.16.33.44-.35-.21,1.68.13l4.37,2.55c-1-1-1.33-3.4-2-4.67a15.53,15.53,0,0,0-5.27-5.82c-4.33-2.8-10.09-3.42-14.61-.61a12.05,12.05,0,0,0-5.26,7.41c-.88,3.51.35,5.8.72,9,.34,3.06-2,5.18-4.37,6.83-8,5.49-18.33,9.3-27.51,12.15a61.34,61.34,0,0,1-14.8,3c-5.65.32-11.25-.6-16.9-.55-10.94.09-20.12,4.68-30.26,8s-19.63,1.37-29.82-.86q-33.69-7.38-66.62-17.86c-11.68-3.72-23.37-7.6-34.79-12.08a75,75,0,0,1-13.54-6.82c-2.8-1.82-8.09-5.4-8.53-8.48V434l.33-1.22-2.55,4.38c-1.37,1.46-.12.27,1,.2a35.18,35.18,0,0,0,3.71-.7q2.88-.48,5.77-.77c5-.52,10-.75,15.06-.8,9.82-.09,19.63.54,29.41,1.29,20.12,1.54,40.1,2.67,60.28,2.5,39.26-.34,79.2-3.47,118.05,3.85,1.65.31,5.67,2,7.31,1.61l0,0q2.19,2.17-1.65-5.74c-.59-.48,1.81-.3-.6-.41-4.17-.19-9.47,1.32-13.55,2.33a81.92,81.92,0,0,0-27.7,12.79c-3.62,2.58-5.79,6.68-4.55,11.19,1.1,4,5.25,7.55,9.56,7.28l19.31-1.2a10.16,10.16,0,0,0,9.91-9.91c.8-14.67-11.4-31.48-27.17-31.13-4.58.11-9.31,2.41-11.67,6.45a14.13,14.13,0,0,0-1.83,6.72c0,1.49.54,3.21.28,4.66-1.09,5.85-10.61,7.07-15.12,7.91C376.9,458.5,360.32,460,343,457.57a493.93,493.93,0,0,1-52.8-10.5,552.35,552.35,0,0,1-57.77-18v19.12c14.42-4.55,30.84.83,44.94,4.44,15.61,4,31.29,8.06,47.52,8.28a9.87,9.87,0,0,0,9.73-8.59c.52-4.36-2.16-10.18-7.1-10.87a46.71,46.71,0,0,1-11.81-3v17.12c2.23-1.46,4.86-1.78,7,.38,1.11,1.13,1.88,3.2,2.92,4.65,2.12,3,4.79,5.53,8.38,6.61,7,2.11,13.95-2.2,16.27-8.83.27-.75,1.84-6.19,1.35-6.52.35.24-1.29,1.26-1.55,1.44,1.29-.9,1.46.66-1-.52l5-18.47-17.1.46c-6.9.18-13.16,8.51-8.56,14.91,11.55,16.07,33.09,23,51.68,15.38,4.7-1.94,9.9-4.65,12.56-9.19,3.57-6.1,1.15-13.26-3.57-17.9-8.3-8.15-21.5-7.26-29.84.06-7.65,6.72.5,19,9.65,16.56a70.73,70.73,0,0,1,18.86-2.58c2.3,0,5,.75,7.23.5,2.74-.31-.29,1.4.66-1.17l6.92-6.92a4.82,4.82,0,0,1-2.46-.75c-11.31-5.87-21.34,11.23-10,17.12,5.85,3,11.26,3.63,17.73,2.74,3.49-.48,5.83-3.95,6.92-6.92,4.09-11.15-5.38-21.6-16-23.51-11.57-2.09-23.92-.65-35.18,2.38l9.64,16.56a1.71,1.71,0,0,1,1.73.1v-5.27l-.45,1.36,2.55-4.37c-3.58,4.28-11,5-16,4.38-5.87-.7-12.08-3.69-15.58-8.57l-8.56,14.92,17.1-.46c9.18-.25,14.33-14,5-18.47-6.49-3.1-13.6-3-19.59,1.23a17.55,17.55,0,0,0-6.58,8.62,18.71,18.71,0,0,0-.77,3.29c-.1.76-.21,1.52-.35,2.28q-1.2,4,3.21-2.8h5.27c2.2.43,2.33,2.19.51-.83a29.11,29.11,0,0,0-3.6-5.07,25.2,25.2,0,0,0-31.41-3.93c-5.53,3.63-7.34,14,0,17.12a64.36,64.36,0,0,0,16.54,4.95l2.64-19.47c-16.32-.23-31.89-5-47.6-8.93-16.06-4-33.87-8.21-50.13-3.09-9.75,3.08-9,15.76,0,19.12a533.65,533.65,0,0,0,110.57,28.47c9.56,1.36,19.16,2.46,28.83,2.09,9.82-.38,19.58-2,29.24-3.72,9-1.57,17.92-3.69,24.91-10a26.53,26.53,0,0,0,7.14-10.9,21.45,21.45,0,0,0,1.19-6.82c0-.95-.14-3.75-.18-3.66L426.27,448q-6.66.92-2.65,1.69c.46.25.92.51,1.37.78a10.66,10.66,0,0,1,2.43,2.13,11.09,11.09,0,0,1,2.31,8.07l9.91-9.91L420.33,452l5,18.46a67,67,0,0,1,27-11.65c4.79-.89,9.64-.95,14.1-3.13,5.56-2.73,9.83-8.16,10.13-14.5.63-13.08-12.5-16.28-22.65-18.07A312.48,312.48,0,0,0,419,419.05c-23.68-1.47-47.42-.65-71.12-.2-23.41.44-46.63-.07-70-1.92-11.68-.92-23.39-1.82-35.12-1.65a155.06,155.06,0,0,0-16,1c-5.89.69-13.1,1-18.47,3.74a13,13,0,0,0-6.87,15.27c1.41,4.81,5.26,9.1,8.86,12.44,7.54,7,16.7,11.38,26.15,15.15,21.09,8.41,43,15.08,64.92,21.06q16.64,4.56,33.47,8.33c11.35,2.55,23,5.49,34.71,3.86,11.21-1.56,21.21-8.73,32.47-9.42,6.27-.38,12.53.85,18.81.51a82.42,82.42,0,0,0,19.21-3.43c11.12-3.34,23.35-8,33.11-14.41,4.88-3.2,9.23-7.27,11.77-12.61,3.27-6.85,2.38-12.54.86-19.63v5.26l-.17.16-3.55,3.55.78-.42-5,1.36c-1.31.16-2.64-2.53-3.23-2-.34.3,1.59,4.13,2.07,5a13.45,13.45,0,0,0,8.87,6.87c7.33,1.57,14.64-2.38,18.72-8.37,8.36-12.29.55-27.27-11.87-32.76-13.53-6-30-1.59-44.14-.45-15.68,1.26-31.4,1.65-47-.35l2.64,19.47a282.56,282.56,0,0,1,51.51-2.52c11.2.43,13.4-16.66,2.63-19.47-16-4.16-32.78-5.25-49.18-6.73-16.77-1.51-33.59-2.37-50.4-1-3.65.31-6.84.56-10.36-.53a51.14,51.14,0,0,0-11.61-2.55c-7.55-.54-14.8,1.93-22.23,2.65-8,.77-16-2.28-23.86-3.25a192.7,192.7,0,0,0-24.26-1c-9,0-18-.16-26.92.31-8.55.44-17.88,3.46-26.28,1.1-10.8-3-17.41,12.46-7.64,18.12l6.15,3.56L219.07,405a89.29,89.29,0,0,0-26-3.29c-5.41.15-10,1.08-13,6a16.69,16.69,0,0,0-1.73,12.37c2.12,8.8,9.23,11.39,15.57,16.47,5.46,4.37,8.43,11.42,13.47,16.29,10,9.63,23.22,14.39,36.25,18.29,6.4,1.92,12.86,3.69,19.14,6,6.6,2.43,12.28,6.19,18.33,9.71,14.9,8.66,32.71,10.81,49.49,13.22,9.3,1.33,18.63,2.47,28,3.33,8.71.79,18.1,2.26,26.83,1.46a16.43,16.43,0,0,0,11.18-5.9c1.93-2.24,2.43-2.83,5.71-2.55,7.52.66,14.29,5.06,21.9,5.9,9.39,1.05,16.43-3.28,24.34-7.57A130.28,130.28,0,0,1,471.38,485c4.11-1.31,8.4-2.11,12.47-3.48a15.74,15.74,0,0,0,6.5-3.91,14.22,14.22,0,0,0,2-2.48c.14-.24,3.33-6.35.33-2.49-2,2.62-1.27,1,.06,1.12a11.39,11.39,0,0,0,3.34-.73,28.34,28.34,0,0,0,6.65-3,66.15,66.15,0,0,0,10-8c7.52-7,10.84-15.29,9.31-25.47-.43-2.87-1.86-6.48-1.14-9.34.34-1.36,1.69-2.92,2.15-4.39a14.43,14.43,0,0,0,.1-8.21c-1.06-4-5.29-7.56-9.56-7.28-8.37.55-15.86-5.05-23.58-7.53a34.15,34.15,0,0,0-14.08-1.55c-5.56.6-10.69,2.82-16.18,3.59-4.41.62-8.69-.68-12.9-1.86a85,85,0,0,0-15.7-3.24c-11.26-.93-22.45,2.53-33,6-12.07,4-6.9,23.11,5.27,19.12Z"/><path class="cls-11" d="M492.75,465a105.51,105.51,0,0,1,1.68,32.54c-.44,4.45,4.11,8.26,8.26,8.26,4.82,0,7.82-3.8,8.26-8.26a120.31,120.31,0,0,0-2.27-36.93c-2.23-10.38-18.15-6-15.93,4.39Z"/><path class="cls-11" d="M477.69,476.39c.34,3.85.71,7.7,1,11.56.22,2.75.81,5.91-.59,8.4-5.24,9.26,9,17.6,14.26,8.33,4.89-8.65,2.65-18.89,1.83-28.29-.92-10.51-17.45-10.61-16.52,0Z"/><path class="cls-11" d="M456.27,486.75l.05,4.86c.08,7.91,11.47,11.6,15.39,4.16l-2.23,1.07-8.26-8.26-.59,10.87,12.43-7.13-.69-.38,3,3c-2.21-3.5-4.59-6.52-9.17-6.52s-7.62,3.49-9,7.43c-2.93,8.48-4.46,17.67-6.54,26.38-2.21,9.26,9.92,14.15,15.09,6.37l.6-.89-3,3,0,.12H459l1.05.24-3.64-2.12.83.67c3.85,3.1,10.34,3.51,13-1.67,3.56-7,9.66-18.3,6.89-26.37-3.43-10-19.39-5.7-15.93,4.39l.13-.92c-.2.86-.42,1.71-.67,2.56-.39,1.43-.83,2.84-1.31,4.23a62.21,62.21,0,0,1-3.37,7.77l13-1.67c-5.9-4.76-13.15-4.12-17.46,2.36l15.1,6.36c2.12-8.89,3.46-18.75,6.89-27.24l-3.8,4.94.68-.51-6.37.83.68.18L459.72,501c1.59,2.19,2.46,4.15,5,5.6,5.66,3.21,12.09-.92,12.43-7.14l.59-10.87c.24-4.4-4-8.34-8.26-8.26a13.37,13.37,0,0,0-12,7.12l15.39,4.17,0-4.86c-.12-10.62-16.63-10.65-16.52,0Z"/><path class="cls-11" d="M438,495a119.64,119.64,0,0,0-2.75,15c-.29,2.41-.4,4.85-.74,7.26a20.48,20.48,0,0,0-.67,3.35c.12,2.08-2.07,0,1.15,0l8,10.46c1.42-10.19,4.36-21.12,1.91-31.31s-18.41-6-15.93,4.39c1.67,6.93-.94,15.56-1.9,22.53-.73,5.23,2,10.42,8,10.45,8.22,0,13.52-6.16,15.16-13.76,1.71-8,1.77-16.09,3.78-24.05C456.48,489.1,440.55,484.7,438,495Z"/><path class="cls-11" d="M405.89,500.43c-.77,7.42-1.83,14.77-3.15,22.11-1.05,5.86,3.68,12.17,10.16,10.16l1-.32h-4.39l1,.41-4.94-3.8.54.93L405,525.76c-.41,9.31,9.91,14.3,16.8,7.77H410.16l.45.52-2.12-3.65.12.68c1,5.91,10,8.22,13.8,3.65,1-1.17,3-2.2,4.16-3.55,2-2.3,2.54-4.79,2.9-7.71a109.22,109.22,0,0,0,.6-18.08c-.48-10.58-17-10.64-16.52,0,.25,5.38,1.09,12.62-.79,17.76l2.13-3.65c-1,1.19-3,2.15-4.16,3.55l13.8,3.64a9.65,9.65,0,0,0-2.69-4.84c-3-3.43-8.62-2.91-11.68,0l-.62.59,5.83-2.42.49.06,4.94,3.79-.44-.74,1.13,4.17c.31-7.19-5.81-12.75-13-10.53l10.16,10.16q2.37-13.17,3.73-26.5c.46-4.44-4.12-8.26-8.25-8.26-4.85,0-7.8,3.81-8.26,8.26Z"/><path class="cls-11" d="M386.5,498.37a84,84,0,0,1-1.95,27l16.22,2.19,0-22.59c0-10.62-16.54-10.64-16.52,0l.05,22.59c0,9.17,14,11.41,16.22,2.2A98.16,98.16,0,0,0,403,498.37c-.88-10.52-17.4-10.61-16.51,0Z"/><path class="cls-11" d="M365.5,508.81a3.64,3.64,0,0,1,.6,2.21c.24,9.19,13.71,11.35,16.22,2.19l-.35.84c5.47-4.75,1-14.22-5.84-14.1-4.86.09-9.78.23-12.53,4.94-1.35,2.3-1.16,4.75-.61,7.24a25.91,25.91,0,0,1,.38,6.73c-.27,9.3-1,18.6,5.78,25.94a8.33,8.33,0,0,0,11.68,0c3.37-3.64,4.59-7.86,4.4-12.78a87.58,87.58,0,0,1,.59-15.27c.6-4.42-1.06-8.87-5.77-10.16-3.85-1.06-9.56,1.32-10.16,5.76-.57,4.23-1.22,8.47-1.37,12.74-.06,1.84,0,3.66.11,5.51.06.71.1,1.42.12,2.14-.19,1.77-.05,1.9.4.38h11.68c-2.27-2.47-1.11-8.51-1-11.51.15-5.14.15-9.74-1.12-14.75l-2.12,8,.57-.62-3.64,2.13a8.28,8.28,0,0,0,2.63.06l-5.84-14.1a12.6,12.6,0,0,0-3.9,6.45l16.23,2.2a18.76,18.76,0,0,0-1.2-6.6c-1.64-4.15-5.52-7-10.16-5.77-3.94,1.08-7.41,6-5.76,10.16Z"/><path class="cls-11" d="M357.53,512.7l.82-.41H350l.9.46-3.79-4.93c.84,2.28-.64,7.8-.8,10.87-.24,4.63,1,9,2.47,13.33a8.37,8.37,0,0,0,15.09,2l.55-.82c5.87-8.9-8.43-17.18-14.26-8.34l-.55.83,15.09,2c-1-3-2-5.76-1.87-8.94.18-3.43.8-6.81.83-10.26.08-8.22-6.51-14-14.48-10-9.49,4.79-1.14,19,8.34,14.26Z"/><path class="cls-11" d="M337.9,496.34a45.17,45.17,0,0,1-7.9-2.2c-6.07-2.31-11.68,4.53-10.15,10.16q2.79,10.32,6.57,20.32c2.31,6.1,11.59,8.84,15.1,2a23.77,23.77,0,0,0,2.87-13.54c-1.08-10.41-16-10.82-16.51,0-.42,9.08,1.3,26.37,14.78,22.51,6.81-1.95,8.13-11.47,2-15.09l-.85-.5,3,3-.52-.85,1.13,4.17-.06-1c-.6-10.57-17.12-10.64-16.52,0,.25,4.23,1.8,7.28,5.52,9.46l2-15.1-.87.25h4.39l.29,0,3,3c-1.4-2.49-.78-7.14-.66-9.83H327.88a8.34,8.34,0,0,1-.63,5.2l15.1,2q-3.8-10-6.58-20.32l-10.16,10.16a45.42,45.42,0,0,0,7.9,2.2c4.38.8,8.91-1.2,10.16-5.77,1.1-4-1.36-9.35-5.77-10.16Z"/><path class="cls-11" d="M293.59,492.56a43,43,0,0,0,7.09,26.78,8.36,8.36,0,0,0,14.26,0l.7-1.08-4.94,3.8c.78-.29,3.35-.61,4.69-1.39a10.57,10.57,0,0,0,4.48-6.6,18.83,18.83,0,0,0,.33-7.21c-.2-1.62-1.41-3.75-1.41-5.23l-1.13,4.17.5-.89-15.39-4.16c-.74,7.55,1,12.44,5.63,18.31s8.15,10.45,16.15,11.37c4.44.51,8.26-4.16,8.26-8.26,0-4.88-3.81-7.75-8.26-8.26,2.06.24,0-.73-.73-1.67-1.26-1.54-2.63-3.21-3.75-4.86-1.45-2.14-1-3.95-.78-6.63.83-8.4-11.56-10.91-15.39-4.17a11.11,11.11,0,0,0-1.33,8.31c.25,1.07,1.65,4.25,1.52,4.48l4.93-3.79c2.06-.45-3,.64-3.7,1a10.9,10.9,0,0,0-4.64,4.46h14.26a28.26,28.26,0,0,1-4.84-18.45c.76-10.61-15.76-10.56-16.51,0Z"/><path class="cls-11" d="M276.56,488l-.1,3.42,16.22-2.19a19.79,19.79,0,0,1-.93-3.79l-15.09,6.37c1.2,2.45.81,5.72,1.5,8.37a34.44,34.44,0,0,0,3.95,9.18c5.5,9.08,19.79.79,14.27-8.33-3.31-5.47-2.69-11.87-5.46-17.56-1.78-3.65-6.82-4.92-10.31-3.38-4.06,1.78-5.4,5.54-4.78,9.74a19.77,19.77,0,0,0,.92,3.79c3,8.67,15.95,7.4,16.22-2.2l.1-3.42c.31-10.63-16.21-10.62-16.51,0Z"/><path class="cls-11" d="M270.08,473.23c-4-1.93-8.59-1.91-11.93,1.42s-3.22,7.44-1.62,11.54c.77,2,.84,4,1.34,6.2A26.08,26.08,0,0,0,262,501.6c2.55,3.65,7.22,5.35,11.3,3,3.61-2.12,5.53-7.63,3-11.3a15,15,0,0,1-2.67-6.36,37.29,37.29,0,0,0-2.93-9.34l1.12,4.17,0-.68-1.12,4.16.4-.56-3,3,.62-.36-4.17,1.13.69-.08-4.17-1.12.62.3c4,1.94,8.92,1.09,11.3-3,2.11-3.62,1.07-9.35-3-11.3Z"/><path class="cls-11" d="M252.54,469.3a18.05,18.05,0,0,0-11.67-4.67c-4.84-.18-7.74,4-8.25,8.26a66.88,66.88,0,0,0,.67,19.21c1.34,8,14.37,7.74,15.93,0a4.13,4.13,0,0,1,2.67-3.59l-12.43-7.14a20.91,20.91,0,0,0,3,12.94,13.46,13.46,0,0,0,4.47,4.38,19.39,19.39,0,0,0,3,1.36c.46.17,2.56,1.24,1.09.06l8-13.8L253,484.06l-3-1.13c.56-.16,1,.13,1.37.87l1.13,4.17v-.88c-.14-10.62-16.66-10.65-16.52,0,.13,10.1,11.09,12.31,18.75,15.15s14.43-8.7,8-13.8c-2-1.56-4.63-3.72-7.26-3.92-.85-.34-.78-.2.21.43q1.19,1.16.57.27s-.23-3.73-.22-3.85c.62-6.65-7.36-9.72-12.43-7.13a19.61,19.61,0,0,0-10.26,13.47h15.93a52.55,52.55,0,0,1-.09-14.82l-8.26,8.26c.47.07.47,0,0-.17,3.42,2.86,8.34,3.34,11.68,0,3-3,3.44-8.8,0-11.68Z"/><path class="cls-11" d="M204.84,452.79a37.07,37.07,0,0,0,12.86,28.68c3.92,3.31,10.23,3.31,13-1.67a40.83,40.83,0,0,0,3.81-9.46c2.68-10.29-13.25-14.69-15.93-4.39a22.53,22.53,0,0,1-2.15,5.51l13-1.67c-5.24-4.44-8.1-10.08-8-17,.12-10.63-16.4-10.64-16.51,0Z"/><path class="cls-11" d="M193.62,436.7c-4.23,8.45-4.81,17.8.42,26,5.69,8.95,20,.67,14.26-8.33a8.75,8.75,0,0,1-.42-9.36c2-4,1.06-9-3-11.3-3.66-2.14-9.3-1-11.3,3Z"/><path class="cls-11" d="M182.08,423.22a51.39,51.39,0,0,0-3.73,11.65c-.75,4.24,1.13,9.1,5.76,10.16,4,.92,9.36-1.22,10.16-5.77a44.66,44.66,0,0,1,1-4.58q.3-1.05.66-2.07c.12-.34,1.08-2.72.36-1.06,1.71-3.95,1.31-9-3-11.3-3.56-1.88-9.47-1.27-11.3,3Z"/><path class="cls-12" d="M349.49,409.82a51,51,0,0,1,54.42,5.25c2.47,2,6-1.52,3.51-3.51a56.18,56.18,0,0,0-60.43-6c-2.84,1.46-.33,5.74,2.5,4.28Z"/><path class="cls-12" d="M393.07,406.08c22.6-8.88,49.83-11.05,69.25,6.1,2.38,2.1,5.9-1.39,3.5-3.51-20.75-18.33-49.68-16.95-74.07-7.37-2.93,1.16-1.66,5.95,1.32,4.78Z"/><path class="cls-12" d="M454.83,403.82a59.57,59.57,0,0,1,55,8.76c2.55,1.92,5-2.38,2.5-4.27a64.12,64.12,0,0,0-58.79-9.26c-3,1-1.72,5.81,1.31,4.77Z"/><path class="cls-12" d="M509.75,402.93c14.77,4.61,24.26,19.51,22.67,34.8-.33,3.17,4.62,3.15,5,0,1.83-17.49-9.59-34.36-26.3-39.57-3.05-1-4.36,3.83-1.32,4.77Z"/><path class="cls-12" d="M519.65,428.45c1.09,11.11,2.13,22.83-3.57,32.93-1.57,2.78,2.71,5.28,4.28,2.5,6.17-10.93,5.43-23.36,4.24-35.43-.31-3.14-5.27-3.17-5,0Z"/><path class="cls-12" d="M358,404.66A54.12,54.12,0,0,0,302.17,406c-2.68,1.72-.2,6,2.5,4.28a49.09,49.09,0,0,1,50.82-1.34c2.77,1.58,5.27-2.7,2.5-4.28Z"/><path class="cls-12" d="M310.68,401.91a71.7,71.7,0,0,0-61,1.69c-2.85,1.44-.34,5.71,2.5,4.28a66.37,66.37,0,0,1,56-1.69c2.89,1.26,5.42-3,2.5-4.28Z"/><path class="cls-12" d="M257.13,399.39a44.27,44.27,0,0,0-46.3,6.2c-2.46,2,1.06,5.51,3.51,3.5a39,39,0,0,1,40.29-5.42c2.89,1.28,5.41-3,2.5-4.28Z"/><path class="cls-12" d="M215.93,400c-10-2.89-21.08-4.21-30.9.06-8,3.46-14.3,10.2-16.05,18.84-.63,3.11,4.14,4.44,4.78,1.32,3.84-18.94,25.9-19.77,40.85-15.44,3.07.88,4.38-3.9,1.32-4.78Z"/><path class="cls-12" d="M180.92,414.68a31.8,31.8,0,0,0-4.4,27.62c.91,3.05,5.69,1.75,4.78-1.32a27,27,0,0,1,3.9-23.8c1.83-2.62-2.46-5.1-4.28-2.5Z"/><path class="cls-12" d="M193,428.5a43.49,43.49,0,0,0-2.37,37.44c1.17,2.92,6,1.64,4.77-1.32A38.77,38.77,0,0,1,197.23,431c1.54-2.79-2.74-5.3-4.28-2.5Z"/><path class="cls-12" d="M201.4,444.9a47.66,47.66,0,0,0,14.2,38.56c2.28,2.23,5.79-1.27,3.5-3.51a42.91,42.91,0,0,1-12.74-35.05c.29-3.17-4.66-3.15-5,0Z"/><path class="cls-12" d="M252.25,469A56.9,56.9,0,0,0,255,492.8c2,5.81,4.92,13.56,10.68,16.52,2.83,1.46,5.34-2.81,2.5-4.27-5.27-2.72-7.92-11.49-9.4-16.77A53.57,53.57,0,0,1,257.2,469c.29-3.18-4.67-3.16-4.95,0Z"/><path class="cls-12" d="M271.7,474.35c-1.07,8.29.53,16.36,3.27,24.19,2.15,6.19,4.42,13.58,9.64,17.91,2.44,2,6-1.46,3.5-3.5-4.94-4.1-7-11.53-8.94-17.43-2.27-6.92-3.46-13.9-2.52-21.17.41-3.15-4.55-3.12-4.95,0Z"/><path class="cls-12" d="M402.66,491.3c.5,13.53.95,27.5-4.42,40.22-1.22,2.9,3,5.43,4.28,2.5,5.76-13.63,5.63-28.17,5.1-42.72-.12-3.18-5.08-3.19-5,0Z"/><path class="cls-12" d="M362.28,497.93c-.06,8.72-.12,17.43,0,26.15.11,7.57-.06,15.34,2.49,22.57,1.06,3,5.84,1.7,4.78-1.32-2.61-7.39-2.25-15.45-2.34-23.19-.1-8.07,0-16.14,0-24.21,0-3.19-4.93-3.19-5,0Z"/><path class="cls-12" d="M229.82,463.15c-.19,7-.38,14,0,21,.25,5,0,11.65,3.15,15.82,1.91,2.51,6.21,0,4.28-2.5-3.1-4.09-2.49-12.11-2.61-17.13-.15-5.72,0-11.45.17-17.17.09-3.19-4.87-3.19-5,0Z"/><path class="cls-12" d="M505.31,458.08a130,130,0,0,1,1.51,49.61c-.51,3.12,4.27,4.46,4.78,1.32a136.73,136.73,0,0,0-1.52-52.25c-.69-3.11-5.47-1.79-4.77,1.32Z"/><path class="cls-12" d="M493.37,471.84c.44,12.66.71,25.35-3.4,37.5-1,3,3.76,4.33,4.78,1.32,4.24-12.55,4-25.73,3.58-38.82-.11-3.18-5.07-3.19-5,0Z"/><path class="cls-12" d="M475.93,482.63A94.25,94.25,0,0,1,468.45,531c-1.29,2.89,3,5.42,4.27,2.5a98.92,98.92,0,0,0,8.16-50.85c-.33-3.14-5.29-3.17-4.95,0Z"/><path class="cls-12" d="M452.42,491.32a82.91,82.91,0,0,1-8.34,42.18c-1.4,2.85,2.87,5.36,4.28,2.5a88,88,0,0,0,9-44.68c-.21-3.17-5.16-3.19-5,0Z"/><path class="cls-12" d="M426.14,504.6a76.41,76.41,0,0,1-4.54,36.18c-1.13,3,3.66,4.27,4.78,1.32a79.63,79.63,0,0,0,4.72-37.5c-.36-3.13-5.32-3.17-5,0Z"/><path class="cls-12" d="M290.7,491.73a52.61,52.61,0,0,0,10,34.07c1.86,2.55,6.16.08,4.28-2.5a48.29,48.29,0,0,1-9.35-31.57c.17-3.19-4.78-3.18-5,0Z"/><path class="cls-12" d="M314.7,491.3c1.74,17.07,8.93,32.46,17.11,47.32,1.53,2.8,5.82.3,4.28-2.5-7.72-14-14.79-28.69-16.43-44.82-.32-3.14-5.28-3.17-5,0Z"/><path class="cls-12" d="M341.47,498.76a113.39,113.39,0,0,0,7.18,40.43c1.11,3,5.9,1.68,4.78-1.32a109.29,109.29,0,0,1-7-39.11c0-3.19-4.94-3.19-5,0Z"/><path class="cls-12" d="M381.87,507.89a333.87,333.87,0,0,1-.66,42.67c-.25,3.18,4.7,3.16,5,0a332.05,332.05,0,0,0,.67-42.67c-.16-3.18-5.11-3.2-5,0Z"/><path class="cls-13" d="M375.7,448.52c4.75,14.59-11.29-9.54-26.42-9.08s-29.53,25.69-24.78,9.08c3.88-13.59,11.46-25.6,25.6-25.6S371.33,435.08,375.7,448.52Z"/><rect class="cls-3" x="558.35" y="469.51" width="13.98" height="91.87" rx="6.99" transform="translate(-173.05 715.63) rotate(-57.53)"/><ellipse class="cls-14" cx="502.43" cy="596.36" rx="12.9" ry="8.6" transform="translate(-241.27 361.88) rotate(-32.39)"/><rect class="cls-3" x="506.88" y="553.39" width="105.45" height="13.98" rx="6.99" transform="translate(-213.11 386.91) rotate(-32.39)"/><rect class="cls-11" x="507.28" y="580.52" width="17.11" height="14.07" transform="matrix(0.84, -0.54, 0.54, 0.84, -234.48, 367.69)"/><ellipse class="cls-14" cx="500.41" cy="587.27" rx="3.3" ry="4.96" transform="translate(-146.88 1007.16) rotate(-82.54)"/><rect class="cls-3" x="104.1" y="511.43" width="91.87" height="13.98" rx="6.99" transform="translate(-299.93 220.42) rotate(-40.34)"/><ellipse class="cls-14" cx="91.32" cy="434.42" rx="8.6" ry="12.9" transform="translate(-110.74 39.16) rotate(-15.2)"/><rect class="cls-3" x="101.81" y="446.94" width="13.98" height="105.45" rx="6.99" transform="translate(-127.24 46.03) rotate(-15.2)"/><rect class="cls-11" x="88.72" y="441.27" width="14.07" height="17.11" transform="translate(-114.62 40.86) rotate(-15.2)"/><ellipse class="cls-14" cx="100.6" cy="435.17" rx="4.96" ry="3.3" transform="translate(-336.88 345.15) rotate(-65.36)"/><path class="cls-15" d="M425.74,693.33a10.65,10.65,0,0,0-7.33,3.22,10.72,10.72,0,0,0-15.66,1.36,10.74,10.74,0,1,0,.42,13.71,10.73,10.73,0,0,0,15.71.4,10.73,10.73,0,1,0,6.86-18.69Z"/><path class="cls-15" d="M330.41,694a10.67,10.67,0,0,0-7.47,2.91,10.72,10.72,0,0,0-15.7.69,10.74,10.74,0,1,0-.16,13.72,10.73,10.73,0,0,0,15.68,1.06A10.73,10.73,0,1,0,330.41,694Z"/></g></svg>
