<svg id="Layer_1" data-name="Layer 1" xmlns="http://www.w3.org/2000/svg" xmlns:xlink="http://www.w3.org/1999/xlink" viewBox="0 0 606.48 366.63"><defs><style>.cls-1{filter:url(#AI_BevelShadow_1);}.cls-2{fill:#fbb03b;}.cls-3{fill:#f7931e;}.cls-4{fill:#fff;stroke:#006837;stroke-miterlimit:10;stroke-width:4px;}</style><filter id="AI_BevelShadow_1" x="-20" y="-20" width="140" height="140" name="AI_BevelShadow_1"><feGaussianBlur result="blur" stdDeviation="4" in="SourceAlpha"/><feOffset result="offsetBlur" dx="4" dy="4" in="blur"/><feSpecularLighting result="specOut" surfaceScale="5" specularExponent="10" in="blur"><fePointLight x="-5000" y="-10000" z="-20000"/></feSpecularLighting><feComposite result="specOut" operator="in" in="specOut" in2="SourceAlpha"/><feComposite result="litPaint" operator="arithmetic" k2="1" k3="1" in="SourceGraphic" in2="specOut"/><feMerge><feMergeNode in="offsetBlur"/><feMergeNode in="litPaint"/></feMerge></filter></defs><title>playknap</title><g class="cls-1"><path class="cls-2" d="M534.91,238.89C554.33,339.05,419.12,307.43,308.4,308c-112.88.54-253.17,24.13-225.62-74.59,22.64-81.12,116.38-187.52,222.5-189.49S519.13,157.49,534.91,238.89Z"/><path class="cls-3" d="M310.34,43c-17.07-.4-34.79-.82-51,5.22a1.51,1.51,0,0,0,.4,2.95l4.76.05a1.5,1.5,0,0,0,0-3l-4.76-.05.4,2.94c16-6,33.42-5.5,50.24-5.11,1.93.05,1.93-2.95,0-3Z"/><path class="cls-3" d="M312,46.51c18.61-2.2,38-.17,55.16,7.53,1.75.78,3.28-1.81,1.52-2.59C351,43.53,331.19,41.25,312,43.51c-1.9.23-1.92,3.23,0,3Z"/><path class="cls-3" d="M339.87,50.2c15-1.21,30.69,4.86,45.1,8.5,1.87.48,2.67-2.42.8-2.89-14.7-3.72-30.55-9.85-45.9-8.61-1.91.15-1.93,3.16,0,3Z"/><path class="cls-3" d="M361.77,59.4c6.78-.52,13.63-1,20.41-.32,7.46.81,13.86,4.15,20.55,7.29,1.73.82,3.26-1.77,1.51-2.59-6.54-3.07-12.79-6.41-20-7.45-7.43-1.06-15-.5-22.44.07-1.91.14-1.92,3.14,0,3Z"/><path class="cls-3" d="M376.19,63.26c13.21-.4,30.11-.39,40.12,9.7a1.5,1.5,0,0,0,2.12-2.12c-10.61-10.7-28.2-11-42.24-10.58-1.92.06-1.93,3.06,0,3Z"/><path class="cls-3" d="M386.18,71.49c14-1.14,28.78,2.93,42.54,5.08,1.89.3,2.7-2.59.8-2.89-14-2.18-29.12-6.35-43.34-5.19-1.91.16-1.93,3.16,0,3Z"/><path class="cls-3" d="M399.93,78.32c11.45,2.46,22.74,6,34.05,9.08a1.5,1.5,0,0,0,.79-2.9c-11.3-3.06-22.59-6.61-34-9.07-1.88-.41-2.69,2.48-.8,2.89Z"/><path class="cls-3" d="M400.91,85.44a200.52,200.52,0,0,1,49.95,9.06c1.84.59,2.63-2.31.8-2.89a204.14,204.14,0,0,0-50.75-9.17c-1.93-.11-1.92,2.89,0,3Z"/><path class="cls-3" d="M424.56,93.92a452.12,452.12,0,0,1,52.95,18.25c1.78.74,2.56-2.16.8-2.89A454,454,0,0,0,425.36,91a1.51,1.51,0,0,0-.8,2.9Z"/><path class="cls-3" d="M429.26,100.67q21.66,7.39,42.93,15.86c1.79.72,2.57-2.18.8-2.89q-21.27-8.48-42.93-15.86c-1.83-.63-2.62,2.27-.8,2.89Z"/><path class="cls-3" d="M429.77,112.47c7.06.85,14,4,20.65,6.25l20.76,7.07c1.83.62,2.62-2.28.8-2.9l-22.56-7.68c-6.43-2.19-12.87-4.92-19.65-5.74-1.91-.23-1.89,2.77,0,3Z"/><path class="cls-3" d="M454.77,126.6c6.53-.26,13.61,2.76,19.69,4.94a167.43,167.43,0,0,1,17.82,7.62c1.72.85,3.24-1.74,1.51-2.59a170.14,170.14,0,0,0-18.54-7.92c-6.41-2.3-13.57-5.32-20.48-5.05-1.92.08-1.93,3.08,0,3Z"/><path class="cls-3" d="M464.81,139.74c6.33.33,12.39,3.38,18.15,5.81s11.41,5,17,7.82c1.72.85,3.24-1.74,1.51-2.6q-9.08-4.5-18.42-8.41c-5.86-2.46-11.81-5.28-18.24-5.62-1.93-.1-1.92,2.91,0,3Z"/><path class="cls-3" d="M473.42,147.53A32.53,32.53,0,0,1,485,153.27c3.34,2.49,4.69,6.21,7.48,9.16,5.16,5.45,12.24,9.5,18.27,13.9,1.56,1.14,3.06-1.46,1.51-2.59l-10.46-7.64a43,43,0,0,1-10.79-11c-3.56-5.09-10.8-9.17-16.78-10.48-1.88-.41-2.69,2.48-.8,2.89Z"/><path class="cls-3" d="M481.17,169.17a332.4,332.4,0,0,0,43,19.51c1.82.68,2.6-2.22.8-2.89a325.49,325.49,0,0,1-42.27-19.21c-1.7-.93-3.21,1.66-1.52,2.59Z"/><path class="cls-3" d="M493.09,187.83a90.45,90.45,0,0,1,32.05,8.28c1.73.83,3.26-1.76,1.51-2.59a94.59,94.59,0,0,0-33.56-8.69c-1.93-.15-1.92,2.85,0,3Z"/><path class="cls-3" d="M509.52,196.17c3.79,2,6,5.25,10.18,6.86,5.27,2,9.4,3.76,13.35,8,1.32,1.41,3.44-.71,2.12-2.12a26.89,26.89,0,0,0-10.77-7.39c-2.36-.87-5-1.49-7.07-2.89-2.31-1.54-3.79-3.76-6.29-5-1.72-.88-3.24,1.71-1.52,2.59Z"/><path class="cls-3" d="M277.46,49c-14.87,1.77-30.37-1.92-44.8,3.14-1.81.63-1,3.53.8,2.89,14.14-5,29.41-1.29,44-3,1.9-.22,1.92-3.23,0-3Z"/><path class="cls-3" d="M254.36,57.34a71.77,71.77,0,0,0-11.82,0c-3.46.38-6.14,1.64-9.33,2.75-4.06,1.42-9.09.88-13.41,1.28-4,.38-8,.94-12,1.64-1.89.33-1.09,3.23.8,2.89,4.59-.8,9.2-1.42,13.85-1.76,3.19-.23,6.62.09,9.74-.55s5.82-2.54,9.09-3.08c4.28-.72,8.72-.44,13-.21,1.93.1,1.93-2.9,0-3Z"/><path class="cls-3" d="M231.4,67c-7.54.38-14.48-.06-21.78,2.23s-14.63,4.73-22,7.1c-1.83.59-1,3.49.8,2.89l20.19-6.53c7.71-2.48,14.78-2.29,22.74-2.69,1.92-.1,1.94-3.1,0-3Z"/><path class="cls-3" d="M211,80.67c-11.28-.28-22.58-.43-33.62,2.18-1.88.45-1.09,3.34.79,2.9C189,83.2,200,83.4,211,83.67c1.93,0,1.93-3,0-3Z"/><path class="cls-3" d="M198.79,88.8a205.27,205.27,0,0,0-29.64,1.52c-7.63,1-15.77,1.82-22.62,5.57-1.69.93-.18,3.52,1.51,2.59,7.33-4,16.76-4.73,24.9-5.6a206.59,206.59,0,0,1,25.85-1.08c1.93,0,1.93-3,0-3Z"/><path class="cls-3" d="M188.72,95.35a221.77,221.77,0,0,0-42.41,13.36c-1.77.77-.24,3.35,1.52,2.59a217.19,217.19,0,0,1,41.68-13c1.89-.4,1.09-3.29-.79-2.9Z"/><path class="cls-3" d="M183.73,105.14c-9,2.38-18.09,4.76-27.09,7.27-7.2,2-16,3.38-22.14,7.85-1.54,1.12-.05,3.73,1.52,2.59,6.37-4.61,15.81-6,23.27-8.06,8.4-2.33,16.82-4.54,25.24-6.76a1.5,1.5,0,0,0-.8-2.89Z"/><path class="cls-3" d="M167,116.19c-14.41,6.26-29.46,12.53-41.09,23.39-1.42,1.32.71,3.44,2.12,2.13,11.42-10.67,26.34-16.78,40.48-22.93,1.77-.77.24-3.35-1.51-2.59Z"/><path class="cls-3" d="M146,135.62c-12,.95-23.79,8.15-32.06,16.61-1.35,1.38.76,3.51,2.12,2.12,7.66-7.83,18.82-14.85,29.94-15.73,1.92-.15,1.93-3.16,0-3Z"/><path class="cls-3" d="M132.54,149.52A220,220,0,0,0,99,170c-1.53,1.15,0,3.75,1.51,2.59a220.11,220.11,0,0,1,33.56-20.52c1.73-.86.21-3.45-1.52-2.59Z"/><path class="cls-3" d="M128.42,162.49a191.07,191.07,0,0,0-39.14,26.45c-1.45,1.28.68,3.4,2.12,2.12a188.25,188.25,0,0,1,38.53-26c1.72-.89.2-3.48-1.51-2.59Z"/><path class="cls-3" d="M114.48,181.05c-11.6,7.38-22,16.4-30,27.67-1.11,1.57,1.49,3.07,2.6,1.51,7.67-10.84,17.72-19.49,28.88-26.59,1.62-1,.12-3.63-1.52-2.59Z"/><path class="cls-3" d="M104,200.33c-12.57,5.83-21.48,18.27-27.92,30.15-.92,1.7,1.67,3.21,2.59,1.51,6.22-11.47,14.7-23.44,26.85-29.07,1.75-.81.22-3.4-1.52-2.59Z"/><path class="cls-3" d="M97.29,221C86,229.66,73.42,238.66,67.16,251.88c-.82,1.74,1.76,3.26,2.59,1.51,6-12.73,18.15-21.46,29.06-29.79,1.51-1.15,0-3.76-1.52-2.59Z"/><path class="cls-3" d="M89.44,238.42c-1.94,6.09-6.46,10.88-9.1,16.64a40.76,40.76,0,0,0-3.61,15.07c-.09,1.93,2.91,1.93,3,0a38.48,38.48,0,0,1,5.75-18.32c2.51-4.14,5.37-7.92,6.85-12.59.58-1.85-2.31-2.64-2.89-.8Z"/><path class="cls-3" d="M96.86,261.58c-4.33,8.16-12.81,21.24-7.13,30.39,1,1.63,3.61.13,2.59-1.52-4.8-7.74,3.49-20.49,7.13-27.36.91-1.7-1.68-3.22-2.59-1.51Z"/><path class="cls-3" d="M107.11,273.39c-1.2,5.12.88,9.47,2.87,14.14q4,9.33,8.2,18.53c.8,1.75,3.39.23,2.59-1.52q-3-6.59-5.92-13.22c-2.24-5.16-6.21-11.3-4.85-17.14.44-1.88-2.45-2.68-2.89-.79Z"/><path class="cls-3" d="M511.8,208.26c12.58,3.11,24.8,8.74,33.42,18.67,1.27,1.46,3.38-.67,2.12-2.12-8.94-10.3-21.71-16.22-34.74-19.44-1.87-.47-2.67,2.43-.8,2.89Z"/><path class="cls-3" d="M517.82,223.92c5.26,1.86,10.47,3.86,15.58,6.11,2.58,1.14,4.93,2.08,6.9,4.12,1.61,1.65,2.61,3.55,4.38,5.06,1.46,1.25,3.59-.86,2.12-2.12-1.91-1.64-2.83-4-4.65-5.69-2-1.87-4.79-2.88-7.24-4-5.34-2.35-10.79-4.47-16.29-6.42-1.83-.64-2.61,2.26-.8,2.9Z"/><path class="cls-3" d="M518.43,234.89c4.25,10.15,18.79,9,24.45,17.76,1,1.62,3.64.12,2.59-1.51-2.51-3.87-6.65-5.95-10.69-7.9-4.38-2.1-11.41-4.26-13.45-9.15-.74-1.75-3.64-1-2.9.8Z"/><path class="cls-3" d="M517.69,250.46c3.41,3.73,8.48,4.89,12.49,7.78,4.71,3.41,6.77,8.52,8.48,13.88.59,1.83,3.49,1.05,2.9-.8-1.52-4.74-3.27-9.44-6.79-13.1-4.27-4.43-10.87-5.41-15-9.88-1.31-1.43-3.43.7-2.12,2.12Z"/><path class="cls-3" d="M518.23,267.91c7.3,5.86,10.27,13.79,12.65,22.56a1.5,1.5,0,0,0,2.89-.8c-2.5-9.23-5.75-17.72-13.42-23.88-1.49-1.2-3.62.91-2.12,2.12Z"/><path class="cls-3" d="M516.75,279.56l3.67,23.58c.3,1.91,3.19,1.1,2.89-.79l-3.67-23.59c-.3-1.9-3.19-1.09-2.89.8Z"/><path class="cls-3" d="M504.34,289.12q.46,15,.38,30l2.25-1.3-1.43-1c-1.58-1.12-3.08,1.48-1.52,2.59l1.44,1a1.51,1.51,0,0,0,2.26-1.29q.09-15-.38-30c-.06-1.93-3.06-1.93-3,0Z"/><path class="cls-3" d="M488,295.87a56.72,56.72,0,0,1-.35,17.35c-.32,1.89,2.57,2.7,2.9.8a61.76,61.76,0,0,0,.34-18.95c-.26-1.9-3.15-1.09-2.89.8Z"/><path class="cls-3" d="M470.34,301.36a90.5,90.5,0,0,1-1.14,22.35c-.33,1.89,2.56,2.7,2.89.8a93.55,93.55,0,0,0,1.25-23.15c-.13-1.92-3.13-1.93-3,0Z"/><path class="cls-3" d="M452.86,303.09a114.14,114.14,0,0,1-4.16,20.55c-.56,1.85,2.34,2.64,2.89.8a118.57,118.57,0,0,0,4.27-21.35c.2-1.92-2.8-1.91-3,0Z"/><path class="cls-3" d="M434.47,305.38l-3.92,15.78c-.46,1.87,2.43,2.67,2.9.8l3.91-15.79c.47-1.87-2.43-2.67-2.89-.79Z"/><path class="cls-3" d="M417,307.86a28.59,28.59,0,0,1-1.77,14.55c-.68,1.8,2.22,2.59,2.9.8a31.76,31.76,0,0,0,1.77-16.15c-.28-1.9-3.17-1.09-2.9.8Z"/><path class="cls-3" d="M397,303.18l-.38,26a1.5,1.5,0,0,0,3,0l.38-26c0-1.93-3-1.93-3,0Z"/><path class="cls-3" d="M380.51,301.17l.31,16.7c0,1.93,3,1.94,3,0l-.31-16.7c0-1.93-3-1.94-3,0Z"/><path class="cls-3" d="M356.29,302.55l.29,15.77c0,1.93,3,1.94,3,0l-.29-15.77c0-1.93-3-1.94-3,0Z"/><path class="cls-3" d="M328.51,304l.33,18.1c0,1.93,3,1.93,3,0l-.33-18.1c0-1.93-3-1.93-3,0Z"/><path class="cls-3" d="M127.75,294.66c1.52,9.81-1.56,19.1,8.38,25.11,1.65,1,3.16-1.59,1.51-2.59-8.87-5.37-5.67-14.74-7-23.32-.29-1.9-3.19-1.09-2.89.8Z"/><path class="cls-3" d="M139.2,296.36c-.39,11,8.45,19,17.79,23.22,1.74.78,3.27-1.8,1.51-2.59-8.36-3.78-16.65-10.63-16.3-20.63.07-1.93-2.93-1.93-3,0Z"/><path class="cls-3" d="M170.53,295.91c-2.7,9.11,1.56,17.49,8.68,23.19,1.49,1.2,3.63-.91,2.12-2.12-6.3-5.05-10.32-12.11-7.91-20.27.55-1.85-2.35-2.65-2.89-.8Z"/><path class="cls-3" d="M192.46,295.93c-1.82,9.54,1.59,18.11,8.09,25.1,1.32,1.42,3.43-.71,2.12-2.12-5.73-6.16-8.93-13.72-7.32-22.18.36-1.89-2.53-2.7-2.89-.8Z"/><path class="cls-3" d="M228.63,298a160.54,160.54,0,0,0,1.06,24.11c.23,1.9,3.23,1.92,3,0A160.54,160.54,0,0,1,231.63,298c.06-1.94-2.94-1.93-3,0Z"/><path class="cls-3" d="M250.57,300.28l4.27,19.39c.41,1.89,3.3,1.09,2.89-.8l-4.26-19.39c-.42-1.88-3.31-1.08-2.9.8Z"/><path class="cls-3" d="M277,297.52,277.4,317c0,1.93,3,1.93,3,0L280,297.52c0-1.93-3-1.94-3,0Z"/><path class="cls-3" d="M309.89,300.16l.36,19.49c0,1.93,3,1.93,3,0l-.36-19.49c0-1.93-3-1.94-3,0Z"/><path class="cls-3" d="M267.3,85.07c-10.52,5.27-20.36,14.67-19.85,27.3.08,1.93,3.08,1.94,3,0-.47-11.58,8.79-19.91,18.37-24.71,1.72-.87.2-3.46-1.52-2.59Z"/><path class="cls-3" d="M213.93,119.15c-8.53,5.75-9.18,14.11-7.84,23.65.27,1.9,3.16,1.09,2.89-.8-1.13-8-.85-15.33,6.47-20.26,1.59-1.07.09-3.67-1.52-2.59Z"/><path class="cls-3" d="M271,94.92c-2.94,7.85,1,15.1,7.23,19.9,1.53,1.17,3-1.43,1.51-2.59-5.29-4-8.3-10-5.85-16.51.68-1.81-2.22-2.59-2.89-.8Z"/><path class="cls-3" d="M218.4,126.43c-1.13,7.16,3.49,12.86,7.77,18.09,1.23,1.49,3.34-.64,2.13-2.13-3.45-4.2-7.93-9.3-7-15.17.3-1.88-2.59-2.7-2.89-.79Z"/><path class="cls-3" d="M206,116.4c-7.92-1-15.14,5.67-20.41,10.8-1.39,1.35.73,3.47,2.12,2.12,4.7-4.58,11.23-10.78,18.29-9.92,1.91.24,1.89-2.76,0-3Z"/><path class="cls-3" d="M345.27,68.13c11.07,1.84,22.89,6.39,29.23,16.2,1,1.62,3.64.11,2.59-1.52-6.77-10.47-19.14-15.6-31-17.57-1.89-.32-2.7,2.57-.8,2.89Z"/><path class="cls-3" d="M347.64,74.78c3.68,2.48,6.9,5.73,8.48,10,.67,1.79,3.57,1,2.89-.8-1.87-5-5.48-8.79-9.85-11.74-1.61-1.08-3.11,1.52-1.52,2.59Z"/><path class="cls-3" d="M339.23,74.93l.17,9.28c0,1.93,3,1.94,3,0l-.17-9.28c0-1.93-3-1.93-3,0Z"/><path class="cls-3" d="M385.36,115c9,6.11,16.41,14.85,17.24,26.06.14,1.92,3.14,1.93,3,0-.92-12.34-8.8-21.89-18.73-28.65-1.6-1.09-3.1,1.51-1.51,2.59Z"/><path class="cls-3" d="M380.7,123.37a151.23,151.23,0,0,1,0,20c-.13,1.93,2.87,1.92,3,0a151.23,151.23,0,0,0,0-20c-.12-1.92-3.12-1.93-3,0Z"/><path class="cls-3" d="M366.2,122.35q-3.09,13.16-5.18,26.49c-.29,1.89,2.6,2.71,2.89.8q2.1-13.35,5.18-26.49c.44-1.88-2.45-2.68-2.89-.8Z"/><path class="cls-3" d="M300.17,129.45c-10.28,5.34-19.67,13-24.39,23.85-.77,1.75,1.82,3.28,2.59,1.52,4.54-10.41,13.43-17.65,23.32-22.78,1.71-.89.2-3.48-1.52-2.59Z"/><path class="cls-3" d="M298.44,141.15a40,40,0,0,0,.74,11.07c.39,1.89,3.28,1.09,2.9-.8a36.9,36.9,0,0,1-.64-10.27c.14-1.93-2.86-1.92-3,0Z"/><path class="cls-3" d="M175.17,170.91l-3.09,15.33c-.38,1.88,2.51,2.69,2.89.8l3.1-15.33c.38-1.89-2.51-2.69-2.9-.8Z"/><path class="cls-3" d="M188.62,174.76a46.12,46.12,0,0,0,2.26,19.4c.62,1.82,3.52,1,2.9-.8a43.85,43.85,0,0,1-2.16-18.6c.18-1.92-2.82-1.91-3,0Z"/><path class="cls-3" d="M164.83,165.42c-5.26-.51-8.77,5.54-11.83,9-3.28,3.66-7,7.44-6,12.71.36,1.9,3.25,1.1,2.89-.79-.81-4.33,3.59-8,6.19-10.87,2.2-2.45,5.07-7.37,8.75-7,1.92.19,1.91-2.82,0-3Z"/><path class="cls-3" d="M297,175.93c5.84.71,13.15,4.38,17.61,8.2,5.43,4.63,6.23,12.57,7.8,19.18.45,1.88,3.34,1.08,2.9-.8-1.74-7.32-2.67-15.7-8.83-20.77-5.18-4.27-12.76-8-19.48-8.81-1.91-.23-1.89,2.77,0,3Z"/><path class="cls-3" d="M296.06,184.49c3.17,3.12,5.11,6.86,4.75,11.39-.15,1.92,2.86,1.91,3,0,.41-5.26-1.95-9.89-5.63-13.51-1.38-1.35-3.5.77-2.12,2.12Z"/><path class="cls-3" d="M284.16,182.55a56.35,56.35,0,0,0-6.75,26.3,1.5,1.5,0,0,0,3,0,52.89,52.89,0,0,1,6.34-24.79c.9-1.7-1.69-3.22-2.59-1.51Z"/><path class="cls-3" d="M393.92,194.39a36.16,36.16,0,0,1,4.85,21.48c-.17,1.92,2.83,1.91,3,0a39.07,39.07,0,0,0-5.26-23,1.5,1.5,0,0,0-2.59,1.51Z"/><path class="cls-3" d="M381.43,200.88a77.08,77.08,0,0,1-.1,14.41c-.2,1.92,2.8,1.9,3,0a77.08,77.08,0,0,0,.1-14.41c-.16-1.91-3.16-1.93-3,0Z"/><path class="cls-3" d="M402,187c6.83.58,14.51,3,18.54,8.89,1.08,1.59,3.68.09,2.6-1.51C418.46,187.46,410,184.65,402,184c-1.93-.17-1.91,2.84,0,3Z"/><path class="cls-3" d="M447.51,213.83c7.25,3.84,13.78,9.61,15.52,17.94.39,1.89,3.28,1.09,2.89-.79-1.88-9.06-9-15.57-16.89-19.74-1.71-.9-3.23,1.69-1.52,2.59Z"/><path class="cls-3" d="M451.23,230.69l.34,18.56c0,1.93,3,1.93,3,0l-.34-18.56c0-1.93-3-1.94-3,0Z"/><path class="cls-3" d="M439.64,222.08a25.65,25.65,0,0,1-3,14.64c-.9,1.7,1.69,3.22,2.59,1.51a28.51,28.51,0,0,0,3.41-16.15c-.18-1.9-3.18-1.92-3,0Z"/><path class="cls-3" d="M319.9,233.08c-9.72,6-17.47,15.71-15.29,27.68.35,1.9,3.24,1.09,2.89-.8-1.92-10.56,5.47-19.11,13.91-24.29,1.65-1,.14-3.61-1.51-2.59Z"/><path class="cls-3" d="M329.89,244.64a32.87,32.87,0,0,0,2.5,20.23c.79,1.75,3.38.23,2.59-1.52a29.36,29.36,0,0,1-2.2-17.91c.36-1.89-2.53-2.7-2.89-.8Z"/><path class="cls-3" d="M344.36,238.76a43.45,43.45,0,0,1,9.51,17.83c.47,1.87,3.37,1.07,2.89-.8a46.9,46.9,0,0,0-10.28-19.15c-1.25-1.47-3.37.66-2.12,2.12Z"/><path class="cls-3" d="M210.08,220.5c-5.1,5.85-7.46,13.11-4.94,20.67.6,1.82,3.5,1,2.89-.8-2.18-6.54-.27-12.65,4.17-17.75,1.27-1.45-.85-3.58-2.12-2.12Z"/><path class="cls-3" d="M225,228.47c-.84,4.9-1.63,10.11.73,14.74,2.06,4.07,5.83,6.55,10,8,1.83.64,2.61-2.26.8-2.89-9.05-3.14-10.13-10.5-8.66-19.06.32-1.89-2.57-2.7-2.9-.79Z"/><path class="cls-3" d="M239.06,220.65c4,5.38,6.08,11.31,5.52,18-.17,1.93,2.84,1.91,3,0a28.53,28.53,0,0,0-5.93-19.57c-1.14-1.53-3.74,0-2.59,1.52Z"/><path class="cls-3" d="M140.77,232.71c-9.54,1.44-8.38,17.43-7.77,24.31.16,1.91,3.17,1.92,3,0-.48-5.4-1.76-20.31,5.57-21.42,1.9-.29,1.09-3.18-.8-2.89Z"/><path class="cls-3" d="M151.76,250.29c-1.94,6.62.3,12.85,4.94,17.74,1.33,1.4,3.45-.72,2.12-2.12-3.92-4.13-5.81-9.22-4.17-14.82a1.5,1.5,0,0,0-2.89-.8Z"/><path class="cls-3" d="M167.53,240.61c4.87,4,8.55,9.13,8.73,15.61.06,1.92,3.06,1.93,3,0-.21-7.25-4.12-13.23-9.61-17.73-1.48-1.21-3.62.9-2.12,2.12Z"/><path class="cls-3" d="M397.52,265.06a165,165,0,0,1,2.84,21.81c.12,1.92,3.12,1.93,3,0a170.38,170.38,0,0,0-2.95-22.61c-.38-1.89-3.27-1.09-2.89.8Z"/><path class="cls-3" d="M413.57,275.49l2.09,23.63c.17,1.9,3.17,1.92,3,0l-2.09-23.63c-.17-1.91-3.17-1.93-3,0Z"/><path class="cls-3" d="M421.8,267.29c6.37,2.32,12.45,6,16.18,11.77,1,1.62,3.64.12,2.59-1.51-4.18-6.5-10.83-10.56-18-13.15-1.82-.67-2.6,2.23-.8,2.89Z"/><path class="cls-3" d="M251.71,266.09c-4.86-.12-10,1.57-13.12,5.43-3.35,4.08-2.79,9.27-2,14.13.32,1.9,3.21,1.09,2.89-.8-.69-4-1.29-8.62,1.79-11.89a13.7,13.7,0,0,1,10.4-3.87c1.93.05,1.93-2.95,0-3Z"/><path class="cls-3" d="M262.64,280.62A40.52,40.52,0,0,0,264,297.26c.55,1.85,3.44,1.06,2.9-.8a38.21,38.21,0,0,1-1.28-15.84c.24-1.91-2.76-1.89-3,0Z"/><path class="cls-3" d="M273.51,271.67c3.67,2.85,6.62,6.6,6.86,11.4.1,1.92,3.1,1.93,3,0-.28-5.59-3.4-10.16-7.73-13.52-1.51-1.17-3.65.94-2.13,2.12Z"/><path class="cls-3" d="M297.59,54.91c-8-.3-17.38-.74-23.88,4.85-1.47,1.26.66,3.37,2.12,2.12,5.78-5,14.66-4.24,21.76-4,1.93.07,1.93-2.93,0-3Z"/><path class="cls-3" d="M299.12,62.21q-.19,10,.58,20c.15,1.92,3.15,1.93,3,0q-.78-10-.58-20c0-1.93-3-1.93-3,0Z"/><path class="cls-3" d="M313.53,66.89l2.4,5.5c.77,1.77,3.36.24,2.59-1.51l-2.4-5.5c-.77-1.76-3.36-.24-2.59,1.51Z"/><path class="cls-3" d="M445.5,164.7c8.22,1.8,16.08,5.07,22.1,11.1a1.5,1.5,0,0,0,2.12-2.12c-6.37-6.38-14.72-10-23.42-11.87-1.88-.41-2.69,2.48-.8,2.89Z"/><path class="cls-3" d="M237.54,162.11c-6.34.36-14.73,3.24-16.34,10.24-.44,1.87,2.45,2.68,2.89.79,1.29-5.6,8.46-7.74,13.45-8,1.92-.11,1.93-3.12,0-3Z"/><path class="cls-3" d="M153.47,202.67c-8.32.07-21.29,1.05-24.55,10.42-.63,1.83,2.26,2.62,2.89.8,2.71-7.76,14.94-8.16,21.66-8.22a1.5,1.5,0,0,0,0-3Z"/><path class="cls-3" d="M342.87,166.13c8.35,2.11,16.26,5.48,22.91,11.05,1.47,1.23,3.6-.88,2.12-2.12-7-5.91-15.37-9.58-24.23-11.83-1.88-.47-2.67,2.42-.8,2.9Z"/><path class="cls-3" d="M322.07,110.15a34,34,0,0,1,5.88.43c1.25.25,4.17.92,4.34,2.57.2,1.9,3.2,1.92,3,0-.61-5.85-8.87-5.92-13.22-6-1.93,0-1.93,3,0,3Z"/><path class="cls-3" d="M357.77,209.81C350.06,208,347.88,218,346,223.39c-.63,1.82,2.27,2.61,2.89.79.89-2.58,1.85-5.14,2.93-7.64,1-2.26,2.23-4.52,5.12-3.84,1.88.45,2.68-2.44.8-2.89Z"/><path class="cls-3" d="M470.8,261.87c5.31,2,10.32,5.41,12.65,10.78.77,1.76,3.36.24,2.59-1.52-2.64-6.08-8.46-9.85-14.44-12.16-1.81-.69-2.59,2.21-.8,2.9Z"/><path class="cls-3" d="M352.58,273.9a27.81,27.81,0,0,0-1.92,17.52c.4,1.89,3.29,1.09,2.89-.79a24.37,24.37,0,0,1,1.62-15.22c.77-1.75-1.81-3.28-2.59-1.51Z"/></g><path class="cls-4" d="M191.68,139.07a3.74,3.74,0,0,1,3-1.68,3.34,3.34,0,0,1,.83.09,1.91,1.91,0,0,0,1.48-.3,49.08,49.08,0,0,1,8.65-4.37,27.31,27.31,0,0,1,10-1.95,21.8,21.8,0,0,1,6.48,1,17.72,17.72,0,0,1,6.14,3.44,27,27,0,0,1,5.83,6.35,42.37,42.37,0,0,1,4.41,8.56,58.55,58.55,0,0,1,2.79,10,55.87,55.87,0,0,1,1,10.59,47.6,47.6,0,0,1-3.7,18.88A43,43,0,0,1,228.94,204a22.64,22.64,0,0,1-13.1,6.27c-1,.11-1.92.2-2.91.26s-1.93.09-2.8.09a41,41,0,0,1-5.36-.35c-1.07-.15-2.14-.32-3.22-.51a1.74,1.74,0,0,0-2,1.71v13.09q0,8.48.12,15.18a10.83,10.83,0,0,1-1.6,6.08,4.17,4.17,0,0,1-3.28,2,4,4,0,0,1-3.09-1.85,10.86,10.86,0,0,1-1.78-5.63,1.41,1.41,0,0,1,0-.2V205.86a1.41,1.41,0,0,1-.83-.35,8.51,8.51,0,0,1-2.62-3.35,9.74,9.74,0,0,1-.84-3.89,8.16,8.16,0,0,1,1.07-4.14,5.67,5.67,0,0,1,2.17-2.15,1.75,1.75,0,0,0,.93-1.53v-46a1.84,1.84,0,0,1,0-.33A11.4,11.4,0,0,1,191.68,139.07Zm31.9,8.91a13,13,0,0,0-8.09-2.82,20.47,20.47,0,0,0-8.34,1.85,43.54,43.54,0,0,0-6.87,3.8,1.76,1.76,0,0,0-.75,1.44V193.5a1.72,1.72,0,0,0,1.19,1.64,29.35,29.35,0,0,0,3.81.93,29.9,29.9,0,0,0,5.12.44,24.2,24.2,0,0,0,5-.53,35,35,0,0,0,6.85-2.56,15.37,15.37,0,0,0,6-5.73,30.79,30.79,0,0,0,3.57-8.47,36.75,36.75,0,0,0-1-21.8A21.8,21.8,0,0,0,223.58,148Z"/><path class="cls-4" d="M292.89,228.47a1.73,1.73,0,0,1,.87.19,6.76,6.76,0,0,1,2.92,3,8.64,8.64,0,0,1-.23,8.56,5.89,5.89,0,0,1-3.19,2.64,1.45,1.45,0,0,1-.55.1q-9,.34-17.93.43t-17.89.44l-.42,0q-4.41-.83-4.9-7.47a.91.91,0,0,1,0-.17q0-23.25.12-46.33t.12-46.44a2.83,2.83,0,0,1,0-.29,10.63,10.63,0,0,1,1.82-5,4.12,4.12,0,0,1,2.86-1.85,3.69,3.69,0,0,1,2.92,1.5,10.48,10.48,0,0,1,2.1,4.73,2,2,0,0,1,0,.41q0,21.78-.12,43.12-.1,20.55-.12,41.52a1.74,1.74,0,0,0,1.81,1.73q7.06-.28,14.15-.37Q285,228.82,292.89,228.47Z"/><path class="cls-4" d="M366,236.44a2.26,2.26,0,0,1,0,.26,13.05,13.05,0,0,1-1.19,5.34,4.51,4.51,0,0,1-2.62,2.56,3.32,3.32,0,0,1-3.09-.8,9.05,9.05,0,0,1-2.54-4,1.88,1.88,0,0,1-.1-.47q-.72-8.18-2-16.08-1.2-7.33-2.79-14.6a1.75,1.75,0,0,0-1.72-1.36l-30.14.34a1.9,1.9,0,0,1-.54-.09,1.84,1.84,0,0,0-.53-.09q-3,15-5.34,31a1.74,1.74,0,0,1-.05.22q-.94,3.62-2.71,4.83a3.35,3.35,0,0,1-3.39.53,5.47,5.47,0,0,1-2.62-3.18,12.76,12.76,0,0,1-.54-6.35q3.93-25.59,9.47-50a410.53,410.53,0,0,1,13.87-47.73c.48-2.23,1.59-3.65,3.33-4.24a3,3,0,0,1,2.5-.26,4.2,4.2,0,0,1,2,1.67q.12,0,.12.09t.12.09A89.12,89.12,0,0,1,345.85,154q4.17,11.11,7.62,22.59c.88,2.71,1.69,5.41,2.44,8.12.64,2.26,1.25,4.53,1.86,6.79a1.72,1.72,0,0,0,1.71,1.29l4.5-.13a1.68,1.68,0,0,1,.85.19,6.83,6.83,0,0,1,2.93,3,9,9,0,0,1,1,4.33,8.75,8.75,0,0,1-1.25,4.23,5.88,5.88,0,0,1-3.15,2.64,1.87,1.87,0,0,1-.62.1h-.06a1.73,1.73,0,0,0-1.69,2.08q1.28,6.21,2.25,12.48Q365.38,228.92,366,236.44Zm-31-80.89a1.73,1.73,0,0,0-3.21.22q-2.58,8.08-4.81,16.39-2.5,9.36-4.69,18.85a1.74,1.74,0,0,0,1.72,2.12l21.46-.29a1.74,1.74,0,0,0,1.64-2.23c-.82-2.78-1.66-5.51-2.51-8.22q-1.61-5.12-3.27-10.23-1.9-5.11-3.81-10.41Q336.37,158.56,335,155.55Z"/><path class="cls-4" d="M401.93,235.86a10.84,10.84,0,0,1-1.61,6.09,4.14,4.14,0,0,1-3.27,2,4,4,0,0,1-3.1-1.85,11,11,0,0,1-1.77-5.64,1.21,1.21,0,0,1,0-.19q0-10.73-.06-21.35-.06-10.41-.06-21.08a1.73,1.73,0,0,0-.31-1,190.77,190.77,0,0,1-13.21-22.23,108.15,108.15,0,0,1-9.19-26.76c0-.1,0-.2,0-.3a5.27,5.27,0,0,0-.05-.65,5.79,5.79,0,0,1-.06-.79,10.17,10.17,0,0,1,1.37-5.74,3.85,3.85,0,0,1,3.15-2q2.67,0,4.55,3.86a2,2,0,0,1,.14.41,98.15,98.15,0,0,0,7.46,22.47,150.57,150.57,0,0,0,9.4,16.79,1.72,1.72,0,0,0,2.94-.09l10.1-17.76a137.93,137.93,0,0,0,9.94-21.79,8.57,8.57,0,0,1,2.2-3.53,3.83,3.83,0,0,1,2.44-1.06,4,4,0,0,1,3.22,1.94,8.46,8.46,0,0,1,1.43,5.12,15.62,15.62,0,0,1-.57,3.77,1.72,1.72,0,0,1-.07.21,167.15,167.15,0,0,1-11.51,24.87q-6.66,11.73-13.09,23.38l-.48.71v21.09Q401.81,225.28,401.93,235.86Z"/></svg>
