<svg id="Layer_1" data-name="Layer 1" xmlns="http://www.w3.org/2000/svg" xmlns:xlink="http://www.w3.org/1999/xlink" viewBox="0 0 1520 1140"><defs><style>.cls-1{filter:url(#AI_BevelShadow_1);}.cls-2{fill:#fbb03b;}.cls-3{fill:#f7931e;}.cls-4{fill:#fff;stroke:#006837;stroke-miterlimit:10;stroke-width:4px;}</style><filter id="AI_BevelShadow_1" x="-20" y="-20" width="140" height="140" name="AI_BevelShadow_1"><feGaussianBlur result="blur" stdDeviation="4" in="SourceAlpha"/><feOffset result="offsetBlur" dx="4" dy="4" in="blur"/><feSpecularLighting result="specOut" surfaceScale="5" specularExponent="10" in="blur"><fePointLight x="-5000" y="-10000" z="-20000"/></feSpecularLighting><feComposite result="specOut" operator="in" in="specOut" in2="SourceAlpha"/><feComposite result="litPaint" operator="arithmetic" k2="1" k3="1" in="SourceGraphic" in2="specOut"/><feMerge><feMergeNode in="offsetBlur"/><feMergeNode in="litPaint"/></feMerge></filter></defs><title>play_knap</title><g class="cls-1"><path class="cls-2" d="M781.46,622.19C800.88,722.36,665.67,690.74,555,691.27c-112.88.55-253.17,24.14-225.62-74.58C352,535.57,445.71,429.17,551.83,427.2S765.68,540.8,781.46,622.19Z"/><path class="cls-3" d="M556.89,426.29c-17.07-.4-34.79-.82-51,5.22a1.5,1.5,0,0,0,.4,2.94l4.76.05a1.5,1.5,0,0,0,0-3l-4.76-.05.4,2.95c16-5.95,33.42-5.5,50.24-5.11,1.93,0,1.93-3,0-3Z"/><path class="cls-3" d="M558.57,429.82c18.61-2.2,38-.18,55.16,7.52,1.75.79,3.28-1.8,1.52-2.59-17.7-7.91-37.51-10.2-56.68-7.93-1.9.22-1.92,3.22,0,3Z"/><path class="cls-3" d="M586.42,433.51c15-1.22,30.69,4.85,45.1,8.5,1.87.47,2.67-2.42.8-2.9-14.7-3.71-30.55-9.84-45.9-8.6-1.91.15-1.93,3.15,0,3Z"/><path class="cls-3" d="M608.32,442.7c6.78-.52,13.63-1.05,20.41-.31,7.46.8,13.86,4.14,20.55,7.29,1.73.81,3.26-1.77,1.51-2.59-6.54-3.08-12.79-6.42-20-7.45-7.43-1.07-15-.51-22.44.06-1.91.15-1.92,3.15,0,3Z"/><path class="cls-3" d="M622.74,446.57c13.21-.4,30.11-.4,40.12,9.69,1.36,1.38,3.48-.74,2.12-2.12-10.61-10.69-28.2-11-42.24-10.57-1.92.06-1.93,3.06,0,3Z"/><path class="cls-3" d="M632.73,454.8c14-1.14,28.78,2.93,42.54,5.08,1.89.3,2.7-2.59.8-2.89-14-2.19-29.12-6.36-43.34-5.19-1.91.15-1.93,3.16,0,3Z"/><path class="cls-3" d="M646.48,461.63c11.45,2.46,22.74,6,34,9.07a1.5,1.5,0,0,0,.79-2.89c-11.3-3.06-22.59-6.61-34-9.07-1.88-.41-2.69,2.48-.8,2.89Z"/><path class="cls-3" d="M647.46,468.75a200.52,200.52,0,0,1,49.95,9.06c1.84.59,2.63-2.31.8-2.9a204.13,204.13,0,0,0-50.75-9.16c-1.93-.11-1.92,2.89,0,3Z"/><path class="cls-3" d="M671.11,477.22a454,454,0,0,1,52.95,18.26c1.78.74,2.56-2.16.8-2.9a455.84,455.84,0,0,0-53-18.25,1.5,1.5,0,0,0-.8,2.89Z"/><path class="cls-3" d="M675.81,484q21.66,7.39,42.93,15.86c1.79.71,2.57-2.19.8-2.89q-21.27-8.47-42.93-15.86c-1.83-.63-2.62,2.27-.8,2.89Z"/><path class="cls-3" d="M676.32,495.78c7.06.85,14,4,20.65,6.25l20.76,7.06c1.83.63,2.62-2.27.8-2.89L696,498.52c-6.43-2.19-12.87-4.93-19.65-5.74-1.91-.23-1.89,2.77,0,3Z"/><path class="cls-3" d="M701.32,509.91c6.53-.26,13.61,2.76,19.69,4.94a165.33,165.33,0,0,1,17.82,7.61c1.72.86,3.24-1.73,1.51-2.59A174.15,174.15,0,0,0,721.8,512c-6.41-2.29-13.57-5.32-20.48-5-1.92.08-1.93,3.08,0,3Z"/><path class="cls-3" d="M711.36,523.05c6.33.33,12.39,3.38,18.15,5.8s11.41,5,17,7.82c1.72.86,3.24-1.73,1.51-2.59q-9.07-4.5-18.42-8.42c-5.86-2.45-11.81-5.28-18.24-5.61-1.93-.1-1.92,2.9,0,3Z"/><path class="cls-3" d="M720,530.84a32.37,32.37,0,0,1,11.57,5.74c3.34,2.49,4.69,6.21,7.48,9.16,5.16,5.44,12.24,9.5,18.27,13.9,1.56,1.14,3.06-1.46,1.51-2.59l-10.46-7.64a43.14,43.14,0,0,1-10.79-11c-3.56-5.09-10.8-9.17-16.78-10.48-1.88-.41-2.69,2.48-.8,2.89Z"/><path class="cls-3" d="M727.72,552.47a331.12,331.12,0,0,0,43,19.52c1.82.68,2.6-2.22.8-2.89a325.55,325.55,0,0,1-42.27-19.22c-1.7-.92-3.21,1.67-1.52,2.59Z"/><path class="cls-3" d="M739.64,571.14a90.44,90.44,0,0,1,32.05,8.27c1.73.83,3.26-1.75,1.51-2.59a94.57,94.57,0,0,0-33.56-8.68c-1.93-.16-1.92,2.84,0,3Z"/><path class="cls-3" d="M756.07,579.48c3.79,1.95,6,5.25,10.18,6.86,5.27,2,9.4,3.75,13.35,8,1.32,1.42,3.44-.71,2.12-2.12A26.87,26.87,0,0,0,771,584.83c-2.36-.87-5-1.5-7.07-2.9-2.31-1.53-3.79-3.75-6.29-5-1.72-.88-3.24,1.7-1.52,2.59Z"/><path class="cls-3" d="M524,432.34c-14.87,1.77-30.37-1.92-44.8,3.13-1.81.64-1,3.54.8,2.9,14.14-5,29.41-1.3,44-3,1.9-.23,1.92-3.23,0-3Z"/><path class="cls-3" d="M500.91,440.65a71.77,71.77,0,0,0-11.82,0c-3.46.38-6.14,1.63-9.33,2.75-4.06,1.42-9.09.87-13.41,1.28-4,.37-8,.94-12,1.64-1.89.33-1.09,3.22.8,2.89a137.22,137.22,0,0,1,13.85-1.76c3.19-.24,6.62.09,9.74-.56s5.82-2.53,9.08-3.08c4.29-.71,8.73-.43,13-.2,1.93.1,1.93-2.9,0-3Z"/><path class="cls-3" d="M478,450.28c-7.54.38-14.48-.06-21.78,2.23s-14.63,4.73-21.95,7.09c-1.83.59-1,3.49.8,2.9q10.1-3.27,20.19-6.53c7.71-2.48,14.78-2.29,22.74-2.69,1.92-.1,1.94-3.1,0-3Z"/><path class="cls-3" d="M457.58,464c-11.28-.28-22.58-.43-33.62,2.18-1.88.44-1.09,3.34.79,2.89,10.78-2.55,21.83-2.34,32.83-2.07,1.93,0,1.93-3,0-3Z"/><path class="cls-3" d="M445.34,472.1a206.72,206.72,0,0,0-29.64,1.53c-7.63,1-15.77,1.82-22.62,5.57-1.69.93-.18,3.52,1.51,2.59,7.33-4,16.76-4.73,24.9-5.6a204.7,204.7,0,0,1,25.85-1.09c1.93,0,1.93-3,0-3Z"/><path class="cls-3" d="M435.27,478.66A221.07,221.07,0,0,0,392.86,492c-1.77.76-.24,3.35,1.52,2.59a217.92,217.92,0,0,1,41.68-13.06c1.89-.39,1.09-3.29-.79-2.89Z"/><path class="cls-3" d="M430.28,488.44c-9,2.39-18.09,4.77-27.09,7.28-7.2,2-16,3.37-22.14,7.85-1.54,1.12-.05,3.72,1.52,2.59,6.37-4.62,15.81-6,23.27-8.07,8.4-2.32,16.82-4.54,25.24-6.75a1.51,1.51,0,0,0-.8-2.9Z"/><path class="cls-3" d="M413.58,499.5c-14.41,6.26-29.46,12.53-41.09,23.39-1.42,1.32.71,3.44,2.12,2.12C386,514.35,401,508.23,415.09,502.09c1.77-.77.24-3.36-1.51-2.59Z"/><path class="cls-3" d="M392.56,518.92c-12,1-23.79,8.16-32.06,16.62-1.35,1.38.76,3.5,2.12,2.12,7.66-7.83,18.82-14.85,29.94-15.74,1.92-.15,1.93-3.15,0-3Z"/><path class="cls-3" d="M379.09,532.83a219.22,219.22,0,0,0-33.55,20.52c-1.53,1.14,0,3.75,1.51,2.59a219.32,219.32,0,0,1,33.56-20.52c1.73-.86.21-3.45-1.52-2.59Z"/><path class="cls-3" d="M375,545.79a191.12,191.12,0,0,0-39.14,26.46c-1.45,1.28.68,3.39,2.12,2.12a188,188,0,0,1,38.53-26c1.72-.88.2-3.47-1.51-2.59Z"/><path class="cls-3" d="M361,564.35c-11.61,7.39-22,16.41-30,27.67-1.11,1.58,1.49,3.08,2.6,1.52,7.67-10.84,17.72-19.5,28.88-26.6,1.62-1,.12-3.63-1.52-2.59Z"/><path class="cls-3" d="M350.56,583.63c-12.57,5.84-21.48,18.28-27.92,30.15-.92,1.7,1.67,3.22,2.59,1.52,6.22-11.47,14.7-23.44,26.85-29.08,1.75-.81.22-3.39-1.52-2.59Z"/><path class="cls-3" d="M343.84,604.32C332.52,613,320,622,313.71,635.19c-.82,1.73,1.76,3.26,2.59,1.51,6-12.73,18.15-21.46,29.06-29.79,1.51-1.16,0-3.76-1.52-2.59Z"/><path class="cls-3" d="M336,621.73c-1.94,6.08-6.46,10.87-9.1,16.64a40.72,40.72,0,0,0-3.61,15.07c-.09,1.93,2.91,1.92,3,0A38.55,38.55,0,0,1,332,635.11c2.51-4.14,5.37-7.92,6.85-12.58.58-1.85-2.31-2.64-2.89-.8Z"/><path class="cls-3" d="M343.41,644.88c-4.33,8.16-12.81,21.24-7.13,30.39,1,1.64,3.61.14,2.59-1.51-4.8-7.74,3.49-20.49,7.13-27.36.91-1.71-1.68-3.23-2.59-1.52Z"/><path class="cls-3" d="M353.66,656.69c-1.2,5.13.88,9.48,2.87,14.15,2.64,6.21,5.39,12.38,8.2,18.52.8,1.76,3.39.23,2.59-1.51q-3-6.58-5.92-13.22c-2.24-5.16-6.21-11.3-4.85-17.14.44-1.88-2.45-2.68-2.89-.8Z"/><path class="cls-3" d="M758.35,591.57c12.58,3.11,24.8,8.73,33.42,18.66,1.27,1.46,3.38-.67,2.12-2.12-8.94-10.29-21.71-16.21-34.74-19.44-1.87-.46-2.67,2.43-.8,2.9Z"/><path class="cls-3" d="M764.37,607.22c5.26,1.86,10.47,3.87,15.58,6.12,2.58,1.13,4.93,2.07,6.9,4.11,1.61,1.66,2.61,3.55,4.38,5.07,1.46,1.25,3.59-.86,2.12-2.12-1.91-1.64-2.83-4-4.65-5.69-2-1.87-4.79-2.88-7.24-4-5.34-2.36-10.79-4.47-16.29-6.42-1.83-.64-2.61,2.26-.8,2.89Z"/><path class="cls-3" d="M765,618.2c4.25,10.15,18.79,9,24.45,17.76,1,1.62,3.64.11,2.59-1.51-2.51-3.87-6.65-6-10.69-7.9-4.38-2.11-11.41-4.27-13.45-9.15-.74-1.75-3.64-1-2.9.8Z"/><path class="cls-3" d="M764.24,633.77c3.41,3.73,8.48,4.88,12.49,7.78,4.71,3.41,6.77,8.52,8.48,13.88.59,1.83,3.49,1.05,2.9-.8-1.52-4.74-3.27-9.44-6.79-13.1-4.27-4.43-10.87-5.41-15-9.88-1.31-1.43-3.43.7-2.12,2.12Z"/><path class="cls-3" d="M764.78,651.22c7.3,5.86,10.27,13.79,12.65,22.56a1.5,1.5,0,0,0,2.89-.8c-2.5-9.23-5.75-17.72-13.42-23.89-1.49-1.19-3.62.92-2.12,2.13Z"/><path class="cls-3" d="M763.3,662.87,767,686.45c.3,1.9,3.19,1.1,2.89-.8l-3.67-23.58c-.3-1.9-3.19-1.1-2.89.8Z"/><path class="cls-3" d="M750.89,672.43q.47,15,.38,30l2.25-1.29-1.43-1c-1.58-1.13-3.08,1.48-1.52,2.59l1.44,1a1.51,1.51,0,0,0,2.26-1.3q.09-15-.38-30c-.06-1.93-3.06-1.94-3,0Z"/><path class="cls-3" d="M734.52,679.17a56.78,56.78,0,0,1-.35,17.36c-.32,1.89,2.57,2.7,2.9.8a61.76,61.76,0,0,0,.34-19c-.26-1.91-3.15-1.1-2.89.79Z"/><path class="cls-3" d="M716.89,684.66A90.45,90.45,0,0,1,715.75,707c-.33,1.89,2.56,2.7,2.89.8a93.52,93.52,0,0,0,1.25-23.15c-.13-1.91-3.13-1.93-3,0Z"/><path class="cls-3" d="M699.41,686.39a114.14,114.14,0,0,1-4.16,20.55c-.56,1.86,2.34,2.65,2.89.8a118.39,118.39,0,0,0,4.27-21.35c.2-1.91-2.8-1.9-3,0Z"/><path class="cls-3" d="M681,688.68l-3.92,15.79c-.46,1.87,2.43,2.67,2.9.79l3.91-15.78c.47-1.87-2.43-2.67-2.89-.8Z"/><path class="cls-3" d="M663.51,691.17a28.55,28.55,0,0,1-1.77,14.54c-.68,1.81,2.22,2.59,2.9.8a31.73,31.73,0,0,0,1.77-16.14c-.28-1.9-3.17-1.1-2.9.8Z"/><path class="cls-3" d="M643.58,686.49l-.38,26c0,1.93,3,1.93,3,0l.38-26c0-1.93-3-1.93-3,0Z"/><path class="cls-3" d="M627.06,684.47l.31,16.71c0,1.93,3,1.94,3,0l-.31-16.71c0-1.92-3-1.93-3,0Z"/><path class="cls-3" d="M602.84,685.85l.29,15.78c0,1.93,3,1.94,3,0l-.29-15.78c0-1.93-3-1.93-3,0Z"/><path class="cls-3" d="M575.05,687.3l.34,18.1c0,1.92,3,1.93,3,0l-.34-18.1c0-1.93-3-1.94-3,0Z"/><path class="cls-3" d="M374.3,678c1.52,9.81-1.56,19.09,8.38,25.11,1.65,1,3.16-1.59,1.51-2.59-8.87-5.38-5.67-14.74-7-23.32-.29-1.9-3.19-1.1-2.89.8Z"/><path class="cls-3" d="M385.75,679.66c-.39,11,8.45,19,17.79,23.22,1.74.79,3.27-1.79,1.51-2.59-8.36-3.77-16.65-10.62-16.3-20.63.07-1.93-2.93-1.92-3,0Z"/><path class="cls-3" d="M417.08,679.22c-2.7,9.11,1.56,17.49,8.68,23.19,1.49,1.19,3.63-.92,2.12-2.12-6.3-5-10.32-12.11-7.91-20.27.55-1.86-2.35-2.65-2.89-.8Z"/><path class="cls-3" d="M439,679.24c-1.82,9.54,1.59,18.11,8.09,25.1,1.32,1.41,3.43-.71,2.12-2.13-5.73-6.15-8.93-13.72-7.32-22.17.36-1.89-2.53-2.7-2.89-.8Z"/><path class="cls-3" d="M475.18,681.26a160.61,160.61,0,0,0,1.06,24.12c.23,1.89,3.23,1.92,3,0a160.61,160.61,0,0,1-1.06-24.12c.06-1.93-2.94-1.93-3,0Z"/><path class="cls-3" d="M497.12,683.59,501.39,703c.41,1.88,3.3,1.08,2.89-.8L500,682.79c-.42-1.88-3.31-1.09-2.9.8Z"/><path class="cls-3" d="M523.59,680.83l.36,19.49c0,1.92,3,1.93,3,0l-.36-19.49c0-1.93-3-1.94-3,0Z"/><path class="cls-3" d="M556.44,683.46l.36,19.5c0,1.92,3,1.93,3,0l-.36-19.5c0-1.92-3-1.93-3,0Z"/><path class="cls-3" d="M513.85,468.37c-10.52,5.28-20.36,14.68-19.85,27.31.08,1.92,3.08,1.93,3,0-.47-11.59,8.79-19.91,18.37-24.72,1.72-.86.2-3.45-1.52-2.59Z"/><path class="cls-3" d="M460.48,502.46c-8.53,5.74-9.18,14.11-7.84,23.64.27,1.91,3.16,1.1,2.89-.79-1.13-8-.85-15.34,6.47-20.26,1.59-1.08.09-3.68-1.52-2.59Z"/><path class="cls-3" d="M517.53,478.23c-2.94,7.85,1,15.1,7.23,19.89,1.53,1.18,3-1.43,1.51-2.59-5.29-4-8.3-10-5.85-16.5.68-1.81-2.22-2.59-2.89-.8Z"/><path class="cls-3" d="M465,509.73c-1.13,7.16,3.49,12.87,7.77,18.09,1.23,1.5,3.34-.64,2.13-2.12-3.45-4.21-7.93-9.3-7-15.17.3-1.89-2.59-2.7-2.89-.8Z"/><path class="cls-3" d="M452.53,499.71c-7.91-1-15.13,5.67-20.4,10.8-1.39,1.34.73,3.46,2.12,2.12,4.7-4.58,11.23-10.79,18.28-9.92,1.92.23,1.9-2.77,0-3Z"/><path class="cls-3" d="M591.82,451.44c11.07,1.84,22.89,6.39,29.23,16.2,1,1.61,3.64.11,2.59-1.52-6.77-10.47-19.14-15.6-31-17.58-1.89-.31-2.7,2.58-.8,2.9Z"/><path class="cls-3" d="M594.19,458.09a21.38,21.38,0,0,1,8.48,9.94c.67,1.8,3.57,1,2.89-.79-1.87-5-5.48-8.8-9.85-11.74-1.61-1.09-3.11,1.51-1.52,2.59Z"/><path class="cls-3" d="M585.78,458.24l.17,9.28c0,1.93,3,1.93,3,0l-.17-9.28c0-1.93-3-1.94-3,0Z"/><path class="cls-3" d="M631.91,498.31c9,6.1,16.41,14.85,17.24,26.06.14,1.91,3.14,1.93,3,0-.92-12.35-8.8-21.9-18.73-28.65-1.6-1.09-3.1,1.51-1.51,2.59Z"/><path class="cls-3" d="M627.25,506.68a151.22,151.22,0,0,1,0,20c-.13,1.92,2.87,1.92,3,0a151.22,151.22,0,0,0,0-20c-.12-1.92-3.12-1.94-3,0Z"/><path class="cls-3" d="M612.75,505.66q-3.09,13.14-5.18,26.49c-.29,1.89,2.6,2.7,2.89.8q2.1-13.35,5.18-26.5c.44-1.87-2.45-2.68-2.89-.79Z"/><path class="cls-3" d="M546.72,512.76c-10.28,5.34-19.67,13-24.39,23.85-.77,1.75,1.82,3.28,2.59,1.51,4.54-10.41,13.43-17.64,23.32-22.77,1.71-.89.2-3.48-1.52-2.59Z"/><path class="cls-3" d="M545,524.45a40,40,0,0,0,.74,11.08c.39,1.89,3.28,1.09,2.9-.8a36.94,36.94,0,0,1-.64-10.28c.14-1.92-2.86-1.92-3,0Z"/><path class="cls-3" d="M421.72,554.22l-3.09,15.33c-.38,1.88,2.51,2.69,2.89.79l3.1-15.32c.38-1.89-2.51-2.7-2.9-.8Z"/><path class="cls-3" d="M435.17,558.06a46.11,46.11,0,0,0,2.26,19.4c.62,1.83,3.52,1,2.9-.79a43.87,43.87,0,0,1-2.16-18.61c.18-1.92-2.82-1.9-3,0Z"/><path class="cls-3" d="M411.38,548.73c-5.26-.51-8.77,5.54-11.83,9-3.28,3.66-7,7.43-6,12.71.36,1.9,3.25,1.09,2.89-.8-.81-4.32,3.59-8,6.19-10.86,2.2-2.46,5.07-7.38,8.75-7,1.92.18,1.91-2.82,0-3Z"/><path class="cls-3" d="M543.55,559.23c5.84.71,13.15,4.39,17.61,8.2,5.43,4.64,6.23,12.57,7.8,19.19.45,1.88,3.34,1.08,2.9-.8-1.74-7.33-2.67-15.7-8.83-20.77-5.18-4.27-12.76-8-19.48-8.82-1.91-.23-1.89,2.77,0,3Z"/><path class="cls-3" d="M542.61,567.8c3.17,3.12,5.11,6.86,4.75,11.38-.15,1.93,2.86,1.92,3,0,.41-5.25-2-9.88-5.63-13.5-1.38-1.36-3.5.76-2.12,2.12Z"/><path class="cls-3" d="M530.71,565.86A56.34,56.34,0,0,0,524,592.15a1.5,1.5,0,0,0,3,0,52.88,52.88,0,0,1,6.34-24.78c.9-1.71-1.69-3.23-2.59-1.51Z"/><path class="cls-3" d="M640.47,577.7a36.15,36.15,0,0,1,4.85,21.48c-.17,1.92,2.83,1.91,3,0a39.11,39.11,0,0,0-5.26-23,1.5,1.5,0,0,0-2.59,1.52Z"/><path class="cls-3" d="M628,584.19a77,77,0,0,1-.1,14.4c-.2,1.92,2.8,1.91,3,0a77,77,0,0,0,.1-14.4c-.16-1.91-3.16-1.93-3,0Z"/><path class="cls-3" d="M648.56,570.28c6.83.58,14.51,3,18.54,8.9,1.08,1.59,3.68.09,2.6-1.51-4.69-6.91-13.17-9.71-21.14-10.39-1.93-.16-1.91,2.84,0,3Z"/><path class="cls-3" d="M694.06,597.14c7.25,3.83,13.78,9.6,15.52,17.94.39,1.89,3.28,1.09,2.89-.8-1.88-9.06-9-15.56-16.89-19.73-1.71-.9-3.23,1.69-1.52,2.59Z"/><path class="cls-3" d="M697.78,614l.34,18.56c0,1.93,3,1.94,3,0L700.78,614c0-1.93-3-1.93-3,0Z"/><path class="cls-3" d="M686.19,605.39a25.6,25.6,0,0,1-3,14.63c-.9,1.71,1.69,3.23,2.59,1.52a28.51,28.51,0,0,0,3.41-16.15c-.18-1.91-3.18-1.93-3,0Z"/><path class="cls-3" d="M566.45,616.38c-9.72,6-17.47,15.71-15.29,27.69.35,1.89,3.24,1.09,2.89-.8-1.92-10.56,5.47-19.11,13.91-24.3,1.65-1,.14-3.6-1.51-2.59Z"/><path class="cls-3" d="M576.44,628a32.84,32.84,0,0,0,2.5,20.22c.79,1.76,3.38.24,2.59-1.51a29.4,29.4,0,0,1-2.2-17.92c.36-1.88-2.53-2.69-2.89-.79Z"/><path class="cls-3" d="M590.91,622.06a43.45,43.45,0,0,1,9.51,17.83c.47,1.87,3.37,1.08,2.89-.8A47,47,0,0,0,593,619.94c-1.25-1.47-3.37.66-2.12,2.12Z"/><path class="cls-3" d="M456.63,603.8c-5.1,5.85-7.46,13.12-4.94,20.67.6,1.82,3.5,1,2.89-.8-2.18-6.53-.27-12.65,4.17-17.75,1.27-1.45-.85-3.58-2.12-2.12Z"/><path class="cls-3" d="M471.58,611.77c-.84,4.91-1.63,10.11.73,14.75,2.06,4.06,5.83,6.54,10,8,1.83.63,2.61-2.26.8-2.89-9.05-3.14-10.13-10.51-8.66-19.06.32-1.89-2.57-2.7-2.9-.8Z"/><path class="cls-3" d="M485.61,604c4,5.38,6.08,11.31,5.52,18-.17,1.92,2.84,1.91,3,0a28.51,28.51,0,0,0-5.93-19.57c-1.14-1.54-3.74,0-2.59,1.52Z"/><path class="cls-3" d="M387.32,616c-9.54,1.45-8.38,17.44-7.77,24.31.16,1.91,3.17,1.93,3,0-.48-5.39-1.76-20.31,5.57-21.41,1.9-.29,1.09-3.18-.8-2.9Z"/><path class="cls-3" d="M398.31,633.6c-1.94,6.61.3,12.84,4.94,17.73,1.33,1.41,3.45-.72,2.12-2.12-3.92-4.13-5.81-9.21-4.17-14.82a1.5,1.5,0,0,0-2.89-.79Z"/><path class="cls-3" d="M414.08,623.92c4.87,4,8.55,9.13,8.73,15.6.06,1.93,3.06,1.94,3,0-.21-7.24-4.12-13.23-9.61-17.72-1.48-1.21-3.62.9-2.12,2.12Z"/><path class="cls-3" d="M644.07,648.36a165.31,165.31,0,0,1,2.84,21.82c.12,1.91,3.12,1.93,3,0A170.16,170.16,0,0,0,647,647.57c-.38-1.89-3.27-1.09-2.89.79Z"/><path class="cls-3" d="M660.12,658.79l2.09,23.63c.17,1.91,3.17,1.93,3,0l-2.09-23.63c-.17-1.91-3.17-1.92-3,0Z"/><path class="cls-3" d="M668.35,650.6c6.37,2.31,12.45,6,16.18,11.77,1,1.62,3.64.12,2.59-1.52-4.18-6.5-10.83-10.55-18-13.15-1.82-.66-2.6,2.24-.8,2.9Z"/><path class="cls-3" d="M498.26,649.4c-4.86-.12-9.95,1.56-13.12,5.42-3.35,4.08-2.79,9.28-2,14.14.32,1.89,3.21,1.09,2.89-.8-.69-4-1.29-8.63,1.79-11.89a13.62,13.62,0,0,1,10.4-3.87c1.93.05,1.93-2.95,0-3Z"/><path class="cls-3" d="M509.19,663.93a40.53,40.53,0,0,0,1.38,16.64c.55,1.84,3.44,1.06,2.9-.8a38.23,38.23,0,0,1-1.28-15.84c.24-1.91-2.76-1.89-3,0Z"/><path class="cls-3" d="M520.06,655c3.67,2.84,6.62,6.6,6.86,11.39.1,1.92,3.1,1.94,3,0-.28-5.58-3.4-10.16-7.73-13.51-1.51-1.17-3.65.94-2.13,2.12Z"/><path class="cls-3" d="M544.14,438.21c-8-.3-17.38-.73-23.88,4.85-1.47,1.26.66,3.38,2.12,2.13,5.78-5,14.66-4.24,21.76-4,1.93.07,1.93-2.93,0-3Z"/><path class="cls-3" d="M545.67,445.52c-.13,6.67.06,13.31.58,20,.15,1.91,3.15,1.93,3,0-.52-6.65-.71-13.29-.58-20,0-1.93-3-1.93-3,0Z"/><path class="cls-3" d="M560.08,450.2l2.4,5.5c.77,1.76,3.36.24,2.59-1.51l-2.4-5.5c-.77-1.77-3.36-.24-2.59,1.51Z"/><path class="cls-3" d="M692.05,548c8.22,1.8,16.08,5.07,22.1,11.1a1.5,1.5,0,0,0,2.12-2.12c-6.37-6.38-14.72-10-23.42-11.87-1.88-.42-2.69,2.47-.8,2.89Z"/><path class="cls-3" d="M484.09,545.41c-6.34.37-14.73,3.24-16.34,10.24-.44,1.88,2.45,2.68,2.89.8,1.29-5.6,8.46-7.75,13.45-8,1.92-.11,1.93-3.11,0-3Z"/><path class="cls-3" d="M400,586c-8.32.07-21.29,1-24.55,10.42-.63,1.83,2.26,2.61,2.89.8C381.07,589.43,393.3,589,400,589a1.5,1.5,0,0,0,0-3Z"/><path class="cls-3" d="M589.42,549.43c8.35,2.12,16.26,5.48,22.91,11.05,1.47,1.24,3.6-.88,2.12-2.12-7.05-5.9-15.37-9.57-24.23-11.82-1.88-.47-2.67,2.42-.8,2.89Z"/><path class="cls-3" d="M568.62,493.46a33.05,33.05,0,0,1,5.88.43c1.25.24,4.17.91,4.34,2.56.2,1.91,3.2,1.93,3,0-.61-5.85-8.87-5.91-13.22-6-1.93,0-1.93,3,0,3Z"/><path class="cls-3" d="M604.32,593.12c-7.71-1.83-9.89,8.2-11.74,13.57-.63,1.83,2.27,2.62,2.89.8.89-2.58,1.85-5.14,2.93-7.65,1-2.25,2.23-4.51,5.12-3.83,1.88.45,2.68-2.45.8-2.89Z"/><path class="cls-3" d="M717.35,645.17c5.31,2.05,10.32,5.42,12.65,10.78.77,1.77,3.36.25,2.59-1.51-2.64-6.08-8.46-9.86-14.44-12.16-1.81-.69-2.59,2.21-.8,2.89Z"/><path class="cls-3" d="M599.13,657.2a27.92,27.92,0,0,0-1.93,17.53c.41,1.89,3.3,1.09,2.9-.8a24.34,24.34,0,0,1,1.62-15.21c.77-1.75-1.81-3.28-2.59-1.52Z"/></g><path class="cls-4" d="M437.23,522.38a3.74,3.74,0,0,1,3-1.68,3.34,3.34,0,0,1,.83.09,2,2,0,0,0,1.48-.31,49.77,49.77,0,0,1,8.65-4.37,27.5,27.5,0,0,1,10-1.94,22.11,22.11,0,0,1,6.48,1,18,18,0,0,1,6.14,3.44,27,27,0,0,1,5.83,6.36,42.55,42.55,0,0,1,4.41,8.55,58.81,58.81,0,0,1,2.79,10,55.87,55.87,0,0,1,1,10.59,47.56,47.56,0,0,1-3.7,18.88,43.07,43.07,0,0,1-9.64,14.39,22.62,22.62,0,0,1-13.1,6.26q-1.42.18-2.91.27c-1,.06-1.93.08-2.8.08a39.34,39.34,0,0,1-5.36-.35c-1.07-.14-2.14-.31-3.22-.5a1.73,1.73,0,0,0-2,1.71v13.09q0,8.46.12,15.17a10.84,10.84,0,0,1-1.6,6.09,4.17,4.17,0,0,1-3.28,2,4,4,0,0,1-3.09-1.85,10.87,10.87,0,0,1-1.78-5.64,1.27,1.27,0,0,1,0-.2V589.17a1.48,1.48,0,0,1-.83-.35,8.47,8.47,0,0,1-2.62-3.36,9.66,9.66,0,0,1-.84-3.88,8.13,8.13,0,0,1,1.07-4.14,5.54,5.54,0,0,1,2.17-2.15,1.75,1.75,0,0,0,.93-1.53v-46a1.82,1.82,0,0,1,0-.32A11.4,11.4,0,0,1,437.23,522.38Zm31.9,8.91a13,13,0,0,0-8.09-2.83,20.33,20.33,0,0,0-8.34,1.86,43.54,43.54,0,0,0-6.87,3.8,1.73,1.73,0,0,0-.75,1.43V576.8a1.72,1.72,0,0,0,1.19,1.65,33,33,0,0,0,3.81.93,29.9,29.9,0,0,0,5.12.44,24.2,24.2,0,0,0,5-.53,35,35,0,0,0,6.85-2.56,15.48,15.48,0,0,0,6-5.74,30.66,30.66,0,0,0,3.57-8.47,36.71,36.71,0,0,0-1-21.79A21.74,21.74,0,0,0,469.13,531.29Z"/><path class="cls-4" d="M538.44,611.78a1.63,1.63,0,0,1,.87.19,6.76,6.76,0,0,1,2.92,3,9,9,0,0,1,1,4.32,8.86,8.86,0,0,1-1.25,4.23,5.86,5.86,0,0,1-3.19,2.65,2,2,0,0,1-.55.1q-9,.35-17.93.43t-17.89.43a2,2,0,0,1-.42,0q-4.41-.83-4.9-7.47a1,1,0,0,1,0-.17q0-23.25.12-46.33t.12-46.44a2.64,2.64,0,0,1,0-.29,10.63,10.63,0,0,1,1.82-5,4.1,4.1,0,0,1,2.86-1.86,3.72,3.72,0,0,1,2.92,1.5,10.58,10.58,0,0,1,2.1,4.74,1.84,1.84,0,0,1,0,.41q0,21.78-.12,43.12-.11,20.55-.12,41.51a1.73,1.73,0,0,0,1.81,1.73q7.06-.28,14.15-.36Q530.57,612.11,538.44,611.78Z"/><path class="cls-4" d="M611.51,619.75a2.09,2.09,0,0,1,0,.25,13.1,13.1,0,0,1-1.19,5.35,4.46,4.46,0,0,1-2.62,2.55,3.32,3.32,0,0,1-3.09-.79,9.05,9.05,0,0,1-2.54-4,2,2,0,0,1-.1-.47q-.72-8.17-2-16.09-1.2-7.34-2.79-14.59a1.75,1.75,0,0,0-1.72-1.36l-30.14.34a1.9,1.9,0,0,1-.54-.09,1.84,1.84,0,0,0-.53-.09q-3,15-5.34,31a1.6,1.6,0,0,1,0,.21c-.63,2.41-1.53,4-2.71,4.84a3.35,3.35,0,0,1-3.39.53,5.47,5.47,0,0,1-2.62-3.18,12.76,12.76,0,0,1-.54-6.35q3.93-25.59,9.47-50A410.69,410.69,0,0,1,573,520q.72-3.35,3.33-4.23a3,3,0,0,1,2.5-.27,4.28,4.28,0,0,1,2,1.68q.12,0,.12.09t.12.09a89.12,89.12,0,0,1,10.35,19.94q4.17,11.12,7.62,22.59c.88,2.7,1.69,5.41,2.44,8.11q.94,3.4,1.86,6.8a1.7,1.7,0,0,0,1.71,1.28l4.5-.12a1.68,1.68,0,0,1,.85.19,6.83,6.83,0,0,1,2.93,3,9,9,0,0,1,1,4.33,8.75,8.75,0,0,1-1.25,4.23,5.86,5.86,0,0,1-3.15,2.63,1.88,1.88,0,0,1-.62.11h-.06a1.72,1.72,0,0,0-1.69,2.07q1.28,6.21,2.25,12.48Q610.92,612.23,611.51,619.75Zm-31-80.89a1.72,1.72,0,0,0-3.21.22q-2.58,8.08-4.81,16.38-2.5,9.36-4.69,18.85a1.74,1.74,0,0,0,1.72,2.12l21.46-.29a1.73,1.73,0,0,0,1.64-2.22q-1.23-4.17-2.51-8.22-1.6-5.12-3.27-10.24-1.9-5.12-3.81-10.41Q581.92,541.86,580.55,538.86Z"/><path class="cls-4" d="M647.48,619.17a10.84,10.84,0,0,1-1.61,6.09,4.14,4.14,0,0,1-3.27,2,4,4,0,0,1-3.1-1.86,10.93,10.93,0,0,1-1.77-5.63,1.34,1.34,0,0,1,0-.2q0-10.71-.06-21.34-.06-10.41-.06-21.08a1.73,1.73,0,0,0-.31-1A190.08,190.08,0,0,1,624.08,554a107.86,107.86,0,0,1-9.19-26.76,2.89,2.89,0,0,1,0-.29,5.13,5.13,0,0,0-.05-.65,5.93,5.93,0,0,1-.06-.8,10.11,10.11,0,0,1,1.37-5.73,3.85,3.85,0,0,1,3.15-2q2.67,0,4.55,3.86a2,2,0,0,1,.14.41,98.31,98.31,0,0,0,7.46,22.47,151.47,151.47,0,0,0,9.4,16.79,1.72,1.72,0,0,0,2.94-.09l10.1-17.76a138,138,0,0,0,9.94-21.8,8.71,8.71,0,0,1,2.2-3.53,3.88,3.88,0,0,1,2.44-1.06,4,4,0,0,1,3.22,2,8.43,8.43,0,0,1,1.43,5.11,15.62,15.62,0,0,1-.57,3.78,1.72,1.72,0,0,1-.07.21,168.09,168.09,0,0,1-11.51,24.87q-6.66,11.73-13.09,23.38l-.48.7v21.09Q647.36,608.58,647.48,619.17Z"/></svg>
