<svg id="Layer_1" data-name="Layer 1" xmlns="http://www.w3.org/2000/svg" viewBox="0 0 1520 1140"><defs><style>.cls-1{fill:red;}.cls-2{fill:#fbc117;}.cls-3{fill:#006837;}</style></defs><title>point_kugle</title><ellipse class="cls-1" cx="731.2" cy="546.68" rx="131.42" ry="118.36"/><rect class="cls-2" x="707.48" y="388.96" width="46.16" height="39.36"/><rect class="cls-2" x="725.43" y="352.48" width="11.54" height="36.48"/><path class="cls-3" d="M676.16,544.67h-2.73c-4.46,0-8.15.08-11.09.25-.44,0-.85,0-1.22,0a3.28,3.28,0,0,1-1.81-.48,1.37,1.37,0,0,1-.75-1.15,11.21,11.21,0,0,1,1.19-3.27,23.32,23.32,0,0,1,2-3.7,4.43,4.43,0,0,1,3.67-1.91c.45,0,1,0,1.68.08,3.93.28,6.48.4,7.63.37h1.5c2,0,3-.75,3-2.25v-2.71a34.83,34.83,0,0,0-.67-5.76,3.15,3.15,0,0,1-.11-.87c0-1,1.15-1.89,3.45-2.67,1.41-.45,3.05-.87,4.9-1.28a21.91,21.91,0,0,1,4-.6c1.52,0,2.28.54,2.28,1.63a7.46,7.46,0,0,1-.16,1,35.63,35.63,0,0,0-.11,4v7.26q0,2.22,3.06,2.25h8.64c2.93,0,4.68,0,5.23-.08.78-.08,1.27-.12,1.45-.12,1.45,0,2.18.55,2.18,1.66a10.53,10.53,0,0,1-1,3.24,17.76,17.76,0,0,1-2,3.69,3.82,3.82,0,0,1-3.18,2l-8.86-.58h-2.56c-2.19-.12-3.21.65-3.06,2.29v.67a51.65,51.65,0,0,0,.55,6.84,8,8,0,0,1,.11,1.25c0,1.23-1.13,2.24-3.39,3q-1.85.62-5,1.37a24.81,24.81,0,0,1-3.93.75,2.35,2.35,0,0,1-1.64-.56,1.77,1.77,0,0,1-.64-1.4,7.13,7.13,0,0,1,0-.87c.22-2.2.34-5,.34-8.3V547C679.34,545.35,678.32,544.58,676.16,544.67Z"/><path class="cls-3" d="M764.14,564.23H726.2q-5,0-5-2.13a2.7,2.7,0,0,1,1.06-2q1.07-.93,6.85-5,10.75-7.59,15.94-14.14,2.67-3.33,2.67-5.76a4,4,0,0,0-1.61-3.31,7,7,0,0,0-4.35-1.23,11.18,11.18,0,0,0-3.9.52,49.38,49.38,0,0,0-5.9,3.4,6.17,6.17,0,0,1-3.24.75,8.35,8.35,0,0,1-4.82-1.52c-1.46-1-2.2-2.12-2.2-3.32s.67-2.31,2-3.69a22.76,22.76,0,0,1,5.29-3.9,55.51,55.51,0,0,1,26.69-6.47q11.15,0,18.44,3.21a13.37,13.37,0,0,1,5.3,4.09,9,9,0,0,1,2,5.51q0,7.3-13.48,15.85c-3.2,2-4.79,3.51-4.79,4.51a2.32,2.32,0,0,0,1.45,2,7.06,7.06,0,0,0,3.51.81,14.35,14.35,0,0,0,8.74-2.83,19.86,19.86,0,0,1,2.59-1.71,4.26,4.26,0,0,1,1.76-.3q4.9,0,4.9,6.26a14.31,14.31,0,0,1-1.58,6.34,17.43,17.43,0,0,1-4.32,5.55,9.5,9.5,0,0,1-6.35,2.5,4.84,4.84,0,0,1-2.23-.43,7.48,7.48,0,0,1-1.9-1.65,4.77,4.77,0,0,0-2-1.5A12.45,12.45,0,0,0,764.14,564.23Z"/></svg>
