<svg id="Layer_1" data-name="Layer 1" xmlns="http://www.w3.org/2000/svg" viewBox="0 0 1594.51 490.24"><defs><style>.cls-1{fill:#c69c6d;}.cls-2,.cls-3{fill:#fff;}.cls-2{stroke:#a67c52;stroke-miterlimit:10;stroke-width:88px;}.cls-4{fill:#fcee92;}.cls-5{fill:#fcee21;}</style></defs><title>risengrød</title><polygon class="cls-1" points="1344.13 487.52 216.26 487.52 91.94 366 1478.71 366 1344.13 487.52"/><ellipse class="cls-2" cx="797.26" cy="245.12" rx="753.26" ry="201.12"/><ellipse class="cls-3" cx="124.13" cy="219.2" rx="54.49" ry="40.8"/><ellipse class="cls-3" cx="179.27" cy="188.48" rx="54.49" ry="40.8"/><ellipse class="cls-3" cx="270.3" cy="164.48" rx="54.49" ry="40.8"/><ellipse class="cls-3" cx="1071.63" cy="117.44" rx="54.49" ry="40.8"/><ellipse class="cls-3" cx="970.34" cy="108.8" rx="54.49" ry="40.8"/><ellipse class="cls-3" cx="863.93" cy="97.28" rx="54.49" ry="40.8"/><ellipse class="cls-3" cx="762.64" cy="97.28" rx="54.49" ry="40.8"/><ellipse class="cls-3" cx="661.35" cy="97.28" rx="54.49" ry="40.8"/><ellipse class="cls-3" cx="558.78" cy="108.8" rx="54.49" ry="40.8"/><ellipse class="cls-3" cx="454.92" cy="117.44" rx="54.49" ry="40.8"/><ellipse class="cls-3" cx="358.76" cy="137.6" rx="54.49" ry="40.8"/><ellipse class="cls-3" cx="1378.06" cy="178.88" rx="54.49" ry="40.8"/><ellipse class="cls-3" cx="1285.75" cy="147.2" rx="54.49" ry="40.8"/><ellipse class="cls-3" cx="1178.05" cy="128.96" rx="54.49" ry="40.8"/><ellipse class="cls-3" cx="1433.2" cy="224" rx="54.49" ry="40.8"/><path class="cls-4" d="M866.87,314.47,760,343.52c-58.66,0-84-35.89-84-78.55l-32.55-36.59c-54.76-55.95,57.92-80.7,116.58-80.7l98,24.75c58.66,0,96.18,9.83,96.18,52.5v41.34C954.18,308.94,961.58,326.3,866.87,314.47Z"/><path class="cls-5" d="M794,290.39,742.76,260c-20-7.09-48.72-21.12-47.43-46.08L728.66,188c24.36-18.24,37.68-12.53,57.72-5.43L830,212c20,7.09,46.93,17.47,37.45,32.48L833.8,264.8C824.32,279.81,814.07,297.49,794,290.39Z"/></svg>
