<svg id="Layer_1" data-name="Layer 1" xmlns="http://www.w3.org/2000/svg" viewBox="0 0 1920 1080"><defs><style>.cls-1{fill:#c69c6d;}.cls-2,.cls-3{fill:#fff;}.cls-2{stroke:#a67c52;stroke-miterlimit:10;stroke-width:88px;}.cls-4{fill:#fcee92;}.cls-5{fill:#fcee21;}</style></defs><title>risengrød</title><polygon class="cls-1" points="1473.87 1077.27 345.99 1077.27 221.67 955.75 1608.44 955.75 1473.87 1077.27"/><ellipse class="cls-2" cx="926.99" cy="834.87" rx="753.26" ry="201.12"/><ellipse class="cls-3" cx="253.86" cy="808.95" rx="54.49" ry="40.8"/><ellipse class="cls-3" cx="309" cy="778.23" rx="54.49" ry="40.8"/><ellipse class="cls-3" cx="400.03" cy="754.23" rx="54.49" ry="40.8"/><ellipse class="cls-3" cx="1201.36" cy="707.19" rx="54.49" ry="40.8"/><ellipse class="cls-3" cx="1100.08" cy="698.55" rx="54.49" ry="40.8"/><ellipse class="cls-3" cx="993.66" cy="687.03" rx="54.49" ry="40.8"/><ellipse class="cls-3" cx="892.37" cy="687.03" rx="54.49" ry="40.8"/><ellipse class="cls-3" cx="791.08" cy="687.03" rx="54.49" ry="40.8"/><ellipse class="cls-3" cx="688.51" cy="698.55" rx="54.49" ry="40.8"/><ellipse class="cls-3" cx="584.66" cy="707.19" rx="54.49" ry="40.8"/><ellipse class="cls-3" cx="488.5" cy="727.35" rx="54.49" ry="40.8"/><ellipse class="cls-3" cx="1507.79" cy="768.63" rx="54.49" ry="40.8"/><ellipse class="cls-3" cx="1415.48" cy="736.95" rx="54.49" ry="40.8"/><ellipse class="cls-3" cx="1307.78" cy="718.71" rx="54.49" ry="40.8"/><ellipse class="cls-3" cx="1562.93" cy="813.75" rx="54.49" ry="40.8"/><path class="cls-4" d="M996.61,904.22l-106.86,29c-58.67,0-84-35.89-84-78.55l-32.55-36.59c-54.76-56,57.92-80.7,116.59-80.7l98,24.75c58.67,0,96.18,9.83,96.18,52.5V856C1083.91,898.69,1091.31,916.05,996.61,904.22Z"/><path class="cls-5" d="M923.76,880.14,872.5,849.75c-20-7.09-48.73-21.12-47.44-46.08l33.33-25.92c24.36-18.24,37.68-12.53,57.72-5.43l43.57,29.43c20,7.09,46.93,17.47,37.45,32.48l-33.6,20.32C954.05,869.56,943.8,887.23,923.76,880.14Z"/></svg>
