<svg id="Layer_1" data-name="Layer 1" xmlns="http://www.w3.org/2000/svg" viewBox="0 0 885 752"><defs><style>.cls-1{fill:#f7931e;stroke:#fff;stroke-width:26.45px;}.cls-1,.cls-2,.cls-3,.cls-4,.cls-5,.cls-6{stroke-miterlimit:10;}.cls-2,.cls-3,.cls-4,.cls-5,.cls-6{fill:none;}.cls-2,.cls-4,.cls-5{stroke:#000;}.cls-2{stroke-linecap:round;stroke-width:9.14px;}.cls-3,.cls-6{stroke:#006837;}.cls-3{stroke-width:5px;}.cls-4{stroke-width:3px;}.cls-5{stroke-width:4px;}.cls-6{stroke-width:6.76px;}</style></defs><title>settings</title><rect class="cls-1" x="45.8" y="19.94" width="798.5" height="710.5" rx="152.71"/><path d="M185.55,209.1,181,219.21a18.47,18.47,0,0,1-1.88,3.44,2,2,0,0,1-1.58.88,1.92,1.92,0,0,1-1.47-.71,24.2,24.2,0,0,1-1.9-3.31q-1.49-2.85-2.46-5.07l-5-11.17c-.68-1.56-1.39-2.33-2.15-2.33s-1.24.66-1.31,2q-.27,4.44-.27,8.2a24.22,24.22,0,0,0,.38,5.3,2.63,2.63,0,0,0,.7,1.2,14.81,14.81,0,0,0,2.35,1.35,2.3,2.3,0,0,1,1.24,2.22q0,4.22-10.79,4.21-9.1,0-9.1-4.09a2.08,2.08,0,0,1,.47-1.53,11,11,0,0,1,2.42-1.41,3.12,3.12,0,0,0,1.68-1.54,15.27,15.27,0,0,0,.73-3.8c.22-2,.44-5.29.64-9.87s.3-8.49.3-11.74q0-6.13-.94-8.31a3.28,3.28,0,0,0-.77-1.13,8.81,8.81,0,0,0-1.64-1c-1.78-.85-2.67-1.95-2.67-3.31a3.5,3.5,0,0,1,1-2.4,5.47,5.47,0,0,1,2.65-1.55,30.73,30.73,0,0,1,4.42-.84,37.12,37.12,0,0,1,4.68-.36,20.3,20.3,0,0,1,6.8.79,3.82,3.82,0,0,1,1.55,1,15.54,15.54,0,0,1,1.61,2.63l7.82,14.4a17.64,17.64,0,0,0,1.77,2.89,1.77,1.77,0,0,0,1.35.53,1.9,1.9,0,0,0,1.34-.56,8.66,8.66,0,0,0,1.37-2.11l5.3-10.34c.65-1.33,1.08-2.19,1.28-2.59,1.23-2.51,2.44-4.18,3.65-5q2.29-1.62,8.34-1.62,10.65,0,10.64,4.85a3.22,3.22,0,0,1-.41,1.75,6.94,6.94,0,0,1-1.69,1.6,5.86,5.86,0,0,0-2.18,3.79,78,78,0,0,0-.87,12.64,135.34,135.34,0,0,0,.91,16.8,5.65,5.65,0,0,0,.69,2.41,10.93,10.93,0,0,0,2.43,1.92,2.76,2.76,0,0,1,1.35,2.4q0,2.64-3.5,3.72a16.26,16.26,0,0,1-3.79.79c-1.33.13-3.38.19-6.13.19a36.85,36.85,0,0,1-9.48-.9c-2.3-.68-3.46-1.83-3.46-3.46a2.33,2.33,0,0,1,.45-1.48,18.67,18.67,0,0,1,2.34-2.13,4.8,4.8,0,0,0,1.33-3,55.77,55.77,0,0,0,.36-7.67,17.6,17.6,0,0,0-.28-4,1.16,1.16,0,0,0-1.19-.94c-.7,0-1.38.48-2,1.45A44.91,44.91,0,0,0,185.55,209.1Z"/><path d="M236.91,189.36v20.38q0,6.54,4.32,6.54a4.19,4.19,0,0,0,2.14-.62,3.47,3.47,0,0,0,1.47-1.53q.82-1.8.83-8a54.84,54.84,0,0,0-.42-8.42,2.79,2.79,0,0,0-.52-1.38,5.39,5.39,0,0,0-1.43-1c-1.43-.75-2.14-1.71-2.14-2.86,0-1.55,1.22-2.63,3.68-3.23a57,57,0,0,1,13.8-1.73q3.8,0,3.8,4c0,.28,0,.84,0,1.69,0,1.21-.09,2.67-.11,4.4v16.58c0,.85.72,1.63,2.18,2.33a2.86,2.86,0,0,1,1.84,2.63q0,3.39-8,5.23a40,40,0,0,1-9.1,1.09,5.14,5.14,0,0,1-2.46-.41,2,2,0,0,1-.77-1.62c-.13-1.55-.6-2.33-1.43-2.33a1.68,1.68,0,0,0-.83.21c-.25.14-1,.64-2.29,1.52a14.18,14.18,0,0,1-8.16,2.59q-7.22,0-10.19-4.17-2.52-3.5-2.52-11.77c0-2.05,0-3.81,0-5.26v-1.73a14.28,14.28,0,0,0-.58-4.76,4.56,4.56,0,0,0-2.13-2.38,6.92,6.92,0,0,1-1.86-1.21,1.82,1.82,0,0,1-.39-1.24q0-2.85,4.32-3.8a69.1,69.1,0,0,1,14.74-1.61C236.17,187.48,236.91,188.1,236.91,189.36Z"/><path d="M283.53,187.21a37,37,0,0,1,6.13.83,8.57,8.57,0,0,0,1.42.15,9.17,9.17,0,0,0,2.49-.67,4,4,0,0,1,1.46-.34c1.16,0,2.32.74,3.5,2.22a16.14,16.14,0,0,1,2.33,3.87,9.54,9.54,0,0,1,.9,3.65,3.31,3.31,0,0,1-1.05,2.5,3.69,3.69,0,0,1-2.63,1,4.34,4.34,0,0,1-2.35-.64A24.07,24.07,0,0,1,292.4,197q-2.4-2.32-4-2.33a2.63,2.63,0,0,0-2.6,2.6c0,1.22,1.18,2.38,3.54,3.45a32.63,32.63,0,0,1,9.73,6.25,9.47,9.47,0,0,1,2.86,7,10.58,10.58,0,0,1-4.59,8.72,15.34,15.34,0,0,1-9.66,3.05,52.75,52.75,0,0,1-5.34-.49c-2.43-.28-3.8-.41-4.1-.41a6,6,0,0,0-1.12.11,13.28,13.28,0,0,1-1.58.15,4.07,4.07,0,0,1-2.79-.9,12.89,12.89,0,0,1-2.85-4.38,13.19,13.19,0,0,1-1.32-5.14c0-2.3.9-3.46,2.71-3.46a3.06,3.06,0,0,1,1.93.7,46.85,46.85,0,0,1,3.71,3.7,13.9,13.9,0,0,0,2.55,2.28,4.17,4.17,0,0,0,2.19.62,2.91,2.91,0,0,0,2-.66,2.21,2.21,0,0,0,.75-1.75c0-1.13-1-2.15-2.89-3.08q-6.06-3-8.75-6.13a10.92,10.92,0,0,1-2.68-7.29,11.52,11.52,0,0,1,2.74-7.71A13.27,13.27,0,0,1,283.53,187.21Z"/><path d="M326.09,189.81v21.84a11.07,11.07,0,0,0,.47,3.8,5,5,0,0,0,1.9,2.22,6.65,6.65,0,0,1,1.56,1.41,2.61,2.61,0,0,1,.39,1.48q0,4.86-12.29,4.85a41.67,41.67,0,0,1-10.49-1A4.26,4.26,0,0,1,305.5,223a3.15,3.15,0,0,1-.8-2.14,2.62,2.62,0,0,1,.41-1.58,11.73,11.73,0,0,1,2.1-1.8,4.84,4.84,0,0,0,1.66-2.82,26.18,26.18,0,0,0,.49-5.83c0-.83-.06-2.37-.17-4.64s-.2-3.59-.25-4a3.12,3.12,0,0,0-2.1-2.37c-1.56-.67-2.33-1.68-2.33-3q0-2.35,3-3.53a68.77,68.77,0,0,1,9-2.74,34.64,34.64,0,0,1,7.44-1.13C325.4,187.48,326.09,188.25,326.09,189.81Zm-7.45-16.47a9.63,9.63,0,0,1,5.19,1.22,3.74,3.74,0,0,1,1.92,3.29,5.15,5.15,0,0,1-2.9,4.59,21.66,21.66,0,0,1-11.09,2.67,7.92,7.92,0,0,1-4.36-1.05,4.23,4.23,0,0,1-2.18-3.76q0-3.24,4.63-5.08A23.8,23.8,0,0,1,318.64,173.34Z"/><path d="M354.4,175.18,354.06,187c0,1.18,0,2.91,0,5.19a43.16,43.16,0,0,0,.12,4.47c.17,1,.7,1.55,1.58,1.55a7.84,7.84,0,0,0,3.45-1.45q2.34-1.46,2.34-2.16a3.48,3.48,0,0,0-.83-1.51,2.51,2.51,0,0,1-.6-1.5q0-4.06,10-4.06a25.6,25.6,0,0,1,8.19,1.05,4.22,4.22,0,0,1,2,1.43,3.52,3.52,0,0,1,.79,2.18,2.39,2.39,0,0,1-1.62,2.37,16,16,0,0,1-2.18.49,12.55,12.55,0,0,0-4.29,2.05c-1.75,1.16-2.63,2-2.63,2.53,0,.36,1.06,2,3.18,4.95s4.09,5.51,5.92,7.69a26.88,26.88,0,0,0,2.76,3,16.3,16.3,0,0,0,2.77,1.85c1.8,1,2.7,2.09,2.7,3.34a3.54,3.54,0,0,1-1.71,3.12,8.35,8.35,0,0,1-4.68,1.13H369.1a4.34,4.34,0,0,1-3.57-1.69l-6.24-8c-1.66-2.1-2.67-3.36-3-3.76s-.67-.6-.92-.6-.5.23-.6.68a14,14,0,0,0-.15,2.55,6,6,0,0,0,.37,2.47,6.45,6.45,0,0,0,1.73,1.86,2.81,2.81,0,0,1,1,2.33,4,4,0,0,1-2.78,3.8c-1.86.77-4.91,1.16-9.18,1.16q-7.51,0-9.77-.64a4.3,4.3,0,0,1-2.18-1.52,3.85,3.85,0,0,1-.9-2.42,3,3,0,0,1,1.58-2.49,8.26,8.26,0,0,0,1.72-1.31,3.36,3.36,0,0,0,.61-1.43,108.15,108.15,0,0,0,.82-16.24v-8.24a19.88,19.88,0,0,0-.43-5.37,2.35,2.35,0,0,0-2.12-1.4Q332,184,332,181.84a3.34,3.34,0,0,1,1.36-2.58,15.23,15.23,0,0,1,4.43-2.27q9.86-3.65,14.59-3.65C353.76,173.34,354.45,174,354.4,175.18Z"/><path d="M399.4,186.2a8.79,8.79,0,0,1,8.76,8.76,8.6,8.6,0,0,1-2.67,6.5,9,9,0,0,1-12.4,0,8.6,8.6,0,0,1-2.67-6.5,8.14,8.14,0,0,1,2.25-5.83A8.81,8.81,0,0,1,399.4,186.2Zm0,21.73a8.79,8.79,0,0,1,8.76,8.76,8.64,8.64,0,0,1-2.67,6.51,9,9,0,0,1-12.4,0,8.64,8.64,0,0,1-2.67-6.51,8.16,8.16,0,0,1,2.25-5.83A8.81,8.81,0,0,1,399.4,207.93Z"/><path d="M175.5,341.77V359q0,5.82,1,7.52c.82,1.33,2.57,2,5.22,2a10.91,10.91,0,0,0,6.77-1.88A10,10,0,0,0,192,360.8c.38-1.63,1.23-2.45,2.56-2.45a3.84,3.84,0,0,1,3.25,1.79,7.88,7.88,0,0,1,1.26,4.64q0,4.67-3.46,10a9.43,9.43,0,0,1-1.92,2.32,3.23,3.23,0,0,1-2,.62l-8.35-1H157a8,8,0,0,1-3.65-.6,2.81,2.81,0,0,1-1.54-2.59,2.09,2.09,0,0,1,.51-1.56,10.74,10.74,0,0,1,2.46-1.45,4.87,4.87,0,0,0,2.75-2.86c.32-1,.49-4,.49-9,0-2.31-.07-5.63-.19-10-.13-4.16-.2-7.29-.23-9.4a11.87,11.87,0,0,0-.47-4.11,3,3,0,0,0-2-1.6,13.44,13.44,0,0,1-3.16-1.39,2.71,2.71,0,0,1-1.2-2.15c0-1.83,1.51-3.22,4.55-4.17a34.94,34.94,0,0,1,10.37-1.24,58.2,58.2,0,0,1,10.91.75q4.67,1,4.66,4.06a2.46,2.46,0,0,1-.62,1.84,11.27,11.27,0,0,1-3,1.62,3.06,3.06,0,0,0-1.8,2.18A36.44,36.44,0,0,0,175.5,341.77Z"/><path d="M234.38,357.71l-5,13.65a53,53,0,0,1-3.71,8.29,24.23,24.23,0,0,1-4.23,5.47,16.41,16.41,0,0,1-11.76,4.66,13.47,13.47,0,0,1-9-2.93A7.19,7.19,0,0,1,198,381.1a6.84,6.84,0,0,1,1.86-4.87,6,6,0,0,1,4.57-2,5.63,5.63,0,0,1,4.36,1.8,5.08,5.08,0,0,1,1.06,1.47,27.19,27.19,0,0,1,.79,2.82,1.85,1.85,0,0,0,1.88,1.65,2.41,2.41,0,0,0,2-1,4,4,0,0,0,.79-2.52q0-1.77-1.95-5.91l-9.07-19.28a17.19,17.19,0,0,0-2.14-3.76,11.16,11.16,0,0,0-3.16-1.85,2.73,2.73,0,0,1-1.29-1.18,3.22,3.22,0,0,1-.55-1.71q0-3.34,6.66-4.55a57.64,57.64,0,0,1,10.11-.79,19.13,19.13,0,0,1,6.28.83q3.08,1.1,3.08,3.72a4.2,4.2,0,0,1-.86,2.22,3.85,3.85,0,0,0-.83,2.14,5.07,5.07,0,0,0,.39,1.88,36.89,36.89,0,0,0,1.68,3.31c1,1.75,1.79,2.63,2.52,2.63s1.58-.77,2.4-2.31a9.39,9.39,0,0,0,1.24-4.46,4.16,4.16,0,0,0-.94-2.82,4.89,4.89,0,0,1-1.43-2.89c0-1.28.86-2.3,2.56-3.06a16.89,16.89,0,0,1,6.84-1.15c5.32,0,8,1.28,8,3.83a3.13,3.13,0,0,1-.8,2.24,7.8,7.8,0,0,1-3,1.6,5.78,5.78,0,0,0-2.85,2.25A44,44,0,0,0,234.38,357.71Z"/><path d="M290.17,328.35v34.33a17.44,17.44,0,0,0,.25,3.76,3.22,3.22,0,0,0,1.37,1.61,6.92,6.92,0,0,1,1.82,1.66,3,3,0,0,1,.47,1.73c0,2-2,3.53-6.05,4.58a43.8,43.8,0,0,1-10.9,1.39,2.39,2.39,0,0,1-1.56-.35,3,3,0,0,1-.47-1.71c-.13-1.28-.58-1.92-1.36-1.92a3.93,3.93,0,0,0-2,1.13,13.18,13.18,0,0,1-8.53,3.12,15,15,0,0,1-10.49-4.33,21.32,21.32,0,0,1-4.44-6,19.43,19.43,0,0,1-2.25-8.92A19.65,19.65,0,0,1,249,348.24a18.3,18.3,0,0,1,7.37-7,16.53,16.53,0,0,1,7.7-2,15.63,15.63,0,0,1,7.82,2,2.11,2.11,0,0,0,.91.3c.8,0,1.2-1.08,1.2-3.23a3.09,3.09,0,0,0-.66-2.13,5.34,5.34,0,0,0-2.35-1.26c-1.58-.5-2.37-1.37-2.37-2.63q0-2.75,5.46-4.28,9.61-2.67,12.89-2.67C289.1,325.27,290.17,326.29,290.17,328.35Zm-20.41,18.91a4.32,4.32,0,0,0-3.87,2.6A18.65,18.65,0,0,0,264,359q0,5.12,1.84,7.71a4.13,4.13,0,0,0,3.57,1.88q2.44,0,3.56-2.84t1.11-9.15q0-5.79-1.32-7.71A3.55,3.55,0,0,0,269.76,347.26Z"/><path d="M306.57,338.2a8.81,8.81,0,0,1,8.76,8.76,8.6,8.6,0,0,1-2.67,6.5,9,9,0,0,1-12.41,0,8.6,8.6,0,0,1-2.67-6.5,8.11,8.11,0,0,1,2.26-5.83A8.8,8.8,0,0,1,306.57,338.2Zm0,21.73a8.81,8.81,0,0,1,8.76,8.76,8.64,8.64,0,0,1-2.67,6.51,9,9,0,0,1-12.41,0,8.64,8.64,0,0,1-2.67-6.51,8.12,8.12,0,0,1,2.26-5.83A8.8,8.8,0,0,1,306.57,359.93Z"/><path d="M396.5,543.77V561q0,5.82,1,7.52c.82,1.33,2.57,2,5.22,2a10.91,10.91,0,0,0,6.77-1.88A10,10,0,0,0,413,562.8c.38-1.63,1.23-2.45,2.56-2.45a3.84,3.84,0,0,1,3.25,1.79,7.88,7.88,0,0,1,1.26,4.64q0,4.66-3.46,10a9.43,9.43,0,0,1-1.92,2.32,3.23,3.23,0,0,1-2,.62l-8.35-1H378a8,8,0,0,1-3.65-.6,2.81,2.81,0,0,1-1.54-2.59,2.09,2.09,0,0,1,.51-1.56,10.74,10.74,0,0,1,2.46-1.45,4.87,4.87,0,0,0,2.75-2.86c.32-1,.49-4,.49-9,0-2.31-.07-5.63-.19-10-.13-4.16-.2-7.29-.23-9.4a11.87,11.87,0,0,0-.47-4.11,3,3,0,0,0-2-1.6,13.44,13.44,0,0,1-3.16-1.39,2.71,2.71,0,0,1-1.2-2.15c0-1.83,1.51-3.22,4.55-4.17a34.94,34.94,0,0,1,10.37-1.24,58.2,58.2,0,0,1,10.91.75q4.66,1,4.66,4.06a2.46,2.46,0,0,1-.62,1.84,11.27,11.27,0,0,1-3,1.62,3.06,3.06,0,0,0-1.8,2.18A36.44,36.44,0,0,0,396.5,543.77Z"/><path d="M440.87,543.36v20.38q0,6.54,4.32,6.54a4.19,4.19,0,0,0,2.14-.62,3.47,3.47,0,0,0,1.47-1.53q.82-1.8.83-8a54.84,54.84,0,0,0-.42-8.42,2.79,2.79,0,0,0-.52-1.38,5.39,5.39,0,0,0-1.43-1c-1.43-.75-2.14-1.71-2.14-2.86,0-1.55,1.22-2.63,3.68-3.23a57,57,0,0,1,13.8-1.73q3.79,0,3.8,4c0,.28,0,.84,0,1.69-.05,1.21-.09,2.67-.11,4.4v16.58c0,.85.72,1.63,2.18,2.33a2.86,2.86,0,0,1,1.84,2.63q0,3.39-8,5.23a40,40,0,0,1-9.1,1.09,5.14,5.14,0,0,1-2.46-.41,2,2,0,0,1-.77-1.62c-.13-1.55-.6-2.33-1.43-2.33a1.68,1.68,0,0,0-.83.21c-.25.14-1,.64-2.29,1.52a14.18,14.18,0,0,1-8.16,2.59q-7.22,0-10.19-4.17-2.52-3.5-2.52-11.77c0-2.05,0-3.81,0-5.26v-1.73a14.28,14.28,0,0,0-.58-4.76,4.56,4.56,0,0,0-2.13-2.38,7.29,7.29,0,0,1-1.86-1.21,1.82,1.82,0,0,1-.39-1.24q0-2.85,4.32-3.8a69.1,69.1,0,0,1,14.74-1.61C440.13,541.48,440.87,542.1,440.87,543.36Z"/><path d="M494.22,529.18,493.88,541c0,1.18,0,2.91,0,5.19a43.16,43.16,0,0,0,.12,4.47c.17,1,.7,1.55,1.57,1.55a7.82,7.82,0,0,0,3.46-1.45c1.56-1,2.33-1.69,2.33-2.16a3.42,3.42,0,0,0-.82-1.51,2.51,2.51,0,0,1-.6-1.5q0-4.06,10-4.06a25.6,25.6,0,0,1,8.19,1,4.27,4.27,0,0,1,2,1.43,3.52,3.52,0,0,1,.79,2.18,2.39,2.39,0,0,1-1.62,2.37,16,16,0,0,1-2.18.49,12.46,12.46,0,0,0-4.29,2c-1.75,1.16-2.63,2-2.63,2.53,0,.36,1.06,2,3.18,4.95s4.09,5.51,5.92,7.69a26.88,26.88,0,0,0,2.76,3,16.3,16.3,0,0,0,2.77,1.85c1.8,1,2.7,2.09,2.7,3.34a3.54,3.54,0,0,1-1.71,3.12,8.35,8.35,0,0,1-4.68,1.13H508.92a4.34,4.34,0,0,1-3.57-1.69l-6.24-8c-1.66-2.1-2.67-3.36-3-3.76s-.67-.6-.92-.6-.5.23-.6.68a14,14,0,0,0-.15,2.55,6,6,0,0,0,.37,2.47,6.45,6.45,0,0,0,1.73,1.86,2.81,2.81,0,0,1,1,2.33,4,4,0,0,1-2.78,3.8q-2.79,1.15-9.18,1.16-7.51,0-9.77-.64a4.3,4.3,0,0,1-2.18-1.52,3.86,3.86,0,0,1-.91-2.42,3,3,0,0,1,1.58-2.49,8.12,8.12,0,0,0,1.73-1.31,3.5,3.5,0,0,0,.6-1.43,106.51,106.51,0,0,0,.83-16.24v-8.24a19.88,19.88,0,0,0-.43-5.37,2.35,2.35,0,0,0-2.12-1.4q-3.09-.4-3.09-2.55a3.34,3.34,0,0,1,1.36-2.58,15.23,15.23,0,0,1,4.43-2.27q9.85-3.65,14.59-3.65C493.58,527.34,494.27,528,494.22,529.18Z"/><path class="cls-2" d="M538.46,221.64V176.07a7.41,7.41,0,0,1,7.23-7.58h42.36a7.41,7.41,0,0,1,7.24,7.58v46.05"/><ellipse cx="533.99" cy="228.48" rx="12.99" ry="8.51"/><ellipse cx="590.42" cy="228.48" rx="12.58" ry="8.51"/><rect class="cls-3" x="506" y="143.99" width="117.5" height="114.5" rx="14.52"/><rect class="cls-3" x="508" y="286.99" width="117.5" height="114.5" rx="14.52"/><path d="M579,371l-.51-51.47L547,333.17V333H523a4,4,0,0,0-4,4v13.82a4.18,4.18,0,0,0,4.18,4.18H547v-.13Z"/><path class="cls-4" d="M584,334c5.52,0,7.49,5,7.48,10.51s-2,9.5-7.52,9.49"/><path class="cls-5" d="M591,329c8,0,12,7,12,15s-4,14-12,14"/><path class="cls-5" d="M600,325c9.93,0,14,8.07,14,18s-4.1,18-14,18"/><rect class="cls-6" x="342" y="494.99" width="214.5" height="114.5" rx="19.61"/></svg>
