<svg id="Layer_1" data-name="Layer 1" xmlns="http://www.w3.org/2000/svg" xmlns:xlink="http://www.w3.org/1999/xlink" viewBox="0 0 637 138"><defs><style>.cls-1{filter:url(#AI_BevelShadow_1);}.cls-2{fill:#a67c52;}.cls-3{fill:none;stroke:#000;stroke-miterlimit:10;stroke-width:3px;}.cls-4{fill:#006837;}</style><filter id="AI_BevelShadow_1" x="-20" y="-20" width="140" height="140" name="AI_BevelShadow_1"><feGaussianBlur result="blur" stdDeviation="4" in="SourceAlpha"/><feOffset result="offsetBlur" dx="4" dy="4" in="blur"/><feSpecularLighting result="specOut" surfaceScale="5" specularExponent="10" in="blur"><fePointLight x="-5000" y="-10000" z="-20000"/></feSpecularLighting><feComposite result="specOut" operator="in" in="specOut" in2="SourceAlpha"/><feComposite result="litPaint" operator="arithmetic" k2="1" k3="1" in="SourceGraphic" in2="specOut"/><feMerge><feMergeNode in="offsetBlur"/><feMergeNode in="litPaint"/></feMerge></filter></defs><title>spil_igen_knap</title><g class="cls-1"><rect class="cls-2" x="6.08" y="5.8" width="619" height="123"/><rect class="cls-3" x="6.08" y="5.8" width="619" height="123"/></g><path d="M26.93,47.68c6.43,0,6.45-10,0-10s-6.45,10,0,10Z"/><path d="M24.24,96c6.44,0,6.45-10,0-10s-6.44,10,0,10Z"/><path d="M596.6,50.36c6.43,0,6.44-10,0-10s-6.45,10,0,10Z"/><path d="M596.6,96c6.43,0,6.44-10,0-10s-6.45,10,0,10Z"/><path class="cls-4" d="M155.3,72.13q6.69,6.23,12.62,6.23a7.48,7.48,0,0,0,5.19-2,6.15,6.15,0,0,0,2.16-4.74,5.87,5.87,0,0,0-1.54-4,21.07,21.07,0,0,0-5.89-3.92,29.18,29.18,0,0,1-9.29-6.69,13.7,13.7,0,0,1-3.25-9.37,16.35,16.35,0,0,1,5.07-12.17q5.06-4.95,13.4-4.95a26.69,26.69,0,0,1,11.91,3.07V47.48q-5.48-5.28-10.5-5.27a6.55,6.55,0,0,0-4.31,1.49A4.52,4.52,0,0,0,169,47.31a4.86,4.86,0,0,0,1.5,3.57,17.78,17.78,0,0,0,5.39,3.24,29.19,29.19,0,0,1,9.88,6.64q3.36,3.78,3.36,10.17a18.55,18.55,0,0,1-5.79,13.74,19.4,19.4,0,0,1-14.13,5.68,30.36,30.36,0,0,1-13.95-3.9Z"/><path class="cls-4" d="M208.14,54.33a12.81,12.81,0,0,1,4-4A9.36,9.36,0,0,1,217.06,49q6.27,0,10,6a26,26,0,0,1,3.74,14.13,29,29,0,0,1-1.91,10.77,19.39,19.39,0,0,1-5.21,7.66,11.11,11.11,0,0,1-7.49,2.86,9.6,9.6,0,0,1-3.88-.83A12.93,12.93,0,0,1,208.64,87v20.83h-13v-58h11.25Zm.5,22.57a5.49,5.49,0,0,0,1.66,1.64,3.65,3.65,0,0,0,2,.56A4.06,4.06,0,0,0,216,76.52a15.39,15.39,0,0,0,1.33-7,15.19,15.19,0,0,0-1.27-7c-.84-1.61-1.95-2.41-3.34-2.41a3.32,3.32,0,0,0-3,1.76,11,11,0,0,0-1,5.35Z"/><path class="cls-4" d="M244.33,30.59a7.22,7.22,0,0,1,4.9,1.95,6.46,6.46,0,0,1,2.2,5.06,6.68,6.68,0,0,1-2.1,5,6.91,6.91,0,0,1-5,2,6.77,6.77,0,0,1-5-2.09,6.86,6.86,0,0,1-2.06-5,6.59,6.59,0,0,1,2.12-4.94A6.93,6.93,0,0,1,244.33,30.59Zm-6.68,19.29h13.2V89.44h-13.2Z"/><path class="cls-4" d="M259.73,31.54h13.2v57.9h-13.2Z"/><path class="cls-4" d="M310.28,30.59a7.22,7.22,0,0,1,4.9,1.95,6.46,6.46,0,0,1,2.2,5.06,6.68,6.68,0,0,1-2.1,5,6.91,6.91,0,0,1-5,2,6.77,6.77,0,0,1-5-2.09,6.86,6.86,0,0,1-2.06-5,6.59,6.59,0,0,1,2.12-4.94A6.93,6.93,0,0,1,310.28,30.59ZM303.6,49.88h13.2V89.44H303.6Z"/><path class="cls-4" d="M345.31,84.66a12.42,12.42,0,0,1-3.78,3.57A8.84,8.84,0,0,1,337,89.44q-5.57,0-9.59-5.81a23.93,23.93,0,0,1-4-14,26,26,0,0,1,4.07-14.32Q331.49,49,337.84,49a10,10,0,0,1,4.48,1,11.9,11.9,0,0,1,3.82,3.09l3.57-3.2h8.8v38a22.9,22.9,0,0,1-4.9,14.88q-4.91,6-13.9,6a29.81,29.81,0,0,1-13.74-3.7v-13q6.25,4.9,10.91,4.9a8.12,8.12,0,0,0,6-2.43,8.32,8.32,0,0,0,2.41-6.12Zm0-22.7a6.88,6.88,0,0,0-1.83-1.53,3.71,3.71,0,0,0-1.82-.5,4,4,0,0,0-3.61,2.47,13.53,13.53,0,0,0-1.33,6.45A14.43,14.43,0,0,0,338,75.43c.86,1.67,2,2.51,3.37,2.51a3.16,3.16,0,0,0,3-1.91,12.9,12.9,0,0,0,1-5.68Z"/><path class="cls-4" d="M397.39,86.08q-7.59,4.28-14.17,4.27a18.06,18.06,0,0,1-13.9-5.77Q364,78.82,364,69.81A22.36,22.36,0,0,1,369,55,16.67,16.67,0,0,1,382.52,49a15,15,0,0,1,12,5.19q4.5,5.19,4.49,13.9v3.28H377.68a11.19,11.19,0,0,0,3.12,6,8.17,8.17,0,0,0,5.7,2,10.35,10.35,0,0,0,4.95-1.2,38.51,38.51,0,0,0,5.94-4.32Zm-10-21.75V63A7.56,7.56,0,0,0,386,58.39a4.29,4.29,0,0,0-3.55-1.91,4.41,4.41,0,0,0-3.85,2,11.58,11.58,0,0,0-1.56,5.9Z"/><path class="cls-4" d="M418.31,54a12.1,12.1,0,0,1,4-3.77,10,10,0,0,1,5-1.25,10.19,10.19,0,0,1,7.84,3.43,12.13,12.13,0,0,1,3.13,8.52V89.44H425V63.66q0-3.36-2.49-3.36a3.12,3.12,0,0,0-2.78,1.83,10.32,10.32,0,0,0-1,5.1V89.44h-13V49.88H417Z"/><path class="cls-4" d="M444.88,33.91q8.67-3.33,14.6-3.32a20.77,20.77,0,0,1,13,4.18,13.2,13.2,0,0,1,5.48,11,11.72,11.72,0,0,1-1.72,6.49,35.38,35.38,0,0,1-5.91,6.45,34.77,34.77,0,0,0-5.63,6.16,10.57,10.57,0,0,0-1.55,5.82v1H451.81V69.39a18.94,18.94,0,0,1,1.49-8.29,29.47,29.47,0,0,1,6-7.25,36.18,36.18,0,0,0,4.25-4.58,5.21,5.21,0,0,0,1-3,4.21,4.21,0,0,0-2.16-3.73,8.73,8.73,0,0,0-4.81-1.37q-5.9,0-12.7,4.52ZM457.2,76.2a7.14,7.14,0,0,1,5.27,2.07,7,7,0,1,1-9.87,0A6.49,6.49,0,0,1,457.2,76.2Z"/></svg>
