<svg id="Layer_1" data-name="Layer 1" xmlns="http://www.w3.org/2000/svg" viewBox="0 0 171 141"><defs><style>.cls-1{fill:#fcee21;}</style></defs><title>energy_1</title><polygon class="cls-1" points="47.24 86.65 7.45 54.08 61.86 47.03 85.34 5.64 109.63 46.77 164.15 53.21 125.03 86.2 134.69 131.88 86.36 110.58 38.5 132.4 47.24 86.65"/><path d="M85.38,10.63,108.11,49.1l50,5.92L122.28,85.26l9,42.37L86.35,107.85,41.86,128.12,50,85.65,13.52,55.81l49.9-6.46,22-38.72m-.09-10L81,8.17,60.3,44.71,12.88,50.85,1.39,52.34l9,7.34,34.15,28L37,127.18l-1.82,9.5,8.8-4,42.45-19.34,42.84,18.87,8.93,3.94-2-9.55-8.34-39.44,33.57-28.31,8.81-7.43-11.45-1.36-47.56-5.62L89.69,8.09,85.29.65Z"/></svg>
