<svg id="Layer_1" data-name="Layer 1" xmlns="http://www.w3.org/2000/svg" xmlns:xlink="http://www.w3.org/1999/xlink" viewBox="0 0 1920 1080"><defs><style>.cls-1,.cls-17{fill:#8c6239;}.cls-1,.cls-2{stroke:#1a1a1a;}.cls-1,.cls-10,.cls-11,.cls-12,.cls-13,.cls-16,.cls-18,.cls-2,.cls-22,.cls-23,.cls-25,.cls-33,.cls-36,.cls-37,.cls-9{stroke-miterlimit:10;}.cls-2,.cls-22,.cls-23,.cls-25,.cls-33,.cls-37,.cls-9{fill:none;}.cls-2,.cls-36{stroke-width:4px;}.cls-3{fill:#1a1a1a;}.cls-4{filter:url(#AI_BevelShadow_1);}.cls-5{opacity:0.26;}.cls-6{fill:#c1272d;}.cls-7{fill:#c69c6d;}.cls-8{fill:#d4b891;}.cls-10,.cls-12,.cls-21,.cls-22,.cls-23,.cls-33,.cls-9{stroke:#000;}.cls-10,.cls-11,.cls-12,.cls-18,.cls-9{stroke-width:1.65px;}.cls-10,.cls-11,.cls-14,.cls-18,.cls-36{fill:#fff;}.cls-11{stroke:#e6e6e6;}.cls-12{fill:url(#linear-gradient);}.cls-13,.cls-25{stroke:#fbb03b;}.cls-13{stroke-width:16.52px;}.cls-15{fill:#b3b3b3;}.cls-16{stroke:#f49c87;stroke-width:4.96px;}.cls-18,.cls-37{stroke:#ccc;}.cls-19{fill:#fbb03b;}.cls-20{fill:#ff9bac;}.cls-21{stroke-linejoin:round;stroke-width:8px;}.cls-22,.cls-37{stroke-width:3px;}.cls-24{fill:#f7931e;}.cls-25{stroke-width:16px;}.cls-26{filter:url(#AI_Shadow_2);}.cls-27{fill:#006837;}.cls-28{fill:#a67c52;}.cls-29{fill:#fff68a;}.cls-30{fill:#e9c500;}.cls-31{fill:#ea9e87;}.cls-32{fill:#4d4d4d;}.cls-33{stroke-linecap:round;}.cls-34{fill:#666;}.cls-35{fill:gray;}.cls-36{stroke:#006837;}</style><filter id="AI_BevelShadow_1" x="-20" y="-20" width="140" height="140" name="AI_BevelShadow_1"><feGaussianBlur result="blur" stdDeviation="4" in="SourceAlpha"/><feOffset result="offsetBlur" dx="4" dy="4" in="blur"/><feSpecularLighting result="specOut" surfaceScale="5" specularExponent="10" in="blur"><fePointLight x="-5000" y="-10000" z="-20000"/></feSpecularLighting><feComposite result="specOut" operator="in" in="specOut" in2="SourceAlpha"/><feComposite result="litPaint" operator="arithmetic" k2="1" k3="1" in="SourceGraphic" in2="specOut"/><feMerge><feMergeNode in="offsetBlur"/><feMergeNode in="litPaint"/></feMerge></filter><linearGradient id="linear-gradient" x1="304.07" y1="627.8" x2="313.29" y2="591.25" gradientUnits="userSpaceOnUse"><stop offset="0" stop-color="#ff7bac"/><stop offset="0.11" stop-color="#ff7bac" stop-opacity="0.76"/><stop offset="0.31" stop-color="#ff7bac" stop-opacity="0.36"/><stop offset="0.45" stop-color="#ff7bac" stop-opacity="0.1"/><stop offset="0.52" stop-color="#ff7bac" stop-opacity="0"/></linearGradient><filter id="AI_Shadow_2" x="-15" y="-15" width="140" height="130" name="AI_Shadow_2"><feGaussianBlur result="blur" stdDeviation="6" in="SourceAlpha"/><feOffset result="offsetBlurredAlpha" dx="8" dy="8" in="blur"/><feMerge><feMergeNode in="offsetBlurredAlpha"/><feMergeNode in="SourceGraphic"/></feMerge></filter></defs><title>start</title><rect class="cls-1" x="-0.5" y="-2.51" width="1920" height="1080"/><line class="cls-2" x1="959.5" y1="-2.51" x2="959.5" y2="1077.49"/><line class="cls-2" x1="1837" y1="-3.01" x2="1837" y2="1076.99"/><line class="cls-2" x1="1409" y1="-2.01" x2="1409" y2="1077.99"/><line class="cls-2" x1="1184" y1="-3.01" x2="1184" y2="1076.99"/><line class="cls-2" x1="1632" y1="-2.01" x2="1632" y2="1077.99"/><line class="cls-2" x1="1075" y1="-3.01" x2="1075" y2="1076.99"/><line class="cls-2" x1="1300" y1="-2.01" x2="1300" y2="1077.99"/><line class="cls-2" x1="1524" y1="-2.01" x2="1524" y2="1077.99"/><line class="cls-2" x1="1735" y1="-2.01" x2="1735" y2="1077.99"/><line class="cls-2" x1="74" y1="-1.01" x2="74" y2="1078.99"/><line class="cls-2" x1="499" y1="-1.01" x2="499" y2="1078.99"/><line class="cls-2" x1="738" y1="-1.01" x2="738" y2="1078.99"/><line class="cls-2" x1="279" y1="-2.01" x2="279" y2="1077.99"/><line class="cls-2" x1="849" y1="-2.01" x2="849" y2="1077.99"/><line class="cls-2" x1="619" y1="-1.01" x2="619" y2="1078.99"/><line class="cls-2" x1="389" y1="-2.01" x2="389" y2="1077.99"/><line class="cls-2" x1="177" y1="-3.01" x2="177" y2="1076.99"/><polygon class="cls-3" points="74 553.99 -1 538.99 -1 534.99 74 543.99 74 553.99"/><polygon class="cls-3" points="177 244.99 74 244.99 74 236.99 177 240.99 177 244.99"/><polygon class="cls-3" points="177 837.99 74 837.99 74 833.99 177 827.99 177 837.99"/><polygon class="cls-3" points="279 538.99 177 538.99 177 535.99 279 528.99 279 538.99"/><polygon class="cls-3" points="499 539.99 389 539.99 389 525.99 499 534.99 499 539.99"/><line class="cls-2" x1="619" y1="537.99" x2="738" y2="538.99"/><polygon class="cls-3" points="849.02 539.99 848.98 535.99 959 525.99 959.02 538.99 849.02 539.99"/><polygon class="cls-3" points="1184 538.99 1075 538.99 1075.26 534.98 1184.26 530.98 1184 538.99"/><polygon class="cls-3" points="1409 540.99 1300 540.99 1300 530.99 1409 536.99 1409 540.99"/><polygon class="cls-3" points="1632 545.99 1524 538.99 1524 534.99 1632 537.99 1632 545.99"/><polygon class="cls-3" points="1837 536.99 1735 542.99 1735 532.99 1837 532.99 1837 536.99"/><polygon class="cls-3" points="389 246.99 279 234.99 279 231.99 389 239.99 389 246.99"/><polygon class="cls-3" points="619 243.99 499 243.99 499 239.99 619 228.99 619 243.99"/><polygon class="cls-3" points="849 243.99 738 248.99 738 239.99 849 239.99 849 243.99"/><polygon class="cls-3" points="1075 243.99 959 243.99 959 239.99 1075 230.99 1075 243.99"/><polygon class="cls-3" points="1300 243.99 1184 243.99 1184 230.99 1300 239.99 1300 243.99"/><polygon class="cls-3" points="1524 246.99 1409 243.99 1409 239.99 1524 236.99 1524 246.99"/><polygon class="cls-3" points="1735 247.99 1632 243.99 1632 239.99 1735 239.99 1735 247.99"/><polygon class="cls-3" points="1919 243.99 1837 234.99 1837 239.99 1919 239.99 1919 243.99"/><polygon class="cls-3" points="389 835.99 279 835.99 279 824.99 389 831.99 389 835.99"/><polygon class="cls-3" points="619 835.99 499 828.99 499 824.99 619 824.99 619 835.99"/><polygon class="cls-3" points="849 826.99 739 832.99 738 822.99 849 822.99 849 826.99"/><line class="cls-2" x1="959" y1="828.99" x2="1075" y2="828.99"/><polygon class="cls-3" points="1300 833.99 1184 833.99 1184 824.99 1300 829.99 1300 833.99"/><polygon class="cls-3" points="1524 833.99 1409 833.99 1409 841.99 1524 827.99 1524 833.99"/><line class="cls-2" x1="1632" y1="831.99" x2="1735" y2="831.99"/><polygon class="cls-3" points="1919 834.99 1837 834.99 1837 830.99 1919 823.99 1919 834.99"/><path d="M42.41,515.92a1.5,1.5,0,0,0,0-3,1.5,1.5,0,0,0,0,3Z"/><path d="M42.41,566.36a1.5,1.5,0,0,0,0-3,1.5,1.5,0,0,0,0,3Z"/><path d="M102.2,863.42a1.5,1.5,0,0,0,0-3,1.5,1.5,0,0,0,0,3Z"/><path d="M150.77,863.42a1.5,1.5,0,0,0,0-3,1.5,1.5,0,0,0,0,3Z"/><path d="M98.46,811.11a1.5,1.5,0,0,0,0-3,1.5,1.5,0,0,0,0,3Z"/><path d="M147,809.24a1.5,1.5,0,0,0,0-3,1.5,1.5,0,0,0,0,3Z"/><path d="M98.46,267.43a1.5,1.5,0,0,0,0-3,1.5,1.5,0,0,0,0,3Z"/><path d="M147,267.43a1.5,1.5,0,0,0,0-3,1.5,1.5,0,0,0,0,3Z"/><path d="M94.73,211.39a1.5,1.5,0,0,0,0-3,1.5,1.5,0,0,0,0,3Z"/><path d="M150.77,209.52a1.5,1.5,0,0,0,0-3,1.5,1.5,0,0,0,0,3Z"/><path d="M205,501a1.5,1.5,0,0,0,0-3,1.5,1.5,0,0,0,0,3Z"/><path d="M247.93,493.5a1.5,1.5,0,0,0,0-3,1.5,1.5,0,0,0,0,3Z"/><path d="M210.56,575.7a1.5,1.5,0,0,0,0-3,1.5,1.5,0,0,0,0,3Z"/><path d="M255.4,575.7a1.5,1.5,0,0,0,0-3,1.5,1.5,0,0,0,0,3Z"/><path d="M309.58,267.43a1.5,1.5,0,0,0,0-3,1.5,1.5,0,0,0,0,3Z"/><path d="M360,267.43a1.5,1.5,0,0,0,0-3,1.5,1.5,0,0,0,0,3Z"/><path d="M307.71,211.39a1.5,1.5,0,0,0,0-3,1.5,1.5,0,0,0,0,3Z"/><path d="M358.16,211.39a1.5,1.5,0,0,0,0-3,1.5,1.5,0,0,0,0,3Z"/><path d="M309.58,809.24a1.5,1.5,0,0,0,0-3,1.5,1.5,0,0,0,0,3Z"/><path d="M361.89,809.24a1.5,1.5,0,0,0,0-3,1.5,1.5,0,0,0,0,3Z"/><path d="M305.84,856a1.5,1.5,0,0,0,0-3,1.5,1.5,0,0,0,0,3Z"/><path d="M361.89,859.69a1.5,1.5,0,0,0,0-3,1.5,1.5,0,0,0,0,3Z"/><path d="M417.94,564.49a1.5,1.5,0,0,0,0-3,1.5,1.5,0,0,0,0,3Z"/><path d="M460.91,566.36a1.5,1.5,0,0,0,0-3,1.5,1.5,0,0,0,0,3Z"/><path d="M416.07,510.31a1.5,1.5,0,0,0,0-3,1.5,1.5,0,0,0,0,3Z"/><path d="M464.65,510.31a1.5,1.5,0,0,0,0-3,1.5,1.5,0,0,0,0,3Z"/><path d="M537.51,267.43a1.5,1.5,0,0,0,0-3,1.5,1.5,0,0,0,0,3Z"/><path d="M586.09,261.83a1.5,1.5,0,0,0,0-3,1.5,1.5,0,0,0,0,3Z"/><path d="M545,203.91a1.5,1.5,0,0,0,0-3,1.5,1.5,0,0,0,0,3Z"/><path d="M591.69,203.91a1.5,1.5,0,0,0,0-3,1.5,1.5,0,0,0,0,3Z"/><path d="M638.4,514.05a1.5,1.5,0,0,0,0-3,1.5,1.5,0,0,0,0,3Z"/><path d="M694.45,515.92a1.5,1.5,0,0,0,0-3,1.5,1.5,0,0,0,0,3Z"/><path d="M653.35,566.36a1.5,1.5,0,0,0,0-3,1.5,1.5,0,0,0,0,3Z"/><path d="M701.92,564.49a1.5,1.5,0,0,0,0-3,1.5,1.5,0,0,0,0,3Z"/><path d="M526.3,803.64a1.5,1.5,0,0,0,0-3,1.5,1.5,0,0,0,0,3Z"/><path d="M584.22,803.64a1.5,1.5,0,0,0,0-3,1.5,1.5,0,0,0,0,3Z"/><path d="M526.3,861.55a1.5,1.5,0,0,0,0-3,1.5,1.5,0,0,0,0,3Z"/><path d="M584.22,859.69a1.5,1.5,0,0,0,0-3,1.5,1.5,0,0,0,0,3Z"/><path d="M763.58,852.21a1.5,1.5,0,0,0,0-3,1.5,1.5,0,0,0,0,3Z"/><path d="M817.76,852.21a1.5,1.5,0,0,0,0-3,1.5,1.5,0,0,0,0,3Z"/><path d="M763.58,798a1.5,1.5,0,0,0,0-3,1.5,1.5,0,0,0,0,3Z"/><path d="M819.63,798a1.5,1.5,0,0,0,0-3,1.5,1.5,0,0,0,0,3Z"/><path d="M767.31,217a1.5,1.5,0,0,0,0-3,1.5,1.5,0,0,0,0,3Z"/><path d="M814,217a1.5,1.5,0,0,0,0-3,1.5,1.5,0,0,0,0,3Z"/><path d="M767.31,276.78a1.5,1.5,0,0,0,0-3,1.5,1.5,0,0,0,0,3Z"/><path d="M810.29,276.78a1.5,1.5,0,0,0,0-3,1.5,1.5,0,0,0,0,3Z"/><path d="M873.81,506.58a1.5,1.5,0,0,0,0-3,1.5,1.5,0,0,0,0,3Z"/><path d="M924.25,506.58a1.5,1.5,0,0,0,0-3,1.5,1.5,0,0,0,0,3Z"/><path d="M877.54,579.44a1.5,1.5,0,0,0,0-3,1.5,1.5,0,0,0,0,3Z"/><path d="M928,577.57a1.5,1.5,0,0,0,0-3,1.5,1.5,0,0,0,0,3Z"/><path d="M989.64,863.42a1.5,1.5,0,0,0,0-3,1.5,1.5,0,0,0,0,3Z"/><path d="M1036.35,863.42a1.5,1.5,0,0,0,0-3,1.5,1.5,0,0,0,0,3Z"/><path d="M987.77,796.16a1.5,1.5,0,0,0,0-3,1.5,1.5,0,0,0,0,3Z"/><path d="M1043.82,790.56a1.5,1.5,0,0,0,0-3,1.5,1.5,0,0,0,0,3Z"/><path d="M985.91,263.7a1.5,1.5,0,0,0,0-3,1.5,1.5,0,0,0,0,3Z"/><path d="M1036.35,263.7a1.5,1.5,0,0,0,0-3,1.5,1.5,0,0,0,0,3Z"/><path d="M985.91,213.25a1.5,1.5,0,0,0,0-3,1.5,1.5,0,0,0,0,3Z"/><path d="M1043.82,217a1.5,1.5,0,0,0,0-3,1.5,1.5,0,0,0,0,3Z"/><path d="M1105.48,504.71a1.5,1.5,0,0,0,0-3,1.5,1.5,0,0,0,0,3Z"/><path d="M1150.32,506.58a1.5,1.5,0,0,0,0-3,1.5,1.5,0,0,0,0,3Z"/><path d="M1107.35,566.36a1.5,1.5,0,0,0,0-3,1.5,1.5,0,0,0,0,3Z"/><path d="M1152.18,566.36a1.5,1.5,0,0,0,0-3,1.5,1.5,0,0,0,0,3Z"/><path d="M1210.1,803.64a1.5,1.5,0,0,0,0-3,1.5,1.5,0,0,0,0,3Z"/><path d="M1268,801.77a1.5,1.5,0,0,0,0-3,1.5,1.5,0,0,0,0,3Z"/><path d="M1219.44,863.42a1.5,1.5,0,0,0,0-3,1.5,1.5,0,0,0,0,3Z"/><path d="M1269.89,863.42a1.5,1.5,0,0,0,0-3,1.5,1.5,0,0,0,0,3Z"/><path d="M1217.58,215.12a1.5,1.5,0,0,0,0-3,1.5,1.5,0,0,0,0,3Z"/><path d="M1266.15,215.12a1.5,1.5,0,0,0,0-3,1.5,1.5,0,0,0,0,3Z"/><path d="M1221.31,280.51a1.5,1.5,0,0,0,0-3,1.5,1.5,0,0,0,0,3Z"/><path d="M1271.76,280.51a1.5,1.5,0,0,0,0-3,1.5,1.5,0,0,0,0,3Z"/><path d="M1327.81,499.1a1.5,1.5,0,0,0,0-3,1.5,1.5,0,0,0,0,3Z"/><path d="M1380.12,497.24a1.5,1.5,0,0,0,0-3,1.5,1.5,0,0,0,0,3Z"/><path d="M1329.67,575.7a1.5,1.5,0,0,0,0-3,1.5,1.5,0,0,0,0,3Z"/><path d="M1374.51,575.7a1.5,1.5,0,0,0,0-3,1.5,1.5,0,0,0,0,3Z"/><path d="M1445.51,211.39a1.5,1.5,0,0,0,0-3,1.5,1.5,0,0,0,0,3Z"/><path d="M1496,211.39a1.5,1.5,0,0,0,0-3,1.5,1.5,0,0,0,0,3Z"/><path d="M1447.38,282.38a1.5,1.5,0,0,0,0-3,1.5,1.5,0,0,0,0,3Z"/><path d="M1486.61,282.38a1.5,1.5,0,0,0,0-3,1.5,1.5,0,0,0,0,3Z"/><path d="M1439.9,786.82a1.5,1.5,0,0,0,0-3,1.5,1.5,0,0,0,0,3Z"/><path d="M1481,786.82a1.5,1.5,0,0,0,0-3,1.5,1.5,0,0,0,0,3Z"/><path d="M1432.43,878.37a1.5,1.5,0,0,0,0-3,1.5,1.5,0,0,0,0,3Z"/><path d="M1492.22,876.5a1.5,1.5,0,0,0,0-3,1.5,1.5,0,0,0,0,3Z"/><path d="M1557.61,568.23a1.5,1.5,0,0,0,0-3,1.5,1.5,0,0,0,0,3Z"/><path d="M1593.1,568.23a1.5,1.5,0,0,0,0-3,1.5,1.5,0,0,0,0,3Z"/><path d="M1552,512.18a1.5,1.5,0,0,0,0-3,1.5,1.5,0,0,0,0,3Z"/><path d="M1604.31,510.31a1.5,1.5,0,0,0,0-3,1.5,1.5,0,0,0,0,3Z"/><path d="M1656.63,207.65a1.5,1.5,0,0,0,0-3,1.5,1.5,0,0,0,0,3Z"/><path d="M1708.94,207.65a1.5,1.5,0,0,0,0-3,1.5,1.5,0,0,0,0,3Z"/><path d="M1662.23,276.78a1.5,1.5,0,0,0,0-3,1.5,1.5,0,0,0,0,3Z"/><path d="M1708.94,276.78a1.5,1.5,0,0,0,0-3,1.5,1.5,0,0,0,0,3Z"/><path d="M1654.76,796.16a1.5,1.5,0,0,0,0-3,1.5,1.5,0,0,0,0,3Z"/><path d="M1701.47,798a1.5,1.5,0,0,0,0-3,1.5,1.5,0,0,0,0,3Z"/><path d="M1652.89,872.76a1.5,1.5,0,0,0,0-3,1.5,1.5,0,0,0,0,3Z"/><path d="M1710.81,865.29a1.5,1.5,0,0,0,0-3,1.5,1.5,0,0,0,0,3Z"/><path d="M1761.25,568.23a1.5,1.5,0,0,0,0-3,1.5,1.5,0,0,0,0,3Z"/><path d="M1802.35,566.36a1.5,1.5,0,0,0,0-3,1.5,1.5,0,0,0,0,3Z"/><path d="M1761.25,512.18a1.5,1.5,0,0,0,0-3,1.5,1.5,0,0,0,0,3Z"/><path d="M1808,510.31a1.5,1.5,0,0,0,0-3,1.5,1.5,0,0,0,0,3Z"/><path d="M1864,215.12a1.5,1.5,0,0,0,0-3,1.5,1.5,0,0,0,0,3Z"/><path d="M1897.64,215.12a1.5,1.5,0,0,0,0-3,1.5,1.5,0,0,0,0,3Z"/><path d="M1867.74,267.43a1.5,1.5,0,0,0,0-3,1.5,1.5,0,0,0,0,3Z"/><path d="M1905.11,267.43a1.5,1.5,0,0,0,0-3,1.5,1.5,0,0,0,0,3Z"/><path d="M1864,799.9a1.5,1.5,0,0,0,0-3,1.5,1.5,0,0,0,0,3Z"/><path d="M1899.51,799.9a1.5,1.5,0,0,0,0-3,1.5,1.5,0,0,0,0,3Z"/><path d="M1862.14,865.29a1.5,1.5,0,0,0,0-3,1.5,1.5,0,0,0,0,3Z"/><path d="M1908.85,861.55a1.5,1.5,0,0,0,0-3,1.5,1.5,0,0,0,0,3Z"/><g class="cls-4"><ellipse class="cls-5" cx="314.66" cy="1011.21" rx="220.5" ry="28.9"/><path class="cls-6" d="M255.2,975.18V948.44h36.34v57H232.08A31.37,31.37,0,0,1,255.2,975.18Z"/><path class="cls-6" d="M387.34,975.18V948.44H351v57h59.46A31.37,31.37,0,0,0,387.34,975.18Z"/><path class="cls-7" d="M97.72,632.3c7.57-8.52,9.84-18.87,5.07-23.11S88,608.42,80.43,617c-6.21,7-8.85,15.2-7,20.27L3.78,715.66l4.94,4.39,69.69-78.44C83.66,642.88,91.51,639.29,97.72,632.3Z"/><path class="cls-6" d="M444.94,490.63c28.66,76.54-54.76,27.33-137.8,22.71-88.2-4.91-137,42.19-134.92-41.87,3.7-149,202.1-232.5,315.87-127.56C490.6,346.22,380.73,319.14,444.94,490.63Z"/><circle class="cls-8" cx="145.36" cy="600.76" r="19.82"/><path class="cls-9" d="M134.63,604.06a14,14,0,0,1,28.08,0"/><circle class="cls-8" cx="487.27" cy="605.71" r="19.82"/><path class="cls-9" d="M469.92,610.67a14,14,0,0,1,28.08,0"/><rect class="cls-8" x="145.36" y="501.65" width="341.9" height="436.05" rx="129.31"/><path class="cls-6" d="M487.27,708.12V808.39A129.31,129.31,0,0,1,358,937.7H274.67A129.31,129.31,0,0,1,145.36,808.39V708.12"/><circle class="cls-10" cx="275.85" cy="574.33" r="33.86"/><circle class="cls-10" cx="343.57" cy="574.33" r="33.86"/><circle cx="365.61" cy="574.02" r="8.26"/><circle cx="290.8" cy="576.02" r="8.26"/><path class="cls-7" d="M310.53,573.63c.47-17.72,13.72-27.58,22-30.93h0c12.66-3.5,25.91-2,35.66,9.46"/><path class="cls-7" d="M309.05,573.63c-.47-17.72-14.05-27.58-22.32-30.93h0c-12.65-3.5-25.9-2-35.66,9.46"/><line class="cls-9" x1="242.81" y1="574.33" x2="158.58" y2="574.33"/><line class="cls-9" x1="377.43" y1="573.5" x2="473.23" y2="573.5"/><path class="cls-11" d="M476.53,544.55a22.3,22.3,0,0,0-22.3-22.25,22,22,0,0,0-6.72,1,22.23,22.23,0,0,0-32.89-12.66,22.26,22.26,0,0,0-39-7.94A22.28,22.28,0,0,0,337,498.67a22.24,22.24,0,0,0-36.17-.22,22.25,22.25,0,0,0-34.68,1.64,22.24,22.24,0,0,0-34.42,5.43,22.27,22.27,0,0,0-35.52,13.28,22.08,22.08,0,0,0-7.86-1.46,22.3,22.3,0,0,0-22.3,22.3c0,.33,0,.65.05,1a23.39,23.39,0,0,0-2.53-.15,22.3,22.3,0,1,0,22.3,22.3c0-.33,0-.66-.05-1a23.39,23.39,0,0,0,2.53.15,22.31,22.31,0,0,0,21.87-18,22.21,22.21,0,0,0,27.24-9.85,22.21,22.21,0,0,0,31.65-4.48,22.22,22.22,0,0,0,33-3.31A22.25,22.25,0,0,0,337,524.46a22.26,22.26,0,0,0,35.68.88,22.24,22.24,0,0,0,32,10.23A22.26,22.26,0,0,0,432.88,551a22.32,22.32,0,0,0,15.57,15.12,22.3,22.3,0,1,0,28.08-21.56Z"/><path class="cls-11" d="M499.66,337.31a11.57,11.57,0,1,0-21.73,5.52,11.56,11.56,0,1,0,14.4,15,11.56,11.56,0,1,0,7.33-20.5Z"/><path class="cls-12" d="M326.5,603.4c3,14.11-14.51,37.05-32.82,24-7.48-5.33-4.93-18.5,2-25"/><rect x="145.36" y="775.84" width="341.9" height="47.9"/><rect class="cls-13" x="276.67" y="773.36" width="80.93" height="52.85"/><path class="cls-14" d="M362.17,660.05c9.08-3,18.95-6.62,28.67-5.16,10.76,1.62,20.06,6.3,31.23,4.54,4.6-.72,9-2.55,13.55-3.22,3.79-.56,7.22.53,10.72,1.92,8.56,3.4,16.47,7.85,26,7.22l-9.56-7.27.31,1.15V654c-.37,2.57-2.23,4.84-2.83,7.48a26.8,26.8,0,0,0-.1,9.74c.64,4.56,2.8,9.07-.5,12.86s-7.39,7.44-12.15,8.51c-8.09,1.81-11.69,5.38-14.54,13.09l2.54-4.38,1.21-.49c-.72.19-1.44.38-2.17.55-1.47.37-2.95.74-4.42,1.15q-3.52,1-7,2.12a169.06,169.06,0,0,0-17.65,7.06c-4.93,2.29-9.57,5.05-14.35,7.61s-9,1.1-14-.65c-9.5-3.33-20.29-6.33-29.7-.84-2,1.14-4.36,2.74-5.63,4.73-1.05,1.66-.85,1.38.72.83-1.21.42-3.31-.11-4.61-.17q-9.31-.46-18.61-1.28-18.25-1.59-36.33-4.61c-10.6-1.78-22-3.26-31.56-8.52-9.09-5-17.39-10.14-27.3-13.54-8.34-2.86-16.91-5-25.24-7.85s-16.14-6.79-21.73-13.63c-3.53-4.32-6.24-9.31-10.45-13.06a53.39,53.39,0,0,0-7.36-5.2,23.13,23.13,0,0,0-3-2c-.23-.1-.3-.23-.2-.39a3.28,3.28,0,0,1-.89,3.89l-7,2.9a72.34,72.34,0,0,1,24.33,2.4c10.79,3,17.43-12.44,7.63-18.12l-6.14-3.55-7.64,18.11c8.06,2.26,15.83,1.24,24,.26s16.39-.88,24.59-.92c8,0,16-.22,23.94.12s15.07,2.11,22.76,3.41c8.33,1.4,16.06.15,24.27-1.33a29.64,29.64,0,0,1,9.66-.59c3.42.55,6.6,2.19,10,2.81,8.48,1.54,17.54-.39,26.11-.51,8.41-.12,16.82.24,25.21.84,18.11,1.28,36.95,2.29,54.57,6.89l2.64-19.47a310.84,310.84,0,0,0-56.78,3.23c-4.81.7-7.75,6.53-7.1,10.87.8,5.27,4.69,8,9.74,8.59,18.91,2.42,37.91,1.29,56.83-.53,7.75-.75,17.68-3.48,25.23-.86a8.76,8.76,0,0,1,3,1.53c.44.38,1.37,2.06,1.82,2.35.1.06-.13.31-.24.16.33.44-.34-.21,1.68.14l4.37,2.55c-1-1-1.33-3.4-2-4.68a15.44,15.44,0,0,0-5.27-5.82c-4.33-2.8-10.09-3.42-14.6-.61a12,12,0,0,0-5.27,7.41c-.88,3.52.35,5.81.72,9,.34,3.06-2,5.18-4.37,6.83-8,5.49-18.33,9.31-27.51,12.16a61.34,61.34,0,0,1-14.79,3c-5.66.32-11.26-.59-16.91-.55-10.94.09-20.11,4.68-30.26,8s-19.63,1.38-29.82-.86Q269,704.72,236,694.24c-11.69-3.72-23.38-7.6-34.8-12.07a75.37,75.37,0,0,1-13.54-6.83c-2.8-1.81-8.09-5.39-8.53-8.48v5.27l.33-1.22L177,675.28c-1.38,1.47-.13.27,1,.2s2.57-.5,3.72-.69c1.91-.33,3.83-.58,5.76-.78,5-.51,10-.75,15.06-.8,9.82-.09,19.63.54,29.42,1.29C252,676,272,677.17,292.2,677c39.26-.34,79.21-3.46,118.05,3.85,1.65.31,5.67,2,7.31,1.61l0,0q2.19,2.18-1.65-5.75c-.59-.48,1.81-.3-.6-.41-4.16-.19-9.47,1.33-13.55,2.33a82,82,0,0,0-27.69,12.79c-3.63,2.59-5.8,6.68-4.56,11.19,1.1,4,5.25,7.55,9.56,7.28l19.31-1.2a10.16,10.16,0,0,0,9.91-9.91c.8-14.67-11.4-31.48-27.17-31.12-4.58.1-9.31,2.4-11.67,6.44a14.19,14.19,0,0,0-1.83,6.72c0,1.49.55,3.22.28,4.67-1.09,5.85-10.6,7.06-15.12,7.9-17.14,3.2-33.72,4.66-51.08,2.26a493.9,493.9,0,0,1-52.8-10.49,552.35,552.35,0,0,1-57.77-18v19.11c14.42-4.55,30.85.83,44.94,4.45,15.61,4,31.29,8.05,47.52,8.28a9.88,9.88,0,0,0,9.73-8.6c.52-4.36-2.16-10.18-7.1-10.87a46.7,46.7,0,0,1-11.81-3v17.11c2.23-1.46,4.86-1.78,7,.38,1.11,1.14,1.89,3.2,2.92,4.65,2.12,3,4.79,5.53,8.38,6.61,7,2.11,14-2.2,16.28-8.82.26-.76,1.83-6.19,1.34-6.53.35.24-1.29,1.26-1.55,1.44,1.29-.89,1.46.66-1-.52l5-18.47-17.1.46c-6.9.18-13.15,8.51-8.56,14.91,11.55,16.07,33.09,23,51.68,15.38,4.7-1.93,9.9-4.64,12.56-9.19,3.57-6.1,1.15-13.25-3.57-17.9-8.3-8.15-21.5-7.26-29.83.06-7.66,6.73.49,19,9.64,16.57a70.74,70.74,0,0,1,18.86-2.59c2.3,0,5,.75,7.23.5,2.74-.31-.28,1.4.66-1.17l6.92-6.92a4.73,4.73,0,0,1-2.46-.75c-11.3-5.87-21.34,11.23-10,17.12,5.85,3,11.26,3.63,17.73,2.74,3.49-.48,5.83-3.94,6.92-6.92,4.1-11.15-5.38-21.6-15.95-23.51-11.57-2.09-23.91-.65-35.18,2.38L332,690.23a1.69,1.69,0,0,1,1.73.1v-5.27l-.45,1.36,2.55-4.38c-3.58,4.28-11,5-16,4.39-5.87-.71-12.08-3.7-15.58-8.57l-8.56,14.91,17.1-.46c9.18-.25,14.33-14,5-18.47-6.49-3.1-13.6-3-19.58,1.23a17.51,17.51,0,0,0-6.59,8.62,19.87,19.87,0,0,0-.77,3.29c-.1.77-.21,1.53-.35,2.28q-1.2,4,3.21-2.79H299c2.21.42,2.33,2.18.51-.84a29.11,29.11,0,0,0-3.6-5.07,25.19,25.19,0,0,0-31.41-3.92c-5.53,3.62-7.33,14,0,17.11a64,64,0,0,0,16.54,5l2.64-19.46c-16.32-.23-31.89-5-47.6-8.93-16.06-4-33.87-8.22-50.13-3.09-9.75,3.07-9,15.76,0,19.11a534.39,534.39,0,0,0,110.58,28.48c9.55,1.35,19.15,2.45,28.82,2.08s19.58-2,29.25-3.72c9-1.57,17.91-3.69,24.9-10a26.53,26.53,0,0,0,7.14-10.9,21.4,21.4,0,0,0,1.19-6.82c0-.95-.14-3.75-.18-3.66l-2.55,4.38q-6.65.92-2.65,1.7c.46.24.92.5,1.37.77a10.33,10.33,0,0,1,4.74,10.2l9.91-9.91-19.31,1.2,5,18.47a67,67,0,0,1,27-11.66c4.79-.89,9.64-.95,14.1-3.13,5.56-2.72,9.83-8.16,10.13-14.49.63-13.09-12.49-16.29-22.65-18.08a314.85,314.85,0,0,0-34.91-4.05c-23.68-1.47-47.42-.65-71.11-.2-23.42.44-46.64-.06-70-1.91-11.68-.93-23.39-1.83-35.12-1.66a158.1,158.1,0,0,0-16,1c-5.89.69-13.1,1-18.47,3.74a13,13,0,0,0-6.87,15.28c1.42,4.8,5.26,9.1,8.86,12.43,7.54,7,16.7,11.38,26.15,15.15,21.09,8.41,43,15.08,64.92,21.07q16.63,4.55,33.47,8.33c11.35,2.54,23,5.48,34.71,3.86,11.21-1.57,21.21-8.74,32.48-9.43,6.27-.38,12.52.85,18.81.52a83.13,83.13,0,0,0,19.21-3.43c11.11-3.34,23.34-8,33.1-14.41,4.88-3.2,9.23-7.28,11.77-12.61,3.27-6.86,2.38-12.55.86-19.64v5.27l-.17.15-3.55,3.55.78-.41-5,1.35c-1.31.16-2.64-2.53-3.23-2-.33.3,1.59,4.13,2.07,5a13.42,13.42,0,0,0,8.87,6.87c7.33,1.57,14.65-2.37,18.72-8.37,8.36-12.28.55-27.27-11.87-32.75-13.53-6-30-1.6-44.14-.46-15.67,1.26-31.4,1.65-47-.35l2.63,19.47A282.56,282.56,0,0,1,414.18,670c11.21.44,13.4-16.65,2.63-19.46-16-4.17-32.78-5.25-49.18-6.74-16.77-1.51-33.59-2.36-50.4-1-3.65.3-6.83.55-10.35-.53a50.71,50.71,0,0,0-11.62-2.56c-7.55-.54-14.8,1.94-22.23,2.65-8,.77-16-2.27-23.86-3.24a192.71,192.71,0,0,0-24.26-1c-9,0-18-.16-26.92.31-8.55.44-17.88,3.47-26.28,1.11-10.8-3-17.41,12.45-7.64,18.11l6.15,3.56,7.64-18.12a89.75,89.75,0,0,0-26-3.29c-5.41.15-10,1.09-13,6a16.59,16.59,0,0,0-1.73,12.37c2.12,8.8,9.22,11.4,15.56,16.47,5.46,4.37,8.43,11.43,13.47,16.29,10,9.63,23.23,14.39,36.25,18.3,6.4,1.92,12.86,3.69,19.14,6,6.6,2.42,12.28,6.18,18.33,9.7,14.9,8.66,32.71,10.81,49.49,13.22,9.3,1.33,18.63,2.48,28,3.33,8.71.79,18.1,2.26,26.83,1.46a16.43,16.43,0,0,0,11.18-5.89c1.94-2.24,2.43-2.84,5.71-2.55,7.52.66,14.3,5.05,21.9,5.9,9.39,1,16.43-3.28,24.34-7.58a131.14,131.14,0,0,1,22.82-9.73c4.11-1.3,8.39-2.1,12.46-3.48a15.74,15.74,0,0,0,6.5-3.91,14.22,14.22,0,0,0,2-2.48c.14-.24,3.33-6.35.33-2.49-2,2.62-1.27,1,.07,1.12a11.63,11.63,0,0,0,3.33-.72,28.19,28.19,0,0,0,6.65-3,66.15,66.15,0,0,0,10-8c7.53-7,10.84-15.29,9.32-25.47-.44-2.87-1.87-6.48-1.15-9.34.34-1.36,1.69-2.92,2.15-4.39a14.43,14.43,0,0,0,.1-8.21c-1.05-4-5.28-7.56-9.55-7.28-8.38.56-15.87-5-23.59-7.53a34.15,34.15,0,0,0-14.08-1.55c-5.55.6-10.69,2.82-16.18,3.59-4.41.62-8.69-.68-12.9-1.85a83.39,83.39,0,0,0-15.7-3.24c-11.26-.94-22.45,2.52-33,6-12.07,3.95-6.9,23.1,5.27,19.11Z"/><path class="cls-14" d="M451.53,703.11a105.48,105.48,0,0,1,1.68,32.54c-.43,4.44,4.11,8.25,8.26,8.25,4.83,0,7.82-3.8,8.26-8.25a120,120,0,0,0-2.27-36.93c-2.22-10.39-18.15-6-15.93,4.39Z"/><path class="cls-14" d="M436.47,714.51c.34,3.85.71,7.71,1,11.56.22,2.75.81,5.91-.59,8.4-5.24,9.26,9,17.6,14.26,8.34,4.89-8.66,2.66-18.9,1.83-28.3-.92-10.51-17.45-10.6-16.52,0Z"/><path class="cls-14" d="M415.05,724.87l.05,4.86c.08,7.91,11.47,11.6,15.39,4.17L428.26,735,420,726.7l-.59,10.88,12.43-7.13-.68-.39,3,3c-2.21-3.49-4.59-6.52-9.17-6.52s-7.62,3.49-9,7.43c-2.93,8.48-4.46,17.67-6.54,26.39-2.21,9.25,9.92,14.15,15.1,6.36l.59-.89-3,3,0,.13h-4.39l1,.23L415.2,767l.83.67c3.85,3.11,10.35,3.51,13-1.67,3.57-7,9.66-18.3,6.89-26.37-3.43-10-19.39-5.7-15.92,4.39l.12-.92c-.2.86-.42,1.72-.67,2.57-.39,1.42-.83,2.83-1.31,4.22a62.21,62.21,0,0,1-3.37,7.77l13-1.67c-5.9-4.76-13.15-4.12-17.46,2.36l15.1,6.37c2.12-8.9,3.46-18.76,6.89-27.25l-3.8,4.94.68-.51-6.37.83.68.18-4.93-3.79c1.6,2.19,2.46,4.15,5,5.6,5.66,3.21,12.09-.92,12.43-7.13l.59-10.88c.24-4.39-4-8.34-8.26-8.25a13.36,13.36,0,0,0-12,7.11l15.39,4.17-.05-4.86c-.11-10.62-16.63-10.65-16.52,0Z"/><path class="cls-14" d="M396.74,733.14a121.81,121.81,0,0,0-2.75,15c-.29,2.41-.39,4.86-.73,7.26a19.44,19.44,0,0,0-.68,3.36c.12,2.07-2.07,0,1.15,0l8,10.45c1.41-10.19,4.35-21.12,1.9-31.31s-18.41-6-15.92,4.39c1.66,6.94-.95,15.56-1.91,22.53-.73,5.23,2,10.42,8,10.45,8.22,0,13.52-6.16,15.16-13.75,1.71-8,1.78-16.09,3.78-24.05,2.59-10.32-13.34-14.71-15.93-4.4Z"/><path class="cls-14" d="M364.67,738.55q-1.16,11.13-3.14,22.11c-1.06,5.86,3.67,12.18,10.15,10.16l1-.32h-4.39l1,.41-4.94-3.8.54.94-1.13-4.17c-.41,9.31,9.91,14.31,16.8,7.77H368.94l.46.52-2.13-3.64.12.68c1,5.9,10,8.22,13.8,3.64,1-1.17,3-2.2,4.16-3.54,2-2.3,2.55-4.8,2.9-7.72a108.14,108.14,0,0,0,.6-18.08c-.48-10.58-17-10.64-16.52,0,.25,5.38,1.09,12.62-.79,17.76l2.13-3.64c-1,1.18-3,2.15-4.16,3.54l13.8,3.65a9.64,9.64,0,0,0-2.69-4.85c-3-3.43-8.62-2.9-11.68,0l-.62.59,5.84-2.42.48.06,4.94,3.79-.44-.74,1.13,4.17c.31-7.19-5.81-12.75-13-10.52l10.16,10.16q2.37-13.18,3.74-26.51c.45-4.44-4.13-8.25-8.26-8.25-4.85,0-7.8,3.8-8.26,8.25Z"/><path class="cls-14" d="M345.28,736.49a83.68,83.68,0,0,1-1.95,27l16.22,2.2-.05-22.59c0-10.63-16.54-10.65-16.51,0l0,22.59c0,9.16,14,11.4,16.22,2.19a98.42,98.42,0,0,0,2.55-31.39c-.88-10.52-17.41-10.61-16.52,0Z"/><path class="cls-14" d="M324.28,746.93a3.64,3.64,0,0,1,.6,2.21c.24,9.2,13.71,11.35,16.22,2.2l-.35.83c5.47-4.74,1-14.22-5.84-14.09-4.86.08-9.78.23-12.53,4.93-1.35,2.31-1.16,4.76-.61,7.24a25.5,25.5,0,0,1,.38,6.73c-.27,9.31-1,18.61,5.78,25.94a8.33,8.33,0,0,0,11.68,0c3.37-3.64,4.59-7.85,4.41-12.78a87.61,87.61,0,0,1,.58-15.27c.6-4.42-1.06-8.87-5.77-10.16-3.84-1.06-9.55,1.32-10.15,5.77a126.65,126.65,0,0,0-1.38,12.73c-.06,1.85,0,3.67.11,5.51.06.71.1,1.43.12,2.14-.19,1.77,0,1.9.4.38h11.68c-2.27-2.47-1.11-8.5-1-11.51.15-5.14.15-9.74-1.12-14.74l-2.12,8,.58-.61-3.65,2.12a8.28,8.28,0,0,0,2.63.06l-5.84-14.1a12.52,12.52,0,0,0-3.89,6.45l16.22,2.2a18.76,18.76,0,0,0-1.2-6.6c-1.64-4.14-5.52-7-10.15-5.77-3.95,1.09-7.42,6-5.77,10.16Z"/><path class="cls-14" d="M316.31,750.82l.82-.41h-8.34l.9.47-3.79-4.94c.84,2.28-.64,7.8-.8,10.88-.24,4.62,1,9,2.47,13.32a8.37,8.37,0,0,0,15.09,2l.55-.83c5.87-8.9-8.42-17.18-14.26-8.34l-.55.83,15.1,2c-1-3-2.06-5.76-1.88-8.93.19-3.43.8-6.82.83-10.27.08-8.21-6.5-14-14.48-10-9.49,4.79-1.14,19,8.34,14.26Z"/><path class="cls-14" d="M296.68,734.47a44,44,0,0,1-7.89-2.21c-6.08-2.31-11.68,4.54-10.16,10.16q2.79,10.32,6.57,20.32c2.31,6.1,11.59,8.84,15.1,2a23.69,23.69,0,0,0,2.87-13.54c-1.07-10.41-16-10.81-16.51,0-.42,9.08,1.3,26.37,14.78,22.51,6.81-1.95,8.14-11.47,2-15.09l-.84-.5,3,3-.52-.84,1.13,4.17-.06-1c-.6-10.57-17.12-10.63-16.51,0,.24,4.23,1.79,7.28,5.51,9.46l2-15.09-.87.25h4.39l.3,0,3,3c-1.4-2.49-.78-7.14-.66-9.83H286.66a8.45,8.45,0,0,1-.62,5.21l15.09,2q-3.78-10-6.58-20.32L284.4,748.19a44.21,44.21,0,0,0,7.89,2.2c4.39.81,8.91-1.2,10.16-5.76,1.1-4-1.36-9.36-5.77-10.16Z"/><path class="cls-14" d="M252.37,730.68a43,43,0,0,0,7.09,26.79,8.37,8.37,0,0,0,14.26,0l.7-1.09-4.94,3.8c.78-.29,3.35-.61,4.69-1.39a10.53,10.53,0,0,0,4.48-6.6A19,19,0,0,0,279,745c-.21-1.62-1.42-3.75-1.42-5.23l-1.13,4.17L277,743l-15.39-4.17c-.75,7.55,1,12.44,5.62,18.31s8.15,10.46,16.15,11.37c4.44.51,8.26-4.16,8.26-8.25,0-4.89-3.81-7.75-8.26-8.26,2.06.23,0-.74-.73-1.68-1.26-1.54-2.63-3.21-3.74-4.86-1.45-2.14-1.05-4-.79-6.63.83-8.4-11.56-10.9-15.39-4.17a11.11,11.11,0,0,0-1.33,8.31c.25,1.07,1.66,4.25,1.52,4.48l4.93-3.79c2.06-.45-3,.64-3.69,1a10.93,10.93,0,0,0-4.65,4.46h14.26a28.16,28.16,0,0,1-4.83-18.45c.75-10.61-15.77-10.56-16.52,0Z"/><path class="cls-14" d="M235.34,726.12l-.1,3.42,16.22-2.2a19.79,19.79,0,0,1-.93-3.79l-15.09,6.37c1.2,2.46.82,5.73,1.5,8.38a34.43,34.43,0,0,0,4,9.18c5.49,9.08,19.78.79,14.26-8.34-3.31-5.46-2.69-11.86-5.46-17.56-1.78-3.65-6.81-4.92-10.31-3.38-4.06,1.79-5.4,5.54-4.78,9.75a20.64,20.64,0,0,0,.92,3.78c3,8.67,15.95,7.41,16.23-2.19l.09-3.42c.31-10.64-16.21-10.63-16.51,0Z"/><path class="cls-14" d="M228.86,711.36c-4-1.94-8.59-1.92-11.93,1.42s-3.22,7.43-1.62,11.53c.77,2,.85,4,1.34,6.2a26.38,26.38,0,0,0,4.14,9.22c2.55,3.65,7.23,5.34,11.3,3,3.61-2.11,5.53-7.63,3-11.3a15.08,15.08,0,0,1-2.67-6.36,37.42,37.42,0,0,0-2.93-9.34l1.13,4.17,0-.68-1.13,4.17.4-.56-3,3,.62-.36-4.17,1.13.69-.07-4.17-1.13.62.3c4,1.94,8.92,1.09,11.3-3,2.11-3.61,1.07-9.34-3-11.29Z"/><path class="cls-14" d="M211.32,707.42a18.08,18.08,0,0,0-11.66-4.67c-4.85-.18-7.75,4-8.26,8.26a67,67,0,0,0,.68,19.22c1.33,8,14.36,7.74,15.92,0a4.13,4.13,0,0,1,2.67-3.6l-12.42-7.13a20.82,20.82,0,0,0,3,12.93,13.46,13.46,0,0,0,4.47,4.38,19.08,19.08,0,0,0,3,1.36c.45.17,2.55,1.24,1.08.07l8-13.81-6.08-2.25-3-1.12c.56-.16,1,.13,1.37.87l1.13,4.16v-.88c-.14-10.62-16.66-10.65-16.52,0,.14,10.1,11.09,12.31,18.75,15.15s14.43-8.7,8-13.8c-2-1.56-4.63-3.72-7.26-3.91q-1.27-.52.21.42,1.18,1.15.57.27s-.23-3.73-.22-3.84c.62-6.66-7.35-9.73-12.42-7.13a19.54,19.54,0,0,0-10.26,13.47H208a52.63,52.63,0,0,1-.09-14.83l-8.25,8.26c.46.07.46,0,0-.17,3.41,2.86,8.33,3.35,11.67,0,3-3,3.44-8.8,0-11.68Z"/><path class="cls-14" d="M163.62,690.91a37,37,0,0,0,12.87,28.68c3.91,3.31,10.22,3.31,13-1.67a40.83,40.83,0,0,0,3.81-9.46c2.68-10.29-13.25-14.68-15.93-4.39a22.53,22.53,0,0,1-2.15,5.51l13-1.67a21.13,21.13,0,0,1-8-17c.11-10.63-16.41-10.64-16.52,0Z"/><path class="cls-14" d="M152.4,674.82c-4.23,8.46-4.81,17.81.42,26,5.69,8.95,20,.67,14.27-8.33a8.73,8.73,0,0,1-.43-9.36c2-4,1.06-8.95-3-11.3-3.66-2.14-9.3-1-11.3,3Z"/><path class="cls-14" d="M140.86,661.34A51.55,51.55,0,0,0,137.13,673c-.75,4.24,1.14,9.11,5.76,10.16,4,.92,9.36-1.22,10.16-5.77a45.28,45.28,0,0,1,1-4.58q.3-1,.66-2.07c.12-.34,1.08-2.72.37-1.06,1.71-3.95,1.3-9-3-11.3-3.56-1.88-9.47-1.27-11.3,3Z"/><path class="cls-15" d="M308.27,647.94a51,51,0,0,1,54.42,5.25c2.48,2,6-1.52,3.51-3.5a56.16,56.16,0,0,0-60.43-6c-2.83,1.46-.33,5.74,2.5,4.28Z"/><path class="cls-15" d="M351.85,644.2c22.6-8.87,49.83-11.05,69.25,6.1,2.38,2.1,5.9-1.39,3.5-3.51-20.75-18.32-49.68-16.95-74.07-7.36-2.93,1.15-1.65,5.94,1.32,4.77Z"/><path class="cls-15" d="M413.62,642a59.5,59.5,0,0,1,55,8.76c2.55,1.91,5-2.39,2.5-4.28a64.12,64.12,0,0,0-58.79-9.26c-3,1-1.71,5.81,1.32,4.78Z"/><path class="cls-15" d="M468.53,641.06c14.77,4.6,24.26,19.5,22.67,34.8-.33,3.16,4.63,3.14,4.95,0,1.83-17.5-9.59-34.37-26.3-39.58-3.05-.95-4.36,3.83-1.32,4.78Z"/><path class="cls-15" d="M478.43,666.58c1.09,11.1,2.13,22.82-3.57,32.92-1.57,2.78,2.71,5.28,4.28,2.5,6.17-10.93,5.43-23.35,4.24-35.42-.31-3.15-5.26-3.18-4.95,0Z"/><path class="cls-15" d="M316.77,642.78A54.12,54.12,0,0,0,261,644.12c-2.68,1.72-.2,6,2.5,4.28a49.09,49.09,0,0,1,50.82-1.34c2.77,1.59,5.27-2.69,2.5-4.28Z"/><path class="cls-15" d="M269.46,640a71.74,71.74,0,0,0-61,1.68c-2.85,1.44-.34,5.71,2.5,4.28a66.37,66.37,0,0,1,56-1.69c2.89,1.26,5.42-3,2.5-4.27Z"/><path class="cls-15" d="M215.91,637.51a44.27,44.27,0,0,0-46.3,6.2c-2.46,2,1.06,5.51,3.51,3.51a39.06,39.06,0,0,1,40.29-5.43c2.89,1.29,5.41-3,2.5-4.28Z"/><path class="cls-15" d="M174.71,638.08c-10-2.89-21.08-4.21-30.9.06-8,3.46-14.3,10.2-16,18.84-.63,3.11,4.15,4.45,4.78,1.32,3.84-18.94,25.9-19.76,40.85-15.44,3.07.89,4.38-3.89,1.32-4.78Z"/><path class="cls-15" d="M139.7,652.8a31.81,31.81,0,0,0-4.4,27.62c.91,3.05,5.7,1.75,4.78-1.31A27,27,0,0,1,144,655.3c1.83-2.62-2.46-5.1-4.28-2.5Z"/><path class="cls-15" d="M151.73,666.62a43.49,43.49,0,0,0-2.37,37.44c1.18,2.92,6,1.64,4.78-1.32A38.77,38.77,0,0,1,156,669.12c1.54-2.79-2.74-5.29-4.28-2.5Z"/><path class="cls-15" d="M160.18,683a47.66,47.66,0,0,0,14.2,38.56c2.28,2.23,5.79-1.27,3.5-3.5A42.94,42.94,0,0,1,165.14,683c.3-3.17-4.66-3.15-5,0Z"/><path class="cls-15" d="M211,707.08a56.88,56.88,0,0,0,2.76,23.84c2,5.81,4.91,13.56,10.67,16.53,2.83,1.45,5.34-2.82,2.5-4.28-5.27-2.72-7.92-11.49-9.39-16.77A53.35,53.35,0,0,1,216,707.08c.29-3.17-4.66-3.15-4.95,0Z"/><path class="cls-15" d="M230.48,712.47c-1.07,8.3.54,16.36,3.27,24.19,2.16,6.19,4.42,13.58,9.64,17.92,2.44,2,6-1.47,3.51-3.51-5-4.1-7-11.52-9-17.43-2.27-6.92-3.46-13.9-2.52-21.17.41-3.15-4.55-3.12-5,0Z"/><path class="cls-15" d="M361.44,729.43c.5,13.52,1,27.5-4.42,40.21-1.22,2.91,3.05,5.44,4.28,2.51,5.76-13.64,5.63-28.18,5.1-42.72-.12-3.18-5.08-3.2-5,0Z"/><path class="cls-15" d="M321.06,736.06c-.06,8.71-.12,17.43,0,26.14.11,7.57-.06,15.34,2.49,22.57,1.06,3,5.85,1.7,4.78-1.32-2.61-7.39-2.25-15.45-2.34-23.19-.1-8.07,0-16.14,0-24.2,0-3.19-4.94-3.2-5,0Z"/><path class="cls-15" d="M188.61,701.27c-.2,7-.39,14,0,21,.25,5,0,11.65,3.16,15.83,1.9,2.5,6.2,0,4.27-2.51-3.1-4.09-2.49-12.11-2.61-17.13-.15-5.72,0-11.45.17-17.17.09-3.19-4.87-3.19-4.95,0Z"/><path class="cls-15" d="M464.09,696.2a130,130,0,0,1,1.51,49.61c-.51,3.12,4.27,4.46,4.78,1.32a136.68,136.68,0,0,0-1.51-52.24c-.7-3.11-5.48-1.8-4.78,1.31Z"/><path class="cls-15" d="M452.16,710c.43,12.66.7,25.36-3.41,37.51-1,3,3.76,4.32,4.78,1.31,4.24-12.55,4-25.73,3.58-38.82-.11-3.18-5.06-3.19-4.95,0Z"/><path class="cls-15" d="M434.71,720.76a94.21,94.21,0,0,1-7.48,48.34c-1.29,2.89,3,5.42,4.28,2.51a99,99,0,0,0,8.16-50.85c-.34-3.14-5.29-3.18-5,0Z"/><path class="cls-15" d="M411.2,729.44a82.89,82.89,0,0,1-8.34,42.18c-1.4,2.85,2.87,5.36,4.28,2.5a88,88,0,0,0,9-44.68c-.2-3.17-5.16-3.19-5,0Z"/><path class="cls-15" d="M384.92,742.72a76.53,76.53,0,0,1-4.53,36.18c-1.14,3,3.65,4.28,4.77,1.32a79.61,79.61,0,0,0,4.72-37.5c-.36-3.13-5.32-3.17-5,0Z"/><path class="cls-15" d="M249.49,729.85a52.57,52.57,0,0,0,10,34.07c1.86,2.56,6.16.09,4.28-2.5a48.33,48.33,0,0,1-9.35-31.57c.18-3.19-4.78-3.18-4.95,0Z"/><path class="cls-15" d="M273.49,729.42c1.73,17.07,8.92,32.47,17.1,47.33,1.54,2.79,5.82.29,4.28-2.5-7.72-14-14.79-28.7-16.43-44.83-.32-3.14-5.28-3.17-4.95,0Z"/><path class="cls-15" d="M300.25,736.88a113.39,113.39,0,0,0,7.18,40.43c1.11,3,5.9,1.68,4.78-1.32a109.25,109.25,0,0,1-7-39.11c0-3.19-4.94-3.19-5,0Z"/><path class="cls-15" d="M340.65,746a333.84,333.84,0,0,1-.66,42.67c-.25,3.18,4.7,3.16,5,0a333.84,333.84,0,0,0,.66-42.67c-.16-3.18-5.11-3.19-5,0Z"/><path class="cls-16" d="M334.48,686.64c4.75,14.59-11.29-9.54-26.42-9.08s-29.52,25.69-24.78,9.08c3.89-13.59,11.46-25.6,25.6-25.6S330.11,673.2,334.48,686.64Z"/><rect class="cls-6" x="517.13" y="707.64" width="13.98" height="91.87" rx="6.99" transform="translate(-393.02 791.13) rotate(-57.53)"/><ellipse class="cls-17" cx="461.21" cy="834.48" rx="12.9" ry="8.6" transform="translate(-375.23 376.84) rotate(-32.39)"/><rect class="cls-6" x="465.66" y="791.51" width="105.45" height="13.98" rx="6.99" transform="translate(-347.07 401.87) rotate(-32.39)"/><rect class="cls-14" x="466.07" y="818.64" width="17.11" height="14.07" transform="matrix(0.84, -0.54, 0.54, 0.84, -368.43, 382.65)"/><ellipse class="cls-17" cx="459.19" cy="825.39" rx="3.3" ry="4.96" transform="translate(-418.85 1173.48) rotate(-82.54)"/><rect class="cls-6" x="62.88" y="749.56" width="91.87" height="13.98" rx="6.99" transform="translate(-463.89 250.37) rotate(-40.34)"/><ellipse class="cls-17" cx="50.1" cy="672.54" rx="8.6" ry="12.9" transform="translate(-174.63 36.68) rotate(-15.2)"/><rect class="cls-6" x="60.59" y="685.07" width="13.98" height="105.45" rx="6.99" transform="translate(-191.13 43.55) rotate(-15.2)"/><rect class="cls-14" x="47.51" y="679.39" width="14.07" height="17.11" transform="translate(-178.52 38.39) rotate(-15.2)"/><ellipse class="cls-17" cx="59.38" cy="673.29" rx="4.96" ry="3.3" transform="translate(-577.34 446.51) rotate(-65.36)"/><path class="cls-18" d="M384.53,931.45a10.66,10.66,0,0,0-7.34,3.23A10.71,10.71,0,0,0,361.53,936a10.74,10.74,0,1,0,.42,13.71,10.71,10.71,0,0,0,15.71.4,10.73,10.73,0,1,0,6.87-18.69Z"/><path class="cls-18" d="M289.19,932.11a10.71,10.71,0,0,0-7.47,2.91,10.72,10.72,0,0,0-15.7.69,10.74,10.74,0,1,0-.16,13.72,10.71,10.71,0,0,0,15.68,1.06,10.73,10.73,0,1,0,7.65-18.38Z"/></g><g class="cls-4"><ellipse class="cls-5" cx="1749.5" cy="1030.61" rx="141" ry="21.5"/><path class="cls-19" d="M1676.59,751.29c-7.44,5.56-28.55,22.93-29.73,22.21-5.52-3.38-10.59-65-4.62-68.56,8.59-5.14,63.73,15.19,64.8,21.35C1707.71,730.11,1686.57,743.84,1676.59,751.29Z"/><path class="cls-19" d="M1818.57,749.63c-7-6-28.63-22.82-28.18-24.13,2.09-6.13,61.08-24.58,65.88-19.54,6.89,7.25-.85,65.51-6.62,67.9C1846.07,775.35,1828,757.74,1818.57,749.63Z"/><path class="cls-20" d="M1821.06,747.86c-3.94-3.38-16-12.75-15.75-13.49,1.17-3.42,34.13-13.73,36.81-10.91,3.85,4-.48,36.6-3.7,37.93C1836.42,762.22,1826.35,752.38,1821.06,747.86Z"/><path class="cls-20" d="M1675.13,746.62c-4.14,3.12-15.88,12.89-16.55,12.49-3.09-1.87-6.11-36.28-2.78-38.29,4.78-2.9,35.65,8.3,36.27,11.73C1692.45,734.68,1680.68,742.42,1675.13,746.62Z"/><ellipse class="cls-19" cx="1747.5" cy="853.61" rx="128" ry="138.5"/><circle class="cls-14" cx="1714.5" cy="792.11" r="32"/><circle class="cls-14" cx="1778.5" cy="792.11" r="32"/><circle cx="1699" cy="782.61" r="7.5"/><circle cx="1796" cy="797.61" r="7.5"/><polygon class="cls-21" points="1738.5 827.11 1747 815.6 1755.5 827.11 1738.5 827.11"/><path class="cls-22" d="M1766,837.61c0,6.9-2.1,12-9,12s-10-5.1-10-12"/><path class="cls-22" d="M1728,837.61c0,6.9,2.1,12,9,12s10-5.1,10-12"/><path class="cls-23" d="M1829.5,857.11c0,55.43-7.66,61-16.5,61s-15.5-5.57-15.5-61"/><path class="cls-23" d="M1701.5,857.11c0,55.43-7.66,61-16.5,61s-15.5-5.57-15.5-61"/><path class="cls-24" d="M1874.55,870c-.79,6.25-1.09,6.59-4.53,5.48-4.3-1.39-27.68-7.93-27-11.48.92-4.43,24.67-3.49,27.81-3C1874.84,861.54,1875.69,860.84,1874.55,870Z"/><path class="cls-24" d="M1875.17,844.89c.42,6.28.19,6.67-3.4,6.24-4.48-.54-28.68-2.49-28.64-6.12,0-4.52,23.54-8.14,26.72-8.27C1873.84,836.57,1874.55,835.73,1875.17,844.89Z"/><path class="cls-24" d="M1869.61,895.17c-1.67,6.07-2,6.36-5.27,4.77-4-2-26.26-11.81-25-15.22,1.54-4.25,24.9.08,28,1C1871.1,886.88,1872,886.32,1869.61,895.17Z"/><path class="cls-24" d="M1625.43,895.13c1.66,6.07,2,6.37,5.26,4.79,4.06-2,26.28-11.75,25.06-15.16-1.53-4.26-24.91,0-28,.93C1624,886.84,1623,886.28,1625.43,895.13Z"/><path class="cls-24" d="M1620.48,870.29c.52,6.27.81,6.63,4.29,5.66,4.35-1.2,28-6.77,27.4-10.34-.73-4.47-24.49-4.52-27.66-4.17C1620.54,861.87,1619.71,861.14,1620.48,870.29Z"/><path class="cls-24" d="M1620,843.89c-.43,6.28-.19,6.67,3.4,6.24,4.48-.54,28.68-2.49,28.64-6.12,0-4.52-23.54-8.14-26.72-8.27C1621.28,835.57,1620.57,834.73,1620,843.89Z"/><path class="cls-24" d="M1777.56,719c6.07,1.67,5.65,2.19,5,4.4-1.07,3.7-10,19.76-13.42,18.59-4.28-1.46-1.46-19.41-.74-21.73C1769.32,717.35,1768.71,716.58,1777.56,719Z"/><path class="cls-24" d="M1751.5,715.11c6.23,0,5.68,2,5.75,2.93.25,3.07-4.42,21.82-8,21.63-4.61-.26-6.49-18.38-6.34-20.95S1742.41,715.08,1751.5,715.11Z"/><path class="cls-24" d="M1721.77,718c-6.14,1.36-5.75,1.9-5.22,4.13.88,3.76,9,20.24,12.47,19.24,4.34-1.24,2.43-19.31,1.82-21.66C1730.09,716.7,1730.74,716,1721.77,718Z"/><rect x="1745.5" y="831.11" width="3" height="7"/><rect x="1801.04" y="908.61" width="11.23" height="1" rx="0.5" transform="translate(373.55 2336.24) rotate(-71.59)"/><rect x="1819.92" y="903.62" width="1" height="10.98" rx="0.5" transform="translate(-116.29 284.95) rotate(-8.67)"/><rect x="1813" y="904.11" width="1" height="14" rx="0.5"/><rect x="1673.06" y="908.46" width="11.23" height="1" rx="0.5" transform="translate(286.13 2214.72) rotate(-71.59)"/><rect x="1691.95" y="903.47" width="1" height="10.98" rx="0.5" transform="translate(-117.74 265.67) rotate(-8.68)"/><rect x="1685.03" y="903.96" width="1" height="14" rx="0.5"/><rect class="cls-19" x="1705.5" y="982.11" width="17" height="40"/><rect class="cls-19" x="1774.5" y="982.11" width="17" height="40"/><ellipse class="cls-19" cx="1792" cy="1024.11" rx="11.5" ry="18" transform="translate(318.73 2469.63) rotate(-74.2)"/><ellipse class="cls-19" cx="1705" cy="1024.11" rx="18" ry="11.5" transform="translate(-214.4 502.84) rotate(-15.8)"/><path class="cls-25" d="M1644.63,932.82c-14.35,10.13-37.76,16.78-56.13,11.29-28.72-8.58-46.47-41.9-30.24-62.17"/><path class="cls-25" d="M1559.46,819.59c21,12.21,24.09,29.89-1.63,63"/><ellipse class="cls-24" cx="1548" cy="822.11" rx="20.5" ry="14.5"/></g><g class="cls-26"><path class="cls-27" d="M596.93,288.88c1.23-79.4-2-146.44-10.18-211l-1-7.86,7.93,0h7.78c21.3,0,43,.15,64.63.45,17.2.23,32.93,5.27,48.08,15.41,15.52,10.45,26.6,24.77,32.07,41.43,4.87,14.91,3.65,27.85-3.62,38.48-4.08,6-10,11.09-17.83,15.51,13.17,6.3,22.4,17.24,27.1,32.32A407.34,407.34,0,0,1,765.56,274l1.13,7.71-7.78.3c-18.3.72-37.28,1.85-56.4,3.36l-6.84.54L695,279c-1.74-17.59-4.37-35.34-7.81-52.77-2-9.5-5-14.21-7.15-16.46s-5.7-3.61-10.37-3.73a758.47,758.47,0,0,1,.42,76.11l-.26,6.05-6,.62c-19.1,2-38.93,4.36-58.92,7.08l-8.07,1.1Zm62.72-163.51c1.93,10,3.61,20.1,5,30.22l5.81-.08c6.33-.08,10.65-1.47,12.83-4.12,1.36-1.67,3-4.59,1.65-10.6-1.16-5.11-3.41-9-6.7-11.53s-7.79-3.84-13.62-3.87Z"/><path class="cls-6" d="M601.53,77q32.9,0,64.46.45c15.93.21,30.53,5,44.29,14.23s24.12,22,29.31,37.79c4.24,13,3.21,23.63-2.75,32.35S720,177.34,704,182.61c21,2.67,35.22,14,41.17,33.1A398.49,398.49,0,0,1,758.64,275Q731.46,276,702,278.34c-1.75-17.67-4.36-35.43-7.91-53.43-1.9-9.14-5-15.81-9-20-3.76-3.89-9.13-5.88-16.19-5.88l-1.44,0-5.23.2a739.72,739.72,0,0,1,.87,82.6q-28.46,2.94-59.15,7.1c1.08-70.12-1.12-140-10.24-212h7.84m57.05,85.67,12-.18c8.5-.11,14.57-2.33,18.15-6.68s4.6-9.86,3.07-16.59-4.73-12-9.25-15.51-10.45-5.3-17.87-5.34q-6.73,0-13.58,0c3.12,15,5.58,29.71,7.48,44.34M601.53,63h-7.86l-15.86,0,2,15.73c8.13,64.2,11.35,130.93,10.13,210l-.25,16.28,16.14-2.2c19.92-2.71,39.67-5.08,58.7-7l12-1.25.51-12.09c.94-22.61,1-43.84.19-64.36a40.26,40.26,0,0,1,3.07,9.57c3.39,17.19,6,34.69,7.7,52l1.35,13.66,13.68-1.08c19-1.5,37.92-2.63,56.13-3.34l15.56-.62-2.26-15.4A416,416,0,0,0,758.6,211.6v-.06c-4-12.83-11.13-23.12-20.87-30.47a52.12,52.12,0,0,0,10.68-11.32c8.57-12.53,10.08-27.53,4.51-44.6-6-18.18-18-33.76-34.8-45.06C702,69.3,684.52,63.71,666.18,63.47c-21.61-.3-43.37-.45-64.65-.45Zm69.2,85.49q-1.2-8-2.61-15.88a12.47,12.47,0,0,1,5.89,2.18c1.94,1.51,3.35,4.05,4.14,7.54s.05,4.24-.26,4.61-2.27,1.44-7.16,1.55Z"/><path class="cls-27" d="M840.58,284.16l-2.1,0c-24.25-.58-42.47-10.38-55.7-29.95-12-17.5-20-40.27-25.13-71.62-3.41-20.29-5-38.83-4.6-55.09.41-19,3.43-32.15,9.51-41.4,6.92-10.56,16.65-15.92,28.92-15.92l1.64,0c23.58.75,49.09,12.88,73.75,35.06,26.12,23.64,43.49,52.77,48.94,82,5.29,29.14-1,53.57-18.74,72.64C881.69,276,862.71,284.16,840.58,284.16ZM820.74,130.32c-2.26,0-5.08,0-5.77,9.09-.85,10.59,1.7,26.08,4.58,41.26,3.25,17.39,6.37,30.86,11,40.15,4.95,10,9.78,11.46,13.43,11.62l.54,0h0c1.85,0,7.42,0,12.24-10,4.42-9.34,5.22-21.57,2.37-36.3-3.92-20-12.29-33.43-18.62-41.21-10.8-13.17-17.31-14.51-19-14.61Z"/><path class="cls-6" d="M791.48,77.15l1.39,0c21.61.7,45.92,12.22,69.32,33.28,23.17,21,41.15,48.08,46.74,78.11s-2.69,51.21-17,66.6c-14.14,14.81-31.42,22-51.36,22l-1.94,0c-21.75-.52-38-9-50.06-26.87-12.27-17.89-19.4-40.62-24-68.84-3.29-19.56-4.87-37.54-4.52-53.8s2.63-29,8.37-37.7c5.47-8.36,12.72-12.77,23.07-12.77m53.08,162.31c7.63,0,14-4.59,18.55-14,4.61-9.74,6.36-23,2.94-40.67-3.59-18.29-11.16-33.37-20.06-44.3s-17.37-16.81-24.1-17.17c-.39,0-.78,0-1.15,0-8.11,0-12,5.34-12.75,15.56-.85,10.69,1.29,25.24,4.68,43.09,3.39,18.12,6.6,31.93,11.66,42s11.19,15.1,19.37,15.48l.86,0M791.48,63.15h0c-14.78,0-26.48,6.42-34.78,19.1-6.82,10.37-10.21,24.7-10.65,45.07-.37,16.69,1.21,35.66,4.7,56.39,5.3,32.37,13.65,56,26.25,74.42,7.28,10.76,16.16,19,26.4,24.44s21.63,8.24,34.9,8.56l2.28,0c24.12,0,44.8-8.86,61.49-26.34l.06-.07.07-.07c19.3-20.77,26.2-47.22,20.5-78.62V186a138.37,138.37,0,0,0-18.61-47.22,178.37,178.37,0,0,0-32.5-38.71c-25.92-23.32-53-36.07-78.24-36.89-.62,0-1.25,0-1.86,0Zm53.08,162.31h-.24c-1.1,0-3.71-.17-7.45-7.71v0l0,0c-4.3-8.56-7.27-21.49-10.41-38.28-2.79-14.73-5.26-29.67-4.48-39.4v-.06c.07-.89.16-1.61.26-2.19,1.95.89,6.36,3.62,12.95,11.66,5.8,7.12,13.51,19.54,17.16,38.12,2.55,13.17,1.93,23.93-1.84,31.94-1.93,4-3.92,6-5.92,6Z"/><path class="cls-27" d="M975.28,293.78c-11.76-1.86-23.63-3.53-35.27-5l-8-1,2.16-7.82c13.24-48.07,9.7-91.58-11.54-140.54-10.16-.89-20.22-1.72-29.94-2.49l-4.11-.33-1.71-3.74a382.94,382.94,0,0,0-24.66-45L855,76.47l13.46.66C905.88,79,942,81,975.45,82.9l3.76.22,1.89,3.26a400.93,400.93,0,0,1,25.13,50.77l4.34,10.76L999,146.74c-7.53-.77-14.67-1.48-21.58-2.16,19.42,50.36,21.09,95.35,5.6,144.39l-1.82,5.75Z"/><path class="cls-6" d="M868.08,84.12c36.68,1.8,72.24,3.78,107,5.77a392.08,392.08,0,0,1,24.69,49.88q-16.35-1.67-33.14-3.29c25.7,59.92,23.63,106.53,9.77,150.38q-17.22-2.72-35.5-5c12.2-44.3,12.67-90.69-13.56-149q-16.78-1.47-34.12-2.85a389.43,389.43,0,0,0-25.11-45.88m-26.24-15.3,14.4,22.78a375.67,375.67,0,0,1,24.22,44.22l3.42,7.49,8.21.65c8.37.66,17,1.37,25.7,2.12,9.79,23.51,15.28,45.66,16.74,67.48,1.4,20.89-.94,42-7.16,64.6l-4.31,15.63,16.09,2c11.56,1.42,23.35,3.08,35,4.92l11.9,1.88,3.63-11.49c8.07-25.54,11.53-49.73,10.59-73.93-.83-21.07-4.93-42.34-12.49-64.51l10.5,1.06,23.07,2.35-8.67-21.51a408.93,408.93,0,0,0-25.56-51.67l-3.78-6.52-7.53-.44C942.35,74,906.19,72,868.76,70.14l-26.92-1.32Z"/><path class="cls-27" d="M1071.28,312.8c-11-2.53-21-4.74-30.41-6.76l-8-1.71,3-7.66c18.79-48.51,19.18-93.71,1.15-146l-26.44-2.75-4.24-.44-1.55-4a389,389,0,0,0-24-49.48L974.4,82.84l25.22,1.45c30.79,1.77,59.87,3.45,89.09,5l4.28.23,1.75,3.91a405.51,405.51,0,0,1,20.44,55.78l2.77,9.88-10.21-1L1087.65,156c15.41,54.48,12.74,102-8.34,152.69l-2.27,5.46Z"/><path class="cls-6" d="M986.84,90.57c34.54,2,68.28,4,101.51,5.7a396.54,396.54,0,0,1,20.09,54.81q-15.12-1.53-30.52-3.15c20.85,65.45,13.17,114.18-5.07,158.05q-15-3.45-30.52-6.78c16.91-43.66,22.67-91.49-.25-155q-15.24-1.59-30.85-3.21a391.81,391.81,0,0,0-24.39-50.38M962,75.11l12.72,22.38a380.83,380.83,0,0,1,23.53,48.57l3.11,7.94,8.49.87,22,2.29c8.28,25.29,12,48.79,11.4,71.6-.59,21.69-5,42.47-13.88,65.38l-5.93,15.32,16.07,3.43c9.42,2,19.33,4.21,30.3,6.73l11.53,2.66,4.54-10.93c10.73-25.82,16.7-50.5,18.23-75.44,1.44-23.23-.86-46.92-7-71.92l10,1,20.43,2.07-5.53-19.77a414.43,414.43,0,0,0-20.8-56.75l-3.49-7.82-8.56-.45c-29.18-1.54-58.22-3.21-89-5l-12.47-.72L962,75.11Z"/><path class="cls-27" d="M1180.83,338c-24-4.93-48.62-10.78-70.31-15.95l-8.2-2,3.42-7.7c13.86-31.19,20.47-60,20.8-90.58.39-37.22-8.64-77.11-27.6-121.93l-4.35-10.28,11.15.56c32.9,1.67,61.82,2.91,88.43,3.8l5,.17,1.44,4.82a432.65,432.65,0,0,1,13.54,59.43l1.29,8.62-8.7-.6c-12.55-.87-25.54-1.88-39.49-3.08a304.65,304.65,0,0,1,4.2,31.59c13.29,1.67,25.48,3.1,37.11,4.33l6.22.66,0,6.25a283,283,0,0,1-3.31,45.27l-1.06,6.83-6.84-1c-10.55-1.5-21.74-3.22-34-5.23a242.74,242.74,0,0,1-6,28.56c12.79,2.58,24,4.7,34.66,6.58l8,1.41-2.53,7.68a344.27,344.27,0,0,1-15.12,37.82l-2.34,5Z"/><path class="cls-6" d="M1105.38,97.15c29.83,1.51,59.28,2.83,88.56,3.8a424,424,0,0,1,13.31,58.47q-24.16-1.68-48.66-3.89a297.17,297.17,0,0,1,6.29,45.59c14.45,1.86,28.74,3.57,43,5.08a273.17,273.17,0,0,1-3.23,44.14c-13.59-1.93-27.21-4.09-41-6.39a239.28,239.28,0,0,1-8.89,42c14.17,2.9,28.21,5.64,42.29,8.13a338.92,338.92,0,0,1-14.82,37.05c-23.38-4.79-46.47-10.27-70.09-15.9,24.77-55.73,34.54-120.49-6.76-218.08M1083.79,82l8.7,20.57c18.59,43.92,27.43,82.88,27,119.13-.32,29.62-6.74,57.52-20.19,87.81L1092.5,325l16.4,3.9c21.72,5.17,46.34,11,70.52,16l10.83,2.22,4.67-10a350.77,350.77,0,0,0,15.43-38.59l5.06-15.36-15.93-2.81c-8.58-1.51-17.46-3.18-27.25-5.11q1.83-7.55,3.18-15.11c9.64,1.54,18.64,2.91,27.24,4.13l13.68,1.95,2.13-13.65a290.15,290.15,0,0,0,3.39-46.39l-.08-12.52-12.45-1.31c-9.93-1.05-20.27-2.25-31.37-3.62q-.84-8.7-2.24-17.61c10.62.88,20.74,1.65,30.58,2.33l17.4,1.21-2.59-17.25a440.13,440.13,0,0,0-13.75-60.4l-2.89-9.64-10-.34c-26.56-.88-55.45-2.12-88.32-3.79L1083.79,82Z"/><path class="cls-27" d="M1278.87,352.38c-11.15-.88-22.59-2.06-34-3.53l-8.57-1.1,2.85-8.15a424.27,424.27,0,0,0,15.06-53,71.62,71.62,0,0,0,1.7-14.79c-5.44,22.92-13.4,45.48-24.67,70l-2.21,4.82-5.23-.82c-9.55-1.51-19.15-3.19-29.36-5.15l-8.82-1.69,3.79-8.13c15.63-33.57,24.49-64.32,27.9-96.77,4.24-40.38-.09-83.15-13.24-130.76l-2.52-9.13,9.47.27c19.25.56,37.25.92,55,1.12,14.84.13,28.27,8.05,38.83,22.91,10.26,14.41,15.71,33.87,15.76,56.29,0,17.77-3.49,33.23-10.4,45.95a66.2,66.2,0,0,1-18.54,21.56c6.06,6.53,11.2,18.5,8.14,40.33a524.13,524.13,0,0,1-13.67,64.58l-1.51,5.61Zm-14.39-142.72h.36c.89,0,2.74,0,4.82-3.78,2.42-4.4,3.66-10.31,3.67-17.55s-1.13-13.38-3.19-17.08c-1.8-3.22-3.77-3.71-5.46-3.77l-1,0A364.84,364.84,0,0,1,1264.48,209.66Z"/><path class="cls-6" d="M1210.83,101.48q27.62.8,55.14,1.12c12.45.11,24,7,33.21,20s14.41,30.86,14.45,52.25c0,17.54-3.52,31.52-9.54,42.6A59,59,0,0,1,1279,242.05c11.49,4,17,17.92,14,39.62a518.66,518.66,0,0,1-13.5,63.73c-11.46-.9-22.65-2.08-33.64-3.49a430.5,430.5,0,0,0,15.3-53.86c2-9.73,2.3-17.22,1.33-22.06s-3.63-7.51-7.8-7.9l-2.81-.27c-5.9,30.08-15.65,56.6-26.9,81.1-9.82-1.54-19.51-3.26-29.12-5.1,27.17-58.38,43.84-128.14,15.06-232.34m54,115.19c4.52,0,8.21-2.42,11-7.39,2.9-5.28,4.53-12.19,4.54-20.92s-1.45-15.81-4.08-20.51-6.48-7.19-11.33-7.35q-4.43-.15-8.83-.33a356.94,356.94,0,0,1,1,56l6.88.46c.27,0,.55,0,.82,0M1192.28,86.94l5,18.27c12.91,46.74,17.17,88.67,13,128.16-3.33,31.66-12,61.7-27.28,94.54l-7.58,16.28,17.63,3.38c10.3,2,20,3.67,29.59,5.18l4.2.66-.07.18,17.14,2.2c11.52,1.49,23.07,2.68,34.33,3.56l11.58.91,3-11.21a532.5,532.5,0,0,0,13.84-65.42c1.82-13,1.07-24.13-2.23-33.2a40.23,40.23,0,0,0-3.27-6.94,74.05,74.05,0,0,0,15.11-19.37c7.49-13.79,11.27-30.37,11.25-49.32,0-23.89-5.94-44.76-17.05-60.36-11.73-16.51-27.54-25.69-44.49-25.84-17.48-.19-35.95-.57-54.86-1.11l-19-.55Z"/><path class="cls-27" d="M1337.59,344.79c22.66-60.91,44.76-137.41,36.94-243l-.54-7.24,7.26-.27c18.69-.7,37.38-1.65,55.55-2.83,1-.07,2.12-.11,3.16-.11,15.75,0,28.6,7.81,37.16,22.58,8.64,14.92,11.83,35,9.49,59.74a162.74,162.74,0,0,1-8.55,38.35c-4.58,13.06-12.41,25-23.26,35.59-11.07,10.74-23.79,17.09-37.82,18.86-2.34.29-4.69.58-7,.85-5.69,24.93-12.85,50-23,80.45l-1.47,4.43-4.66.34c-12.28.9-24.57,1.48-36.55,1.74l-10.3.21Zm87.22-182.08c-.79,14.23-2.09,28.52-3.86,42.63,3.25-.75,6.1-2.81,8.68-6.29,3.39-4.57,5.51-10.92,6.28-18.87.95-9.77-.52-14.15-1.48-15.9a3.6,3.6,0,0,0-3.69-2.11,8.44,8.44,0,0,0-1,.06Z"/><path class="cls-6" d="M1440,98.3c13.28,0,23.9,6.66,31.11,19.09,7.68,13.27,10.8,32,8.57,55.57a154.37,154.37,0,0,1-8.19,36.69c-4.28,12.2-11.53,23.16-21.54,32.89s-21.46,15.38-33.81,16.94q-6,.75-11.89,1.39c-6.74,30.55-15.18,58.45-23.87,84.64-12.45.91-24.49,1.47-36.19,1.72,24-64.63,45.14-140.92,37.36-246q27.67-1,55.74-2.85c.92-.06,1.82-.09,2.71-.09m-27.15,115.09q3.82-.42,7.68-.88c5.7-.68,10.67-3.77,14.76-9.28s6.7-12.91,7.63-22.37c.87-9,0-15.68-2.31-20a10.51,10.51,0,0,0-9.83-5.74,16.34,16.34,0,0,0-1.68.09q-5.49.56-10.93,1.05c-.92,20-2.77,39-5.32,57.08M1440,84.3v0h0c-1.19,0-2.41,0-3.63.12-18.11,1.18-36.74,2.13-55.35,2.83l-14.51.54,1.07,14.48c3.49,47.05,1.35,91.09-6.55,134.63-6.1,33.62-15.34,66.14-30,105.45l-7.18,19.31,20.6-.43c12.1-.26,24.51-.85,36.91-1.75l9.32-.69,2.94-8.86c9.55-28.74,16.48-52.71,22-76.29l2.18-.27c15.59-2,29.65-9,41.83-20.79,11.64-11.32,20-24.2,25-38.29a169.08,169.08,0,0,0,8.91-40c2.49-26.21-1-47.71-10.39-63.91-9.75-16.81-25.09-26.07-43.22-26.07Z"/><path class="cls-27" d="M1430.56,336.26a896.11,896.11,0,0,0,76.33-245.5l.53-3.36a65.51,65.51,0,0,1-1.28-12.8c-.05-10.9,2.08-20.4,6.32-28.23,6.23-11.54,14.29-14.06,20-14.15h.32c5.5,0,13.46,2.22,20.17,12.77,4.75,7.46,7.1,16.3,7,26.26A54.75,54.75,0,0,1,1558.27,84l.34,2.42c3.24,22.48,6.05,43.59,8.76,64,7.51,56.52,14,105.34,25.81,154l1.58,6.53-6.46,1.85c-18.59,5.33-36.94,10.2-54.52,14.47l-8.28,2-.36-8.52c-.42-9.88-.77-20.54-1.06-32.37-7.88,2-15.72,3.86-23.42,5.62-4.26,13-8.79,26.21-13.82,40.19L1485.5,338l-3.91.76c-14.82,2.87-29.52,5.37-43.71,7.44l-13,1.89Zm92.31-118.9q-2.49,9.88-5.16,19.72l5.44-1.39Q1523,226.61,1522.87,217.36Zm10.25-148.59a12.87,12.87,0,0,0-.67,4.43,13.78,13.78,0,0,0,.28,2.94,11.39,11.39,0,0,0,.78-4.26A10.7,10.7,0,0,0,1533.12,68.77Z"/><path class="cls-6" d="M1532.73,39.22c5.5,0,10.3,3.29,14.27,9.52s6,13.74,5.91,22.44a47.41,47.41,0,0,1-3.12,16.52l1.9-.24c12.22,84.83,18.51,152,34.69,218.67q-28.26,8.1-54.25,14.4c-.57-13.48-1-27.14-1.25-41q-18.33,4.77-35.65,8.64-7.24,22.42-15,43.77-22.52,4.35-43.39,7.38A902.06,902.06,0,0,0,1513.8,91.86l2-.21a55.13,55.13,0,0,1-2.64-17.08c0-9.53,1.72-17.93,5.47-24.86s8.37-10.41,13.9-10.49h.22m-.43,45.91.56,0c2-.22,3.81-1.64,5.33-4.24a17.6,17.6,0,0,0,2.32-8.94,15.23,15.23,0,0,0-2.23-8.53c-1.44-2.22-3.13-3.34-5-3.34h-.29q-3.09.18-5.29,3.94a17.84,17.84,0,0,0-2.2,9.19,16.65,16.65,0,0,0,2.12,8.74c1.29,2.15,2.86,3.2,4.73,3.2m-24.52,161.59q11-2.64,22.45-5.64c-.37-25.45-.74-52-1.85-80.3-5.87,29.8-12.83,58.47-20.6,85.94m25-221.5h-.44c-7.51.1-18.14,3.28-26,17.82-4.79,8.86-7.2,19.49-7.15,31.58a73,73,0,0,0,1.18,12.89l-.35,2.15a888.67,888.67,0,0,1-75.73,243.57l-11.31,23.67,26-3.78c14.28-2.08,29.1-4.6,44-7.5l7.82-1.51,2.69-7.49c4.57-12.72,8.74-24.77,12.64-36.62q5.58-1.31,11.24-2.68c.24,8.47.52,16.34.83,23.79l.73,17,16.57-4c17.66-4.29,36.1-9.18,54.79-14.54l12.92-3.7L1600,302.83c-11.72-48.32-18.18-97-25.67-153.3-2.72-20.43-5.52-41.55-8.77-64.06l-.16-1.1a61.24,61.24,0,0,0,1.53-13.07c.11-11.32-2.62-21.44-8.09-30.06-8.87-13.94-20.15-16-26.09-16Z"/><path class="cls-27" d="M557,726.93c0-78.25.74-156.65,1.44-232.46q.38-41.22.72-82.29l.05-5.35,5.18-1.36c27.49-7.22,54.31-13.57,79.73-18.89l9.44-2-1,9.59c-2,18-4.08,35.91-6.31,54.83-7.14,60.7-14.52,123.38-17.65,192.8,22.24-4,44.59-7.42,66.55-10.25l8.22-1.06L703,638.8c-1.1,28-.79,56.72.94,85.37l.44,7.33-7.34.09c-45.38.57-90.09,1.36-132.87,2.34l-7.16.17Z"/><path class="cls-6" d="M645.55,393.43c-8.64,78.95-20.61,162-24.36,256.85,25.58-4.74,50.46-8.62,74.81-11.76-1.07,27.05-.89,55.65.94,86.07q-66.24.84-132.94,2.35c0-106.2,1.33-210.72,2.16-314.7q42-11,79.39-18.81m16-17.65-18.89,4c-25.54,5.34-52.48,11.72-80.07,19l-10.36,2.72-.09,10.71c-.22,27.4-.47,55.34-.72,82.35-.7,75.81-1.42,154.19-1.44,232.45v14.33l14.32-.33c42.71-1,87.39-1.77,132.8-2.34l14.68-.18-.88-14.66c-1.72-28.42-2-56.91-.93-84.67l.65-16.56-16.43,2.12c-19.24,2.47-38.76,5.42-58.25,8.78,3.33-65.72,10.37-125.55,17.19-183.56,2.23-18.94,4.34-36.83,6.32-54.9l2.1-19.18Z"/><path class="cls-27" d="M1033.49,730.67q-27.72-.13-55.41-.21h-4.83l-1.7-4.52c-29.27-77.51-39.28-145-30.6-206.29,7.88-55.57,30.4-99.74,50.89-136.79l2.5-4.5,5,1c29.07,6,57.44,13.24,84.87,20.24l12.82,3.27,8.89,2.27-4.53,8c-10.25,18-17.39,32.26-23.16,46.16L1076,464.8l-7.29-1.71c-17.27-4-33.67-7.89-50.24-11.51a276.69,276.69,0,0,0-14,41.9c17.09,3,34,6.17,48.53,9l6.69,1.28-1.11,6.73a215.57,215.57,0,0,0-1.71,56.73l.86,8.83-8.79-1.22c-19.59-2.72-36.09-4.88-51.18-6.69,2.51,45.82,16.33,95.86,42.16,152.65l4.52,10Z"/><path class="cls-6" d="M998,386.24c33.32,6.87,65,15.21,97.37,23.45-8.64,15.22-16.78,30.67-23.53,46.94-19.43-4.55-38.44-9-57.49-13.11A284.25,284.25,0,0,0,996,499.13c18.35,3.1,36.81,6.57,55.68,10.2a224.28,224.28,0,0,0-1.77,58.55c-20.15-2.8-39.9-5.41-59.46-7.67,1.15,44.95,13.34,98,43.1,163.46q-27.72-.13-55.42-.21C914.18,554.19,954.82,464.23,998,386.24m-7.26-15.79-5,9c-20.8,37.59-43.66,82.45-51.7,139.2-8.85,62.49,1.28,131.1,31,209.75l3.41,9,9.65,0c17.74,0,36.38.12,55.4.21l21.86.1-9-19.89c-23.89-52.54-37.36-99.12-41-141.78,12.77,1.58,26.68,3.43,42.65,5.64l17.57,2.44-1.71-17.65a208.71,208.71,0,0,1,1.65-54.92l2.21-13.45-13.38-2.58c-12.46-2.4-26.61-5.08-41.16-7.68a270.68,270.68,0,0,1,9.57-28.22c14.61,3.24,29.2,6.66,44.47,10.24l1.43.34,11.57,2.71,4.56-11c5.65-13.63,12.68-27.63,22.77-45.4l9.07-16-17.79-4.52L1086,392.85c-27.5-7-56-14.29-85.17-20.32l-10.09-2.08Z"/><path class="cls-27" d="M1228.51,732l-55.82-.43-3.78,0-2.05-3.18c-36.7-56.89-58.11-106.58-65.47-151.89-5.8-35.74-3-68.82,8.71-103.41-10.26-2.3-20-4.56-28.5-6.54l-8-1.86,3.08-7.59c5.9-14.56,13.21-29.35,23.7-48l2.62-4.65,5.18,1.3c35.49,8.92,74.29,18,117.47,24.35l9.2,1.34-3.83,8.47c-8,17.67-13.59,32.49-17.59,46.63l-1.69,6-6.11-1c-11.94-1.85-23.85-3.88-36.23-6.19-15.41,50.89-17.68,119.14,64.85,235.58l7.9,11.15Z"/><path class="cls-6" d="M1106.51,412.51c36.94,9.29,75.18,18.21,118.16,24.48-7.14,15.79-13.38,31.49-17.94,47.61-14.53-2.25-28.53-4.7-42.1-7.3C1143.85,540.42,1148.48,612,1228.57,725l-55.83-.43c-76.87-119.18-77.16-193.17-53.38-256.61-12.3-2.72-24.32-5.49-36.17-8.25,6.62-16.32,14.68-31.84,23.32-47.16m-7-16.18-5.25,9.31c-10.64,18.88-18.07,33.92-24.09,48.77l-6.16,15.18,16,3.72c6.4,1.49,13.52,3.14,21.08,4.86-10.11,33.06-12.19,65-6.61,99.39,7.52,46.29,29.27,96.84,66.49,154.56l4.1,6.36,7.57,0,55.82.43,27.34.21L1240,716.86c-36.71-51.78-58.79-96.72-67.53-137.37-6.35-29.56-5.75-57.23,2-86.12,10.21,1.85,20.16,3.52,30.15,5.07l12.23,1.89,3.38-11.91c3.9-13.8,9.38-28.31,17.22-45.66l7.67-16.94-18.4-2.68c-42.87-6.26-81.46-15.33-116.77-24.21l-10.36-2.6Z"/><path class="cls-27" d="M1441.64,733.49c-49.46-.28-97.66-.64-138.27-1l-3.43,0-2.08-2.71C1250.54,668,1224.5,613.72,1218.25,564c-6.29-50,7.85-92.11,22.51-126.74l2-4.85,5.22.62a845.58,845.58,0,0,0,100.62,5.82c11.43,0,23.19-.22,34.95-.64l9.23-.33-2.18,9A436.78,436.78,0,0,0,1381.1,498l-.74,6.19-6.23,0c-28.26-.08-56.26-1.15-83.33-3.18a216.23,216.23,0,0,0-3.27,32.11c25.69,2.26,52,3.86,78.2,4.75l6.49.22.26,6.49a252.32,252.32,0,0,0,7.37,51.26l2.27,9.14-9.41-.46c-25.43-1.25-50.32-2.92-75.78-5.09A287.21,287.21,0,0,0,1317.68,649c29.54,1.87,57.46,3.36,85.22,4.53l4.19.18,1.82,3.78a480.66,480.66,0,0,0,38.52,65l7.69,11.07Z"/><path class="cls-6" d="M1247.21,440a856.41,856.41,0,0,0,101.45,5.87q17.05,0,35.19-.64a443.87,443.87,0,0,0-9.7,51.93c-32-.09-61.5-1.42-89.07-3.65a225.43,225.43,0,0,0-4.61,46c26.61,2.46,54.83,4.33,85,5.36a260.81,260.81,0,0,0,7.56,52.66c-30.08-1.48-58.53-3.52-85.62-6,5.21,20.06,13.59,41.28,25.9,64.19,28.72,1.84,58.41,3.48,89.27,4.79a484.29,484.29,0,0,0,39.08,66q-69.57-.39-138.26-1c-100.33-131.11-89.54-206.82-56.21-285.57m-8.8-15.14-4.1,9.69c-15,35.49-29.5,78.73-23,130.35,3.17,25.2,10.91,50.64,23.65,77.77,13.49,28.71,32.25,58.61,57.35,91.41l4.16,5.44,6.85,0c40.84.31,89.21.67,138.29,1l27,.15-15.4-22.14a475.1,475.1,0,0,1-38-64.09l-3.64-7.55-8.38-.36c-26.46-1.12-53.07-2.52-81.12-4.28a290.12,290.12,0,0,1-15.19-35c21.9,1.76,43.49,3.15,65.49,4.23l18.81.92-4.54-18.28a245,245,0,0,1-7.16-49.85l-.53-13-13-.45c-23.85-.81-47.73-2.21-71.17-4.15.35-6,1-12.08,1.89-18.27,25.24,1.74,51.22,2.66,77.42,2.74l12.46,0,1.48-12.36a431.27,431.27,0,0,1,9.4-50.3l4.36-18-18.46.66c-11.68.43-23.35.64-34.69.64a840.4,840.4,0,0,1-99.81-5.77l-10.44-1.24Z"/><path class="cls-27" d="M1567.08,734q-28.83-.06-57.47-.17l-4.21,0-2-3.72c-40-75.94-56.31-146.47-52.51-227.59-18,1-35.78,1.59-53,1.86l-7.86.12.79-7.83a491,491,0,0,1,8.79-54l1.11-5.22,5.33-.3c63.25-3.64,131.13-13,207.52-28.63l8.45-1.73,0,8.63c-.13,22.77-.2,43.42-.23,63.12v6l-6,.88c-24.16,3.55-48,6.64-70.93,9.19-1.63,84.8,7.6,158.15,29,230.35l2.66,9Z"/><path class="cls-6" d="M1615,415.38q-.18,31.59-.23,63.15-40.23,5.93-76.78,9.83c-2,77.56,4.34,154.84,29.11,238.63q-28.83-.06-57.46-.17c-45.36-86.14-55.82-159-51.29-231.76-21.11,1.25-41.25,2-60.54,2.29a486.3,486.3,0,0,1,8.67-53.22c59.43-3.41,127.78-12.24,208.52-28.75m14.09-17.17-16.9,3.45c-76,15.56-143.6,24.88-206.51,28.5l-10.65.61-2.24,10.43a496.84,496.84,0,0,0-8.9,54.74l-1.59,15.65,15.73-.24c14.87-.23,30.15-.73,45.61-1.48a425.13,425.13,0,0,0,7.92,98.83c8.4,41.45,23.35,82.22,45.69,124.64l3.92,7.44,8.41,0c19.39.07,38.74.13,57.49.17l18.77,0-5.32-18a684.61,684.61,0,0,1-24.08-119.24,818.75,818.75,0,0,1-4.69-102.86c21.15-2.42,43-5.29,65-8.54l12-1.76,0-12.07c0-19.67.1-40.31.23-63.09l.09-17.25Z"/></g><g class="cls-4"><circle class="cls-14" cx="803.5" cy="545.49" r="109"/><path class="cls-28" d="M803.5,447a98.5,98.5,0,1,1-98.5,98.5A98.61,98.61,0,0,1,803.5,447m0-21A119.5,119.5,0,1,0,923,545.49,119.5,119.5,0,0,0,803.5,426Z"/><path class="cls-29" d="M844.08,545.49c-4.92,21.86-25.92,22.54-40.58,40.58C789,603.9,764,555.77,762.92,545.49c-2.56-24.3,13.79-67,40.58-40.59C822.05,523.19,847,532.62,844.08,545.49Z"/><path class="cls-30" d="M817,544.36c0,9.65-3.32,16.91-13,16.91s-26-13-17.47-17.47c10.06-5.27,12.75-15.33,17.47-17.48C812.85,522.33,817,534.71,817,544.36Z"/><circle class="cls-14" cx="752.77" cy="465.44" r="9.02"/><circle class="cls-14" cx="743.75" cy="474.46" r="9.02"/><circle class="cls-14" cx="877.91" cy="607.49" r="9.02"/><circle class="cls-14" cx="868.89" cy="616.51" r="9.02"/><circle class="cls-14" cx="856.49" cy="625.53" r="9.02"/><circle class="cls-14" cx="844.08" cy="632.29" r="9.02"/><circle class="cls-14" cx="828.3" cy="639.06" r="9.02"/><circle class="cls-14" cx="812.52" cy="639.06" r="9.02"/><circle class="cls-14" cx="798.99" cy="639.06" r="9.02"/><circle class="cls-14" cx="780.95" cy="636.8" r="9.02"/><circle class="cls-14" cx="765.17" cy="632.29" r="9.02"/><circle class="cls-14" cx="749.39" cy="623.27" r="9.02"/><circle class="cls-14" cx="736.99" cy="612" r="9.02"/><circle class="cls-14" cx="726.84" cy="598.47" r="9.02"/><circle class="cls-14" cx="717.82" cy="583.82" r="9.02"/><circle class="cls-14" cx="711.06" cy="570.29" r="9.02"/><circle class="cls-14" cx="711.06" cy="553.38" r="9.02"/><circle class="cls-14" cx="708.8" cy="539.85" r="9.02"/><circle class="cls-14" cx="711.06" cy="525.19" r="9.02"/><circle class="cls-14" cx="715.57" cy="509.41" r="9.02"/><circle class="cls-14" cx="722.33" cy="497.01" r="9.02"/><circle class="cls-14" cx="731.35" cy="483.48" r="9.02"/><circle class="cls-14" cx="893.69" cy="512.79" r="9.02"/><circle class="cls-14" cx="900.45" cy="525.19" r="9.02"/><circle class="cls-14" cx="900.45" cy="539.85" r="9.02"/><circle class="cls-14" cx="900.45" cy="553.38" r="9.02"/><circle class="cls-14" cx="895.94" cy="570.29" r="9.02"/><circle class="cls-14" cx="893.69" cy="583.82" r="9.02"/><circle class="cls-14" cx="886.92" cy="596.22" r="9.02"/><circle class="cls-14" cx="817.03" cy="451.92" r="9.02"/><circle class="cls-14" cx="830.56" cy="456.43" r="9.02"/><circle class="cls-14" cx="844.08" cy="460.93" r="9.02"/><circle class="cls-14" cx="856.49" cy="466.57" r="9.02"/><circle class="cls-14" cx="868.89" cy="475.59" r="9.02"/><circle class="cls-14" cx="877.91" cy="487.99" r="9.02"/><circle class="cls-14" cx="886.92" cy="500.39" r="9.02"/><circle class="cls-14" cx="765.17" cy="457.55" r="9.02"/><circle class="cls-14" cx="778.7" cy="451.92" r="9.02"/><circle class="cls-14" cx="791.1" cy="451.92" r="9.02"/><circle class="cls-14" cx="803.5" cy="449.66" r="9.02"/></g><g class="cls-4"><ellipse class="cls-5" cx="1318.75" cy="443.93" rx="41.25" ry="8.06"/><path class="cls-31" d="M1283.45,410.66c-5.84-.18-11-3.6-12.55-9.43-1.29-4.84.69-9.44,3-13.62,3.17-5.77,7.2-11.32,6.67-18.22-.79-10.18-10.73-23.38-21.74-16.34-1.63,1-.12,3.64,1.51,2.59,9.23-5.9,17,6.44,17.29,14.48.3,7.69-5.83,13.73-8.55,20.48-4.45,11,2.12,22.67,14.37,23.06,1.93.06,1.93-2.94,0-3Z"/><circle class="cls-32" cx="1301.94" cy="349.21" r="10"/><path class="cls-33" d="M1302.05,360.42a7.85,7.85,0,0,0-5.4-14.74"/><circle class="cls-32" cx="1338.61" cy="349.21" r="10"/><path class="cls-33" d="M1338.19,360.42a7.85,7.85,0,1,1,5.4-14.74"/><path class="cls-34" d="M1353.61,393.93c9.72,23.61-9,37.5-34.44,37.5s-45.24-12.91-34.45-37.5c12-27.22,14.45-46.53,34.45-47.78C1341.39,344.76,1346.59,376.87,1353.61,393.93Z"/><path class="cls-32" d="M1324.57,381.13c-2.07,5.2-4.56,9.77-5.54,10.74s-3.12-5.19-5.54-10.74C1311,375.41,1315,370.27,1319,370S1327.14,374.71,1324.57,381.13Z"/><circle class="cls-14" cx="1310.97" cy="369.35" r="7.92"/><circle class="cls-14" cx="1326.81" cy="369.35" r="7.92"/><path class="cls-35" d="M1318.94,370a7.65,7.65,0,0,1,4.39-8.05c3.42-1.63,7.7-.22,9.22,1.94Z"/><circle cx="1311.94" cy="369.76" r="1.94"/><circle cx="1325.28" cy="369.76" r="1.94"/><circle class="cls-20" cx="1318.75" cy="394.9" r="2.92"/><path class="cls-35" d="M1318.83,370a7.66,7.66,0,0,0-4.4-8.05c-3.41-1.63-7.7-.22-9.21,1.94"/><rect x="1336.11" y="387.82" width="0.83" height="21.39" rx="0.42"/><rect x="1331.67" y="410.6" width="5.83" height="0.83" transform="translate(170.65 1182.57) rotate(-50.66)"/><rect x="1338.06" y="408.1" width="0.83" height="5.83" transform="translate(42.78 941.69) rotate(-39.34)"/><rect x="1336.11" y="408.65" width="0.83" height="5.83"/><rect x="1301.94" y="387.82" width="0.83" height="21.39" rx="0.42"/><rect x="1297.5" y="410.6" width="5.83" height="0.83" transform="translate(158.14 1156.14) rotate(-50.66)"/><rect x="1303.89" y="408.1" width="0.83" height="5.83" transform="translate(35.03 920.03) rotate(-39.34)"/><rect x="1301.94" y="408.65" width="0.83" height="5.83"/><rect class="cls-34" x="1325.28" y="430.32" width="4.17" height="10.56"/><path class="cls-34" d="M1334.44,445.88l-8.11-3.1a1.53,1.53,0,0,1-1-1.93l.18-.54a1.53,1.53,0,0,1,1.92-1l8.67,1.82c.8.26,1,2,.71,2.81l-.18.55A2.11,2.11,0,0,1,1334.44,445.88Z"/><circle class="cls-34" cx="1335.83" cy="445.32" r="1.39"/><circle class="cls-34" cx="1337.22" cy="442.26" r="1.39"/><circle class="cls-34" cx="1336.94" cy="443.93" r="1.39"/><rect class="cls-34" x="1308.06" y="430.32" width="4.17" height="10.56"/><path class="cls-34" d="M1303.06,445.88l8.11-3.1a1.54,1.54,0,0,0,1-1.93l-.18-.54a1.53,1.53,0,0,0-1.92-1l-8.67,1.82c-.8.26-1,2-.71,2.81l.18.55A2.11,2.11,0,0,0,1303.06,445.88Z"/><circle class="cls-34" cx="1301.67" cy="445.32" r="1.39"/><circle class="cls-34" cx="1300.28" cy="442.26" r="1.39"/><circle class="cls-34" cx="1300.56" cy="443.93" r="1.39"/><polyline class="cls-31" points="1261.3 355.72 1255 359.49 1257.85 353.28"/></g><g class="cls-4"><path class="cls-31" d="M806.45,356.66c-5.84-.18-11-3.6-12.55-9.43-1.29-4.84.69-9.44,3-13.62,3.17-5.77,7.2-11.32,6.67-18.22-.79-10.18-10.73-23.38-21.74-16.34-1.63,1-.12,3.64,1.51,2.59,9.23-5.9,17,6.44,17.29,14.48.3,7.69-5.83,13.73-8.55,20.48-4.45,11,2.12,22.67,14.37,23.06,1.93.06,1.93-2.94,0-3Z"/><circle class="cls-28" cx="824.94" cy="295.21" r="10"/><path class="cls-33" d="M825.05,306.42a7.85,7.85,0,0,0-5.4-14.74"/><circle class="cls-28" cx="861.61" cy="295.21" r="10"/><path class="cls-33" d="M861.19,306.42a7.85,7.85,0,0,1,5.4-14.74"/><path class="cls-7" d="M876.61,339.93c9.72,23.61-9,37.5-34.44,37.5s-45.24-12.91-34.45-37.5c11.95-27.22,14.45-46.53,34.45-47.78C864.39,290.76,869.59,322.87,876.61,339.93Z"/><path class="cls-28" d="M847.57,327.13c-2.07,5.2-4.56,9.77-5.54,10.74s-3.12-5.19-5.54-10.74C834,321.41,838,316.27,842,316S850.14,320.71,847.57,327.13Z"/><circle class="cls-14" cx="833.97" cy="315.35" r="7.92"/><circle class="cls-14" cx="849.81" cy="315.35" r="7.92"/><path class="cls-28" d="M841.94,316a7.65,7.65,0,0,1,4.39-8.05c3.42-1.63,7.7-.22,9.22,1.94Z"/><circle cx="834.94" cy="315.76" r="1.94"/><circle cx="848.28" cy="315.76" r="1.94"/><circle class="cls-20" cx="841.75" cy="340.9" r="2.92"/><path class="cls-28" d="M841.83,316a7.66,7.66,0,0,0-4.4-8.05c-3.41-1.63-7.7-.22-9.21,1.94"/><path d="M870.22,278.94h0c.23,0,.4.42.38.85l-1.75,38.48c0,.43-.22.75-.45.71h0c-.23,0-.4-.41-.38-.84l1.75-38.48C869.79,279.23,870,278.91,870.22,278.94Z"/><polygon points="874.05 271.4 874.65 272.5 870.58 280.35 869.98 279.25 874.05 271.4"/><polygon points="867.13 270.29 866.45 271.18 869.75 280.21 870.43 279.33 867.13 270.29"/><polygon points="870.26 269 871.09 269.13 870.59 280.05 869.76 279.92 870.26 269"/><path d="M814.73,279.6h0c.23,0,.43.28.44.71l1.62,37.85c0,.42-.15.79-.38.82h0c-.23,0-.43-.28-.45-.7l-1.62-37.85C814.33,280,814.5,279.63,814.73,279.6Z"/><polygon points="817.85 271.13 818.53 272.01 815.2 280.85 814.51 279.97 817.85 271.13"/><polygon points="810.92 272.14 810.33 273.2 814.37 280.97 814.97 279.91 810.92 272.14"/><polygon points="813.9 269.94 814.73 269.82 815.19 280.56 814.36 280.68 813.9 269.94"/><rect class="cls-7" x="848.28" y="376.32" width="4.17" height="10.56"/><path class="cls-7" d="M857.44,391.88l-8.11-3.1a1.53,1.53,0,0,1-1-1.93l.18-.54a1.53,1.53,0,0,1,1.92-1l8.67,1.82c.8.26,1,2,.71,2.81l-.18.55A2.11,2.11,0,0,1,857.44,391.88Z"/><circle class="cls-7" cx="858.83" cy="391.32" r="1.39"/><circle class="cls-7" cx="860.22" cy="388.26" r="1.39"/><circle class="cls-7" cx="859.94" cy="389.93" r="1.39"/><rect class="cls-7" x="831.06" y="376.32" width="4.17" height="10.56"/><path class="cls-7" d="M826.06,391.88l8.11-3.1a1.54,1.54,0,0,0,1-1.93l-.18-.54a1.53,1.53,0,0,0-1.92-1l-8.67,1.82c-.8.26-1,2-.71,2.81l.18.55A2.11,2.11,0,0,0,826.06,391.88Z"/><circle class="cls-7" cx="824.67" cy="391.32" r="1.39"/><circle class="cls-7" cx="823.28" cy="388.26" r="1.39"/><circle class="cls-7" cx="823.56" cy="389.93" r="1.39"/><polyline class="cls-31" points="784.3 301.72 778 305.49 780.85 299.28"/></g><g class="cls-4"><path class="cls-19" d="M1324.38,962c19.42,100.16-115.78,68.55-226.51,69.08-112.88.54-253.16,24.14-225.61-74.59C894.89,875.38,988.64,769,1094.75,767S1308.6,880.61,1324.38,962Z"/><path class="cls-24" d="M1099.82,766.1c-17.08-.39-34.8-.81-51,5.22a1.51,1.51,0,0,0,.4,2.95l4.76.05a1.5,1.5,0,0,0,0-3l-4.76-.05.4,3c16-6,33.42-5.51,50.25-5.12,1.93,0,1.93-3,0-3Z"/><path class="cls-24" d="M1101.49,769.63c18.61-2.19,38-.17,55.16,7.53,1.75.78,3.28-1.8,1.52-2.59-17.7-7.92-37.51-10.2-56.68-7.94-1.9.23-1.92,3.23,0,3Z"/><path class="cls-24" d="M1129.34,773.32c15-1.21,30.7,4.86,45.1,8.5,1.87.48,2.67-2.41.8-2.89-14.7-3.72-30.55-9.85-45.9-8.61-1.91.16-1.93,3.16,0,3Z"/><path class="cls-24" d="M1151.25,782.52c6.77-.52,13.63-1,20.4-.32,7.47.81,13.86,4.15,20.55,7.29,1.74.82,3.26-1.77,1.51-2.59-6.53-3.07-12.79-6.41-20-7.45-7.44-1.06-15-.5-22.44.07-1.91.14-1.93,3.15,0,3Z"/><path class="cls-24" d="M1165.67,786.38c13.21-.39,30.11-.39,40.11,9.7a1.5,1.5,0,0,0,2.12-2.12c-10.6-10.7-28.2-11-42.23-10.58-1.93.06-1.94,3.06,0,3Z"/><path class="cls-24" d="M1175.66,794.61c13.95-1.14,28.77,2.94,42.53,5.09,1.89.29,2.7-2.6.8-2.9-14-2.18-29.12-6.35-43.33-5.19-1.92.16-1.93,3.16,0,3Z"/><path class="cls-24" d="M1189.4,801.44c11.46,2.47,22.74,6,34,9.08a1.5,1.5,0,0,0,.8-2.89c-11.31-3.07-22.6-6.62-34-9.08-1.88-.4-2.69,2.49-.8,2.89Z"/><path class="cls-24" d="M1190.38,808.57a200.51,200.51,0,0,1,49.95,9c1.85.59,2.64-2.3.8-2.89a203.59,203.59,0,0,0-50.75-9.16c-1.93-.11-1.92,2.89,0,3Z"/><path class="cls-24" d="M1214,817a455.19,455.19,0,0,1,53,18.25c1.78.74,2.56-2.16.8-2.89a452.12,452.12,0,0,0-53-18.25,1.5,1.5,0,0,0-.8,2.89Z"/><path class="cls-24" d="M1218.74,823.79q21.66,7.4,42.92,15.86c1.8.72,2.58-2.18.8-2.89q-21.26-8.47-42.93-15.86c-1.83-.62-2.61,2.27-.79,2.89Z"/><path class="cls-24" d="M1219.25,835.59c7,.85,14,4,20.65,6.25l20.75,7.07c1.84.62,2.62-2.27.8-2.89l-22.56-7.69c-6.43-2.18-12.86-4.92-19.64-5.74-1.92-.22-1.9,2.78,0,3Z"/><path class="cls-24" d="M1244.25,849.73c6.52-.27,13.6,2.75,19.68,4.93a166.55,166.55,0,0,1,17.82,7.62c1.73.85,3.25-1.73,1.52-2.59a171.83,171.83,0,0,0-18.54-7.92c-6.41-2.3-13.58-5.32-20.48-5-1.93.07-1.94,3.07,0,3Z"/><path class="cls-24" d="M1254.28,862.87c6.33.32,12.4,3.37,18.15,5.8s11.41,5,17,7.82c1.72.85,3.25-1.73,1.51-2.59q-9.07-4.5-18.41-8.42c-5.87-2.45-11.81-5.28-18.25-5.61-1.93-.1-1.92,2.9,0,3Z"/><path class="cls-24" d="M1262.9,870.66a32.38,32.38,0,0,1,11.56,5.73c3.35,2.5,4.69,6.22,7.49,9.16,5.15,5.45,12.23,9.5,18.26,13.91,1.56,1.14,3.06-1.47,1.51-2.59l-10.45-7.64a43.05,43.05,0,0,1-10.8-11c-3.56-5.09-10.8-9.16-16.78-10.48-1.88-.41-2.68,2.48-.79,2.9Z"/><path class="cls-24" d="M1270.65,892.29a331.85,331.85,0,0,0,43,19.52c1.81.67,2.59-2.23.8-2.9a326.23,326.23,0,0,1-42.28-19.21c-1.69-.92-3.21,1.66-1.51,2.59Z"/><path class="cls-24" d="M1282.56,911a90.67,90.67,0,0,1,32,8.28c1.74.83,3.26-1.76,1.52-2.59a94.64,94.64,0,0,0-33.57-8.69c-1.92-.15-1.91,2.85,0,3Z"/><path class="cls-24" d="M1299,919.29c3.78,2,6,5.26,10.17,6.86,5.27,2.05,9.4,3.76,13.35,8,1.32,1.41,3.44-.71,2.12-2.12a26.8,26.8,0,0,0-10.77-7.38c-2.35-.88-5-1.5-7.07-2.9-2.31-1.53-3.79-3.76-6.29-5-1.71-.88-3.23,1.71-1.51,2.59Z"/><path class="cls-24" d="M1066.94,772.15c-14.87,1.77-30.38-1.92-44.81,3.14-1.81.63-1,3.53.8,2.89,14.15-4.95,29.42-1.29,44-3,1.89-.22,1.91-3.23,0-3Z"/><path class="cls-24" d="M1043.84,780.46a71.89,71.89,0,0,0-11.83,0c-3.46.39-6.13,1.64-9.33,2.76-4.06,1.41-9.09.87-13.41,1.27-4,.38-8,1-11.94,1.64-1.9.34-1.1,3.23.79,2.9A137.61,137.61,0,0,1,1012,787.3c3.2-.23,6.62.09,9.75-.55s5.82-2.53,9.08-3.08c4.28-.72,8.73-.44,13-.21,1.93.11,1.92-2.89,0-3Z"/><path class="cls-24" d="M1020.88,790.09c-7.54.38-14.48-.05-21.79,2.24s-14.63,4.72-21.94,7.09c-1.83.59-1,3.49.79,2.89l20.2-6.53c7.7-2.48,14.77-2.28,22.74-2.69,1.92-.09,1.93-3.09,0-3Z"/><path class="cls-24" d="M1000.5,803.8c-11.27-.28-22.58-.44-33.62,2.18-1.88.44-1.08,3.33.8,2.89,10.77-2.55,21.82-2.35,32.82-2.07,1.93,0,1.93-3,0-3Z"/><path class="cls-24" d="M988.26,811.92a206.79,206.79,0,0,0-29.64,1.52c-7.63,1-15.77,1.83-22.62,5.58-1.69.92-.18,3.52,1.52,2.59,7.32-4,16.75-4.74,24.89-5.61a206.59,206.59,0,0,1,25.85-1.08c1.93,0,1.93-3,0-3Z"/><path class="cls-24" d="M978.19,818.48a221.74,221.74,0,0,0-42.41,13.35c-1.76.77-.24,3.35,1.52,2.59a218,218,0,0,1,41.69-13c1.89-.4,1.09-3.29-.8-2.89Z"/><path class="cls-24" d="M973.2,828.26c-9,2.38-18.08,4.76-27.09,7.27-7.19,2-16,3.38-22.13,7.85-1.55,1.12-.06,3.73,1.51,2.59,6.37-4.61,15.82-6,23.28-8.06,8.39-2.32,16.81-4.54,25.23-6.76a1.5,1.5,0,0,0-.8-2.89Z"/><path class="cls-24" d="M956.5,839.31c-14.41,6.27-29.45,12.54-41.09,23.4-1.42,1.32.71,3.44,2.12,2.12C929,854.17,943.87,848.05,958,841.9c1.77-.77.24-3.35-1.51-2.59Z"/><path class="cls-24" d="M935.49,858.74c-12,1-23.8,8.15-32.07,16.62-1.35,1.38.77,3.5,2.12,2.12,7.66-7.84,18.82-14.85,30-15.74,1.91-.15,1.93-3.15,0-3Z"/><path class="cls-24" d="M922,872.65a219.32,219.32,0,0,0-33.56,20.52c-1.53,1.14,0,3.74,1.51,2.59a219.32,219.32,0,0,1,33.56-20.52c1.73-.87.21-3.45-1.51-2.59Z"/><path class="cls-24" d="M917.89,885.61a191.34,191.34,0,0,0-39.14,26.45c-1.45,1.29.68,3.4,2.12,2.12a188.65,188.65,0,0,1,38.53-26c1.72-.89.2-3.48-1.51-2.59Z"/><path class="cls-24" d="M904,904.17c-11.61,7.38-22,16.4-30,27.67-1.12,1.58,1.48,3.08,2.59,1.51,7.68-10.83,17.72-19.49,28.88-26.59,1.62-1,.12-3.63-1.51-2.59Z"/><path class="cls-24" d="M893.48,923.45c-12.57,5.83-21.48,18.28-27.91,30.15-.92,1.7,1.66,3.21,2.59,1.51,6.22-11.46,14.69-23.43,26.84-29.07,1.75-.81.23-3.4-1.52-2.59Z"/><path class="cls-24" d="M886.76,944.14c-11.32,8.64-23.86,17.64-30.13,30.86-.82,1.74,1.77,3.26,2.59,1.52,6-12.73,18.15-21.47,29.06-29.79,1.51-1.16,0-3.77-1.52-2.59Z"/><path class="cls-24" d="M878.91,961.54c-1.93,6.09-6.46,10.88-9.1,16.64a40.56,40.56,0,0,0-3.6,15.07c-.1,1.93,2.9,1.93,3,0A38.39,38.39,0,0,1,875,974.93c2.52-4.14,5.37-7.92,6.85-12.59.59-1.84-2.31-2.63-2.89-.8Z"/><path class="cls-24" d="M886.34,984.7c-4.34,8.16-12.81,21.24-7.13,30.39,1,1.64,3.61.13,2.59-1.51-4.81-7.74,3.48-20.5,7.13-27.37.9-1.7-1.69-3.22-2.59-1.51Z"/><path class="cls-24" d="M896.58,996.51c-1.19,5.12.89,9.48,2.87,14.15q4,9.32,8.2,18.52c.81,1.75,3.39.23,2.59-1.52q-3-6.57-5.91-13.21c-2.25-5.17-6.22-11.3-4.86-17.14.44-1.88-2.45-2.68-2.89-.8Z"/><path class="cls-24" d="M1301.27,931.38c12.58,3.12,24.8,8.74,33.43,18.67,1.26,1.46,3.38-.67,2.12-2.12-8.94-10.29-21.71-16.21-34.75-19.44-1.87-.46-2.67,2.43-.8,2.89Z"/><path class="cls-24" d="M1307.29,947c5.27,1.86,10.47,3.86,15.58,6.11,2.58,1.14,4.93,2.08,6.91,4.12,1.6,1.66,2.61,3.55,4.37,5.06,1.46,1.26,3.59-.86,2.12-2.12-1.91-1.63-2.83-4-4.64-5.69-2-1.87-4.79-2.88-7.25-4-5.34-2.35-10.78-4.47-16.29-6.41-1.82-.65-2.61,2.25-.8,2.89Z"/><path class="cls-24" d="M1307.91,958c4.25,10.15,18.79,9,24.44,17.77,1.05,1.61,3.64.11,2.59-1.52-2.51-3.87-6.65-6-10.69-7.89-4.38-2.11-11.41-4.27-13.45-9.15-.73-1.76-3.64-1-2.89.79Z"/><path class="cls-24" d="M1307.16,973.58c3.41,3.73,8.48,4.89,12.49,7.79,4.72,3.4,6.77,8.51,8.49,13.87.58,1.84,3.48,1,2.89-.79-1.52-4.75-3.27-9.45-6.79-13.1-4.26-4.43-10.86-5.42-15-9.89-1.31-1.42-3.42.7-2.12,2.12Z"/><path class="cls-24" d="M1307.71,991c7.29,5.86,10.27,13.8,12.64,22.56a1.51,1.51,0,0,0,2.9-.8c-2.51-9.22-5.75-17.72-13.42-23.88-1.49-1.2-3.63.91-2.12,2.12Z"/><path class="cls-24" d="M1306.22,1002.68l3.67,23.59c.3,1.9,3.19,1.09,2.9-.8l-3.68-23.58c-.29-1.91-3.18-1.1-2.89.79Z"/><path class="cls-24" d="M1293.81,1012.24q.48,15,.38,30l2.26-1.3-1.44-1c-1.58-1.12-3.08,1.48-1.51,2.59l1.43,1a1.51,1.51,0,0,0,2.26-1.29q.09-15-.38-30c-.06-1.92-3.06-1.93-3,0Z"/><path class="cls-24" d="M1277.44,1019a57,57,0,0,1-.34,17.35c-.33,1.89,2.56,2.7,2.89.8a61.14,61.14,0,0,0,.34-19c-.25-1.9-3.14-1.09-2.89.8Z"/><path class="cls-24" d="M1259.82,1024.48a91,91,0,0,1-1.14,22.35c-.34,1.89,2.55,2.7,2.89.8a94.52,94.52,0,0,0,1.25-23.15c-.14-1.91-3.14-1.93-3,0Z"/><path class="cls-24" d="M1242.33,1026.21a113.28,113.28,0,0,1-4.16,20.55c-.55,1.85,2.34,2.65,2.89.8a117.71,117.71,0,0,0,4.27-21.35c.2-1.92-2.8-1.9-3,0Z"/><path class="cls-24" d="M1223.94,1028.5l-3.91,15.78c-.47,1.88,2.42,2.68,2.89.8l3.91-15.78c.47-1.88-2.42-2.68-2.89-.8Z"/><path class="cls-24" d="M1206.44,1031a28.8,28.8,0,0,1-1.77,14.55c-.69,1.81,2.21,2.59,2.89.8a31.76,31.76,0,0,0,1.77-16.15c-.27-1.9-3.17-1.09-2.89.8Z"/><path class="cls-24" d="M1186.5,1026.31l-.38,26a1.5,1.5,0,0,0,3,0l.38-26a1.5,1.5,0,0,0-3,0Z"/><path class="cls-24" d="M1170,1024.29l.31,16.71c0,1.93,3,1.93,3,0l-.31-16.71c0-1.93-3-1.93-3,0Z"/><path class="cls-24" d="M1145.76,1025.67l.3,15.78c0,1.93,3,1.93,3,0l-.3-15.78c0-1.93-3-1.94-3,0Z"/><path class="cls-24" d="M1118,1027.11l.33,18.1c0,1.93,3,1.94,3,0l-.33-18.1c0-1.92-3-1.93-3,0Z"/><path class="cls-24" d="M917.22,1017.78c1.52,9.81-1.55,19.1,8.38,25.12a1.5,1.5,0,0,0,1.52-2.59c-8.88-5.38-5.68-14.75-7-23.33-.29-1.9-3.18-1.09-2.89.8Z"/><path class="cls-24" d="M928.67,1019.48c-.38,11,8.46,19,17.79,23.22,1.75.79,3.27-1.8,1.52-2.59-8.37-3.78-16.66-10.62-16.31-20.63.07-1.93-2.93-1.93-3,0Z"/><path class="cls-24" d="M960,1019c-2.69,9.1,1.56,17.48,8.68,23.18,1.49,1.2,3.63-.91,2.12-2.12-6.3-5-10.32-12.11-7.91-20.27.55-1.85-2.34-2.64-2.89-.79Z"/><path class="cls-24" d="M981.93,1019.05c-1.81,9.54,1.59,18.12,8.09,25.1,1.32,1.42,3.44-.71,2.12-2.12-5.72-6.15-8.93-13.72-7.32-22.18.36-1.89-2.53-2.69-2.89-.8Z"/><path class="cls-24" d="M1018.1,1021.08a162,162,0,0,0,1.06,24.12c.23,1.89,3.23,1.91,3,0a162,162,0,0,1-1.06-24.12c.06-1.93-2.94-1.93-3,0Z"/><path class="cls-24" d="M1040.05,1023.4l4.26,19.39c.41,1.89,3.31,1.09,2.89-.79l-4.26-19.39c-.42-1.89-3.31-1.09-2.89.79Z"/><path class="cls-24" d="M1066.51,1020.64l.36,19.49c0,1.93,3,1.94,3,0l-.36-19.49c0-1.93-3-1.93-3,0Z"/><path class="cls-24" d="M1099.37,1023.28l.36,19.49c0,1.93,3,1.94,3,0l-.36-19.49c0-1.93-3-1.93-3,0Z"/><path class="cls-24" d="M1056.77,808.19c-10.51,5.28-20.36,14.67-19.85,27.31.08,1.92,3.08,1.93,3,0-.46-11.59,8.79-19.92,18.37-24.72,1.72-.87.21-3.46-1.52-2.59Z"/><path class="cls-24" d="M1003.41,842.27c-8.54,5.75-9.19,14.12-7.85,23.65.27,1.9,3.16,1.09,2.9-.8-1.14-8-.86-15.33,6.46-20.26,1.59-1.07.09-3.67-1.51-2.59Z"/><path class="cls-24" d="M1060.45,818.05c-2.94,7.84,1,15.09,7.23,19.89,1.53,1.17,3-1.43,1.52-2.59-5.3-4.05-8.3-10-5.86-16.51.68-1.81-2.22-2.59-2.89-.79Z"/><path class="cls-24" d="M1007.87,849.55c-1.13,7.16,3.49,12.86,7.78,18.09,1.22,1.49,3.33-.64,2.12-2.12-3.45-4.21-7.93-9.31-7-15.17.3-1.89-2.59-2.7-2.9-.8Z"/><path class="cls-24" d="M995.46,839.53c-7.91-1-15.14,5.67-20.41,10.79-1.38,1.35.74,3.47,2.12,2.12,4.71-4.57,11.23-10.78,18.29-9.91,1.91.23,1.89-2.77,0-3Z"/><path class="cls-24" d="M1134.75,791.25c11.06,1.84,22.89,6.39,29.22,16.2,1,1.62,3.65.12,2.59-1.51-6.76-10.48-19.14-15.6-31-17.58-1.89-.31-2.7,2.58-.79,2.89Z"/><path class="cls-24" d="M1137.12,797.9a21.49,21.49,0,0,1,8.47,10c.68,1.79,3.58,1,2.9-.8-1.88-5-5.49-8.79-9.86-11.74-1.61-1.08-3.11,1.52-1.51,2.59Z"/><path class="cls-24" d="M1128.7,798.05l.17,9.28c0,1.93,3,1.94,3,0l-.17-9.28c0-1.93-3-1.93-3,0Z"/><path class="cls-24" d="M1174.83,838.13c9,6.1,16.41,14.84,17.24,26.06.14,1.91,3.14,1.93,3,0-.91-12.35-8.8-21.9-18.73-28.65-1.6-1.09-3.1,1.51-1.51,2.59Z"/><path class="cls-24" d="M1170.18,846.49a153,153,0,0,1,0,20c-.12,1.93,2.88,1.92,3,0a153,153,0,0,0,0-20c-.13-1.91-3.13-1.93-3,0Z"/><path class="cls-24" d="M1155.67,845.47q-3.08,13.15-5.18,26.5c-.29,1.89,2.6,2.7,2.9.79q2.08-13.35,5.18-26.49c.44-1.88-2.46-2.68-2.9-.8Z"/><path class="cls-24" d="M1089.65,852.57c-10.29,5.34-19.68,13-24.4,23.85-.77,1.76,1.82,3.29,2.59,1.52,4.54-10.41,13.43-17.64,23.32-22.77,1.71-.89.2-3.48-1.51-2.6Z"/><path class="cls-24" d="M1087.91,864.27a40.33,40.33,0,0,0,.75,11.07c.38,1.89,3.28,1.09,2.89-.8a37.26,37.26,0,0,1-.64-10.27c.15-1.93-2.85-1.92-3,0Z"/><path class="cls-24" d="M964.65,894l-3.1,15.33c-.38,1.89,2.51,2.69,2.9.8l3.09-15.33c.38-1.88-2.51-2.69-2.89-.8Z"/><path class="cls-24" d="M978.09,897.88a46,46,0,0,0,2.27,19.4c.61,1.82,3.51,1,2.89-.8a44.16,44.16,0,0,1-2.16-18.6c.19-1.92-2.82-1.91-3,0Z"/><path class="cls-24" d="M954.31,888.54c-5.27-.5-8.77,5.55-11.84,9-3.27,3.67-7,7.44-6,12.72.36,1.89,3.25,1.09,2.9-.8-.81-4.32,3.58-8,6.18-10.87,2.21-2.45,5.08-7.37,8.76-7,1.92.19,1.9-2.81,0-3Z"/><path class="cls-24" d="M1086.47,899.05c5.84.71,13.15,4.39,17.61,8.2,5.44,4.64,6.24,12.57,7.81,19.18.44,1.88,3.34,1.09,2.89-.79-1.74-7.33-2.67-15.71-8.82-20.78-5.19-4.27-12.77-8-19.49-8.81-1.91-.23-1.89,2.77,0,3Z"/><path class="cls-24" d="M1085.53,907.61c3.17,3.13,5.11,6.87,4.76,11.39-.15,1.92,2.85,1.91,3,0,.41-5.25-2-9.89-5.64-13.51-1.37-1.35-3.5.77-2.12,2.12Z"/><path class="cls-24" d="M1073.63,905.67a56.22,56.22,0,0,0-6.74,26.3,1.5,1.5,0,0,0,3,0,52.69,52.69,0,0,1,6.33-24.78c.9-1.71-1.69-3.23-2.59-1.52Z"/><path class="cls-24" d="M1183.39,917.51a36.18,36.18,0,0,1,4.85,21.48c-.17,1.92,2.83,1.91,3,0a39.07,39.07,0,0,0-5.26-23,1.5,1.5,0,0,0-2.59,1.51Z"/><path class="cls-24" d="M1170.91,924a77.08,77.08,0,0,1-.11,14.41c-.2,1.92,2.81,1.9,3,0a77.08,77.08,0,0,0,.11-14.41c-.17-1.91-3.17-1.92-3,0Z"/><path class="cls-24" d="M1191.48,910.1c6.83.58,14.51,2.95,18.55,8.9,1.08,1.59,3.68.09,2.59-1.52-4.69-6.9-13.16-9.7-21.14-10.38-1.92-.16-1.91,2.84,0,3Z"/><path class="cls-24" d="M1237,937c7.25,3.83,13.78,9.6,15.51,17.94.4,1.88,3.29,1.08,2.89-.8-1.88-9.06-9-15.56-16.89-19.73-1.7-.91-3.22,1.68-1.51,2.59Z"/><path class="cls-24" d="M1240.7,953.81l.35,18.56c0,1.93,3,1.94,3,0l-.35-18.56c0-1.93-3-1.94-3,0Z"/><path class="cls-24" d="M1229.11,945.2a25.55,25.55,0,0,1-3,14.64c-.89,1.71,1.69,3.22,2.59,1.51a28.47,28.47,0,0,0,3.41-16.15c-.18-1.9-3.18-1.92-3,0Z"/><path class="cls-24" d="M1109.37,956.2c-9.72,6-17.47,15.71-15.29,27.68.35,1.9,3.24,1.1,2.9-.8-1.93-10.55,5.47-19.1,13.91-24.29,1.64-1,.13-3.61-1.52-2.59Z"/><path class="cls-24" d="M1119.36,967.76a33,33,0,0,0,2.5,20.23c.79,1.76,3.38.23,2.59-1.52a29.36,29.36,0,0,1-2.2-17.91c.37-1.89-2.53-2.7-2.89-.8Z"/><path class="cls-24" d="M1133.84,961.88a43.55,43.55,0,0,1,9.5,17.83c.47,1.87,3.37,1.08,2.9-.8A47.13,47.13,0,0,0,1136,959.76c-1.26-1.47-3.37.66-2.12,2.12Z"/><path class="cls-24" d="M999.56,943.62c-5.1,5.85-7.46,13.12-4.95,20.67.6,1.82,3.5,1,2.89-.8-2.17-6.54-.27-12.65,4.18-17.75,1.26-1.45-.85-3.58-2.12-2.12Z"/><path class="cls-24" d="M1014.51,951.59c-.84,4.91-1.63,10.11.72,14.74,2.06,4.07,5.83,6.55,10,8,1.83.64,2.62-2.26.8-2.89-9-3.14-10.13-10.5-8.66-19.05.32-1.89-2.57-2.7-2.89-.8Z"/><path class="cls-24" d="M1028.53,943.77c4,5.39,6.09,11.32,5.52,18.05-.16,1.93,2.84,1.92,3,0a28.49,28.49,0,0,0-5.93-19.56c-1.13-1.54-3.74,0-2.59,1.51Z"/><path class="cls-24" d="M930.24,955.83c-9.54,1.44-8.38,17.44-7.77,24.31.17,1.91,3.17,1.93,3,0-.48-5.4-1.75-20.31,5.57-21.42,1.9-.28,1.09-3.18-.8-2.89Z"/><path class="cls-24" d="M941.23,973.41c-1.94,6.62.31,12.85,4.94,17.74,1.34,1.4,3.45-.72,2.13-2.12-3.92-4.13-5.82-9.22-4.18-14.82.55-1.86-2.35-2.65-2.89-.8Z"/><path class="cls-24" d="M957,963.74c4.87,4,8.55,9.12,8.74,15.6,0,1.92,3,1.93,3,0-.21-7.25-4.12-13.23-9.62-17.72-1.48-1.22-3.61.89-2.12,2.12Z"/><path class="cls-24" d="M1187,988.18a163.29,163.29,0,0,1,2.84,21.81c.12,1.92,3.12,1.93,3,0a168.74,168.74,0,0,0-2.95-22.61c-.38-1.89-3.27-1.09-2.89.8Z"/><path class="cls-24" d="M1203,998.61l2.09,23.63c.17,1.91,3.17,1.92,3,0L1206,998.61c-.16-1.91-3.17-1.93-3,0Z"/><path class="cls-24" d="M1211.28,990.41c6.36,2.32,12.44,6,16.17,11.78,1,1.61,3.64.11,2.59-1.52-4.18-6.5-10.83-10.55-18-13.15-1.81-.66-2.6,2.24-.79,2.89Z"/><path class="cls-24" d="M1041.18,989.22c-4.86-.13-9.94,1.56-13.11,5.42-3.36,4.08-2.8,9.27-2,14.13.33,1.9,3.22,1.1,2.89-.8-.69-4-1.28-8.62,1.79-11.88a13.64,13.64,0,0,1,10.4-3.87c1.93,0,1.93-3,0-3Z"/><path class="cls-24" d="M1052.11,1003.74a40.35,40.35,0,0,0,1.39,16.64c.54,1.85,3.44,1.06,2.89-.8a38.21,38.21,0,0,1-1.28-15.84c.25-1.91-2.76-1.89-3,0Z"/><path class="cls-24" d="M1063,994.8c3.67,2.84,6.62,6.6,6.86,11.39.09,1.92,3.1,1.93,3,0-.28-5.59-3.41-10.16-7.74-13.52-1.51-1.16-3.65.94-2.12,2.13Z"/><path class="cls-24" d="M1087.06,778c-8-.3-17.38-.73-23.88,4.85-1.46,1.26.67,3.37,2.12,2.12,5.79-5,14.66-4.24,21.76-4,1.93.07,1.93-2.93,0-3Z"/><path class="cls-24" d="M1088.59,785.34q-.19,10,.59,20c.15,1.91,3.15,1.93,3,0q-.78-10-.59-20c0-1.94-3-1.94-3,0Z"/><path class="cls-24" d="M1103,790l2.41,5.5c.77,1.76,3.35.23,2.59-1.52l-2.41-5.5c-.77-1.76-3.35-.24-2.59,1.52Z"/><path class="cls-24" d="M1235,887.83c8.22,1.8,16.08,5.06,22.1,11.09a1.5,1.5,0,0,0,2.12-2.12c-6.36-6.38-14.72-10-23.42-11.87-1.88-.41-2.68,2.48-.8,2.9Z"/><path class="cls-24" d="M1027,885.23c-6.35.37-14.73,3.24-16.35,10.24-.44,1.88,2.46,2.68,2.89.8,1.3-5.61,8.46-7.75,13.46-8,1.91-.11,1.93-3.11,0-3Z"/><path class="cls-24" d="M943,925.8c-8.33.06-21.29,1-24.55,10.42-.64,1.82,2.26,2.61,2.89.79,2.7-7.76,14.93-8.16,21.66-8.21a1.5,1.5,0,0,0,0-3Z"/><path class="cls-24" d="M1132.34,889.25c8.35,2.12,16.26,5.48,22.91,11,1.47,1.23,3.61-.88,2.12-2.12-7-5.91-15.36-9.58-24.23-11.82-1.87-.48-2.67,2.41-.8,2.89Z"/><path class="cls-24" d="M1111.54,833.28a33.16,33.16,0,0,1,5.89.42c1.25.25,4.16.92,4.33,2.57.2,1.9,3.2,1.92,3,0-.61-5.85-8.87-5.91-13.22-6-1.93,0-1.93,3,0,3Z"/><path class="cls-24" d="M1147.24,932.93c-7.71-1.82-9.89,8.21-11.74,13.58-.63,1.83,2.27,2.61,2.89.8.89-2.59,1.85-5.14,2.93-7.65,1-2.26,2.23-4.52,5.13-3.83,1.87.44,2.67-2.45.79-2.9Z"/><path class="cls-24" d="M1260.27,985c5.31,2,10.33,5.41,12.66,10.78.76,1.77,3.35.24,2.59-1.51-2.64-6.08-8.47-9.86-14.45-12.16-1.8-.7-2.58,2.2-.8,2.89Z"/><path class="cls-24" d="M1142.06,997a27.77,27.77,0,0,0-1.93,17.53c.4,1.88,3.3,1.08,2.89-.8a24.37,24.37,0,0,1,1.63-15.22c.77-1.75-1.82-3.28-2.59-1.51Z"/></g><path class="cls-36" d="M981.15,862.19a3.76,3.76,0,0,1,3-1.67,4.1,4.1,0,0,1,.83.08,1.89,1.89,0,0,0,1.47-.3,50.13,50.13,0,0,1,8.65-4.37,27.54,27.54,0,0,1,10-1.94,21.9,21.9,0,0,1,6.49,1,17.93,17.93,0,0,1,6.13,3.44,27,27,0,0,1,5.83,6.35,41.86,41.86,0,0,1,4.41,8.56,59.49,59.49,0,0,1,2.8,10,56.68,56.68,0,0,1,1,10.59,47.59,47.59,0,0,1-3.69,18.88,43.08,43.08,0,0,1-9.65,14.38,22.64,22.64,0,0,1-13.09,6.27c-1,.12-1.93.21-2.92.26s-1.93.09-2.8.09a39.2,39.2,0,0,1-5.35-.35c-1.08-.15-2.15-.31-3.22-.5a1.72,1.72,0,0,0-2,1.7v13.09q0,8.47.12,15.18a10.88,10.88,0,0,1-1.61,6.09,4.17,4.17,0,0,1-3.28,2,4,4,0,0,1-3.09-1.86,11.05,11.05,0,0,1-1.78-5.63c0-.07,0-.13,0-.2V929a1.46,1.46,0,0,1-.83-.36,8.44,8.44,0,0,1-2.62-3.35,9.68,9.68,0,0,1-.83-3.88,8.1,8.1,0,0,1,1.07-4.15,5.55,5.55,0,0,1,2.16-2.14,1.75,1.75,0,0,0,.93-1.53v-46a1.66,1.66,0,0,1,0-.32A11.5,11.5,0,0,1,981.15,862.19Zm31.91,8.91a13.06,13.06,0,0,0-8.1-2.82,20.39,20.39,0,0,0-8.33,1.85,43.24,43.24,0,0,0-6.88,3.81,1.72,1.72,0,0,0-.74,1.43v41.25a1.7,1.7,0,0,0,1.18,1.64,29.49,29.49,0,0,0,3.82.93,28.77,28.77,0,0,0,5.12.44,23.67,23.67,0,0,0,5-.53,34.3,34.3,0,0,0,6.84-2.56,15.46,15.46,0,0,0,6-5.73,31.41,31.41,0,0,0,3.57-8.47,36.6,36.6,0,0,0,1.19-9.18,36,36,0,0,0-2.2-12.61A21.94,21.94,0,0,0,1013.06,871.1Z"/><path class="cls-36" d="M1082.36,951.59a1.8,1.8,0,0,1,.88.19,6.81,6.81,0,0,1,2.92,3,9,9,0,0,1,1,4.32,8.75,8.75,0,0,1-1.25,4.24,6,6,0,0,1-3.19,2.65,2,2,0,0,1-.54.1q-9,.33-17.94.43t-17.89.43a1.84,1.84,0,0,1-.41,0q-4.42-.82-4.91-7.47s0-.11,0-.16q0-23.26.12-46.33t.12-46.45c0-.09,0-.19,0-.29a10.63,10.63,0,0,1,1.83-5,4.08,4.08,0,0,1,2.85-1.85,3.68,3.68,0,0,1,2.92,1.5,10.47,10.47,0,0,1,2.1,4.74,1.81,1.81,0,0,1,0,.4q0,21.78-.11,43.12-.12,20.57-.12,41.52a1.73,1.73,0,0,0,1.8,1.73q7.08-.28,14.15-.36Q1074.51,951.93,1082.36,951.59Z"/><path class="cls-36" d="M1155.44,959.57a2.09,2.09,0,0,1,0,.25,13,13,0,0,1-1.18,5.34,4.53,4.53,0,0,1-2.62,2.56,3.36,3.36,0,0,1-3.1-.79,9,9,0,0,1-2.53-4,1.89,1.89,0,0,1-.11-.47q-.7-8.16-2-16.08-1.2-7.33-2.79-14.59a1.74,1.74,0,0,0-1.72-1.37l-30.14.34a1.78,1.78,0,0,1-.53-.09,1.9,1.9,0,0,0-.54-.09q-3,15-5.34,31c0,.07,0,.14,0,.21-.64,2.41-1.54,4-2.72,4.83a3.32,3.32,0,0,1-3.39.53,5.51,5.51,0,0,1-2.62-3.17,12.83,12.83,0,0,1-.53-6.36q3.93-25.58,9.46-50a412.5,412.5,0,0,1,13.87-47.73q.72-3.34,3.34-4.24a3,3,0,0,1,2.5-.26,4.3,4.3,0,0,1,2,1.68q.12,0,.12.09c0,.06,0,.08.12.08a89.36,89.36,0,0,1,10.36,19.94q4.15,11.13,7.62,22.59c.87,2.71,1.68,5.41,2.44,8.12.63,2.27,1.25,4.53,1.85,6.8a1.74,1.74,0,0,0,1.72,1.28l4.49-.13a1.79,1.79,0,0,1,.85.19,6.75,6.75,0,0,1,2.93,3,8.71,8.71,0,0,1-.23,8.56,5.92,5.92,0,0,1-3.16,2.63,1.77,1.77,0,0,1-.61.1h-.06a1.73,1.73,0,0,0-1.69,2.08q1.27,6.21,2.24,12.48Q1154.85,952,1155.44,959.57Zm-31-80.9a1.73,1.73,0,0,0-3.22.23q-2.58,8.07-4.8,16.38-2.52,9.36-4.69,18.85a1.73,1.73,0,0,0,1.71,2.12L1135,916a1.74,1.74,0,0,0,1.63-2.23q-1.23-4.15-2.5-8.21-1.62-5.12-3.28-10.24-1.9-5.12-3.81-10.41Q1125.85,881.68,1124.48,878.67Z"/><path class="cls-36" d="M1191.4,959c-.08,2.7-.61,4.73-1.61,6.08a4.14,4.14,0,0,1-3.27,2,4,4,0,0,1-3.09-1.85,11,11,0,0,1-1.78-5.64,1.21,1.21,0,0,1,0-.19q0-10.71-.06-21.35-.06-10.41-.06-21.07a1.7,1.7,0,0,0-.31-1,190.29,190.29,0,0,1-13.2-22.24,108.16,108.16,0,0,1-9.2-26.76,1.53,1.53,0,0,1,0-.3c0-.2,0-.41-.06-.64a6,6,0,0,1-.06-.8,10.19,10.19,0,0,1,1.37-5.73,3.83,3.83,0,0,1,3.16-2c1.78,0,3.29,1.28,4.54,3.86a1.42,1.42,0,0,1,.14.41,98.55,98.55,0,0,0,7.46,22.46,151.62,151.62,0,0,0,9.4,16.8,1.72,1.72,0,0,0,2.94-.1l10.1-17.76a137.93,137.93,0,0,0,9.94-21.79,8.65,8.65,0,0,1,2.21-3.53,3.78,3.78,0,0,1,2.44-1.06,4,4,0,0,1,3.21,1.94,8.46,8.46,0,0,1,1.43,5.12,15.62,15.62,0,0,1-.57,3.77,1.29,1.29,0,0,1-.06.21,169.19,169.19,0,0,1-11.51,24.87q-6.67,11.74-13.1,23.38l-.48.71V937.9Q1191.28,948.4,1191.4,959Z"/><g class="cls-4"><line class="cls-37" x1="1657" y1="-2.01" x2="1919" y2="305.99"/><line class="cls-37" x1="1919.5" y1="-2.51" x2="1787.5" y2="151.49"/><line class="cls-37" x1="1683.5" y1="29.49" x2="1919.5" y2="-2.51"/><line class="cls-37" x1="1867.5" y1="239.49" x2="1919.5" y2="-2.51"/><line class="cls-37" x1="1826.5" y1="197.49" x2="1919.5" y2="-2.51"/><line class="cls-37" x1="1738.5" y1="84.49" x2="1919.5" y2="-2.51"/><line class="cls-37" x1="1918.5" y1="216.49" x2="1864.5" y2="213.49"/><line class="cls-37" x1="1721.5" y1="-2.51" x2="1721.5" y2="24.49"/><line class="cls-37" x1="1864.5" y1="213.49" x2="1837.5" y2="181.49"/><line class="cls-37" x1="1721.5" y1="24.49" x2="1759.5" y2="74.49"/><line class="cls-37" x1="1837.5" y1="181.49" x2="1759.5" y2="74.49"/><line class="cls-37" x1="1769.5" y1="-1.51" x2="1769.5" y2="17.49"/><line class="cls-37" x1="1918.5" y1="162.49" x2="1884.5" y2="162.49"/><line class="cls-37" x1="1769.5" y1="17.49" x2="1795.5" y2="57.49"/><line class="cls-37" x1="1884.5" y1="162.49" x2="1853.5" y2="139.49"/><line class="cls-37" x1="1795.5" y1="57.49" x2="1853.5" y2="139.49"/><line class="cls-37" x1="1918.5" y1="118.49" x2="1891.5" y2="118.49"/><line class="cls-37" x1="1811.5" y1="-1.51" x2="1814.5" y2="11.49"/><line class="cls-37" x1="1891.5" y1="118.49" x2="1862.5" y2="64.49"/><line class="cls-37" x1="1814.5" y1="11.49" x2="1862.5" y2="64.49"/><line class="cls-37" x1="1868.5" y1="-3.51" x2="1868.5" y2="5.49"/><line class="cls-37" x1="1918.5" y1="49.49" x2="1893.5" y2="49.49"/><line class="cls-37" x1="1868.5" y1="5.49" x2="1868.5" y2="22.49"/><line class="cls-37" x1="1893.5" y1="41.49" x2="1891.5" y2="24.49"/><line class="cls-37" x1="1868.5" y1="22.49" x2="1891.5" y2="24.49"/></g><line class="cls-37" x1="1893.5" y1="41.49" x2="1895.5" y2="49.49"/><g class="cls-4"><path class="cls-31" d="M1099,693.4c-4.39,3.86-10.5,4.85-15.6,1.66-4.5-2.81-6.07-7.79-7.27-12.64-1.77-7.15-3-14-9.2-18.62-7.71-5.73-22.51-7.33-25.28,4.43-.44,1.88,2.45,2.68,2.89.8,2-8.29,12-7.73,18-4.48,8.65,4.63,8.91,13.22,11.44,21.57,3.67,12.16,16.66,18.61,27.12,9.4,1.45-1.27-.68-3.39-2.12-2.12Z"/><circle class="cls-32" cx="1070.42" cy="635.9" r="10"/><path class="cls-33" d="M1078.18,644a7.86,7.86,0,0,0-14-7"/><circle class="cls-32" cx="1097.16" cy="610.81" r="10"/><path class="cls-33" d="M1104.53,619.28a7.85,7.85,0,1,1-6.15-14.45"/><path class="cls-34" d="M1138.7,633.16c23.25,10.57,19.11,33.49.54,50.92s-41.82,21.53-50.78-3.78c-9.91-28-21.29-43.82-7.57-58.41C1096.15,605.67,1121.91,625.53,1138.7,633.16Z"/><path class="cls-32" d="M1113.85,634.46c4.7,3,8.72,6.35,9.49,7.49s-5.7,2.07-11.61,3.39c-6.09,1.37-10.36-3.57-9.82-7.55S1108,630.72,1113.85,634.46Z"/><circle class="cls-14" cx="1097.35" cy="638.25" r="7.92"/><circle class="cls-14" cx="1108.9" cy="627.42" r="7.92"/><path class="cls-35" d="M1103.63,633.31a7.67,7.67,0,0,1-2.3-8.89c1.37-3.52,5.46-5.42,8.05-4.88Z"/><circle cx="1099.07" cy="637.21" r="1.94"/><circle cx="1108.07" cy="628.77" r="1.94"/><circle class="cls-20" cx="1124.93" cy="642.05" r="2.92"/><path class="cls-35" d="M1103.55,633.38a7.67,7.67,0,0,0-8.72-2.87c-3.6,1.16-5.75,5.12-5.38,7.73"/><rect x="1125.09" y="629.54" width="21.39" height="0.83" rx="0.42" transform="translate(-162.9 613.13) rotate(-28.27)"/><rect x="1147.3" y="622.83" width="0.83" height="5.83" transform="translate(313.23 1631.95) rotate(-78.93)"/><rect x="1142.95" y="621.91" width="5.83" height="0.83" transform="translate(134.07 1444.86) rotate(-67.62)"/><rect x="1144.36" y="623.36" width="5.83" height="0.83" transform="translate(-158.6 617.84) rotate(-28.27)"/><rect x="1108.65" y="654.11" width="21.39" height="0.83" rx="0.42" transform="translate(-168.14 500.52) rotate(-23.5)"/><rect x="1131.16" y="648.41" width="0.83" height="5.83" transform="translate(196 1562.04) rotate(-74.15)"/><rect x="1127.11" y="647.34" width="5.83" height="0.83" transform="translate(37.85 1357.47) rotate(-62.84)"/><rect x="1128.4" y="648.9" width="5.83" height="0.83" transform="translate(-165.07 504.87) rotate(-23.5)"/><rect class="cls-32" x="1146.31" y="634.97" width="10.56" height="4.17" transform="translate(-158.94 757.55) rotate(-34.2)"/><path class="cls-32" d="M1156.1,625.42l2,8.45a1.51,1.51,0,0,1-1,1.89l-.55.17a1.54,1.54,0,0,1-1.9-1l-3.36-8.2c-.24-.81,1.12-1.93,1.92-2.16l.55-.16A2.1,2.1,0,0,1,1156.1,625.42Z"/><circle class="cls-32" cx="1154.86" cy="624.58" r="1.39"/><circle class="cls-32" cx="1151.55" cy="625.15" r="1.39"/><circle class="cls-32" cx="1153.09" cy="624.44" r="1.39"/><rect class="cls-32" x="1129.88" y="660.17" width="10.56" height="4.17" transform="translate(-171.35 804.38) rotate(-36.47)"/><path class="cls-32" d="M1139.22,650.44l2.33,8.37a1.53,1.53,0,0,1-1,1.94l-.54.18a1.53,1.53,0,0,1-1.94-1l-3.68-8.06c-.27-.8,1-2,1.84-2.24l.54-.18A2.1,2.1,0,0,1,1139.22,650.44Z"/><circle class="cls-32" cx="1137.94" cy="649.66" r="1.39"/><circle class="cls-32" cx="1134.66" cy="650.36" r="1.39"/><circle class="cls-32" cx="1136.17" cy="649.59" r="1.39"/><polyline class="cls-31" points="1045.24 668.46 1043.22 675.51 1041.05 669.03"/></g></svg>
