<svg id="Layer_1" data-name="Layer 1" xmlns="http://www.w3.org/2000/svg" xmlns:xlink="http://www.w3.org/1999/xlink" viewBox="0 0 1520 1140"><defs><style>.cls-1{filter:url(#AI_BevelShadow_1);}.cls-2{fill:#a67c52;}.cls-3{fill:none;stroke:#000;stroke-miterlimit:10;stroke-width:4px;}.cls-4{fill:#c1272d;}</style><filter id="AI_BevelShadow_1" x="-20" y="-20" width="140" height="140" name="AI_BevelShadow_1"><feGaussianBlur result="blur" stdDeviation="4" in="SourceAlpha"/><feOffset result="offsetBlur" dx="4" dy="4" in="blur"/><feSpecularLighting result="specOut" surfaceScale="5" specularExponent="10" in="blur"><fePointLight x="-5000" y="-10000" z="-20000"/></feSpecularLighting><feComposite result="specOut" operator="in" in="specOut" in2="SourceAlpha"/><feComposite result="litPaint" operator="arithmetic" k2="1" k3="1" in="SourceGraphic" in2="specOut"/><feMerge><feMergeNode in="offsetBlur"/><feMergeNode in="litPaint"/></feMerge></filter></defs><title>stopspil_knap</title><g class="cls-1"><rect class="cls-2" x="585.58" y="508.3" width="308" height="123"/><rect class="cls-3" x="585.58" y="508.3" width="308" height="123"/></g><path class="cls-4" d="M694.58,527.3h32l11.5,23.21,11.5-23.21h32l-24,35.16,29,43.84h-34l-14.5-31.55-14.5,31.55h-33l28.24-43.84Z"/><path d="M864.88,549.82c6.44,0,6.45-10,0-10s-6.44,10,0,10Z"/><path d="M860.67,604.59c6.43,0,6.44-10,0-10s-6.45,10,0,10Z"/><path d="M607.89,541.4c6.43,0,6.45-10,0-10s-6.45,10,0,10Z"/><path d="M605.78,600.38c6.44,0,6.45-10,0-10s-6.44,10,0,10Z"/></svg>
