<svg id="Layer_1" data-name="Layer 1" xmlns="http://www.w3.org/2000/svg" viewBox="0 0 800 900"><defs><style>.cls-1{opacity:0.26;}.cls-2{fill:#fbb03b;}.cls-3{fill:#ff9bac;}.cls-4{fill:#fff;}.cls-5,.cls-6,.cls-7{stroke:#000;}.cls-5{stroke-linejoin:round;stroke-width:8px;}.cls-6,.cls-7,.cls-9{fill:none;stroke-miterlimit:10;}.cls-6{stroke-width:3px;}.cls-8{fill:#f7931e;}.cls-9{stroke:#fbb03b;stroke-width:16px;}</style></defs><title>surkat</title><ellipse class="cls-1" cx="462.33" cy="723.75" rx="249.18" ry="38"/><path class="cls-2" d="M333.47,230.13c-13.13,9.81-50.44,40.52-52.53,39.24-9.75-6-18.71-114.85-8.16-121.16,15.17-9.09,112.62,26.85,114.51,37.72C388.47,192.68,351.12,217,333.47,230.13Z"/><path class="cls-2" d="M584.4,227.19c-12.45-10.66-50.6-40.33-49.81-42.65C538.28,173.72,642.54,141.1,651,150c12.19,12.81-1.51,115.77-11.7,120C633,272.64,601.12,241.51,584.4,227.19Z"/><path class="cls-3" d="M588.79,224.05c-6.95-6-28.27-22.53-27.82-23.83,2.06-6,60.31-24.27,65-19.29,6.8,7.16-.85,64.68-6.54,67C615.94,249.44,598.14,232.05,588.79,224.05Z"/><path class="cls-3" d="M330.89,221.86c-7.31,5.52-28.06,22.79-29.23,22.08-5.46-3.31-10.8-64.11-4.92-67.67,8.44-5.12,63,14.67,64.09,20.74C361.51,200.77,340.71,214.44,330.89,221.86Z"/><ellipse class="cls-2" cx="458.8" cy="410.95" rx="226.21" ry="244.77"/><circle class="cls-4" cx="400.48" cy="302.26" r="56.55"/><circle class="cls-4" cx="513.58" cy="302.26" r="56.55"/><circle cx="373.08" cy="285.47" r="13.25"/><circle cx="544.51" cy="311.98" r="13.25"/><polygon class="cls-5" points="442.89 364.12 457.91 343.77 472.94 364.12 442.89 364.12"/><path class="cls-6" d="M490.9,419.34c-3.53-5.3-7.07-12.37-15.9-23-7.25-8.69-17.33-1.06-17.09-13.7"/><path class="cls-6" d="M427.28,417.58c3.53-5.31,7-12.32,12.37-19.44,7.37-9.73,18.26-3.27,18.26-15.47"/><path class="cls-7" d="M603.71,417.13c0,98-13.54,107.81-29.16,107.81s-27.39-9.84-27.39-107.81"/><path class="cls-7" d="M377.5,417.13c0,98-13.54,107.81-29.16,107.81S321,515.1,321,417.13"/><path class="cls-8" d="M683.32,439.83c-1.39,11-1.92,11.63-8,9.67-7.59-2.44-48.9-14-47.61-20.29,1.62-7.83,43.58-6.16,49.15-5.32C683.83,425,685.35,423.73,683.32,439.83Z"/><path class="cls-8" d="M684.42,395.53c.75,11.1.34,11.79-6,11-7.92-.95-50.68-4.4-50.61-10.81.09-8,41.6-14.38,47.22-14.62C682.08,380.84,683.33,379.34,684.42,395.53Z"/><path class="cls-8" d="M674.59,484.39c-3,10.72-3.56,11.24-9.31,8.43-7.16-3.51-46.4-20.87-44.22-26.89,2.72-7.52,44,.14,49.4,1.77C677.22,469.74,678.9,468.75,674.59,484.39Z"/><path class="cls-8" d="M243.07,484.33c2.93,10.73,3.54,11.25,9.29,8.45,7.17-3.49,46.45-20.76,44.28-26.78-2.7-7.53-44,0-49.4,1.64C240.47,469.67,238.8,468.67,243.07,484.33Z"/><path class="cls-8" d="M234.31,440.43c.93,11.08,1.44,11.71,7.6,10,7.69-2.13,49.45-12,48.42-18.28-1.29-7.89-43.29-8-48.89-7.37C234.42,425.55,233,424.26,234.31,440.43Z"/><path class="cls-8" d="M233.4,393.77c-.75,11.09-.34,11.78,6,11,7.92-1,50.68-4.4,50.61-10.81-.09-8-41.6-14.38-47.22-14.62C235.74,379.07,234.49,377.58,233.4,393.77Z"/><path class="cls-8" d="M511.92,173.08c10.72,2.95,10,3.87,8.86,7.77-1.9,6.54-17.67,34.92-23.72,32.85-7.56-2.57-2.57-34.3-1.3-38.41C497.35,170.15,496.27,168.78,511.92,173.08Z"/><path class="cls-8" d="M465.87,166.18c11,0,10,3.49,10.16,5.18.44,5.43-7.82,38.57-14.14,38.22-8.14-.45-11.47-32.48-11.21-37C451,167.84,449.8,166.13,465.87,166.18Z"/><path class="cls-8" d="M413.33,171.19c-10.85,2.41-10.17,3.36-9.24,7.31,1.57,6.64,15.9,35.77,22.05,34,7.68-2.19,4.29-34.14,3.22-38.3C428,169,429.17,167.68,413.33,171.19Z"/><rect x="455.26" y="371.19" width="5.3" height="12.37"/><rect x="562.44" y="499.11" width="1.77" height="19.84" rx="0.5" transform="translate(189.57 -151.84) rotate(18.41)"/><rect x="586.78" y="499.33" width="1.77" height="19.41" rx="0.5" transform="translate(-70.05 94.46) rotate(-8.67)"/><rect x="574.55" y="500.2" width="1.77" height="24.74" rx="0.5"/><rect x="336.28" y="498.85" width="1.77" height="19.84" rx="0.5" transform="translate(177.91 -80.44) rotate(18.41)"/><rect x="360.62" y="499.07" width="1.77" height="19.41" rx="0.5" transform="translate(-72.6 60.34) rotate(-8.67)"/><rect x="348.39" y="499.93" width="1.77" height="24.74" rx="0.5"/><rect class="cls-2" x="384.57" y="638.04" width="30.04" height="70.69"/><rect class="cls-2" x="506.51" y="638.04" width="30.04" height="70.69"/><ellipse class="cls-2" cx="537.44" cy="712.27" rx="20.32" ry="31.81" transform="matrix(0.27, -0.96, 0.96, 0.27, -294.23, 1035.51)"/><ellipse class="cls-2" cx="383.69" cy="712.27" rx="31.81" ry="20.32" transform="translate(-179.41 131.35) rotate(-15.8)"/><path class="cls-9" d="M277,550.93c-25.35,17.9-66.74,29.65-99.2,20C127.05,555.73,95.69,496.83,124.36,461"/><path class="cls-9" d="M126.49,350.83c37.09,21.57,42.57,52.81-2.88,111.41"/><ellipse class="cls-8" cx="106.23" cy="355.28" rx="36.23" ry="25.63"/><path class="cls-8" d="M458.05,295.1c-1.26,3.17-25.85-3.64-54.92-15.22s-51.61-23.54-50.34-26.71,42.77-15.95,71.84-4.37S459.32,291.92,458.05,295.1Z"/><path class="cls-8" d="M457.06,295.1c1.26,3.17,25.85-3.64,54.92-15.22s51.61-23.54,50.34-26.71-43.23-15.95-72.3-4.37S455.79,291.92,457.06,295.1Z"/></svg>
