<svg id="Layer_1" data-name="Layer 1" xmlns="http://www.w3.org/2000/svg" viewBox="0 0 1520 1140"><defs><style>.cls-1{fill:#006837;}.cls-2{fill:red;}</style></defs><title>tid</title><path class="cls-1" d="M754.78,504.06c-142.32,15.36-287.2,131.52-287.2,131.52V306.3l551.32,1S947.2,483.29,754.78,504.06Z"/><path class="cls-2" d="M602.72,366.39a46.76,46.76,0,0,1,17.35,3.3q11.31,4.43,16.9,13.19a24.67,24.67,0,0,1,4.14,13.63q0,13.2-13.48,21.61a43.68,43.68,0,0,1-23.53,6.4q-14.6,0-24.85-7.14-12.16-8.42-12.16-22.49,0-13.72,11.11-21.56Q588,366.4,602.72,366.39Zm-1.51,14.67q-6.12,0-6.12,7.78a33.22,33.22,0,0,0,5.2,18.31,6.21,6.21,0,0,0,5.45,3.15q6,0,6-7.93a38.26,38.26,0,0,0-1.28-9.47,28.91,28.91,0,0,0-3.25-8.2A7.07,7.07,0,0,0,601.21,381.06Z"/><path class="cls-2" d="M665,372.84a17.56,17.56,0,0,1,10.81,3.37q4.5,3.38,4.5,8.1a10.09,10.09,0,0,1-4.66,8.51,19.72,19.72,0,0,1-21.69,0,10.08,10.08,0,0,1-4.67-8.51,9.38,9.38,0,0,1,3.94-7.63A18.09,18.09,0,0,1,665,372.84Zm0,28.45a17.49,17.49,0,0,1,10.81,3.37q4.5,3.38,4.5,8.1a10.09,10.09,0,0,1-4.66,8.51,19.72,19.72,0,0,1-21.69,0,10.08,10.08,0,0,1-4.67-8.51,9.38,9.38,0,0,1,3.94-7.63A18.09,18.09,0,0,1,665,401.29Z"/><path class="cls-2" d="M695.86,413.59c.62,0,2.06.12,4.34.35a21.39,21.39,0,0,0,2.5.19q5.58,0,6.44-6.59.47-3.74.46-21.26,0-2.65-1.44-3.69t-5.26-1c-.62,0-1.49.05-2.63.15-.88.07-1.65.1-2.3.1a6.45,6.45,0,0,1-3.62-.91A2.76,2.76,0,0,1,693,378.5q0-1.58,2.1-3.12a20.19,20.19,0,0,1,5.86-2.74,130.23,130.23,0,0,1,39.57-5.9c3.81,0,6.58.33,8.31,1s2.6,1.74,2.6,3.22a2.47,2.47,0,0,1-.85,2,11.23,11.23,0,0,1-3.42,1.55q-4.08,1.33-4.67,3.25t-.92,15q.53,13.2.59,14.13a14,14,0,0,0,.53,2.61,5.37,5.37,0,0,0,3,3.59q2.16,1,7.62,1.18,6.18.21,6.18,3.79,0,3.75-8.74,4.93a189.12,189.12,0,0,1-25,1.62q-8.41,0-15.91-.74a95,95,0,0,1-14.59-2.41q-5.07-1.38-5.07-4.13a3.07,3.07,0,0,1,1.65-2.56A7.5,7.5,0,0,1,695.86,413.59Z"/><path class="cls-2" d="M836.67,373.28,810,433.82a3.19,3.19,0,0,1-2,1.68,18.78,18.78,0,0,1-4.86.44,53.13,53.13,0,0,1-13.77-1.67q-6.22-1.68-6.22-3.7a2.37,2.37,0,0,1,.53-1.23l24.52-35.09c1.79-2.59,2.69-4.4,2.69-5.41,0-1.25-1-2.1-3.09-2.56a62,62,0,0,0-11.43-.69q-10,0-14.27.93a6.57,6.57,0,0,0-3.22,1.87,11.63,11.63,0,0,1-3.32,2.54,9.5,9.5,0,0,1-3.84.66,8.67,8.67,0,0,1-7-2.83c-1.62-1.88-2.43-4.6-2.43-8.14a18.62,18.62,0,0,1,3.15-11,12.54,12.54,0,0,1,3.91-3.52,9.13,9.13,0,0,1,4.57-1.4,28.4,28.4,0,0,1,6.64,1.72,28.23,28.23,0,0,0,8.15,1H831q6.24,0,6.24,3.54A5.6,5.6,0,0,1,836.67,373.28Z"/></svg>
