<svg id="Layer_1" data-name="Layer 1" xmlns="http://www.w3.org/2000/svg" xmlns:xlink="http://www.w3.org/1999/xlink" viewBox="0 0 500 100"><defs><style>.cls-1{fill:url(#radial-gradient);}.cls-2{fill:#fff;}.cls-3{fill:none;}.cls-4{fill:url(#radial-gradient-2);}.cls-5{fill:url(#radial-gradient-3);}.cls-6{fill:url(#radial-gradient-4);}.cls-7{fill:url(#radial-gradient-5);}</style><radialGradient id="radial-gradient" cx="51" cy="49.5" r="23.09" gradientUnits="userSpaceOnUse"><stop offset="0" stop-color="#fff"/><stop offset="0" stop-color="#fff7ee"/><stop offset="0" stop-color="#fff0df"/><stop offset="0.54" stop-color="#ffbd75"/><stop offset="1" stop-color="#ff931e"/></radialGradient><radialGradient id="radial-gradient-2" cx="251" r="23.09" xlink:href="#radial-gradient"/><radialGradient id="radial-gradient-3" cx="351" r="23.09" xlink:href="#radial-gradient"/><radialGradient id="radial-gradient-4" cx="450" cy="49.5" r="23.09" gradientUnits="userSpaceOnUse"><stop offset="0" stop-color="#cce0f4"/><stop offset="0" stop-color="#cbdff3"/><stop offset="0" stop-color="#caddf1"/><stop offset="0.91" stop-color="#87898a"/><stop offset="1" stop-color="gray"/></radialGradient><radialGradient id="radial-gradient-5" cx="151" cy="48.5" r="23.09" xlink:href="#radial-gradient"/></defs><title>Toggle_sprite</title><rect class="cls-1" x="21.5" y="35.5" width="59" height="28" rx="14"/><circle class="cls-2" cx="65.5" cy="49.5" r="12"/><rect class="cls-3" y="-0.5" width="100" height="100"/><rect class="cls-4" x="221.5" y="35.5" width="59" height="28" rx="14"/><circle class="cls-2" cx="250.5" cy="49.5" r="12"/><rect class="cls-3" x="200" y="-0.5" width="100" height="100"/><rect class="cls-5" x="321.5" y="35.5" width="59" height="28" rx="14"/><circle class="cls-2" cx="343.5" cy="49.5" r="12"/><rect class="cls-3" x="300" y="-0.5" width="100" height="100"/><rect class="cls-6" x="420.5" y="35.5" width="59" height="28" rx="14"/><circle class="cls-2" cx="435" cy="49.5" r="12"/><rect class="cls-3" x="400" y="-0.5" width="100" height="100"/><rect class="cls-7" x="121.5" y="34.5" width="59" height="28" rx="14"/><circle class="cls-2" cx="157.5" cy="48.5" r="12"/><rect class="cls-3" x="100" y="-0.5" width="100" height="100"/></svg>
